G04 ================== begin FILE IDENTIFICATION RECORD ==================*
G04 Layout Name:  D:/Project/31_HUASHAN_FPC/Output/SP1HSFLB.brd*
G04 Film Name:    art02*
G04 File Format:  Gerber RS274X*
G04 File Origin:  Cadence Allegro 17.2-S053*
G04 Origin Date:  Fri Mar 12 13:39:14 2021*
G04 *
G04 Layer:  VIA CLASS/ART02*
G04 Layer:  PIN/ART02*
G04 Layer:  ETCH/ART02*
G04 Layer:  BOARD GEOMETRY/OUTLINE*
G04 *
G04 Offset:    (0.00 0.00)*
G04 Mirror:    No*
G04 Mode:      Positive*
G04 Rotation:  0*
G04 FullContactRelief:  No*
G04 UndefLineWidth:     6.00*
G04 ================== end FILE IDENTIFICATION RECORD ====================*
%FSLAX25Y25*MOIN*%
%IR0*IPPOS*OFA0.00000B0.00000*MIA0B0*SFA1.00000B1.00000*%
%ADD10C,.014*%
%ADD11C,.0004*%
%ADD12C,.003*%
%ADD13C,.005*%
%ADD14C,.006*%
G75*
%LPD*%
G75*
G36*
G01X34762Y90039D02*
X37362D01*
G02X37562Y89839I0J-200D01*
G01Y86989D01*
G02X37421Y86648I-483J0D01*
G01X37111Y86338D01*
G03X36970Y85997I343J-341D01*
G01Y83218D01*
G03X38505Y78851I6983J1D01*
G01X38608Y78724D01*
G02X39829Y77070I-20015J-16053D01*
G01X47892Y69007D01*
G02X48033Y68666I-342J-341D01*
G01Y13600D01*
G03X48174Y13259I484J0D01*
G01X48484Y12949D01*
G02X48625Y12608I-342J-341D01*
G01Y9845D01*
G02X48425Y9645I-200J0D01*
G01X45825D01*
G02X45625Y9845I0J200D01*
G01Y11366D01*
G03X45484Y11707I-483J0D01*
G01X45174Y12017D01*
G02X45033Y12358I343J341D01*
G01Y21255D01*
G03X43028Y26094I-6843J-1D01*
G01X42649Y26473D01*
G02X41255Y29839I3368J3366D01*
G01Y62665D01*
G03X36270Y76844I-22657J0D01*
G01X36167Y76972D01*
G02X33970Y83219I7786J6248D01*
G01Y87239D01*
G02X34111Y87580I484J0D01*
G01X34421Y87890D01*
G03X34562Y88231I-342J341D01*
G01Y89839D01*
G02X34762Y90039I200J0D01*
G37*
G54D10*
X1500Y76654D03*
X1890Y74180D03*
X3442Y72204D03*
X4400Y87254D03*
X2200D03*
X23563Y2200D03*
X26319D03*
X29764D03*
X18051D03*
X20807D03*
X16313Y1534D03*
Y2968D03*
X24941Y5608D03*
X19429D03*
X22185Y12322D03*
X12564Y23031D03*
X19155D03*
X23145D03*
X19155Y27031D03*
X23145D03*
X15463Y12430D03*
X13263D03*
X22185Y5608D03*
X12564Y34831D03*
Y37331D03*
Y49131D03*
Y51631D03*
X19155Y31031D03*
X23145D03*
X19155Y35031D03*
X23145D03*
X19155Y39031D03*
X23145D03*
X19155Y43031D03*
X23145D03*
X19155Y47031D03*
X23145D03*
X19155Y51031D03*
X23145D03*
X19155Y55031D03*
X23145D03*
X12564Y54131D03*
X19155Y59031D03*
X23145D03*
X10829Y63003D03*
X12564Y56631D03*
Y59131D03*
X12500Y97485D03*
X15256D03*
X13878Y94076D03*
X22835Y97485D03*
X18701D03*
X20768D03*
X29725D03*
X25591D03*
X27658D03*
X6988D03*
X9744D03*
X8366Y94076D03*
X11122Y87362D03*
X5250Y96716D03*
X23524Y90962D03*
X5250Y98150D03*
X19390Y87362D03*
X27658D03*
X11122Y94076D03*
X33898Y2200D03*
X31831D03*
X40788D03*
X36654D03*
X38721D03*
X44233D03*
X46013Y1568D03*
Y2968D03*
X46400Y11100D03*
X47850D03*
X45000Y26200D03*
X46533Y21139D03*
X42855Y8722D03*
X34587D03*
X49721Y23031D03*
Y25531D03*
Y28031D03*
X30453Y12322D03*
X38721D03*
X42755Y52750D03*
Y47350D03*
Y41950D03*
Y36550D03*
Y31150D03*
X49721Y39831D03*
Y42331D03*
X49269Y55472D03*
X51619D03*
X49721Y44831D03*
Y47331D03*
Y49831D03*
Y52331D03*
X37000Y78472D03*
X39950Y73900D03*
X42000Y68900D03*
X42755Y63550D03*
Y58150D03*
X40769Y78472D03*
X43269D03*
X51669Y69772D03*
Y72272D03*
X49269D03*
Y69772D03*
Y57972D03*
X51669D03*
X36787Y88584D03*
X35337D03*
X33170Y97485D03*
X31792Y90962D03*
X34950Y96716D03*
Y98116D03*
G54D11*
G01X1969Y99685D02*
G03X0Y97716I0J-1969D01*
G01Y75479D01*
G03X867Y73014I3937J0D01*
G01X11063Y60314D01*
Y1968D01*
G03X13032Y0I1968J0D01*
G01X49252D01*
G03X51221Y1968I1J1968D01*
G01Y52413D01*
G03X53169Y55811I-1989J3397D01*
G01Y76035D01*
G03X49232Y79972I-3937J0D01*
G01X40158D01*
Y97716D01*
G03X38189Y99685I-1969J0D01*
G01X1969D01*
G54D12*
G01X1054Y97786D02*
X1899Y98631D01*
G01X1051Y96510D02*
X3175Y98634D01*
G01X1051Y95238D02*
X4447Y98634D01*
G01X1051Y93965D02*
X5720Y98634D01*
G01X1051Y92692D02*
X5649Y97290D01*
G01X8007Y98375D02*
X8266Y98634D01*
G01X1051Y91419D02*
X6098Y96466D01*
G01X8340Y97435D02*
X8391Y97487D01*
G01X1052Y90147D02*
X7038Y96133D01*
G01X10659Y98482D02*
X10811Y98634D01*
G01X1051Y88874D02*
X8747Y96570D01*
G01X11088Y97638D02*
X11167Y97717D01*
G01X8805Y95355D02*
X9591Y96141D01*
G01X1051Y87601D02*
X7087Y93637D01*
G01X13299Y98576D02*
X13357Y98634D01*
G01X9514Y94791D02*
X11409Y96686D01*
G01X1052Y86329D02*
X7651Y92928D01*
G01X13812Y97816D02*
X14013Y98018D01*
G01X11396Y95400D02*
X12169Y96173D01*
G01X9651Y93655D02*
X9798Y93802D01*
G01X1052Y85056D02*
X8787Y92791D01*
G01X12183Y94914D02*
X14082Y96813D01*
G01X1052Y83783D02*
X10284Y93015D01*
G01X16517Y97976D02*
X17175Y98634D01*
G01X13967Y95426D02*
X14765Y96224D01*
G01X12466Y93925D02*
X12528Y93987D01*
G01X1051Y82510D02*
X11273Y92732D01*
G01X14840Y95026D02*
X17349Y97535D01*
G01X1051Y81237D02*
X12928Y93114D01*
G01X15229Y94142D02*
X17682Y96595D01*
G01X1052Y79965D02*
X13812Y92725D01*
G01X1052Y78692D02*
X18507Y96147D01*
G01X1051Y77419D02*
X20002Y96370D01*
G01X1051Y76146D02*
X21072Y96167D01*
G01X24111Y97933D02*
X24812Y98634D01*
G01X1105Y74927D02*
X22387Y96209D01*
G01X1457Y74006D02*
X24365Y96914D01*
G01X2003Y73280D02*
X24995Y96271D01*
G01X2570Y72574D02*
X26394Y96397D01*
G01X3137Y71868D02*
X27422Y96153D01*
G01X30821Y98279D02*
X31176Y98634D01*
G01X3704Y71162D02*
X28932Y96390D01*
G01X32434Y98620D02*
X32448Y98634D01*
G01X31055Y97240D02*
X32035Y98221D01*
G01X4270Y70456D02*
X29970Y96155D01*
G01X4837Y69749D02*
X31963Y96875D01*
G01X34403Y98042D02*
X34995Y98634D01*
G01X5404Y69044D02*
X32613Y96252D01*
G01X5971Y68337D02*
X36268Y98634D01*
G01X6537Y67631D02*
X37540Y98634D01*
G01X7104Y66925D02*
X38674Y98495D01*
G01X7671Y66219D02*
X39107Y97655D01*
G01X8237Y65513D02*
X39107Y96383D01*
G01X34788Y90791D02*
X39107Y95110D01*
G01X8804Y64807D02*
X33810Y89813D01*
G01X36060Y90790D02*
X39107Y93837D01*
G01X9371Y64101D02*
X33810Y88540D01*
G01X37333Y90790D02*
X39107Y92564D01*
G01X9938Y63395D02*
X33218Y86675D01*
G01X38166Y90350D02*
X39107Y91291D01*
G01X10505Y62689D02*
X33218Y85402D01*
G01X38314Y89226D02*
X39107Y90019D01*
G01X11071Y61983D02*
X33218Y84130D01*
G01X38314Y87953D02*
X39107Y88746D01*
G01X11638Y61277D02*
X33223Y82862D01*
G01X38259Y86625D02*
X39107Y87473D01*
G01X12115Y60481D02*
X33327Y81693D01*
G01X37722Y84815D02*
X39107Y86200D01*
G01X12115Y59208D02*
X33535Y80628D01*
G01X37722Y83543D02*
X39107Y84928D01*
G01X12114Y57935D02*
X33829Y79650D01*
G01X37786Y82334D02*
X39107Y83655D01*
G01X12114Y56662D02*
X34195Y78743D01*
G01X38025Y81300D02*
X39107Y82382D01*
G01X12114Y55389D02*
X34627Y77902D01*
G01X38397Y80399D02*
X39107Y81109D01*
G01X12115Y54117D02*
X35119Y77121D01*
G01X38877Y79606D02*
X39107Y79836D01*
G01X12115Y52844D02*
X35666Y76395D01*
G01X39434Y78891D02*
X39464Y78921D01*
G01X12114Y51571D02*
X36220Y75676D01*
G01X39980Y78164D02*
X40737Y78921D01*
G01X12114Y50298D02*
X36747Y74931D01*
G01X40526Y77437D02*
X42010Y78921D01*
G01X12114Y49025D02*
X37246Y74157D01*
G01X41162Y76800D02*
X43283Y78921D01*
G01X12115Y47753D02*
X37717Y73355D01*
G01X41799Y76164D02*
X44556Y78921D01*
G01X12115Y46480D02*
X38159Y72524D01*
G01X42435Y75528D02*
X45828Y78921D01*
G01X12114Y45207D02*
X38570Y71663D01*
G01X43071Y74891D02*
X47101Y78921D01*
G01X12114Y43934D02*
X38949Y70769D01*
G01X43708Y74255D02*
X48374Y78921D01*
G01X12115Y42662D02*
X39294Y69841D01*
G01X44344Y73618D02*
X49620Y78894D01*
G01X12115Y41389D02*
X39604Y68878D01*
G01X44981Y72982D02*
X50583Y78584D01*
G01X12115Y40116D02*
X39874Y67876D01*
G01X45617Y72346D02*
X51309Y78038D01*
G01X12114Y38843D02*
X40103Y66832D01*
G01X46253Y71709D02*
X51831Y77287D01*
G01X12114Y37570D02*
X40286Y65742D01*
G01X46890Y71073D02*
X52106Y76289D01*
G01X12115Y36298D02*
X40418Y64601D01*
G01X47526Y70436D02*
X52118Y75028D01*
G01X12115Y35025D02*
X40491Y63401D01*
G01X48163Y69800D02*
X52118Y73755D01*
G01X12115Y33752D02*
X40504Y62141D01*
G01X48714Y69079D02*
X52118Y72483D01*
G01X12114Y32479D02*
X40504Y60869D01*
G01X48784Y67876D02*
X52118Y71210D01*
G01X12114Y31206D02*
X40504Y59596D01*
G01X48785Y66604D02*
X52118Y69937D01*
G01X12115Y29934D02*
X40504Y58323D01*
G01X48785Y65331D02*
X52118Y68664D01*
G01X12115Y28661D02*
X40504Y57050D01*
G01X48784Y64058D02*
X52118Y67392D01*
G01X12114Y27388D02*
X40504Y55778D01*
G01X48784Y62785D02*
X52118Y66119D01*
G01X12114Y26115D02*
X40504Y54505D01*
G01X48784Y61512D02*
X52118Y64846D01*
G01X12114Y24842D02*
X40504Y53232D01*
G01X48785Y60240D02*
X52118Y63573D01*
G01X12115Y23570D02*
X40504Y51959D01*
G01X48785Y58967D02*
X52118Y62300D01*
G01X12115Y22297D02*
X40504Y50686D01*
G01X48784Y57694D02*
X52118Y61028D01*
G01X12114Y21024D02*
X40504Y49414D01*
G01X48784Y56421D02*
X52118Y59755D01*
G01X12114Y19751D02*
X40504Y48141D01*
G01X48784Y55148D02*
X52118Y58482D01*
G01X12114Y18478D02*
X40504Y46868D01*
G01X48785Y53876D02*
X52118Y57209D01*
G01X12115Y17206D02*
X40504Y45595D01*
G01X48785Y52603D02*
X52118Y55936D01*
G01X12115Y15933D02*
X40504Y44322D01*
G01X50935Y53481D02*
X51561Y54107D01*
G01X48784Y51330D02*
X50170Y52716D01*
G01X12114Y14660D02*
X40504Y43050D01*
G01X48784Y50057D02*
X50170Y51443D01*
G01X12114Y13387D02*
X40504Y41777D01*
G01X48784Y48784D02*
X50170Y50170D01*
G01X12114Y12114D02*
X40504Y40504D01*
G01X48785Y47512D02*
X50170Y48897D01*
G01X12115Y10842D02*
X40504Y39231D01*
G01X48785Y46239D02*
X50170Y47624D01*
G01X12115Y9569D02*
X40504Y37958D01*
G01X48784Y44966D02*
X50170Y46352D01*
G01X12114Y8296D02*
X40504Y36686D01*
G01X48784Y43693D02*
X50170Y45079D01*
G01X12114Y7023D02*
X40504Y35413D01*
G01X48785Y42421D02*
X50170Y43806D01*
G01X12115Y5751D02*
X40504Y34140D01*
G01X48785Y41148D02*
X50170Y42533D01*
G01X12115Y4478D02*
X40504Y32867D01*
G01X48785Y39875D02*
X50170Y41260D01*
G01X12115Y3205D02*
X40504Y31594D01*
G01X48784Y38602D02*
X50170Y39988D01*
G01X12115Y1933D02*
X40504Y30322D01*
G01X48784Y37329D02*
X50170Y38715D01*
G01X12609Y1154D02*
X40553Y29098D01*
G01X48785Y36057D02*
X50170Y37442D01*
G01X19667Y6939D02*
X40796Y28068D01*
G01X13779Y1051D02*
X18098Y5370D01*
G01X48785Y34784D02*
X50170Y36169D01*
G01X20471Y6470D02*
X41185Y27184D01*
G01X17367Y3367D02*
X18567Y4566D01*
G01X15052Y1051D02*
X16884Y2884D01*
G01X48785Y33511D02*
X50170Y34896D01*
G01X22233Y6960D02*
X41693Y26419D01*
G01X20777Y5503D02*
X20833Y5560D01*
G01X18674Y3401D02*
X19533Y4260D01*
G01X16325Y1051D02*
X16850Y1577D01*
G01X48784Y32238D02*
X50170Y33624D01*
G01X23126Y6580D02*
X42303Y25757D01*
G01X19290Y2744D02*
X21213Y4667D01*
G01X48784Y30965D02*
X50170Y32351D01*
G01X24768Y6949D02*
X42916Y25097D01*
G01X23533Y5714D02*
X23600Y5781D01*
G01X21285Y3466D02*
X22079Y4260D01*
G01X18871Y1052D02*
X19541Y1722D01*
G01X48785Y29693D02*
X50170Y31078D01*
G01X25769Y6677D02*
X43438Y24346D01*
G01X21975Y2883D02*
X23872Y4780D01*
G01X48785Y28420D02*
X50170Y29805D01*
G01X26262Y5897D02*
X43856Y23491D01*
G01X23880Y3515D02*
X24652Y4287D01*
G01X22063Y1698D02*
X22248Y1883D01*
G01X48784Y27147D02*
X50170Y28533D01*
G01X24647Y3010D02*
X44150Y22513D01*
G01X22689Y1052D02*
X22753Y1116D01*
G01X48784Y25874D02*
X50170Y27260D01*
G01X26456Y3546D02*
X44280Y21370D01*
G01X24899Y1989D02*
X24973Y2063D01*
G01X48784Y24601D02*
X50170Y25987D01*
G01X27307Y3124D02*
X44282Y20099D01*
G01X25235Y1052D02*
X25395Y1212D01*
G01X48785Y23329D02*
X50170Y24714D01*
G01X27672Y2216D02*
X44282Y18826D01*
G01X48785Y22056D02*
X50170Y23441D01*
G01X30207Y3478D02*
X44282Y17553D01*
G01X27780Y1051D02*
X28486Y1758D01*
G01X48784Y20783D02*
X50170Y22169D01*
G01X31516Y3515D02*
X44282Y16281D01*
G01X48784Y19510D02*
X50170Y20896D01*
G01X32592Y3318D02*
X44282Y15008D01*
G01X48784Y18237D02*
X50170Y19623D01*
G01X34086Y3539D02*
X44282Y13735D01*
G01X48785Y16965D02*
X50170Y18350D01*
G01X34913Y3093D02*
X44282Y12462D01*
G01X48785Y15692D02*
X50170Y17077D01*
G01X36645Y3552D02*
X44611Y11518D01*
G01X35249Y2156D02*
X35302Y2209D01*
G01X48784Y14419D02*
X50170Y15805D01*
G01X37565Y3200D02*
X44874Y10509D01*
G01X35417Y1052D02*
X35654Y1289D01*
G01X49066Y13428D02*
X50170Y14532D01*
G01X39128Y3490D02*
X45003Y9365D01*
G01X49377Y12466D02*
X50170Y13259D01*
G01X40409Y3498D02*
X45805Y8894D01*
G01X49377Y11193D02*
X50170Y11986D01*
G01X41520Y3337D02*
X47077Y8894D01*
G01X49377Y9920D02*
X50170Y10713D01*
G01X42074Y2617D02*
X48351Y8894D01*
G01X44281Y3552D02*
X50170Y9441D01*
G01X41781Y1052D02*
X42881Y2152D01*
G01X45174Y3172D02*
X50170Y8168D01*
G01X43054Y1052D02*
X43261Y1259D01*
G01X45582Y2307D02*
X50170Y6895D01*
G01X45599Y1051D02*
X50170Y5622D01*
G01X46872Y1051D02*
X50170Y4349D01*
G01X48145Y1052D02*
X50170Y3077D01*
G01X49436Y1070D02*
X50151Y1785D01*
G01X12945Y1056D02*
X12119Y1882D01*
G01X14222Y1052D02*
X12115Y3159D01*
G01X15495Y1051D02*
X12114Y4432D01*
G01X16768Y1051D02*
X12114Y5705D01*
G01X16710Y2381D02*
X12114Y6977D01*
G01X17153Y3212D02*
X12115Y8250D01*
G01X19313Y1052D02*
X19063Y1302D01*
G01X18085Y3552D02*
X12114Y9523D01*
G01X19454Y2183D02*
X19403Y2234D01*
G01X19803Y3107D02*
X12114Y10796D01*
G01X21859Y1051D02*
X21714Y1196D01*
G01X18146Y6037D02*
X12114Y12069D01*
G01X20641Y3543D02*
X19858Y4325D01*
G01X22234Y1949D02*
X22150Y2034D01*
G01X18705Y6751D02*
X12115Y13341D01*
G01X22465Y2991D02*
X20572Y4884D01*
G01X24404Y1052D02*
X24354Y1102D01*
G01X19829Y6900D02*
X12115Y14614D01*
G01X20858Y5871D02*
X20721Y6008D01*
G01X23220Y3509D02*
X22448Y4281D01*
G01X25087Y1641D02*
X24872Y1857D01*
G01X21338Y6663D02*
X12114Y15887D01*
G01X25139Y2862D02*
X23240Y4761D01*
G01X22321Y6954D02*
X12115Y17160D01*
G01X23591Y5683D02*
X23531Y5744D01*
G01X25818Y3457D02*
X25017Y4258D01*
G01X28223Y1051D02*
X27576Y1699D01*
G01X23983Y6564D02*
X12114Y18433D01*
G01X28414Y2133D02*
X25897Y4650D01*
G01X24862Y6958D02*
X12115Y19705D01*
G01X28739Y3081D02*
X26291Y5529D01*
G01X29557Y3536D02*
X12115Y20978D01*
G01X31057Y3309D02*
X12115Y22251D01*
G01X32116Y3522D02*
X12114Y23524D01*
G01X33439Y3472D02*
X12115Y24796D01*
G01X35859Y1052D02*
X35170Y1741D01*
G01X35424Y2760D02*
X12115Y26069D01*
G01X36048Y3409D02*
X12115Y27342D01*
G01X37404Y3326D02*
X12115Y28615D01*
G01X38473Y3529D02*
X12114Y29888D01*
G01X39986Y3289D02*
X12115Y31160D01*
G01X42223Y1052D02*
X41877Y1398D01*
G01X41015Y3533D02*
X12115Y32433D01*
G01X43129Y1418D02*
X42121Y2427D01*
G01X43496Y1052D02*
X43450Y1097D01*
G01X43021Y2800D02*
X12115Y33706D01*
G01X43665Y3428D02*
X12114Y34979D01*
G01X46042Y1051D02*
X45461Y1632D01*
G01X47315Y1051D02*
X12114Y36252D01*
G01X48587Y1052D02*
X12115Y37524D01*
G01X49728Y1184D02*
X12115Y38797D01*
G01X50170Y2014D02*
X12114Y40070D01*
G01X50170Y3287D02*
X12114Y41343D01*
G01X44874Y9856D02*
X12114Y42616D01*
G01X50170Y4560D02*
X45836Y8894D01*
G01X44874Y11129D02*
X12115Y43888D01*
G01X50170Y5833D02*
X47109Y8894D01*
G01X44282Y12994D02*
X12115Y45161D01*
G01X50170Y7106D02*
X48382Y8894D01*
G01X44282Y14266D02*
X12114Y46434D01*
G01X50170Y8378D02*
X49222Y9326D01*
G01X44282Y15539D02*
X12114Y47707D01*
G01X50170Y9651D02*
X49376Y10445D01*
G01X44282Y16812D02*
X12114Y48980D01*
G01X50170Y10924D02*
X49376Y11718D01*
G01X44282Y18085D02*
X12115Y50252D01*
G01X50170Y12197D02*
X49280Y13087D01*
G01X44282Y19358D02*
X12115Y51525D01*
G01X50170Y13470D02*
X48785Y14855D01*
G01X44282Y20630D02*
X12114Y52798D01*
G01X50170Y14742D02*
X48784Y16128D01*
G01X44243Y21942D02*
X12114Y54071D01*
G01X50170Y16015D02*
X48784Y17401D01*
G01X43778Y23680D02*
X12115Y55343D01*
G01X50170Y17288D02*
X48785Y18673D01*
G01X40872Y27859D02*
X12115Y56616D01*
G01X50170Y18561D02*
X48785Y19946D01*
G01X40515Y29489D02*
X12115Y57889D01*
G01X50170Y19834D02*
X48785Y21219D01*
G01X40504Y30772D02*
X12114Y59162D01*
G01X50170Y21106D02*
X48784Y22492D01*
G01X40504Y32045D02*
X12114Y60435D01*
G01X50170Y22379D02*
X48784Y23765D01*
G01X40504Y33318D02*
X7945Y65877D01*
G01X50170Y23652D02*
X48785Y25037D01*
G01X40504Y34591D02*
X2767Y72328D01*
G01X50170Y24925D02*
X48785Y26310D01*
G01X40504Y35864D02*
X1056Y75312D01*
G01X50170Y26198D02*
X48785Y27583D01*
G01X40504Y37136D02*
X1051Y76589D01*
G01X50170Y27470D02*
X48784Y28856D01*
G01X40504Y38409D02*
X1051Y77862D01*
G01X50170Y28743D02*
X48784Y30129D01*
G01X40504Y39682D02*
X1052Y79134D01*
G01X50170Y30016D02*
X48785Y31401D01*
G01X40504Y40955D02*
X1052Y80407D01*
G01X50170Y31289D02*
X48785Y32674D01*
G01X40504Y42227D02*
X1051Y81680D01*
G01X50170Y32561D02*
X48784Y33947D01*
G01X40504Y43500D02*
X1051Y82953D01*
G01X50170Y33834D02*
X48784Y35220D01*
G01X40504Y44773D02*
X1051Y84226D01*
G01X50170Y35107D02*
X48784Y36493D01*
G01X40504Y46046D02*
X1052Y85498D01*
G01X50170Y36380D02*
X48785Y37765D01*
G01X40504Y47319D02*
X1052Y86771D01*
G01X50170Y37653D02*
X48785Y39038D01*
G01X40504Y48591D02*
X1051Y88044D01*
G01X50170Y38925D02*
X48784Y40311D01*
G01X40504Y49864D02*
X1051Y89317D01*
G01X50170Y40198D02*
X48784Y41584D01*
G01X40504Y51137D02*
X1051Y90590D01*
G01X50170Y41471D02*
X48784Y42857D01*
G01X40504Y52410D02*
X1051Y91863D01*
G01X50170Y42744D02*
X48785Y44129D01*
G01X40504Y53683D02*
X1052Y93135D01*
G01X50170Y44017D02*
X48785Y45402D01*
G01X40504Y54955D02*
X1051Y94408D01*
G01X50170Y45289D02*
X48784Y46675D01*
G01X40504Y56228D02*
X1051Y95681D01*
G01X50170Y46562D02*
X48784Y47948D01*
G01X40504Y57501D02*
X1051Y96954D01*
G01X50170Y47835D02*
X48785Y49220D01*
G01X40504Y58774D02*
X1149Y98128D01*
G01X50170Y49108D02*
X48785Y50493D01*
G01X7280Y93270D02*
X1918Y98632D01*
G01X40504Y60047D02*
X7560Y92990D01*
G01X50170Y50381D02*
X48785Y51766D01*
G01X7152Y94672D02*
X3190Y98634D01*
G01X40504Y61319D02*
X8962Y92862D01*
G01X50170Y51653D02*
X48784Y53039D01*
G01X5635Y97461D02*
X4462Y98634D01*
G01X7794Y95302D02*
X6964Y96132D01*
G01X40504Y62592D02*
X9592Y93504D01*
G01X50170Y52926D02*
X48784Y54312D01*
G01X5981Y98388D02*
X5735Y98634D01*
G01X9846Y94523D02*
X7891Y96478D01*
G01X40469Y63900D02*
X11569Y92800D01*
G01X50907Y53462D02*
X48785Y55584D01*
G01X8417Y97224D02*
X8330Y97312D01*
G01X10414Y95228D02*
X9483Y96158D01*
G01X40345Y65297D02*
X12274Y93368D01*
G01X51550Y54092D02*
X48785Y56857D01*
G01X8643Y98271D02*
X8280Y98634D01*
G01X11559Y95356D02*
X10530Y96384D01*
G01X12555Y94359D02*
X12402Y94513D01*
G01X40108Y66806D02*
X14161Y92753D01*
G01X51981Y54934D02*
X48785Y58130D01*
G01X11274Y96913D02*
X11051Y97136D01*
G01X13045Y95142D02*
X11928Y96259D01*
G01X39721Y68466D02*
X14944Y93243D01*
G01X52118Y56069D02*
X48784Y59403D01*
G01X11318Y98142D02*
X10826Y98634D01*
G01X14042Y95419D02*
X13158Y96303D01*
G01X39112Y70348D02*
X15220Y94241D01*
G01X52118Y57342D02*
X48784Y60676D01*
G01X38108Y72625D02*
X13754Y96978D01*
G01X52118Y58615D02*
X48785Y61948D01*
G01X14005Y98001D02*
X13372Y98634D01*
G01X35877Y76128D02*
X15771Y96234D01*
G01X52118Y59888D02*
X48785Y63221D01*
G01X33947Y79331D02*
X16443Y96836D01*
G01X52118Y61161D02*
X48785Y64494D01*
G01X17387Y97164D02*
X16470Y98081D01*
G01X33424Y81127D02*
X18379Y96172D01*
G01X52118Y62433D02*
X48784Y65767D01*
G01X17581Y98243D02*
X17190Y98634D01*
G01X33236Y82588D02*
X19459Y96365D01*
G01X52118Y63706D02*
X48784Y67040D01*
G01X33218Y83879D02*
X20952Y96144D01*
G01X52118Y64979D02*
X48785Y68312D01*
G01X33218Y85152D02*
X21781Y96588D01*
G01X52118Y66252D02*
X39449Y78921D01*
G01X33218Y86424D02*
X23390Y96252D01*
G01X39107Y80535D02*
X37900Y81743D01*
G01X52118Y67524D02*
X40721Y78921D01*
G01X33282Y87633D02*
X24042Y96874D01*
G01X39107Y81808D02*
X37723Y83193D01*
G01X52118Y68797D02*
X41994Y78921D01*
G01X23564Y98624D02*
X23554Y98634D01*
G01X24300Y97888D02*
X23974Y98214D01*
G01X33810Y88378D02*
X25994Y96194D01*
G01X39107Y83081D02*
X37722Y84466D01*
G01X52118Y70070D02*
X43267Y78921D01*
G01X24846Y98615D02*
X24827Y98634D01*
G01X33810Y89651D02*
X27273Y96188D01*
G01X39107Y84354D02*
X37723Y85738D01*
G01X52118Y71343D02*
X44540Y78921D01*
G01X34159Y90575D02*
X28388Y96346D01*
G01X39107Y85627D02*
X38220Y86514D01*
G01X52118Y72616D02*
X45813Y78921D01*
G01X35216Y90790D02*
X29866Y96140D01*
G01X39107Y86899D02*
X38314Y87692D01*
G01X52118Y73888D02*
X47085Y78921D01*
G01X36489Y90790D02*
X30715Y96564D01*
G01X39107Y88172D02*
X38314Y88965D01*
G01X52118Y75161D02*
X48358Y78921D01*
G01X39107Y89445D02*
X31078Y97474D01*
G01X52085Y76467D02*
X49664Y78888D01*
G01X31893Y97932D02*
X31191Y98634D01*
G01X39107Y90718D02*
X33617Y96208D01*
G01X39107Y91991D02*
X34322Y96776D01*
G01X39107Y93263D02*
X34451Y97920D01*
G01X39107Y94536D02*
X35009Y98634D01*
G01X39107Y95809D02*
X36282Y98634D01*
G01X39107Y97082D02*
X37555Y98634D01*
G01X45820Y1272D02*
X45498Y950D01*
X16868D01*
X16546Y1272D01*
G01X5735Y98634D02*
X5836Y98735D01*
X34894D01*
G54D13*
G01X33883Y98634D02*
X38189D01*
G02X39107Y97716I0J-918D01*
G01Y79302D01*
X39090Y79323D01*
G02X37722Y83218I4864J3896D01*
G01Y85886D01*
X37953Y86117D01*
G03X38314Y86989I-874J873D01*
G01Y89839D01*
G03X37364Y90790I-951J0D01*
G01X34762D01*
G03X33810Y89839I0J-952D01*
G01Y88342D01*
X33579Y88111D01*
G03X33218Y87239I874J-873D01*
G01Y83219D01*
G03X35581Y76501I10735J1D01*
G01X35684Y76373D01*
G02X40504Y62665I-17086J-13709D01*
G01Y29839D01*
G03X42118Y25942I5513J1D01*
G01X42497Y25563D01*
G02X44282Y21255I-4307J-4308D01*
G01Y12357D01*
G03X44642Y11486I1235J1D01*
G01X44874Y11255D01*
Y9845D01*
G03X45825Y8894I951J0D01*
G01X48425D01*
G03X49376Y9845I0J951D01*
G01Y12609D01*
G03X49016Y13480I-1235J0D01*
G01X48784Y13711D01*
Y68668D01*
G03X48424Y69538I-1234J-1D01*
G01X40411Y77551D01*
G03X39410Y78921I-21813J-14887D01*
G01X49232D01*
G02X52118Y76035I0J-2886D01*
G01Y55810D01*
G02X50690Y53320I-2886J0D01*
G01X50170Y53017D01*
Y1968D01*
G02X49253Y1051I-917J0D01*
G01X44946D01*
G03X43520I-713J1149D01*
G01X41501D01*
G03X39754Y3072I-714J1149D01*
G03X37688I-1033J-872D01*
G03X35941Y1051I-1033J-872D01*
G01X34611D01*
G03X32864Y3072I-714J1149D01*
G03X30798I-1033J-872D01*
G03X29051Y1051I-1033J-872D01*
G01X27032D01*
G03X25606I-713J1149D01*
G01X24276D01*
G03X22850I-713J1149D01*
G01X21520D01*
G03X20094I-713J1149D01*
G01X18764D01*
G03X17338I-713J1149D01*
G01X13031D01*
G02X12114Y1968I0J917D01*
G01Y60683D01*
X1687Y73673D01*
G02X1051Y75479I2250J1807D01*
G01Y97716D01*
G02X1969Y98634I918J0D01*
G01X6275D01*
G03X7701I713J-1149D01*
G01X9031D01*
G03X10457I713J-1149D01*
G01X11787D01*
G03X13213I713J-1149D01*
G01X14543D01*
G03X15969I713J-1149D01*
G01X17988D01*
G03X19734Y96613I713J-1149D01*
G03X21802I1034J872D01*
G03X23548Y98634I1033J872D01*
G01X24878D01*
G03X26624Y96613I713J-1149D01*
G03X28692I1034J872D01*
G03X30438Y98634I1033J872D01*
G01X32457D01*
G03X33883I713J-1149D01*
G01X26293Y5608D02*
G02I-1352J0D01*
G01X20781D02*
G02I-1352J0D01*
G01X23537D02*
G02I-1352J0D01*
G01X15230Y94076D02*
G02I-1352J0D01*
G01X9718D02*
G02I-1352J0D01*
G01X12474D02*
G02I-1352J0D01*
G54D14*
G01X-112291Y-37867D02*
X-111291Y-38700D01*
X-110166Y-39200D01*
X-109166D01*
X-108166Y-38700D01*
X-107416Y-37867D01*
X-107041Y-36700D01*
X-107291Y-35534D01*
X-107916Y-34533D01*
X-109041Y-33867D01*
X-110541Y-33533D01*
X-111416Y-32867D01*
X-111791Y-31700D01*
X-111541Y-30533D01*
X-110916Y-29700D01*
X-110041Y-29200D01*
X-109166D01*
X-108291Y-29533D01*
X-107541Y-30367D01*
G01X-102166Y-39200D02*
Y-29200D01*
X-99166D01*
X-98166Y-29700D01*
X-97416Y-30867D01*
X-97166Y-32200D01*
X-97416Y-33533D01*
X-98041Y-34533D01*
X-99166Y-35034D01*
X-102166D01*
G01X-89666Y-39200D02*
Y-29200D01*
X-91166Y-31200D01*
G01Y-39200D02*
X-88166D01*
G01X-82291D02*
Y-29200D01*
G01X-77041D02*
Y-39200D01*
G01Y-34200D02*
X-82291D01*
G01X-72291Y-37867D02*
X-71291Y-38700D01*
X-70166Y-39200D01*
X-69166D01*
X-68166Y-38700D01*
X-67416Y-37867D01*
X-67041Y-36700D01*
X-67291Y-35534D01*
X-67916Y-34533D01*
X-69041Y-33867D01*
X-70541Y-33533D01*
X-71416Y-32867D01*
X-71791Y-31700D01*
X-71541Y-30533D01*
X-70916Y-29700D01*
X-70041Y-29200D01*
X-69166D01*
X-68291Y-29533D01*
X-67541Y-30367D01*
G01X-62041Y-39200D02*
Y-29200D01*
X-57291D01*
G01X-59041Y-34033D02*
X-62041D01*
G01X-52166Y-29200D02*
Y-39200D01*
X-47166D01*
G01X-38666Y-33867D02*
X-38166Y-33367D01*
X-37791Y-32534D01*
X-37541Y-31367D01*
X-37791Y-30367D01*
X-38291Y-29700D01*
X-39166Y-29200D01*
X-42541D01*
Y-39200D01*
X-38416D01*
X-37541Y-38533D01*
X-37041Y-37533D01*
X-36791Y-36367D01*
X-37041Y-35200D01*
X-37791Y-34200D01*
X-38666Y-33867D01*
X-42541D01*
G01X-22791Y-29200D02*
X-19666Y-39200D01*
X-16541Y-29200D01*
G01X-7166Y-39200D02*
X-12166D01*
Y-29200D01*
X-7166D01*
G01X-9166Y-34033D02*
X-12166D01*
G01X-2166Y-39200D02*
Y-29200D01*
X959D01*
X1959Y-29700D01*
X2584Y-30367D01*
X2834Y-31700D01*
X2584Y-33033D01*
X1834Y-33867D01*
X959Y-34367D01*
X-2166D01*
G01X959D02*
X2834Y-39200D01*
G01X10334Y-39533D02*
X10084Y-39367D01*
Y-39033D01*
X10334Y-38867D01*
X10584Y-39033D01*
Y-39367D01*
X10334Y-39533D01*
G01X17209Y-39200D02*
X20334Y-29200D01*
X23459Y-39200D01*
G01X22334Y-35700D02*
X18334D01*
G01X37209Y-39200D02*
X40334Y-29200D01*
X43459Y-39200D01*
G01X42334Y-35700D02*
X38334D01*
G01X47834Y-39200D02*
Y-29200D01*
X50959D01*
X51959Y-29700D01*
X52584Y-30367D01*
X52834Y-31700D01*
X52584Y-33033D01*
X51834Y-33867D01*
X50959Y-34367D01*
X47834D01*
G01X50959D02*
X52834Y-39200D01*
G01X60334Y-29200D02*
Y-39200D01*
G01X57459Y-29200D02*
X63209D01*
G01X66584D02*
X68334Y-39200D01*
X70334Y-29200D01*
X72334Y-39200D01*
X74084Y-29200D01*
G01X80334Y-39200D02*
X79334Y-39033D01*
X78459Y-38367D01*
X77709Y-37367D01*
X77209Y-36200D01*
X76959Y-34867D01*
Y-33533D01*
X77209Y-32200D01*
X77709Y-31033D01*
X78459Y-30033D01*
X79334Y-29367D01*
X80334Y-29200D01*
X81334Y-29367D01*
X82209Y-30033D01*
X82959Y-31033D01*
X83459Y-32200D01*
X83709Y-33533D01*
Y-34867D01*
X83459Y-36200D01*
X82959Y-37367D01*
X82209Y-38367D01*
X81334Y-39033D01*
X80334Y-39200D01*
G01X87834D02*
Y-29200D01*
X90959D01*
X91959Y-29700D01*
X92584Y-30367D01*
X92834Y-31700D01*
X92584Y-33033D01*
X91834Y-33867D01*
X90959Y-34367D01*
X87834D01*
G01X90959D02*
X92834Y-39200D01*
G01X97584D02*
Y-29200D01*
G01X102334D02*
X97584Y-35367D01*
G01X103084Y-39200D02*
X99709Y-32534D01*
G01X117834Y-29200D02*
Y-39200D01*
X122834D01*
G01X127209D02*
X130334Y-29200D01*
X133459Y-39200D01*
G01X132334Y-35700D02*
X128334D01*
G01X140334Y-39200D02*
Y-34700D01*
X137834Y-29200D01*
G01X142834D02*
X140334Y-34700D01*
G01X152834Y-39200D02*
X147834D01*
Y-29200D01*
X152834D01*
G01X150834Y-34033D02*
X147834D01*
G01X157834Y-39200D02*
Y-29200D01*
X160959D01*
X161959Y-29700D01*
X162584Y-30367D01*
X162834Y-31700D01*
X162584Y-33033D01*
X161834Y-33867D01*
X160959Y-34367D01*
X157834D01*
G01X160959D02*
X162834Y-39200D01*
G01X170334Y-29200D02*
X169334Y-29533D01*
X168584Y-30367D01*
X168084Y-31367D01*
X167709Y-32700D01*
X167584Y-34200D01*
X167709Y-35700D01*
X168084Y-37033D01*
X168584Y-38034D01*
X169334Y-38867D01*
X170334Y-39200D01*
X171334Y-38867D01*
X172084Y-38034D01*
X172584Y-37033D01*
X172959Y-35700D01*
X173084Y-34200D01*
X172959Y-32700D01*
X172584Y-31367D01*
X172084Y-30367D01*
X171334Y-29533D01*
X170334Y-29200D01*
G01X177959Y-30867D02*
X178709Y-29867D01*
X179584Y-29367D01*
X180584Y-29200D01*
X181834Y-29533D01*
X182709Y-30367D01*
X182959Y-31367D01*
X182834Y-32367D01*
X182334Y-33200D01*
X179834Y-34867D01*
X178709Y-36033D01*
X177959Y-37700D01*
X177709Y-39200D01*
X182959D01*
M02*
