G04 ================== begin FILE IDENTIFICATION RECORD ==================*
G04 Layout Name:  D:/Project/31_HUASHAN_FPC/Output/SP1HSFLB.brd*
G04 Film Name:    art01*
G04 File Format:  Gerber RS274X*
G04 File Origin:  Cadence Allegro 17.2-S053*
G04 Origin Date:  Fri Mar 12 13:39:14 2021*
G04 *
G04 Layer:  VIA CLASS/TOP*
G04 Layer:  PIN/TOP*
G04 Layer:  ETCH/TOP*
G04 Layer:  BOARD GEOMETRY/OUTLINE*
G04 *
G04 Offset:    (0.00 0.00)*
G04 Mirror:    No*
G04 Mode:      Positive*
G04 Rotation:  0*
G04 FullContactRelief:  No*
G04 UndefLineWidth:     6.00*
G04 ================== end FILE IDENTIFICATION RECORD ====================*
%FSLAX25Y25*MOIN*%
%IR0*IPPOS*OFA0.00000B0.00000*MIA0B0*SFA1.00000B1.00000*%
%ADD14R,.007X.023*%
%ADD10C,.014*%
%AMMACRO16*
4,1,5,-.00989,-.00851,
-.00989,.00851,
.00537,.00851,
.00989,.00401,
.00989,-.00851,
-.00989,-.00851,
0.0*
%
%ADD16MACRO16*%
%AMMACRO17*
4,1,5,.00537,-.00851,
-.00989,-.00851,
-.00989,.00851,
.00989,.00851,
.00989,-.00401,
.00537,-.00851,
0.0*
%
%ADD17MACRO17*%
%AMMACRO13*
4,1,6,.00399,.01717,
.00851,.01265,
.00851,-.01258,
.00392,-.01717,
-.00851,-.01717,
-.00851,.01717,
.00399,.01717,
0.0*
%
%ADD13MACRO13*%
%AMMACRO15*
4,1,6,-.00399,.01717,
.00851,.01717,
.00851,-.01717,
-.00392,-.01717,
-.00851,-.01258,
-.00851,.01265,
-.00399,.01717,
0.0*
%
%ADD15MACRO15*%
%AMMACRO12*
4,1,5,.00989,.00851,
.00989,-.00851,
-.00537,-.00851,
-.00989,-.00401,
-.00989,.00851,
.00989,.00851,
0.0*
%
%ADD12MACRO12*%
%AMMACRO11*
4,1,5,-.00537,.00851,
.00989,.00851,
.00989,-.00851,
-.00989,-.00851,
-.00989,.00401,
-.00537,.00851,
0.0*
%
%ADD11MACRO11*%
%ADD18C,.01*%
%ADD19C,.0004*%
%ADD20C,.003*%
%ADD21C,.005*%
%ADD22C,.006*%
%ADD23C,.007*%
%ADD24C,.0029*%
G75*
%LPD*%
G75*
G36*
G01X1969Y98884D02*
X6118D01*
G02X6259Y98783I-1J-150D01*
G01X6368Y98470D01*
X6342Y98379D01*
X6304Y98349D01*
G03X5886Y97485I684J-864D01*
G03X6194Y96721I1102J0D01*
G02X6236Y96617I-108J-104D01*
G01Y95152D01*
G02X6086Y95002I-150J0D01*
G01X5596D01*
Y93964D01*
G02X5447Y93814I-149J-1D01*
G01X4506D01*
X4505Y93811D01*
X4504D01*
X4470D01*
X4494Y93786D01*
X4495D01*
X4494Y93784D01*
Y91293D01*
X4471Y91238D01*
X4457Y91224D01*
X5447D01*
G02X5596Y91074I0J-150D01*
G01Y90036D01*
X6086D01*
G02X6236Y89886I0J-150D01*
G01Y87810D01*
G03X6386Y87660I150J0D01*
G01X7622D01*
G02X7772Y87510I0J-150D01*
G01Y86149D01*
X7771D01*
X7770Y82177D01*
X7769Y82160D01*
G03X14035Y64031I29363J1D01*
G01X14952Y62861D01*
X14953Y62860D01*
G03X14966Y62843I655J487D01*
G02X15863Y60291I-3185J-2553D01*
G01X15864D01*
Y21029D01*
G03X18465Y14750I8879J0D01*
G01X18778Y14437D01*
G02X18822Y14331I-106J-106D01*
G01Y12174D01*
G02X18672Y12024I-150J0D01*
G01X17449D01*
G03X17299Y11874I0J-150D01*
G01Y9798D01*
G02X17149Y9648I-150J0D01*
G01X16660D01*
Y8610D01*
G02X16510Y8460I-150J0D01*
G01X15569D01*
X15568Y8457D01*
X15533D01*
X15557Y8432D01*
X15556Y8430D01*
Y5939D01*
X15534Y5884D01*
X15520Y5870D01*
X16510D01*
G02X16660Y5720I0J-150D01*
G01Y4682D01*
X17149D01*
G02X17299Y4532I0J-150D01*
G01Y3068D01*
G02X17257Y2964I-150J0D01*
G03X16949Y2200I794J-764D01*
G03X17367Y1336I1102J0D01*
G01X17405Y1306D01*
X17431Y1215D01*
X17322Y902D01*
G02X17181Y801I-142J49D01*
G01X13031D01*
G02X11864Y1968I0J1167D01*
G01Y60542D01*
G03Y60548I-150J3D01*
G01X11863Y60595D01*
X11833Y60633D01*
G03X11831Y60636I-126J-82D01*
G01X1492Y73516D01*
G02X801Y75479I2445J1964D01*
G01Y97716D01*
G02X1969Y98884I1168J0D01*
G37*
G36*
G01X23457Y3084D02*
X23069Y2694D01*
X23563Y2162D01*
X24057Y2694D01*
X23669Y3084D01*
G03X23457I-106J-106D01*
G37*
G36*
G01X26213D02*
X25825Y2694D01*
X26319Y2162D01*
X26813Y2694D01*
X26425Y3084D01*
G03X26213I-106J-106D01*
G37*
G36*
G01X28982Y2535D02*
X29072Y2135D01*
X29822Y2153D01*
X29764Y2900D01*
X29275D01*
G03X28982Y2535I0J-300D01*
G37*
G36*
G01X17945Y3084D02*
X17557Y2694D01*
X18051Y2162D01*
X18545Y2694D01*
X18157Y3084D01*
G03X17945I-106J-106D01*
G37*
G36*
G01X20701D02*
X20313Y2694D01*
X20807Y2162D01*
X21301Y2694D01*
X20913Y3084D01*
G03X20701I-106J-106D01*
G37*
G36*
G01X27509Y2306D02*
X28375D01*
G02X28485Y2258I0J-150D01*
G03X28508Y2233I601J530D01*
G01X28651Y2090D01*
X28672Y2050D01*
X28676Y2025D01*
G03X29080Y1336I1088J175D01*
G01X29118Y1306D01*
X29144Y1215D01*
X29035Y902D01*
G02X28894Y801I-142J49D01*
G01X27189D01*
G02X27048Y902I1J150D01*
G01X26939Y1215D01*
X26965Y1306D01*
X27003Y1336D01*
G03X27420Y2161I-684J864D01*
G01X27422Y2222D01*
X27509Y2306D01*
G37*
G36*
G01X10514Y87660D02*
X11756D01*
G02X11906Y87510I0J-150D01*
G01Y82020D01*
G03X17468Y66162I25384J-1D01*
G01X18121Y65345D01*
X18122Y65344D01*
G02X19854Y60420I-6137J-4925D01*
G01Y21917D01*
G03X21886Y17011I6938J0D01*
G01X22318Y16579D01*
G02X22956Y15039I-1540J-1540D01*
G01Y12174D01*
G02X22806Y12024I-150J0D01*
G01X21564D01*
G02X21414Y12174I0J150D01*
G01Y14611D01*
G03X20808Y16073I-2068J-1D01*
G01X20298Y16583D01*
G02X18456Y21029I4445J4446D01*
G01Y60292D01*
G03X16993Y64462I-6676J-1D01*
G01X16075Y65632D01*
G02X10362Y82161I21057J16530D01*
G01Y82175D01*
X10365Y86546D01*
Y86547D01*
Y86584D01*
X10364Y86588D01*
Y87510D01*
G02X10514Y87660I150J0D01*
G37*
G36*
G01X14648D02*
X15876D01*
G02X16026Y87510I0J-150D01*
G01Y83469D01*
G03X21745Y67205I25991J2D01*
G01X21746Y67204D01*
X21979Y66914D01*
G02X23843Y61612I-6608J-5302D01*
G01X23844D01*
Y23544D01*
G03X25853Y18693I6861J0D01*
G01X25985Y18561D01*
G02X26721Y17520I-2666J-2666D01*
G02X26724Y17514I-133J-70D01*
G02X27090Y15894I-3404J-1620D01*
G01Y15850D01*
G02X27089Y15833I-150J0D01*
G01X27090Y12174D01*
G02X26940Y12024I-150J0D01*
G01X25698D01*
G02X25548Y12174I0J150D01*
G01Y15039D01*
G03X24151Y18412I-4770J0D01*
G01X23719Y18844D01*
G02X22446Y21917I3073J3073D01*
G01Y60425D01*
G03X20146Y66966I-10462J-4D01*
G01X19494Y67782D01*
G02X14499Y82020I17796J14238D01*
G01X14498D01*
Y87510D01*
G02X14648Y87660I150J0D01*
G37*
G36*
G01X18770D02*
X20010D01*
G02X20160Y87510I0J-150D01*
G01Y83508D01*
G03X25089Y69457I22492J0D01*
G01X25235Y69275D01*
Y69274D01*
G02X27833Y61868I-9258J-7406D01*
G01X27834D01*
Y24303D01*
Y24267D01*
G03X29093Y21223I4819J211D01*
G03X29119Y21197I590J564D01*
G02X31224Y16115I-5082J-5082D01*
G01Y12174D01*
G02X31074Y12024I-150J0D01*
G01X29832D01*
G02X29682Y12174I0J150D01*
G01Y15895D01*
G03X27818Y20394I-6363J-1D01*
G01X27686Y20526D01*
G02X26436Y23544I3018J3018D01*
G01Y61613D01*
G03X24002Y68538I-11066J1D01*
G01X24001Y68539D01*
X23768Y68829D01*
G02X18620Y83471I18249J14642D01*
G01Y87510D01*
G02X18770Y87660I150J0D01*
G37*
G36*
G01X22904D02*
X24144D01*
G02X24294Y87510I0J-150D01*
G01Y83545D01*
G03X28438Y71731I18912J0D01*
G01X28454Y71711D01*
X28455Y71710D01*
G02X31824Y62129I-11942J-9582D01*
G01Y26609D01*
G03X33576Y22380I5980J0D01*
G01X33711Y22245D01*
G02X35358Y18269I-3976J-3976D01*
G01Y12174D01*
G02X35208Y12024I-150J0D01*
G01X33966D01*
G02X33816Y12174I0J150D01*
G01Y16117D01*
G03X30989Y22995I-9780J0D01*
G02X30983Y23001I103J109D01*
G02X30427Y24344I1670J1478D01*
G02X30426Y24353I148J21D01*
G01Y61870D01*
G03X27262Y70894I-14449J0D01*
G01X27116Y71076D01*
G03X27095Y71102I-646J-500D01*
G02X27091Y71106I104J108D01*
G02X22754Y83508I15562J12401D01*
G01Y87510D01*
G02X22904Y87660I150J0D01*
G37*
G36*
G01X27038D02*
X28410D01*
G02X28428Y87659I1J-150D01*
G01Y86025D01*
Y83971D01*
G03X29309Y78666I16424J2D01*
G03X31470Y74451I15542J5307D01*
G01X32446Y73079D01*
G02X35814Y62536I-14818J-10543D01*
G01Y29559D01*
G03X38555Y22942I9357J0D01*
G01X38714Y22783D01*
Y22782D01*
G02X39492Y20906I-1875J-1877D01*
G01Y12162D01*
G02X39342Y12024I-150J13D01*
G01X38100D01*
G02X37950Y12174I0J150D01*
G01Y18269D01*
G03X35544Y24078I-8216J0D01*
G01X35409Y24213D01*
Y24214D01*
G02X34416Y26609I2394J2396D01*
G01Y62131D01*
G03X30500Y73306I-17904J0D01*
G02X30496Y73311I115J96D01*
G03X30467Y73348I-657J-485D01*
G01X30457Y73359D01*
G02X26888Y83544I12750J10186D01*
G01Y87510D01*
G02X27038Y87660I150J0D01*
G37*
G36*
G01X12606Y96601D02*
X12994Y96991D01*
X12500Y97522D01*
X12006Y96991D01*
X12394Y96601D01*
G03X12606I106J106D01*
G37*
G36*
G01X15362D02*
X15750Y96991D01*
X15256Y97522D01*
X14762Y96991D01*
X15150Y96601D01*
G03X15362I106J106D01*
G37*
G36*
G01X18212Y96785D02*
X18701D01*
X18759Y97532D01*
X18009Y97550D01*
X17919Y97150D01*
G03X18212Y96785I293J-65D01*
G37*
G36*
G01X19483Y97150D02*
X19393Y97550D01*
X18643Y97532D01*
X18701Y96785D01*
X19190D01*
G03X19483Y97150I0J300D01*
G37*
G36*
G01X20980Y96707D02*
X21262Y96991D01*
X20768Y97560D01*
X20274Y96991D01*
X20556Y96707D01*
G03X20980I212J212D01*
G37*
G36*
G01X22347Y96785D02*
X22835D01*
X22893Y97533D01*
X22143Y97549D01*
X22054Y97149D01*
G03X22347Y96785I293J-64D01*
G37*
G36*
G01X23616Y97149D02*
X23527Y97549D01*
X22777Y97533D01*
X22835Y96785D01*
X23323D01*
G03X23616Y97149I0J300D01*
G37*
G36*
G01X26372D02*
X26283Y97549D01*
X25533Y97533D01*
X25591Y96785D01*
X26079D01*
G03X26372Y97149I0J300D01*
G37*
G36*
G01X25103Y96785D02*
X25591D01*
X25649Y97533D01*
X24899Y97549D01*
X24810Y97149D01*
G03X25103Y96785I293J-64D01*
G37*
G36*
G01X27870Y96707D02*
X28152Y96991D01*
X27658Y97560D01*
X27164Y96991D01*
X27446Y96707D01*
G03X27870I212J212D01*
G37*
G36*
G01X29146Y96785D02*
X29725D01*
X29787Y97528D01*
X29052Y97607D01*
X28872Y97208D01*
G03X29146Y96785I274J-123D01*
G37*
G36*
G01X7094Y96601D02*
X7482Y96991D01*
X6988Y97522D01*
X6494Y96991D01*
X6882Y96601D01*
G03X7094I106J106D01*
G37*
G36*
G01X9850D02*
X10238Y96991D01*
X9744Y97522D01*
X9250Y96991D01*
X9638Y96601D01*
G03X9850I106J106D01*
G37*
G36*
G01X16126Y98884D02*
X17831D01*
G02X17972Y98783I-1J-150D01*
G01X18081Y98470D01*
X18055Y98379D01*
X18017Y98349D01*
G03X17613Y97660I684J-864D01*
G01X17609Y97635D01*
X17588Y97595D01*
X17445Y97452D01*
G03X17421Y97427I566J-568D01*
G02X17311Y97378I-111J101D01*
G01X16446D01*
X16359Y97462D01*
X16357Y97523D01*
G03X15940Y98349I-1101J-38D01*
G01X15902Y98379D01*
X15876Y98470D01*
X15985Y98783D01*
G02X16126Y98884I142J-49D01*
G37*
G36*
G01X30252Y2900D02*
X29764D01*
X29706Y2152D01*
X30456Y2136D01*
X30545Y2536D01*
G03X30252Y2900I-293J64D01*
G37*
G36*
G01X31619Y2978D02*
X31337Y2694D01*
X31831Y2125D01*
X32325Y2694D01*
X32043Y2978D01*
G03X31619I-212J-212D01*
G37*
G36*
G01X34386Y2900D02*
X33898D01*
X33840Y2152D01*
X34590Y2136D01*
X34679Y2536D01*
G03X34386Y2900I-293J64D01*
G37*
G36*
G01X33116Y2535D02*
X33206Y2135D01*
X33956Y2153D01*
X33898Y2900D01*
X33409D01*
G03X33116Y2535I0J-300D01*
G37*
G36*
G01X35872D02*
X35962Y2135D01*
X36712Y2153D01*
X36654Y2900D01*
X36165D01*
G03X35872Y2535I0J-300D01*
G37*
G36*
G01X37143Y2900D02*
X36654D01*
X36596Y2153D01*
X37346Y2135D01*
X37436Y2535D01*
G03X37143Y2900I-293J65D01*
G37*
G36*
G01X38509Y2978D02*
X38227Y2694D01*
X38721Y2125D01*
X39215Y2694D01*
X38933Y2978D01*
G03X38509I-212J-212D01*
G37*
G36*
G01X41276Y2900D02*
X40788D01*
X40730Y2152D01*
X41480Y2136D01*
X41569Y2536D01*
G03X41276Y2900I-293J64D01*
G37*
G36*
G01X40007Y2536D02*
X40096Y2136D01*
X40846Y2152D01*
X40788Y2900D01*
X40300D01*
G03X40007Y2536I0J-300D01*
G37*
G36*
G01X44021Y2978D02*
X43739Y2694D01*
X44233Y2125D01*
X44727Y2694D01*
X44445Y2978D01*
G03X44021I-212J-212D01*
G37*
G36*
G01X42177Y2306D02*
X43043D01*
X43130Y2222D01*
X43132Y2161D01*
G03X43549Y1336I1101J39D01*
G01X43587Y1306D01*
X43613Y1215D01*
X43504Y902D01*
G02X43363Y801I-142J49D01*
G01X41658D01*
G02X41517Y902I1J150D01*
G01X41408Y1215D01*
X41434Y1306D01*
X41472Y1336D01*
G03X41876Y2026I-684J864D01*
G01X41880Y2051D01*
X41901Y2091D01*
X42044Y2234D01*
G03X42066Y2258I-580J553D01*
G02X42177Y2306I110J-102D01*
G37*
G36*
G01X34040Y98884D02*
X38189D01*
G02X39357Y97716I0J-1168D01*
G01Y79171D01*
X49232D01*
G02X52368Y76035I0J-3136D01*
G01Y55810D01*
G02X50816Y53104I-3136J0D01*
G01X50499Y52919D01*
X50420Y52873D01*
Y1968D01*
G02X49253Y801I-1167J0D01*
G01X45103D01*
G02X44962Y902I1J150D01*
G01X44853Y1215D01*
X44879Y1306D01*
X44917Y1336D01*
G03X45335Y2200I-684J864D01*
G03X45071Y2916I-1103J0D01*
G02X45034Y3014I113J99D01*
G01Y3616D01*
G02X45184Y3766I150J0D01*
G01X45407D01*
X45443Y3757D01*
X45460Y3748D01*
G03X45775Y3666I316J570D01*
G01X48475D01*
G03X49126Y4318I0J651D01*
G01Y12608D01*
G03X48839Y13303I-985J0D01*
G01X48578Y13564D01*
G02X48534Y13670I106J106D01*
G01Y21258D01*
G03X45505Y28571I-10345J-1D01*
G01X45126Y28950D01*
G02X44757Y29840I891J891D01*
G01X44756D01*
Y62666D01*
G03X38998Y79039I-26159J-1D01*
G01X38896Y79165D01*
X38895Y79166D01*
G02X37472Y83218I5059J4052D01*
G01Y85927D01*
G02X37515Y86033I150J1D01*
G01X37776Y86294D01*
G03X38064Y86989I-697J696D01*
G01Y95366D01*
G03X37412Y96018I-652J0D01*
G01X34712D01*
G03X34397Y95936I1J-652D01*
G01X34380Y95927D01*
X34344Y95918D01*
X34121D01*
G02X33972Y96068I0J150D01*
G01Y96671D01*
G02X34008Y96769I150J1D01*
G03X34272Y97485I-839J716D01*
G03X33854Y98349I-1102J0D01*
G01X33816Y98379D01*
X33790Y98470D01*
X33899Y98783D01*
G02X34040Y98884I142J-49D01*
G37*
G36*
G01X34712Y95516D02*
X37412D01*
G02X37562Y95366I0J-150D01*
G01Y86989D01*
G02X37421Y86648I-483J0D01*
G01X37111Y86338D01*
G03X36970Y85997I343J-341D01*
G01Y83218D01*
G03X38505Y78851I6983J1D01*
G01X38608Y78724D01*
G02X44255Y62665I-20011J-16059D01*
G01Y29840D01*
G03X44771Y28595I1761J1D01*
G01X45150Y28216D01*
G02X48033Y21256I-6961J-6960D01*
G01Y13600D01*
G03X48174Y13259I484J0D01*
G01X48484Y12949D01*
G02X48625Y12608I-342J-341D01*
G01Y4318D01*
G02X48475Y4168I-150J0D01*
G01X45775D01*
G02X45625Y4318I0J150D01*
G01Y4682D01*
X45626D01*
Y5732D01*
G02X45763Y5870I150J-11D01*
G01X46766D01*
X46728Y5907D01*
Y8399D01*
X46749Y8450D01*
X46759Y8460D01*
X45763D01*
G02X45626Y8598I13J149D01*
G01Y9648D01*
X45625D01*
Y11366D01*
G03X45484Y11707I-483J0D01*
G01X45174Y12017D01*
G02X45033Y12358I343J341D01*
G01Y21255D01*
G03X43028Y26094I-6843J-1D01*
G01X42649Y26473D01*
G02X41255Y29839I3368J3366D01*
G01Y62665D01*
G03X36270Y76844I-22657J0D01*
G01X36167Y76972D01*
G02X33970Y83219I7786J6248D01*
G01Y87239D01*
G02X34111Y87580I484J0D01*
G01X34421Y87890D01*
G03X34562Y88231I-342J341D01*
G01Y91086D01*
G02X34700Y91224I150J-12D01*
G01X35703D01*
X35666Y91261D01*
Y93756D01*
X35686Y93804D01*
X35696Y93814D01*
X34700D01*
G02X34562Y93952I12J150D01*
G01Y95366D01*
G02X34712Y95516I150J0D01*
G37*
G36*
G01X34713Y76216D02*
G02X39654Y61205I-20332J-15011D01*
G01Y29448D01*
G03X41306Y25459I5644J1D01*
G01X42062Y24703D01*
G02X42734Y23810I-2819J-2821D01*
G02X43432Y21095I-4935J-2716D01*
G01Y12174D01*
G02X43282Y12024I-150J0D01*
G01X42234D01*
G02X42084Y12174I0J150D01*
G01Y20906D01*
G03X40547Y24616I-5246J0D01*
G01X40388Y24775D01*
G02X38406Y29559I4783J4784D01*
G01Y62539D01*
G03X34559Y74582I-20779J-2D01*
G01X34546Y74601D01*
X34483Y74690D01*
X34338Y74892D01*
X34336Y74896D01*
G03X34323Y74916I-691J-435D01*
G01X34322Y74917D01*
G03X34314Y74929I-683J-447D01*
G01X33922Y75478D01*
X33582Y75955D01*
G02X31022Y83970I11270J8016D01*
G01Y83972D01*
Y86000D01*
Y87510D01*
G02X31172Y87660I150J0D01*
G01X32218D01*
G02X32368Y87510I0J-150D01*
G01Y82685D01*
G03X34556Y76422I10060J1D01*
G01X34560Y76417D01*
X34712Y76217D01*
X34713Y76216D01*
G37*
G36*
G01X30578Y97208D02*
X30398Y97607D01*
X29663Y97528D01*
X29725Y96785D01*
X30304D01*
G03X30578Y97208I0J300D01*
G37*
G36*
G01X33382Y96707D02*
X33664Y96991D01*
X33170Y97560D01*
X32676Y96991D01*
X32958Y96707D01*
G03X33382I212J212D01*
G37*
G36*
G01X30595Y98884D02*
X32300D01*
G02X32441Y98783I-1J-150D01*
G01X32550Y98470D01*
X32524Y98379D01*
X32486Y98349D01*
G03X32069Y97523I684J-864D01*
G01X32067Y97462D01*
X31980Y97378D01*
X31188D01*
G02X31066Y97441I0J150D01*
G03X30981Y97542I-654J-464D01*
G01X30817Y97706D01*
X30797Y97739D01*
X30792Y97760D01*
G03X30409Y98349I-1067J-275D01*
G01X30371Y98379D01*
X30345Y98470D01*
X30454Y98783D01*
G02X30595Y98884I142J-49D01*
G37*
G54D10*
G01X19155Y23031D02*
Y21495D01*
G03X21121Y16749I6712J0D01*
G01X21774Y16096D01*
G02X22185Y15105I-991J-992D01*
G01Y12322D01*
G01X23145Y23031D02*
Y27031D01*
G01X19155D02*
Y23031D01*
G01X23145Y27031D02*
Y31031D01*
G01X19155D02*
Y27031D01*
G01X23145Y23031D02*
Y22691D01*
G03X24760Y18792I5514J0D01*
G01X25215Y18337D01*
G02X26319Y15672I-2665J-2665D01*
G01Y12322D01*
G01X19390Y87362D02*
Y83432D01*
G03X24416Y69138I22838J0D01*
G01X24705Y68778D01*
G02X27135Y61865I-8616J-6912D01*
G01Y23880D01*
G03X28417Y20785I4377J0D01*
G01X28533Y20669D01*
G02X30453Y16034I-4635J-4635D01*
G01Y12322D01*
G01X23145Y31031D02*
Y35031D01*
G01X19155D02*
Y31031D01*
G01X23145Y35031D02*
Y39031D01*
G01X19155D02*
Y35031D01*
G01X23145Y39031D02*
Y43031D01*
G01X19155D02*
Y39031D01*
G01X23145Y43031D02*
Y47031D01*
G01X19155D02*
Y43031D01*
G01X23145Y47031D02*
Y51031D01*
G01X19155D02*
Y47031D01*
G01X23145Y51031D02*
Y55031D01*
G01X19155D02*
Y51031D01*
G01X23145Y55031D02*
Y59031D01*
G01X19155D02*
Y55031D01*
G01X11122Y87362D02*
X11126Y82037D01*
G03X16831Y65809I26181J87D01*
G01X17569Y64883D01*
G02X19155Y60374I-5617J-4509D01*
G01Y59031D01*
G01X23145D02*
Y61440D01*
G03X21327Y66610I-8260J0D01*
G01X20989Y67031D01*
G02X15256Y83336I20318J16304D01*
G01Y87362D01*
G01X34587Y12322D02*
Y16984D01*
G03X32390Y22544I-8134J0D01*
G01X32037Y22921D01*
G02X31125Y25231I2465J2308D01*
G01Y62114D01*
G03X27919Y71262I-14653J1D01*
G01X27750Y71473D01*
G02X23524Y83495I14988J12022D01*
G01Y87362D01*
G01X38721Y12322D02*
Y19889D01*
G03X37388Y23107I-4551J0D01*
G01X37135Y23360D01*
G02X35115Y28236I4875J4876D01*
G01Y62534D01*
G03X31278Y73454I-17458J0D01*
G01X31234Y73513D01*
G02X27658Y84185I14136J10672D01*
G01Y87362D01*
X1500Y76654D03*
X1890Y74180D03*
X3442Y72204D03*
X4400Y87254D03*
X2200D03*
X23563Y2200D03*
X26319D03*
X29764D03*
X18051D03*
X20807D03*
X16313Y1534D03*
Y2968D03*
X24941Y5608D03*
X19429D03*
X22185Y12322D03*
X12564Y23031D03*
X19155D03*
X23145D03*
X19155Y27031D03*
X23145D03*
X15463Y12430D03*
X13263D03*
X22185Y5608D03*
X12564Y34831D03*
Y37331D03*
Y49131D03*
Y51631D03*
X19155Y31031D03*
X23145D03*
X19155Y35031D03*
X23145D03*
X19155Y39031D03*
X23145D03*
X19155Y43031D03*
X23145D03*
X19155Y47031D03*
X23145D03*
X19155Y51031D03*
X23145D03*
X19155Y55031D03*
X23145D03*
X12564Y54131D03*
X19155Y59031D03*
X23145D03*
X10829Y63003D03*
X12564Y56631D03*
Y59131D03*
X12500Y97485D03*
X15256D03*
X13878Y94076D03*
X22835Y97485D03*
X18701D03*
X20768D03*
X29725D03*
X25591D03*
X27658D03*
X6988D03*
X9744D03*
X8366Y94076D03*
X11122Y87362D03*
X5250Y96716D03*
X23524Y90962D03*
X5250Y98150D03*
X19390Y87362D03*
X27658D03*
X11122Y94076D03*
X33898Y2200D03*
X31831D03*
X40788D03*
X36654D03*
X38721D03*
X44233D03*
X46013Y1568D03*
Y2968D03*
X46400Y11100D03*
X47850D03*
X45000Y26200D03*
X46533Y21139D03*
X42855Y8722D03*
X34587D03*
X49721Y23031D03*
Y25531D03*
Y28031D03*
X30453Y12322D03*
X38721D03*
X42755Y52750D03*
Y47350D03*
Y41950D03*
Y36550D03*
Y31150D03*
X49721Y39831D03*
Y42331D03*
X49269Y55472D03*
X51619D03*
X49721Y44831D03*
Y47331D03*
Y49831D03*
Y52331D03*
X37000Y78472D03*
X39950Y73900D03*
X42000Y68900D03*
X42755Y63550D03*
Y58150D03*
X40769Y78472D03*
X43269D03*
X51669Y69772D03*
Y72272D03*
X49269D03*
Y69772D03*
Y57972D03*
X51669D03*
X36787Y88584D03*
X35337D03*
X33170Y97485D03*
X31792Y90962D03*
X34950Y96716D03*
Y98116D03*
G54D20*
G01X23563Y3858D02*
Y2200D01*
G01X26319Y3858D02*
Y2200D01*
G01X18051Y3858D02*
Y2200D01*
G01X20807Y3858D02*
Y2200D01*
G01X28450Y950D02*
X42150D01*
G01X16600D02*
X27750D01*
G01X24941Y3858D02*
Y5608D01*
G01X19429Y3858D02*
Y5608D01*
G01X22185Y3858D02*
Y5608D01*
G01X12500Y95826D02*
Y97485D01*
G01X15256Y95826D02*
Y97485D01*
G01X13878Y95826D02*
Y94076D01*
G01X6988Y95826D02*
Y97485D01*
G01X9744Y95826D02*
Y97485D01*
G01X8366Y95826D02*
Y94076D01*
G01X5735Y98735D02*
X16300D01*
G01X17450D02*
X31150D01*
G01X11122Y95826D02*
Y94076D01*
G01X42750Y950D02*
X45750D01*
G01X34315Y98735D02*
X32000D01*
G54D11*
X4607Y90373D03*
X15670Y5019D03*
G54D21*
G01X27697Y3858D02*
Y2008D01*
G01X16634Y95826D02*
Y97676D01*
G01X42855Y3858D02*
Y2008D01*
G01X31792Y95826D02*
Y97676D01*
G54D12*
X4607Y94665D03*
X15670Y9311D03*
G54D22*
G01X-112291Y-37867D02*
X-111291Y-38700D01*
X-110166Y-39200D01*
X-109166D01*
X-108166Y-38700D01*
X-107416Y-37867D01*
X-107041Y-36700D01*
X-107291Y-35534D01*
X-107916Y-34533D01*
X-109041Y-33867D01*
X-110541Y-33533D01*
X-111416Y-32867D01*
X-111791Y-31700D01*
X-111541Y-30533D01*
X-110916Y-29700D01*
X-110041Y-29200D01*
X-109166D01*
X-108291Y-29533D01*
X-107541Y-30367D01*
G01X-102166Y-39200D02*
Y-29200D01*
X-99166D01*
X-98166Y-29700D01*
X-97416Y-30867D01*
X-97166Y-32200D01*
X-97416Y-33533D01*
X-98041Y-34533D01*
X-99166Y-35034D01*
X-102166D01*
G01X-89666Y-39200D02*
Y-29200D01*
X-91166Y-31200D01*
G01Y-39200D02*
X-88166D01*
G01X-82291D02*
Y-29200D01*
G01X-77041D02*
Y-39200D01*
G01Y-34200D02*
X-82291D01*
G01X-72291Y-37867D02*
X-71291Y-38700D01*
X-70166Y-39200D01*
X-69166D01*
X-68166Y-38700D01*
X-67416Y-37867D01*
X-67041Y-36700D01*
X-67291Y-35534D01*
X-67916Y-34533D01*
X-69041Y-33867D01*
X-70541Y-33533D01*
X-71416Y-32867D01*
X-71791Y-31700D01*
X-71541Y-30533D01*
X-70916Y-29700D01*
X-70041Y-29200D01*
X-69166D01*
X-68291Y-29533D01*
X-67541Y-30367D01*
G01X-62041Y-39200D02*
Y-29200D01*
X-57291D01*
G01X-59041Y-34033D02*
X-62041D01*
G01X-52166Y-29200D02*
Y-39200D01*
X-47166D01*
G01X-38666Y-33867D02*
X-38166Y-33367D01*
X-37791Y-32534D01*
X-37541Y-31367D01*
X-37791Y-30367D01*
X-38291Y-29700D01*
X-39166Y-29200D01*
X-42541D01*
Y-39200D01*
X-38416D01*
X-37541Y-38533D01*
X-37041Y-37533D01*
X-36791Y-36367D01*
X-37041Y-35200D01*
X-37791Y-34200D01*
X-38666Y-33867D01*
X-42541D01*
G01X-22791Y-29200D02*
X-19666Y-39200D01*
X-16541Y-29200D01*
G01X-7166Y-39200D02*
X-12166D01*
Y-29200D01*
X-7166D01*
G01X-9166Y-34033D02*
X-12166D01*
G01X-2166Y-39200D02*
Y-29200D01*
X959D01*
X1959Y-29700D01*
X2584Y-30367D01*
X2834Y-31700D01*
X2584Y-33033D01*
X1834Y-33867D01*
X959Y-34367D01*
X-2166D01*
G01X959D02*
X2834Y-39200D01*
G01X10334Y-39533D02*
X10084Y-39367D01*
Y-39033D01*
X10334Y-38867D01*
X10584Y-39033D01*
Y-39367D01*
X10334Y-39533D01*
G01X17209Y-39200D02*
X20334Y-29200D01*
X23459Y-39200D01*
G01X22334Y-35700D02*
X18334D01*
G01X37209Y-39200D02*
X40334Y-29200D01*
X43459Y-39200D01*
G01X42334Y-35700D02*
X38334D01*
G01X47834Y-39200D02*
Y-29200D01*
X50959D01*
X51959Y-29700D01*
X52584Y-30367D01*
X52834Y-31700D01*
X52584Y-33033D01*
X51834Y-33867D01*
X50959Y-34367D01*
X47834D01*
G01X50959D02*
X52834Y-39200D01*
G01X60334Y-29200D02*
Y-39200D01*
G01X57459Y-29200D02*
X63209D01*
G01X66584D02*
X68334Y-39200D01*
X70334Y-29200D01*
X72334Y-39200D01*
X74084Y-29200D01*
G01X80334Y-39200D02*
X79334Y-39033D01*
X78459Y-38367D01*
X77709Y-37367D01*
X77209Y-36200D01*
X76959Y-34867D01*
Y-33533D01*
X77209Y-32200D01*
X77709Y-31033D01*
X78459Y-30033D01*
X79334Y-29367D01*
X80334Y-29200D01*
X81334Y-29367D01*
X82209Y-30033D01*
X82959Y-31033D01*
X83459Y-32200D01*
X83709Y-33533D01*
Y-34867D01*
X83459Y-36200D01*
X82959Y-37367D01*
X82209Y-38367D01*
X81334Y-39033D01*
X80334Y-39200D01*
G01X87834D02*
Y-29200D01*
X90959D01*
X91959Y-29700D01*
X92584Y-30367D01*
X92834Y-31700D01*
X92584Y-33033D01*
X91834Y-33867D01*
X90959Y-34367D01*
X87834D01*
G01X90959D02*
X92834Y-39200D01*
G01X97584D02*
Y-29200D01*
G01X102334D02*
X97584Y-35367D01*
G01X103084Y-39200D02*
X99709Y-32534D01*
G01X120334Y-29200D02*
Y-39200D01*
G01X117459Y-29200D02*
X123209D01*
G01X130334Y-39200D02*
X129334Y-39033D01*
X128459Y-38367D01*
X127709Y-37367D01*
X127209Y-36200D01*
X126959Y-34867D01*
Y-33533D01*
X127209Y-32200D01*
X127709Y-31033D01*
X128459Y-30033D01*
X129334Y-29367D01*
X130334Y-29200D01*
X131334Y-29367D01*
X132209Y-30033D01*
X132959Y-31033D01*
X133459Y-32200D01*
X133709Y-33533D01*
Y-34867D01*
X133459Y-36200D01*
X132959Y-37367D01*
X132209Y-38367D01*
X131334Y-39033D01*
X130334Y-39200D01*
G01X137834D02*
Y-29200D01*
X140834D01*
X141834Y-29700D01*
X142584Y-30867D01*
X142834Y-32200D01*
X142584Y-33533D01*
X141959Y-34533D01*
X140834Y-35034D01*
X137834D01*
G01X29075Y3858D02*
Y2800D01*
X29675Y2200D01*
X29764D01*
G01X22835Y97485D02*
X22923D01*
X23524Y96884D01*
Y95826D01*
G01X22835Y97485D02*
X22747D01*
X22146Y96884D01*
Y95826D01*
G01X18012D02*
Y96885D01*
X18612Y97485D01*
X18701D01*
G01D02*
X18790D01*
X19390Y96885D01*
Y95826D01*
G01X20768D02*
Y97485D01*
G01X29725D02*
X29546D01*
X29036Y96975D01*
Y95826D01*
G01X24902D02*
Y96884D01*
X25503Y97485D01*
X25591D01*
G01X26280Y95826D02*
Y96884D01*
X25679Y97485D01*
X25591D01*
G01X27658Y95826D02*
Y97485D01*
G01X6988Y87510D02*
Y89212D01*
G01X6086D02*
X6988D01*
G01X30453Y3858D02*
Y2801D01*
X29852Y2200D01*
X29764D01*
G01X33209Y3858D02*
Y2800D01*
X33809Y2200D01*
X33898D01*
G01X34587Y3858D02*
Y2801D01*
X33986Y2200D01*
X33898D01*
G01X31831Y3858D02*
Y2200D01*
G01X40099Y3858D02*
Y2801D01*
X40700Y2200D01*
X40788D01*
G01X41477Y3858D02*
Y2801D01*
X40876Y2200D01*
X40788D01*
G01X37343Y3858D02*
Y2800D01*
X36743Y2200D01*
X36654D01*
G01X35965Y3858D02*
Y2800D01*
X36565Y2200D01*
X36654D01*
G01X38721Y3858D02*
Y2200D01*
G01X44233Y3858D02*
Y2200D01*
G01Y10472D02*
Y21093D01*
G03X43436Y24197I-6434J2D01*
G03X42629Y25270I-4194J-2314D01*
G01X41873Y26026D01*
G02X40455Y29450I3425J3424D01*
G01Y61205D01*
G03X35354Y76697I-26074J1D01*
G01X35199Y76901D01*
G02X33170Y82685I7230J5784D01*
G01Y89212D01*
G01X29725Y97485D02*
X29904D01*
X30414Y96975D01*
Y95826D01*
G01X33170D02*
Y97485D01*
G54D13*
X3642Y92519D03*
X14705Y7165D03*
G54D23*
G01X22185Y10472D02*
Y12322D01*
G01X18051Y10472D02*
Y12322D01*
G01X26319D02*
Y10472D01*
G01X11122Y89212D02*
Y87362D01*
G01X23524Y89212D02*
Y90962D01*
G01Y87362D02*
Y89212D01*
G01X15256Y87362D02*
Y89212D01*
G01X19390D02*
Y87362D01*
G01X27658D02*
Y89212D01*
G01X42855Y10472D02*
Y8722D01*
G01X34587Y10472D02*
Y8722D01*
G01Y10472D02*
Y12322D01*
G01X42855D02*
Y10472D01*
G01X30453Y12322D02*
Y10472D01*
G01X38721D02*
Y12322D01*
G01X31792Y89212D02*
Y87362D01*
G01Y89212D02*
Y90962D01*
G54D14*
X18051Y3858D03*
X19429D03*
X29075D03*
X27697D03*
X26319D03*
X24941D03*
X23563D03*
X22185D03*
X20807D03*
X18051Y10472D03*
X19429D03*
X29075D03*
X27697D03*
X26319D03*
X24941D03*
X23563D03*
X22185D03*
X20807D03*
X6988Y89212D03*
X8366D03*
X6988Y95826D03*
X8366D03*
X29036Y89212D03*
X27658D03*
X26280D03*
X24902D03*
X23524D03*
X22146D03*
X20768D03*
X19390D03*
X18012D03*
X16634D03*
X15256D03*
X13878D03*
X12500D03*
X11122D03*
X9744D03*
X29036Y95826D03*
X27658D03*
X26280D03*
X23524D03*
X24902D03*
X22146D03*
X20768D03*
X19390D03*
X18012D03*
X16634D03*
X15256D03*
X13878D03*
X12500D03*
X11122D03*
X9744D03*
X44233Y3858D03*
X42855D03*
X41477D03*
X40099D03*
X38721D03*
X37343D03*
X35965D03*
X34587D03*
X33209D03*
X31831D03*
X30453D03*
X44233Y10472D03*
X42855D03*
X41477D03*
X40099D03*
X38721D03*
X37343D03*
X34587D03*
X35965D03*
X33209D03*
X31831D03*
X30453D03*
X33170Y89212D03*
X31792D03*
X33170Y95826D03*
X31792D03*
X30414Y89212D03*
Y95826D03*
G54D24*
G01X20768Y89212D02*
Y88251D01*
X20977Y88042D01*
Y83508D01*
G03X25727Y69967I21676J0D01*
G01X25873Y69784D01*
G02X28650Y61868I-9895J-7916D01*
G01Y24303D01*
G03X29696Y21774I4003J175D01*
G02X32040Y16115I-5659J-5659D01*
G01Y11649D01*
X31831Y11440D01*
Y10472D01*
G01X18012Y89212D02*
Y88279D01*
X17803Y88070D01*
Y83470D01*
X17804Y83471D01*
G03X23131Y68318I24213J-1D01*
G01X23365Y68027D01*
G02X25620Y61613I-7995J-6414D01*
G01Y23544D01*
G03X27109Y19949I5084J0D01*
G01X27241Y19817D01*
G02X28866Y15895I-3922J-3923D01*
G01Y11659D01*
X29075Y11450D01*
Y10472D01*
G01X16634Y89212D02*
Y88251D01*
X16843Y88042D01*
Y83471D01*
G03X22382Y67716I25174J-1D01*
G01X22616Y67425D01*
G02X24660Y61612I-7245J-5813D01*
G01Y23544D01*
G03X26430Y19270I6045J0D01*
G01X26562Y19138D01*
G02X27906Y15894I-3243J-3244D01*
G01Y11649D01*
X27697Y11440D01*
Y10472D01*
G01X13878Y89212D02*
Y88279D01*
X13682Y88083D01*
Y82020D01*
G03X18856Y67272I23608J1D01*
G01X19509Y66456D01*
G02X21630Y60418I-7525J-6035D01*
G01Y21917D01*
G03X23142Y18267I5162J0D01*
G01X23574Y17835D01*
G02X24732Y15039I-2796J-2796D01*
G01Y11659D01*
X24941Y11450D01*
Y10472D01*
G01X12500Y89212D02*
Y88251D01*
X12722Y88029D01*
Y82020D01*
G03X18106Y66672I24568J0D01*
G01X18759Y65855D01*
G02X20670Y60419I-6774J-5435D01*
G01Y21917D01*
G03X22463Y17588I6122J0D01*
G01X22895Y17156D01*
G02X23772Y15039I-2117J-2117D01*
G01Y11649D01*
X23563Y11440D01*
Y10472D01*
G01X20807D02*
Y11450D01*
X20598Y11659D01*
Y14611D01*
G03X20231Y15496I-1252J-1D01*
G01X19721Y16006D01*
G02X17640Y21029I5022J5023D01*
G01Y60292D01*
G03X16353Y63955I-5860J-1D01*
G01X15433Y65128D01*
G02X9546Y82176I21699J17033D01*
G01X9549Y86547D01*
X9548Y86548D01*
Y88028D01*
X9549D01*
Y88029D01*
X9548Y88030D01*
Y88083D01*
X9744Y88279D01*
Y89212D01*
G01X19429Y10472D02*
Y11440D01*
X19638Y11649D01*
Y14610D01*
G03X19552Y14817I-292J0D01*
G01X19042Y15327D01*
G02X16680Y21029I5701J5702D01*
G01Y60291D01*
G03X15603Y63354I-4899J-2D01*
G01X15600Y63358D01*
X14677Y64535D01*
G02X8586Y82177I22455J17625D01*
G01X8588Y86149D01*
Y88029D01*
X8366Y88251D01*
Y89212D01*
G01X26280D02*
Y88279D01*
X26071Y88070D01*
Y83545D01*
G03X29826Y72841I17136J1D01*
G01X29842Y72822D01*
X29841D01*
G02X33600Y62129I-13328J-10693D01*
G01Y26609D01*
G03X34832Y23636I4203J0D01*
G01X34967Y23501D01*
G02X37134Y18269I-5233J-5232D01*
G01Y11659D01*
X37343Y11450D01*
Y10472D01*
G01X24902Y89212D02*
Y88251D01*
X25111Y88042D01*
Y83545D01*
G03X29076Y72241I18096J0D01*
G01X29092Y72221D01*
G02X32640Y62129I-12579J-10092D01*
G01Y26609D01*
G03X34153Y22957I5164J0D01*
G01X34288Y22822D01*
G02X36174Y18269I-4553J-4553D01*
G01Y11649D01*
X35965Y11440D01*
Y10472D01*
G01X22146Y89212D02*
Y88279D01*
X21937Y88070D01*
Y83508D01*
G03X26477Y70567I20716J1D01*
G01X26478D01*
X26624Y70384D01*
G02X29610Y61869I-10647J-8515D01*
G01Y24326D01*
G03X30392Y22437I3043J153D01*
G02X33000Y16115I-6356J-6321D01*
G01Y11659D01*
X33209Y11450D01*
Y10472D01*
G01X40099D02*
Y11440D01*
X40308Y11649D01*
Y20906D01*
G03X39291Y23360I-3469J0D01*
G01X39132Y23519D01*
G02X36630Y29559I6039J6040D01*
G01Y62536D01*
G03X33111Y73552I-19002J0D01*
G01X32135Y74924D01*
G02X29245Y83972I12717J9047D01*
G01Y88042D01*
X29036Y88251D01*
Y89212D01*
G01X41477Y10472D02*
Y11450D01*
X41268Y11659D01*
Y20906D01*
G03X39970Y24039I-4430J0D01*
G01X39811Y24198D01*
G02X37590Y29559I5360J5361D01*
G01Y62536D01*
G03X33894Y74109I-19962J1D01*
G01X33649Y74453D01*
Y74455D01*
X32917Y75481D01*
G02X30206Y83972I11935J8489D01*
G01X30205Y83971D01*
Y88070D01*
X30414Y88279D01*
Y89212D01*
G54D15*
X47579Y7165D03*
X36516Y92519D03*
G54D16*
X46614Y5019D03*
X35551Y90373D03*
G54D17*
X46614Y9311D03*
X35551Y94665D03*
G54D18*
G01X31792Y82683D02*
G03X33898Y76515I10083J-1D01*
G01X34112Y76239D01*
G02X39105Y61443I-19425J-14795D01*
G01X39111Y29431D01*
G03X40927Y25027I6344J39D01*
G01X41054Y24898D01*
G02X42855Y20491I-4490J-4406D01*
G01Y12322D01*
G01X31792Y87362D02*
Y82683D01*
G54D19*
G01X1969Y99685D02*
G03X0Y97716I0J-1969D01*
G01Y75479D01*
G03X867Y73014I3937J0D01*
G01X11063Y60314D01*
Y1968D01*
G03X13032Y0I1968J0D01*
G01X49252D01*
G03X51221Y1968I1J1968D01*
G01Y52413D01*
G03X53169Y55811I-1989J3397D01*
G01Y76035D01*
G03X49232Y79972I-3937J0D01*
G01X40158D01*
Y97716D01*
G03X38189Y99685I-1969J0D01*
G01X1969D01*
M02*
