G04 ================== begin FILE IDENTIFICATION RECORD ==================*
G04 Layout Name:  D:/Project/31_HUASHAN_FPC/Output/SP1HSFLB.brd*
G04 Film Name:    art03*
G04 File Format:  Gerber RS274X*
G04 File Origin:  Cadence Allegro 17.2-S053*
G04 Origin Date:  Fri Mar 12 13:39:14 2021*
G04 *
G04 Layer:  VIA CLASS/BOTTOM*
G04 Layer:  PIN/BOTTOM*
G04 Layer:  ETCH/BOTTOM*
G04 Layer:  BOARD GEOMETRY/OUTLINE*
G04 *
G04 Offset:    (0.00 0.00)*
G04 Mirror:    No*
G04 Mode:      Positive*
G04 Rotation:  0*
G04 FullContactRelief:  No*
G04 UndefLineWidth:     6.00*
G04 ================== end FILE IDENTIFICATION RECORD ====================*
%FSLAX25Y25*MOIN*%
%IR0*IPPOS*OFA0.00000B0.00000*MIA0B0*SFA1.00000B1.00000*%
%ADD10C,.014*%
%ADD11C,.03*%
%ADD12C,.0004*%
%ADD13C,.003*%
%ADD14C,.005*%
%ADD15C,.006*%
%ADD16C,.008*%
G75*
%LPD*%
G75*
G36*
G01X1969Y98884D02*
X6119D01*
G02X6260Y98783I-1J-150D01*
G01X6369Y98470D01*
X6343Y98379D01*
X6305Y98349D01*
G03X5886Y97485I683J-865D01*
G03X6117Y96811I1102J1D01*
G02X6148Y96719I-119J-91D01*
G01Y92520D01*
X6149Y92519D01*
G02X6104Y92117I-1827J1D01*
G02X6102Y92108I-147J28D01*
G01X6101Y92105D01*
G02X5768Y91246I-3198J746D01*
G03X5185Y89486I4264J-2389D01*
G01Y89485D01*
G03X5159Y89086I3110J-403D01*
G01X5160Y89083D01*
Y80223D01*
G03X10817Y64138I25699J1D01*
G01X12200Y62415D01*
G02X13262Y59394I-3766J-3021D01*
G01Y20559D01*
G03X13356Y19778I3313J3D01*
G01Y19777D01*
G03X15622Y15751I8323J2034D01*
G01X15751Y15622D01*
G02X16161Y14633I-988J-989D01*
G01X16162D01*
Y10060D01*
X16161Y10059D01*
G03X16269Y9253I3063J0D01*
G01Y9252D01*
G03X16785Y8151I3428J935D01*
G01X16786Y8150D01*
G02X17205Y6812I-1894J-1328D01*
G01Y6811D01*
X17197Y4808D01*
G02Y4799I-150J-5D01*
G01X17189Y2911D01*
X17175Y2868D01*
X17160Y2848D01*
G03X16950Y2200I891J-647D01*
G03X17368Y1336I1102J0D01*
G01X17406Y1306D01*
X17432Y1215D01*
X17323Y902D01*
G02X17182Y801I-142J49D01*
G01X13031D01*
G02X11864Y1968I0J1167D01*
G01Y60542D01*
G03Y60548I-150J3D01*
G01X11863Y60595D01*
X11833Y60633D01*
G03X11831Y60636I-126J-82D01*
G01X1492Y73516D01*
G02X801Y75479I2445J1964D01*
G01Y97716D01*
G02X1969Y98884I1168J0D01*
G37*
G36*
G01X23386Y3013D02*
X23069Y2694D01*
X23563Y2138D01*
X24057Y2694D01*
X23740Y3013D01*
G03X23386I-177J-177D01*
G37*
G36*
G01X26883Y3551D02*
G02X26179Y2885I-1231J597D01*
G01X26261Y2119D01*
X27012Y2291D01*
G02X27413Y3173I1368J-90D01*
G03X26883Y3551I-400J0D01*
G37*
G36*
G01X17737Y2991D02*
X17517Y2645D01*
X18058Y2125D01*
X18547Y2693D01*
X18203Y3041D01*
G03X17737Y2991I-213J-212D01*
G37*
G36*
G01X20701Y3084D02*
X20313Y2694D01*
X20807Y2162D01*
X21301Y2694D01*
X20913Y3084D01*
G03X20701I-106J-106D01*
G37*
G36*
G01X27707Y7721D02*
G02X27920I107J-106D01*
G01X28341Y7300D01*
G02X28664Y6520I-780J-780D01*
G01Y2258D01*
X28663Y2254D01*
G03X28662Y2200I1101J-47D01*
G03X28663Y2146I1102J-7D01*
G01X28664Y2142D01*
Y1752D01*
G03X28840Y1306I651J-1D01*
G01X28871Y1273D01*
X28886Y1186D01*
X28800Y986D01*
Y951D01*
G02X28650Y801I-150J0D01*
G01X28622D01*
X28621D01*
X27189D01*
G02X27048Y902I1J150D01*
G01X26939Y1215D01*
X26965Y1306D01*
X27003Y1336D01*
G03X27363Y1848I-684J864D01*
G02X27366Y1855I139J-55D01*
G03X27412Y2059I-1047J343D01*
G02X27439Y2127I149J-20D01*
G03X28242Y4629I-3500J2503D01*
G01Y5583D01*
G03X27686Y7536I-3711J-1D01*
G01X27658Y7581D01*
X27670Y7684D01*
X27707Y7721D01*
G37*
G36*
G01X19764Y4558D02*
X19799Y4569D01*
X19869Y4558D01*
X20094Y4394D01*
G02X20156Y4272I-88J-122D01*
G01Y3167D01*
G02X20112Y3061I-150J0D01*
G01X20066Y3015D01*
X20063Y3013D01*
G03X19706Y2200I745J-812D01*
G03X20124Y1336I1102J0D01*
G01X20162Y1306D01*
X20188Y1215D01*
X20079Y902D01*
G02X19938Y801I-142J49D01*
G01X18920D01*
G02X18779Y902I1J150D01*
G01X18670Y1215D01*
X18696Y1306D01*
X18734Y1336D01*
G03X19152Y2200I-684J864D01*
G01Y2202D01*
G03X18836Y2973I-1101J-1D01*
G01X18815Y2994D01*
X18793Y3049D01*
X18797Y4247D01*
G02X18855Y4365I150J-1D01*
G01X19068Y4531D01*
X19135Y4545D01*
X19168Y4537D01*
G03X19429Y4506I260J1071D01*
G03X19764Y4558I0J1102D01*
G37*
G36*
G01X21745D02*
X21815Y4569D01*
X21850Y4558D01*
G03X22185Y4506I335J1050D01*
G03X22442Y4536I2J1102D01*
G01X22475Y4544D01*
X22542Y4530D01*
X22754Y4362D01*
G02X22812Y4245I-92J-118D01*
G01Y3068D01*
G02X22770Y2964I-150J0D01*
G03X22462Y2200I794J-764D01*
G03X22880Y1336I1102J0D01*
G01X22918Y1306D01*
X22944Y1215D01*
X22835Y902D01*
G02X22694Y801I-142J49D01*
G01X21676D01*
G02X21535Y902I1J150D01*
G01X21426Y1215D01*
X21452Y1306D01*
X21490Y1336D01*
G03X21908Y2200I-684J864D01*
G03X21551Y3013I-1102J1D01*
G01X21548Y3015D01*
X21502Y3061D01*
G02X21458Y3167I106J106D01*
G01Y4272D01*
G02X21520Y4394I150J0D01*
G01X21745Y4558D01*
G37*
G36*
G01X13369Y98884D02*
X14800D01*
G02X14950Y98734I0J-150D01*
G01Y98604D01*
X14898Y98528D01*
X14855Y98511D01*
G03Y96459I400J-1026D01*
G01X14887Y96447D01*
G03X14927Y96433I384J1033D01*
G02X15010Y96370I-44J-144D01*
G02X15376Y95095I-2042J-1276D01*
G01Y93852D01*
G02X14936Y92790I-1506J2D01*
G01X13028Y90882D01*
G03X11848Y88036I2845J-2847D01*
G01Y78786D01*
G03X15437Y68580I16312J2D01*
G01X18652Y64573D01*
G02X20249Y60031I-5663J-4543D01*
G01Y60029D01*
X20248D01*
Y21210D01*
G03X21793Y17483I5271J1D01*
G01X21933Y17343D01*
G02X22948Y14893I-2453J-2452D01*
G01Y12308D01*
G03X24678Y8134I5904J1D01*
G01X25881Y6931D01*
G02X26440Y5581I-1351J-1350D01*
G01Y4631D01*
G02X26240Y3652I-2500J1D01*
G02X26064Y3313I-2301J979D01*
G02X25982Y3249I-128J79D01*
G03X25218Y2200I338J-1049D01*
G03X25636Y1336I1102J0D01*
G01X25674Y1306D01*
X25700Y1215D01*
X25591Y902D01*
G02X25450Y801I-142J49D01*
G01X24432D01*
G02X24291Y902I1J150D01*
G01X24182Y1215D01*
X24208Y1306D01*
X24246Y1336D01*
G03X24664Y2200I-684J864D01*
G03X24356Y2964I-1102J0D01*
G02X24314Y3068I108J104D01*
G01Y4245D01*
G02X24372Y4362I150J-1D01*
G01X24584Y4530D01*
X24651Y4544D01*
X24684Y4536D01*
G03X24941Y4506I255J1072D01*
G03X26043Y5608I0J1102D01*
G03X25560Y6520I-1103J0D01*
G02X25510Y6576I83J125D01*
G03X25118Y7116I-1902J-968D01*
G01X23990Y8245D01*
X22532Y9703D01*
G02X21607Y11098I2968J2972D01*
G02X21551Y11386I715J288D01*
G01Y11387D01*
X21552Y11388D01*
Y14714D01*
G03X19841Y18884I-5939J-1D01*
G01X19840D01*
G02X18551Y22024I3179J3140D01*
G01X18552D01*
Y59709D01*
G03X17806Y63371I-9375J-3D01*
G01X17805Y63373D01*
G03X16538Y65518I-8879J-3798D01*
G01X14199Y68516D01*
G02X10502Y79265I13779J10749D01*
G01Y88314D01*
X10501Y88316D01*
G02X10557Y88603I764J0D01*
G02X11289Y89706I3091J-1257D01*
G01X13992Y92408D01*
G03X14078Y92510I-568J566D01*
G03X14405Y93076I-2787J1988D01*
G02X14462Y93141I136J-62D01*
G03X14980Y94076I-585J935D01*
G01Y94077D01*
G03X14748Y94753I-1102J0D01*
G01X14741Y94761D01*
G03X14512Y94977I-863J-685D01*
G01X14485Y94995D01*
G03X13878Y95178I-608J-919D01*
G03X13621Y95147I3J-1102D01*
G01X13588Y95139D01*
X13521Y95154D01*
X13309Y95321D01*
G02X13252Y95439I93J118D01*
G01Y96617D01*
G02X13293Y96721I150J1D01*
G03X13602Y97485I-793J765D01*
G03X13183Y98349I-1102J-1D01*
G01X13145Y98379D01*
X13119Y98470D01*
X13228Y98783D01*
G02X13369Y98884I142J-49D01*
G37*
G36*
G01X24299Y6637D02*
G02X24365Y6004I-828J-406D01*
G01X24969Y5538D01*
X25088Y6291D01*
G02X24701Y6796I495J780D01*
G03X24299Y6637I-124J-273D01*
G37*
G36*
G01X19323Y6492D02*
X18935Y6102D01*
X19429Y5570D01*
X19923Y6102D01*
X19535Y6492D01*
G03X19323I-106J-106D01*
G37*
G36*
G01X21639Y63930D02*
G02X21833Y63895I77J-129D01*
G01X21994Y63694D01*
G02X22001Y63686I-109J-103D01*
G01X22713Y62797D01*
G02X23844Y59581I-4010J-3217D01*
G01Y20272D01*
G03X24757Y17391I5002J0D01*
G01X24758Y17389D01*
X25117Y16882D01*
G02X25298Y16309I-817J-573D01*
G01Y13191D01*
G03X26295Y9626I6880J2D01*
G01X26322Y9581D01*
G03X26557Y9225I5857J3611D01*
G01X26589Y9179D01*
X26580Y9071D01*
X26541Y9032D01*
G02X26329I-106J106D01*
G01X25952Y9408D01*
G02X24752Y12305I2901J2899D01*
G01Y14890D01*
G03X23207Y18617I-5271J-1D01*
G01X23067Y18757D01*
G02X22052Y21207I2453J2452D01*
G01Y60032D01*
G03X21323Y63590I-9063J-3D01*
G01X21301Y63642D01*
X21335Y63748D01*
X21639Y63930D01*
G37*
G36*
G01X21704Y6713D02*
G02X21593Y5979I-956J-231D01*
G01X22197Y5572D01*
X22448Y6255D01*
G02X21929Y6786I392J902D01*
G03X21704Y6713I-84J-125D01*
G37*
G36*
G01X16126Y98884D02*
X17558D01*
G02X17695Y98794I-1J-150D01*
G01X17822Y98500D01*
X17807Y98412D01*
X17776Y98379D01*
G03X17600Y97934I476J-445D01*
G01Y97539D01*
G03X17599Y97485I1101J-47D01*
G03X17600Y97431I1102J-7D01*
G01Y95436D01*
G03X17598Y95350I2000J-90D01*
G01Y93235D01*
G02X16946Y91661I-2228J1D01*
G01X16524Y91239D01*
G03X14699Y86834I4405J-4406D01*
G01X14698D01*
Y78769D01*
G03X17540Y69360I17003J2D01*
G01X17546Y69350D01*
G03X17721Y69093I14141J9441D01*
G01X17755Y69044D01*
X17738Y68928D01*
X17692Y68890D01*
G02X17481Y68914I-94J117D01*
G01X16843Y69708D01*
G02X13652Y78786I11318J9078D01*
G01Y88039D01*
G02X14302Y89608I2223J-2D01*
G01X16210Y91516D01*
G03X17180Y93855I-2338J2340D01*
G01Y95092D01*
G03X16375Y97568I-4212J0D01*
G02X16348Y97635I121J88D01*
G03X16301Y97837I-1092J-148D01*
G02X16297Y97846I135J65D01*
G03X15940Y98349I-1041J-361D01*
G01X15902Y98379D01*
X15876Y98470D01*
X15985Y98783D01*
G02X16126Y98884I142J-49D01*
G37*
G36*
G01X12677Y96672D02*
X12994Y96991D01*
X12500Y97548D01*
X12006Y96991D01*
X12323Y96672D01*
G03X12677I177J177D01*
G37*
G36*
G01X16356Y96520D02*
G02X15949Y97396I951J975D01*
G01X15197Y97566D01*
X15122Y96799D01*
G02X15828Y96138I-519J-1262D01*
G03X16356Y96520I128J379D01*
G37*
G36*
G01X13602Y92750D02*
G02X14142Y93429I1136J-349D01*
G01X13906Y94146D01*
X13239Y93793D01*
G02X13157Y92930I-1142J-327D01*
G03X13602Y92750I290J77D01*
G37*
G36*
G01X18252Y98084D02*
X23362D01*
G02X23512Y97934I-1J-150D01*
G01Y95224D01*
G02X23468Y95118I-150J0D01*
G01X22444Y94094D01*
G02X22338Y94050I-106J106D01*
G01X18252D01*
G02X18102Y94200I0J150D01*
G01Y97934D01*
G02X18252Y98084I150J0D01*
G37*
G36*
G01X25142D02*
X30252D01*
G02X30402Y97934I0J-150D01*
G01Y94955D01*
G02X30358Y94849I-150J0D01*
G01X29603Y94094D01*
G02X29497Y94050I-106J106D01*
G01X25142D01*
G02X24992Y94200I0J150D01*
G01Y97934D01*
G02X25142Y98084I150J0D01*
G37*
G36*
G01X7162Y96669D02*
X7482Y96991D01*
X6993Y97560D01*
X6467Y97021D01*
X6712Y96699D01*
G03X7162Y96669I238J182D01*
G37*
G36*
G01X9850Y96601D02*
X10238Y96991D01*
X9744Y97522D01*
X9250Y96991D01*
X9638Y96601D01*
G03X9850I106J106D01*
G37*
G36*
G01X8472Y93192D02*
X8860Y93582D01*
X8366Y94114D01*
X7872Y93582D01*
X8260Y93192D01*
G03X8472I106J106D01*
G37*
G36*
G01X24056Y98884D02*
X24448D01*
G02X24585Y98794I-1J-150D01*
G01X24712Y98500D01*
X24697Y98412D01*
X24666Y98379D01*
G03X24490Y97934I476J-445D01*
G01Y97539D01*
G03X24489Y97485I1101J-47D01*
G03X24490Y97431I1102J-7D01*
G01Y91247D01*
G02X24118Y90348I-1275J1D01*
G01X23693Y89924D01*
G03X22148Y86193I3732J-3731D01*
G01Y85354D01*
X21802D01*
Y88453D01*
G02X22031Y89006I783J0D01*
G01Y89007D01*
X22143Y89118D01*
G03X22902Y90948I-1828J1831D01*
G01Y93780D01*
G02X22945Y93886I150J1D01*
G01X23823Y94763D01*
G03X24014Y95224I-461J461D01*
G01Y97935D01*
G03X23838Y98379I-652J-2D01*
G01X23806Y98412D01*
X23791Y98500D01*
X23919Y98794D01*
G02X24056Y98884I137J-60D01*
G37*
G36*
G01X7858D02*
X8874D01*
G02X9016Y98783I0J-150D01*
G01X9125Y98470D01*
X9099Y98379D01*
X9061Y98349D01*
G03X8642Y97485I683J-865D01*
G03X9000Y96672I1102J0D01*
G01X9003Y96670D01*
X9049Y96624D01*
G02X9092Y96518I-107J-105D01*
G01Y95411D01*
G02X9031Y95290I-150J0D01*
G01X8806Y95126D01*
X8736Y95114D01*
X8701Y95125D01*
G03X8366Y95178I-338J-1049D01*
G03X8119Y95149I4J-1102D01*
G01X8085Y95142D01*
X8019Y95157D01*
X7808Y95324D01*
G02X7752Y95442I94J117D01*
G01Y96630D01*
G02X7792Y96732I150J0D01*
G03X8090Y97485I-804J754D01*
G03X7671Y98349I-1102J-1D01*
G01X7633Y98379D01*
X7607Y98470D01*
X7716Y98783D01*
G02X7858Y98884I142J-49D01*
G37*
G36*
G01X10614D02*
X11630D01*
G02X11772Y98783I0J-150D01*
G01X11881Y98470D01*
X11855Y98379D01*
X11817Y98349D01*
G03X11398Y97485I683J-865D01*
G03X11707Y96721I1102J1D01*
G02X11748Y96617I-109J-103D01*
G01Y95439D01*
G02X11691Y95321I-150J0D01*
G01X11479Y95154D01*
X11412Y95139D01*
X11379Y95147D01*
G03X11122Y95178I-260J-1071D01*
G03X10787Y95125I3J-1102D01*
G01X10752Y95114D01*
X10682Y95126D01*
X10457Y95290D01*
G02X10396Y95411I89J121D01*
G01Y96518D01*
G02X10439Y96624I150J1D01*
G01X10485Y96670D01*
X10488Y96672D01*
G03X10846Y97485I-744J813D01*
G03X10427Y98349I-1102J-1D01*
G01X10389Y98379D01*
X10363Y98470D01*
X10472Y98783D01*
G02X10614Y98884I142J-49D01*
G37*
G36*
G01X11139Y93113D02*
G02X11367Y93422I526J-150D01*
G01X11125Y94113D01*
X10787Y93463D01*
G02X10970Y93125I-355J-411D01*
G03X11139Y93113I93J117D01*
G37*
G36*
G01X29315Y5635D02*
X33425D01*
G02X33531Y5591I0J-150D01*
G01X34531Y4591D01*
G02X34575Y4485I-106J-106D01*
G01Y1752D01*
G02X34425Y1602I-150J0D01*
G01X29315D01*
G02X29165Y1752I0J150D01*
G01Y5485D01*
G02X29315Y5635I150J0D01*
G37*
G36*
G01X36205D02*
X40588D01*
G02X40694Y5591I0J-150D01*
G01X41421Y4864D01*
G02X41465Y4758I-106J-106D01*
G01Y1752D01*
G02X41315Y1602I-150J0D01*
G01X36205D01*
G02X36055Y1752I0J150D01*
G01Y5485D01*
G02X36205Y5635I150J0D01*
G37*
G36*
G01X44043Y3000D02*
X43739Y2694D01*
X44230Y2125D01*
X44743Y2677D01*
X44483Y2983D01*
G03X44043Y3000I-228J-195D01*
G37*
G36*
G01X41152Y5905D02*
Y11434D01*
G02X41265Y11579I150J0D01*
G01X41596Y11664D01*
X41690Y11623D01*
X41715Y11577D01*
G03X42367Y10704I3341J1815D01*
G01X42949Y10122D01*
G02X43453Y8906I-1216J-1216D01*
G01X43454D01*
Y3038D01*
G02X43415Y2938I-150J1D01*
G03X43132Y2200I818J-737D01*
G03X43550Y1336I1102J0D01*
G01X43588Y1306D01*
X43614Y1215D01*
X43505Y902D01*
G02X43363Y801I-142J49D01*
G01X42009D01*
G02X41871Y891I0J150D01*
G01X41744Y1186D01*
X41759Y1273D01*
X41790Y1306D01*
G03X41966Y1752I-475J445D01*
G01Y4758D01*
G03X41776Y5219I-652J1D01*
G01X41195Y5799D01*
G02X41152Y5905I107J105D01*
G37*
G36*
G01X33336Y12222D02*
Y12225D01*
G03X34773Y9497I5117J953D01*
G01X35197Y9073D01*
G02X35548Y8225I-851J-849D01*
G01Y4400D01*
G03X35553Y4264I2002J6D01*
G01X35554Y4259D01*
Y2258D01*
X35553Y2254D01*
G03X35552Y2200I1101J-47D01*
G03X35553Y2146I1102J-7D01*
G01X35554Y2142D01*
Y1752D01*
G03X35730Y1306I651J-1D01*
G01X35761Y1273D01*
X35776Y1186D01*
X35649Y891D01*
G02X35512Y801I-138J60D01*
G01X35118D01*
G02X34981Y891I1J150D01*
G01X34854Y1186D01*
X34869Y1273D01*
X34900Y1306D01*
G03X35076Y1752I-475J445D01*
G01Y4485D01*
G03X34886Y4946I-652J1D01*
G01X34032Y5799D01*
G02X33988Y5905I106J106D01*
G01Y7915D01*
G03X33236Y9730I-2566J0D01*
G01X33126Y9841D01*
G02X32902Y10382I542J541D01*
G01Y12222D01*
X33336D01*
G37*
G36*
G01X34039Y98884D02*
X38189D01*
G02X39357Y97716I0J-1168D01*
G01Y79171D01*
X49232D01*
G02X52368Y76035I0J-3136D01*
G01Y55810D01*
G02X50816Y53104I-3136J0D01*
G01X50494Y52916D01*
G03X50491Y52914I82J-126D01*
G01X50421Y52872D01*
X50420Y52790D01*
G03Y52787I150J-1D01*
G01Y1968D01*
G02X49253Y801I-1167J0D01*
G01X45102D01*
G02X44961Y902I1J150D01*
G01X44852Y1215D01*
X44878Y1306D01*
X44916Y1336D01*
G03X45334Y2200I-684J864D01*
G01Y2201D01*
G03X45090Y2892I-1101J0D01*
G02X45056Y2986I116J95D01*
G01Y8907D01*
G03X44083Y11256I-3323J-1D01*
G01X43501Y11838D01*
G02X42857Y13393I1555J1555D01*
G01Y14331D01*
X43156D01*
Y13720D01*
G03X43816Y12128I2252J1D01*
G01X43817Y12127D01*
G02X43819Y12125I-176J-178D01*
G01X44004Y11936D01*
G02X45186Y10222I-4363J-4273D01*
G03X45777Y9844I591J273D01*
G01X48425D01*
G03X49126Y10545I0J701D01*
G01Y21976D01*
G03X48839Y22670I-984J-1D01*
G01X47790Y23719D01*
G02X47746Y23825I106J106D01*
G01Y69456D01*
G03X47459Y70150I-984J-1D01*
G01X38107Y79502D01*
G02X38064Y79608I107J105D01*
G01Y89139D01*
G03X37364Y89840I-701J0D01*
G01X34564D01*
G03X34103Y89650I-1J-651D01*
G01X32859Y88406D01*
G03X32200Y86814I1593J-1592D01*
G01Y85354D01*
X31802D01*
Y86865D01*
G02X32446Y88420I2199J0D01*
G01X33366Y89340D01*
G03X33994Y90855I-1513J1515D01*
G01Y96699D01*
G02X34027Y96793I150J0D01*
G03X34272Y97485I-857J693D01*
G03X33853Y98349I-1102J-1D01*
G01X33815Y98379D01*
X33789Y98470D01*
X33898Y98783D01*
G02X34039Y98884I142J-49D01*
G37*
G36*
G01X34564Y89339D02*
X37362D01*
G02X37562Y89139I0J-200D01*
G01Y79538D01*
G03X37703Y79197I483J0D01*
G01X47104Y69796D01*
G02X47245Y69455I-342J-341D01*
G01Y23754D01*
G03X47386Y23414I482J1D01*
G01X48484Y22316D01*
G02X48625Y21975I-342J-341D01*
G01Y10545D01*
G02X48425Y10345I-200J0D01*
G01X45777D01*
G02X45641Y10432I0J150D01*
G03X44362Y12287I-6000J-2769D01*
G01X44176Y12477D01*
G03X44170Y12483I-534J-528D01*
G02X43658Y13720I1238J1237D01*
G01Y15420D01*
G03X42348Y18580I-4469J-1D01*
G01X37290Y23638D01*
G02X37246Y23744I106J106D01*
G01Y24723D01*
X37245Y24724D01*
Y62742D01*
G03X34890Y69310I-10745J-147D01*
G01X30357Y74972D01*
G02X30052Y75840I1084J869D01*
G01Y78500D01*
G02X30564Y79737I1750J0D01*
G01X30715Y79889D01*
G03X32702Y84684I-4795J4796D01*
G01Y86814D01*
G02X33214Y88051I1750J0D01*
G01X34458Y89295D01*
G02X34564Y89339I106J-106D01*
G37*
G36*
G01X33420Y96702D02*
X33680Y97008D01*
X33167Y97560D01*
X32676Y96991D01*
X32980Y96685D01*
G03X33420Y96702I212J212D01*
G37*
G36*
G01X30947Y98884D02*
X32300D01*
G02X32442Y98783I0J-150D01*
G01X32551Y98470D01*
X32525Y98379D01*
X32487Y98349D01*
G03X32068Y97485I683J-865D01*
G03X32352Y96747I1101J0D01*
G02X32390Y96647I-112J-100D01*
G01Y90855D01*
G02X32233Y90474I-538J-1D01*
G01X31312Y89554D01*
G03X30627Y88618I2690J-2687D01*
G01X30602Y88571D01*
X30509Y88529D01*
X30175Y88611D01*
G02X30060Y88756I35J146D01*
G01Y93780D01*
G02X30104Y93886I150J0D01*
G01X30713Y94494D01*
G03X30904Y94955I-461J461D01*
G01Y97934D01*
G03X30728Y98379I-652J0D01*
G01X30697Y98412D01*
X30682Y98500D01*
X30809Y98794D01*
G02X30947Y98884I138J-60D01*
G37*
G54D10*
G01X19155Y27031D02*
Y23031D01*
G01Y31031D02*
Y27031D01*
G01X23145D02*
Y31031D01*
G01Y23031D02*
Y27031D01*
G01X19155Y35031D02*
Y31031D01*
G01Y39031D02*
Y35031D01*
G01Y43031D02*
Y39031D01*
G01Y47031D02*
Y43031D01*
G01Y51031D02*
Y47031D01*
G01Y55031D02*
Y51031D01*
G01Y59031D02*
Y55031D01*
G01X23145D02*
Y59031D01*
G01Y51031D02*
Y55031D01*
G01Y47031D02*
Y51031D01*
G01Y43031D02*
Y47031D01*
G01Y39031D02*
Y43031D01*
G01Y35031D02*
Y39031D01*
G01Y31031D02*
Y35031D01*
G01X19155Y59031D02*
Y59981D01*
G03X17177Y65608I-8994J0D01*
G01X14839Y68522D01*
G02X11122Y79098I13184J10575D01*
G01Y87362D01*
X1500Y76654D03*
X1890Y74180D03*
X3442Y72204D03*
X4400Y87254D03*
X2200D03*
X23563Y2200D03*
X26319D03*
X29764D03*
X18051D03*
X20807D03*
X16313Y1534D03*
Y2968D03*
X24941Y5608D03*
X19429D03*
X22185Y12322D03*
X12564Y23031D03*
X19155D03*
X23145D03*
X19155Y27031D03*
X23145D03*
X15463Y12430D03*
X13263D03*
X22185Y5608D03*
X12564Y34831D03*
Y37331D03*
Y49131D03*
Y51631D03*
X19155Y31031D03*
X23145D03*
X19155Y35031D03*
X23145D03*
X19155Y39031D03*
X23145D03*
X19155Y43031D03*
X23145D03*
X19155Y47031D03*
X23145D03*
X19155Y51031D03*
X23145D03*
X19155Y55031D03*
X23145D03*
X12564Y54131D03*
X19155Y59031D03*
X23145D03*
X10829Y63003D03*
X12564Y56631D03*
Y59131D03*
X12500Y97485D03*
X15256D03*
X13878Y94076D03*
X22835Y97485D03*
X18701D03*
X20768D03*
X29725D03*
X25591D03*
X27658D03*
X6988D03*
X9744D03*
X8366Y94076D03*
X11122Y87362D03*
X5250Y96716D03*
X23524Y90962D03*
X5250Y98150D03*
X19390Y87362D03*
X27658D03*
X11122Y94076D03*
X33898Y2200D03*
X31831D03*
X40788D03*
X36654D03*
X38721D03*
X44233D03*
X46013Y1568D03*
Y2968D03*
X46400Y11100D03*
X47850D03*
X45000Y26200D03*
X46533Y21139D03*
X42855Y8722D03*
X34587D03*
X49721Y23031D03*
Y25531D03*
Y28031D03*
X30453Y12322D03*
X38721D03*
X42755Y52750D03*
Y47350D03*
Y41950D03*
Y36550D03*
Y31150D03*
X49721Y39831D03*
Y42331D03*
X49269Y55472D03*
X51619D03*
X49721Y44831D03*
Y47331D03*
Y49831D03*
Y52331D03*
X37000Y78472D03*
X39950Y73900D03*
X42000Y68900D03*
X42755Y63550D03*
Y58150D03*
X40769Y78472D03*
X43269D03*
X51669Y69772D03*
Y72272D03*
X49269D03*
Y69772D03*
Y57972D03*
X51669D03*
X36787Y88584D03*
X35337D03*
X33170Y97485D03*
X31792Y90962D03*
X34950Y96716D03*
Y98116D03*
G54D11*
G01X30665Y4635D02*
Y6520D01*
G03X29756Y8715I-3105J0D01*
G01X28729Y9742D01*
G02X27300Y13192I3450J3450D01*
G01Y16306D01*
G03X26752Y18036I-3000J2D01*
G01X26393Y18544D01*
G02X25845Y20273I2453J1729D01*
G01Y59581D01*
G03X24275Y64049I-7143J0D01*
G01X19995Y69389D01*
G02X16700Y78771I11706J9381D01*
G01Y86834D01*
G02X17939Y89824I4229J-1D01*
G01X18361Y90246D01*
G03X19600Y93237I-2991J2991D01*
G01Y95350D01*
G01X37550Y4400D02*
Y8223D01*
G03X36612Y10488I-3204J0D01*
G01X36188Y10912D01*
G02X35250Y13177I2266J2265D01*
G01Y15059D01*
G03X33559Y19141I-5772J0D01*
G01X32324Y20376D01*
G02X31445Y22498I2122J2122D01*
G01Y60960D01*
G03X29347Y66939I-9567J0D01*
G01X24808Y72609D01*
G02X24150Y74485I2344J1875D01*
G01Y86193D01*
G02X25109Y88509I3276J0D01*
G01X25533Y88933D01*
G03X26492Y91249I-2317J2316D01*
G01Y95342D01*
G54D12*
G01X1969Y99685D02*
G03X0Y97716I0J-1969D01*
G01Y75479D01*
G03X867Y73014I3937J0D01*
G01X11063Y60314D01*
Y1968D01*
G03X13032Y0I1968J0D01*
G01X49252D01*
G03X51221Y1968I1J1968D01*
G01Y52413D01*
G03X53169Y55811I-1989J3397D01*
G01Y76035D01*
G03X49232Y79972I-3937J0D01*
G01X40158D01*
Y97716D01*
G03X38189Y99685I-1969J0D01*
G01X1969D01*
G54D13*
G01X9744Y97485D02*
Y93249D01*
G02X9304Y92187I-1502J0D01*
G01X8850Y91733D01*
G03X7447Y89451I4075J-4078D01*
G03X7400Y89153I905J-295D01*
G01Y79997D01*
G03X12437Y65679I22867J-1D01*
G01X14698Y62864D01*
G02X15550Y59755I-5248J-3109D01*
G01Y20265D01*
G03X15607Y19970I792J0D01*
G01X15941Y19139D01*
G03X17161Y17294I5128J2065D01*
G01X17385Y17070D01*
G02X18450Y14499I-2570J-2571D01*
G01Y10204D01*
G03X18504Y9908I827J-2D01*
G03X19728Y8022I5033J1926D01*
G01X20367Y7383D01*
G02X20807Y6321I-1062J-1062D01*
G01Y2200D01*
G01X27500Y950D02*
X25200D01*
G01X42250D02*
X28150D01*
G01X19150D02*
X16700D01*
G01X24800D02*
X22400D01*
G01X21950D02*
X19650D01*
G01X19429Y5608D02*
Y6757D01*
G03X18989Y7819I-1502J0D01*
G01X18958Y7850D01*
G02X17853Y9568I3400J3401D01*
G02X17800Y9864I792J294D01*
G01Y14397D01*
G03X16803Y16803I-3402J0D01*
G01X16650Y16956D01*
G02X15245Y19126I4370J4369D01*
G01X15004Y19758D01*
G02X14900Y20324I1489J566D01*
G01Y59983D01*
G03X14877Y60283I-1918J4D01*
G03X13513Y63365I-6485J-1027D01*
G01X11951Y65312D01*
G02X6750Y80109I18448J14797D01*
G01Y89214D01*
G02X6792Y89512I1060J3D01*
G02X8147Y91879I5607J-1639D01*
G03X8366Y92407I-527J528D01*
G01Y94076D01*
G01X11122D02*
Y93586D01*
G02X10817Y92851I-1040J1D01*
G01X9301Y91335D01*
G03X8104Y89486I3718J-3719D01*
G03X8050Y89190I777J-295D01*
G01Y79803D01*
G03X12846Y66152I21826J0D01*
G01X15379Y62992D01*
G02X16150Y59876I-5909J-3116D01*
G01Y21519D01*
G03X17824Y17480I5711J1D01*
G02X19100Y14399I-3082J-3081D01*
G01Y10526D01*
G03X19153Y10230I835J-3D01*
G03X20582Y8019I5848J2213D01*
G01X21476Y7125D01*
G02X21672Y6897I-1366J-1373D01*
G01X21837Y6672D01*
G02X22185Y5608I-1452J-1064D01*
G01X11300Y98735D02*
X13700D01*
G01X14150D02*
X16550D01*
G01X5486D02*
X8200D01*
G01X8500D02*
X11000D01*
G01X16900D02*
X24015D01*
G01X31500D02*
X24485D01*
G01X42950Y950D02*
X45450D01*
G01X31900Y98735D02*
X34415D01*
G54D14*
G01X12500Y97485D02*
Y94108D01*
G02X12101Y93145I-1362J0D01*
G01X9946Y90990D01*
G03X8904Y89480I3582J-3586D01*
G03X8800Y88990I1092J-488D01*
G01Y79542D01*
G03X13239Y66910I20193J0D01*
G01X15674Y63873D01*
G02X16900Y59707I-6467J-4167D01*
G01Y21311D01*
G03X16955Y20813I2258J-3D01*
G03X17953Y18551I6276J1418D01*
G01X18320Y18024D01*
G03X18635Y17636I2916J2046D01*
G02X19850Y14542I-3332J-3094D01*
G01Y11736D01*
G03X21078Y8772I4191J0D01*
G01X23026Y6824D01*
G02X23563Y5527I-1298J-1297D01*
G01Y2200D01*
G01X28391Y2400D02*
Y6144D01*
G01X24950Y1800D02*
Y2325D01*
G02X25251Y3051I1026J0D01*
G01X25655Y3455D01*
G03X26291Y4990I-1534J1535D01*
G01Y5832D01*
G03X25953Y6648I-1154J0D01*
G01X22824Y9777D01*
G02X22185Y11319I1541J1542D01*
G01Y12322D01*
G01D02*
Y14737D01*
G03X20680Y18370I-5137J0D01*
G01X20133Y18917D01*
G02X19155Y21277I2360J2361D01*
G01Y23031D01*
G01X23145D02*
Y19754D01*
G03X23756Y18279I2086J0D01*
G01X23835Y18200D01*
G02X24900Y15629I-2571J-2571D01*
G01Y12673D01*
G03X26316Y9255I4833J0D01*
G01X28391Y6144D02*
G03X27658Y7913I-2501J0D01*
G01X26316Y9255D01*
G01X21900Y87464D02*
Y73966D01*
G03X22734Y71592I3796J0D01*
G01X27210Y66006D01*
G02X29195Y60352I-7057J-5653D01*
G01Y21391D01*
G03X29928Y19622I2501J0D01*
G01X32048Y17502D01*
G02X33000Y15204I-2298J-2298D01*
G01Y12474D01*
G03X34185Y9614I4044J0D01*
G01X41205Y11408D02*
Y15219D01*
G03X40472Y16988I-2501J0D01*
G01X35022Y22438D01*
G02X34795Y22986I548J548D01*
G01Y61332D01*
G03X32188Y68759I-11883J0D01*
G01X27888Y74129D01*
G02X27500Y75235I1382J1106D01*
G01Y79114D01*
G02X28233Y80883I2501J0D01*
G01X28833Y81483D01*
G03X30150Y84662I-3178J3179D01*
G01Y88284D01*
G02X30883Y90053I2501J0D01*
G01X23145Y59031D02*
G03X22464Y62743I-10634J-32D01*
G03X22215Y63177I-1487J-565D01*
G01X17032Y69645D02*
G02X13900Y78561I11125J8916D01*
G01Y87909D01*
G02X14633Y89678I2501J0D01*
G01X16617Y91662D01*
G03X17350Y93431I-1768J1769D01*
G01Y97450D01*
G01X22215Y63177D02*
X17032Y69645D01*
G01X14705Y95395D02*
G02X15228Y94132I-1264J-1263D01*
G01Y94033D01*
G02X14705Y92770I-1787J0D01*
G01X12400Y90465D01*
G03X11122Y87362I3256J-3156D01*
G01X21900Y87464D02*
Y88076D01*
G02X22200Y88800I1024J0D01*
G01X42855Y8722D02*
X41938Y9639D01*
G02X41205Y11408I1768J1769D01*
G01X34587Y8722D02*
G03X34240Y9559I-1184J0D01*
G01X34185Y9614D01*
G01X43639Y11951D02*
Y11952D01*
G02X42906Y13720I1768J1769D01*
G01D02*
Y15420D01*
G03X41817Y18049I-3718J0D01*
G01X36642Y23224D01*
G02X36495Y23579I355J355D01*
G01Y62594D01*
G03X34303Y68840I-9995J0D01*
G01X29770Y74502D01*
G02X29300Y75840I1671J1339D01*
G01Y78500D01*
G02X30033Y80269I2501J0D01*
G01X30184Y80420D01*
G03X31950Y84684I-4265J4264D01*
G01Y86814D01*
G01X30883Y90053D02*
X31792Y90962D01*
G01X31950Y86814D02*
G02X32683Y88583I2501J0D01*
G01X33967Y89867D01*
G03X34450Y91033I-1166J1166D01*
G54D15*
G01X190460Y-37867D02*
X189460Y-38700D01*
X188335Y-39200D01*
X187335D01*
X186335Y-38700D01*
X185585Y-37867D01*
X185210Y-36700D01*
X185460Y-35534D01*
X186085Y-34533D01*
X187210Y-33867D01*
X188710Y-33533D01*
X189585Y-32867D01*
X189960Y-31700D01*
X189710Y-30533D01*
X189085Y-29700D01*
X188210Y-29200D01*
X187335D01*
X186460Y-29533D01*
X185710Y-30367D01*
G01X180335Y-39200D02*
Y-29200D01*
X177335D01*
X176335Y-29700D01*
X175585Y-30867D01*
X175335Y-32200D01*
X175585Y-33533D01*
X176210Y-34533D01*
X177335Y-35034D01*
X180335D01*
G01X167835Y-39200D02*
Y-29200D01*
X169335Y-31200D01*
G01Y-39200D02*
X166335D01*
G01X160460D02*
Y-29200D01*
G01X155210D02*
Y-39200D01*
G01Y-34200D02*
X160460D01*
G01X150460Y-37867D02*
X149460Y-38700D01*
X148335Y-39200D01*
X147335D01*
X146335Y-38700D01*
X145585Y-37867D01*
X145210Y-36700D01*
X145460Y-35534D01*
X146085Y-34533D01*
X147210Y-33867D01*
X148710Y-33533D01*
X149585Y-32867D01*
X149960Y-31700D01*
X149710Y-30533D01*
X149085Y-29700D01*
X148210Y-29200D01*
X147335D01*
X146460Y-29533D01*
X145710Y-30367D01*
G01X140210Y-39200D02*
Y-29200D01*
X135460D01*
G01X137210Y-34033D02*
X140210D01*
G01X130335Y-29200D02*
Y-39200D01*
X125335D01*
G01X116835Y-33867D02*
X116335Y-33367D01*
X115960Y-32534D01*
X115710Y-31367D01*
X115960Y-30367D01*
X116460Y-29700D01*
X117335Y-29200D01*
X120710D01*
Y-39200D01*
X116585D01*
X115710Y-38533D01*
X115210Y-37533D01*
X114960Y-36367D01*
X115210Y-35200D01*
X115960Y-34200D01*
X116835Y-33867D01*
X120710D01*
G01X100960Y-29200D02*
X97835Y-39200D01*
X94710Y-29200D01*
G01X85335Y-39200D02*
X90335D01*
Y-29200D01*
X85335D01*
G01X87335Y-34033D02*
X90335D01*
G01X80335Y-39200D02*
Y-29200D01*
X77210D01*
X76210Y-29700D01*
X75585Y-30367D01*
X75335Y-31700D01*
X75585Y-33033D01*
X76335Y-33867D01*
X77210Y-34367D01*
X80335D01*
G01X77210D02*
X75335Y-39200D01*
G01X67835Y-39533D02*
X68085Y-39367D01*
Y-39033D01*
X67835Y-38867D01*
X67585Y-39033D01*
Y-39367D01*
X67835Y-39533D01*
G01X60960Y-39200D02*
X57835Y-29200D01*
X54710Y-39200D01*
G01X55835Y-35700D02*
X59835D01*
G01X40960Y-39200D02*
X37835Y-29200D01*
X34710Y-39200D01*
G01X35835Y-35700D02*
X39835D01*
G01X30335Y-39200D02*
Y-29200D01*
X27210D01*
X26210Y-29700D01*
X25585Y-30367D01*
X25335Y-31700D01*
X25585Y-33033D01*
X26335Y-33867D01*
X27210Y-34367D01*
X30335D01*
G01X27210D02*
X25335Y-39200D01*
G01X17835Y-29200D02*
Y-39200D01*
G01X20710Y-29200D02*
X14960D01*
G01X11585D02*
X9835Y-39200D01*
X7835Y-29200D01*
X5835Y-39200D01*
X4085Y-29200D01*
G01X-2165Y-39200D02*
X-1165Y-39033D01*
X-290Y-38367D01*
X460Y-37367D01*
X960Y-36200D01*
X1210Y-34867D01*
Y-33533D01*
X960Y-32200D01*
X460Y-31033D01*
X-290Y-30033D01*
X-1165Y-29367D01*
X-2165Y-29200D01*
X-3165Y-29367D01*
X-4040Y-30033D01*
X-4790Y-31033D01*
X-5290Y-32200D01*
X-5540Y-33533D01*
Y-34867D01*
X-5290Y-36200D01*
X-4790Y-37367D01*
X-4040Y-38367D01*
X-3165Y-39033D01*
X-2165Y-39200D01*
G01X-9665D02*
Y-29200D01*
X-12790D01*
X-13790Y-29700D01*
X-14415Y-30367D01*
X-14665Y-31700D01*
X-14415Y-33033D01*
X-13665Y-33867D01*
X-12790Y-34367D01*
X-9665D01*
G01X-12790D02*
X-14665Y-39200D01*
G01X-19415D02*
Y-29200D01*
G01X-24165D02*
X-19415Y-35367D01*
G01X-24915Y-39200D02*
X-21540Y-32534D01*
G01X-43165Y-33867D02*
X-43665Y-33367D01*
X-44040Y-32534D01*
X-44290Y-31367D01*
X-44040Y-30367D01*
X-43540Y-29700D01*
X-42665Y-29200D01*
X-39290D01*
Y-39200D01*
X-43415D01*
X-44290Y-38533D01*
X-44790Y-37533D01*
X-45040Y-36367D01*
X-44790Y-35200D01*
X-44040Y-34200D01*
X-43165Y-33867D01*
X-39290D01*
G01X-52165Y-39200D02*
X-51165Y-39033D01*
X-50290Y-38367D01*
X-49540Y-37367D01*
X-49040Y-36200D01*
X-48790Y-34867D01*
Y-33533D01*
X-49040Y-32200D01*
X-49540Y-31033D01*
X-50290Y-30033D01*
X-51165Y-29367D01*
X-52165Y-29200D01*
X-53165Y-29367D01*
X-54040Y-30033D01*
X-54790Y-31033D01*
X-55290Y-32200D01*
X-55540Y-33533D01*
Y-34867D01*
X-55290Y-36200D01*
X-54790Y-37367D01*
X-54040Y-38367D01*
X-53165Y-39033D01*
X-52165Y-39200D01*
G01X-62165Y-29200D02*
Y-39200D01*
G01X-59290Y-29200D02*
X-65040D01*
G01X-72165D02*
Y-39200D01*
G01X-69290Y-29200D02*
X-75040D01*
G01X-82165Y-39200D02*
X-81165Y-39033D01*
X-80290Y-38367D01*
X-79540Y-37367D01*
X-79040Y-36200D01*
X-78790Y-34867D01*
Y-33533D01*
X-79040Y-32200D01*
X-79540Y-31033D01*
X-80290Y-30033D01*
X-81165Y-29367D01*
X-82165Y-29200D01*
X-83165Y-29367D01*
X-84040Y-30033D01*
X-84790Y-31033D01*
X-85290Y-32200D01*
X-85540Y-33533D01*
Y-34867D01*
X-85290Y-36200D01*
X-84790Y-37367D01*
X-84040Y-38367D01*
X-83165Y-39033D01*
X-82165Y-39200D01*
G01X-88915D02*
Y-29200D01*
X-92165Y-37533D01*
X-95415Y-29200D01*
Y-39200D01*
G01X6988Y97485D02*
X6950Y97447D01*
Y92520D01*
G02X6882Y91923I-2628J-3D01*
G02X6467Y90854I-3978J929D01*
G03X5980Y89383I3565J-1996D01*
G03X5961Y89083I2315J-297D01*
G01Y80225D01*
G03X11442Y64640I24898J0D01*
G01X12825Y62917D01*
G02X14064Y59394I-4391J-3523D01*
G01Y20564D01*
G03X14135Y19967I2512J-4D01*
G03X16189Y16318I7544J1844D01*
G01X16318Y16189D01*
G02X16963Y14633I-1555J-1556D01*
G01Y10059D01*
G03X17042Y9463I2261J-4D01*
G03X17442Y8610I2655J725D01*
G02X18006Y6808I-2551J-1788D01*
G01X17988Y2263D01*
X18051Y2200D01*
G01X13878Y94076D02*
G02X13425Y92975I-2587J421D01*
G01X10723Y90273D01*
G03X9814Y88904I2924J-2928D01*
G03X9700Y88314I1452J-587D01*
G01Y79266D01*
G03X13567Y68023I18278J0D01*
G01X15906Y65025D01*
G02X17068Y63058I-6979J-5450D01*
G02X17750Y59705I-7891J-3351D01*
G01Y22024D01*
G03X19270Y18321I5269J0D01*
G02X20750Y14712I-3657J-3608D01*
G01Y11388D01*
G03X20864Y10798I1572J-2D01*
G03X21965Y9136I4637J1876D01*
G01X24551Y6550D01*
G02X24941Y5608I-943J-942D01*
G01X44233Y2200D02*
X44255Y2222D01*
Y8906D01*
G03X43516Y10689I-2522J-1D01*
G01X42934Y11271D01*
G02X42055Y13393I2122J2122D01*
G01Y15365D01*
G03X41176Y17487I-3001J0D01*
G01X35821Y22842D01*
G02X35645Y23267I425J425D01*
G01Y62165D01*
G03X33371Y68643I-10364J0D01*
G01X28874Y74260D01*
G02X28450Y75467I1507J1207D01*
G01Y78646D01*
G02X29329Y80768I3001J0D01*
G01X29541Y80980D01*
G03X31000Y84502I-3522J3522D01*
G01Y86865D01*
G02X31879Y88987I3001J0D01*
G01X32799Y89907D01*
G03X33192Y90855I-947J948D01*
G01Y97463D01*
X33170Y97485D01*
G54D16*
G01X26319Y2200D02*
X26344Y2225D01*
G03X27341Y4631I-2405J2406D01*
G01Y5581D01*
G03X26518Y7568I-2810J0D01*
G01X25315Y8771D01*
G02X23850Y12308I3537J3537D01*
G01Y14890D01*
G03X22570Y17980I-4370J0D01*
G01X22430Y18120D01*
G02X21150Y21210I3090J3090D01*
G01Y60029D01*
G03X19355Y65137I-8161J2D01*
G01X16140Y69144D01*
G02X12750Y78788I12020J9643D01*
G01Y88036D01*
G02X13665Y90245I3124J0D01*
G01X15573Y92153D01*
G03X16278Y93855I-1702J1702D01*
G01Y95092D01*
G03X15308Y97433I-3310J0D01*
G01X15256Y97485D01*
G01X33087Y5163D02*
Y7915D01*
G03X32599Y9093I-1666J0D01*
G01X32488Y9204D01*
G02X32000Y10383I1180J1179D01*
G01Y15074D01*
G03X31199Y17007I-2733J0D01*
G01X29153Y19053D01*
G02X28245Y21244I2191J2192D01*
G01Y60109D01*
G03X26344Y65523I-8657J1D01*
G01X21779Y71219D01*
G02X20900Y73721I3121J2502D01*
G01Y88452D01*
G02X21394Y89644I1685J0D01*
G01X21506Y89756D01*
G03X22000Y90948I-1191J1192D01*
G01Y95250D01*
G01X40250Y4700D02*
Y14935D01*
G03X39596Y16514I-2233J0D01*
G01X34302Y21808D01*
G02X33845Y22911I1103J1103D01*
G01Y61003D01*
G03X31241Y68420I-11865J0D01*
G01X27032Y73675D01*
G02X26550Y75049I1716J1373D01*
G01Y79113D01*
G02X27722Y81942I4000J0D01*
G01X28424Y82644D01*
G03X29159Y84419I-1776J1775D01*
G01Y94291D01*
M02*
