G04 ================== begin FILE IDENTIFICATION RECORD ==================*
G04 Layout Name:  D:/Project/31_HUASHAN_FPC/Output/SP1HSFLB.brd*
G04 Film Name:    barcodebotm*
G04 File Format:  Gerber RS274X*
G04 File Origin:  Cadence Allegro 17.2-S053*
G04 Origin Date:  Fri Mar 12 13:39:14 2021*
G04 *
G04 Layer:  RIGID FLEX/BARCODE_BOTTOM*
G04 Layer:  BOARD GEOMETRY/OUTLINE*
G04 *
G04 Offset:    (0.00 0.00)*
G04 Mirror:    No*
G04 Mode:      Positive*
G04 Rotation:  0*
G04 FullContactRelief:  No*
G04 UndefLineWidth:     6.00*
G04 ================== end FILE IDENTIFICATION RECORD ====================*
%FSLAX25Y25*MOIN*%
%IR0*IPPOS*OFA0.00000B0.00000*MIA0B0*SFA1.00000B1.00000*%
%ADD10C,.0004*%
%ADD11C,.006*%
G75*
%LPD*%
G75*
G36*
G01X32900Y38600D02*
Y52600D01*
X18900D01*
Y38600D01*
X32900D01*
G37*
G54D10*
G01X1969Y99685D02*
G03X0Y97716I0J-1969D01*
G01Y75479D01*
G03X867Y73014I3937J0D01*
G01X11063Y60314D01*
Y1968D01*
G03X13032Y0I1968J0D01*
G01X49252D01*
G03X51221Y1968I1J1968D01*
G01Y52413D01*
G03X53169Y55811I-1989J3397D01*
G01Y76035D01*
G03X49232Y79972I-3937J0D01*
G01X40158D01*
Y97716D01*
G03X38189Y99685I-1969J0D01*
G01X1969D01*
G54D11*
G01X190460Y-37867D02*
X189460Y-38700D01*
X188335Y-39200D01*
X187335D01*
X186335Y-38700D01*
X185585Y-37867D01*
X185210Y-36700D01*
X185460Y-35534D01*
X186085Y-34533D01*
X187210Y-33867D01*
X188710Y-33533D01*
X189585Y-32867D01*
X189960Y-31700D01*
X189710Y-30533D01*
X189085Y-29700D01*
X188210Y-29200D01*
X187335D01*
X186460Y-29533D01*
X185710Y-30367D01*
G01X180335Y-39200D02*
Y-29200D01*
X177335D01*
X176335Y-29700D01*
X175585Y-30867D01*
X175335Y-32200D01*
X175585Y-33533D01*
X176210Y-34533D01*
X177335Y-35034D01*
X180335D01*
G01X167835Y-39200D02*
Y-29200D01*
X169335Y-31200D01*
G01Y-39200D02*
X166335D01*
G01X160460D02*
Y-29200D01*
G01X155210D02*
Y-39200D01*
G01Y-34200D02*
X160460D01*
G01X150460Y-37867D02*
X149460Y-38700D01*
X148335Y-39200D01*
X147335D01*
X146335Y-38700D01*
X145585Y-37867D01*
X145210Y-36700D01*
X145460Y-35534D01*
X146085Y-34533D01*
X147210Y-33867D01*
X148710Y-33533D01*
X149585Y-32867D01*
X149960Y-31700D01*
X149710Y-30533D01*
X149085Y-29700D01*
X148210Y-29200D01*
X147335D01*
X146460Y-29533D01*
X145710Y-30367D01*
G01X140210Y-39200D02*
Y-29200D01*
X135460D01*
G01X137210Y-34033D02*
X140210D01*
G01X130335Y-29200D02*
Y-39200D01*
X125335D01*
G01X116835Y-33867D02*
X116335Y-33367D01*
X115960Y-32534D01*
X115710Y-31367D01*
X115960Y-30367D01*
X116460Y-29700D01*
X117335Y-29200D01*
X120710D01*
Y-39200D01*
X116585D01*
X115710Y-38533D01*
X115210Y-37533D01*
X114960Y-36367D01*
X115210Y-35200D01*
X115960Y-34200D01*
X116835Y-33867D01*
X120710D01*
G01X100960Y-29200D02*
X97835Y-39200D01*
X94710Y-29200D01*
G01X85335Y-39200D02*
X90335D01*
Y-29200D01*
X85335D01*
G01X87335Y-34033D02*
X90335D01*
G01X80335Y-39200D02*
Y-29200D01*
X77210D01*
X76210Y-29700D01*
X75585Y-30367D01*
X75335Y-31700D01*
X75585Y-33033D01*
X76335Y-33867D01*
X77210Y-34367D01*
X80335D01*
G01X77210D02*
X75335Y-39200D01*
G01X67835Y-39533D02*
X68085Y-39367D01*
Y-39033D01*
X67835Y-38867D01*
X67585Y-39033D01*
Y-39367D01*
X67835Y-39533D01*
G01X60960Y-39200D02*
X57835Y-29200D01*
X54710Y-39200D01*
G01X55835Y-35700D02*
X59835D01*
G01X36835Y-33867D02*
X36335Y-33367D01*
X35960Y-32534D01*
X35710Y-31367D01*
X35960Y-30367D01*
X36460Y-29700D01*
X37335Y-29200D01*
X40710D01*
Y-39200D01*
X36585D01*
X35710Y-38533D01*
X35210Y-37533D01*
X34960Y-36367D01*
X35210Y-35200D01*
X35960Y-34200D01*
X36835Y-33867D01*
X40710D01*
G01X30960Y-39200D02*
X27835Y-29200D01*
X24710Y-39200D01*
G01X25835Y-35700D02*
X29835D01*
G01X20335Y-39200D02*
Y-29200D01*
X17210D01*
X16210Y-29700D01*
X15585Y-30367D01*
X15335Y-31700D01*
X15585Y-33033D01*
X16335Y-33867D01*
X17210Y-34367D01*
X20335D01*
G01X17210D02*
X15335Y-39200D01*
G01X5085Y-30033D02*
X5835Y-29533D01*
X6710Y-29200D01*
X7710D01*
X8835Y-29700D01*
X9710Y-30533D01*
X10335Y-31533D01*
X10835Y-33200D01*
X10960Y-34700D01*
X10710Y-36200D01*
X10335Y-37200D01*
X9585Y-38200D01*
X8710Y-38867D01*
X7835Y-39200D01*
X6960D01*
X6085Y-38867D01*
X5335Y-38367D01*
X4710Y-37700D01*
G01X-2165Y-39200D02*
X-1165Y-39033D01*
X-290Y-38367D01*
X460Y-37367D01*
X960Y-36200D01*
X1210Y-34867D01*
Y-33533D01*
X960Y-32200D01*
X460Y-31033D01*
X-290Y-30033D01*
X-1165Y-29367D01*
X-2165Y-29200D01*
X-3165Y-29367D01*
X-4040Y-30033D01*
X-4790Y-31033D01*
X-5290Y-32200D01*
X-5540Y-33533D01*
Y-34867D01*
X-5290Y-36200D01*
X-4790Y-37367D01*
X-4040Y-38367D01*
X-3165Y-39033D01*
X-2165Y-39200D01*
G01X-9415D02*
Y-29200D01*
X-11915D01*
X-12915Y-29700D01*
X-13665Y-30367D01*
X-14290Y-31367D01*
X-14790Y-32534D01*
X-14915Y-34200D01*
X-14790Y-35867D01*
X-14290Y-37033D01*
X-13665Y-38034D01*
X-12915Y-38700D01*
X-11915Y-39200D01*
X-9415D01*
G01X-24665D02*
X-19665D01*
Y-29200D01*
X-24665D01*
G01X-22665Y-34033D02*
X-19665D01*
G01X-43165Y-33867D02*
X-43665Y-33367D01*
X-44040Y-32534D01*
X-44290Y-31367D01*
X-44040Y-30367D01*
X-43540Y-29700D01*
X-42665Y-29200D01*
X-39290D01*
Y-39200D01*
X-43415D01*
X-44290Y-38533D01*
X-44790Y-37533D01*
X-45040Y-36367D01*
X-44790Y-35200D01*
X-44040Y-34200D01*
X-43165Y-33867D01*
X-39290D01*
G01X-52165Y-39200D02*
X-51165Y-39033D01*
X-50290Y-38367D01*
X-49540Y-37367D01*
X-49040Y-36200D01*
X-48790Y-34867D01*
Y-33533D01*
X-49040Y-32200D01*
X-49540Y-31033D01*
X-50290Y-30033D01*
X-51165Y-29367D01*
X-52165Y-29200D01*
X-53165Y-29367D01*
X-54040Y-30033D01*
X-54790Y-31033D01*
X-55290Y-32200D01*
X-55540Y-33533D01*
Y-34867D01*
X-55290Y-36200D01*
X-54790Y-37367D01*
X-54040Y-38367D01*
X-53165Y-39033D01*
X-52165Y-39200D01*
G01X-62165Y-29200D02*
Y-39200D01*
G01X-59290Y-29200D02*
X-65040D01*
G01X-72165D02*
Y-39200D01*
G01X-69290Y-29200D02*
X-75040D01*
G01X-82165Y-39200D02*
X-81165Y-39033D01*
X-80290Y-38367D01*
X-79540Y-37367D01*
X-79040Y-36200D01*
X-78790Y-34867D01*
Y-33533D01*
X-79040Y-32200D01*
X-79540Y-31033D01*
X-80290Y-30033D01*
X-81165Y-29367D01*
X-82165Y-29200D01*
X-83165Y-29367D01*
X-84040Y-30033D01*
X-84790Y-31033D01*
X-85290Y-32200D01*
X-85540Y-33533D01*
Y-34867D01*
X-85290Y-36200D01*
X-84790Y-37367D01*
X-84040Y-38367D01*
X-83165Y-39033D01*
X-82165Y-39200D01*
G01X-88915D02*
Y-29200D01*
X-92165Y-37533D01*
X-95415Y-29200D01*
Y-39200D01*
M02*
