G04 ================== begin FILE IDENTIFICATION RECORD ==================*
G04 Layout Name:  D:/Project/31_HUASHAN_FPC/Output/SP1HSFLB.brd*
G04 Film Name:    lpitop*
G04 File Format:  Gerber RS274X*
G04 File Origin:  Cadence Allegro 17.2-S053*
G04 Origin Date:  Fri Mar 12 13:39:14 2021*
G04 *
G04 Layer:  RIGID FLEX/LPI_TOP*
G04 Layer:  BOARD GEOMETRY/OUTLINE*
G04 *
G04 Offset:    (0.00 0.00)*
G04 Mirror:    No*
G04 Mode:      Positive*
G04 Rotation:  0*
G04 FullContactRelief:  No*
G04 UndefLineWidth:     6.00*
G04 ================== end FILE IDENTIFICATION RECORD ====================*
%FSLAX25Y25*MOIN*%
%IR0*IPPOS*OFA0.00000B0.00000*MIA0B0*SFA1.00000B1.00000*%
%ADD10C,.0004*%
%ADD11C,.006*%
%ADD12R,.273X.017*%
G75*
%LPD*%
G75*
G36*
G01X991Y98776D02*
X39167D01*
Y86262D01*
X991D01*
Y98776D01*
G37*
G36*
G01X12054Y13422D02*
X50230D01*
Y908D01*
X12054D01*
Y13422D01*
G37*
%LPC*%
G75*
G36*
G01X3918Y90649D02*
X4194Y90924D01*
X5296D01*
Y89822D01*
X3918D01*
Y90649D01*
G37*
G36*
G01X34862Y89822D02*
Y90924D01*
X35964D01*
X36240Y90649D01*
Y89822D01*
X34862D01*
G37*
G36*
G01X3091Y91102D02*
Y93936D01*
X3917D01*
X4193Y93660D01*
Y91385D01*
X3910Y91102D01*
X3091D01*
G37*
G36*
G01X35965Y93660D02*
X36241Y93936D01*
X37067D01*
Y91102D01*
X36248D01*
X35965Y91385D01*
Y93660D01*
G37*
G36*
G01X3918Y94389D02*
Y95216D01*
X5296D01*
Y94114D01*
X4194D01*
X3918Y94389D01*
G37*
G36*
G01X34862Y94114D02*
Y95216D01*
X36240D01*
Y94389D01*
X35964Y94114D01*
X34862D01*
G37*
G36*
G01X45925Y8760D02*
Y9862D01*
X47303D01*
Y9035D01*
X47027Y8760D01*
X45925D01*
G37*
G36*
G01X14981Y9035D02*
Y9862D01*
X16359D01*
Y8760D01*
X15257D01*
X14981Y9035D01*
G37*
G36*
G01X47028Y8306D02*
X47304Y8582D01*
X48130D01*
Y5748D01*
X47311D01*
X47028Y6031D01*
Y8306D01*
G37*
G36*
G01X14154Y5748D02*
Y8582D01*
X14980D01*
X15256Y8306D01*
Y6031D01*
X14973Y5748D01*
X14154D01*
G37*
G36*
G01X45925Y4468D02*
Y5570D01*
X47027D01*
X47303Y5295D01*
Y4468D01*
X45925D01*
G37*
G36*
G01X14981Y5295D02*
X15257Y5570D01*
X16359D01*
Y4468D01*
X14981D01*
Y5295D01*
G37*
G54D12*
X20079Y89212D03*
Y95826D03*
X31142Y10472D03*
Y3858D03*
%LPD*%
G75*
G54D10*
G01X1969Y99685D02*
G03X0Y97716I0J-1969D01*
G01Y75479D01*
G03X867Y73014I3937J0D01*
G01X11063Y60314D01*
Y1968D01*
G03X13032Y0I1968J0D01*
G01X49252D01*
G03X51221Y1968I1J1968D01*
G01Y52413D01*
G03X53169Y55811I-1989J3397D01*
G01Y76035D01*
G03X49232Y79972I-3937J0D01*
G01X40158D01*
Y97716D01*
G03X38189Y99685I-1969J0D01*
G01X1969D01*
G54D11*
G01X-112291Y-37867D02*
X-111291Y-38700D01*
X-110166Y-39200D01*
X-109166D01*
X-108166Y-38700D01*
X-107416Y-37867D01*
X-107041Y-36700D01*
X-107291Y-35534D01*
X-107916Y-34533D01*
X-109041Y-33867D01*
X-110541Y-33533D01*
X-111416Y-32867D01*
X-111791Y-31700D01*
X-111541Y-30533D01*
X-110916Y-29700D01*
X-110041Y-29200D01*
X-109166D01*
X-108291Y-29533D01*
X-107541Y-30367D01*
G01X-102166Y-39200D02*
Y-29200D01*
X-99166D01*
X-98166Y-29700D01*
X-97416Y-30867D01*
X-97166Y-32200D01*
X-97416Y-33533D01*
X-98041Y-34533D01*
X-99166Y-35034D01*
X-102166D01*
G01X-89666Y-39200D02*
Y-29200D01*
X-91166Y-31200D01*
G01Y-39200D02*
X-88166D01*
G01X-82291D02*
Y-29200D01*
G01X-77041D02*
Y-39200D01*
G01Y-34200D02*
X-82291D01*
G01X-72291Y-37867D02*
X-71291Y-38700D01*
X-70166Y-39200D01*
X-69166D01*
X-68166Y-38700D01*
X-67416Y-37867D01*
X-67041Y-36700D01*
X-67291Y-35534D01*
X-67916Y-34533D01*
X-69041Y-33867D01*
X-70541Y-33533D01*
X-71416Y-32867D01*
X-71791Y-31700D01*
X-71541Y-30533D01*
X-70916Y-29700D01*
X-70041Y-29200D01*
X-69166D01*
X-68291Y-29533D01*
X-67541Y-30367D01*
G01X-62041Y-39200D02*
Y-29200D01*
X-57291D01*
G01X-59041Y-34033D02*
X-62041D01*
G01X-52166Y-29200D02*
Y-39200D01*
X-47166D01*
G01X-38666Y-33867D02*
X-38166Y-33367D01*
X-37791Y-32534D01*
X-37541Y-31367D01*
X-37791Y-30367D01*
X-38291Y-29700D01*
X-39166Y-29200D01*
X-42541D01*
Y-39200D01*
X-38416D01*
X-37541Y-38533D01*
X-37041Y-37533D01*
X-36791Y-36367D01*
X-37041Y-35200D01*
X-37791Y-34200D01*
X-38666Y-33867D01*
X-42541D01*
G01X-22791Y-29200D02*
X-19666Y-39200D01*
X-16541Y-29200D01*
G01X-7166Y-39200D02*
X-12166D01*
Y-29200D01*
X-7166D01*
G01X-9166Y-34033D02*
X-12166D01*
G01X-2166Y-39200D02*
Y-29200D01*
X959D01*
X1959Y-29700D01*
X2584Y-30367D01*
X2834Y-31700D01*
X2584Y-33033D01*
X1834Y-33867D01*
X959Y-34367D01*
X-2166D01*
G01X959D02*
X2834Y-39200D01*
G01X10334Y-39533D02*
X10084Y-39367D01*
Y-39033D01*
X10334Y-38867D01*
X10584Y-39033D01*
Y-39367D01*
X10334Y-39533D01*
G01X17209Y-39200D02*
X20334Y-29200D01*
X23459Y-39200D01*
G01X22334Y-35700D02*
X18334D01*
G01X37834Y-29200D02*
Y-39200D01*
X42834D01*
G01X47834D02*
Y-29200D01*
X50834D01*
X51834Y-29700D01*
X52584Y-30867D01*
X52834Y-32200D01*
X52584Y-33533D01*
X51959Y-34533D01*
X50834Y-35034D01*
X47834D01*
G01X58834Y-29200D02*
X61834D01*
G01X60334D02*
Y-39200D01*
G01X58834D02*
X61834D01*
G01X80334Y-29200D02*
Y-39200D01*
G01X77459Y-29200D02*
X83209D01*
G01X90334Y-39200D02*
X89334Y-39033D01*
X88459Y-38367D01*
X87709Y-37367D01*
X87209Y-36200D01*
X86959Y-34867D01*
Y-33533D01*
X87209Y-32200D01*
X87709Y-31033D01*
X88459Y-30033D01*
X89334Y-29367D01*
X90334Y-29200D01*
X91334Y-29367D01*
X92209Y-30033D01*
X92959Y-31033D01*
X93459Y-32200D01*
X93709Y-33533D01*
Y-34867D01*
X93459Y-36200D01*
X92959Y-37367D01*
X92209Y-38367D01*
X91334Y-39033D01*
X90334Y-39200D01*
G01X97834D02*
Y-29200D01*
X100834D01*
X101834Y-29700D01*
X102584Y-30867D01*
X102834Y-32200D01*
X102584Y-33533D01*
X101959Y-34533D01*
X100834Y-35034D01*
X97834D01*
M02*
