G04 ================== begin FILE IDENTIFICATION RECORD ==================*
G04 Layout Name:  D:/Project/31_HUASHAN_FPC/Output/SP1HSFLB.brd*
G04 Film Name:    shieldtop*
G04 File Format:  Gerber RS274X*
G04 File Origin:  Cadence Allegro 17.2-S053*
G04 Origin Date:  Fri Mar 12 13:39:14 2021*
G04 *
G04 Layer:  RIGID FLEX/EMI_SHIELD_TOP*
G04 Layer:  BOARD GEOMETRY/OUTLINE*
G04 *
G04 Offset:    (0.00 0.00)*
G04 Mirror:    No*
G04 Mode:      Positive*
G04 Rotation:  0*
G04 FullContactRelief:  No*
G04 UndefLineWidth:     6.00*
G04 ================== end FILE IDENTIFICATION RECORD ====================*
%FSLAX25Y25*MOIN*%
%IR0*IPPOS*OFA0.00000B0.00000*MIA0B0*SFA1.00000B1.00000*%
%ADD10C,.0004*%
%ADD11C,.006*%
G75*
%LPD*%
G75*
G36*
G01X0Y82354D02*
X40158D01*
Y79972D01*
X49232D01*
G02X53169Y76035I0J-3937D01*
G01Y55810D01*
G02X51221Y52413I-3937J0D01*
G01Y17331D01*
X11063D01*
Y60314D01*
X867Y73014D01*
G02X0Y75479I3070J2465D01*
G01Y82354D01*
G37*
G54D10*
G01X1969Y99685D02*
G03X0Y97716I0J-1969D01*
G01Y75479D01*
G03X867Y73014I3937J0D01*
G01X11063Y60314D01*
Y1968D01*
G03X13032Y0I1968J0D01*
G01X49252D01*
G03X51221Y1968I1J1968D01*
G01Y52413D01*
G03X53169Y55811I-1989J3397D01*
G01Y76035D01*
G03X49232Y79972I-3937J0D01*
G01X40158D01*
Y97716D01*
G03X38189Y99685I-1969J0D01*
G01X1969D01*
G54D11*
G01X-112291Y-37867D02*
X-111291Y-38700D01*
X-110166Y-39200D01*
X-109166D01*
X-108166Y-38700D01*
X-107416Y-37867D01*
X-107041Y-36700D01*
X-107291Y-35534D01*
X-107916Y-34533D01*
X-109041Y-33867D01*
X-110541Y-33533D01*
X-111416Y-32867D01*
X-111791Y-31700D01*
X-111541Y-30533D01*
X-110916Y-29700D01*
X-110041Y-29200D01*
X-109166D01*
X-108291Y-29533D01*
X-107541Y-30367D01*
G01X-102166Y-39200D02*
Y-29200D01*
X-99166D01*
X-98166Y-29700D01*
X-97416Y-30867D01*
X-97166Y-32200D01*
X-97416Y-33533D01*
X-98041Y-34533D01*
X-99166Y-35034D01*
X-102166D01*
G01X-89666Y-39200D02*
Y-29200D01*
X-91166Y-31200D01*
G01Y-39200D02*
X-88166D01*
G01X-82291D02*
Y-29200D01*
G01X-77041D02*
Y-39200D01*
G01Y-34200D02*
X-82291D01*
G01X-72291Y-37867D02*
X-71291Y-38700D01*
X-70166Y-39200D01*
X-69166D01*
X-68166Y-38700D01*
X-67416Y-37867D01*
X-67041Y-36700D01*
X-67291Y-35534D01*
X-67916Y-34533D01*
X-69041Y-33867D01*
X-70541Y-33533D01*
X-71416Y-32867D01*
X-71791Y-31700D01*
X-71541Y-30533D01*
X-70916Y-29700D01*
X-70041Y-29200D01*
X-69166D01*
X-68291Y-29533D01*
X-67541Y-30367D01*
G01X-62041Y-39200D02*
Y-29200D01*
X-57291D01*
G01X-59041Y-34033D02*
X-62041D01*
G01X-52166Y-29200D02*
Y-39200D01*
X-47166D01*
G01X-38666Y-33867D02*
X-38166Y-33367D01*
X-37791Y-32534D01*
X-37541Y-31367D01*
X-37791Y-30367D01*
X-38291Y-29700D01*
X-39166Y-29200D01*
X-42541D01*
Y-39200D01*
X-38416D01*
X-37541Y-38533D01*
X-37041Y-37533D01*
X-36791Y-36367D01*
X-37041Y-35200D01*
X-37791Y-34200D01*
X-38666Y-33867D01*
X-42541D01*
G01X-22791Y-29200D02*
X-19666Y-39200D01*
X-16541Y-29200D01*
G01X-7166Y-39200D02*
X-12166D01*
Y-29200D01*
X-7166D01*
G01X-9166Y-34033D02*
X-12166D01*
G01X-2166Y-39200D02*
Y-29200D01*
X959D01*
X1959Y-29700D01*
X2584Y-30367D01*
X2834Y-31700D01*
X2584Y-33033D01*
X1834Y-33867D01*
X959Y-34367D01*
X-2166D01*
G01X959D02*
X2834Y-39200D01*
G01X10334Y-39533D02*
X10084Y-39367D01*
Y-39033D01*
X10334Y-38867D01*
X10584Y-39033D01*
Y-39367D01*
X10334Y-39533D01*
G01X17209Y-39200D02*
X20334Y-29200D01*
X23459Y-39200D01*
G01X22334Y-35700D02*
X18334D01*
G01X37709Y-37867D02*
X38709Y-38700D01*
X39834Y-39200D01*
X40834D01*
X41834Y-38700D01*
X42584Y-37867D01*
X42959Y-36700D01*
X42709Y-35534D01*
X42084Y-34533D01*
X40959Y-33867D01*
X39459Y-33533D01*
X38584Y-32867D01*
X38209Y-31700D01*
X38459Y-30533D01*
X39084Y-29700D01*
X39959Y-29200D01*
X40834D01*
X41709Y-29533D01*
X42459Y-30367D01*
G01X47709Y-39200D02*
Y-29200D01*
G01X52959D02*
Y-39200D01*
G01Y-34200D02*
X47709D01*
G01X58834Y-29200D02*
X61834D01*
G01X60334D02*
Y-39200D01*
G01X58834D02*
X61834D01*
G01X72834D02*
X67834D01*
Y-29200D01*
X72834D01*
G01X70834Y-34033D02*
X67834D01*
G01X77834Y-29200D02*
Y-39200D01*
X82834D01*
G01X87584D02*
Y-29200D01*
X90084D01*
X91084Y-29700D01*
X91834Y-30367D01*
X92459Y-31367D01*
X92959Y-32534D01*
X93084Y-34200D01*
X92959Y-35867D01*
X92459Y-37033D01*
X91834Y-38034D01*
X91084Y-38700D01*
X90084Y-39200D01*
X87584D01*
G01X110334Y-29200D02*
Y-39200D01*
G01X107459Y-29200D02*
X113209D01*
G01X120334Y-39200D02*
X119334Y-39033D01*
X118459Y-38367D01*
X117709Y-37367D01*
X117209Y-36200D01*
X116959Y-34867D01*
Y-33533D01*
X117209Y-32200D01*
X117709Y-31033D01*
X118459Y-30033D01*
X119334Y-29367D01*
X120334Y-29200D01*
X121334Y-29367D01*
X122209Y-30033D01*
X122959Y-31033D01*
X123459Y-32200D01*
X123709Y-33533D01*
Y-34867D01*
X123459Y-36200D01*
X122959Y-37367D01*
X122209Y-38367D01*
X121334Y-39033D01*
X120334Y-39200D01*
G01X127834D02*
Y-29200D01*
X130834D01*
X131834Y-29700D01*
X132584Y-30867D01*
X132834Y-32200D01*
X132584Y-33533D01*
X131959Y-34533D01*
X130834Y-35034D01*
X127834D01*
M02*
