G04 ================== begin FILE IDENTIFICATION RECORD ==================*
G04 Layout Name:  D:/Project/31_HUASHAN_FPC/Output/SP1HSFLB.brd*
G04 Film Name:    stiffenerbotm*
G04 File Format:  Gerber RS274X*
G04 File Origin:  Cadence Allegro 17.2-S053*
G04 Origin Date:  Fri Mar 12 13:39:14 2021*
G04 *
G04 Layer:  RIGID FLEX/STIFFENER_BOTTOM*
G04 Layer:  BOARD GEOMETRY/OUTLINE*
G04 *
G04 Offset:    (0.00 0.00)*
G04 Mirror:    No*
G04 Mode:      Positive*
G04 Rotation:  0*
G04 FullContactRelief:  No*
G04 UndefLineWidth:     6.00*
G04 ================== end FILE IDENTIFICATION RECORD ====================*
%FSLAX25Y25*MOIN*%
%IR0*IPPOS*OFA0.00000B0.00000*MIA0B0*SFA1.00000B1.00000*%
%ADD10C,.0004*%
%ADD11C,.006*%
G75*
%LPD*%
G75*
G36*
G01X1969Y99094D02*
G03X592Y97716I1J-1378D01*
G01Y85354D01*
X39568D01*
Y97716D01*
G03X38190Y99094I-1378J0D01*
G01X1969D01*
G37*
G36*
G01X11655Y1968D02*
G03X13032Y590I1378J0D01*
G01X49253D01*
G03X50631Y1968I0J1378D01*
G01Y14331D01*
X11655D01*
Y1968D01*
G37*
G54D10*
G01X1969Y99685D02*
G03X0Y97716I0J-1969D01*
G01Y75479D01*
G03X867Y73014I3937J0D01*
G01X11063Y60314D01*
Y1968D01*
G03X13032Y0I1968J0D01*
G01X49252D01*
G03X51221Y1968I1J1968D01*
G01Y52413D01*
G03X53169Y55811I-1989J3397D01*
G01Y76035D01*
G03X49232Y79972I-3937J0D01*
G01X40158D01*
Y97716D01*
G03X38189Y99685I-1969J0D01*
G01X1969D01*
G54D11*
G01X190460Y-37867D02*
X189460Y-38700D01*
X188335Y-39200D01*
X187335D01*
X186335Y-38700D01*
X185585Y-37867D01*
X185210Y-36700D01*
X185460Y-35534D01*
X186085Y-34533D01*
X187210Y-33867D01*
X188710Y-33533D01*
X189585Y-32867D01*
X189960Y-31700D01*
X189710Y-30533D01*
X189085Y-29700D01*
X188210Y-29200D01*
X187335D01*
X186460Y-29533D01*
X185710Y-30367D01*
G01X180335Y-39200D02*
Y-29200D01*
X177335D01*
X176335Y-29700D01*
X175585Y-30867D01*
X175335Y-32200D01*
X175585Y-33533D01*
X176210Y-34533D01*
X177335Y-35034D01*
X180335D01*
G01X167835Y-39200D02*
Y-29200D01*
X169335Y-31200D01*
G01Y-39200D02*
X166335D01*
G01X160460D02*
Y-29200D01*
G01X155210D02*
Y-39200D01*
G01Y-34200D02*
X160460D01*
G01X150460Y-37867D02*
X149460Y-38700D01*
X148335Y-39200D01*
X147335D01*
X146335Y-38700D01*
X145585Y-37867D01*
X145210Y-36700D01*
X145460Y-35534D01*
X146085Y-34533D01*
X147210Y-33867D01*
X148710Y-33533D01*
X149585Y-32867D01*
X149960Y-31700D01*
X149710Y-30533D01*
X149085Y-29700D01*
X148210Y-29200D01*
X147335D01*
X146460Y-29533D01*
X145710Y-30367D01*
G01X140210Y-39200D02*
Y-29200D01*
X135460D01*
G01X137210Y-34033D02*
X140210D01*
G01X130335Y-29200D02*
Y-39200D01*
X125335D01*
G01X116835Y-33867D02*
X116335Y-33367D01*
X115960Y-32534D01*
X115710Y-31367D01*
X115960Y-30367D01*
X116460Y-29700D01*
X117335Y-29200D01*
X120710D01*
Y-39200D01*
X116585D01*
X115710Y-38533D01*
X115210Y-37533D01*
X114960Y-36367D01*
X115210Y-35200D01*
X115960Y-34200D01*
X116835Y-33867D01*
X120710D01*
G01X100960Y-29200D02*
X97835Y-39200D01*
X94710Y-29200D01*
G01X85335Y-39200D02*
X90335D01*
Y-29200D01*
X85335D01*
G01X87335Y-34033D02*
X90335D01*
G01X80335Y-39200D02*
Y-29200D01*
X77210D01*
X76210Y-29700D01*
X75585Y-30367D01*
X75335Y-31700D01*
X75585Y-33033D01*
X76335Y-33867D01*
X77210Y-34367D01*
X80335D01*
G01X77210D02*
X75335Y-39200D01*
G01X67835Y-39533D02*
X68085Y-39367D01*
Y-39033D01*
X67835Y-38867D01*
X67585Y-39033D01*
Y-39367D01*
X67835Y-39533D01*
G01X60960Y-39200D02*
X57835Y-29200D01*
X54710Y-39200D01*
G01X55835Y-35700D02*
X59835D01*
G01X40460Y-37867D02*
X39460Y-38700D01*
X38335Y-39200D01*
X37335D01*
X36335Y-38700D01*
X35585Y-37867D01*
X35210Y-36700D01*
X35460Y-35534D01*
X36085Y-34533D01*
X37210Y-33867D01*
X38710Y-33533D01*
X39585Y-32867D01*
X39960Y-31700D01*
X39710Y-30533D01*
X39085Y-29700D01*
X38210Y-29200D01*
X37335D01*
X36460Y-29533D01*
X35710Y-30367D01*
G01X27835Y-29200D02*
Y-39200D01*
G01X30710Y-29200D02*
X24960D01*
G01X19335D02*
X16335D01*
G01X17835D02*
Y-39200D01*
G01X19335D02*
X16335D01*
G01X10210D02*
Y-29200D01*
X5460D01*
G01X7210Y-34033D02*
X10210D01*
G01X210Y-39200D02*
Y-29200D01*
X-4540D01*
G01X-2790Y-34033D02*
X210D01*
G01X-14665Y-39200D02*
X-9665D01*
Y-29200D01*
X-14665D01*
G01X-12665Y-34033D02*
X-9665D01*
G01X-19290Y-39200D02*
Y-29200D01*
X-25040Y-39200D01*
Y-29200D01*
G01X-34665Y-39200D02*
X-29665D01*
Y-29200D01*
X-34665D01*
G01X-32665Y-34033D02*
X-29665D01*
G01X-39665Y-39200D02*
Y-29200D01*
X-42790D01*
X-43790Y-29700D01*
X-44415Y-30367D01*
X-44665Y-31700D01*
X-44415Y-33033D01*
X-43665Y-33867D01*
X-42790Y-34367D01*
X-39665D01*
G01X-42790D02*
X-44665Y-39200D01*
G01X-63165Y-33867D02*
X-63665Y-33367D01*
X-64040Y-32534D01*
X-64290Y-31367D01*
X-64040Y-30367D01*
X-63540Y-29700D01*
X-62665Y-29200D01*
X-59290D01*
Y-39200D01*
X-63415D01*
X-64290Y-38533D01*
X-64790Y-37533D01*
X-65040Y-36367D01*
X-64790Y-35200D01*
X-64040Y-34200D01*
X-63165Y-33867D01*
X-59290D01*
G01X-72165Y-39200D02*
X-71165Y-39033D01*
X-70290Y-38367D01*
X-69540Y-37367D01*
X-69040Y-36200D01*
X-68790Y-34867D01*
Y-33533D01*
X-69040Y-32200D01*
X-69540Y-31033D01*
X-70290Y-30033D01*
X-71165Y-29367D01*
X-72165Y-29200D01*
X-73165Y-29367D01*
X-74040Y-30033D01*
X-74790Y-31033D01*
X-75290Y-32200D01*
X-75540Y-33533D01*
Y-34867D01*
X-75290Y-36200D01*
X-74790Y-37367D01*
X-74040Y-38367D01*
X-73165Y-39033D01*
X-72165Y-39200D01*
G01X-82165Y-29200D02*
Y-39200D01*
G01X-79290Y-29200D02*
X-85040D01*
G01X-92165D02*
Y-39200D01*
G01X-89290Y-29200D02*
X-95040D01*
G01X-102165Y-39200D02*
X-101165Y-39033D01*
X-100290Y-38367D01*
X-99540Y-37367D01*
X-99040Y-36200D01*
X-98790Y-34867D01*
Y-33533D01*
X-99040Y-32200D01*
X-99540Y-31033D01*
X-100290Y-30033D01*
X-101165Y-29367D01*
X-102165Y-29200D01*
X-103165Y-29367D01*
X-104040Y-30033D01*
X-104790Y-31033D01*
X-105290Y-32200D01*
X-105540Y-33533D01*
Y-34867D01*
X-105290Y-36200D01*
X-104790Y-37367D01*
X-104040Y-38367D01*
X-103165Y-39033D01*
X-102165Y-39200D01*
G01X-108915D02*
Y-29200D01*
X-112165Y-37533D01*
X-115415Y-29200D01*
Y-39200D01*
M02*
