G04 ================== begin FILE IDENTIFICATION RECORD ==================*
G04 Layout Name:  SP1MORGANFLB.brd*
G04 Film Name:    art02*
G04 File Format:  Gerber RS274X*
G04 File Origin:  Cadence Allegro 17.2-S053*
G04 Origin Date:  Thu Mar 04 14:09:35 2021*
G04 *
G04 Layer:  VIA CLASS/BOTTOM*
G04 Layer:  PIN/BOTTOM*
G04 Layer:  ETCH/BOTTOM*
G04 Layer:  BOARD GEOMETRY/OUTLINE*
G04 *
G04 Offset:    (0.00 0.00)*
G04 Mirror:    No*
G04 Mode:      Positive*
G04 Rotation:  0*
G04 FullContactRelief:  No*
G04 UndefLineWidth:     6.00*
G04 ================== end FILE IDENTIFICATION RECORD ====================*
%FSLAX25Y25*MOIN*%
%IR0*IPPOS*OFA0.00000B0.00000*MIA0B0*SFA1.00000B1.00000*%
%AMMACRO22*
4,1,6,.01617,.00141,
.01107,.00652,
-.01107,.00652,
-.01617,.00141,
-.01617,-.00653,
.01617,-.00653,
.01617,.00141,
0.0*
%
%ADD22MACRO22*%
%ADD24R,.021X.007*%
%ADD14C,.014*%
%AMMACRO11*
4,1,5,.00585,.01006,
-.00894,.00745,
-.00585,-.01006,
.00508,-.00813,
.00826,-.00358,
.00585,.01006,
0.0*
%
%ADD11MACRO11*%
%AMMACRO10*
4,1,5,.00585,.01006,
-.00894,.00745,
-.00653,-.00619,
-.00199,-.00938,
.00894,-.00745,
.00585,.01006,
0.0*
%
%ADD10MACRO10*%
%AMMACRO21*
4,1,5,-.00751,-.00889,
.00751,-.00889,
.00751,.00889,
-.00359,.00889,
-.00751,.00496,
-.00751,-.00889,
0.0*
%
%ADD21MACRO21*%
%AMMACRO18*
4,1,5,-.00751,-.00889,
.00751,-.00889,
.00751,.00496,
.00359,.00889,
-.00751,.00889,
-.00751,-.00889,
0.0*
%
%ADD18MACRO18*%
%AMMACRO16*
4,1,5,-.00585,-.01006,
.00894,-.00745,
.00585,.01006,
-.00508,.00813,
-.00826,.00358,
-.00585,-.01006,
0.0*
%
%ADD16MACRO16*%
%AMMACRO15*
4,1,5,-.00585,-.01006,
.00894,-.00745,
.00653,.00619,
.00199,.00938,
-.00894,.00745,
-.00585,-.01006,
0.0*
%
%ADD15MACRO15*%
%AMMACRO12*
4,1,6,.01568,.0042,
.00977,.00834,
-.01203,.0045,
-.01617,-.00142,
-.01479,-.00924,
.01706,-.00362,
.01568,.0042,
0.0*
%
%ADD12MACRO12*%
%AMMACRO13*
21,1,.007,.021,0.0,0.0,100.*%
%ADD13MACRO13*%
%AMMACRO23*
4,1,6,-.01617,-.00141,
-.01107,-.00652,
.01107,-.00652,
.01617,-.00141,
.01617,.00653,
-.01617,.00653,
-.01617,-.00141,
0.0*
%
%ADD23MACRO23*%
%AMMACRO17*
4,1,6,-.01568,-.0042,
-.00977,-.00834,
.01203,-.0045,
.01617,.00142,
.01479,.00924,
-.01706,.00362,
-.01568,-.0042,
0.0*
%
%ADD17MACRO17*%
%AMMACRO20*
4,1,5,.00751,.00889,
-.00751,.00889,
-.00751,-.00889,
.00359,-.00889,
.00751,-.00496,
.00751,.00889,
0.0*
%
%ADD20MACRO20*%
%AMMACRO19*
4,1,5,.00751,.00889,
-.00751,.00889,
-.00751,-.00496,
-.00359,-.00889,
.00751,-.00889,
.00751,.00889,
0.0*
%
%ADD19MACRO19*%
%ADD25C,.0004*%
%ADD26C,.003*%
%ADD27C,.006*%
%ADD28C,.007*%
%ADD29C,.00298*%
G75*
%LPD*%
G75*
G36*
G01X526826Y937276D02*
X540875D01*
X555403Y937274D01*
G02X558404Y934373I-108J-3114D01*
G01Y888212D01*
G02X555605Y885352I-3126J260D01*
G01X554158Y885335D01*
X538109D01*
Y885336D01*
X527183D01*
Y885335D01*
X457984D01*
G03X453090Y883822I1J-8674D01*
G02X386450Y863223I-66641J97498D01*
G01X364795D01*
G02X318774Y872560I2J118095D01*
G03X313887Y873114I-3381J-7990D01*
G01X288159Y868577D01*
Y868578D01*
X244149Y860817D01*
G02X240478Y863359I-579J3085D01*
G01X232549Y908330D01*
G02X235014Y911947I3088J544D01*
G01X248351Y914299D01*
Y914301D01*
X287956Y921284D01*
G02X288159Y921248I52J-295D01*
G01Y921319D01*
X305443Y924367D01*
G02X338733Y920515I10185J-57756D01*
G03X364795Y915164I26064J60803D01*
G01X386449D01*
G03X424045Y926886I-1J66155D01*
G02X457371Y937276I33328J-48258D01*
G01X465503D01*
X526826Y937275D01*
Y937276D01*
G37*
%LPC*%
G75*
G36*
G01X544887Y936673D02*
X545186Y936970D01*
X555390D01*
X558079Y934284D01*
Y925115D01*
X557958Y924994D01*
Y923840D01*
X558053Y923745D01*
Y921735D01*
X556419Y920101D01*
X555523D01*
X555347Y919924D01*
X553509D01*
X553304Y919719D01*
Y919429D01*
X553509Y919224D01*
X554737D01*
X554798Y919163D01*
Y918607D01*
X554737Y918546D01*
X553509D01*
X553304Y918341D01*
Y918051D01*
X553509Y917846D01*
X554762D01*
X555380Y918464D01*
X555392Y918495D01*
Y918496D01*
G02X555423Y918571I1127J-422D01*
G02X555626Y918884I1099J-491D01*
G01X555628Y918887D01*
X555650Y918914D01*
G03X555676Y918937I-186J236D01*
G02X556522Y919284I846J-858D01*
G02X557258Y919033I0J-1205D01*
G01X557280Y919016D01*
G02X557726Y918080I-759J-936D01*
G02X557017Y916982I-1205J0D01*
G03X556941Y916786I62J-137D01*
G02X557041Y916306I-1104J-480D01*
G01Y916304D01*
G02X557032Y916158I-1204J1D01*
G03X557146Y915994I149J-18D01*
G02X558071Y914823I-279J-1171D01*
G02X557084Y913639I-1204J0D01*
G01X557030Y913629D01*
X556957Y913541D01*
X556961Y913481D01*
G02X556964Y913403I-1201J-85D01*
G02X556663Y912607I-1203J0D01*
G03X556775Y912358I113J-99D01*
G01X556903D01*
X557176Y912085D01*
X557211Y912074D01*
G02X558051Y910926I-364J-1148D01*
G02Y910916I-1205J-5D01*
G02Y910911I-1204J-2D01*
G02Y910906I-1204J-3D01*
G02X557772Y910136I-1204J1D01*
G01X557738Y910095D01*
X557737Y909899D01*
X557597Y909759D01*
G03X557599Y909332I212J-213D01*
G02X557961Y908472I-842J-861D01*
G02X557297Y907396I-1204J0D01*
G01X557214Y907354D01*
Y907046D01*
G02Y904878I-522J-1084D01*
G01Y904156D01*
X557297Y904115D01*
G02Y901961I-540J-1077D01*
G01X557214Y901920D01*
Y901337D01*
G02X557838Y900282I-580J-1055D01*
G02X557023Y899143I-1203J0D01*
G01X556922Y899108D01*
Y897414D01*
X556634Y897126D01*
Y896493D01*
X557344Y895783D01*
Y888630D01*
X555916Y887202D01*
X552314D01*
G03X552219Y887196I-3J-702D01*
G01X551599Y886142D01*
X551596Y886042D01*
Y886040D01*
X550879D01*
X550873Y886034D01*
X540850D01*
X540842Y886040D01*
X540806D01*
X540805Y886041D01*
X527685D01*
Y886040D01*
X515401D01*
X514960Y886480D01*
X514957Y886483D01*
X514951Y886490D01*
X514947Y886495D01*
G03X514880Y886562I-529J-462D01*
G01X514868Y886572D01*
X514708Y886732D01*
X514465D01*
G03X514387Y886733I-48J-699D01*
G01X514383D01*
X514369Y886732D01*
X462397D01*
X462396Y886736D01*
X457291D01*
X457262Y886735D01*
G03X457208Y886734I160J-10078D01*
G01X457027D01*
Y886720D01*
G03X456904Y886714I429J-10062D01*
G03X455060Y886435I578J-10055D01*
G03X454413Y886252I2416J-9777D01*
G03X454252Y886199I3069J-9593D01*
G01X454231Y886189D01*
X454222Y886187D01*
X454180Y886169D01*
X454168D01*
G03X454072Y886135I3314J-9510D01*
G03X454004Y886110I3441J-9465D01*
G03X453993Y886106I3435J-9464D01*
G03X453987Y886104I3181J-9552D01*
G03X453973Y886099I3380J-9485D01*
G03X453965Y886096I3514J-9383D01*
G03X453956Y886093I3175J-9539D01*
G01X453951Y886091D01*
X453949Y886090D01*
X453948D01*
G03X453940Y886087I3532J-9431D01*
G03X453900Y886072I3516J-9437D01*
G03X452945Y885650I3588J-9411D01*
G03X452553Y885441I4541J-8989D01*
G01X452550Y885439D01*
X452499Y885411D01*
X452496Y885409D01*
X452406Y885358D01*
X452359D01*
X452175Y885232D01*
X452149Y885214D01*
X452143Y885211D01*
X452134Y885204D01*
X452041Y885140D01*
X451798Y884974D01*
G02X451092Y884495I-65874J96332D01*
G02X450804Y884302I-65111J96849D01*
G02X450733Y884254I-65396J96655D01*
G02X450279Y883952I-64862J97016D01*
G01X450278D01*
X450274Y883949D01*
X450241Y883927D01*
X450224Y883916D01*
X450194Y883897D01*
X450157Y883873D01*
X449962Y883744D01*
G02X446191Y881372I-64010J97579D01*
G03X446183Y881368I310J-629D01*
G02X445939Y881220I-60644J99705D01*
G02X441619Y878755I-59983J100105D01*
G01X441603Y878747D01*
X441496Y878690D01*
X441490Y878685D01*
X441428Y878651D01*
X441365Y878617D01*
G02X441235Y878547I-55393J102716D01*
G01X441220Y878539D01*
G02X440066Y877927I-55253J102792D01*
G02X438193Y876968I-54120J103392D01*
G01X438192D01*
G02X438132Y876938I-52220J104365D01*
G02X438081Y876912I-53029J103955D01*
G02X438009Y876876I-52226J104362D01*
G01X437956Y876850D01*
X437762Y876753D01*
X437681Y876713D01*
X437607Y876676D01*
X437552Y876649D01*
X437492Y876620D01*
G02X437460Y876604I-52203J104367D01*
G02X437435Y876592I-50509J105195D01*
G02X437280Y876515I-51998J104476D01*
G02X437241Y876496I-51128J104897D01*
G02X437147Y876450I-51343J104799D01*
G02X437101Y876428I-50374J105268D01*
G02X437066Y876411I-51004J104964D01*
G02X436801Y876282I-51211J104864D01*
G02X436417Y876097I-50843J105043D01*
G02X436182Y875985I-50326J105292D01*
G02X435955Y875877I-50251J105327D01*
G02X410866Y867311I-50008J105443D01*
G01X410864Y867310D01*
G02X406772Y866492I-24918J114009D01*
G01X406770D01*
G02X406649Y866470I-20936J114807D01*
G01X406645D01*
G03X406628Y866466I152J-685D01*
G01X406576Y866454D01*
X406406Y866424D01*
X406085Y866369D01*
X406008Y866355D01*
G02X405653Y866294I-19941J114984D01*
G02X404327Y866075I-19679J115029D01*
G02X403458Y865940I-18349J115249D01*
G02X403185Y865899I-17469J115385D01*
G02X402171Y865752I-17250J115418D01*
G01X402170D01*
X402142Y865748D01*
X402084Y865740D01*
X402023Y865732D01*
X402020Y865731D01*
G02X397473Y865189I-16084J115586D01*
G01X397471D01*
X397460Y865188D01*
G03X397456I-2J-702D01*
G01X397442Y865187D01*
X397438Y865186D01*
G02X397279Y865170I-11764J116105D01*
G01X397274D01*
X397175Y865160D01*
X397157Y865157D01*
X397148Y865156D01*
X397127Y865152D01*
X397117Y865150D01*
X397091D01*
X397084Y865149D01*
G02X396821Y865125I-10737J116206D01*
G02X396670Y865111I-10849J116195D01*
G02X395796Y865034I-10679J116211D01*
G02X393847Y864886I-9811J116287D01*
G02X392499Y864802I-7932J116431D01*
G01X392478D01*
G02X392344Y864794I-7022J116487D01*
G01X392329Y864793D01*
X392325Y864792D01*
X392319D01*
G02X391702Y864760I-6353J116527D01*
G02X391648Y864757I-6500J116518D01*
G02X389881Y864684I-5700J116561D01*
G02X389135Y864661I-3969J116633D01*
G02X388234Y864640I-3170J116657D01*
G01X388215D01*
X388101Y864638D01*
G02X387911Y864635I-1937J116684D01*
G01X387903D01*
G02X387760Y864633I-1704J116687D01*
G01X387757D01*
X387756Y864632D01*
G02X385951Y864618I-1808J116686D01*
G01X364286D01*
G02X364129Y864619I665J116698D01*
G02X322260Y872642I2979J128807D01*
G02X319953Y873524I44855J120782D01*
G02X318869Y873956I47156J119902D01*
G01X318723Y874029D01*
X318525Y874126D01*
X318423Y874177D01*
G03X318074Y874257I-3904J-16230D01*
G03X317399Y874389I-3541J-16313D01*
G01X317392Y874390D01*
X317382Y874392D01*
G03X316143Y874559I-2848J-16448D01*
G01X316139D01*
X316107Y874563D01*
X316103D01*
G03X315990Y874576I-1207J-9998D01*
G03X314930Y874636I-1098J-10011D01*
G01X314884D01*
G03X314069Y874602I12J-10071D01*
G01X313939Y874591D01*
X313891Y874587D01*
X313758Y874576D01*
X313754D01*
X313745Y874575D01*
X313703Y874555D01*
X313612D01*
X313594Y874550D01*
X313566Y874547D01*
X313559Y874546D01*
G03X313413Y874525I1361J-9979D01*
G03X313326Y874507I97J-689D01*
G01X313308Y874502D01*
X309324Y873800D01*
X309307Y873798D01*
G03X309190Y873777I64J-691D01*
G01X309173Y873773D01*
X309112Y873762D01*
X309079Y873756D01*
X309073Y873755D01*
X309066Y873754D01*
X309033Y873748D01*
X308954Y873734D01*
X307737Y873520D01*
X307633Y873522D01*
X301859Y872505D01*
X301836Y872495D01*
X301810Y872484D01*
X301806Y872482D01*
X301756Y872460D01*
X301701Y872453D01*
X301669Y872447D01*
X301253Y872323D01*
X301212Y872311D01*
X301121Y872284D01*
X301052Y872263D01*
X301050Y872262D01*
X301024Y872255D01*
X301009Y872250D01*
X300947Y872232D01*
X300797Y872206D01*
X300328Y872123D01*
X300222Y872128D01*
X287657Y869912D01*
Y869913D01*
X286620Y869730D01*
X285271Y869491D01*
X285255Y869488D01*
X285245Y869486D01*
X285235Y869483D01*
G02X285135Y869459I-182J537D01*
G03X285067Y869442I134J-681D01*
G03X285055Y869438I213J-660D01*
G01X285046Y869435D01*
X285036Y869432D01*
X285035D01*
X283876Y869228D01*
X283781Y869211D01*
X283723Y869201D01*
X283706Y869198D01*
X283705D01*
X283687Y869195D01*
X283686D01*
X283677Y869194D01*
X283669Y869192D01*
X283531Y869168D01*
X282544Y868994D01*
X282543D01*
X282537Y868993D01*
X282528Y868999D01*
X282408Y868979D01*
X282405D01*
X282386Y868974D01*
X282385D01*
X282363Y868969D01*
X282354D01*
X273007Y867322D01*
X272972Y867316D01*
X272929Y867308D01*
X272922Y867306D01*
X272898Y867303D01*
X272814Y867282D01*
X272775Y867224D01*
X272767D01*
X272459Y866784D01*
X272449Y866770D01*
X272336Y866608D01*
X272335Y866607D01*
X272327Y866596D01*
X272214Y866576D01*
X272119Y866559D01*
X272001Y866538D01*
G03X271962Y866520I148J-371D01*
G03X271949Y866510I235J-319D01*
G03X271931Y866503I135J-374D01*
G03X271833Y866415I214J-337D01*
G01X260648Y864443D01*
Y864442D01*
X258290Y864026D01*
X256916Y863784D01*
X255513Y863536D01*
X252948Y863084D01*
X252647Y863031D01*
X252339Y862976D01*
X252031Y862922D01*
X250657Y862680D01*
X250321Y862853D01*
X249773Y863135D01*
X249772D01*
X249319Y863369D01*
X249302Y863379D01*
G03X248932Y863485I-371J-596D01*
G01X248929D01*
G03X248900Y863484I10J-702D01*
G03X248815Y863475I31J-701D01*
G01X248773Y863468D01*
X248765D01*
X243420Y862697D01*
X243184Y862893D01*
X242946Y863090D01*
X242931Y863102D01*
X242839Y863178D01*
X242707Y863288D01*
X242706D01*
X241588Y864213D01*
X241149Y864483D01*
X241114Y864674D01*
Y864675D01*
X241003Y865299D01*
X240019Y870879D01*
X240750Y871921D01*
Y871922D01*
X240809Y872006D01*
X240743Y872652D01*
X240453Y872955D01*
X240313Y873053D01*
X240130Y874094D01*
X240024Y874111D01*
G02X239006Y875300I185J1189D01*
G02X239628Y876354I1204J0D01*
G01X239720Y876405D01*
X239658Y876783D01*
X239538Y876790D01*
G02X238405Y877992I71J1202D01*
G02X239158Y879108I1203J0D01*
G01X239269Y879153D01*
X239184Y879673D01*
X239067Y879683D01*
G02X237963Y880883I100J1200D01*
G02X238317Y881736I1205J0D01*
G03X238217Y882227I-212J213D01*
G02X237462Y883344I449J1117D01*
G01Y883345D01*
G02X237770Y884149I1204J0D01*
G03X237669Y884624I-223J201D01*
G02X236951Y885725I485J1101D01*
G02X237918Y886905I1203J0D01*
G01X238170Y887266D01*
X238155Y887351D01*
G02X237602Y888189I637J1022D01*
G01X237594Y888242D01*
X237449Y888373D01*
X237395Y888376D01*
G02X236251Y889579I61J1203D01*
G02X236775Y890572I1203J0D01*
G03X236872Y890737I-197J227D01*
G01X237037Y890944D01*
X237026Y891010D01*
X237024Y891023D01*
Y891024D01*
G02X237008Y891217I1188J196D01*
G02X237042Y891499I1204J-2D01*
G03X236936Y891679I-146J35D01*
G02X236025Y892847I293J1168D01*
G02X237229Y894051I1204J0D01*
G02X237288Y894050I9J-1204D01*
G01X237302Y894049D01*
X237303D01*
G02X237913Y893838I-74J-1203D01*
G03X237971Y893807I169J247D01*
G01X237994Y893776D01*
G02X238327Y893341I-764J-930D01*
G01X238572Y893020D01*
X239060Y892932D01*
X239082Y892938D01*
X239077Y893000D01*
X238966Y893626D01*
X238950Y893623D01*
X238896Y893613D01*
X238796Y893634D01*
X238685Y894201D01*
X238767Y894279D01*
X238832Y894291D01*
X238807Y894997D01*
X238607Y894961D01*
X237862Y895010D01*
X237038Y894864D01*
X236921Y894946D01*
X236924Y894944D01*
X235234Y896133D01*
X234678Y899275D01*
X234616Y899404D01*
X234595Y899519D01*
X234566Y899562D01*
X233001Y908440D01*
X233006Y908614D01*
Y908616D01*
G02X235560Y911631I3062J-5D01*
G01X235561D01*
X235726Y911660D01*
X235979Y911705D01*
X235980D01*
X245089Y913313D01*
X246210Y912527D01*
X246256Y912542D01*
X246284Y912515D01*
X248414Y912891D01*
X248415Y912886D01*
X288159Y919893D01*
Y919892D01*
X300544Y922076D01*
Y922087D01*
X307300Y923226D01*
Y923236D01*
X307645Y923285D01*
G02X315131Y923854I8133J-57471D01*
G01X315132D01*
G02X337681Y919225I-3J-57249D01*
G03X364288Y913764I26609J62094D01*
G01X385959D01*
X385961Y913763D01*
G03X424861Y925736I666J67016D01*
G02X433603Y930699I32542J-47140D01*
G02X443608Y934191I23798J-52104D01*
G02X456869Y935876I14163J-58439D01*
G01X466162D01*
G03X466183Y935877I-9J400D01*
G01X527183D01*
Y935878D01*
X544094D01*
X544604Y936388D01*
X544887Y936673D01*
G37*
%LPD*%
G75*
G36*
G01X545393Y936468D02*
X555182D01*
X556852Y934801D01*
X557577Y934076D01*
Y925323D01*
X556991Y924737D01*
X554170D01*
X553911Y924996D01*
Y925145D01*
X554202Y925436D01*
X554712D01*
X554868Y925592D01*
Y925957D01*
X554711Y926114D01*
X554347D01*
X554253Y926208D01*
Y926707D01*
X554360Y926814D01*
X554708D01*
X554803Y926909D01*
Y927403D01*
X554714Y927492D01*
X554289D01*
X554254Y927527D01*
Y928161D01*
X554285Y928192D01*
X554762D01*
X555443Y928873D01*
Y929505D01*
G03X555644Y930171I-1003J666D01*
G03X555476Y930784I-1204J0D01*
G01Y932921D01*
X554796Y933601D01*
X546927D01*
X545347Y932021D01*
X527183D01*
Y932020D01*
X451639D01*
G03X451015Y931927I9688J-67144D01*
G03X442011Y929896I10391J-67040D01*
G01X441821Y929839D01*
G03X428979Y924475I19589J-64952D01*
G01X427079Y923283D01*
X427074Y923280D01*
G03X426923Y923186I558J-1065D01*
G01X426919Y923183D01*
X423236Y920873D01*
X423235Y920872D01*
G02X418913Y918352I-35889J56587D01*
G03X418365Y918062I270J-1173D01*
G02X385960Y910462I-31024J59394D01*
G01X364288D01*
G02X340779Y914477I4J70857D01*
G02X339299Y915016I23506J66844D01*
G02X338333Y915388I24980J66307D01*
G02X337801Y915600I25964J65928D01*
G02X337656Y915658I26243J65818D01*
G02X336381Y916190I26647J65655D01*
G03X333071Y917481I-21247J-49586D01*
G03X315134Y920552I-17942J-50876D01*
G03X305878Y919663I-485J-43579D01*
G01X305786Y919635D01*
X305775Y919633D01*
X305758Y919630D01*
X305748Y919628D01*
X305742Y919627D01*
X305734Y919626D01*
X305677Y919617D01*
X305673Y919615D01*
X305574Y919598D01*
X305495Y919584D01*
X305400Y919567D01*
X302051Y918976D01*
Y918989D01*
X246441Y909184D01*
X245490Y909002D01*
X245260Y909163D01*
X244278Y909851D01*
X243253Y909672D01*
Y909669D01*
X236122Y908411D01*
X235609Y907678D01*
X235996Y905477D01*
G03X235953Y905158I1162J-319D01*
G03X236175Y904462I1204J1D01*
G01X236287Y903824D01*
X237286Y903124D01*
X237676Y903193D01*
X237712Y903168D01*
X237822Y902543D01*
X237794Y902503D01*
X237373Y902429D01*
X237279Y902294D01*
X237358Y901841D01*
X237475Y901759D01*
X237841Y901823D01*
X237965Y901736D01*
X238052Y901245D01*
X237976Y901136D01*
X237616Y901072D01*
X237535Y900958D01*
X237620Y900486D01*
X237735Y900405D01*
X238236Y900493D01*
X238573Y900257D01*
X238599Y900110D01*
X238389Y899810D01*
X235611Y899320D01*
X235073Y899698D01*
X235070Y899713D01*
X235069Y899714D01*
X235051Y899741D01*
X235042Y899754D01*
X234717Y901597D01*
X233504Y908477D01*
X233508Y908595D01*
Y908615D01*
G02Y908621I2560J3D01*
G02X235623Y911132I2560J-10D01*
G01X235624D01*
X235797Y911163D01*
X235813Y911166D01*
X236023Y911203D01*
X236024D01*
X244971Y912782D01*
X245614Y912331D01*
X246115Y911980D01*
X246119Y911976D01*
X246121D01*
X246127Y911972D01*
X246163Y911984D01*
X246268Y912002D01*
X246272Y912000D01*
X246371Y912018D01*
X248018Y912309D01*
X248019Y912306D01*
X267801Y915794D01*
G03X267915Y915814I-151J1194D01*
G01X271442Y916436D01*
G03X271593Y916463I-136J1195D01*
G01X276184Y917272D01*
G03X276305Y917294I-154J1193D01*
G01X280399Y918015D01*
G03X280500Y918033I-160J1192D01*
G01X284007Y918651D01*
X284986Y918824D01*
G03X285101Y918844I-148J1194D01*
G01X288219Y919393D01*
X288549Y919451D01*
G03X288666Y919472I-154J1193D01*
G01X292910Y920220D01*
G03X293035Y920242I-146J1194D01*
G01X297211Y920979D01*
X297758Y921075D01*
G03X297846Y921091I-171J1191D01*
G01X301046Y921655D01*
Y921663D01*
X307752Y922793D01*
G02X309599Y923023I8033J-56978D01*
G02X315134Y923352I6178J-57209D01*
G02X337483Y918764I-4J-56747D01*
G03X364288Y913262I26807J62555D01*
G01X385864D01*
G03X386018Y913260I954J67515D01*
G03X419327Y921704I608J67519D01*
G03X425147Y925323I-32699J59075D01*
G02X430054Y928355I32261J-46725D01*
G02X433812Y930242I27340J-49764D01*
G02X437358Y931719I23592J-51646D01*
G02X443728Y933703I20040J-53125D01*
G02X456838Y935373I14043J-57951D01*
G01X456873Y935374D01*
X466166D01*
G03X466176I5J902D01*
G03X466198Y935375I-30J901D01*
G01X526826D01*
Y935376D01*
X544302D01*
X545101Y936175D01*
Y936176D01*
X545242Y936318D01*
X545393Y936468D01*
G37*
G36*
G01X271543Y888159D02*
X280151Y889676D01*
G02X280649Y888718I-1274J-1271D01*
G01X280986Y886810D01*
G02X280769Y885593I-1773J-312D01*
G01X280745Y885588D01*
X272539Y884002D01*
G02X271609Y885378I1043J1708D01*
G01X271374Y887090D01*
G02X271543Y888159I1854J255D01*
G37*
G36*
G01X527685Y897798D02*
X537300D01*
X539807Y897690D01*
X540085Y897527D01*
X541826Y896624D01*
X545372Y893078D01*
X549161D01*
X549237Y893002D01*
Y892392D01*
X548562Y891717D01*
Y891205D01*
X549114Y890653D01*
X549349D01*
X549422Y890726D01*
Y891582D01*
X549726Y891886D01*
X551952D01*
X552256Y891582D01*
Y891010D01*
X552389Y890877D01*
X553193D01*
X553554Y891238D01*
Y891682D01*
X553536Y891700D01*
X552709D01*
X552434Y891975D01*
Y893078D01*
X554364D01*
X554927Y893641D01*
Y894298D01*
X554804Y894421D01*
X552911D01*
X552790Y894542D01*
Y895031D01*
X552880Y895121D01*
X554814D01*
X554943Y895250D01*
Y895676D01*
X554820Y895799D01*
X552776D01*
Y896436D01*
X552839Y896499D01*
X555911D01*
X556842Y895568D01*
Y892788D01*
G03X556117Y891683I480J-1105D01*
G03X556118Y891633I1204J-1D01*
G03X556842Y890478I1204J-50D01*
G01Y888838D01*
X555708Y887704D01*
X552315D01*
G03X551891Y887628I-3J-1204D01*
G01X551845Y887609D01*
G03X551111Y886542I469J-1109D01*
G01X541014D01*
X541013Y886543D01*
X527183D01*
Y886542D01*
X515609D01*
X515332Y886818D01*
X515328Y886823D01*
G03X515208Y886943I-910J-790D01*
G01X515203Y886947D01*
X514916Y887234D01*
X514906D01*
X514895Y887245D01*
X456852D01*
X456675Y887202D01*
G03X454390Y886771I805J-10543D01*
G03X454284Y886738I3090J-10112D01*
G03X454103Y886682I264J-1175D01*
G01X454076Y886671D01*
X454063Y886665D01*
X454059Y886664D01*
X454047Y886659D01*
X454041Y886657D01*
G03X454013Y886647I3542J-9962D01*
G03X453832Y886582I3483J-9983D01*
G03X453816Y886576I3704J-9902D01*
G03X453802Y886572I2893J-10152D01*
G03X453769Y886559I3859J-9844D01*
G03X453715Y886539I3645J-9925D01*
G03X453285Y886364I3770J-9879D01*
G03X452456Y885961I4204J-9702D01*
G01X452324Y885889D01*
X452273Y885860D01*
X452203D01*
X451894Y885648D01*
X451892Y885647D01*
X451851Y885620D01*
X451838Y885610D01*
X451822Y885599D01*
X451514Y885388D01*
G02X450013Y884379I-65574J95928D01*
G01X449966Y884347D01*
X449904Y884308D01*
X449900Y884306D01*
X449880Y884292D01*
X449860Y884279D01*
X449855Y884276D01*
G03X449691Y884168I578J-1056D01*
G02X445951Y881814I-63755J97145D01*
G03X445785Y881714I536J-1078D01*
G02X441489Y879256I-59841J99605D01*
G01X441488D01*
X441388Y879202D01*
X441383Y879200D01*
G03X441261Y879135I504J-1093D01*
G01X441260Y879134D01*
X441237Y879120D01*
X441228Y879115D01*
X441224Y879112D01*
X441189Y879093D01*
X441125Y879058D01*
G02X438116Y877492I-55143J102281D01*
G03X437954Y877410I461J-1112D01*
G02X437786Y877326I-52049J103889D01*
G01X437679Y877273D01*
X437575Y877221D01*
G02X437386Y877127I-51840J103994D01*
G01X437271Y877071D01*
G02X437020Y876947I-51592J104117D01*
G02X436846Y876862I-51090J104364D01*
G02X436200Y876550I-50858J104478D01*
G02X434185Y875608I-50215J104788D01*
G03X433995Y875522I400J-1136D01*
G02X428959Y873376I-48058J105794D01*
G03X428776Y873303I353J-1151D01*
G02X424540Y871718I-42831J108016D01*
G03X424336Y871646I297J-1167D01*
G02X421466Y870683I-38396J109671D01*
G02X419905Y870194I-35515J110638D01*
G03X419687Y870128I238J-1180D01*
G02X415181Y868859I-33745J111190D01*
G03X414977Y868806I200J-1187D01*
G02X410935Y867840I-29026J112514D01*
G03X410732Y867795I158J-1194D01*
G02X406705Y866990I-24787J113524D01*
G03X406514Y866955I121J-1197D01*
G01X406508Y866954D01*
X406501Y866953D01*
G03X406493Y866950I418J-1126D01*
G01X406490Y866949D01*
X406477Y866946D01*
X406321Y866919D01*
X406181Y866895D01*
X406180Y866896D01*
G02X404248Y866571I-20241J114422D01*
G02X402290Y866276I-18290J114750D01*
G03X402079Y866246I63J-1202D01*
G01X402072Y866245D01*
X402015Y866237D01*
X401919Y866224D01*
G02X397436Y865690I-15983J115093D01*
G03X397221Y865669I9J-1204D01*
G01X397214Y865668D01*
X397124Y865659D01*
X397123D01*
X397091Y865655D01*
X397072Y865653D01*
X397067Y865652D01*
X397059D01*
G02X396868Y865634I-10998J115677D01*
G01X396775Y865625D01*
G02X395497Y865513I-10783J115697D01*
G02X393813Y865387I-9512J115808D01*
G02X393090Y865340I-7899J115929D01*
G02X392498Y865305I-7154J115978D01*
G03X392449Y865306I-49J-1203D01*
G03X392269Y865292I3J-1204D01*
G02X390366Y865204I-6319J116026D01*
G02X388487Y865148I-4401J116115D01*
G02X388205Y865142I-2613J116169D01*
G01X388148Y865141D01*
G02X387931Y865137I-2250J116176D01*
G03X387855Y865141I-101J-1199D01*
G03X387722Y865134I-3J-1204D01*
G02X385946Y865120I-1804J116184D01*
G01X383335D01*
X383327Y865121D01*
G03X383205Y865127I-120J-1198D01*
G03X383083Y865121I-2J-1204D01*
G01X383075Y865120D01*
X378335D01*
X378327Y865121D01*
G03X378205Y865127I-120J-1198D01*
G03X378083Y865121I-2J-1204D01*
G01X378075Y865120D01*
X373335D01*
X373327Y865121D01*
G03X373205Y865127I-120J-1198D01*
G03X373083Y865121I-2J-1204D01*
G01X373075Y865120D01*
X368335D01*
X368327Y865121D01*
G03X368205Y865127I-120J-1198D01*
G03X368083Y865121I-2J-1204D01*
G01X368075Y865120D01*
X364291D01*
G02X364152Y865121I766J116196D01*
G01X364139D01*
G02X360599Y865252I2976J128305D01*
G02X358772Y865358I6520J128174D01*
G02X348174Y866491I8332J128069D01*
G02X335777Y868970I18937J126935D01*
G02X322695Y873017I31334J124455D01*
G03X322399Y873126I-561J-1066D01*
G02X319078Y874413I44710J120300D01*
G01X318946Y874479D01*
X318815Y874543D01*
X318808Y874547D01*
G03X318301Y874722I-636J-1022D01*
G01X318293Y874723D01*
X318274Y874727D01*
X318252Y874732D01*
G03X318100Y874766I-3829J-16763D01*
G03X316836Y874984I-3552J-16824D01*
G03X316377Y875040I-2312J-17039D01*
G03X316209Y875057I-1815J-17099D01*
G01X316199Y875058D01*
X316198D01*
X316184Y875060D01*
X316164Y875062D01*
X316160D01*
X316154Y875063D01*
X316153D01*
G03X314931Y875138I-1258J-10498D01*
G03X314904I-13J-10573D01*
G01X314884D01*
G03X314028Y875102I16J-10573D01*
G01X313759Y875080D01*
X313752D01*
X313738Y875078D01*
X313615Y875070D01*
X313588Y875057D01*
X313544D01*
X313501Y875045D01*
X313491Y875044D01*
G03X313461Y875040I1382J-10482D01*
G03X313141Y874984I46J-1204D01*
G01X309335Y874312D01*
X309324Y874311D01*
G03X308992Y874253I39J-1203D01*
G01X308982Y874249D01*
X308150Y874103D01*
X307698Y874023D01*
X307594Y874025D01*
X301712Y872989D01*
X301690Y872979D01*
X301682Y872976D01*
X301620Y872949D01*
X301582Y872942D01*
X301570Y872940D01*
X301551Y872936D01*
X301091Y872799D01*
X301070Y872793D01*
X300977Y872765D01*
X300924Y872749D01*
X300908Y872744D01*
X300904Y872743D01*
X300883Y872737D01*
X300861Y872730D01*
X300833Y872722D01*
X300296Y872627D01*
X300190Y872632D01*
X288159Y870510D01*
Y870511D01*
X285179Y869985D01*
X285118Y869973D01*
X285110Y869972D01*
X285101Y869969D01*
X285099Y869968D01*
X285079Y869961D01*
X285069Y869959D01*
G03X285024Y869949I237J-1173D01*
G03X284972Y869937I243J-1171D01*
G03X284957Y869933I301J-1158D01*
G03X284943Y869929I321J-1151D01*
G01X284935Y869926D01*
X284920Y869923D01*
X284914Y869921D01*
X284896Y869918D01*
X283621Y869693D01*
X283590Y869688D01*
X283585Y869687D01*
X283582D01*
X283569Y869684D01*
X283444Y869662D01*
X282655Y869523D01*
X282643Y869531D01*
X282453Y869497D01*
X282326Y869475D01*
X282312Y869472D01*
X282300Y869471D01*
G03X282018Y869421I68J-1202D01*
G01X282009Y869419D01*
X277716Y868662D01*
X277707Y868661D01*
G03X277441Y868615I71J-1202D01*
G01X277433Y868613D01*
X274720Y868134D01*
G03X274383Y868075I37J-1203D01*
G01X273290Y867882D01*
X273281Y867881D01*
G03X273011Y867834I70J-1202D01*
G01X273003Y867832D01*
X272893Y867812D01*
X272831Y867801D01*
X272827Y867800D01*
X272805Y867797D01*
X272782Y867792D01*
X272744Y867785D01*
X272738Y867784D01*
X272690Y867775D01*
X272679Y867769D01*
X272508Y867729D01*
X272506Y867726D01*
X272505D01*
X272097Y867143D01*
X272042Y867064D01*
X271982Y867053D01*
G03X271859Y867021I165J-886D01*
G03X271717Y866959I288J-854D01*
G03X271698Y866949I410J-802D01*
G03X271633Y866915I384J-814D01*
G01X271603Y866885D01*
X260146Y864864D01*
Y864863D01*
X258203Y864520D01*
X256829Y864278D01*
X255426Y864030D01*
X252861Y863578D01*
X250736Y863204D01*
X250093Y863535D01*
X250073Y863559D01*
G03X249139Y864004I-934J-758D01*
G01X249138D01*
G03X248937Y863987I1J-1204D01*
G03X248731Y863970I-4J-1204D01*
G01X248729D01*
X243569Y863226D01*
X243251Y863489D01*
X242888Y863790D01*
X242887D01*
X241854Y864645D01*
X241596Y864837D01*
X240550Y870761D01*
X241164Y871637D01*
X241469Y871681D01*
X241476D01*
X244452Y872205D01*
X244574Y871516D01*
X242713Y871189D01*
X242643Y871089D01*
X242720Y870662D01*
X242900Y870532D01*
X244641Y870840D01*
X244763Y870151D01*
X243072Y869852D01*
X242937Y869660D01*
X243043Y869055D01*
X243480Y868750D01*
X244280Y868905D01*
X244407Y868898D01*
X244738Y867325D01*
X244589Y867154D01*
X244203Y866929D01*
X244205Y866693D01*
X244747Y866151D01*
X246562D01*
X246946Y866535D01*
Y867962D01*
X248470Y868230D01*
X248822Y867984D01*
X249001Y866970D01*
X249202Y866828D01*
X249693Y866920D01*
X249923Y867247D01*
Y868246D01*
X248829Y869013D01*
X248745Y869489D01*
X249777Y869671D01*
X249936Y869899D01*
X251534Y870277D01*
X251538Y870281D01*
G03X252638Y871481I-105J1200D01*
G03X252634Y871585I-1204J6D01*
G01X252747Y871720D01*
X253189Y873965D01*
X254253Y875029D01*
X274592Y878615D01*
X274595Y878616D01*
X274674Y878630D01*
X274769Y878684D01*
X274805Y878698D01*
X274928Y878746D01*
X311749Y885239D01*
G02X315392Y885558I3645J-20668D01*
G01X315393D01*
G02X323573Y883898I-1J-20988D01*
G03X364795Y875535I41224J97420D01*
G01X386449D01*
G03X446143Y893988I-2J105785D01*
G02X455947Y897548I11840J-17328D01*
G01X456450Y897741D01*
G02X457982Y897797I1538J-21080D01*
G01X527685D01*
Y897798D01*
G37*
G36*
G01X241936Y872452D02*
X243020Y872643D01*
X243134Y872807D01*
X243071Y873164D01*
X242845Y873322D01*
X242500Y873262D01*
X242379Y873346D01*
X242298Y873803D01*
X242390Y873930D01*
X243383Y874106D01*
X243550Y874349D01*
X243497Y874646D01*
X243284Y874800D01*
X241097Y874413D01*
X240828Y874029D01*
X240962Y873263D01*
X241144Y873007D01*
X241936Y872452D01*
G37*
G36*
G01X240616Y878295D02*
X239904Y878625D01*
X239572Y877985D01*
X240103Y877498D01*
X240659Y878053D01*
G03X240616Y878295I-106J106D01*
G37*
G36*
G01X241137Y878143D02*
X241692Y878004D01*
X242702Y878538D01*
X241570Y878693D01*
X241096Y878372D01*
G03X241137Y878143I114J-98D01*
G37*
G36*
G01X240151Y883518D02*
X240735Y883432D01*
X241745Y883966D01*
X240613Y884121D01*
X240097Y883754D01*
G03X240151Y883518I113J-98D01*
G37*
G36*
G01X239666Y883671D02*
X238946Y883985D01*
X238629Y883337D01*
X239172Y882862D01*
X239715Y883431D01*
G03X239666Y883671I-109J103D01*
G37*
G36*
G01X239201Y886460D02*
G02X238365Y886392I-501J992D01*
G01X238122Y885706D01*
X238835Y885563D01*
G02X239322Y886247I1071J-247D01*
G03X239201Y886460I-136J64D01*
G37*
G36*
G01X240658Y880858D02*
X241214Y880718D01*
X242224Y881251D01*
X241092Y881407D01*
X240618Y881087D01*
G03X240658Y880858I114J-98D01*
G37*
G36*
G01X240213Y881005D02*
X239568Y881456D01*
X239130Y880883D01*
X239696Y880441D01*
X240206Y880754D01*
G03X240213Y881005I-79J128D01*
G37*
G36*
G01X247880Y885401D02*
X248903Y885621D01*
X248831Y885508D01*
X248450Y885168D01*
X248218Y884768D01*
X248063Y884753D01*
X247880Y885401D01*
G37*
G36*
G01X248857Y881365D02*
X249412Y881466D01*
X249056Y880701D01*
X248391Y880911D01*
X248857Y881365D01*
G37*
G36*
G01X248695Y882750D02*
X249380Y882493D01*
X248820Y882075D01*
X248097Y882420D01*
X248695Y882750D01*
G37*
G36*
G01X249660Y875909D02*
X250367Y876029D01*
X249803Y875251D01*
X248866Y875405D01*
X249660Y875909D01*
G37*
G36*
G01X249321Y877966D02*
X250170Y878272D01*
X249198Y878637D01*
X248833Y878294D01*
X249321Y877966D01*
G37*
G36*
G01X249784Y876632D02*
X250277Y877498D01*
X249111Y877148D01*
X249777Y876632D01*
X249784D01*
G37*
G36*
G01X452774Y900024D02*
X543527D01*
G02X543627Y900008I0J-323D01*
G01X544094Y899856D01*
G02X544739Y899541I-807J-2470D01*
G01X545873Y898407D01*
G03X545892Y898389I492J500D01*
G01X546079Y898203D01*
X546487D01*
X546580Y898153D01*
X546855Y897878D01*
X548372D01*
Y897176D01*
X546857D01*
X546755Y897074D01*
Y896571D01*
X546826Y896500D01*
X547365D01*
X547518Y896347D01*
Y896063D01*
X547404Y895949D01*
X547166D01*
X547009Y895799D01*
X544832D01*
X540256Y898173D01*
X537311Y898300D01*
X527183D01*
Y898299D01*
X457982D01*
G03X445775Y894526I2J-21639D01*
G02X386449Y876187I-59328J86794D01*
G01X364795D01*
G02X323827Y884498I0J105131D01*
G03X315393Y886210I-8436J-19927D01*
G01X315392D01*
G03X311636Y885881I3J-21639D01*
G01X275501Y879510D01*
X274456Y879101D01*
X254010Y875496D01*
X253954Y875440D01*
X253697Y875395D01*
X252516Y874214D01*
X251803Y873051D01*
X251263Y872685D01*
X250501Y872562D01*
X250327Y872536D01*
X250296Y873210D01*
X250373Y873250D01*
X250379Y873251D01*
X250846Y873328D01*
X250889Y873431D01*
X250816Y873903D01*
X250627Y873984D01*
X250262Y873918D01*
X249946Y873863D01*
X249832Y874552D01*
X250143Y874608D01*
X252182Y876523D01*
X252238Y876600D01*
G02X252886Y876779I1262J-3307D01*
G01X272806Y880291D01*
G03X273251Y880429I-314J1800D01*
G01X273276Y880440D01*
G03X273659Y880663I-967J2102D01*
G03X273756Y880737I-1354J1876D01*
G01X273856Y880754D01*
G03X274199Y881121I-1546J1789D01*
G01X274471Y881482D01*
G02X275029Y881823I712J-538D01*
G01X311106Y888183D01*
G03X311111Y888184I-135J687D01*
G02X324059Y886744I4092J-22141D01*
G03X364230Y878512I40172J93901D01*
G01X385799D01*
G03X439650Y893719I-1J102955D01*
G01X442788Y895644D01*
G03X442850Y895687I-368J597D01*
G02X451023Y899797I14603J-18857D01*
G01X452563Y900009D01*
G02X452774Y900024I214J-1524D01*
G37*
G36*
G01X241615Y875430D02*
X242171Y875290D01*
X243181Y875823D01*
X242049Y875979D01*
X241575Y875659D01*
G03X241615Y875430I114J-98D01*
G37*
G36*
G01X241217Y875602D02*
X240505Y875933D01*
X240173Y875294D01*
X240704Y874806D01*
X241260Y875360D01*
G03X241217Y875602I-106J106D01*
G37*
G36*
G01X243755Y909250D02*
X244160Y909321D01*
X244802Y908871D01*
X245301Y906042D01*
X245189Y905883D01*
X242802Y905462D01*
X242576Y905620D01*
X242420Y906506D01*
X242650Y906834D01*
X243553Y906993D01*
X243446Y907601D01*
X242866Y908006D01*
X241799Y907818D01*
X241900Y907243D01*
X241563Y906761D01*
X239692Y906431D01*
X239112Y906837D01*
X239026Y907329D01*
X237351Y907034D01*
X237108Y906686D01*
X237230Y905997D01*
X237365Y905902D01*
X238744Y906145D01*
X239072Y905916D01*
X239245Y904931D01*
X239168Y904821D01*
X236698Y904385D01*
X236139Y907560D01*
X236414Y907953D01*
X243755Y909248D01*
Y909250D01*
G37*
G36*
G01X270382Y905982D02*
G02X268098Y907676I-240J2064D01*
G01X267601Y910423D01*
G02X269100Y912487I1819J256D01*
G01X275241Y913570D01*
G02X277246Y911986I113J-1918D01*
G01X277767Y909030D01*
G02X276154Y906999I-1953J-105D01*
G01X270382Y905982D01*
G37*
G36*
G01X290562Y916083D02*
G02X292567Y914499I113J-1918D01*
G01X293088Y911543D01*
G02X291475Y909512I-1953J-105D01*
G01X287414Y908797D01*
X282636Y907955D01*
G02X280262Y909739I-233J2161D01*
G01X279857Y912040D01*
G02X281727Y914526I2265J242D01*
G01X287746Y915587D01*
X290562Y916083D01*
G37*
G36*
G01X295874Y889513D02*
G02X295596Y888197I-1773J-313D01*
G01X285707Y886380D01*
G02X284910Y887580I976J1513D01*
G01X284574Y889488D01*
G02X284762Y890654I1772J312D01*
G01X294943Y892470D01*
G02X295538Y891420I-1178J-1361D01*
G01X295874Y889513D01*
G37*
G36*
G01X247128Y891590D02*
X247854Y891397D01*
X248120Y892087D01*
X247633Y892645D01*
X247017Y892215D01*
G03X247128Y891590I201J-287D01*
G37*
G36*
G01X239701Y886286D02*
X240257Y886146D01*
X241267Y886679D01*
X240135Y886835D01*
X239661Y886515D01*
G03X239701Y886286I114J-98D01*
G37*
G36*
G01X239212Y890694D02*
X239539Y890217D01*
X240662Y890744D01*
X241485Y891271D01*
X239318Y890890D01*
G03X239212Y890694I36J-146D01*
G37*
G36*
G01X239419Y890823D02*
G02X238880Y891421I462J958D01*
G01X238178Y891232D01*
X238516Y890588D01*
G02X239321Y890598I415J-977D01*
G03X239419Y890823I-30J147D01*
G37*
G36*
G01X238996Y892061D02*
X239300Y891574D01*
X240310Y892101D01*
X239178Y892263D01*
X238994Y892139D01*
G03X238996Y892061I146J-35D01*
G37*
G36*
G01X237625Y898986D02*
X239203Y899264D01*
X239324Y898575D01*
X238098Y898359D01*
X237960Y898159D01*
X238027Y897781D01*
X238167Y897682D01*
X239557Y897932D01*
X239679Y897243D01*
X238320Y896998D01*
X238225Y896862D01*
X238300Y896437D01*
X238449Y896333D01*
X239721Y896558D01*
X239842Y895868D01*
X238534Y895639D01*
G03X238063Y895735I-471J-1107D01*
G03X237471Y895579I1J-1204D01*
G01X237024Y895522D01*
X237013Y895521D01*
X235692Y896447D01*
X235433Y897916D01*
X235980Y898698D01*
X237622Y898988D01*
X237625Y898986D01*
G37*
G36*
G01X247991Y886821D02*
X248572Y886363D01*
X248112Y886144D01*
X247613Y886336D01*
X247991Y886821D01*
G37*
G36*
G01X247799Y889525D02*
X247453Y889518D01*
X247364Y888891D01*
X247480Y888939D01*
X247994Y889251D01*
X248342Y889550D01*
X247799Y889525D01*
G37*
G36*
G01X247375Y890217D02*
X247779Y890441D01*
X247260Y890892D01*
X246806Y890506D01*
X247375Y890217D01*
G37*
G36*
G01X246902Y892923D02*
X247201Y893526D01*
X246759Y893601D01*
X246190Y893187D01*
X246902Y892923D01*
G37*
G36*
G01X246549Y894961D02*
X247208Y894685D01*
X246677Y894274D01*
X246182Y894439D01*
X246549Y894961D01*
G37*
G36*
G01X246191Y897003D02*
X246452Y897665D01*
X246060Y897668D01*
X245653Y897227D01*
X246191Y897003D01*
G37*
G36*
G01X245727Y898957D02*
X246411Y898524D01*
X245925Y898345D01*
X245207Y898563D01*
X245727Y898957D01*
G37*
G36*
G01X245356Y901736D02*
X245789Y901857D01*
X245475Y901064D01*
X244716Y901201D01*
X245356Y901736D01*
G37*
G36*
G01X245112Y903100D02*
X245759Y902683D01*
X245227Y902416D01*
X244745Y902456D01*
X245112Y903100D01*
G37*
G36*
G01X238342Y889725D02*
X237931Y890091D01*
X237418Y889577D01*
X237965Y889100D01*
X238351Y889510D01*
G03X238342Y889725I-109J103D01*
G37*
G36*
G01X302496Y918331D02*
G02X305011Y914943I-1023J-3387D01*
G02X297933I-3539J0D01*
G02X299405Y917816I3540J0D01*
G01X302496Y918331D01*
G37*
G36*
G01X335925Y889222D02*
G02I-2769J0D01*
G37*
G36*
G01X307450Y892046D02*
G02X306630Y890079I-2769J0D01*
G01X303585Y889503D01*
G02X302608Y893881I1097J2543D01*
G01X306038Y894460D01*
G02X307450Y892046I-1357J-2414D01*
G37*
G36*
G01X377635Y884021D02*
G02I-2769J0D01*
G37*
G36*
G01X357554Y884377D02*
G02X353450Y886804I-2770J0D01*
G01X356274Y886712D01*
G02X357554Y884377I-1490J-2335D01*
G37*
G36*
G01X366290Y909960D02*
X368006D01*
G02X370181Y907051I-858J-2909D01*
G02X364115I-3033J0D01*
G02X366290Y909960I3033J0D01*
G37*
G36*
G01X343881Y910816D02*
G02X340583Y913847I-3042J0D01*
G01X342972Y912984D01*
G02X343881Y910816I-2132J-2169D01*
G37*
G36*
G01X390829Y886877D02*
G03X394287Y887325I-12643J111157D01*
G02X396329Y884211I-1353J-3114D01*
G02X395667Y882196I-3398J0D01*
G02X390519Y881822I-2964J5175D01*
G02X389537Y884211I2415J2389D01*
G02X390829Y886877I3397J0D01*
G37*
G36*
G01X412245Y888972D02*
G02X418771I3263J0D01*
G01Y888970D01*
G02X418463Y887588I-3263J2D01*
G02X413900Y886133I-3423J2853D01*
G02X412245Y888972I1608J2839D01*
G37*
G36*
G01X394573Y910132D02*
G03X397246Y910482I-395J13401D01*
G02X399287Y907646I-950J-2836D01*
G02X393069I-3109J0D01*
G02X394573Y910132I2807J0D01*
G37*
G36*
G01X419843Y918237D02*
G03X423250Y920121I-5325J13652D01*
G02X426022Y917005I-365J-3116D01*
G02X425719Y915616I-3334J0D01*
G01X424838Y915059D01*
G02X422556Y913675I-39424J62430D01*
G02X419356Y917005I133J3330D01*
G02X419843Y918237I1802J0D01*
G37*
G36*
G01X430613Y897293D02*
G02X436935I3161J0D01*
G02X436819Y896446I-3161J2D01*
G02X432947Y894242I-3009J783D01*
G02X430613Y897293I827J3051D01*
G37*
G36*
G01X445852Y930165D02*
G02X447701Y927331I-1246J-2833D01*
G02X441509I-3096J0D01*
G02X442141Y929205I3097J-1D01*
G01X445852Y930165D01*
G37*
G36*
G01X475281Y924743D02*
X465839D01*
G02X463898Y926462I0J1955D01*
G01Y929464D01*
G02X465598Y931372I1921J0D01*
G01X475036D01*
G02X477309Y929248I0J-2278D01*
G01Y926912D01*
G02X475281Y924743I-2174J0D01*
G37*
G36*
G01X495281Y924843D02*
X485839D01*
G02X483898Y926562I0J1955D01*
G01Y929564D01*
G02X485598Y931472I1921J0D01*
G01X495036D01*
G02X497309Y929348I0J-2278D01*
G01Y927012D01*
G02X495281Y924843I-2174J0D01*
G37*
G36*
G01X494972Y902727D02*
X486972D01*
G02X485172Y904527I0J1800D01*
G01Y906464D01*
G02X486972Y908264I1800J0D01*
G01X494972D01*
G02X496772Y906464I0J-1800D01*
G01Y904527D01*
G02X494972Y902727I-1800J0D01*
G37*
G36*
G01X475032Y902711D02*
X467032D01*
G02X465232Y904511I0J1800D01*
G01Y906448D01*
G02X467032Y908248I1800J0D01*
G01X475032D01*
G02X476832Y906448I0J-1800D01*
G01Y904511D01*
G02X475032Y902711I-1800J0D01*
G37*
G36*
G01X514281Y924843D02*
X504839D01*
G02X502898Y926562I0J1955D01*
G01Y929564D01*
G02X504598Y931472I1921J0D01*
G01X514036D01*
G02X516309Y929348I0J-2278D01*
G01Y927012D01*
G02X514281Y924843I-2174J0D01*
G37*
G36*
G01X513991Y902657D02*
X505991D01*
G02X504191Y904457I0J1800D01*
G01Y906394D01*
G02X505991Y908194I1800J0D01*
G01X513991D01*
G02X515791Y906394I0J-1800D01*
G01Y904457D01*
G02X513991Y902657I-1800J0D01*
G37*
G36*
G01X547180Y933099D02*
X554473D01*
X554974Y932598D01*
Y929801D01*
X554708Y929535D01*
X552533D01*
X552438Y929630D01*
Y930630D01*
X552721Y930913D01*
X554121D01*
X554238Y931030D01*
Y931730D01*
X553938Y932030D01*
X552238D01*
Y931530D01*
X551569Y930861D01*
X550007D01*
X549422Y931446D01*
Y932030D01*
X548338D01*
X547838Y931530D01*
Y930913D01*
X548755D01*
X549038Y930630D01*
Y929730D01*
X548843Y929535D01*
X546419D01*
X546130Y929824D01*
Y932049D01*
X547180Y933099D01*
G37*
G36*
G01X546994Y915756D02*
X546311Y916073D01*
X545929Y915440D01*
X546311Y914806D01*
X546993Y915121D01*
G03X546994Y915756I-147J318D01*
G37*
G36*
G01X555953Y897178D02*
X554328D01*
X554187Y897319D01*
Y897682D01*
X554382Y897877D01*
X554768D01*
X554836Y897945D01*
Y898458D01*
X554739Y898555D01*
X554347D01*
X554253Y898649D01*
Y899148D01*
X554360Y899255D01*
X555914D01*
X556420Y898749D01*
Y897645D01*
X555953Y897178D01*
G37*
G36*
G01X555226Y903154D02*
X554704Y903388D01*
X553616Y903038D01*
X554704Y902688D01*
X555226Y902922D01*
G03Y903154I-95J116D01*
G37*
G36*
G01X555713Y902915D02*
X556358Y902465D01*
X556796Y903038D01*
X556358Y903611D01*
X555713Y903161D01*
G03Y902915I86J-123D01*
G37*
G36*
G01X555650Y908430D02*
X556336Y907914D01*
X556794Y908469D01*
X556357Y909043D01*
X555670Y908683D01*
G03X555650Y908430I70J-133D01*
G37*
G36*
G01X555226Y908666D02*
X554704Y908900D01*
X553616Y908550D01*
X554704Y908200D01*
X555226Y908434D01*
G03Y908666I-95J116D01*
G37*
G36*
G01Y911422D02*
X554704Y911656D01*
X553616Y911306D01*
X554704Y910956D01*
X555226Y911190D01*
G03Y911422I-95J116D01*
G37*
G36*
G01X555726Y911294D02*
X556675Y910509D01*
X556804Y911611D01*
X555815Y911413D01*
X555726Y911294D01*
G37*
G36*
G01X555226Y905910D02*
X554704Y906144D01*
X553616Y905794D01*
X554704Y905444D01*
X555226Y905678D01*
G03Y905910I-95J116D01*
G37*
G36*
G01X555690Y905655D02*
X556247Y905435D01*
X556728Y905969D01*
X556197Y906456D01*
X555639Y905900D01*
G03X555690Y905655I106J-106D01*
G37*
G36*
G01X555076Y915358D02*
X556030Y915632D01*
X555864Y916331D01*
X555165Y916497D01*
X554891Y915543D01*
G03X555076Y915358I144J-41D01*
G37*
G36*
G01X555088Y915530D02*
X554704Y915790D01*
X553616Y915440D01*
X554704Y915090D01*
X555088Y915350D01*
G03Y915530I-120J90D01*
G37*
G36*
G01X555403Y917549D02*
X556781Y917972D01*
X556313Y918421D01*
X555987D01*
X555558Y917872D01*
X555403Y917549D01*
G37*
G36*
G01X555068Y924060D02*
X557028D01*
X557551Y923537D01*
Y921955D01*
X556199Y920603D01*
X555939D01*
G03X555405Y920728I-534J-1078D01*
G03X554871Y920603I0J-1203D01*
G01X553284D01*
Y921302D01*
X554714D01*
X554831Y921419D01*
Y921868D01*
X554719Y921980D01*
X553087D01*
Y922680D01*
X554706D01*
X554864Y922838D01*
Y923206D01*
X554712Y923358D01*
X553004D01*
Y924058D01*
X555066D01*
X555068Y924060D01*
G37*
G36*
G01X546922Y908926D02*
X546447Y908918D01*
X546466Y908885D01*
X546587Y908726D01*
X547021Y908320D01*
X547063Y908316D01*
X547602Y908603D01*
X546922Y908926D01*
G37*
G36*
G01X546986Y910272D02*
X546482Y909697D01*
X546614Y909522D01*
X547282Y909643D01*
X546986Y910272D01*
G37*
G36*
G01X546474Y912981D02*
X546911Y912528D01*
X547167Y912372D01*
X547783Y912526D01*
X547060Y913030D01*
X546974Y913034D01*
X546788Y913097D01*
X546726Y913098D01*
X546474Y912981D01*
G37*
G36*
G01X546989Y914386D02*
X546324Y913857D01*
X546619Y913676D01*
X547096Y913731D01*
X547050Y914390D01*
X546989Y914386D01*
G37*
G36*
G01X546975Y916471D02*
X546443Y917146D01*
X546501Y917229D01*
X546837Y917212D01*
X546974Y917168D01*
X546992Y917157D01*
X547572Y916903D01*
X546975Y916471D01*
G37*
G36*
G01X547022Y918508D02*
X547365Y918319D01*
X546973Y917849D01*
X546243Y918175D01*
X546282Y918349D01*
X547022Y918508D01*
G37*
G36*
G01X546987Y921297D02*
X546632Y921341D01*
X546691Y920971D01*
X546980Y920604D01*
X547335Y920934D01*
X546987Y921297D01*
G37*
G36*
G01X546969Y921993D02*
X546551Y922075D01*
X546547Y922139D01*
X546935Y922615D01*
X547045Y922655D01*
X547495Y922487D01*
X546969Y921993D01*
G37*
G36*
G01X546975Y925428D02*
X546636Y925450D01*
X546773Y925024D01*
X546972Y924738D01*
X547553Y925111D01*
X546975Y925428D01*
G37*
G36*
G01X546976Y926122D02*
X546696Y926156D01*
X546752Y926498D01*
X546979Y926815D01*
X547551Y926625D01*
X546976Y926122D01*
G37*
G36*
G01X547478Y904729D02*
X546289Y904812D01*
X547105Y904127D01*
X547478Y904729D01*
G37*
G36*
G01X547038Y906141D02*
X546238Y905834D01*
X546551Y905522D01*
X547920Y905615D01*
X547038Y906141D01*
G37*
G36*
G01X547203Y899254D02*
X546391Y899165D01*
X546472Y898952D01*
X547204Y898557D01*
X547762Y898878D01*
X547203Y899254D01*
G37*
G36*
G01X547198Y902008D02*
X546111Y901898D01*
X547203Y901313D01*
X547923Y901578D01*
X547198Y902008D01*
G37*
G36*
G01X547197Y900622D02*
X546022Y900685D01*
X546641Y900239D01*
X547206Y899934D01*
X547899Y900290D01*
X547197Y900622D01*
G37*
G36*
G01X555145Y912787D02*
X554704Y913034D01*
X553616Y912684D01*
X554704Y912334D01*
X555145Y912581D01*
G03Y912787I-109J103D01*
G37*
G36*
G01X555077Y912542D02*
X555905Y912719D01*
X555787Y913430D01*
X555076Y913548D01*
X554899Y912720D01*
G03X555077Y912542I147J-31D01*
G37*
G36*
G01X555899Y914706D02*
X556427Y914280D01*
X556904Y914823D01*
X556427Y915366D01*
X555899Y914940D01*
G03Y914706I94J-117D01*
G37*
G36*
G01X555226Y900398D02*
X554704Y900632D01*
X553616Y900282D01*
X554704Y899932D01*
X555226Y900166D01*
G03Y900398I-95J116D01*
G37*
G36*
G01X555589Y900159D02*
X556234Y899709D01*
X556672Y900282D01*
X556234Y900855D01*
X555589Y900405D01*
G03Y900159I86J-123D01*
G37*
G54D10*
X249400Y868905D03*
G54D20*
X548693Y892389D03*
G54D11*
X245174Y868160D03*
G54D12*
X247437Y867679D03*
G54D21*
X552985Y930223D03*
G54D13*
X247014Y886294D03*
X247253Y884937D03*
X247492Y883580D03*
X247731Y882223D03*
X247971Y880865D03*
X248210Y879508D03*
X248449Y878151D03*
X248689Y876794D03*
X248928Y875437D03*
X249167Y874080D03*
X249406Y872724D03*
X249646Y871367D03*
X244101Y870389D03*
X243862Y871746D03*
X243623Y873103D03*
X243383Y874460D03*
X243144Y875817D03*
X242905Y877174D03*
X242665Y878531D03*
X242426Y879888D03*
X242187Y881245D03*
X241948Y882602D03*
X241708Y883959D03*
X241469Y885316D03*
X241230Y886673D03*
X243903Y903935D03*
X244142Y902578D03*
X244381Y901221D03*
X244621Y899864D03*
X244860Y898507D03*
X245099Y897150D03*
X245339Y895793D03*
X245578Y894436D03*
X245817Y893079D03*
X246056Y891722D03*
X246296Y890365D03*
X246535Y889008D03*
X246774Y887651D03*
X240990Y888030D03*
X240751Y889387D03*
X240512Y890744D03*
X240273Y892101D03*
X240033Y893459D03*
X239794Y894816D03*
X239555Y896173D03*
X239315Y897530D03*
X239076Y898887D03*
X238837Y900244D03*
X238598Y901600D03*
X238358Y902957D03*
G54D22*
X550839Y891523D03*
G54D23*
Y931089D03*
G54D14*
X270654Y885693D03*
X251950Y881941D03*
X249426Y884405D03*
X249139Y862800D03*
X240073Y872348D03*
X274759Y866931D03*
X277779Y867459D03*
X282369Y868269D03*
X251434Y871481D03*
X253067Y864977D03*
X254317Y866756D03*
X252197Y867057D03*
X241514Y870036D03*
X242785Y868339D03*
X250149Y866334D03*
X250663Y864153D03*
X248199Y866126D03*
X251279Y868992D03*
X253610Y870442D03*
X241192Y876830D03*
X241635Y873525D03*
X239609Y877992D03*
X239805Y885005D03*
X238666Y883344D03*
X240214Y882348D03*
X238155Y885725D03*
X239167Y880883D03*
X240522Y879552D03*
X240210Y875300D03*
X283820Y889750D03*
X270560Y887439D03*
X281246Y889218D03*
X277746Y913380D03*
X278354Y907733D03*
X237157Y905158D03*
X244124Y908167D03*
X242467Y908311D03*
X238272Y907571D03*
X248161Y903401D03*
X266659Y911451D03*
X280204Y908190D03*
X267486Y906553D03*
X247111Y896127D03*
X248034Y892072D03*
X248553Y888176D03*
X246520Y899899D03*
X236154Y894319D03*
X238063Y894531D03*
X284844Y920019D03*
X280242Y919208D03*
X276031Y918465D03*
X271309Y917632D03*
X267652Y916988D03*
X238212Y891217D03*
X237229Y892847D03*
X236310Y897042D03*
X237615Y896304D03*
X237270Y898309D03*
X238792Y888371D03*
X237455Y889579D03*
X290916Y869774D03*
X325629Y870657D03*
X329576Y869332D03*
X333869Y868179D03*
X322132Y871952D03*
X318172Y873525D03*
X299641Y871314D03*
X295221Y870533D03*
X309366Y873108D03*
X313516Y873837D03*
X303634Y872098D03*
X287175Y869115D03*
X297687Y911150D03*
X294500Y910771D03*
X293511Y916213D03*
X296833Y916760D03*
X311324Y919214D03*
X305773Y912881D03*
X309203Y913550D03*
X335474Y909625D03*
X333643Y915996D03*
X331447Y910888D03*
X326604Y918088D03*
X323995Y912687D03*
X320537Y919073D03*
X318890Y913176D03*
X315641Y919348D03*
X313446Y913261D03*
X305335Y918316D03*
X307920Y893815D03*
X301271Y892967D03*
X312556Y894623D03*
X316895Y894666D03*
X322382Y894028D03*
X327317Y892496D03*
X330610Y891962D03*
X337139Y888754D03*
X298856Y892185D03*
X296283Y891632D03*
X288393Y920644D03*
X292767Y921415D03*
X297595Y922267D03*
X329762Y922677D03*
X334661Y921164D03*
X315875Y924549D03*
X310987Y924368D03*
X305954Y923745D03*
X301368Y922938D03*
X325379Y923641D03*
X320341Y924319D03*
X350754Y886073D03*
X358637Y886132D03*
X362749Y884499D03*
X366832Y885265D03*
X370745Y885521D03*
X379253Y884755D03*
X384102Y884883D03*
X388058Y884925D03*
X338500Y867014D03*
X343407Y865956D03*
X353156Y864503D03*
X368205Y863923D03*
X373205D03*
X378205D03*
X383205D03*
X363176Y863941D03*
X358031Y864120D03*
X348248Y865097D03*
X387855Y863937D03*
X372395Y904590D03*
X386826Y909227D03*
X380578Y909259D03*
X384541Y904396D03*
X379386Y904446D03*
X375578Y909259D03*
X374992Y904496D03*
X370578Y909259D03*
X369947Y904571D03*
X363581Y909262D03*
X361796Y904322D03*
X358021Y909533D03*
X355929Y904606D03*
X351890Y910334D03*
X350497Y905082D03*
X345656Y911712D03*
X343156Y907230D03*
X338526Y913984D03*
X341779Y887775D03*
X346290Y887443D03*
X353801Y915292D03*
X348701Y916307D03*
X343586Y917751D03*
X339034Y919419D03*
X358828Y914687D03*
X388005Y914483D03*
X383804Y914464D03*
X378804D03*
X373804D03*
X368804D03*
X363804D03*
X397714Y885989D03*
X402946Y886967D03*
X406815Y865791D03*
X402349Y865073D03*
X397440Y864486D03*
X392449Y864102D03*
X438569Y876376D03*
X434587Y874473D03*
X429311Y872224D03*
X424834Y870550D03*
X420145Y869014D03*
X415379Y867671D03*
X411091Y866646D03*
X436660Y926691D03*
X437749Y922311D03*
X432220Y924681D03*
X427636Y922217D03*
X424773Y920408D03*
X440108Y923210D03*
X429847Y923460D03*
X418605Y916824D03*
X412519Y914021D03*
X414554Y914826D03*
X410120Y913008D03*
X402107Y910726D03*
X405045Y911394D03*
X404288Y906547D03*
X399696Y910172D03*
X399305Y905468D03*
X391800Y909293D03*
X392843Y904758D03*
X389522Y904459D03*
X407412Y887733D03*
X411495Y890030D03*
X417662Y892326D03*
X423107Y892666D03*
X426722Y896070D03*
X429573Y897340D03*
X436936Y900737D03*
X410044Y918767D03*
X405583Y917261D03*
X400909Y916047D03*
X396572Y915235D03*
X392169Y914699D03*
X435540Y932307D03*
X431302Y930378D03*
X427814Y928466D03*
X424447Y926309D03*
X421063Y924124D03*
X417493Y922109D03*
X414006Y920407D03*
X459418Y886036D03*
X489418D03*
X484418D03*
X479418D03*
X474418D03*
X469418D03*
X464418D03*
X454545Y885562D03*
X450436Y883222D03*
X446487Y880736D03*
X441886Y878106D03*
X482727Y926054D03*
X480622Y925363D03*
X463044Y930797D03*
X482962Y930818D03*
X480641Y930816D03*
X478581Y930818D03*
X462955Y925570D03*
X478808Y926132D03*
X459859Y925495D03*
X452842Y925307D03*
X459138Y930659D03*
X447892Y929355D03*
X453612Y930339D03*
X448447Y924933D03*
X456687Y925307D03*
X440851Y928149D03*
X442695Y923952D03*
X441270Y902195D03*
X445268Y906023D03*
X451053D03*
X459525Y906775D03*
X478702Y906767D03*
X483665Y907020D03*
X463853Y906839D03*
X481037Y906796D03*
X444425Y935112D03*
X449358Y936019D03*
X454343Y936497D03*
X459240Y936575D03*
X464240D03*
X469240D03*
X474240D03*
X479240D03*
X484240D03*
X489240D03*
X440460Y934054D03*
X514418Y886036D03*
X509418D03*
X504418D03*
X499418D03*
X494418D03*
X501753Y925618D03*
X498925Y925575D03*
X498520Y930811D03*
X501194Y930817D03*
X516735Y925459D03*
X516660Y930818D03*
X498077Y906788D03*
X500301Y907162D03*
X517146Y904968D03*
X517017Y907335D03*
X503304Y907115D03*
X494240Y936575D03*
X499240D03*
X504240D03*
X508240D03*
X513240D03*
X516540D03*
X552314Y886500D03*
X545046Y930817D03*
X548678Y932401D03*
X554440Y930171D03*
X552938Y932401D03*
X547168Y931045D03*
X543839Y926435D03*
X543836Y904744D03*
X546073Y911614D03*
X546150Y907471D03*
X546016Y915440D03*
X546081Y923462D03*
X546224Y919574D03*
X557321Y891683D03*
X555405Y919524D03*
X557325Y919717D03*
X557331Y896791D03*
X545935Y894408D03*
X549710Y887861D03*
X544201Y893141D03*
X544265Y889954D03*
X545764Y887883D03*
X546463Y889907D03*
X556028Y895035D03*
X556006Y893293D03*
X554640Y892261D03*
X551087Y889359D03*
X548752Y890073D03*
X553343Y890301D03*
X546828Y892147D03*
X555401Y901619D03*
X555538Y898287D03*
X556758Y903038D03*
X555347Y909910D03*
X556757Y908472D03*
X555406Y907223D03*
X556847Y910906D03*
X556691Y905962D03*
X555837Y916304D03*
X556522Y918080D03*
X556745Y922312D03*
X555554Y921408D03*
X555544Y923342D03*
X555588Y904416D03*
X555760Y913403D03*
X556867Y914823D03*
X556634Y900282D03*
G54D15*
X238604Y905419D03*
G54D24*
X553654Y927841D03*
Y926463D03*
Y925086D03*
Y923708D03*
Y922330D03*
Y920952D03*
Y919574D03*
Y918196D03*
Y916818D03*
Y915440D03*
Y914062D03*
Y912684D03*
Y911306D03*
Y909928D03*
Y908550D03*
Y907172D03*
Y905794D03*
Y904416D03*
Y903038D03*
Y901660D03*
Y900282D03*
Y898904D03*
Y897526D03*
Y896149D03*
Y894771D03*
X548024D03*
Y896149D03*
Y897526D03*
Y898904D03*
Y900282D03*
Y901660D03*
Y903038D03*
Y904416D03*
Y905794D03*
Y907172D03*
Y908550D03*
Y909928D03*
Y911306D03*
Y912684D03*
Y914062D03*
Y915440D03*
Y916818D03*
Y918196D03*
Y919574D03*
Y920952D03*
Y922330D03*
Y923708D03*
Y925086D03*
Y926463D03*
Y927841D03*
G54D25*
G01X559225Y888472D02*
Y934141D01*
G03X555288Y938078I-3937J0D01*
G01X457375D01*
G03X423591Y927546I-1J-59448D01*
G02X386450Y915966I-37142J53776D01*
G01X364797D01*
G02X339049Y921252I1J65355D01*
G03X305305Y925157I-23421J-54640D01*
G01X260067Y917180D01*
X256773Y916599D01*
X253408Y916006D01*
X250114Y915425D01*
X234954Y912752D01*
G03X231760Y908191I683J-3877D01*
G01X239691Y863216D01*
G03X244252Y860022I3877J684D01*
G01X259411Y862695D01*
X262706Y863276D01*
X266071Y863870D01*
X269365Y864450D01*
X314027Y872326D01*
G02X318463Y871823I1367J-7755D01*
G03X364797Y862423I46335J109498D01*
G01X386450D01*
G03X453543Y883162I-1J118898D01*
G02X457986Y884535I4442J-6500D01*
G01X555288D01*
G03X559225Y888472I0J3937D01*
G54D16*
X242830Y906164D03*
G54D26*
G01X454692Y908157D02*
X538177D01*
G02X541844Y907173I-1J-7329D01*
G01X541846Y907172D01*
G02X541880Y907147I-78J-142D01*
G01X543891Y905135D01*
G03X545667Y903888I4452J4452D01*
G01X546045Y903510D01*
X546306D01*
X546577Y903239D01*
X547422D01*
Y902842D01*
X546687D01*
G02X546095Y902944I550J4963D01*
G01X545455Y902608D01*
G03X544428Y902686I-1031J-6769D01*
G01X452364D01*
G03X451977Y902661I5J-3081D01*
G01X450686Y902498D01*
X450154Y902431D01*
G03X449745Y902345I309J-2486D01*
G01X449744Y902344D01*
G03X444983Y900419I8105J-26897D01*
G03X442067Y898687I12862J-24974D01*
G01X440759Y897799D01*
G02X436598Y895214I-34423J50768D01*
G03X436583Y895205I353J-606D01*
G01X436576Y895201D01*
G02X417285Y886564I-55017J97019D01*
G02X401414Y882469I-35725J105656D01*
G01X401109Y882421D01*
X400804Y882373D01*
G02X385343Y881233I-15204J100784D01*
G01X364214Y881287D01*
X364213D01*
G02X325183Y889215I-1J100035D01*
G03X311769Y891030I-10033J-23674D01*
G03X311739Y891025I100J-694D01*
G01X274185Y884404D01*
G03X272697Y883485I409J-2327D01*
G03X272462Y883159I1964J-1663D01*
G01X272461Y883158D01*
G02X272290Y882929I-1285J781D01*
G02X272087Y882775I-520J475D01*
G02X271996Y882745I-149J299D01*
G01X250621Y878976D01*
G02X250440Y878946I-1472J8319D01*
G01X250097Y879355D01*
X249920Y880366D01*
G03X250293Y880546I-1027J2604D01*
G01X250294Y880547D01*
G03X250483Y880672I-919J1595D01*
G01X250605Y880695D01*
X250838Y881026D01*
G03X250875Y881079I-925J685D01*
G03X250879Y881083I-1299J1303D01*
G01X250937Y881166D01*
G03X251374Y881620I-1964J2327D01*
G01X253449Y884279D01*
G02X253682Y884546I2477J-1926D01*
G01X254246Y885121D01*
G02X255192Y885429I1561J-3188D01*
G01X287596Y891142D01*
Y891141D01*
X310302Y895145D01*
G02X311554Y895329I4182J-24101D01*
G02X315630Y895479I2934J-24285D01*
G01X315635Y895478D01*
X315785Y895470D01*
X315906Y895464D01*
G03X315928Y895463I63J1149D01*
G01X316382Y895441D01*
X316400Y895457D01*
G02X327889Y893636I-754J-41908D01*
G01X336977Y890859D01*
G03X358117Y886709I21142J51777D01*
G01X390526D01*
G03X390652Y886716I-1J1151D01*
G01X390653D01*
G03X402172Y888618I-12490J111477D01*
G03X438056Y903348I-24014J109574D01*
G02X454692Y908157I16637J-26372D01*
G01X252574Y883157D02*
X254733Y885316D01*
G01X250088Y879413D02*
X256299Y885624D01*
G01X250972Y879038D02*
X257827Y885893D01*
G01X252500Y879308D02*
X259356Y886163D01*
G01X254028Y879577D02*
X260883Y886432D01*
G01X255556Y879847D02*
X262411Y886701D01*
G01X257084Y880116D02*
X263939Y886971D01*
G01X258612Y880386D02*
X265467Y887240D01*
G01X260140Y880655D02*
X266996Y887510D01*
G01X261668Y880924D02*
X268523Y887779D01*
G01X263197Y881194D02*
X270051Y888048D01*
G01X264724Y881463D02*
X271579Y888318D01*
G01X266253Y881733D02*
X273107Y888587D01*
G01X267781Y882002D02*
X274636Y888857D01*
G01X269309Y882272D02*
X276163Y889126D01*
G01X270837Y882541D02*
X277691Y889395D01*
G01X273885Y884331D02*
X279219Y889665D01*
G01X275438Y884625D02*
X280748Y889934D01*
G01X276967Y884895D02*
X282276Y890204D01*
G01X278495Y885164D02*
X283804Y890473D01*
G01X280023Y885434D02*
X285333Y890743D01*
G01X281551Y885703D02*
X286860Y891012D01*
G01X283078Y885972D02*
X288387Y891280D01*
G01X284607Y886242D02*
X289916Y891550D01*
G01X286135Y886511D02*
X291443Y891819D01*
G01X287663Y886781D02*
X292972Y892089D01*
G01X289191Y887050D02*
X294499Y892358D01*
G01X290719Y887320D02*
X296027Y892627D01*
G01X292247Y887589D02*
X297555Y892897D01*
G01X293775Y887858D02*
X299083Y893166D01*
G01X295304Y888128D02*
X300612Y893436D01*
G01X296831Y888397D02*
X302140Y893705D01*
G01X298360Y888667D02*
X303668Y893975D01*
G01X299888Y888936D02*
X305196Y894244D01*
G01X301415Y889205D02*
X306724Y894514D01*
G01X302944Y889475D02*
X308252Y894783D01*
G01X304472Y889744D02*
X309781Y895053D01*
G01X306000Y890014D02*
X311280Y895294D01*
G01X307528Y890283D02*
X312684Y895439D01*
G01X309056Y890552D02*
X314004Y895500D01*
G01X310584Y890822D02*
X315255Y895493D01*
G01X312092Y891071D02*
X316476Y895455D01*
G01X313479Y891199D02*
X317693Y895413D01*
G01X314790Y891252D02*
X318877Y895339D01*
G01X316035Y891239D02*
X320030Y895233D01*
G01X317225Y891170D02*
X321155Y895100D01*
G01X318366Y891052D02*
X322253Y894939D01*
G01X319462Y890890D02*
X323326Y894754D01*
G01X320519Y890687D02*
X324376Y894544D01*
G01X321538Y890448D02*
X325402Y894312D01*
G01X322523Y890174D02*
X326407Y894058D01*
G01X323476Y889869D02*
X327391Y893784D01*
G01X324399Y889533D02*
X328358Y893492D01*
G01X325294Y889169D02*
X329322Y893197D01*
G01X326182Y888799D02*
X330286Y892903D01*
G01X327078Y888436D02*
X331250Y892608D01*
G01X327980Y888080D02*
X332214Y892314D01*
G01X328890Y887731D02*
X333178Y892019D01*
G01X329808Y887390D02*
X334142Y891724D01*
G01X330733Y887056D02*
X335107Y891430D01*
G01X331665Y886730D02*
X336071Y891135D01*
G01X332606Y886412D02*
X337030Y890836D01*
G01X333554Y886101D02*
X337932Y890479D01*
G01X334510Y885799D02*
X338845Y890134D01*
G01X335474Y885504D02*
X339773Y889803D01*
G01X336447Y885218D02*
X340714Y889485D01*
G01X337427Y884940D02*
X341669Y889182D01*
G01X338417Y884671D02*
X342639Y888893D01*
G01X339415Y884410D02*
X343624Y888619D01*
G01X340421Y884158D02*
X344624Y888361D01*
G01X341437Y883915D02*
X345640Y888118D01*
G01X342461Y883681D02*
X346673Y887892D01*
G01X343495Y883456D02*
X347722Y887683D01*
G01X344539Y883241D02*
X348790Y887492D01*
G01X345592Y883036D02*
X349876Y887319D01*
G01X346655Y882840D02*
X350981Y887166D01*
G01X347729Y882655D02*
X352107Y887033D01*
G01X348812Y882480D02*
X353253Y886921D01*
G01X349907Y882316D02*
X354422Y886831D01*
G01X351012Y882162D02*
X355615Y886765D01*
G01X352128Y882020D02*
X356832Y886723D01*
G01X353256Y881889D02*
X358076Y886709D01*
G01X354396Y881770D02*
X359335Y886709D01*
G01X355548Y881664D02*
X360593Y886709D01*
G01X356712Y881569D02*
X361852Y886709D01*
G01X357889Y881488D02*
X363110Y886709D01*
G01X359079Y881419D02*
X364369Y886709D01*
G01X360284Y881365D02*
X365628Y886709D01*
G01X361502Y881324D02*
X366887Y886709D01*
G01X362734Y881298D02*
X368145Y886709D01*
G01X363983Y881288D02*
X369404Y886709D01*
G01X365238Y881285D02*
X370662Y886709D01*
G01X366494Y881282D02*
X371921Y886709D01*
G01X367749Y881278D02*
X373180Y886709D01*
G01X369004Y881275D02*
X374438Y886709D01*
G01X370260Y881272D02*
X375697Y886709D01*
G01X371516Y881269D02*
X376956Y886709D01*
G01X372771Y881266D02*
X378214Y886709D01*
G01X374026Y881262D02*
X379473Y886709D01*
G01X375282Y881259D02*
X380732Y886709D01*
G01X376537Y881256D02*
X381990Y886709D01*
G01X377793Y881253D02*
X383249Y886709D01*
G01X379048Y881250D02*
X384507Y886709D01*
G01X380303Y881246D02*
X385766Y886709D01*
G01X381559Y881243D02*
X387025Y886709D01*
G01X382815Y881240D02*
X388284Y886709D01*
G01X384070Y881237D02*
X389542Y886709D01*
G01X385325Y881234D02*
X390827Y886735D01*
G01X386588Y881238D02*
X392258Y886907D01*
G01X387867Y881258D02*
X393710Y887101D01*
G01X389163Y881295D02*
X395185Y887317D01*
G01X390476Y881350D02*
X396684Y887558D01*
G01X391807Y881422D02*
X398209Y887824D01*
G01X393157Y881514D02*
X399761Y888117D01*
G01X394527Y881625D02*
X401341Y888439D01*
G01X395918Y881757D02*
X402953Y888792D01*
G01X397330Y881910D02*
X404597Y889177D01*
G01X398765Y882087D02*
X406278Y889599D01*
G01X400225Y882288D02*
X407995Y890058D01*
G01X401721Y882525D02*
X409755Y890559D01*
G01X403277Y882823D02*
X411561Y891106D01*
G01X404862Y883150D02*
X413415Y891702D01*
G01X406478Y883507D02*
X415325Y892353D01*
G01X408129Y883899D02*
X417298Y893067D01*
G01X409815Y884326D02*
X419338Y893849D01*
G01X411541Y884793D02*
X421459Y894711D01*
G01X413308Y885302D02*
X423673Y895666D01*
G01X415123Y885858D02*
X425992Y896727D01*
G01X416987Y886464D02*
X428444Y897920D01*
G01X418910Y887128D02*
X431054Y899272D01*
G01X420896Y887855D02*
X433872Y900831D01*
G01X422953Y888654D02*
X436971Y902671D01*
G01X425093Y889535D02*
X440079Y904520D01*
G01X427328Y890511D02*
X442484Y905667D01*
G01X429676Y891601D02*
X444529Y906454D01*
G01X432161Y892827D02*
X446355Y907021D01*
G01X434818Y894225D02*
X448029Y907436D01*
G01X437714Y895863D02*
X449587Y907736D01*
G01X441227Y898117D02*
X451055Y907944D01*
G01X444571Y900203D02*
X452444Y908075D01*
G01X446977Y901350D02*
X453770Y908143D01*
G01X448992Y902106D02*
X455043Y908157D01*
G01X450637Y902492D02*
X456302Y908157D01*
G01X452075Y902672D02*
X457560Y908157D01*
G01X453348Y902686D02*
X458819Y908157D01*
G01X454607Y902686D02*
X460078Y908157D01*
G01X455866Y902687D02*
X461336Y908157D01*
G01X457124Y902686D02*
X462595Y908157D01*
G01X458383Y902686D02*
X463854Y908157D01*
G01X459642Y902687D02*
X465112Y908157D01*
G01X460900Y902686D02*
X466371Y908157D01*
G01X462159Y902687D02*
X467629Y908157D01*
G01X463418Y902687D02*
X468888Y908157D01*
G01X464676Y902686D02*
X470147Y908157D01*
G01X465935Y902687D02*
X471405Y908157D01*
G01X467194Y902687D02*
X472664Y908157D01*
G01X468452Y902686D02*
X473923Y908157D01*
G01X469711Y902687D02*
X475181Y908157D01*
G01X470970Y902687D02*
X476440Y908157D01*
G01X472228Y902686D02*
X477699Y908157D01*
G01X473487Y902687D02*
X478957Y908157D01*
G01X474745Y902686D02*
X480216Y908157D01*
G01X476004Y902686D02*
X481475Y908157D01*
G01X477263Y902687D02*
X482733Y908157D01*
G01X478521Y902686D02*
X483992Y908157D01*
G01X479780Y902686D02*
X485251Y908157D01*
G01X481039Y902687D02*
X486509Y908157D01*
G01X482297Y902686D02*
X487768Y908157D01*
G01X483556Y902686D02*
X489027Y908157D01*
G01X484815Y902687D02*
X490285Y908157D01*
G01X486073Y902686D02*
X491544Y908157D01*
G01X487332Y902687D02*
X492802Y908157D01*
G01X488591Y902687D02*
X494061Y908157D01*
G01X489849Y902686D02*
X495320Y908157D01*
G01X491108Y902687D02*
X496578Y908157D01*
G01X492367Y902687D02*
X497837Y908157D01*
G01X493625Y902686D02*
X499096Y908157D01*
G01X494884Y902687D02*
X500354Y908157D01*
G01X496143Y902687D02*
X501613Y908157D01*
G01X497401Y902686D02*
X502872Y908157D01*
G01X498660Y902687D02*
X504130Y908157D01*
G01X499918Y902686D02*
X505389Y908157D01*
G01X501177Y902686D02*
X506648Y908157D01*
G01X502436Y902687D02*
X507906Y908157D01*
G01X503694Y902686D02*
X509165Y908157D01*
G01X504953Y902686D02*
X510424Y908157D01*
G01X506212Y902687D02*
X511682Y908157D01*
G01X507470Y902686D02*
X512941Y908157D01*
G01X508729Y902686D02*
X514200Y908157D01*
G01X509988Y902687D02*
X515458Y908157D01*
G01X511246Y902686D02*
X516717Y908157D01*
G01X512505Y902687D02*
X517975Y908157D01*
G01X513764Y902687D02*
X519234Y908157D01*
G01X515022Y902686D02*
X520493Y908157D01*
G01X516281Y902687D02*
X521751Y908157D01*
G01X517540Y902687D02*
X523010Y908157D01*
G01X518798Y902686D02*
X524269Y908157D01*
G01X520057Y902687D02*
X525527Y908157D01*
G01X521316Y902687D02*
X526786Y908157D01*
G01X522574Y902686D02*
X528045Y908157D01*
G01X523833Y902687D02*
X529303Y908157D01*
G01X525091Y902686D02*
X530562Y908157D01*
G01X526350Y902686D02*
X531821Y908157D01*
G01X527609Y902687D02*
X533079Y908157D01*
G01X528867Y902686D02*
X534338Y908157D01*
G01X530126Y902686D02*
X535597Y908157D01*
G01X531385Y902687D02*
X536855Y908157D01*
G01X532643Y902686D02*
X538114Y908157D01*
G01X533902Y902686D02*
X539288Y908072D01*
G01X535161Y902687D02*
X540312Y907838D01*
G01X536419Y902686D02*
X541225Y907492D01*
G01X537678Y902687D02*
X542009Y907017D01*
G01X538937Y902687D02*
X542638Y906388D01*
G01X540195Y902686D02*
X543267Y905758D01*
G01X541454Y902687D02*
X543896Y905129D01*
G01X542713Y902687D02*
X544571Y904545D01*
G01X543971Y902686D02*
X545338Y904053D01*
G01X545187Y902644D02*
X546053Y903510D01*
G01X546649Y902847D02*
X547041Y903239D01*
G01X251191Y879077D02*
X249924Y880344D01*
G01X252261Y879266D02*
X250699Y880828D01*
G01X253331Y879454D02*
X251280Y881505D01*
G01X254401Y879643D02*
X251835Y882209D01*
G01X255471Y879832D02*
X252386Y882916D01*
G01X256541Y880020D02*
X252938Y883623D01*
G01X257611Y880209D02*
X253490Y884330D01*
G01X258681Y880398D02*
X254104Y884975D01*
G01X259751Y880586D02*
X254958Y885379D01*
G01X260821Y880775D02*
X256021Y885575D01*
G01X261891Y880964D02*
X257091Y885763D01*
G01X262961Y881152D02*
X258161Y885952D01*
G01X264031Y881341D02*
X259231Y886141D01*
G01X265100Y881530D02*
X260301Y886329D01*
G01X266171Y881718D02*
X261371Y886518D01*
G01X267241Y881907D02*
X262441Y886707D01*
G01X268310Y882096D02*
X263511Y886895D01*
G01X269381Y882284D02*
X264581Y887084D01*
G01X270450Y882473D02*
X265651Y887272D01*
G01X271520Y882662D02*
X266721Y887461D01*
G01X272389Y883052D02*
X267791Y887650D01*
G01X272937Y883762D02*
X268861Y887838D01*
G01X273695Y884263D02*
X269931Y888027D01*
G01X274718Y884499D02*
X271001Y888216D01*
G01X275788Y884687D02*
X272071Y888404D01*
G01X276858Y884876D02*
X273141Y888593D01*
G01X277928Y885065D02*
X274211Y888782D01*
G01X278998Y885253D02*
X275281Y888970D01*
G01X280068Y885442D02*
X276351Y889159D01*
G01X281138Y885630D02*
X277421Y889348D01*
G01X282208Y885819D02*
X278491Y889536D01*
G01X283278Y886008D02*
X279561Y889725D01*
G01X284349Y886196D02*
X280631Y889914D01*
G01X285418Y886385D02*
X281701Y890102D01*
G01X286488Y886574D02*
X282771Y890291D01*
G01X287559Y886762D02*
X283841Y890479D01*
G01X288628Y886951D02*
X284911Y890668D01*
G01X289698Y887140D02*
X285981Y890857D01*
G01X290768Y887328D02*
X287051Y891045D01*
G01X291838Y887517D02*
X288122Y891233D01*
G01X292908Y887706D02*
X289192Y891422D01*
G01X293978Y887894D02*
X290262Y891611D01*
G01X295048Y888083D02*
X291332Y891799D01*
G01X296118Y888272D02*
X292402Y891988D01*
G01X297188Y888460D02*
X293471Y892177D01*
G01X298258Y888649D02*
X294542Y892365D01*
G01X299328Y888837D02*
X295611Y892554D01*
G01X300398Y889026D02*
X296681Y892743D01*
G01X301468Y889215D02*
X297752Y892931D01*
G01X302539Y889403D02*
X298822Y893120D01*
G01X303608Y889592D02*
X299891Y893309D01*
G01X304678Y889781D02*
X300962Y893497D01*
G01X305749Y889969D02*
X302032Y893686D01*
G01X306818Y890158D02*
X303101Y893875D01*
G01X307888Y890347D02*
X304172Y894063D01*
G01X308959Y890535D02*
X305241Y894252D01*
G01X310028Y890724D02*
X306311Y894441D01*
G01X311098Y890913D02*
X307381Y894629D01*
G01X312187Y891082D02*
X308451Y894818D01*
G01X313338Y891190D02*
X309521Y895007D01*
G01X314540Y891247D02*
X310594Y895193D01*
G01X315800Y891246D02*
X311700Y895346D01*
G01X317126Y891178D02*
X312854Y895450D01*
G01X318533Y891030D02*
X314061Y895501D01*
G01X320036Y890785D02*
X315330Y895491D01*
G01X321666Y890414D02*
X316628Y895452D01*
G01X323468Y889871D02*
X317938Y895401D01*
G01X325527Y889070D02*
X319293Y895304D01*
G01X327646Y888210D02*
X320698Y895158D01*
G01X329677Y887438D02*
X322161Y894954D01*
G01X331631Y886742D02*
X323688Y894685D01*
G01X333520Y886112D02*
X325294Y894338D01*
G01X335349Y885542D02*
X326992Y893899D01*
G01X337125Y885025D02*
X328788Y893361D01*
G01X338853Y884555D02*
X330601Y892807D01*
G01X340538Y884129D02*
X332413Y892253D01*
G01X342183Y883743D02*
X334226Y891699D01*
G01X343790Y883394D02*
X336037Y891146D01*
G01X345363Y883079D02*
X337983Y890459D01*
G01X346905Y882796D02*
X339964Y889737D01*
G01X348418Y882542D02*
X341825Y889135D01*
G01X349902Y882316D02*
X343589Y888629D01*
G01X351361Y882116D02*
X345273Y888204D01*
G01X352795Y881941D02*
X346888Y887848D01*
G01X354205Y881789D02*
X348442Y887552D01*
G01X355594Y881659D02*
X349944Y887309D01*
G01X356961Y881551D02*
X351398Y887114D01*
G01X358308Y881462D02*
X352809Y886961D01*
G01X359637Y881392D02*
X354182Y886847D01*
G01X360947Y881341D02*
X355519Y886769D01*
G01X362239Y881307D02*
X356822Y886724D01*
G01X363515Y881290D02*
X358096Y886709D01*
G01X364778Y881286D02*
X359355Y886709D01*
G01X366039Y881283D02*
X360613Y886709D01*
G01X367301Y881280D02*
X361872Y886709D01*
G01X368564Y881276D02*
X363131Y886709D01*
G01X369825Y881273D02*
X364389Y886709D01*
G01X371087Y881270D02*
X365648Y886709D01*
G01X372349Y881267D02*
X366907Y886709D01*
G01X373611Y881263D02*
X368165Y886709D01*
G01X374873Y881260D02*
X369424Y886709D01*
G01X376134Y881257D02*
X370682Y886709D01*
G01X377396Y881254D02*
X371941Y886709D01*
G01X378658Y881251D02*
X373200Y886709D01*
G01X379920Y881247D02*
X374458Y886709D01*
G01X381182Y881244D02*
X375717Y886709D01*
G01X382444Y881241D02*
X376976Y886709D01*
G01X383706Y881238D02*
X378235Y886709D01*
G01X384968Y881234D02*
X379493Y886709D01*
G01X386226Y881235D02*
X380752Y886709D01*
G01X387469Y881250D02*
X382010Y886709D01*
G01X388698Y881280D02*
X383269Y886709D01*
G01X389913Y881324D02*
X384528Y886709D01*
G01X391113Y881382D02*
X385786Y886709D01*
G01X392300Y881454D02*
X387045Y886709D01*
G01X393475Y881538D02*
X388304Y886709D01*
G01X394637Y881635D02*
X389563Y886709D01*
G01X395786Y881743D02*
X390797Y886732D01*
G01X396924Y881864D02*
X391923Y886865D01*
G01X398051Y881997D02*
X393038Y887009D01*
G01X399166Y882140D02*
X394144Y887162D01*
G01X400270Y882294D02*
X395239Y887325D01*
G01X401362Y882461D02*
X396325Y887498D01*
G01X402425Y882657D02*
X397402Y887680D01*
G01X403477Y882863D02*
X398469Y887871D01*
G01X404522Y883077D02*
X399528Y888071D01*
G01X405557Y883300D02*
X400577Y888280D01*
G01X406584Y883532D02*
X401618Y888498D01*
G01X407603Y883772D02*
X402651Y888724D01*
G01X408615Y884019D02*
X403676Y888958D01*
G01X409617Y884275D02*
X404692Y889200D01*
G01X410612Y884539D02*
X405700Y889451D01*
G01X411600Y884810D02*
X406701Y889709D01*
G01X412580Y885089D02*
X407693Y889975D01*
G01X413552Y885375D02*
X408678Y890249D01*
G01X414517Y885669D02*
X409656Y890530D01*
G01X415474Y885971D02*
X410626Y890818D01*
G01X416425Y886278D02*
X411589Y891114D01*
G01X417369Y886593D02*
X412544Y891417D01*
G01X418305Y886915D02*
X413493Y891727D01*
G01X419235Y887244D02*
X414434Y892044D01*
G01X420158Y887580D02*
X415369Y892369D01*
G01X421074Y887922D02*
X416297Y892699D01*
G01X421983Y888272D02*
X417218Y893037D01*
G01X422886Y888627D02*
X418132Y893381D01*
G01X423783Y888989D02*
X419040Y893732D01*
G01X424673Y889358D02*
X419942Y894089D01*
G01X425556Y889733D02*
X420836Y894453D01*
G01X426434Y890114D02*
X421725Y894823D01*
G01X427306Y890501D02*
X422608Y895199D01*
G01X428170Y890895D02*
X423483Y895582D01*
G01X429029Y891294D02*
X424353Y895970D01*
G01X429883Y891700D02*
X425217Y896365D01*
G01X430729Y892112D02*
X426075Y896766D01*
G01X431571Y892529D02*
X426927Y897173D01*
G01X432406Y892953D02*
X427773Y897586D01*
G01X433235Y893382D02*
X428613Y898004D01*
G01X434059Y893817D02*
X429447Y898429D01*
G01X434877Y894258D02*
X430276Y898859D01*
G01X435689Y894704D02*
X431098Y899295D01*
G01X436496Y895156D02*
X431915Y899737D01*
G01X437295Y895616D02*
X432727Y900184D01*
G01X438084Y896085D02*
X433532Y900637D01*
G01X438863Y896565D02*
X434332Y901095D01*
G01X439632Y897054D02*
X435127Y901559D01*
G01X440392Y897553D02*
X435916Y902029D01*
G01X441143Y898061D02*
X436700Y902504D01*
G01X441893Y898569D02*
X437478Y902985D01*
G01X442649Y899072D02*
X438251Y903470D01*
G01X443426Y899554D02*
X439038Y903942D01*
G01X444224Y900014D02*
X439844Y904394D01*
G01X445045Y900452D02*
X440671Y904826D01*
G01X445890Y900866D02*
X441519Y905237D01*
G01X446757Y901257D02*
X442388Y905626D01*
G01X447650Y901623D02*
X443280Y905993D01*
G01X448570Y901962D02*
X444195Y906336D01*
G01X449515Y902275D02*
X445135Y906655D01*
G01X450566Y902483D02*
X446100Y906949D01*
G01X451683Y902624D02*
X447091Y907216D01*
G01X452880Y902686D02*
X448112Y907454D01*
G01X454138Y902687D02*
X449163Y907662D01*
G01X455397Y902686D02*
X450245Y907838D01*
G01X456656Y902686D02*
X451364Y907978D01*
G01X457914Y902687D02*
X452520Y908081D01*
G01X459173Y902686D02*
X453718Y908141D01*
G01X460432Y902686D02*
X454961Y908157D01*
G01X461690Y902687D02*
X456220Y908157D01*
G01X462949Y902686D02*
X457478Y908157D01*
G01X464207Y902687D02*
X458737Y908157D01*
G01X465466Y902687D02*
X459996Y908157D01*
G01X466725Y902686D02*
X461254Y908157D01*
G01X467983Y902687D02*
X462513Y908157D01*
G01X469242Y902687D02*
X463772Y908157D01*
G01X470501Y902686D02*
X465030Y908157D01*
G01X471759Y902687D02*
X466289Y908157D01*
G01X473018Y902687D02*
X467548Y908157D01*
G01X474277Y902686D02*
X468806Y908157D01*
G01X475535Y902687D02*
X470065Y908157D01*
G01X476794Y902686D02*
X471323Y908157D01*
G01X478053Y902686D02*
X472582Y908157D01*
G01X479311Y902687D02*
X473841Y908157D01*
G01X480570Y902686D02*
X475099Y908157D01*
G01X481829Y902686D02*
X476358Y908157D01*
G01X483087Y902687D02*
X477617Y908157D01*
G01X484346Y902686D02*
X478875Y908157D01*
G01X485605Y902686D02*
X480134Y908157D01*
G01X486863Y902687D02*
X481393Y908157D01*
G01X488122Y902686D02*
X482651Y908157D01*
G01X489380Y902687D02*
X483910Y908157D01*
G01X490639Y902687D02*
X485169Y908157D01*
G01X491898Y902686D02*
X486427Y908157D01*
G01X493156Y902687D02*
X487686Y908157D01*
G01X494415Y902687D02*
X488945Y908157D01*
G01X495674Y902686D02*
X490203Y908157D01*
G01X496932Y902687D02*
X491462Y908157D01*
G01X498191Y902687D02*
X492721Y908157D01*
G01X499450Y902686D02*
X493979Y908157D01*
G01X500708Y902687D02*
X495238Y908157D01*
G01X501967Y902686D02*
X496496Y908157D01*
G01X503226Y902686D02*
X497755Y908157D01*
G01X504484Y902687D02*
X499014Y908157D01*
G01X505743Y902686D02*
X500272Y908157D01*
G01X507002Y902686D02*
X501531Y908157D01*
G01X508260Y902687D02*
X502790Y908157D01*
G01X509519Y902686D02*
X504048Y908157D01*
G01X510778Y902686D02*
X505307Y908157D01*
G01X512036Y902687D02*
X506566Y908157D01*
G01X513295Y902686D02*
X507824Y908157D01*
G01X514553Y902687D02*
X509083Y908157D01*
G01X515812Y902687D02*
X510342Y908157D01*
G01X517071Y902686D02*
X511600Y908157D01*
G01X518329Y902687D02*
X512859Y908157D01*
G01X519588Y902687D02*
X514118Y908157D01*
G01X520847Y902686D02*
X515376Y908157D01*
G01X522105Y902687D02*
X516635Y908157D01*
G01X523364Y902687D02*
X517894Y908157D01*
G01X524623Y902686D02*
X519152Y908157D01*
G01X525881Y902687D02*
X520411Y908157D01*
G01X527140Y902686D02*
X521669Y908157D01*
G01X528399Y902686D02*
X522928Y908157D01*
G01X529657Y902687D02*
X524187Y908157D01*
G01X530916Y902686D02*
X525445Y908157D01*
G01X532175Y902686D02*
X526704Y908157D01*
G01X533433Y902687D02*
X527963Y908157D01*
G01X534692Y902686D02*
X529221Y908157D01*
G01X535951Y902686D02*
X530480Y908157D01*
G01X537209Y902687D02*
X531739Y908157D01*
G01X538468Y902686D02*
X532997Y908157D01*
G01X539726Y902687D02*
X534256Y908157D01*
G01X540985Y902687D02*
X535515Y908157D01*
G01X542244Y902686D02*
X536773Y908157D01*
G01X543502Y902687D02*
X538032Y908157D01*
G01X544770Y902678D02*
X539393Y908055D01*
G01X545876Y902830D02*
X541204Y907502D01*
G01X547122Y902843D02*
X546726Y903239D01*
G01X242665Y878531D02*
X239609Y877992D01*
G01X241708Y883959D02*
X238666Y883344D01*
G01X241230Y886673D02*
X239278Y886329D01*
G03X238195Y885766I351J-1999D01*
G01X238155Y885725D01*
G01X242187Y881245D02*
X239362Y880747D01*
X239167Y880883D01*
G01X248928Y875437D02*
G03X250343Y876052I-1J1937D01*
G01X250439Y876154D01*
G02X252773Y877420I3062J-2861D01*
G01X272693Y880932D01*
G03X272980Y881021I-202J1159D01*
G01X273004Y881032D01*
G03X273638Y881543I-695J1511D01*
G01X273910Y881904D01*
G02X274906Y882514I1273J-960D01*
G01X287941Y884811D01*
X310979Y888873D01*
G02X324335Y887389I4224J-22830D01*
G03X364232Y879213I39897J93256D01*
G01X385797D01*
G03X439284Y894317I1J102254D01*
G01X441430Y895634D01*
G03X443076Y896735I-13494J21954D01*
G02X449915Y900273I15127J-20862D01*
G02X450208Y900342I507J-1498D01*
G01X452475Y900654D01*
G02X454261Y900778I1786J-12806D01*
G01X542879D01*
G02X543829Y900627I0J-3065D01*
G01X544296Y900475D01*
G02X545156Y900045I-1007J-3090D01*
G02X545549Y899724I-1997J-2846D01*
G03X547528Y898904I1979J1978D01*
G01X547236Y901660D02*
G02X545832Y901822I-2J6146D01*
G03X544428Y901985I-1406J-5983D01*
G01X452364D01*
G03X452065Y901966I1J-2380D01*
G01X450241Y901735D01*
G03X449946Y901673I222J-1790D01*
G03X442461Y898107I7903J-26226D01*
G01X441153Y897219D01*
G02X436944Y894604I-34818J51347D01*
G01X436929Y894595D01*
G02X401531Y881778I-55368J97626D01*
G01X400911Y881680D01*
G02X385341Y880532I-15309J101477D01*
G01X364213Y880586D01*
G02X324909Y888570I0J100736D01*
G03X311861Y890335I-9758J-23029D01*
G01X287941Y886117D01*
X274307Y883714D01*
G03X273249Y883052I288J-1637D01*
G01X273246Y883048D01*
G03X273060Y882794I1412J-1229D01*
G02X272808Y882457I-1884J1146D01*
G02X272402Y882149I-1038J947D01*
G02X272117Y882055I-463J925D01*
G01X250743Y878286D01*
G02X248449Y878151I-1727J9797D01*
G01X546661Y900339D02*
X546206Y900524D01*
G02X545947Y900678I380J934D01*
G03X545515Y901005I-4396J-5359D01*
G03X545241Y901130I-490J-711D01*
G01X544439Y901341D01*
G03X544142Y901379I-295J-1129D01*
G01X453038D01*
G03X452739Y901360I3J-2405D01*
G01X450479Y901077D01*
G03X450185Y901013I208J-1663D01*
G03X442790Y897352I7993J-25444D01*
G02X441487Y896487I-15395J21777D01*
G01X439235Y895086D01*
G02X386019Y879884I-53217J85545D01*
G01X364246D01*
G02X324606Y887959I0J101333D01*
G03X311004Y889512I-9420J-22162D01*
G01X287941Y885446D01*
X274407Y883061D01*
G03X274120Y882971I200J-1139D01*
G03X273572Y882481I538J-1153D01*
G02X273435Y882273I-3233J1980D01*
G03X273430Y882266I487J-353D01*
G01X273288Y882078D01*
G02X273254Y882036I-2963J2364D01*
G01X273194Y881963D01*
G02X272439Y881502I-1053J875D01*
G01X251510Y877807D01*
G03X250365Y877398I631J-3573D01*
G02X248689Y876794I-2645J4712D01*
G01X243144Y875817D02*
X240210Y875300D01*
G01X546188Y929750D02*
Y928242D01*
X546403Y928027D01*
X547135D01*
Y927639D01*
X545643D01*
X544722Y926718D01*
G03X544584Y926590I1695J-1966D01*
G01X543996Y926002D01*
G02X540980Y924752I-3017J3016D01*
G01X527033D01*
Y924751D01*
X454494D01*
G03X427606Y916969I1J-50344D01*
G01X426493Y916266D01*
X426492D01*
X424816Y915207D01*
G02X394303Y904367I-39269J62173D01*
G01X389593Y903802D01*
X358114D01*
G02X343398Y906697I1J38858D01*
G03X342275Y907114I-5396J-12811D01*
G03X341667Y907297I-4687J-14469D01*
G01X333252Y909848D01*
G03X314218Y912558I-18314J-60428D01*
G03X307219Y911960I822J-50883D01*
G03X307196Y911957I137J-1143D01*
G01X251371Y902117D01*
G02X248124Y902868I-693J4398D01*
G01X247635Y903209D01*
G03X247505Y903295I-1713J-2448D01*
G01X246118Y904266D01*
X246112D01*
X245622Y904757D01*
X245380Y906134D01*
X245134Y906306D01*
X244718Y908671D01*
X244768Y908706D01*
X245178Y908425D01*
X245342Y908310D01*
X246559Y908542D01*
X301399Y918212D01*
Y918199D01*
X305514Y918925D01*
X305607Y918942D01*
X305621Y918944D01*
X305640Y918947D01*
X305662Y918951D01*
X305686Y918955D01*
X305708Y918959D01*
X305750Y918966D01*
X305862Y918986D01*
X305876Y918989D01*
X305899Y918993D01*
X305939Y919000D01*
X306039Y919030D01*
G02X315129Y919900I8612J-42057D01*
G01X315130D01*
X315134D01*
X315140D01*
G02X317013Y919867I-2J-53295D01*
G02X327000Y918561I-1886J-53261D01*
G02X329170Y918017I-11872J-51956D01*
G02X332854Y916867I-14028J-51416D01*
G02X336124Y915591I-17728J-50260D01*
G03X336290Y915520I28204J65712D01*
G03X336587Y915394I28076J65766D01*
G03X337412Y915053I27728J65914D01*
G03X337559Y914995I26319J66489D01*
G03X337634Y914965I26594J66377D01*
G03X338094Y914782I26663J66351D01*
G03X338175Y914749I27019J66203D01*
G03X339069Y914406I26061J66590D01*
G03X340562Y913862I25226J66911D01*
G03X345348Y912364I23740J67453D01*
G03X364288Y909810I18941J68955D01*
G01X385953D01*
G03X418759Y917532I1389J67646D01*
G02X419128Y917728I424J-352D01*
G03X423631Y920351I-31779J59733D01*
G01X427287Y922645D01*
X427309Y922660D01*
G02X427376Y922702I325J-444D01*
G01X427377D01*
X427394Y922711D01*
X427420Y922727D01*
X429309Y923911D01*
G02X442009Y929214I32103J-59023D01*
G01X442198Y929271D01*
G02X451115Y931283I19213J-64383D01*
G02X451686Y931368I10178J-66412D01*
G01X527835D01*
Y931369D01*
X545617D01*
X546048Y931800D01*
X546263Y931972D01*
X546330Y931894D01*
X546400Y931895D01*
Y929962D01*
X546188Y929750D01*
G01X244815Y908123D02*
X245141Y908450D01*
G01X245003Y907053D02*
X246476Y908526D01*
G01X245359Y906150D02*
X248006Y908797D01*
G01X245563Y905096D02*
X249533Y909066D01*
G01X246053Y904327D02*
X251062Y909336D01*
G01X246785Y903800D02*
X252590Y909605D01*
G01X247526Y903283D02*
X254119Y909875D01*
G01X248272Y902770D02*
X255646Y910144D01*
G01X249109Y902349D02*
X257174Y910413D01*
G01X250118Y902099D02*
X258702Y910683D01*
G01X251401Y902123D02*
X260230Y910952D01*
G01X252929Y902392D02*
X261759Y911222D01*
G01X254456Y902661D02*
X263286Y911491D01*
G01X255984Y902931D02*
X264815Y911761D01*
G01X257512Y903200D02*
X266343Y912030D01*
G01X259040Y903469D02*
X267872Y912300D01*
G01X260568Y903739D02*
X269399Y912569D01*
G01X262096Y904008D02*
X270928Y912839D01*
G01X263624Y904277D02*
X272455Y913108D01*
G01X265152Y904547D02*
X273983Y913377D01*
G01X266680Y904816D02*
X275511Y913647D01*
G01X268208Y905085D02*
X277039Y913916D01*
G01X269736Y905355D02*
X278567Y914186D01*
G01X271264Y905624D02*
X280095Y914455D01*
G01X272792Y905893D02*
X281624Y914725D01*
G01X274320Y906163D02*
X283152Y914994D01*
G01X275848Y906432D02*
X284681Y915264D01*
G01X277376Y906701D02*
X286208Y915533D01*
G01X278904Y906971D02*
X287736Y915802D01*
G01X280432Y907240D02*
X289264Y916072D01*
G01X281960Y907509D02*
X290792Y916341D01*
G01X283488Y907779D02*
X292320Y916611D01*
G01X285016Y908048D02*
X293848Y916880D01*
G01X286544Y908317D02*
X295377Y917150D01*
G01X288072Y908587D02*
X296905Y917419D01*
G01X289600Y908856D02*
X298433Y917689D01*
G01X291128Y909125D02*
X299961Y917958D01*
G01X292656Y909395D02*
X301473Y918212D01*
G01X294184Y909664D02*
X303001Y918481D01*
G01X295712Y909933D02*
X304530Y918751D01*
G01X297240Y910203D02*
X306074Y919037D01*
G01X298768Y910472D02*
X307618Y919322D01*
G01X300296Y910741D02*
X309096Y919541D01*
G01X301823Y911010D02*
X310516Y919703D01*
G01X303352Y911280D02*
X311885Y919813D01*
G01X304880Y911549D02*
X313209Y919878D01*
G01X306407Y911818D02*
X314491Y919902D01*
G01X307911Y912063D02*
X315744Y919896D01*
G01X309353Y912246D02*
X316975Y919868D01*
G01X310749Y912384D02*
X318178Y919812D01*
G01X312104Y912480D02*
X319356Y919732D01*
G01X313422Y912539D02*
X320510Y919627D01*
G01X314703Y912562D02*
X321641Y919500D01*
G01X315954Y912554D02*
X322752Y919352D01*
G01X317181Y912523D02*
X323841Y919183D01*
G01X318385Y912468D02*
X324911Y918994D01*
G01X319568Y912393D02*
X325962Y918787D01*
G01X320730Y912296D02*
X326996Y918561D01*
G01X321874Y912181D02*
X328012Y918319D01*
G01X322998Y912046D02*
X329011Y918059D01*
G01X324104Y911894D02*
X329995Y917784D01*
G01X325193Y911724D02*
X330962Y917493D01*
G01X326266Y911538D02*
X331915Y917187D01*
G01X327322Y911336D02*
X332853Y916867D01*
G01X328364Y911119D02*
X333776Y916531D01*
G01X329390Y910887D02*
X334686Y916182D01*
G01X330402Y910640D02*
X335582Y915819D01*
G01X331400Y910379D02*
X336466Y915445D01*
G01X332384Y910105D02*
X337355Y915076D01*
G01X333355Y909817D02*
X338255Y914717D01*
G01X334321Y909524D02*
X339166Y914369D01*
G01X335287Y909232D02*
X340086Y914031D01*
G01X336253Y908939D02*
X341017Y913703D01*
G01X337219Y908646D02*
X341959Y913386D01*
G01X338185Y908353D02*
X342912Y913080D01*
G01X339151Y908060D02*
X343876Y912785D01*
G01X340117Y907768D02*
X344851Y912502D01*
G01X341082Y907475D02*
X345838Y912231D01*
G01X342051Y907185D02*
X346838Y911971D01*
G01X342988Y906863D02*
X347850Y911725D01*
G01X343885Y906502D02*
X348874Y911491D01*
G01X344798Y906156D02*
X349912Y911270D01*
G01X345730Y905829D02*
X350963Y911062D01*
G01X346682Y905523D02*
X352028Y910868D01*
G01X347655Y905237D02*
X353107Y910689D01*
G01X348650Y904973D02*
X354201Y910524D01*
G01X349667Y904732D02*
X355311Y910375D01*
G01X350709Y904515D02*
X356436Y910242D01*
G01X351776Y904323D02*
X357578Y910125D01*
G01X352869Y904158D02*
X358737Y910025D01*
G01X353992Y904022D02*
X359913Y909943D01*
G01X355145Y903916D02*
X361109Y909880D01*
G01X356331Y903844D02*
X362324Y909836D01*
G01X357552Y903807D02*
X363559Y909813D01*
G01X358807Y903802D02*
X364815Y909810D01*
G01X360066Y903803D02*
X366073Y909810D01*
G01X361324Y903802D02*
X367332Y909810D01*
G01X362583Y903803D02*
X368590Y909810D01*
G01X363842Y903803D02*
X369849Y909810D01*
G01X365100Y903802D02*
X371108Y909810D01*
G01X366359Y903803D02*
X372366Y909810D01*
G01X367618Y903803D02*
X373625Y909810D01*
G01X368876Y903802D02*
X374884Y909810D01*
G01X370135Y903803D02*
X376142Y909810D01*
G01X371394Y903803D02*
X377401Y909810D01*
G01X372652Y903802D02*
X378660Y909810D01*
G01X373911Y903803D02*
X379918Y909810D01*
G01X375169Y903802D02*
X381177Y909810D01*
G01X376428Y903802D02*
X382436Y909810D01*
G01X377687Y903803D02*
X383694Y909810D01*
G01X378945Y903802D02*
X384953Y909810D01*
G01X380204Y903802D02*
X386207Y909805D01*
G01X381463Y903803D02*
X387456Y909795D01*
G01X382721Y903802D02*
X388728Y909809D01*
G01X383980Y903802D02*
X390027Y909849D01*
G01X385239Y903803D02*
X391350Y909914D01*
G01X386497Y903802D02*
X392703Y910008D01*
G01X387756Y903803D02*
X394086Y910132D01*
G01X389015Y903803D02*
X395501Y910289D01*
G01X390366Y903895D02*
X396952Y910481D01*
G01X391796Y904067D02*
X398441Y910712D01*
G01X393226Y904238D02*
X399973Y910985D01*
G01X394658Y904411D02*
X401551Y911304D01*
G01X396112Y904607D02*
X403182Y911676D01*
G01X397603Y904839D02*
X404869Y912105D01*
G01X399133Y905110D02*
X406624Y912601D01*
G01X400704Y905423D02*
X408455Y913174D01*
G01X402324Y905784D02*
X410377Y913837D01*
G01X403994Y906196D02*
X412409Y914610D01*
G01X405723Y906666D02*
X414577Y915519D01*
G01X407520Y907204D02*
X416918Y916602D01*
G01X409392Y907818D02*
X419505Y917930D01*
G01X411355Y908522D02*
X422453Y919619D01*
G01X413426Y909334D02*
X425810Y921718D01*
G01X415629Y910279D02*
X429182Y923831D01*
G01X418004Y911395D02*
X431816Y925207D01*
G01X420608Y912741D02*
X434177Y926309D01*
G01X423554Y914428D02*
X436357Y927230D01*
G01X426923Y916538D02*
X438396Y928011D01*
G01X430077Y918434D02*
X440326Y928682D01*
G01X432683Y919781D02*
X442162Y929260D01*
G01X434974Y920813D02*
X443921Y929760D01*
G01X437053Y921634D02*
X445612Y930192D01*
G01X438979Y922301D02*
X447244Y930566D01*
G01X440786Y922849D02*
X448824Y930887D01*
G01X442496Y923301D02*
X450357Y931161D01*
G01X444126Y923672D02*
X451822Y931368D01*
G01X445688Y923975D02*
X453081Y931368D01*
G01X447190Y924219D02*
X454339Y931368D01*
G01X448640Y924410D02*
X455598Y931368D01*
G01X450043Y924554D02*
X456857Y931368D01*
G01X451404Y924657D02*
X458115Y931368D01*
G01X452726Y924720D02*
X459374Y931368D01*
G01X454014Y924749D02*
X460633Y931368D01*
G01X455275Y924751D02*
X461892Y931368D01*
G01X456534Y924752D02*
X463150Y931368D01*
G01X457792Y924751D02*
X464409Y931368D01*
G01X459051Y924752D02*
X465667Y931368D01*
G01X460310Y924752D02*
X466926Y931368D01*
G01X461568Y924751D02*
X468185Y931368D01*
G01X462827Y924752D02*
X469443Y931368D01*
G01X464086Y924752D02*
X470702Y931368D01*
G01X465344Y924751D02*
X471961Y931368D01*
G01X466603Y924752D02*
X473219Y931368D01*
G01X467862Y924752D02*
X474478Y931368D01*
G01X469120Y924751D02*
X475737Y931368D01*
G01X470379Y924752D02*
X476995Y931368D01*
G01X471637Y924751D02*
X478254Y931368D01*
G01X472896Y924751D02*
X479513Y931368D01*
G01X474155Y924752D02*
X480771Y931368D01*
G01X475413Y924751D02*
X482030Y931368D01*
G01X476672Y924751D02*
X483289Y931368D01*
G01X477931Y924752D02*
X484547Y931368D01*
G01X479189Y924751D02*
X485806Y931368D01*
G01X480448Y924751D02*
X487065Y931368D01*
G01X481707Y924752D02*
X488323Y931368D01*
G01X482965Y924751D02*
X489582Y931368D01*
G01X484224Y924752D02*
X490840Y931368D01*
G01X485483Y924752D02*
X492099Y931368D01*
G01X486741Y924751D02*
X493358Y931368D01*
G01X488000Y924752D02*
X494616Y931368D01*
G01X489259Y924752D02*
X495875Y931368D01*
G01X490517Y924751D02*
X497134Y931368D01*
G01X491776Y924752D02*
X498392Y931368D01*
G01X493035Y924752D02*
X499651Y931368D01*
G01X494293Y924751D02*
X500910Y931368D01*
G01X495552Y924752D02*
X502168Y931368D01*
G01X496810Y924751D02*
X503427Y931368D01*
G01X498069Y924751D02*
X504686Y931368D01*
G01X499328Y924752D02*
X505944Y931368D01*
G01X500586Y924751D02*
X507203Y931368D01*
G01X501845Y924751D02*
X508462Y931368D01*
G01X503104Y924752D02*
X509720Y931368D01*
G01X504362Y924751D02*
X510979Y931368D01*
G01X505621Y924751D02*
X512238Y931368D01*
G01X506880Y924752D02*
X513496Y931368D01*
G01X508138Y924751D02*
X514755Y931368D01*
G01X509397Y924752D02*
X516013Y931368D01*
G01X510656Y924752D02*
X517272Y931368D01*
G01X511914Y924751D02*
X518531Y931368D01*
G01X513173Y924752D02*
X519789Y931368D01*
G01X514432Y924752D02*
X521048Y931368D01*
G01X515690Y924751D02*
X522307Y931368D01*
G01X516949Y924752D02*
X523565Y931368D01*
G01X518208Y924752D02*
X524824Y931368D01*
G01X519466Y924751D02*
X526083Y931368D01*
G01X520725Y924752D02*
X527341Y931368D01*
G01X521983Y924751D02*
X528601Y931369D01*
G01X523242Y924751D02*
X529860Y931369D01*
G01X524501Y924752D02*
X531118Y931369D01*
G01X525759Y924751D02*
X532377Y931369D01*
G01X527018Y924751D02*
X533636Y931369D01*
G01X528278Y924753D02*
X534894Y931369D01*
G01X529536Y924752D02*
X536153Y931369D01*
G01X530795Y924752D02*
X537412Y931369D01*
G01X532054Y924753D02*
X538670Y931369D01*
G01X533312Y924752D02*
X539929Y931369D01*
G01X534571Y924753D02*
X541187Y931369D01*
G01X535830Y924753D02*
X542446Y931369D01*
G01X537088Y924752D02*
X543705Y931369D01*
G01X538347Y924753D02*
X544963Y931369D01*
G01X539606Y924753D02*
X546400Y931547D01*
G01X540864Y924752D02*
X546400Y930288D01*
G01X542348Y924978D02*
X546188Y928818D01*
G01X546269Y927640D02*
X546656Y928027D01*
G01X246191Y904215D02*
X245617Y904789D01*
G01X249421Y902244D02*
X245087Y906578D01*
G01X250857Y902067D02*
X244818Y908106D01*
G01X251961Y902221D02*
X245788Y908394D01*
G01X253031Y902410D02*
X246848Y908592D01*
G01X254101Y902599D02*
X247918Y908781D01*
G01X255171Y902787D02*
X248988Y908970D01*
G01X256241Y902976D02*
X250058Y909158D01*
G01X257311Y903165D02*
X251128Y909347D01*
G01X258381Y903353D02*
X252198Y909536D01*
G01X259451Y903542D02*
X253268Y909725D01*
G01X260521Y903730D02*
X254338Y909913D01*
G01X261591Y903919D02*
X255408Y910102D01*
G01X262661Y904108D02*
X256478Y910291D01*
G01X263731Y904296D02*
X257548Y910479D01*
G01X264801Y904485D02*
X258618Y910668D01*
G01X265871Y904673D02*
X259688Y910856D01*
G01X266941Y904862D02*
X260758Y911045D01*
G01X268011Y905051D02*
X261828Y911234D01*
G01X269082Y905239D02*
X262898Y911423D01*
G01X270151Y905428D02*
X263968Y911611D01*
G01X271221Y905617D02*
X265038Y911800D01*
G01X272291Y905805D02*
X266108Y911989D01*
G01X273361Y905994D02*
X267178Y912177D01*
G01X274432Y906182D02*
X268248Y912366D01*
G01X275501Y906371D02*
X269318Y912555D01*
G01X276572Y906560D02*
X270388Y912743D01*
G01X277642Y906748D02*
X271458Y912932D01*
G01X278712Y906937D02*
X272528Y913121D01*
G01X279782Y907125D02*
X273598Y913309D01*
G01X280852Y907314D02*
X274668Y913498D01*
G01X281922Y907503D02*
X275738Y913687D01*
G01X282992Y907691D02*
X276808Y913875D01*
G01X284062Y907880D02*
X277878Y914064D01*
G01X285132Y908068D02*
X278947Y914253D01*
G01X286202Y908257D02*
X280018Y914441D01*
G01X287272Y908446D02*
X281088Y914630D01*
G01X288342Y908634D02*
X282157Y914819D01*
G01X289412Y908823D02*
X283228Y915007D01*
G01X290482Y909011D02*
X284297Y915196D01*
G01X291552Y909200D02*
X285367Y915385D01*
G01X292622Y909389D02*
X286438Y915573D01*
G01X293692Y909577D02*
X287507Y915762D01*
G01X294762Y909766D02*
X288577Y915951D01*
G01X295832Y909955D02*
X289648Y916139D01*
G01X296902Y910143D02*
X290717Y916328D01*
G01X297972Y910332D02*
X291787Y916517D01*
G01X299043Y910520D02*
X292857Y916705D01*
G01X300112Y910709D02*
X293927Y916894D01*
G01X301182Y910898D02*
X294997Y917083D01*
G01X302253Y911086D02*
X296067Y917271D01*
G01X303322Y911275D02*
X297137Y917460D01*
G01X304393Y911463D02*
X298207Y917649D01*
G01X305463Y911652D02*
X299277Y917837D01*
G01X306533Y911841D02*
X300347Y918026D01*
G01X307612Y912020D02*
X301428Y918204D01*
G01X308720Y912171D02*
X302498Y918392D01*
G01X309849Y912300D02*
X303568Y918581D01*
G01X311003Y912405D02*
X304638Y918770D01*
G01X312182Y912485D02*
X305708Y918959D01*
G01X313387Y912538D02*
X306755Y919170D01*
G01X314622Y912562D02*
X307827Y919356D01*
G01X315887Y912555D02*
X308924Y919518D01*
G01X317178Y912523D02*
X310047Y919654D01*
G01X318498Y912462D02*
X311197Y919763D01*
G01X319847Y912372D02*
X312377Y919842D01*
G01X321229Y912248D02*
X313588Y919889D01*
G01X322646Y912090D02*
X314834Y919902D01*
G01X324100Y911894D02*
X316103Y919891D01*
G01X325596Y911657D02*
X317402Y919851D01*
G01X327139Y911373D02*
X318734Y919778D01*
G01X328733Y911037D02*
X320103Y919667D01*
G01X330385Y910644D02*
X321513Y919516D01*
G01X332103Y910185D02*
X322968Y919320D01*
G01X333892Y909654D02*
X324472Y919074D01*
G01X335698Y909107D02*
X326033Y918772D01*
G01X337505Y908559D02*
X327658Y918406D01*
G01X339311Y908012D02*
X329357Y917965D01*
G01X341117Y907464D02*
X331144Y917437D01*
G01X342971Y906869D02*
X333037Y916802D01*
G01X345024Y906074D02*
X335068Y916030D01*
G01X346901Y905456D02*
X337230Y915127D01*
G01X348641Y904975D02*
X339294Y914321D01*
G01X350272Y904602D02*
X341251Y913623D01*
G01X351817Y904316D02*
X343115Y913017D01*
G01X353289Y904103D02*
X344904Y912487D01*
G01X354697Y903953D02*
X346624Y912026D01*
G01X356052Y903857D02*
X348284Y911624D01*
G01X357357Y903810D02*
X349894Y911273D01*
G01X358624Y903802D02*
X351455Y910971D01*
G01X359882Y903803D02*
X352974Y910710D01*
G01X361141Y903802D02*
X354454Y910489D01*
G01X362399Y903803D02*
X355899Y910303D01*
G01X363658Y903803D02*
X357310Y910151D01*
G01X364917Y903802D02*
X358690Y910029D01*
G01X366175Y903803D02*
X360042Y909936D01*
G01X367434Y903803D02*
X361367Y909869D01*
G01X368693Y903802D02*
X362667Y909828D01*
G01X369951Y903803D02*
X363944Y909810D01*
G01X371210Y903803D02*
X365203Y909810D01*
G01X372469Y903802D02*
X366461Y909810D01*
G01X373727Y903803D02*
X367720Y909810D01*
G01X374986Y903802D02*
X368978Y909810D01*
G01X376245Y903802D02*
X370237Y909810D01*
G01X377503Y903803D02*
X371496Y909810D01*
G01X378762Y903802D02*
X372754Y909810D01*
G01X380021Y903802D02*
X374013Y909810D01*
G01X381279Y903803D02*
X375272Y909810D01*
G01X382538Y903802D02*
X376530Y909810D01*
G01X383797Y903802D02*
X377789Y909810D01*
G01X385055Y903803D02*
X379048Y909810D01*
G01X386314Y903802D02*
X380306Y909810D01*
G01X387572Y903803D02*
X381565Y909810D01*
G01X388831Y903803D02*
X382824Y909810D01*
G01X390037Y903856D02*
X384083Y909810D01*
G01X391160Y903991D02*
X385341Y909810D01*
G01X392285Y904125D02*
X386610Y909799D01*
G01X393408Y904260D02*
X387871Y909797D01*
G01X394532Y904395D02*
X389109Y909818D01*
G01X395645Y904541D02*
X390325Y909861D01*
G01X396743Y904702D02*
X391520Y909924D01*
G01X397826Y904877D02*
X392695Y910007D01*
G01X398895Y905066D02*
X393852Y910109D01*
G01X399951Y905269D02*
X394991Y910229D01*
G01X400994Y905485D02*
X396113Y910366D01*
G01X402023Y905714D02*
X397217Y910520D01*
G01X403040Y905956D02*
X398307Y910689D01*
G01X404046Y906209D02*
X399380Y910875D01*
G01X405039Y906475D02*
X400439Y911075D01*
G01X406020Y906752D02*
X401483Y911289D01*
G01X406990Y907040D02*
X402512Y911518D01*
G01X407949Y907340D02*
X403529Y911760D01*
G01X408898Y907650D02*
X404533Y912015D01*
G01X409835Y907971D02*
X405523Y912284D01*
G01X410762Y908303D02*
X406501Y912564D01*
G01X411679Y908645D02*
X407467Y912857D01*
G01X412587Y908996D02*
X408420Y913162D01*
G01X413483Y909358D02*
X409362Y913479D01*
G01X414371Y909729D02*
X410293Y913807D01*
G01X415249Y910110D02*
X411213Y914146D01*
G01X416117Y910500D02*
X412121Y914496D01*
G01X416976Y910900D02*
X413019Y914857D01*
G01X417826Y911308D02*
X413906Y915228D01*
G01X418667Y911726D02*
X414783Y915610D01*
G01X419500Y912152D02*
X415650Y916002D01*
G01X420323Y912587D02*
X416507Y916403D01*
G01X421138Y913031D02*
X417354Y916815D01*
G01X421944Y913484D02*
X418191Y917237D01*
G01X422741Y913945D02*
X418991Y917696D01*
G01X423531Y914414D02*
X419836Y918109D01*
G01X424312Y914892D02*
X420645Y918559D01*
G01X425085Y915377D02*
X421444Y919018D01*
G01X425856Y915865D02*
X422234Y919487D01*
G01X426628Y916352D02*
X423016Y919964D01*
G01X427399Y916839D02*
X423789Y920449D01*
G01X428174Y917323D02*
X424562Y920935D01*
G01X428960Y917796D02*
X425336Y921420D01*
G01X429758Y918256D02*
X426109Y921905D01*
G01X430570Y918703D02*
X426882Y922390D01*
G01X431393Y919138D02*
X427657Y922875D01*
G01X432230Y919561D02*
X428431Y923360D01*
G01X433079Y919970D02*
X429204Y923845D01*
G01X433942Y920365D02*
X430017Y924290D01*
G01X434819Y920747D02*
X430846Y924720D01*
G01X435709Y921116D02*
X431684Y925141D01*
G01X436614Y921469D02*
X432531Y925552D01*
G01X437534Y921809D02*
X433389Y925953D01*
G01X438468Y922133D02*
X434257Y926344D01*
G01X439418Y922441D02*
X435135Y926724D01*
G01X440384Y922734D02*
X436023Y927095D01*
G01X441367Y923010D02*
X436923Y927454D01*
G01X442366Y923269D02*
X437833Y927803D01*
G01X443384Y923510D02*
X438754Y928140D01*
G01X444420Y923733D02*
X439686Y928467D01*
G01X445474Y923937D02*
X440630Y928781D01*
G01X446549Y924121D02*
X441586Y929084D01*
G01X447646Y924283D02*
X442553Y929375D01*
G01X448763Y924424D02*
X443533Y929654D01*
G01X449904Y924542D02*
X444526Y929920D01*
G01X451070Y924635D02*
X445532Y930173D01*
G01X452261Y924702D02*
X446551Y930412D01*
G01X453481Y924741D02*
X447584Y930638D01*
G01X454729Y924751D02*
X448631Y930849D01*
G01X455988Y924751D02*
X449693Y931046D01*
G01X457246Y924752D02*
X450770Y931228D01*
G01X458505Y924751D02*
X451888Y931368D01*
G01X459764Y924751D02*
X453147Y931368D01*
G01X461022Y924752D02*
X454406Y931368D01*
G01X462281Y924751D02*
X455664Y931368D01*
G01X463540Y924751D02*
X456923Y931368D01*
G01X464798Y924752D02*
X458182Y931368D01*
G01X466057Y924751D02*
X459440Y931368D01*
G01X467315Y924752D02*
X460699Y931368D01*
G01X468574Y924752D02*
X461958Y931368D01*
G01X469833Y924751D02*
X463216Y931368D01*
G01X471091Y924752D02*
X464475Y931368D01*
G01X472350Y924752D02*
X465734Y931368D01*
G01X473609Y924751D02*
X466992Y931368D01*
G01X474867Y924752D02*
X468251Y931368D01*
G01X476126Y924752D02*
X469510Y931368D01*
G01X477385Y924751D02*
X470768Y931368D01*
G01X478643Y924752D02*
X472027Y931368D01*
G01X479902Y924751D02*
X473285Y931368D01*
G01X481161Y924751D02*
X474544Y931368D01*
G01X482419Y924752D02*
X475803Y931368D01*
G01X483678Y924751D02*
X477061Y931368D01*
G01X484937Y924751D02*
X478320Y931368D01*
G01X486195Y924752D02*
X479579Y931368D01*
G01X487454Y924751D02*
X480837Y931368D01*
G01X488713Y924751D02*
X482096Y931368D01*
G01X489971Y924752D02*
X483355Y931368D01*
G01X491230Y924751D02*
X484613Y931368D01*
G01X492488Y924752D02*
X485872Y931368D01*
G01X493747Y924752D02*
X487131Y931368D01*
G01X495006Y924751D02*
X488389Y931368D01*
G01X496264Y924752D02*
X489648Y931368D01*
G01X497523Y924752D02*
X490907Y931368D01*
G01X498782Y924751D02*
X492165Y931368D01*
G01X500040Y924752D02*
X493424Y931368D01*
G01X501299Y924752D02*
X494683Y931368D01*
G01X502558Y924751D02*
X495941Y931368D01*
G01X503816Y924752D02*
X497200Y931368D01*
G01X505075Y924751D02*
X498458Y931368D01*
G01X506334Y924751D02*
X499717Y931368D01*
G01X507592Y924752D02*
X500976Y931368D01*
G01X508851Y924751D02*
X502234Y931368D01*
G01X510110Y924751D02*
X503493Y931368D01*
G01X511368Y924752D02*
X504752Y931368D01*
G01X512627Y924751D02*
X506010Y931368D01*
G01X513886Y924751D02*
X507269Y931368D01*
G01X515144Y924752D02*
X508528Y931368D01*
G01X516403Y924751D02*
X509786Y931368D01*
G01X517661Y924752D02*
X511045Y931368D01*
G01X518920Y924752D02*
X512304Y931368D01*
G01X520179Y924751D02*
X513562Y931368D01*
G01X521437Y924752D02*
X514821Y931368D01*
G01X522696Y924752D02*
X516080Y931368D01*
G01X523955Y924751D02*
X517338Y931368D01*
G01X525213Y924752D02*
X518597Y931368D01*
G01X526472Y924752D02*
X519856Y931368D01*
G01X527730Y924752D02*
X521114Y931368D01*
G01X528988Y924753D02*
X522373Y931368D01*
G01X530247Y924752D02*
X523631Y931368D01*
G01X531506Y924752D02*
X524890Y931368D01*
G01X532764Y924753D02*
X526149Y931368D01*
G01X534023Y924752D02*
X527407Y931368D01*
G01X535282Y924752D02*
X528665Y931369D01*
G01X536540Y924753D02*
X529924Y931369D01*
G01X537799Y924752D02*
X531182Y931369D01*
G01X539058Y924752D02*
X532441Y931369D01*
G01X540316Y924753D02*
X533700Y931369D01*
G01X541538Y924789D02*
X534958Y931369D01*
G01X542538Y925048D02*
X536217Y931369D01*
G01X543364Y925481D02*
X537476Y931369D01*
G01X544048Y926055D02*
X538734Y931369D01*
G01X544680Y926682D02*
X539993Y931369D01*
G01X545312Y927309D02*
X541252Y931369D01*
G01X546240Y927639D02*
X542510Y931369D01*
G01X546188Y928950D02*
X543769Y931369D01*
G01X547135Y928003D02*
X547111Y928027D01*
G01X546400Y929997D02*
X545028Y931369D01*
G01X546400Y931255D02*
X545952Y931703D01*
G01X240512Y890744D02*
X239354D01*
G02X238212Y891217I0J1615D01*
G01X237229Y892847D02*
X237369Y892647D01*
X238701Y892411D01*
X239372Y891942D01*
X240273Y892101D01*
G01X240751Y889387D02*
X239796D01*
G02X239325Y889506I-1J986D01*
G03X238802Y889630I-491J-905D01*
G01X237465Y889589D01*
X237455Y889579D01*
G01X556758Y903038D02*
X553654D01*
G01Y908550D02*
X556679D01*
X556757Y908472D01*
G01X553654Y911306D02*
X556447D01*
G01D02*
X556847Y910906D01*
G01X553654Y905794D02*
X556523D01*
X556691Y905962D01*
G01X555837Y916304D02*
X554973Y915440D01*
X553654D01*
G01X556522Y918080D02*
X555831D01*
G01D02*
X554569Y916818D01*
X553654D01*
G01X548024Y898904D02*
X547528D01*
G01X548024Y901660D02*
X547236D01*
G01X546954Y900282D02*
G02X546661Y900339I-1J779D01*
G01X548024Y900282D02*
X546954D01*
G01X553654Y912684D02*
X555041D01*
X555760Y913403D01*
G01X556867Y914823D02*
X555970D01*
G03X554865Y914365I0J-1562D01*
G01X554562Y914062D01*
X553654D01*
G01Y900282D02*
X556634D01*
G54D17*
X240567Y906645D03*
G54D27*
G01X384621Y822013D02*
X383621Y821180D01*
X382496Y820680D01*
X381496D01*
X380496Y821180D01*
X379746Y822013D01*
X379371Y823180D01*
X379621Y824346D01*
X380246Y825347D01*
X381371Y826013D01*
X382871Y826347D01*
X383746Y827013D01*
X384121Y828180D01*
X383871Y829347D01*
X383246Y830180D01*
X382371Y830680D01*
X381496D01*
X380621Y830347D01*
X379871Y829513D01*
G01X374496Y820680D02*
Y830680D01*
X371496D01*
X370496Y830180D01*
X369746Y829013D01*
X369496Y827680D01*
X369746Y826347D01*
X370371Y825347D01*
X371496Y824846D01*
X374496D01*
G01X361996Y820680D02*
Y830680D01*
X363496Y828680D01*
G01Y820680D02*
X360496D01*
G01X355246D02*
Y830680D01*
X351996Y822347D01*
X348746Y830680D01*
Y820680D01*
G01X341996D02*
X342996Y820847D01*
X343871Y821513D01*
X344621Y822513D01*
X345121Y823680D01*
X345371Y825013D01*
Y826347D01*
X345121Y827680D01*
X344621Y828847D01*
X343871Y829847D01*
X342996Y830513D01*
X341996Y830680D01*
X340996Y830513D01*
X340121Y829847D01*
X339371Y828847D01*
X338871Y827680D01*
X338621Y826347D01*
Y825013D01*
X338871Y823680D01*
X339371Y822513D01*
X340121Y821513D01*
X340996Y820847D01*
X341996Y820680D01*
G01X334496D02*
Y830680D01*
X331371D01*
X330371Y830180D01*
X329746Y829513D01*
X329496Y828180D01*
X329746Y826847D01*
X330496Y826013D01*
X331371Y825513D01*
X334496D01*
G01X331371D02*
X329496Y820680D01*
G01X321246Y825680D02*
X318746D01*
Y822680D01*
X319496Y821680D01*
X320371Y821013D01*
X321621Y820680D01*
X322871Y821013D01*
X323746Y821680D01*
X324496Y822680D01*
X324996Y823847D01*
X325246Y825180D01*
Y826347D01*
X324996Y827346D01*
X324496Y828513D01*
X323746Y829513D01*
X322996Y830180D01*
X321996Y830680D01*
X321121D01*
X320121Y830347D01*
X319371Y829680D01*
G01X315121Y820680D02*
X311996Y830680D01*
X308871Y820680D01*
G01X309996Y824180D02*
X313996D01*
G01X304871Y820680D02*
Y830680D01*
X299121Y820680D01*
Y830680D01*
G01X294371Y820680D02*
Y830680D01*
X289621D01*
G01X291371Y825847D02*
X294371D01*
G01X284496Y830680D02*
Y820680D01*
X279496D01*
G01X270996Y826013D02*
X270496Y826513D01*
X270121Y827346D01*
X269871Y828513D01*
X270121Y829513D01*
X270621Y830180D01*
X271496Y830680D01*
X274871D01*
Y820680D01*
X270746D01*
X269871Y821347D01*
X269371Y822347D01*
X269121Y823513D01*
X269371Y824680D01*
X270121Y825680D01*
X270996Y826013D01*
X274871D01*
G01X255121Y830680D02*
X251996Y820680D01*
X248871Y830680D01*
G01X239496Y820680D02*
X244496D01*
Y830680D01*
X239496D01*
G01X241496Y825847D02*
X244496D01*
G01X234496Y820680D02*
Y830680D01*
X231371D01*
X230371Y830180D01*
X229746Y829513D01*
X229496Y828180D01*
X229746Y826847D01*
X230496Y826013D01*
X231371Y825513D01*
X234496D01*
G01X231371D02*
X229496Y820680D01*
G01X221996Y820347D02*
X222246Y820513D01*
Y820847D01*
X221996Y821013D01*
X221746Y820847D01*
Y820513D01*
X221996Y820347D01*
G01X215121Y820680D02*
X211996Y830680D01*
X208871Y820680D01*
G01X209996Y824180D02*
X213996D01*
G01X195121Y820680D02*
X191996Y830680D01*
X188871Y820680D01*
G01X189996Y824180D02*
X193996D01*
G01X184496Y820680D02*
Y830680D01*
X181371D01*
X180371Y830180D01*
X179746Y829513D01*
X179496Y828180D01*
X179746Y826847D01*
X180496Y826013D01*
X181371Y825513D01*
X184496D01*
G01X181371D02*
X179496Y820680D01*
G01X171996Y830680D02*
Y820680D01*
G01X174871Y830680D02*
X169121D01*
G01X165746D02*
X163996Y820680D01*
X161996Y830680D01*
X159996Y820680D01*
X158246Y830680D01*
G01X151996Y820680D02*
X152996Y820847D01*
X153871Y821513D01*
X154621Y822513D01*
X155121Y823680D01*
X155371Y825013D01*
Y826347D01*
X155121Y827680D01*
X154621Y828847D01*
X153871Y829847D01*
X152996Y830513D01*
X151996Y830680D01*
X150996Y830513D01*
X150121Y829847D01*
X149371Y828847D01*
X148871Y827680D01*
X148621Y826347D01*
Y825013D01*
X148871Y823680D01*
X149371Y822513D01*
X150121Y821513D01*
X150996Y820847D01*
X151996Y820680D01*
G01X144496D02*
Y830680D01*
X141371D01*
X140371Y830180D01*
X139746Y829513D01*
X139496Y828180D01*
X139746Y826847D01*
X140496Y826013D01*
X141371Y825513D01*
X144496D01*
G01X141371D02*
X139496Y820680D01*
G01X134746D02*
Y830680D01*
G01X129996D02*
X134746Y824513D01*
G01X129246Y820680D02*
X132621Y827346D01*
G01X110996Y826013D02*
X110496Y826513D01*
X110121Y827346D01*
X109871Y828513D01*
X110121Y829513D01*
X110621Y830180D01*
X111496Y830680D01*
X114871D01*
Y820680D01*
X110746D01*
X109871Y821347D01*
X109371Y822347D01*
X109121Y823513D01*
X109371Y824680D01*
X110121Y825680D01*
X110996Y826013D01*
X114871D01*
G01X101996Y820680D02*
X102996Y820847D01*
X103871Y821513D01*
X104621Y822513D01*
X105121Y823680D01*
X105371Y825013D01*
Y826347D01*
X105121Y827680D01*
X104621Y828847D01*
X103871Y829847D01*
X102996Y830513D01*
X101996Y830680D01*
X100996Y830513D01*
X100121Y829847D01*
X99371Y828847D01*
X98871Y827680D01*
X98621Y826347D01*
Y825013D01*
X98871Y823680D01*
X99371Y822513D01*
X100121Y821513D01*
X100996Y820847D01*
X101996Y820680D01*
G01X91996Y830680D02*
Y820680D01*
G01X94871Y830680D02*
X89121D01*
G01X81996D02*
Y820680D01*
G01X84871Y830680D02*
X79121D01*
G01X71996Y820680D02*
X72996Y820847D01*
X73871Y821513D01*
X74621Y822513D01*
X75121Y823680D01*
X75371Y825013D01*
Y826347D01*
X75121Y827680D01*
X74621Y828847D01*
X73871Y829847D01*
X72996Y830513D01*
X71996Y830680D01*
X70996Y830513D01*
X70121Y829847D01*
X69371Y828847D01*
X68871Y827680D01*
X68621Y826347D01*
Y825013D01*
X68871Y823680D01*
X69371Y822513D01*
X70121Y821513D01*
X70996Y820847D01*
X71996Y820680D01*
G01X65246D02*
Y830680D01*
X61996Y822347D01*
X58746Y830680D01*
Y820680D01*
G54D18*
X548693Y930223D03*
G54D28*
G01X248210Y879508D02*
X251401Y880071D01*
G01X247492Y883580D02*
X248627Y883780D01*
X249413Y884330D01*
X249426Y884405D01*
G01X251434Y871481D02*
X250894Y871587D01*
X249646Y871367D01*
G01X242905Y877174D02*
X241225Y876878D01*
X241192Y876830D01*
G01X241469Y885316D02*
X239805Y885005D01*
G01X240214Y882348D02*
X240273Y882307D01*
X241948Y882602D01*
G01X242426Y879888D02*
X240534Y879570D01*
X240522Y879552D01*
G01X243903Y903935D02*
X247465Y904595D01*
G01X245339Y895793D02*
X246421Y895985D01*
X247095Y896104D01*
X247111Y896127D01*
G01X246056Y891722D02*
X247196Y891924D01*
X248034Y892072D01*
G01X246774Y887651D02*
X247915Y887849D01*
X248341Y887923D01*
X248553Y888176D01*
G01X244621Y899864D02*
X246178Y900139D01*
X246520Y899899D01*
G01X238792Y888371D02*
X239801Y887820D01*
X240990Y888030D01*
G01X548024Y907172D02*
X546872D01*
G02X546150Y907471I0J1021D01*
G01X546016Y915440D02*
G03X546018Y915439I2J2D01*
G01X548023D01*
X548024Y915440D01*
G01X546081Y923462D02*
X546327Y923708D01*
X548024D01*
G01X546224Y919574D02*
X546232Y919582D01*
X548016D01*
X548024Y919574D01*
G01X546073Y911614D02*
X546381Y911306D01*
X548024D01*
G01Y894771D02*
X546298D01*
X545935Y894408D01*
G01X553654Y901660D02*
X555360D01*
X555401Y901619D01*
G01X553654Y909928D02*
X555347D01*
Y909910D01*
G01X553654Y907172D02*
X555355D01*
X555406Y907223D01*
G01X553654Y904416D02*
X555588D01*
G54D19*
X552985Y892389D03*
G54D29*
G01X546752Y908815D02*
X546417D01*
G02X546194Y908827I1J2094D01*
G02X545417Y909200I141J1290D01*
G01X543916Y910702D01*
G03X540519Y912109I-3397J-3397D01*
G01X454477D01*
G03X435913Y906742I1J-34793D01*
G02X390363Y890723I-57753J91450D01*
G01X358113D01*
G02X338769Y894355I-5J53303D01*
G01X337194Y894968D01*
G03X336912Y895065I-1250J-3177D01*
G01X328402Y897547D01*
G03X315911Y899324I-12432J-42601D01*
G01X315210D01*
G03X307282Y898625I49J-45867D01*
G01X287800Y895189D01*
X254028Y889230D01*
G03X253736Y889164I514J-2953D01*
G01X253027Y888964D01*
G03X251159Y887857I1138J-4050D01*
G01X250644Y887330D01*
G03X250454Y887100I1305J-1272D01*
G01X249939Y886363D01*
G02X248643Y885490I-1780J1244D01*
G01D02*
X247253Y884937D01*
G01X548024Y904416D02*
G02X546331Y904852I598J5828D01*
G01X546330D01*
G02X544705Y905949I2014J4735D01*
G01X542693Y907961D01*
G03X542420Y908170I-928J-929D01*
G03X538177Y909308I-4243J-7342D01*
G01X454693D01*
G03X437442Y904321I0J-32332D01*
G02X390525Y887860I-59281J93872D01*
G01X358118D01*
G02X337361Y891945I0J54776D01*
G01X328225Y894737D01*
G03X316078Y896613I-12579J-41188D01*
G01X316077D01*
G03X315962Y896614I-432J-43060D01*
G01X315777Y896623D01*
X315772Y896624D01*
G03X310104Y896279I-1288J-25580D01*
G01X254991Y886563D01*
X254990D01*
G03X253695Y886135I812J-4630D01*
G03X253454Y885958I408J-808D01*
G01X252859Y885351D01*
G03X252541Y884986I3069J-2995D01*
G01X250467Y882328D01*
G02X249329Y881413I-2516J1965D01*
G01D02*
X248094Y880822D01*
X247971Y880865D01*
G01X247731Y882223D02*
X249207Y882483D01*
G01D02*
G03X249463Y882571I-152J860D01*
G01Y882569D01*
G03X249798Y882850I-490J924D01*
G01X251871Y885508D01*
G02X252253Y885945I4053J-3157D01*
G01X252847Y886551D01*
G02X253312Y886892I1255J-1224D01*
G02X254844Y887399I2491J-4959D01*
G01X287551Y893166D01*
X309958Y897115D01*
G02X315815Y897471I4524J-26071D01*
G01X315821D01*
X315968Y897463D01*
G02X316086Y897462I-313J-43910D01*
G02X328473Y895548I-443J-43909D01*
G01X337609Y892756D01*
X337616Y892754D01*
G02X337690Y892728I1J-117D01*
G01X337692Y892726D01*
G03X358118Y888708I20426J49910D01*
G01X390477D01*
G03X436989Y905038I-12317J109485D01*
G02X454692Y910156I17704J-28062D01*
G01X538178D01*
G02X542845Y908904I-1J-9328D01*
G01Y908905D01*
G02X543293Y908561I-1081J-1872D01*
G01X545305Y906549D01*
G03X546662Y905633I3038J3038D01*
G01X248180Y886294D02*
X247014D01*
G01X546752Y909663D02*
X546420D01*
G02X546418I-1J1253D01*
G02X546287Y909670I1J1246D01*
G02X546018Y909800I50J446D01*
G01X544516Y911302D01*
G03X540520Y912957I-3996J-3997D01*
G01X454478D01*
G03X435460Y907459I0J-35641D01*
G02X390314Y891571I-57300J90733D01*
G01X358112D01*
G02X339077Y895146I-2J52454D01*
G01X337503Y895758D01*
G03X337151Y895879I-1560J-3966D01*
G01X328640Y898362D01*
G03X315910Y900172I-12667J-43416D01*
G01X315209D01*
G03X307134Y899461I44J-46715D01*
G01X287675Y896029D01*
X253874Y890065D01*
G03X253507Y889981I674J-3787D01*
G01X252797Y889781D01*
G03X250552Y888451I1367J-4867D01*
G01Y888450D01*
X250036Y887923D01*
G03X249758Y887586I1915J-1863D01*
G01X249244Y886849D01*
G02X248459Y886324I-1064J742D01*
G02X248180Y886294I-277J1267D01*
G01X246535Y889008D02*
X248040Y889542D01*
X248661Y889652D01*
G03X249859Y890415I-324J1830D01*
G01Y890416D01*
X250260Y890991D01*
G02X250456Y891217I1182J-827D01*
G02X251563Y891926I2459J-2620D01*
G02X251889Y892020I603J-1480D01*
G01X304579Y901309D01*
G02X332385Y899628I10390J-58950D01*
G01X338878Y897653D01*
X338914Y897643D01*
Y897642D01*
G02X339084Y897596I-1266J-5015D01*
G01X339277Y897537D01*
G02X339590Y897421I-913J-2944D01*
G01X339622Y897409D01*
G03X358144Y893765I18522J45251D01*
G01X390188D01*
X392506Y894032D01*
G03X432315Y908069I-10860J94266D01*
G01X434288Y909315D01*
G02X453182Y914777I18894J-29949D01*
G01X540776D01*
G02X541587Y914680I1J-3433D01*
G02X544423Y913519I-2415J-9944D01*
G02X544668Y913349I-1187J-1972D01*
G03X545818Y912949I1152J1458D01*
G01X546752D01*
G01Y913797D02*
X545819D01*
G02X545196Y914013I1J1010D01*
G03X544860Y914247I-1964J-2462D01*
G03X541787Y915505I-5688J-9511D01*
G03X540775Y915625I-1007J-4162D01*
G01X453181D01*
G03X433835Y910032I1J-36259D01*
G01X431862Y908786D01*
G02X392409Y894875I-50215J79512D01*
G01X390139Y894613D01*
X358144D01*
G02X339943Y898194I0J48045D01*
G01X339932Y898199D01*
X339907Y898208D01*
G03X339527Y898348I-1547J-3614D01*
G01X339333Y898407D01*
X339328Y898409D01*
G03X339125Y898465I-1703J-5776D01*
G01X339119Y898467D01*
X332632Y900440D01*
G03X304432Y902145I-17663J-58081D01*
G01X269703Y896023D01*
X269702Y896022D01*
X251742Y892856D01*
G03X251243Y892712I425J-2410D01*
G03X249875Y891835I1673J-4114D01*
G03X249565Y891477I1567J-1670D01*
G01X249164Y890902D01*
G02X248513Y890487I-827J580D01*
G01X247892Y890377D01*
X247594Y890325D01*
X246296Y890365D01*
G01X546788Y917072D02*
X546072Y917374D01*
G03X545680Y917453I-391J-930D01*
G01X452987D01*
G03X432829Y911626I0J-37781D01*
G01X429544Y909552D01*
G02X393888Y896948I-45548J72116D01*
G01X390029Y896497D01*
X358096D01*
G02X342686Y899147I-3J46112D01*
G03X338671Y900519I-62036J-174979D01*
G03X334628Y901799I-58053J-176341D01*
G03X313506Y904861I-20620J-67855D01*
G03X303770Y903974I417J-58452D01*
G01X248398Y894211D01*
G03X247219Y893786I637J-3615D01*
G01X247220D01*
G03X247076Y893698I1496J-2610D01*
G01X246807Y893429D01*
G01X246799Y894523D02*
G02X248251Y895047I2237J-3926D01*
G01X303623Y904810D01*
G02X313500Y905709I10295J-58402D01*
G02X334875Y902611I511J-71765D01*
G02X342969Y899947I-54244J-178437D01*
G03X358095Y897345I15126J42662D01*
G01X389979D01*
X393789Y897791D01*
G03X429091Y910269I-9791J83878D01*
G01X432376Y912343D01*
G02X452987Y918301I20611J-32671D01*
G01X545731D01*
X548024Y918196D01*
G01X246440Y897653D02*
X245099Y897150D01*
G01X246440Y897653D02*
X246977Y897748D01*
G02X247620Y897606I150J-849D01*
G01X247750Y897514D01*
X247754Y897511D01*
G03X247778Y897493I1553J2046D01*
G03X248426Y897245I841J1227D01*
G01X248861Y897189D01*
G03X249286Y897165I374J2843D01*
G03X249954Y897178I-2797J160878D01*
G03X250292Y897212I-60J2292D01*
G01X303414Y906576D01*
G02X313718Y907530I10943J-62072D01*
G02X334861Y904503I708J-70407D01*
G01X340364Y902834D01*
X340386Y902828D01*
G02X340845Y902691I-2790J-10185D01*
G02X341622Y902401I-2882J-8907D01*
G01X341632Y902397D01*
G03X358114Y899154I16482J40263D01*
G01X389872D01*
X392873Y899509D01*
G03X428855Y912259I-10149J85790D01*
G01X431410Y913873D01*
G02X452982Y920109I21572J-34195D01*
G01X543223D01*
G03X544506Y920336I-224J5004D01*
G01X544513Y920338D01*
G03X545326Y920825I-611J1941D01*
G03X545347Y920847I-1848J1785D01*
G01X545462Y920962D01*
G02X546076Y921217I615J-613D01*
G01X546539D01*
X548024Y920952D01*
G01Y922330D02*
G02X546297Y922083I-3052J15177D01*
G02X545999Y922064I-582J6776D01*
G03X544861Y921562I77J-1715D01*
G01X544747Y921447D01*
G02X544745Y921445I-1218J1216D01*
G02X544733Y921432I-1270J1160D01*
G01X544730Y921429D01*
G02X544724Y921424I-1097J1310D01*
G02X544268Y921150I-824J854D01*
G01X544262Y921149D01*
X544251Y921145D01*
G02X543203Y920957I-1253J3968D01*
G01X452981D01*
G03X430957Y914590I1J-41279D01*
G01X428402Y912976D01*
G02X392773Y900352I-45677J72324D01*
G01X389822Y900002D01*
X358115D01*
G02X341953Y903182I-1J42658D01*
G03X341106Y903498I-3989J-9399D01*
G03X340610Y903646I-3509J-10855D01*
G01X335108Y905315D01*
G03X313710Y908379I-20683J-68192D01*
G01Y908378D01*
G03X312921Y908366I569J-63351D01*
G01Y908367D01*
G03X303267Y907412I1443J-63862D01*
G01X250145Y898048D01*
G02X249934Y898026I-255J1422D01*
G02X249272Y898013I-3473J160017D01*
G01Y898014D01*
X249270Y898013D01*
G02X248971Y898030I-35J2019D01*
G01X248537Y898087D01*
G02X248259Y898193I82J633D01*
G01X248258D01*
G02X248244Y898204I1056J1358D01*
G02X248241Y898206I953J1433D01*
G01X248109Y898299D01*
G03X246829Y898583I-982J-1400D01*
G01X244860Y898507D01*
G01X244381Y901221D02*
X245847Y901743D01*
Y901744D01*
G02X246490Y901569I77J-985D01*
G01X246778Y901367D01*
G02X246880Y901297I-4097J-6080D01*
G01Y901298D01*
X246979Y901229D01*
G03X251775Y900166I3682J5262D01*
G01X306576Y909825D01*
G02X314204Y910558I8459J-47976D01*
G01X314233D01*
X314244Y910559D01*
G02X332672Y907934I692J-61139D01*
G01X341101Y905380D01*
X341100D01*
X341110Y905377D01*
G02X341660Y905212I-3520J-12732D01*
G02X342626Y904852I-3669J-11322D01*
G01X342635Y904849D01*
G03X358115Y901803I15480J37811D01*
G01X389713D01*
X394541Y902382D01*
G03X425884Y913517I-8994J74998D01*
G01X428674Y915279D01*
G02X454609Y922785I25935J-41053D01*
G01X541428D01*
G03X541842Y922812I12J3006D01*
G01X541844Y922813D01*
G03X544157Y923617I-861J6205D01*
G03X544563Y923933I-1032J1744D01*
G01X545670Y925040D01*
G02X546028Y925276I750J-748D01*
G02X546321Y925332I292J-735D01*
G01X546752D01*
G01Y926199D02*
X546420D01*
G03X545070Y925640I-1J-1908D01*
G01X543962Y924532D01*
G02X543726Y924348I-836J829D01*
G02X541727Y923653I-2744J4670D01*
G02X541429Y923633I-293J2138D01*
G01X454608D01*
G03X428221Y915996I1J-49407D01*
G01X425431Y914234D01*
G02X394440Y903224I-39885J63146D01*
G01X389662Y902651D01*
X358114D01*
G02X342956Y905634I1J40009D01*
G03X341921Y906019I-4959J-11746D01*
G03X341346Y906192I-4337J-13373D01*
G01X332918Y908746D01*
G03X314234Y911407I-17981J-59326D01*
G01X314194D01*
X314190Y911406D01*
G03X306429Y910661I841J-49558D01*
G01X251628Y901002D01*
G02X247465Y901924I-968J5489D01*
G01X246976Y902265D01*
G03X245776Y902590I-1052J-1506D01*
G01X244142Y902578D01*
G01X548024Y908550D02*
X547263D01*
G01D02*
G02X547053Y908637I0J297D01*
G01X546962Y908728D01*
G03X546752Y908815I-210J-210D01*
G01X547053Y909841D02*
G02X547263Y909928I210J-210D01*
G01X548024D01*
G01X546752Y909663D02*
G03X546962Y909750I0J297D01*
G01X547053Y909841D01*
G01X546752Y925332D02*
X548024Y925086D01*
G01X546752Y926199D02*
X548024Y926463D01*
G01X546662Y905633D02*
G03X548024Y905794I0J5842D01*
M02*
