G04 ================== begin FILE IDENTIFICATION RECORD ==================*
G04 Layout Name:  SP1MORGANFLB.brd*
G04 Film Name:    barcodetop*
G04 File Format:  Gerber RS274X*
G04 File Origin:  Cadence Allegro 17.2-S053*
G04 Origin Date:  Thu Mar 04 14:09:35 2021*
G04 *
G04 Layer:  RIGID FLEX/BARCODE_TOP*
G04 Layer:  BOARD GEOMETRY/OUTLINE*
G04 *
G04 Offset:    (0.00 0.00)*
G04 Mirror:    No*
G04 Mode:      Positive*
G04 Rotation:  0*
G04 FullContactRelief:  No*
G04 UndefLineWidth:     6.00*
G04 ================== end FILE IDENTIFICATION RECORD ====================*
%FSLAX25Y25*MOIN*%
%IR0*IPPOS*OFA0.00000B0.00000*MIA0B0*SFA1.00000B1.00000*%
%ADD10C,.0004*%
%ADD11C,.005*%
%ADD12C,.006*%
G75*
%LPD*%
G75*
G54D10*
G01X559225Y888472D02*
Y934141D01*
G03X555288Y938078I-3937J0D01*
G01X457375D01*
G03X423591Y927546I-1J-59448D01*
G02X386450Y915966I-37142J53776D01*
G01X364797D01*
G02X339049Y921252I1J65355D01*
G03X305305Y925157I-23421J-54640D01*
G01X260067Y917180D01*
X256773Y916599D01*
X253408Y916006D01*
X250114Y915425D01*
X234954Y912752D01*
G03X231760Y908191I683J-3877D01*
G01X239691Y863216D01*
G03X244252Y860022I3877J684D01*
G01X259411Y862695D01*
X262706Y863276D01*
X266071Y863870D01*
X269365Y864450D01*
X314027Y872326D01*
G02X318463Y871823I1367J-7755D01*
G03X364797Y862423I46335J109498D01*
G01X386450D01*
G03X453543Y883162I-1J118898D01*
G02X457986Y884535I4442J-6500D01*
G01X555288D01*
G03X559225Y888472I0J3937D01*
G54D11*
G01X278107Y919161D02*
X270353Y917794D01*
X271720Y910040D01*
G01X287229Y912774D02*
X288596Y905020D01*
X280842Y903653D01*
G01X270353Y917794D02*
X285862Y920528D01*
X288596Y905020D01*
X273087Y902285D01*
X270353Y917794D01*
G54D12*
G01X406789Y781636D02*
X407789Y780803D01*
X408914Y780303D01*
X409914D01*
X410914Y780803D01*
X411664Y781636D01*
X412039Y782803D01*
X411789Y783969D01*
X411164Y784970D01*
X410039Y785636D01*
X408539Y785970D01*
X407664Y786636D01*
X407289Y787803D01*
X407539Y788970D01*
X408164Y789803D01*
X409039Y790303D01*
X409914D01*
X410789Y789970D01*
X411539Y789136D01*
G01X416914Y780303D02*
Y790303D01*
X419914D01*
X420914Y789803D01*
X421664Y788636D01*
X421914Y787303D01*
X421664Y785970D01*
X421039Y784970D01*
X419914Y784469D01*
X416914D01*
G01X429414Y780303D02*
Y790303D01*
X427914Y788303D01*
G01Y780303D02*
X430914D01*
G01X436164D02*
Y790303D01*
X439414Y781970D01*
X442664Y790303D01*
Y780303D01*
G01X449414D02*
X448414Y780470D01*
X447539Y781136D01*
X446789Y782136D01*
X446289Y783303D01*
X446039Y784636D01*
Y785970D01*
X446289Y787303D01*
X446789Y788470D01*
X447539Y789470D01*
X448414Y790136D01*
X449414Y790303D01*
X450414Y790136D01*
X451289Y789470D01*
X452039Y788470D01*
X452539Y787303D01*
X452789Y785970D01*
Y784636D01*
X452539Y783303D01*
X452039Y782136D01*
X451289Y781136D01*
X450414Y780470D01*
X449414Y780303D01*
G01X456914D02*
Y790303D01*
X460039D01*
X461039Y789803D01*
X461664Y789136D01*
X461914Y787803D01*
X461664Y786470D01*
X460914Y785636D01*
X460039Y785136D01*
X456914D01*
G01X460039D02*
X461914Y780303D01*
G01X470164Y785303D02*
X472664D01*
Y782303D01*
X471914Y781303D01*
X471039Y780636D01*
X469789Y780303D01*
X468539Y780636D01*
X467664Y781303D01*
X466914Y782303D01*
X466414Y783470D01*
X466164Y784803D01*
Y785970D01*
X466414Y786969D01*
X466914Y788136D01*
X467664Y789136D01*
X468414Y789803D01*
X469414Y790303D01*
X470289D01*
X471289Y789970D01*
X472039Y789303D01*
G01X476289Y780303D02*
X479414Y790303D01*
X482539Y780303D01*
G01X481414Y783803D02*
X477414D01*
G01X486539Y780303D02*
Y790303D01*
X492289Y780303D01*
Y790303D01*
G01X497039Y780303D02*
Y790303D01*
X501789D01*
G01X500039Y785470D02*
X497039D01*
G01X506914Y790303D02*
Y780303D01*
X511914D01*
G01X520414Y785636D02*
X520914Y786136D01*
X521289Y786969D01*
X521539Y788136D01*
X521289Y789136D01*
X520789Y789803D01*
X519914Y790303D01*
X516539D01*
Y780303D01*
X520664D01*
X521539Y780970D01*
X522039Y781970D01*
X522289Y783136D01*
X522039Y784303D01*
X521289Y785303D01*
X520414Y785636D01*
X516539D01*
G01X536289Y790303D02*
X539414Y780303D01*
X542539Y790303D01*
G01X551914Y780303D02*
X546914D01*
Y790303D01*
X551914D01*
G01X549914Y785470D02*
X546914D01*
G01X556914Y780303D02*
Y790303D01*
X560039D01*
X561039Y789803D01*
X561664Y789136D01*
X561914Y787803D01*
X561664Y786470D01*
X560914Y785636D01*
X560039Y785136D01*
X556914D01*
G01X560039D02*
X561914Y780303D01*
G01X569414Y779970D02*
X569164Y780136D01*
Y780470D01*
X569414Y780636D01*
X569664Y780470D01*
Y780136D01*
X569414Y779970D01*
G01X576289Y780303D02*
X579414Y790303D01*
X582539Y780303D01*
G01X581414Y783803D02*
X577414D01*
G01X600414Y785636D02*
X600914Y786136D01*
X601289Y786969D01*
X601539Y788136D01*
X601289Y789136D01*
X600789Y789803D01*
X599914Y790303D01*
X596539D01*
Y780303D01*
X600664D01*
X601539Y780970D01*
X602039Y781970D01*
X602289Y783136D01*
X602039Y784303D01*
X601289Y785303D01*
X600414Y785636D01*
X596539D01*
G01X606289Y780303D02*
X609414Y790303D01*
X612539Y780303D01*
G01X611414Y783803D02*
X607414D01*
G01X616914Y780303D02*
Y790303D01*
X620039D01*
X621039Y789803D01*
X621664Y789136D01*
X621914Y787803D01*
X621664Y786470D01*
X620914Y785636D01*
X620039Y785136D01*
X616914D01*
G01X620039D02*
X621914Y780303D01*
G01X632164Y789470D02*
X631414Y789970D01*
X630539Y790303D01*
X629539D01*
X628414Y789803D01*
X627539Y788970D01*
X626914Y787970D01*
X626414Y786303D01*
X626289Y784803D01*
X626539Y783303D01*
X626914Y782303D01*
X627664Y781303D01*
X628539Y780636D01*
X629414Y780303D01*
X630289D01*
X631164Y780636D01*
X631914Y781136D01*
X632539Y781803D01*
G01X639414Y780303D02*
X638414Y780470D01*
X637539Y781136D01*
X636789Y782136D01*
X636289Y783303D01*
X636039Y784636D01*
Y785970D01*
X636289Y787303D01*
X636789Y788470D01*
X637539Y789470D01*
X638414Y790136D01*
X639414Y790303D01*
X640414Y790136D01*
X641289Y789470D01*
X642039Y788470D01*
X642539Y787303D01*
X642789Y785970D01*
Y784636D01*
X642539Y783303D01*
X642039Y782136D01*
X641289Y781136D01*
X640414Y780470D01*
X639414Y780303D01*
G01X646664D02*
Y790303D01*
X649164D01*
X650164Y789803D01*
X650914Y789136D01*
X651539Y788136D01*
X652039Y786969D01*
X652164Y785303D01*
X652039Y783636D01*
X651539Y782470D01*
X650914Y781469D01*
X650164Y780803D01*
X649164Y780303D01*
X646664D01*
G01X661914D02*
X656914D01*
Y790303D01*
X661914D01*
G01X659914Y785470D02*
X656914D01*
G01X679414Y790303D02*
Y780303D01*
G01X676539Y790303D02*
X682289D01*
G01X689414Y780303D02*
X688414Y780470D01*
X687539Y781136D01*
X686789Y782136D01*
X686289Y783303D01*
X686039Y784636D01*
Y785970D01*
X686289Y787303D01*
X686789Y788470D01*
X687539Y789470D01*
X688414Y790136D01*
X689414Y790303D01*
X690414Y790136D01*
X691289Y789470D01*
X692039Y788470D01*
X692539Y787303D01*
X692789Y785970D01*
Y784636D01*
X692539Y783303D01*
X692039Y782136D01*
X691289Y781136D01*
X690414Y780470D01*
X689414Y780303D01*
G01X696914D02*
Y790303D01*
X699914D01*
X700914Y789803D01*
X701664Y788636D01*
X701914Y787303D01*
X701664Y785970D01*
X701039Y784970D01*
X699914Y784469D01*
X696914D01*
M02*
