G04 ================== begin FILE IDENTIFICATION RECORD ==================*
G04 Layout Name:  SP1MORGANFLB.brd*
G04 Film Name:    lpibotm*
G04 File Format:  Gerber RS274X*
G04 File Origin:  Cadence Allegro 17.2-S053*
G04 Origin Date:  Thu Mar 04 14:09:35 2021*
G04 *
G04 Layer:  RIGID FLEX/LPI_BOTTOM*
G04 Layer:  BOARD GEOMETRY/OUTLINE*
G04 *
G04 Offset:    (0.00 0.00)*
G04 Mirror:    No*
G04 Mode:      Positive*
G04 Rotation:  0*
G04 FullContactRelief:  No*
G04 UndefLineWidth:     6.00*
G04 ================== end FILE IDENTIFICATION RECORD ====================*
%FSLAX25Y25*MOIN*%
%IR0*IPPOS*OFA0.00000B0.00000*MIA0B0*SFA1.00000B1.00000*%
%ADD10C,.0004*%
%ADD11C,.005*%
%ADD12C,.006*%
%ADD13R,.015X.34171*%
%ADD14R,.01499X.3417*%
G75*
%LPD*%
G75*
G36*
G01X242387Y864147D02*
X234613Y908239D01*
X245617Y910179D01*
X253392Y866087D01*
X242387Y864147D01*
G37*
G36*
G01X556426Y933693D02*
Y888921D01*
X545252D01*
Y933693D01*
X556426D01*
G37*
%LPC*%
G75*
G36*
G01X238181Y904645D02*
X237942Y906002D01*
X238756Y906145D01*
X239075Y905921D01*
X239266Y904836D01*
X238181Y904645D01*
G37*
G36*
G01X239637Y906021D02*
X239182Y906341D01*
X239093Y906844D01*
X241884Y907337D01*
X241973Y906833D01*
X241654Y906377D01*
X239637Y906021D01*
G37*
G36*
G01X242408Y905390D02*
X242217Y906475D01*
X242440Y906795D01*
X243254Y906938D01*
X243493Y905581D01*
X242408Y905390D01*
G37*
G36*
G01X244936Y869978D02*
X243459Y869718D01*
X237526Y903369D01*
X239002Y903629D01*
X244936Y869978D01*
G37*
G36*
G01X245565Y867529D02*
X244751Y867386D01*
X244512Y868743D01*
X245597Y868934D01*
X245788Y867849D01*
X245565Y867529D01*
G37*
G36*
G01X246351Y867947D02*
X246352Y867948D01*
X248368Y868302D01*
X248823Y867983D01*
X248912Y867479D01*
X246121Y866987D01*
X246032Y867491D01*
X246351Y867947D01*
G37*
G36*
G01X249249Y868179D02*
X248930Y868403D01*
X248739Y869488D01*
X249824Y869679D01*
X250063Y868322D01*
X249249Y868179D01*
G37*
G36*
G01X250480Y870956D02*
X249003Y870695D01*
X243069Y904347D01*
X244546Y904607D01*
X250480Y870956D01*
G37*
G36*
G01X552434Y893078D02*
X553536D01*
Y891700D01*
X552709D01*
X552434Y891976D01*
Y893078D01*
G37*
G36*
G01X552709Y930912D02*
X553536D01*
Y929534D01*
X552434D01*
Y930636D01*
X552709Y930912D01*
G37*
G36*
G01X551863Y891975D02*
X552256Y891581D01*
Y891070D01*
X549422D01*
Y891581D01*
X549815Y891975D01*
X549816Y891976D01*
X551863Y891975D01*
G37*
G36*
G01X549422Y931542D02*
X552256D01*
Y931031D01*
X551863Y930637D01*
X549815D01*
X549422Y931031D01*
Y931542D01*
G37*
G36*
G01X548142Y893078D02*
X549244D01*
Y891976D01*
X548969Y891700D01*
X548142D01*
Y893078D01*
G37*
G36*
G01X548969Y930912D02*
X549244Y930636D01*
Y929534D01*
X548142D01*
Y930912D01*
X548969D01*
G37*
G54D13*
X553654Y911307D03*
G54D14*
X548024Y911306D03*
%LPD*%
G75*
G54D10*
G01X559225Y888472D02*
Y934141D01*
G03X555288Y938078I-3937J0D01*
G01X457375D01*
G03X423591Y927546I-1J-59448D01*
G02X386450Y915966I-37142J53776D01*
G01X364797D01*
G02X339049Y921252I1J65355D01*
G03X305305Y925157I-23421J-54640D01*
G01X260067Y917180D01*
X256773Y916599D01*
X253408Y916006D01*
X250114Y915425D01*
X234954Y912752D01*
G03X231760Y908191I683J-3877D01*
G01X239691Y863216D01*
G03X244252Y860022I3877J684D01*
G01X259411Y862695D01*
X262706Y863276D01*
X266071Y863870D01*
X269365Y864450D01*
X314027Y872326D01*
G02X318463Y871823I1367J-7755D01*
G03X364797Y862423I46335J109498D01*
G01X386450D01*
G03X453543Y883162I-1J118898D01*
G02X457986Y884535I4442J-6500D01*
G01X555288D01*
G03X559225Y888472I0J3937D01*
G54D11*
G01X292891Y899079D02*
X269359Y897020D01*
X270714Y889337D01*
G01X515936Y914075D02*
Y902264D01*
X492404Y900205D01*
G54D12*
G01X384621Y802013D02*
X383621Y801180D01*
X382496Y800680D01*
X381496D01*
X380496Y801180D01*
X379746Y802013D01*
X379371Y803180D01*
X379621Y804346D01*
X380246Y805347D01*
X381371Y806013D01*
X382871Y806347D01*
X383746Y807013D01*
X384121Y808180D01*
X383871Y809347D01*
X383246Y810180D01*
X382371Y810680D01*
X381496D01*
X380621Y810347D01*
X379871Y809513D01*
G01X374496Y800680D02*
Y810680D01*
X371496D01*
X370496Y810180D01*
X369746Y809013D01*
X369496Y807680D01*
X369746Y806347D01*
X370371Y805347D01*
X371496Y804846D01*
X374496D01*
G01X361996Y800680D02*
Y810680D01*
X363496Y808680D01*
G01Y800680D02*
X360496D01*
G01X355246D02*
Y810680D01*
X351996Y802347D01*
X348746Y810680D01*
Y800680D01*
G01X341996D02*
X342996Y800847D01*
X343871Y801513D01*
X344621Y802513D01*
X345121Y803680D01*
X345371Y805013D01*
Y806347D01*
X345121Y807680D01*
X344621Y808847D01*
X343871Y809847D01*
X342996Y810513D01*
X341996Y810680D01*
X340996Y810513D01*
X340121Y809847D01*
X339371Y808847D01*
X338871Y807680D01*
X338621Y806347D01*
Y805013D01*
X338871Y803680D01*
X339371Y802513D01*
X340121Y801513D01*
X340996Y800847D01*
X341996Y800680D01*
G01X334496D02*
Y810680D01*
X331371D01*
X330371Y810180D01*
X329746Y809513D01*
X329496Y808180D01*
X329746Y806847D01*
X330496Y806013D01*
X331371Y805513D01*
X334496D01*
G01X331371D02*
X329496Y800680D01*
G01X321246Y805680D02*
X318746D01*
Y802680D01*
X319496Y801680D01*
X320371Y801013D01*
X321621Y800680D01*
X322871Y801013D01*
X323746Y801680D01*
X324496Y802680D01*
X324996Y803847D01*
X325246Y805180D01*
Y806347D01*
X324996Y807346D01*
X324496Y808513D01*
X323746Y809513D01*
X322996Y810180D01*
X321996Y810680D01*
X321121D01*
X320121Y810347D01*
X319371Y809680D01*
G01X315121Y800680D02*
X311996Y810680D01*
X308871Y800680D01*
G01X309996Y804180D02*
X313996D01*
G01X304871Y800680D02*
Y810680D01*
X299121Y800680D01*
Y810680D01*
G01X294371Y800680D02*
Y810680D01*
X289621D01*
G01X291371Y805847D02*
X294371D01*
G01X284496Y810680D02*
Y800680D01*
X279496D01*
G01X270996Y806013D02*
X270496Y806513D01*
X270121Y807346D01*
X269871Y808513D01*
X270121Y809513D01*
X270621Y810180D01*
X271496Y810680D01*
X274871D01*
Y800680D01*
X270746D01*
X269871Y801347D01*
X269371Y802347D01*
X269121Y803513D01*
X269371Y804680D01*
X270121Y805680D01*
X270996Y806013D01*
X274871D01*
G01X255121Y810680D02*
X251996Y800680D01*
X248871Y810680D01*
G01X239496Y800680D02*
X244496D01*
Y810680D01*
X239496D01*
G01X241496Y805847D02*
X244496D01*
G01X234496Y800680D02*
Y810680D01*
X231371D01*
X230371Y810180D01*
X229746Y809513D01*
X229496Y808180D01*
X229746Y806847D01*
X230496Y806013D01*
X231371Y805513D01*
X234496D01*
G01X231371D02*
X229496Y800680D01*
G01X221996Y800347D02*
X222246Y800513D01*
Y800847D01*
X221996Y801013D01*
X221746Y800847D01*
Y800513D01*
X221996Y800347D01*
G01X215121Y800680D02*
X211996Y810680D01*
X208871Y800680D01*
G01X209996Y804180D02*
X213996D01*
G01X194496Y810680D02*
Y800680D01*
X189496D01*
G01X184496D02*
Y810680D01*
X181496D01*
X180496Y810180D01*
X179746Y809013D01*
X179496Y807680D01*
X179746Y806347D01*
X180371Y805347D01*
X181496Y804846D01*
X184496D01*
G01X173496Y810680D02*
X170496D01*
G01X171996D02*
Y800680D01*
G01X173496D02*
X170496D01*
G01X150996Y806013D02*
X150496Y806513D01*
X150121Y807346D01*
X149871Y808513D01*
X150121Y809513D01*
X150621Y810180D01*
X151496Y810680D01*
X154871D01*
Y800680D01*
X150746D01*
X149871Y801347D01*
X149371Y802347D01*
X149121Y803513D01*
X149371Y804680D01*
X150121Y805680D01*
X150996Y806013D01*
X154871D01*
G01X141996Y800680D02*
X142996Y800847D01*
X143871Y801513D01*
X144621Y802513D01*
X145121Y803680D01*
X145371Y805013D01*
Y806347D01*
X145121Y807680D01*
X144621Y808847D01*
X143871Y809847D01*
X142996Y810513D01*
X141996Y810680D01*
X140996Y810513D01*
X140121Y809847D01*
X139371Y808847D01*
X138871Y807680D01*
X138621Y806347D01*
Y805013D01*
X138871Y803680D01*
X139371Y802513D01*
X140121Y801513D01*
X140996Y800847D01*
X141996Y800680D01*
G01X131996Y810680D02*
Y800680D01*
G01X134871Y810680D02*
X129121D01*
G01X121996D02*
Y800680D01*
G01X124871Y810680D02*
X119121D01*
G01X111996Y800680D02*
X112996Y800847D01*
X113871Y801513D01*
X114621Y802513D01*
X115121Y803680D01*
X115371Y805013D01*
Y806347D01*
X115121Y807680D01*
X114621Y808847D01*
X113871Y809847D01*
X112996Y810513D01*
X111996Y810680D01*
X110996Y810513D01*
X110121Y809847D01*
X109371Y808847D01*
X108871Y807680D01*
X108621Y806347D01*
Y805013D01*
X108871Y803680D01*
X109371Y802513D01*
X110121Y801513D01*
X110996Y800847D01*
X111996Y800680D01*
G01X105246D02*
Y810680D01*
X101996Y802347D01*
X98746Y810680D01*
Y800680D01*
M02*
