G04 ================== begin FILE IDENTIFICATION RECORD ==================*
G04 Layout Name:  SP1MORGANFLB.brd*
G04 Film Name:    shieldbotm*
G04 File Format:  Gerber RS274X*
G04 File Origin:  Cadence Allegro 17.2-S053*
G04 Origin Date:  Thu Mar 04 14:09:35 2021*
G04 *
G04 Layer:  RIGID FLEX/EMI_SHIELD_BOTTOM*
G04 Layer:  BOARD GEOMETRY/OUTLINE*
G04 *
G04 Offset:    (0.00 0.00)*
G04 Mirror:    No*
G04 Mode:      Positive*
G04 Rotation:  0*
G04 FullContactRelief:  No*
G04 UndefLineWidth:     6.00*
G04 ================== end FILE IDENTIFICATION RECORD ====================*
%FSLAX25Y25*MOIN*%
%IR0*IPPOS*OFA0.00000B0.00000*MIA0B0*SFA1.00000B1.00000*%
%ADD10C,.0004*%
%ADD11C,.006*%
G75*
%LPD*%
G75*
G36*
G01X526826Y938078D02*
X540517D01*
Y884534D01*
X527400D01*
Y884533D01*
X457984D01*
G03X453542Y883160I1J-7874D01*
G01X453536Y883156D01*
G02X386449Y862421I-67088J98163D01*
G01X364795D01*
G02X318453Y871825I2J118898D01*
G01X318462Y871821D01*
G03X314026Y872324I-3069J-7251D01*
G01X287941Y867724D01*
Y867726D01*
X273392Y865160D01*
X264095Y917890D01*
X287949Y922096D01*
Y922095D01*
X305303Y925155D01*
G02X339046Y921251I10324J-58545D01*
G01X339049Y921250D01*
G03X364795Y915965I25746J60069D01*
G01X386449D01*
G03X423735Y927645I0J65354D01*
G02X457372Y938077I33638J-49017D01*
G01X526826D01*
Y938078D01*
G37*
G54D10*
G01X559225Y888472D02*
Y934141D01*
G03X555288Y938078I-3937J0D01*
G01X457375D01*
G03X423591Y927546I-1J-59448D01*
G02X386450Y915966I-37142J53776D01*
G01X364797D01*
G02X339049Y921252I1J65355D01*
G03X305305Y925157I-23421J-54640D01*
G01X260067Y917180D01*
X256773Y916599D01*
X253408Y916006D01*
X250114Y915425D01*
X234954Y912752D01*
G03X231760Y908191I683J-3877D01*
G01X239691Y863216D01*
G03X244252Y860022I3877J684D01*
G01X259411Y862695D01*
X262706Y863276D01*
X266071Y863870D01*
X269365Y864450D01*
X314027Y872326D01*
G02X318463Y871823I1367J-7755D01*
G03X364797Y862423I46335J109498D01*
G01X386450D01*
G03X453543Y883162I-1J118898D01*
G02X457986Y884535I4442J-6500D01*
G01X555288D01*
G03X559225Y888472I0J3937D01*
G54D11*
G01X384621Y802013D02*
X383621Y801180D01*
X382496Y800680D01*
X381496D01*
X380496Y801180D01*
X379746Y802013D01*
X379371Y803180D01*
X379621Y804346D01*
X380246Y805347D01*
X381371Y806013D01*
X382871Y806347D01*
X383746Y807013D01*
X384121Y808180D01*
X383871Y809347D01*
X383246Y810180D01*
X382371Y810680D01*
X381496D01*
X380621Y810347D01*
X379871Y809513D01*
G01X374496Y800680D02*
Y810680D01*
X371496D01*
X370496Y810180D01*
X369746Y809013D01*
X369496Y807680D01*
X369746Y806347D01*
X370371Y805347D01*
X371496Y804846D01*
X374496D01*
G01X361996Y800680D02*
Y810680D01*
X363496Y808680D01*
G01Y800680D02*
X360496D01*
G01X355246D02*
Y810680D01*
X351996Y802347D01*
X348746Y810680D01*
Y800680D01*
G01X341996D02*
X342996Y800847D01*
X343871Y801513D01*
X344621Y802513D01*
X345121Y803680D01*
X345371Y805013D01*
Y806347D01*
X345121Y807680D01*
X344621Y808847D01*
X343871Y809847D01*
X342996Y810513D01*
X341996Y810680D01*
X340996Y810513D01*
X340121Y809847D01*
X339371Y808847D01*
X338871Y807680D01*
X338621Y806347D01*
Y805013D01*
X338871Y803680D01*
X339371Y802513D01*
X340121Y801513D01*
X340996Y800847D01*
X341996Y800680D01*
G01X334496D02*
Y810680D01*
X331371D01*
X330371Y810180D01*
X329746Y809513D01*
X329496Y808180D01*
X329746Y806847D01*
X330496Y806013D01*
X331371Y805513D01*
X334496D01*
G01X331371D02*
X329496Y800680D01*
G01X321246Y805680D02*
X318746D01*
Y802680D01*
X319496Y801680D01*
X320371Y801013D01*
X321621Y800680D01*
X322871Y801013D01*
X323746Y801680D01*
X324496Y802680D01*
X324996Y803847D01*
X325246Y805180D01*
Y806347D01*
X324996Y807346D01*
X324496Y808513D01*
X323746Y809513D01*
X322996Y810180D01*
X321996Y810680D01*
X321121D01*
X320121Y810347D01*
X319371Y809680D01*
G01X315121Y800680D02*
X311996Y810680D01*
X308871Y800680D01*
G01X309996Y804180D02*
X313996D01*
G01X304871Y800680D02*
Y810680D01*
X299121Y800680D01*
Y810680D01*
G01X294371Y800680D02*
Y810680D01*
X289621D01*
G01X291371Y805847D02*
X294371D01*
G01X284496Y810680D02*
Y800680D01*
X279496D01*
G01X270996Y806013D02*
X270496Y806513D01*
X270121Y807346D01*
X269871Y808513D01*
X270121Y809513D01*
X270621Y810180D01*
X271496Y810680D01*
X274871D01*
Y800680D01*
X270746D01*
X269871Y801347D01*
X269371Y802347D01*
X269121Y803513D01*
X269371Y804680D01*
X270121Y805680D01*
X270996Y806013D01*
X274871D01*
G01X255121Y810680D02*
X251996Y800680D01*
X248871Y810680D01*
G01X239496Y800680D02*
X244496D01*
Y810680D01*
X239496D01*
G01X241496Y805847D02*
X244496D01*
G01X234496Y800680D02*
Y810680D01*
X231371D01*
X230371Y810180D01*
X229746Y809513D01*
X229496Y808180D01*
X229746Y806847D01*
X230496Y806013D01*
X231371Y805513D01*
X234496D01*
G01X231371D02*
X229496Y800680D01*
G01X221996Y800347D02*
X222246Y800513D01*
Y800847D01*
X221996Y801013D01*
X221746Y800847D01*
Y800513D01*
X221996Y800347D01*
G01X215121Y800680D02*
X211996Y810680D01*
X208871Y800680D01*
G01X209996Y804180D02*
X213996D01*
G01X194621Y802013D02*
X193621Y801180D01*
X192496Y800680D01*
X191496D01*
X190496Y801180D01*
X189746Y802013D01*
X189371Y803180D01*
X189621Y804346D01*
X190246Y805347D01*
X191371Y806013D01*
X192871Y806347D01*
X193746Y807013D01*
X194121Y808180D01*
X193871Y809347D01*
X193246Y810180D01*
X192371Y810680D01*
X191496D01*
X190621Y810347D01*
X189871Y809513D01*
G01X184621Y800680D02*
Y810680D01*
G01X179371D02*
Y800680D01*
G01Y805680D02*
X184621D01*
G01X173496Y810680D02*
X170496D01*
G01X171996D02*
Y800680D01*
G01X173496D02*
X170496D01*
G01X159496D02*
X164496D01*
Y810680D01*
X159496D01*
G01X161496Y805847D02*
X164496D01*
G01X154496Y810680D02*
Y800680D01*
X149496D01*
G01X144746D02*
Y810680D01*
X142246D01*
X141246Y810180D01*
X140496Y809513D01*
X139871Y808513D01*
X139371Y807346D01*
X139246Y805680D01*
X139371Y804013D01*
X139871Y802847D01*
X140496Y801846D01*
X141246Y801180D01*
X142246Y800680D01*
X144746D01*
G01X120996Y806013D02*
X120496Y806513D01*
X120121Y807346D01*
X119871Y808513D01*
X120121Y809513D01*
X120621Y810180D01*
X121496Y810680D01*
X124871D01*
Y800680D01*
X120746D01*
X119871Y801347D01*
X119371Y802347D01*
X119121Y803513D01*
X119371Y804680D01*
X120121Y805680D01*
X120996Y806013D01*
X124871D01*
G01X111996Y800680D02*
X112996Y800847D01*
X113871Y801513D01*
X114621Y802513D01*
X115121Y803680D01*
X115371Y805013D01*
Y806347D01*
X115121Y807680D01*
X114621Y808847D01*
X113871Y809847D01*
X112996Y810513D01*
X111996Y810680D01*
X110996Y810513D01*
X110121Y809847D01*
X109371Y808847D01*
X108871Y807680D01*
X108621Y806347D01*
Y805013D01*
X108871Y803680D01*
X109371Y802513D01*
X110121Y801513D01*
X110996Y800847D01*
X111996Y800680D01*
G01X101996Y810680D02*
Y800680D01*
G01X104871Y810680D02*
X99121D01*
G01X91996D02*
Y800680D01*
G01X94871Y810680D02*
X89121D01*
G01X81996Y800680D02*
X82996Y800847D01*
X83871Y801513D01*
X84621Y802513D01*
X85121Y803680D01*
X85371Y805013D01*
Y806347D01*
X85121Y807680D01*
X84621Y808847D01*
X83871Y809847D01*
X82996Y810513D01*
X81996Y810680D01*
X80996Y810513D01*
X80121Y809847D01*
X79371Y808847D01*
X78871Y807680D01*
X78621Y806347D01*
Y805013D01*
X78871Y803680D01*
X79371Y802513D01*
X80121Y801513D01*
X80996Y800847D01*
X81996Y800680D01*
G01X75246D02*
Y810680D01*
X71996Y802347D01*
X68746Y810680D01*
Y800680D01*
M02*
