G04 ================== begin FILE IDENTIFICATION RECORD ==================*
G04 Layout Name:  SP1MORGANFLB.brd*
G04 Film Name:    silktop*
G04 File Format:  Gerber RS274X*
G04 File Origin:  Cadence Allegro 17.2-S053*
G04 Origin Date:  Thu Mar 04 14:09:35 2021*
G04 *
G04 Layer:  REF DES/SILKSCREEN_TOP*
G04 Layer:  PACKAGE GEOMETRY/SILKSCREEN_TOP*
G04 Layer:  BOARD GEOMETRY/SILKSCREEN_TOP*
G04 Layer:  BOARD GEOMETRY/OUTLINE*
G04 *
G04 Offset:    (0.00 0.00)*
G04 Mirror:    No*
G04 Mode:      Positive*
G04 Rotation:  0*
G04 FullContactRelief:  No*
G04 UndefLineWidth:     6.00*
G04 ================== end FILE IDENTIFICATION RECORD ====================*
%FSLAX25Y25*MOIN*%
%IR0*IPPOS*OFA0.00000B0.00000*MIA0B0*SFA1.00000B1.00000*%
%ADD10C,.01*%
%ADD11C,.0004*%
%ADD12C,.006*%
%ADD13C,.008*%
G75*
%LPD*%
G75*
G54D10*
G01X327773Y883169D02*
X330898Y873169D01*
X334023Y883169D01*
G01X342398Y873169D02*
X337398D01*
Y883169D01*
X342398D01*
G01X340398Y878336D02*
X337398D01*
G01X346398Y873169D02*
Y883169D01*
X349523D01*
X350523Y882669D01*
X351148Y882002D01*
X351398Y880669D01*
X351148Y879336D01*
X350398Y878502D01*
X349523Y878002D01*
X346398D01*
G01X349523D02*
X351398Y873169D01*
G01X357898Y872836D02*
X357648Y873002D01*
Y873336D01*
X357898Y873502D01*
X358148Y873336D01*
Y873002D01*
X357898Y872836D01*
G01X363773Y873169D02*
X366898Y883169D01*
X370023Y873169D01*
G01X368898Y876669D02*
X364898D01*
G01X382273Y873169D02*
Y883169D01*
G01X387523D02*
Y873169D01*
G01Y878169D02*
X382273D01*
G01X391523Y873169D02*
Y883169D01*
X396273D01*
G01X394523Y878336D02*
X391523D01*
G01X326449Y892854D02*
X327449Y892021D01*
X328574Y891521D01*
X329574D01*
X330574Y892021D01*
X331324Y892854D01*
X331699Y894021D01*
X331449Y895187D01*
X330824Y896188D01*
X329699Y896854D01*
X328199Y897188D01*
X327324Y897854D01*
X326949Y899021D01*
X327199Y900188D01*
X327824Y901021D01*
X328699Y901521D01*
X329574D01*
X330449Y901188D01*
X331199Y900354D01*
G01X335574Y891521D02*
Y901521D01*
X338574D01*
X339574Y901021D01*
X340324Y899854D01*
X340574Y898521D01*
X340324Y897188D01*
X339699Y896188D01*
X338574Y895687D01*
X335574D01*
G01X347074Y891521D02*
Y901521D01*
X345574Y899521D01*
G01Y891521D02*
X348574D01*
G01X352824D02*
Y901521D01*
X356074Y893188D01*
X359324Y901521D01*
Y891521D01*
G01X365074D02*
X364074Y891688D01*
X363199Y892354D01*
X362449Y893354D01*
X361949Y894521D01*
X361699Y895854D01*
Y897188D01*
X361949Y898521D01*
X362449Y899688D01*
X363199Y900688D01*
X364074Y901354D01*
X365074Y901521D01*
X366074Y901354D01*
X366949Y900688D01*
X367699Y899688D01*
X368199Y898521D01*
X368449Y897188D01*
Y895854D01*
X368199Y894521D01*
X367699Y893354D01*
X366949Y892354D01*
X366074Y891688D01*
X365074Y891521D01*
G01X371574D02*
Y901521D01*
X374699D01*
X375699Y901021D01*
X376324Y900354D01*
X376574Y899021D01*
X376324Y897688D01*
X375574Y896854D01*
X374699Y896354D01*
X371574D01*
G01X374699D02*
X376574Y891521D01*
G01X383824Y896521D02*
X386324D01*
Y893521D01*
X385574Y892521D01*
X384699Y891854D01*
X383449Y891521D01*
X382199Y891854D01*
X381324Y892521D01*
X380574Y893521D01*
X380074Y894688D01*
X379824Y896021D01*
Y897188D01*
X380074Y898187D01*
X380574Y899354D01*
X381324Y900354D01*
X382074Y901021D01*
X383074Y901521D01*
X383949D01*
X384949Y901188D01*
X385699Y900521D01*
G01X388949Y891521D02*
X392074Y901521D01*
X395199Y891521D01*
G01X394074Y895021D02*
X390074D01*
G01X398199Y891521D02*
Y901521D01*
X403949Y891521D01*
Y901521D01*
G01X407699Y891521D02*
Y901521D01*
X412449D01*
G01X410699Y896688D02*
X407699D01*
G01X416574Y901521D02*
Y891521D01*
X421574D01*
G01X429074Y896854D02*
X429574Y897354D01*
X429949Y898187D01*
X430199Y899354D01*
X429949Y900354D01*
X429449Y901021D01*
X428574Y901521D01*
X425199D01*
Y891521D01*
X429324D01*
X430199Y892188D01*
X430699Y893188D01*
X430949Y894354D01*
X430699Y895521D01*
X429949Y896521D01*
X429074Y896854D01*
X425199D01*
G01X291236Y919461D02*
X292481Y912403D01*
X293234Y911012D01*
X294392Y910201D01*
X295681Y910090D01*
X296854Y910636D01*
X297665Y911794D01*
X297897Y913358D01*
X296653Y920416D01*
G01X304602Y917079D02*
X305008Y917658D01*
X305233Y918544D01*
X305276Y919737D01*
X304856Y920678D01*
X304248Y921247D01*
X303300Y921588D01*
X299976Y921002D01*
X301713Y911154D01*
X305775Y911870D01*
X306521Y912679D01*
X306840Y913750D01*
X306883Y914943D01*
X306435Y916048D01*
X305522Y916903D01*
X304602Y917079D01*
X300787Y916406D01*
G01X495786Y924706D02*
Y934706D01*
X499036Y926373D01*
X502286Y934706D01*
Y924706D01*
G01X509036Y930039D02*
X509536Y930539D01*
X509911Y931372D01*
X510161Y932539D01*
X509911Y933539D01*
X509411Y934206D01*
X508536Y934706D01*
X505161D01*
Y924706D01*
X509286D01*
X510161Y925373D01*
X510661Y926373D01*
X510911Y927539D01*
X510661Y928706D01*
X509911Y929706D01*
X509036Y930039D01*
X505161D01*
G54D11*
G01X559225Y888472D02*
Y934141D01*
G03X555288Y938078I-3937J0D01*
G01X457375D01*
G03X423591Y927546I-1J-59448D01*
G02X386450Y915966I-37142J53776D01*
G01X364797D01*
G02X339049Y921252I1J65355D01*
G03X305305Y925157I-23421J-54640D01*
G01X260067Y917180D01*
X256773Y916599D01*
X253408Y916006D01*
X250114Y915425D01*
X234954Y912752D01*
G03X231760Y908191I683J-3877D01*
G01X239691Y863216D01*
G03X244252Y860022I3877J684D01*
G01X259411Y862695D01*
X262706Y863276D01*
X266071Y863870D01*
X269365Y864450D01*
X314027Y872326D01*
G02X318463Y871823I1367J-7755D01*
G03X364797Y862423I46335J109498D01*
G01X386450D01*
G03X453543Y883162I-1J118898D01*
G02X457986Y884535I4442J-6500D01*
G01X555288D01*
G03X559225Y888472I0J3937D01*
G54D12*
G01X406871Y802013D02*
X407871Y801180D01*
X408996Y800680D01*
X409996D01*
X410996Y801180D01*
X411746Y802013D01*
X412121Y803180D01*
X411871Y804346D01*
X411246Y805347D01*
X410121Y806013D01*
X408621Y806347D01*
X407746Y807013D01*
X407371Y808180D01*
X407621Y809347D01*
X408246Y810180D01*
X409121Y810680D01*
X409996D01*
X410871Y810347D01*
X411621Y809513D01*
G01X416996Y800680D02*
Y810680D01*
X419996D01*
X420996Y810180D01*
X421746Y809013D01*
X421996Y807680D01*
X421746Y806347D01*
X421121Y805347D01*
X419996Y804846D01*
X416996D01*
G01X429496Y800680D02*
Y810680D01*
X427996Y808680D01*
G01Y800680D02*
X430996D01*
G01X436246D02*
Y810680D01*
X439496Y802347D01*
X442746Y810680D01*
Y800680D01*
G01X449496D02*
X448496Y800847D01*
X447621Y801513D01*
X446871Y802513D01*
X446371Y803680D01*
X446121Y805013D01*
Y806347D01*
X446371Y807680D01*
X446871Y808847D01*
X447621Y809847D01*
X448496Y810513D01*
X449496Y810680D01*
X450496Y810513D01*
X451371Y809847D01*
X452121Y808847D01*
X452621Y807680D01*
X452871Y806347D01*
Y805013D01*
X452621Y803680D01*
X452121Y802513D01*
X451371Y801513D01*
X450496Y800847D01*
X449496Y800680D01*
G01X456996D02*
Y810680D01*
X460121D01*
X461121Y810180D01*
X461746Y809513D01*
X461996Y808180D01*
X461746Y806847D01*
X460996Y806013D01*
X460121Y805513D01*
X456996D01*
G01X460121D02*
X461996Y800680D01*
G01X470246Y805680D02*
X472746D01*
Y802680D01*
X471996Y801680D01*
X471121Y801013D01*
X469871Y800680D01*
X468621Y801013D01*
X467746Y801680D01*
X466996Y802680D01*
X466496Y803847D01*
X466246Y805180D01*
Y806347D01*
X466496Y807346D01*
X466996Y808513D01*
X467746Y809513D01*
X468496Y810180D01*
X469496Y810680D01*
X470371D01*
X471371Y810347D01*
X472121Y809680D01*
G01X476371Y800680D02*
X479496Y810680D01*
X482621Y800680D01*
G01X481496Y804180D02*
X477496D01*
G01X486621Y800680D02*
Y810680D01*
X492371Y800680D01*
Y810680D01*
G01X497121Y800680D02*
Y810680D01*
X501871D01*
G01X500121Y805847D02*
X497121D01*
G01X506996Y810680D02*
Y800680D01*
X511996D01*
G01X520496Y806013D02*
X520996Y806513D01*
X521371Y807346D01*
X521621Y808513D01*
X521371Y809513D01*
X520871Y810180D01*
X519996Y810680D01*
X516621D01*
Y800680D01*
X520746D01*
X521621Y801347D01*
X522121Y802347D01*
X522371Y803513D01*
X522121Y804680D01*
X521371Y805680D01*
X520496Y806013D01*
X516621D01*
G01X536371Y810680D02*
X539496Y800680D01*
X542621Y810680D01*
G01X551996Y800680D02*
X546996D01*
Y810680D01*
X551996D01*
G01X549996Y805847D02*
X546996D01*
G01X556996Y800680D02*
Y810680D01*
X560121D01*
X561121Y810180D01*
X561746Y809513D01*
X561996Y808180D01*
X561746Y806847D01*
X560996Y806013D01*
X560121Y805513D01*
X556996D01*
G01X560121D02*
X561996Y800680D01*
G01X569496Y800347D02*
X569246Y800513D01*
Y800847D01*
X569496Y801013D01*
X569746Y800847D01*
Y800513D01*
X569496Y800347D01*
G01X576371Y800680D02*
X579496Y810680D01*
X582621Y800680D01*
G01X581496Y804180D02*
X577496D01*
G01X596871Y802013D02*
X597871Y801180D01*
X598996Y800680D01*
X599996D01*
X600996Y801180D01*
X601746Y802013D01*
X602121Y803180D01*
X601871Y804346D01*
X601246Y805347D01*
X600121Y806013D01*
X598621Y806347D01*
X597746Y807013D01*
X597371Y808180D01*
X597621Y809347D01*
X598246Y810180D01*
X599121Y810680D01*
X599996D01*
X600871Y810347D01*
X601621Y809513D01*
G01X607996Y810680D02*
X610996D01*
G01X609496D02*
Y800680D01*
G01X607996D02*
X610996D01*
G01X616996Y810680D02*
Y800680D01*
X621996D01*
G01X626746D02*
Y810680D01*
G01X631496D02*
X626746Y804513D01*
G01X632246Y800680D02*
X628871Y807346D01*
G01X636871Y802013D02*
X637871Y801180D01*
X638996Y800680D01*
X639996D01*
X640996Y801180D01*
X641746Y802013D01*
X642121Y803180D01*
X641871Y804346D01*
X641246Y805347D01*
X640121Y806013D01*
X638621Y806347D01*
X637746Y807013D01*
X637371Y808180D01*
X637621Y809347D01*
X638246Y810180D01*
X639121Y810680D01*
X639996D01*
X640871Y810347D01*
X641621Y809513D01*
G01X652246Y809847D02*
X651496Y810347D01*
X650621Y810680D01*
X649621D01*
X648496Y810180D01*
X647621Y809347D01*
X646996Y808347D01*
X646496Y806680D01*
X646371Y805180D01*
X646621Y803680D01*
X646996Y802680D01*
X647746Y801680D01*
X648621Y801013D01*
X649496Y800680D01*
X650371D01*
X651246Y801013D01*
X651996Y801513D01*
X652621Y802180D01*
G01X656996Y800680D02*
Y810680D01*
X660121D01*
X661121Y810180D01*
X661746Y809513D01*
X661996Y808180D01*
X661746Y806847D01*
X660996Y806013D01*
X660121Y805513D01*
X656996D01*
G01X660121D02*
X661996Y800680D01*
G01X671996D02*
X666996D01*
Y810680D01*
X671996D01*
G01X669996Y805847D02*
X666996D01*
G01X681996Y800680D02*
X676996D01*
Y810680D01*
X681996D01*
G01X679996Y805847D02*
X676996D01*
G01X686621Y800680D02*
Y810680D01*
X692371Y800680D01*
Y810680D01*
G01X709496D02*
Y800680D01*
G01X706621Y810680D02*
X712371D01*
G01X719496Y800680D02*
X718496Y800847D01*
X717621Y801513D01*
X716871Y802513D01*
X716371Y803680D01*
X716121Y805013D01*
Y806347D01*
X716371Y807680D01*
X716871Y808847D01*
X717621Y809847D01*
X718496Y810513D01*
X719496Y810680D01*
X720496Y810513D01*
X721371Y809847D01*
X722121Y808847D01*
X722621Y807680D01*
X722871Y806347D01*
Y805013D01*
X722621Y803680D01*
X722121Y802513D01*
X721371Y801513D01*
X720496Y800847D01*
X719496Y800680D01*
G01X726996D02*
Y810680D01*
X729996D01*
X730996Y810180D01*
X731746Y809013D01*
X731996Y807680D01*
X731746Y806347D01*
X731121Y805347D01*
X729996Y804846D01*
X726996D01*
G54D13*
G01X265181Y917710D02*
X274355Y865636D01*
G01X516474Y937764D02*
X516479Y885209D01*
M02*
