G04 ================== begin FILE IDENTIFICATION RECORD ==================*
G04 Layout Name:  E:/rena/ZJfpc/HN0RNALTF.brd*
G04 Film Name:    art02*
G04 File Format:  Gerber RS274X*
G04 File Origin:  Cadence Allegro 17.2-S053*
G04 Origin Date:  Mon Mar 08 14:33:47 2021*
G04 *
G04 Layer:  VIA CLASS/BOTTOM*
G04 Layer:  PIN/BOTTOM*
G04 Layer:  ETCH/BOTTOM*
G04 Layer:  BOARD GEOMETRY/OUTLINE*
G04 *
G04 Offset:    (0.000 0.000)*
G04 Mirror:    No*
G04 Mode:      Positive*
G04 Rotation:  0*
G04 FullContactRelief:  No*
G04 UndefLineWidth:     6.000*
G04 ================== end FILE IDENTIFICATION RECORD ====================*
%FSLAX25Y25*MOIN*%
%IR0*IPPOS*OFA0.00000B0.00000*MIA0B0*SFA1.00000B1.00000*%
%ADD18R,.05X.125*%
%ADD13R,.01X.009*%
%ADD16R,.03X.009*%
%ADD15R,.008X.041*%
%ADD14R,.007X.019*%
%ADD12R,.011X.01*%
%ADD11R,.02X.016*%
%ADD10C,.01*%
%ADD17C,.032*%
%ADD19C,.071*%
%ADD20C,.003*%
%ADD21C,.006*%
%ADD22C,.007*%
%ADD23C,.008*%
%ADD24C,.0027*%
%ADD25C,.00294*%
%ADD26C,.002953*%
%ADD27C,.005906*%
%ADD28C,.003937*%
%ADD29C,.008953*%
%ADD30C,.007874*%
%ADD31C,.02*%
%ADD32C,.03*%
%ADD33C,.04*%
%ADD34C,.06*%
%ADD35C,.015*%
%ADD36C,.025*%
%ADD37C,.0004*%
%ADD38C,.019*%
%ADD39C,.03937*%
%ADD40C,.059055*%
%ADD41C,.019685*%
%ADD42R,.063942X.138942*%
%ADD43C,.045942*%
G75*
%LPD*%
G75*
G36*
G01X-951061Y-178468D02*
X-908729Y-220799D01*
G02X-907807Y-223027I-2227J-2227D01*
G01Y-499798D01*
G02X-908729Y-502025I-3150J0D01*
G01X-955005Y-548301D01*
G03X-955812Y-550249I1949J-1948D01*
G01Y-582063D01*
G02X-956994Y-583244I-1181J0D01*
G01X-992427D01*
G02X-993608Y-582063I0J1181D01*
G01Y-550445D01*
G03X-994415Y-548497I-2756J0D01*
G01X-1041035Y-501877D01*
G02X-1041958Y-499649I2227J2227D01*
G01Y-223038D01*
G02X-1041035Y-220811I3150J0D01*
G01X-998691Y-178468D01*
G03X-997308Y-175127I-3341J3340D01*
G01Y-117989D01*
G02X-996126Y-116808I1181J0D01*
G01X-953626D01*
G02X-952445Y-117989I0J-1181D01*
G01Y-175127D01*
G03X-951061Y-178468I4724J0D01*
G37*
%LPC*%
G75*
G36*
G01X-1016122Y-430152D02*
X-1016132Y-430246D01*
X-1015766Y-430612D01*
G02X-1015639Y-430918I-306J-306D01*
G01Y-432669D01*
X-1015106D01*
Y-430482D01*
G02X-1015042Y-430255I433J0D01*
G02X-1014084Y-430851I777J182D01*
G01X-1014240Y-430887D01*
Y-432669D01*
X-1013215D01*
Y-436864D01*
X-1013239D01*
Y-436974D01*
X-1014003D01*
Y-437389D01*
G02X-1014130Y-437695I-433J0D01*
G01X-1014700Y-438266D01*
Y-442124D01*
X-1014267Y-442558D01*
X-1014172Y-442549D01*
G02X-1014094Y-442545I78J-794D01*
G02X-1014892Y-443343I0J-798D01*
G02X-1014888Y-443265I798J0D01*
G01X-1014879Y-443171D01*
X-1015420Y-442630D01*
X-1015961Y-443171D01*
X-1015952Y-443265D01*
G02X-1015948Y-443343I-794J-78D01*
G02X-1016746Y-442545I-798J0D01*
G02X-1016668Y-442549I0J-798D01*
G01X-1016573Y-442558D01*
X-1016276Y-442261D01*
Y-438129D01*
X-1016710Y-437695D01*
G02X-1016837Y-437389I306J306D01*
G01Y-436974D01*
X-1017601D01*
Y-436917D01*
X-1017615D01*
Y-432723D01*
X-1016506D01*
Y-431097D01*
X-1016744Y-430858D01*
X-1016839Y-430868D01*
G02X-1016917Y-430872I-78J794D01*
G02X-1016119Y-430073I0J798D01*
G02X-1016122Y-430152I-798J0D01*
G37*
G36*
G01X-1022119Y-430186D02*
G03X-1022077Y-430431I177J-96D01*
G02X-1022061Y-430446I-291J-321D01*
G01X-1021847Y-430660D01*
G03X-1021504Y-430518I142J142D01*
G01Y-430061D01*
G02X-1021377Y-429755I433J0D01*
G01X-1021121Y-429499D01*
G02X-1020839Y-429373I306J-306D01*
G02X-1020214Y-430602I671J-432D01*
G03X-1020638Y-431003I-23J-401D01*
G01Y-432872D01*
X-1018926D01*
Y-432934D01*
X-1018908D01*
Y-437128D01*
X-1019914D01*
X-1020384Y-437598D01*
Y-438290D01*
G03X-1019915Y-438686I402J0D01*
G02X-1020452Y-439905I134J-787D01*
G02X-1020734Y-439778I24J432D01*
G01X-1021107Y-439406D01*
X-1021480Y-439778D01*
G02X-1021762Y-439905I-306J306D01*
G02X-1022388Y-438676I-671J432D01*
G03X-1021963Y-438275I23J401D01*
G01Y-437264D01*
X-1022152Y-437075D01*
X-1023334D01*
Y-432880D01*
X-1023288D01*
Y-432872D01*
X-1022351D01*
Y-431381D01*
X-1022547Y-431185D01*
X-1022711D01*
G02X-1023017Y-431058I0J433D01*
G01X-1023379Y-430696D01*
G02X-1023506Y-430390I306J306D01*
G01Y-430217D01*
X-1023528Y-430174D01*
G02X-1022119Y-430186I708J368D01*
G37*
G36*
G01X-1027855Y-429450D02*
X-1027843Y-429509D01*
X-1027770Y-429583D01*
G03X-1027162Y-429537I284J284D01*
G02X-1027120Y-429487I349J-257D01*
G01X-1026939Y-429306D01*
G02X-1026656Y-429179I307J-306D01*
G02X-1025740Y-430371I671J-432D01*
G01X-1025880Y-430416D01*
Y-431931D01*
X-1025424Y-432387D01*
G02X-1025297Y-432694I-306J-306D01*
G01Y-433109D01*
X-1024483D01*
Y-437303D01*
X-1024553D01*
Y-437331D01*
X-1025317D01*
Y-437746D01*
G02X-1025444Y-438052I-433J0D01*
G01X-1025996Y-438605D01*
Y-440761D01*
G03X-1025440Y-441132I402J0D01*
G02X-1024387Y-445544I882J-2121D01*
G03X-1024749Y-446034I30J-400D01*
G02X-1026198Y-446644I-778J-178D01*
G02X-1026480Y-446518I24J432D01*
G01X-1026853Y-446145D01*
X-1027226Y-446518D01*
G02X-1027508Y-446644I-306J306D01*
G02X-1028957Y-446034I-671J432D01*
G03X-1029318Y-445544I-391J90D01*
G02X-1030409Y-445172I171J2291D01*
G03X-1031031Y-445508I-221J-336D01*
G01Y-451244D01*
X-1030508Y-451768D01*
X-1030374Y-451690D01*
G02X-1029673Y-455924I1159J-1983D01*
G01X-1029778Y-455903D01*
X-1030158Y-456282D01*
Y-462917D01*
X-1029171Y-463904D01*
X-1029077Y-463894D01*
G02X-1028999Y-463891I78J-794D01*
G02X-1029797Y-464689I0J-798D01*
G02X-1029793Y-464611I798J0D01*
G01X-1029784Y-464516D01*
X-1030897Y-463403D01*
G02X-1030947Y-463344I306J306D01*
G03X-1031561Y-463288I-330J-229D01*
G01X-1031963Y-463690D01*
X-1031759Y-463893D01*
X-1031673Y-463891D01*
G02X-1032360Y-465055I22J-798D01*
G02X-1032435Y-464995I231J366D01*
G01X-1032705Y-464725D01*
G02X-1032832Y-464419I306J306D01*
G01Y-463514D01*
G02X-1032705Y-463208I433J0D01*
G01X-1031744Y-462247D01*
Y-456759D01*
X-1031904Y-456600D01*
X-1031933Y-456585D01*
G02X-1032046Y-456504I194J387D01*
G01X-1032324Y-456226D01*
X-1032458Y-456304D01*
G02X-1033129Y-452076I-1159J1983D01*
G01X-1033022Y-452099D01*
X-1032608Y-451685D01*
Y-438710D01*
X-1033042Y-438276D01*
G02X-1033168Y-437970I306J306D01*
G01Y-437554D01*
X-1033933D01*
Y-437504D01*
X-1034008D01*
Y-433310D01*
X-1033175D01*
X-1033117Y-433212D01*
G02X-1033047Y-433123I372J-222D01*
G01X-1032786Y-432868D01*
X-1032765Y-431345D01*
Y-431246D01*
X-1033688Y-430323D01*
X-1033808Y-430365D01*
G02X-1033289Y-429450I-263J753D01*
G01X-1033277Y-429509D01*
X-1032398Y-430388D01*
G03X-1032055Y-430247I142J142D01*
G01Y-430097D01*
X-1032088Y-430047D01*
G02X-1031075Y-430331I669J436D01*
G01X-1031189Y-430386D01*
Y-431358D01*
X-1031211Y-433046D01*
G02X-1031212Y-433065I-433J7D01*
G01X-1031212Y-433069D01*
X-1031215Y-433337D01*
X-1029501D01*
Y-437531D01*
X-1029570D01*
Y-437554D01*
X-1030334D01*
Y-437970D01*
G02X-1030461Y-438276I-433J0D01*
G01X-1031031Y-438846D01*
Y-440998D01*
G03X-1030409Y-441334I402J0D01*
G02X-1028149Y-441184I1262J-1919D01*
G03X-1027573Y-440823I175J362D01*
G01Y-438504D01*
X-1028024Y-438052D01*
G02X-1028151Y-437746I306J306D01*
G01Y-437331D01*
X-1028915D01*
Y-437303D01*
X-1028990D01*
Y-433109D01*
X-1028175D01*
Y-432694D01*
G02X-1028049Y-432387I433J0D01*
G01X-1027592Y-431931D01*
Y-430985D01*
X-1028254Y-430323D01*
X-1028373Y-430365D01*
G02X-1027855Y-429450I-264J753D01*
G37*
G36*
G01X-1037336Y-428325D02*
G02X-1036156Y-429399I604J-522D01*
G01Y-432217D01*
X-1035722Y-432651D01*
G02X-1035595Y-432957I-306J-306D01*
G01Y-433373D01*
X-1034831D01*
Y-433531D01*
X-1034801D01*
Y-437725D01*
X-1035665D01*
X-1035684Y-438159D01*
G02X-1035823Y-438459I-433J18D01*
G01X-1036243Y-438845D01*
X-1036251Y-439025D01*
Y-442444D01*
X-1035953Y-442742D01*
X-1035859Y-442732D01*
G02X-1035781Y-442729I78J-794D01*
G02X-1036579Y-443527I0J-798D01*
G02X-1036575Y-443449I798J0D01*
G01X-1036566Y-443354D01*
X-1037107Y-442813D01*
X-1037648Y-443354D01*
X-1037639Y-443449D01*
G02X-1037635Y-443527I-794J-78D01*
G02X-1038433Y-442729I-798J0D01*
G02X-1038355Y-442732I0J-798D01*
G01X-1038260Y-442742D01*
X-1037827Y-442308D01*
Y-438912D01*
X-1038272Y-438429D01*
G02X-1038386Y-438135I319J293D01*
G01Y-437645D01*
X-1039200D01*
Y-433451D01*
X-1039193D01*
Y-433373D01*
X-1038429D01*
Y-432957D01*
G02X-1038302Y-432651I433J0D01*
G01X-1037868Y-432217D01*
Y-430328D01*
X-1038389Y-429807D01*
X-1038461Y-429800D01*
G02X-1037888Y-428378I79J794D01*
G03X-1037336Y-428325I248J316D01*
G37*
G36*
G01X-993100Y-146814D02*
G02X-992861Y-147771I728J-327D01*
G03X-993473Y-147924I-246J-317D01*
G02X-993712Y-146967I-728J327D01*
G03X-993100Y-146814I246J317D01*
G37*
G36*
G01X-953027Y-175127D02*
G03X-951473Y-178879I5306J1D01*
G01X-909141Y-221211D01*
G02X-908389Y-223027I-1816J-1816D01*
G01Y-289277D01*
X-909888Y-290776D01*
X-920898D01*
X-922798Y-288876D01*
Y-229751D01*
X-959345Y-193204D01*
G03X-960031Y-193488I-284J-284D01*
G01Y-203818D01*
X-956328Y-207521D01*
G02X-956198Y-207835I-315J-315D01*
G01Y-240809D01*
X-951121Y-245886D01*
G02X-950991Y-246200I-315J-315D01*
G01Y-249689D01*
X-945191D01*
Y-262338D01*
G03X-944798Y-262739I402J0D01*
G02X-942216Y-263573I-91J-4697D01*
G03X-941586Y-263242I229J330D01*
G01Y-249689D01*
X-935191D01*
Y-263583D01*
X-941134D01*
G03X-941430Y-264256I0J-402D01*
G02X-941430Y-270616I-3458J-3179D01*
G03X-941135Y-271289I296J-272D01*
G01X-935191D01*
Y-285183D01*
X-941586D01*
Y-271630D01*
G03X-942216Y-271299I-402J0D01*
G02X-944798Y-272133I-2673J3863D01*
G03X-945191Y-272534I8J-402D01*
G01Y-285183D01*
X-950991D01*
Y-299594D01*
X-950821Y-299620D01*
G02X-950598Y-299690I-125J-788D01*
G01X-950556Y-299710D01*
X-948821D01*
Y-295381D01*
X-942427D01*
Y-309275D01*
X-944926D01*
Y-310106D01*
X-933891D01*
Y-315818D01*
G02X-933382Y-316824I-1733J-1509D01*
G01X-933347Y-316981D01*
X-932705D01*
Y-312000D01*
G02X-932129Y-310920I1298J0D01*
G01X-928821Y-308710D01*
Y-295381D01*
X-926922D01*
Y-290750D01*
G02X-926542Y-289832I1298J0D01*
G01X-926509Y-289800D01*
G02X-924322Y-290986I918J-918D01*
G01X-924326Y-291007D01*
Y-295381D01*
X-922427D01*
Y-308030D01*
G03X-922033Y-308431I402J0D01*
G02X-919451Y-309265I-91J-4697D01*
G03X-918821Y-308934I229J330D01*
G01Y-295381D01*
X-912427D01*
Y-309275D01*
X-918370D01*
G03X-918666Y-309948I0J-402D01*
G02X-917427Y-313183I-3458J-3179D01*
G03X-916741Y-313472I402J-5D01*
G01X-915651Y-312382D01*
G02X-914026Y-311709I1625J-1625D01*
G02X-911728Y-314007I0J-2298D01*
G02X-912402Y-315632I-2298J0D01*
G01X-913326Y-316557D01*
Y-316981D01*
X-912427D01*
Y-330875D01*
X-913326D01*
Y-331602D01*
X-912080D01*
X-910181Y-333502D01*
Y-430262D01*
X-911914Y-431995D01*
X-914715D01*
Y-436935D01*
X-914550D01*
X-910861Y-440624D01*
Y-503334D01*
X-914304Y-506777D01*
X-914590D01*
X-956305Y-548492D01*
Y-549478D01*
X-956320Y-549551D01*
G03X-956388Y-550046I3264J-698D01*
G03X-956394Y-550251I3332J-203D01*
G03X-956377Y-550328I188J2D01*
G01X-956305Y-550477D01*
Y-582152D01*
X-956421D01*
Y-582204D01*
X-961364D01*
Y-580333D01*
X-963311D01*
G02X-964135Y-579803I0J906D01*
G02X-965001Y-579656I-322J730D01*
G03X-965267Y-579650I-137J-147D01*
G02X-966282Y-579663I-515J609D01*
G03X-966549Y-579678I-126J-157D01*
G02X-967659Y-579693I-563J566D01*
G03X-967941Y-579700I-138J-146D01*
G02X-969089Y-579701I-575J554D01*
G03X-969369Y-579692I-144J-140D01*
G02X-970455Y-579683I-538J589D01*
G03X-970728Y-579681I-138J-146D01*
G02X-971753Y-579724I-538J590D01*
G03X-972235Y-579717I-245J-318D01*
G02X-973244Y-579662I-470J645D01*
G03X-973512Y-579660I-135J-148D01*
G02X-974600Y-579634I-530J597D01*
G03X-974881Y-579634I-140J-144D01*
G02X-975980Y-579653I-560J569D01*
G03X-976257Y-579658I-136J-148D01*
G02X-977380Y-579654I-560J569D01*
G03X-977664Y-579655I-142J-142D01*
G02X-978720Y-579723I-566J562D01*
G03X-978982Y-579736I-123J-158D01*
G02X-980136Y-579681I-551J578D01*
G03X-980414Y-579656I-152J-131D01*
G02X-981384Y-579682I-502J621D01*
G03X-981646Y-579705I-118J-163D01*
G02X-982725Y-579772I-576J552D01*
G03X-983204Y-579751I-253J-312D01*
G02X-984161Y-579704I-447J661D01*
G03X-984643Y-579680I-257J-309D01*
G02X-985867Y-579207I-448J660D01*
G03X-986313Y-578903I-390J-94D01*
G02X-986542Y-578909I-144J1038D01*
G03X-986963Y-579207I-33J-400D01*
G02X-988718Y-579681I-1013J267D01*
G01X-988831Y-579569D01*
X-988888Y-579556D01*
G02X-989896Y-578303I275J1253D01*
G01X-989896Y-573891D01*
G02X-989520Y-572984I1282J0D01*
G01X-983510Y-566974D01*
Y-527188D01*
X-1004584Y-506115D01*
G02X-1004960Y-505208I907J907D01*
G01Y-466807D01*
X-1011514Y-460253D01*
G02X-1011890Y-459346I907J907D01*
G01Y-450839D01*
G02X-1011774Y-450307I1282J0D01*
G01X-1011756Y-450267D01*
Y-438555D01*
X-1011774Y-438515D01*
G02X-1011853Y-437679I1167J533D01*
G03X-1012243Y-437182I-390J95D01*
G01X-1012304D01*
Y-431388D01*
X-1011306D01*
Y-430852D01*
X-1011441Y-430806D01*
G02X-1012303Y-429594I420J1212D01*
G01Y-406393D01*
G02Y-402582I1282J1906D01*
G01Y-401403D01*
G02X-1011927Y-400497I1282J0D01*
G01X-1011150Y-399720D01*
Y-293710D01*
X-1013296Y-291564D01*
G02X-1013672Y-290658I907J907D01*
G01Y-260637D01*
G02X-1013296Y-259730I1282J0D01*
G01X-1011586Y-258020D01*
Y-249689D01*
X-1009671D01*
Y-249333D01*
X-1010775Y-248229D01*
G02X-1011150Y-247322I907J907D01*
G01Y-197496D01*
G02X-1010775Y-196589I1282J0D01*
G01X-1008138Y-193952D01*
X-1008125Y-193932D01*
G02X-1007939Y-193696I1093J-671D01*
G01X-994190Y-179947D01*
G02X-993302Y-179571I907J-907D01*
G01X-993220Y-179570D01*
X-991881Y-178230D01*
Y-149150D01*
G02X-991676Y-148657I698J0D01*
G01X-990481Y-147461D01*
Y-135941D01*
G02X-990276Y-135447I698J0D01*
G01X-988664Y-133835D01*
G03X-988806Y-133492I-142J142D01*
G01X-989014D01*
Y-133169D01*
X-993057D01*
Y-131098D01*
X-994241D01*
Y-125604D01*
X-993057D01*
Y-123533D01*
X-989014D01*
Y-123210D01*
X-988033D01*
Y-121064D01*
X-988208Y-120889D01*
X-988337Y-120953D01*
G02X-987978Y-119880I-354J715D01*
G01X-987963Y-119909D01*
X-987710Y-120162D01*
X-987507Y-119958D01*
X-987510Y-119871D01*
G02X-986220Y-120472I798J27D01*
G02X-986319Y-120626I-405J153D01*
G01X-986457Y-120764D01*
Y-123210D01*
X-984001D01*
Y-120737D01*
X-984164Y-120705D01*
G02X-983418Y-119389I151J784D01*
G03X-982777Y-119331I299J268D01*
G02X-982089Y-120547I680J-418D01*
G03X-982288Y-120748I2J-201D01*
G01Y-123210D01*
X-979867D01*
Y-120660D01*
X-979973Y-120603D01*
G02X-979036Y-119332I375J705D01*
G03X-978450Y-119311I283J285D01*
G02X-977926Y-120629I602J-524D01*
G01X-978020Y-120620D01*
X-978154Y-120753D01*
Y-123210D01*
X-975733D01*
Y-120369D01*
G02X-974551Y-119874I407J686D01*
G01X-974578Y-119984D01*
X-974356Y-120206D01*
X-974006Y-119857D01*
X-974016Y-119763D01*
G02X-973300Y-120480I794J77D01*
G01X-973394Y-120470D01*
X-974020Y-121094D01*
Y-123210D01*
X-973211D01*
G03X-972827Y-122692I0J402D01*
G02X-971269Y-122538I764J232D01*
G01X-971278Y-122632D01*
X-971026Y-122884D01*
X-970803Y-122661D01*
X-970832Y-122550D01*
G02X-969702Y-121639I773J197D01*
G03X-969120Y-121280I179J359D01*
G01Y-120205D01*
G02X-968658Y-118745I445J662D01*
G01X-968572Y-118747D01*
X-967658Y-117834D01*
X-965240D01*
Y-118892D01*
G03X-964555Y-119176I402J0D01*
G01X-964370Y-118992D01*
X-964361Y-118925D01*
G02X-963571Y-118240I790J-113D01*
G02X-962773Y-119038I0J-798D01*
G02X-963458Y-119828I-798J0D01*
G01X-963525Y-119838D01*
X-965053Y-121366D01*
Y-123210D01*
X-964763D01*
X-964275Y-122722D01*
X-964278Y-122635D01*
G02X-962822Y-122157I798J28D01*
G03X-962206Y-122214I332J226D01*
G01X-961785Y-121794D01*
Y-119960D01*
X-961856Y-119900D01*
G02X-960823Y-119900I517J608D01*
G01X-960894Y-119960D01*
X-960894Y-121978D01*
G02X-960896Y-122023I-446J0D01*
G03X-960497Y-122464I400J-40D01*
G01X-955439D01*
G02X-955019Y-122638I0J-593D01*
G01X-953754Y-123904D01*
G02X-953580Y-124323I-420J-420D01*
G01Y-139613D01*
G02X-953598Y-139759I-593J0D01*
G02X-953636Y-140085I-795J-73D01*
G02X-953027Y-140941I-297J-856D01*
G01Y-175127D01*
G37*
G54D42*
X-935624Y-302328D03*
%LPD*%
G75*
G36*
G01X-940086Y-437644D02*
X-935773D01*
X-933614Y-439803D01*
Y-493408D01*
X-931999Y-495023D01*
Y-503368D01*
X-941364Y-512733D01*
Y-513080D01*
X-959909Y-531625D01*
G03X-959977Y-531699I907J-906D01*
G01X-959983Y-531705D01*
X-961242Y-532964D01*
G03X-961617Y-533870I907J-907D01*
G01Y-533871D01*
G03X-960742Y-535087I1282J0D01*
G01X-960604Y-535133D01*
Y-543597D01*
X-961252Y-544244D01*
G03X-961818Y-545006I2299J-2299D01*
G01X-962277D01*
Y-571438D01*
X-961361Y-572353D01*
Y-576432D01*
X-961364D01*
Y-579829D01*
X-963311D01*
G02X-963695Y-579308I0J402D01*
G03X-963659Y-579072I-762J236D01*
G03X-963880Y-578521I-798J0D01*
G01X-963935Y-578463D01*
Y-578315D01*
G03X-964066Y-578000I-445J0D01*
G01X-965810Y-576255D01*
Y-534996D01*
X-965766D01*
Y-529424D01*
X-965810Y-529380D01*
Y-526209D01*
X-944118Y-504516D01*
X-943134D01*
X-942894Y-504276D01*
X-942825Y-504267D01*
G03X-942565Y-504140I-55J442D01*
G01X-941357Y-502932D01*
G03X-941230Y-502672I-315J315D01*
G01X-941221Y-502603D01*
X-941078Y-502460D01*
Y-439366D01*
X-940217Y-438504D01*
G03X-940086Y-438190I-315J315D01*
G01Y-437644D01*
G37*
G36*
G01X-946512Y-497961D02*
Y-502452D01*
X-948148Y-504088D01*
X-950446D01*
Y-504036D01*
X-953073Y-501410D01*
Y-441365D01*
X-949943Y-438235D01*
X-947596D01*
X-946512Y-439319D01*
Y-497961D01*
G37*
G36*
G01X-914759Y-437439D02*
X-911365Y-440833D01*
Y-503125D01*
X-914513Y-506273D01*
X-919332D01*
Y-438122D01*
X-918649Y-437439D01*
X-914759D01*
G37*
G36*
G01X-961773Y-545510D02*
X-956809D01*
Y-549424D01*
X-956813Y-549445D01*
G03X-956898Y-550249I3757J-804D01*
G03X-956829Y-550551I692J0D01*
G01X-956809Y-550593D01*
Y-581186D01*
X-957322Y-581700D01*
X-960860D01*
Y-576936D01*
X-960857D01*
Y-572144D01*
X-961773Y-571229D01*
Y-545510D01*
G37*
G36*
G01X-1003222Y-395846D02*
Y-388083D01*
G02X-1002536Y-387799I402J0D01*
G01X-999490Y-390845D01*
X-999563Y-390977D01*
G03X-999847Y-392085I2012J-1108D01*
G03X-998042Y-394329I2297J0D01*
G03X-998045Y-394382I492J-53D01*
G03X-997900Y-394732I495J0D01*
G01X-997815Y-394817D01*
Y-430401D01*
X-998452Y-431038D01*
G03X-998576Y-431245I350J-350D01*
G01X-998619Y-431388D01*
X-999799D01*
Y-437182D01*
X-998548D01*
Y-455066D01*
G03X-998417Y-455381I446J0D01*
G01X-991585Y-462213D01*
Y-497426D01*
G03X-991455Y-497741I446J0D01*
G01X-976718Y-512478D01*
Y-516282D01*
G02X-977403Y-516566I-402J0D01*
G01X-993049Y-500921D01*
Y-465464D01*
G03X-993425Y-464558I-1282J0D01*
G01X-1000988Y-456994D01*
Y-440285D01*
G03X-1001572Y-439210I-1282J0D01*
G01Y-437182D01*
X-1000573D01*
Y-431388D01*
X-1000587D01*
G02X-1000989Y-430973I0J402D01*
G03X-1000988Y-430931I-1282J42D01*
G01Y-402211D01*
G03X-1000968Y-402211I21J2297D01*
G03Y-397617I0J2297D01*
G03X-1001310Y-397642I0J-2297D01*
G01X-1001410Y-397658D01*
X-1003222Y-395846D01*
G37*
G36*
G01X-991652Y-388487D02*
G03X-991077Y-387509I-1630J1618D01*
G02X-990407Y-387337I386J-112D01*
G01X-987746Y-389998D01*
Y-395789D01*
X-987891Y-395831D01*
G03Y-400243I640J-2206D01*
G01X-987746Y-400285D01*
Y-404944D01*
X-989882Y-407080D01*
G03X-990027Y-407430I350J-350D01*
G01Y-431388D01*
X-991462D01*
Y-437182D01*
X-990211D01*
Y-453935D01*
G03X-990080Y-454250I446J0D01*
G01X-983129Y-461201D01*
Y-498026D01*
G03X-982998Y-498341I446J0D01*
G01X-975537Y-505802D01*
Y-507745D01*
G02X-976222Y-508029I-402J0D01*
G01X-987297Y-496954D01*
Y-461397D01*
G03X-987428Y-461081I-446J0D01*
G01X-993488Y-455022D01*
Y-437182D01*
X-992236D01*
Y-431388D01*
X-993655D01*
Y-416871D01*
X-991797Y-415013D01*
G03X-991652Y-414663I-350J350D01*
G01Y-388487D01*
G37*
G36*
G01X-932649Y-339156D02*
Y-337449D01*
G02X-931963Y-337165I402J0D01*
G01X-924535Y-344593D01*
Y-386234D01*
G03X-925534Y-388129I1298J-1895D01*
G03X-923952Y-390312I2297J0D01*
G01X-923814Y-390358D01*
Y-423864D01*
G03X-922516Y-425162I1298J0D01*
G03X-922443Y-425160I1J1298D01*
G01X-922353Y-425155D01*
X-920855Y-426654D01*
Y-431645D01*
X-921754D01*
Y-437685D01*
X-921777Y-437729D01*
G03X-921925Y-438326I1135J-598D01*
G01Y-501717D01*
X-922574Y-502366D01*
G02X-923260Y-502083I-284J284D01*
G01Y-437588D01*
X-922361D01*
Y-431793D01*
X-923260D01*
Y-431450D01*
X-923194Y-431391D01*
G03X-922775Y-430443I-864J948D01*
G03X-923151Y-429536I-1282J0D01*
G01X-926223Y-426464D01*
Y-382922D01*
G03X-925208Y-381016I-1282J1906D01*
G03X-927505Y-378719I-2297J0D01*
G03X-927671Y-378725I0J-2297D01*
G01X-927762Y-378732D01*
X-929319Y-377176D01*
G03X-929883Y-376942I-564J-564D01*
G03X-930681Y-377740I0J-798D01*
G03X-930447Y-378304I798J0D01*
G01X-929245Y-379507D01*
X-929348Y-379646D01*
G03X-929802Y-381016I1844J-1371D01*
G03X-928787Y-382922I2297J0D01*
G01Y-426996D01*
G03X-928412Y-427902I1282J0D01*
G01X-924965Y-431349D01*
G03X-924922Y-431391I906J907D01*
G01X-924856Y-431450D01*
Y-431793D01*
X-925755D01*
Y-437588D01*
X-924856D01*
Y-502404D01*
X-925562Y-503110D01*
G02X-926248Y-502826I-284J284D01*
G01Y-439630D01*
G03X-926482Y-439065I-798J0D01*
G01X-927676Y-437871D01*
G02X-927534Y-437528I142J142D01*
G01X-927517D01*
Y-431734D01*
X-928416D01*
Y-429206D01*
G03X-928650Y-428642I-798J0D01*
G01X-932575Y-424716D01*
Y-376235D01*
G03Y-371927I-798J2154D01*
G01Y-367800D01*
G03X-932809Y-367236I-798J0D01*
G01X-936258Y-363787D01*
G03X-936608Y-363582I-564J-564D01*
G01X-936659Y-363568D01*
X-936838Y-363389D01*
X-936581Y-363132D01*
X-931340D01*
X-927953Y-359746D01*
Y-356939D01*
X-927953Y-356938D01*
Y-343852D01*
X-932649Y-339156D01*
G37*
G36*
G01X-988226Y-330875D02*
X-985578D01*
X-967417Y-349036D01*
Y-371817D01*
G03X-967286Y-372132I446J0D01*
G01X-965513Y-373905D01*
X-965591Y-374038D01*
G03X-965898Y-375187I1989J-1148D01*
G03X-963601Y-377484I2297J0D01*
G03X-962853Y-377359I0J2297D01*
G02X-962321Y-377738I131J-380D01*
G01Y-400855D01*
X-965069Y-403604D01*
G03X-965200Y-403919I315J-315D01*
G01Y-431388D01*
X-966451D01*
Y-437182D01*
X-965200D01*
Y-497618D01*
X-971011Y-503429D01*
G02X-971696Y-503145I-284J284D01*
G01Y-502714D01*
X-968607Y-499625D01*
G03X-968477Y-499310I-315J315D01*
G01Y-437182D01*
X-967225D01*
Y-431388D01*
X-968477D01*
Y-405272D01*
X-967075Y-403871D01*
G03X-966945Y-403555I-315J315D01*
G01Y-378532D01*
G03X-967075Y-378216I-446J0D01*
G01X-972558Y-372734D01*
X-972481Y-372601D01*
G03X-972173Y-371452I-1989J1148D01*
G03X-974470Y-369155I-2297J0D01*
G03X-975619Y-369463I0J-2297D01*
G01X-975752Y-369540D01*
X-988226Y-357067D01*
Y-330875D01*
G37*
G36*
G01X-993454Y-284001D02*
X-992271Y-282819D01*
G02X-991586Y-283103I284J-284D01*
G01Y-285183D01*
X-987010D01*
G02X-986726Y-285869I0J-402D01*
G01X-998526Y-297668D01*
G03X-998671Y-298018I350J-350D01*
G01Y-368446D01*
G03X-998526Y-368796I495J0D01*
G01X-987413Y-379909D01*
X-987486Y-380041D01*
G03X-987771Y-381149I2012J-1108D01*
G03X-986068Y-383368I2297J0D01*
G01X-985919Y-383407D01*
Y-384569D01*
G03X-985789Y-384884I446J0D01*
G01X-984361Y-386312D01*
Y-404825D01*
X-985911Y-406376D01*
G03X-986042Y-406691I315J-315D01*
G01Y-431388D01*
X-987293D01*
Y-437182D01*
X-986042D01*
Y-453986D01*
G03X-985911Y-454301I446J0D01*
G01X-980080Y-460132D01*
Y-498268D01*
G03X-979950Y-498583I446J0D01*
G01X-974947Y-503586D01*
Y-504162D01*
G02X-975633Y-504446I-402J0D01*
G01X-982237Y-497841D01*
Y-461017D01*
G03X-982368Y-460702I-446J0D01*
G01X-989319Y-453750D01*
Y-437182D01*
X-988068D01*
Y-431388D01*
X-989037D01*
Y-407635D01*
X-986901Y-405499D01*
G03X-986756Y-405149I-350J350D01*
G01Y-400285D01*
X-986611Y-400243D01*
G03Y-395831I-640J2206D01*
G01X-986756Y-395789D01*
Y-389793D01*
G03X-986901Y-389443I-495J0D01*
G01X-1001158Y-375186D01*
Y-293598D01*
X-993598Y-286038D01*
G03X-993454Y-285688I-350J350D01*
G01Y-284001D01*
G37*
G36*
G01X-960140Y-437182D02*
X-958782D01*
Y-438767D01*
G03X-958652Y-439082I446J0D01*
G01X-956863Y-440872D01*
Y-508631D01*
X-959454Y-511223D01*
G02X-960140Y-510939I-284J284D01*
G01Y-437182D01*
G37*
G36*
G01X-1005846Y-437121D02*
X-1003967D01*
Y-437182D01*
X-1002968D01*
Y-439210D01*
G03X-1003553Y-440285I698J-1076D01*
G01Y-457525D01*
G03X-1003177Y-458432I1282J0D01*
G01X-995614Y-465996D01*
Y-501452D01*
G03X-995238Y-502359I1282J0D01*
G01X-978983Y-518614D01*
Y-519341D01*
G02X-979668Y-519625I-402J0D01*
G01X-997134Y-502158D01*
Y-466268D01*
G03X-997510Y-465361I-1282J0D01*
G01X-1005157Y-457715D01*
Y-440946D01*
G03X-1005846Y-439809I-1282J0D01*
G01Y-437121D01*
G37*
G36*
G01X-996825Y-430606D02*
Y-406371D01*
G02X-996130Y-406097I402J0D01*
G03X-994453Y-406824I1677J1570D01*
G03X-993253Y-406487I0J2297D01*
G02X-992642Y-406829I210J-343D01*
G01Y-414458D01*
X-994500Y-416316D01*
G03X-994645Y-416666I350J-350D01*
G01Y-431388D01*
X-995630D01*
Y-437182D01*
X-994379D01*
Y-455206D01*
G03X-994249Y-455522I446J0D01*
G01X-988189Y-461581D01*
Y-497139D01*
G03X-988058Y-497454I446J0D01*
G01X-976239Y-509273D01*
Y-510726D01*
G02X-976925Y-511010I-402J0D01*
G01X-990694Y-497241D01*
Y-462028D01*
G03X-990824Y-461713I-446J0D01*
G01X-997656Y-454881D01*
Y-437182D01*
X-996405D01*
Y-431388D01*
X-996917D01*
G02X-997059Y-431045I0J201D01*
G01X-996970Y-430956D01*
G03X-996825Y-430606I-350J350D01*
G37*
G36*
G01X-961560Y-401355D02*
G03X-961432Y-401085I-315J315D01*
G01X-961413Y-400904D01*
X-961031D01*
Y-431388D01*
X-962282D01*
Y-437182D01*
X-961031D01*
Y-511432D01*
X-970421Y-520822D01*
G02X-971107Y-520538I-284J284D01*
G01Y-504786D01*
X-964439Y-498118D01*
G03X-964308Y-497803I-315J315D01*
G01Y-437182D01*
X-963057D01*
Y-431388D01*
X-964308D01*
Y-404103D01*
X-961560Y-401355D01*
G37*
G36*
G01X-1008961Y-401158D02*
G03X-1008675Y-400722I-907J907D01*
G01X-1008625Y-400595D01*
X-1008288D01*
Y-429128D01*
G03X-1007912Y-430035I1282J0D01*
G01X-1007305Y-430642D01*
G02X-1007423Y-431291I-284J-284D01*
G01Y-437121D01*
X-1007032D01*
Y-439809D01*
G03X-1007721Y-440946I594J-1137D01*
G01Y-458246D01*
G03X-1007346Y-459153I1282J0D01*
G01X-999699Y-466799D01*
Y-502690D01*
G03X-999324Y-503596I1282J0D01*
G01X-981246Y-521674D01*
Y-524856D01*
G02X-981932Y-525140I-402J0D01*
G01X-1002395Y-504677D01*
Y-466276D01*
G03X-1002771Y-465369I-1282J0D01*
G01X-1009325Y-458815D01*
Y-451278D01*
X-1009307Y-451238D01*
G03X-1009191Y-450705I-1167J532D01*
G01Y-438116D01*
G03X-1009257Y-437711I-1282J0D01*
G02X-1008910Y-437184I381J127D01*
G01Y-431388D01*
X-1009909D01*
Y-430236D01*
X-1009886Y-430192D01*
G03X-1009738Y-429594I-1134J598D01*
G01Y-406393D01*
G03Y-402582I-1282J1906D01*
G01Y-401935D01*
X-1008961Y-401158D01*
G37*
G36*
G01X-976371Y-389831D02*
G03X-976137Y-389843I234J2285D01*
G03X-974265Y-388877I0J2297D01*
G02X-973537Y-389110I327J-233D01*
G01Y-431388D01*
X-974788D01*
Y-437182D01*
X-972753D01*
Y-500797D01*
G02X-973096Y-500939I-201J0D01*
G01X-973414Y-500621D01*
X-973418Y-500617D01*
G03X-973436Y-500597I-333J-296D01*
G01X-973919Y-500115D01*
Y-457972D01*
G03X-974049Y-457657I-446J0D01*
G01X-976814Y-454893D01*
Y-437182D01*
X-975562D01*
Y-431388D01*
X-976814D01*
Y-390230D01*
G02X-976371Y-389831I402J0D01*
G37*
G36*
G01X-997681Y-298223D02*
X-993709Y-294251D01*
X-993467Y-294493D01*
X-993527Y-294620D01*
G03X-993570Y-294811I403J-190D01*
G01Y-367022D01*
G03X-993439Y-367337I446J0D01*
G01X-981207Y-379570D01*
Y-389826D01*
X-981356Y-389866D01*
G03X-983058Y-392084I595J-2219D01*
G03X-981874Y-394094I2297J0D01*
G01Y-431388D01*
X-983125D01*
Y-437182D01*
X-981874D01*
Y-453883D01*
G03X-981743Y-454198I446J0D01*
G01X-976980Y-458961D01*
Y-498965D01*
G03X-976849Y-499280I446J0D01*
G01X-974357Y-501773D01*
Y-501946D01*
G02X-975042Y-502230I-402J0D01*
G01X-979189Y-498083D01*
Y-459948D01*
G03X-979319Y-459633I-446J0D01*
G01X-985151Y-453802D01*
Y-437182D01*
X-983899D01*
Y-431388D01*
X-985151D01*
Y-406875D01*
X-983600Y-405325D01*
G03X-983469Y-405010I-315J315D01*
G01Y-386127D01*
G03X-983600Y-385812I-446J0D01*
G01X-985028Y-384384D01*
Y-383407D01*
X-984879Y-383368D01*
G03X-983176Y-381149I-595J2219D01*
G03X-985474Y-378852I-2297J0D01*
G03X-986581Y-379136I0J-2297D01*
G01X-986713Y-379209D01*
X-997681Y-368241D01*
Y-298223D01*
G37*
G36*
G01X-984813Y-289823D02*
X-977566D01*
G02X-977282Y-290509I0J-402D01*
G01X-982154Y-295381D01*
X-988821D01*
Y-308427D01*
X-988986Y-308592D01*
G03X-989116Y-308907I315J-315D01*
G01Y-357251D01*
G03X-988986Y-357566I445J0D01*
G01X-976382Y-370170D01*
X-976459Y-370303D01*
G03X-976767Y-371452I1989J-1149D01*
G03X-974470Y-373749I2297J0D01*
G03X-973322Y-373442I0J2297D01*
G01X-973188Y-373364D01*
X-967836Y-378716D01*
Y-403371D01*
X-969238Y-404772D01*
G03X-969368Y-405087I315J-315D01*
G01Y-431388D01*
X-970619D01*
Y-437182D01*
X-969368D01*
Y-499125D01*
X-971176Y-500933D01*
G02X-971862Y-500649I-284J284D01*
G01Y-437182D01*
X-971394D01*
Y-431388D01*
X-972645D01*
Y-384773D01*
X-971907Y-384034D01*
X-971773Y-384111D01*
G03X-970625Y-384419I1148J1989D01*
G03Y-379825I0J2297D01*
G03X-972884Y-381707I0J-2297D01*
G01X-972914Y-381871D01*
X-973296D01*
X-990155Y-365012D01*
Y-295165D01*
X-984813Y-289823D01*
G37*
G36*
G01X-954383Y-458101D02*
G02X-954633Y-458350I-424J174D01*
G01X-954279Y-458741D01*
X-953926Y-458350D01*
G02X-954175Y-458101I174J424D01*
G03X-954383I-104J-104D01*
G37*
G36*
G01X-961271Y-332317D02*
X-954859D01*
X-953438Y-333738D01*
Y-339280D01*
G03X-953204Y-339844I798J0D01*
G01X-943908Y-349139D01*
Y-352356D01*
G03X-943675Y-352920I798J0D01*
G01X-942992Y-353602D01*
G03X-942740Y-353772I564J564D01*
G01X-942618Y-353824D01*
Y-354290D01*
X-943606D01*
X-943661Y-354246D01*
G03X-945102Y-353737I-1441J-1789D01*
G03X-946597Y-354290I0J-2297D01*
G01X-949447D01*
Y-350651D01*
X-961271Y-338826D01*
Y-332317D01*
G37*
G36*
G01X-956695Y-131098D02*
X-955853D01*
Y-133154D01*
X-954766D01*
Y-139120D01*
X-954852Y-139180D01*
G03X-955191Y-139833I459J-653D01*
G03X-954393Y-140631I798J0D01*
G03X-954087Y-140570I0J798D01*
G02X-953531Y-140941I154J-371D01*
G01Y-175127D01*
G03X-951829Y-179236I5810J1D01*
G01X-909497Y-221567D01*
G02X-908893Y-223027I-1459J-1459D01*
G01Y-289068D01*
X-910097Y-290272D01*
X-920689D01*
X-922294Y-288668D01*
Y-229542D01*
X-959856Y-191980D01*
Y-186075D01*
X-961799Y-184132D01*
Y-147876D01*
X-961166Y-147243D01*
X-960252D01*
X-959324Y-146315D01*
Y-136246D01*
X-959409Y-136160D01*
Y-133169D01*
X-956695D01*
Y-131098D01*
G37*
G36*
G01X-919116Y-431049D02*
Y-425389D01*
X-920887Y-423618D01*
Y-343789D01*
X-927995Y-336681D01*
Y-332810D01*
X-927292Y-332107D01*
X-912289D01*
X-910685Y-333711D01*
Y-430053D01*
X-912123Y-431491D01*
X-918674D01*
X-919116Y-431049D01*
G37*
G36*
G01X-964192Y-133818D02*
X-960516D01*
G02X-960114Y-134216I0J-402D01*
G03X-959940Y-135070I2298J23D01*
G03X-959975Y-135470I2263J-400D01*
G01Y-146253D01*
X-960461Y-146739D01*
X-964382D01*
X-964971Y-146149D01*
Y-134598D01*
X-964192Y-133818D01*
G37*
G36*
G01X-944618Y-310610D02*
X-934395D01*
Y-316280D01*
X-946662D01*
Y-312654D01*
X-944618Y-310610D01*
G37*
G36*
G01X-942427Y-330734D02*
X-938821D01*
Y-330875D01*
X-933770D01*
X-933153Y-331492D01*
Y-339365D01*
X-928458Y-344060D01*
Y-357147D01*
X-928457Y-357148D01*
Y-359537D01*
X-931548Y-362628D01*
X-936790D01*
X-938874Y-364712D01*
X-938901Y-364726D01*
G03X-939234Y-365059I372J-706D01*
G01X-939248Y-365086D01*
X-939699Y-365537D01*
Y-369598D01*
X-939272Y-370024D01*
X-939273Y-370025D01*
Y-370041D01*
X-937902Y-371412D01*
Y-424915D01*
X-935525Y-427292D01*
Y-430525D01*
X-936496Y-431496D01*
X-939916D01*
Y-430119D01*
X-940010Y-430025D01*
X-940082D01*
X-945768Y-424339D01*
Y-364932D01*
X-945870Y-364723D01*
Y-361173D01*
X-940532Y-355835D01*
G03X-940504Y-355805I-314J315D01*
G01X-940498Y-355798D01*
X-939603Y-354902D01*
Y-348471D01*
X-947286Y-340788D01*
Y-330875D01*
X-942427D01*
Y-330734D01*
G37*
G36*
G01X-935021Y-430733D02*
Y-428293D01*
G02X-934335Y-428009I402J0D01*
G01X-933529Y-428815D01*
Y-431632D01*
X-934428D01*
Y-437426D01*
X-932893D01*
X-931309Y-439010D01*
X-931313Y-439098D01*
G03X-931315Y-439158I1281J-60D01*
G01Y-494025D01*
G02X-932000Y-494309I-402J0D01*
G01X-933110Y-493199D01*
Y-439594D01*
X-935564Y-437140D01*
X-936880D01*
Y-432000D01*
X-936288D01*
X-935021Y-430733D01*
G37*
G36*
G01X-1002534Y-379287D02*
G02X-1001848Y-379003I402J0D01*
G01X-995222Y-385629D01*
X-995295Y-385761D01*
G03X-995580Y-386869I2012J-1108D01*
G03X-993283Y-389166I2297J0D01*
G03X-993079Y-389157I0J2297D01*
G02X-992642Y-389557I36J-400D01*
G01Y-402226D01*
G02X-993253Y-402568I-402J0D01*
G03X-994453Y-402230I-1199J-1959D01*
G03X-996130Y-402958I0J-2297D01*
G02X-996825Y-402683I-293J274D01*
G01Y-394612D01*
G03X-996845Y-394472I-495J0D01*
G02X-996724Y-394228I193J57D01*
G03X-995253Y-392085I-826J2144D01*
G03X-997550Y-389788I-2297J0D01*
G03X-998658Y-390072I0J-2297D01*
G01X-998790Y-390145D01*
X-1002534Y-386401D01*
Y-379287D01*
G37*
G36*
G01X-994896Y-195476D02*
G02X-994211Y-195760I284J-284D01*
G01Y-247633D01*
X-994553D01*
X-994600Y-247500D01*
G03X-994716Y-247318I-466J-168D01*
G01X-997055Y-244978D01*
Y-197635D01*
X-994896Y-195476D01*
G37*
G36*
G01X-978646Y-193069D02*
G02X-978063Y-193084I284J-284D01*
G03X-978047Y-193101I332J298D01*
G01X-975122Y-196026D01*
Y-249689D01*
X-981586D01*
Y-252905D01*
G02X-982109Y-253288I-402J0D01*
G03X-982352Y-253250I-242J-760D01*
G03X-982433Y-253254I0J-798D01*
G02X-982875Y-252855I-41J400D01*
G01Y-197298D01*
X-978646Y-193069D01*
G37*
G36*
G01X-980418Y-191476D02*
G02X-979732Y-191760I284J-284D01*
G01Y-192061D01*
X-984120Y-196449D01*
X-984155Y-196464D01*
G03X-984454Y-196918I196J-454D01*
G01Y-250503D01*
G02X-984559Y-250618I-566J409D01*
G03X-984622Y-250644I272J-750D01*
G02X-985191Y-250279I-168J365D01*
G01Y-249689D01*
X-991607D01*
Y-248520D01*
X-988009Y-244923D01*
G03X-987864Y-244573I-350J350D01*
G01Y-198992D01*
X-983792Y-194919D01*
G03X-983687Y-194765I-350J350D01*
G01X-983672Y-194730D01*
X-980418Y-191476D01*
G37*
G36*
G01X-987685Y-151492D02*
G03X-987441Y-151530I244J760D01*
G03X-986877Y-151297I0J798D01*
G02X-986298Y-151310I284J-284D01*
G03X-985711Y-151567I587J540D01*
G03X-985354Y-151483I0J798D01*
G02X-984773Y-151842I180J-359D01*
G01Y-184022D01*
X-989724Y-188973D01*
X-989759Y-188988D01*
G03X-989913Y-189093I196J-455D01*
G01X-997900Y-197080D01*
G03X-998045Y-197430I350J-350D01*
G01Y-245183D01*
G03X-997900Y-245533I495J0D01*
G01X-995561Y-247872D01*
Y-249689D01*
X-1001223D01*
Y-197009D01*
X-987151Y-182937D01*
G03X-986775Y-182030I-907J907D01*
G01Y-180633D01*
G03X-987470Y-179494I-1282J0D01*
G03X-987564Y-179376I-588J-376D01*
G01X-988210Y-178731D01*
Y-151874D01*
G02X-987685Y-151492I402J0D01*
G37*
G36*
G01X-982010Y-133492D02*
X-981526D01*
X-981469Y-133597D01*
G03X-981393Y-133698I391J214D01*
G01X-980579Y-134512D01*
Y-143966D01*
G03X-980577Y-144013I446J0D01*
G01X-980576Y-144024D01*
Y-190373D01*
X-984302Y-194099D01*
X-984338Y-194115D01*
G03X-984492Y-194219I196J-455D01*
G01X-988709Y-198437D01*
G03X-988854Y-198786I350J-350D01*
G01Y-244368D01*
X-992452Y-247966D01*
G03X-992597Y-248316I350J-350D01*
G01Y-267486D01*
X-992944D01*
X-992989Y-267347D01*
G03X-993221Y-266992I-760J-244D01*
G01Y-194774D01*
X-988525Y-190078D01*
G03X-988420Y-189924I-350J350D01*
G01X-988405Y-189889D01*
X-986438Y-187922D01*
G03X-986334Y-187768I-350J350D01*
G01X-986319Y-187733D01*
X-983422Y-184836D01*
G03X-983292Y-184521I-315J315D01*
G01Y-149545D01*
G02X-982694Y-149194I402J0D01*
G03X-982303Y-149296I390J696D01*
G03Y-147700I0J798D01*
G03X-982694Y-147802I0J-798D01*
G02X-983292Y-147452I-196J350D01*
G01Y-146502D01*
X-982141Y-145351D01*
G03X-982010Y-145037I-315J315D01*
G01Y-133492D01*
G37*
G36*
G01X-975700D02*
X-974632D01*
Y-133698D01*
X-974633Y-133702D01*
G03X-974633Y-133722I445J-19D01*
G03X-974502Y-134038I446J0D01*
G01X-974084Y-134456D01*
Y-147351D01*
G03X-973953Y-147666I446J0D01*
G01X-973824Y-147795D01*
Y-150297D01*
G02X-974325Y-150686I-402J0D01*
G03X-974520Y-150662I-196J-774D01*
G03Y-152258I0J-798D01*
G03X-974325Y-152234I0J798D01*
G02X-974302Y-152229I99J-389D01*
G01X-974266Y-152216D01*
G03X-974125Y-152153I-255J756D01*
G01X-974079Y-152127D01*
X-973824D01*
Y-154211D01*
X-973825Y-154217D01*
G03X-973826Y-154244I445J-27D01*
G01Y-188011D01*
G03X-973695Y-188326I446J0D01*
G01X-971387Y-190633D01*
Y-206267D01*
G03X-971257Y-206582I446J0D01*
G01X-969406Y-208433D01*
X-965441Y-212398D01*
Y-249689D01*
X-971859D01*
Y-197380D01*
G03X-971990Y-197064I-446J0D01*
G01X-976697Y-192358D01*
Y-150388D01*
G02X-976109Y-150033I402J0D01*
G03X-975739Y-150124I370J707D01*
G03X-975739Y-148527I0J798D01*
G03X-976109Y-148618I0J-798D01*
G02X-976697Y-148262I-186J356D01*
G01Y-144605D01*
G03X-976696Y-144591I-446J13D01*
G01Y-134488D01*
X-976014Y-133805D01*
G03X-976009Y-133801I-316J314D01*
G01X-975700Y-133492D01*
G37*
G36*
G01X-972364D02*
X-971424D01*
X-969513Y-135403D01*
X-969512Y-135485D01*
G03X-969511Y-135511I446J6D01*
G01X-969510Y-135518D01*
Y-148629D01*
G03X-969380Y-148944I446J0D01*
G01X-969313Y-149011D01*
Y-149532D01*
G02X-969912Y-149881I-402J0D01*
G03X-970304Y-149778I-392J-695D01*
G03Y-151375I0J-798D01*
G03X-969912Y-151272I0J798D01*
G02X-969313Y-151622I197J-350D01*
G01Y-185730D01*
G03X-969183Y-186045I446J0D01*
G01X-967318Y-187909D01*
Y-207234D01*
G02X-968004Y-207518I-402J0D01*
G01X-969118Y-206404D01*
Y-190992D01*
G03X-969248Y-190677I-446J0D01*
G01X-972344Y-187581D01*
Y-150147D01*
G02X-971828Y-149762I402J0D01*
G03X-971603Y-149794I226J766D01*
G03Y-148198I0J798D01*
G03X-971828Y-148230I0J-798D01*
G02X-972344Y-147845I-114J385D01*
G01Y-147364D01*
G03X-972474Y-147049I-446J0D01*
G01X-972603Y-146920D01*
Y-134384D01*
X-972494Y-134275D01*
G03X-972364Y-133960I-315J315D01*
G03X-972364Y-133940I-446J1D01*
G01X-972364Y-133935D01*
Y-133492D01*
G37*
G36*
G01X-982531Y-323506D02*
G02X-982281Y-323755I-174J-424D01*
G01X-981891Y-323402D01*
X-982281Y-323048D01*
G02X-982531Y-323298I-424J174D01*
G03Y-323506I104J-104D01*
G37*
G36*
G01X-981912Y-303082D02*
G02Y-303434I-423J-176D01*
G01X-981386Y-303460D01*
X-981412Y-302934D01*
G02X-981764I-176J423D01*
G03X-981912Y-303082I0J-148D01*
G37*
G36*
G01X-988533Y-263810D02*
G02X-988783Y-264059I-424J174D01*
G01X-988429Y-264449D01*
X-988076Y-264059D01*
G02X-988325Y-263810I174J424D01*
G03X-988533I-104J-104D01*
G37*
G36*
G01X-974154Y-266879D02*
G02X-974572Y-266461I292J709D01*
G01X-974713Y-266835D01*
Y-267131D01*
X-974572Y-267505D01*
G02X-974154Y-267087I709J-292D01*
G03Y-266879I-104J104D01*
G37*
G36*
G01X-968687Y-263679D02*
G02X-968936Y-263929I-424J174D01*
G01X-968583Y-264319D01*
X-968229Y-263929D01*
G02X-968479Y-263679I174J424D01*
G03X-968687I-104J-104D01*
G37*
G36*
G01X-974324Y-267087D02*
G02X-974074Y-267336I-174J-423D01*
G01X-973684Y-266983D01*
X-974074Y-266630D01*
G02X-974324Y-266879I-423J174D01*
G03Y-267087I104J-104D01*
G37*
G36*
G01X-982903Y-275763D02*
X-983321Y-275346D01*
Y-275911D01*
G02X-982903I209J-502D01*
G01Y-275763D01*
G37*
G36*
G01X-984099Y-250473D02*
G02X-984641Y-251015I-921J379D01*
G01X-984307Y-251414D01*
X-983959Y-251041D01*
Y-250612D01*
X-984099Y-250473D01*
G37*
G36*
G01X-983955Y-251978D02*
G02X-983880Y-251624I463J87D01*
G01X-984299Y-251321D01*
X-984641Y-251722D01*
G02X-984287Y-252076I-247J-601D01*
G03X-983955Y-251978I139J139D01*
G37*
G36*
G01X-981852Y-254401D02*
G02Y-254048I424J177D01*
G01X-982378Y-254022D01*
X-982352Y-254548D01*
G02X-981999I177J-424D01*
G03X-981852Y-254401I0J147D01*
G37*
G36*
G01X-967450Y-118338D02*
X-965744D01*
Y-120366D01*
X-966074Y-120695D01*
G03X-966249Y-121118I423J-423D01*
G01Y-123018D01*
X-966342Y-123111D01*
G03X-966370Y-123141I423J-423D01*
G01X-966430Y-123210D01*
X-968230D01*
Y-120205D01*
G03X-967877Y-119543I-445J663D01*
G03X-968002Y-119113I-798J0D01*
G01X-968089Y-118977D01*
X-967450Y-118338D01*
G37*
G36*
G01X-967912Y-331398D02*
X-962282D01*
Y-337761D01*
G03X-961902Y-338679I1298J0D01*
G01X-961791Y-338790D01*
Y-339019D01*
X-949951Y-350860D01*
Y-359189D01*
X-949966Y-359226D01*
G03X-950061Y-359710I1187J-485D01*
G01Y-360750D01*
G03X-951045Y-362619I1283J-1869D01*
G01Y-424560D01*
G03X-948779Y-426827I2267J0D01*
G03X-948461Y-426804I0J2267D01*
G01X-948362Y-426790D01*
X-944894Y-430258D01*
Y-431744D01*
X-946098Y-432948D01*
X-947187D01*
Y-431426D01*
X-950720D01*
Y-431388D01*
X-952421D01*
X-954250D01*
X-957616Y-428022D01*
Y-361799D01*
X-958670Y-360745D01*
Y-358806D01*
X-961412Y-356064D01*
Y-355453D01*
Y-349248D01*
X-969030Y-341630D01*
Y-331956D01*
X-968472Y-331398D01*
X-967912D01*
G37*
G36*
G01X-965687Y-313774D02*
X-961256D01*
Y-315420D01*
X-962818Y-316981D01*
X-967790D01*
Y-315878D01*
X-965687Y-313774D01*
G37*
%LPC*%
G75*
G54D43*
X-916036Y-395505D03*
X-941167Y-362224D03*
X-957331Y-351932D03*
%LPD*%
G75*
G54D10*
G01X-920643Y-438326D02*
Y-437474D01*
X-920057Y-436889D01*
Y-435942D01*
G01X-924058Y-436090D02*
Y-502735D01*
X-954906Y-533583D01*
X-955189D01*
G01X-929214Y-436031D02*
Y-437461D01*
X-927046Y-439630D01*
Y-503892D01*
X-954429Y-531276D01*
X-954712D01*
G01X-932731Y-435929D02*
Y-436460D01*
X-930032Y-439158D01*
G01X-965783Y-579041D02*
Y-578424D01*
X-967681Y-576526D01*
G01X-966090Y-133447D02*
Y-133532D01*
X-966354Y-133796D01*
Y-146845D01*
X-965188Y-148011D01*
Y-148948D01*
G01X-942371Y-433364D02*
Y-430968D01*
X-943217Y-430122D01*
G01X-955141Y-314979D02*
X-955624Y-315462D01*
Y-323928D01*
G01X-936953Y-367977D02*
X-937116D01*
X-938528Y-366565D01*
Y-365432D01*
G01X-932731Y-433129D02*
Y-428485D01*
X-936953Y-424263D01*
Y-367978D01*
X-936953Y-367977D01*
G01X-942428Y-353038D02*
X-943110Y-352356D01*
Y-348809D01*
X-952640Y-339280D01*
Y-333407D01*
X-955624Y-330423D01*
Y-323928D01*
G01X-929883Y-377740D02*
X-927505Y-380118D01*
Y-381016D01*
G01X-924058Y-430443D02*
Y-433290D01*
G01X-922516Y-423864D02*
X-920057Y-426323D01*
Y-433142D01*
G01X-936822Y-364351D02*
X-933373Y-367800D01*
Y-374081D01*
G01D02*
Y-425047D01*
X-929214Y-429206D01*
Y-433231D01*
X-964221Y-535708D03*
X-962383Y-578978D03*
X-957151Y-522744D03*
X-955227Y-521629D03*
X-955610Y-523433D03*
X-987977Y-578940D03*
X-985091Y-579020D03*
X-983651Y-579090D03*
X-982222Y-579153D03*
X-980916Y-579035D03*
X-979533Y-579158D03*
X-978231Y-579092D03*
X-976817Y-579089D03*
X-975440Y-579066D03*
X-974042Y-579063D03*
X-972706Y-579072D03*
X-948333Y-529525D03*
X-955189Y-533583D03*
X-954712Y-531276D03*
X-960335Y-533871D03*
X-948542Y-503096D03*
X-965783Y-579041D03*
X-971266Y-579092D03*
X-958953Y-580890D03*
X-957873Y-579919D03*
X-957680Y-581394D03*
X-986456Y-577865D03*
X-964457Y-579072D03*
X-967112Y-579112D03*
X-990683Y-582664D03*
X-956640Y-582534D03*
X-991837Y-582697D03*
X-990510Y-567389D03*
X-990025Y-564379D03*
X-990607Y-558942D03*
X-985170Y-563149D03*
X-984911Y-556254D03*
X-990607Y-553505D03*
X-996813Y-538813D03*
X-992886Y-536976D03*
X-998593Y-531422D03*
X-988954Y-534791D03*
X-988735Y-541563D03*
X-1016175Y-519342D03*
X-1008983Y-526591D03*
X-1003372Y-526708D03*
X-1002935Y-521247D03*
X-995507Y-528019D03*
X-994312Y-522153D03*
X-988584Y-528075D03*
X-1018882Y-510980D03*
X-1014950Y-509451D03*
X-1011862Y-518476D03*
X-1007304Y-516004D03*
X-1001206Y-515453D03*
X-1039617Y-498275D03*
X-1033634Y-496521D03*
X-1027712Y-496618D03*
X-1020193Y-503116D03*
X-1010527Y-506424D03*
X-1008884Y-498000D03*
X-1000702Y-498831D03*
X-986748Y-518218D03*
X-996198Y-509026D03*
X-991020Y-514010D03*
X-983770Y-520936D03*
X-984353Y-506567D03*
X-990308Y-501194D03*
X-979563Y-512522D03*
X-964487Y-505518D03*
X-962448Y-496562D03*
X-966941Y-504473D03*
X-965142Y-510761D03*
X-968430Y-509392D03*
X-969336Y-516642D03*
X-996333Y-497569D03*
X-968515Y-579146D03*
X-969907Y-579103D03*
X-954279Y-458704D03*
X-963571Y-119038D03*
X-955141Y-314979D03*
X-942428Y-353038D03*
X-938528Y-365432D03*
X-982303Y-148498D03*
X-979598Y-119898D03*
X-1028637Y-429611D03*
X-1028179Y-446212D03*
X-977848Y-119835D03*
X-1025985Y-429611D03*
X-1025527Y-446212D03*
X-984012Y-119921D03*
X-1034071Y-429611D03*
X-987441Y-150732D03*
X-1031651Y-464689D03*
X-1031419Y-429611D03*
X-982097Y-119749D03*
X-985711Y-150769D03*
X-1028999Y-464689D03*
X-975325Y-119683D03*
X-1022820Y-429805D03*
X-975739Y-149325D03*
X-1022433Y-439472D03*
X-973221Y-119686D03*
X-1020168Y-429805D03*
X-974520Y-151460D03*
X-1019781Y-439472D03*
X-972063Y-122460D03*
X-971603Y-148996D03*
X-1016917Y-430073D03*
X-1016746Y-443343D03*
X-970058Y-122353D03*
X-970304Y-150577D03*
X-1014265Y-430073D03*
X-1014094Y-443343D03*
X-1038382Y-429006D03*
X-994202Y-147597D03*
X-988691Y-120237D03*
X-1038433Y-443527D03*
X-1036732Y-428847D03*
X-992372Y-147141D03*
X-986712Y-119844D03*
X-1035781Y-443527D03*
X-914026Y-283126D03*
Y-314007D03*
X-919298Y-286850D03*
X-928613Y-315645D03*
X-909701Y-284575D03*
X-920277Y-270610D03*
Y-262736D03*
X-909970Y-272628D03*
Y-264754D03*
X-920277Y-254862D03*
X-909970Y-256880D03*
X-920277Y-246988D03*
X-909970Y-249006D03*
X-947095Y-200108D03*
X-944529Y-203206D03*
X-940101Y-207411D03*
X-950005Y-197089D03*
X-961151Y-149006D03*
X-960998Y-145546D03*
X-942102Y-312771D03*
X-929883Y-377740D03*
X-961340Y-119292D03*
X-908781Y-478867D03*
X-1007322Y-495453D03*
X-1039853Y-488479D03*
X-1033518Y-491319D03*
X-1027620Y-489572D03*
X-1022765Y-489142D03*
X-1017711Y-494967D03*
X-1017790Y-489134D03*
X-1011594Y-490598D03*
X-1008615Y-493285D03*
X-1007322Y-487579D03*
X-910331Y-489204D03*
X-1039416Y-480833D03*
X-1033955Y-483236D03*
X-1027183Y-480833D03*
X-1017790Y-480178D03*
X-1007322Y-479705D03*
X-1009488Y-482144D03*
X-1009052Y-473624D03*
X-1039198Y-471658D03*
X-1033154Y-470888D03*
X-1022668Y-471374D03*
X-1007322Y-471830D03*
X-1000702Y-483083D03*
Y-490957D03*
X-962011Y-478503D03*
X-962303Y-490736D03*
X-996333Y-481821D03*
Y-489695D03*
X-984876Y-482872D03*
X-984806Y-494634D03*
X-985022Y-488843D03*
X-980895Y-482763D03*
Y-474889D03*
Y-490637D03*
X-977886Y-470520D03*
Y-478394D03*
Y-486268D03*
X-966817Y-468600D03*
X-966672Y-476318D03*
X-967254Y-486950D03*
Y-492921D03*
X-958370Y-471949D03*
X-958516Y-482290D03*
X-958225Y-490008D03*
X-932302Y-471804D03*
Y-483600D03*
Y-490445D03*
X-969584Y-216832D03*
X-971159Y-120346D03*
X-969536Y-211436D03*
X-1017771Y-361790D03*
X-1018664Y-463575D03*
X-1011892Y-464886D03*
X-910310Y-465760D03*
X-1038980Y-453527D03*
X-1022668Y-457878D03*
X-1018664Y-454400D03*
X-909955Y-452178D03*
X-910080Y-445927D03*
X-909830Y-439988D03*
X-909580Y-433173D03*
X-1025172Y-420264D03*
X-1030415Y-425119D03*
Y-417245D03*
X-1017729Y-420976D03*
X-909580Y-425299D03*
Y-417425D03*
X-1039865Y-408594D03*
X-1035399Y-409177D03*
X-1025172Y-412390D03*
X-1030415Y-409371D03*
X-1025172Y-404516D03*
X-1017729Y-413102D03*
Y-405228D03*
X-909580Y-409551D03*
X-1039865Y-400720D03*
Y-392846D03*
X-1035399Y-401303D03*
X-1025172Y-396642D03*
X-1030415Y-401497D03*
X-1035399Y-393429D03*
X-1030415Y-393623D03*
X-1017729Y-397354D03*
X-909580Y-401677D03*
Y-393803D03*
X-1039865Y-384972D03*
X-1035399Y-385555D03*
X-1025172Y-388768D03*
X-1030415Y-385749D03*
X-1025172Y-380894D03*
X-1017729Y-389480D03*
Y-381606D03*
X-909580Y-385929D03*
X-1039865Y-377098D03*
Y-369224D03*
X-1035399Y-377680D03*
X-1025172Y-373020D03*
X-1030415Y-377875D03*
X-1035399Y-369806D03*
X-1030415Y-370001D03*
X-1012783Y-374719D03*
X-1017729Y-373732D03*
X-909580Y-378055D03*
Y-370181D03*
X-1039865Y-361350D03*
X-1035399Y-361932D03*
X-1025172Y-365146D03*
X-1030415Y-362127D03*
X-1025172Y-357272D03*
X-1012783Y-366845D03*
Y-358971D03*
X-1017729Y-357984D03*
X-909580Y-362307D03*
X-1039865Y-353476D03*
Y-345602D03*
X-1035399Y-354058D03*
X-1025172Y-349398D03*
X-1030415Y-354253D03*
X-1035399Y-346184D03*
X-1030415Y-346379D03*
X-1012783Y-351097D03*
X-1017729Y-350110D03*
X-909701Y-355441D03*
Y-347567D03*
X-1039865Y-337728D03*
X-1035399Y-338310D03*
X-1025172Y-341524D03*
X-1030415Y-338505D03*
X-1025172Y-333650D03*
X-1017729Y-342236D03*
X-1012346Y-334815D03*
X-1017729Y-334362D03*
X-909701Y-339693D03*
X-1039865Y-329854D03*
Y-321980D03*
X-1035399Y-330436D03*
X-1025172Y-325776D03*
X-1030415Y-330630D03*
X-1035399Y-322562D03*
X-1030415Y-322756D03*
X-1012346Y-326941D03*
X-1017729Y-326488D03*
X-909701Y-331819D03*
Y-323945D03*
X-1039865Y-314106D03*
X-1035399Y-314688D03*
X-1025172Y-317902D03*
X-1030415Y-314882D03*
X-1025172Y-310028D03*
X-1012346Y-319067D03*
X-1017729Y-318614D03*
X-1012346Y-311193D03*
X-1017729Y-310740D03*
X-909701Y-316071D03*
X-1039865Y-306232D03*
Y-298358D03*
X-1035399Y-306814D03*
X-1025172Y-302154D03*
X-1035399Y-298940D03*
X-1030415Y-299134D03*
X-1017729Y-302866D03*
X-909701Y-308197D03*
Y-300323D03*
X-1039865Y-290484D03*
X-1035399Y-291066D03*
X-1025172Y-294280D03*
X-1030415Y-291260D03*
X-1025172Y-286406D03*
X-1012201Y-294036D03*
X-1017729Y-294992D03*
X-1019046Y-287184D03*
X-909701Y-292449D03*
X-1039865Y-282610D03*
Y-274736D03*
X-1035399Y-283192D03*
X-1030415Y-283386D03*
X-1035399Y-275318D03*
X-1025172Y-278532D03*
X-1030415Y-275512D03*
X-1017729Y-279244D03*
X-1039865Y-266862D03*
X-1035399Y-267444D03*
X-1025172Y-270658D03*
X-1030415Y-267638D03*
X-1025172Y-262784D03*
X-1017729Y-271370D03*
Y-263496D03*
X-1039865Y-258988D03*
Y-251114D03*
X-1035399Y-259570D03*
Y-251696D03*
X-1025172Y-254910D03*
X-1030415Y-251890D03*
Y-259764D03*
X-1017729Y-255622D03*
X-1039865Y-243240D03*
X-1030415Y-244016D03*
X-1035399Y-243822D03*
X-1025172Y-247036D03*
Y-239162D03*
X-1013566Y-240425D03*
X-1017729Y-247748D03*
X-1016382Y-243047D03*
X-1039865Y-227492D03*
Y-235366D03*
X-1035399Y-235948D03*
Y-228074D03*
X-1030415Y-228268D03*
Y-236142D03*
X-1017729Y-232000D03*
X-1030415Y-220394D03*
X-1025172Y-223414D03*
X-1014295Y-226153D03*
X-1017729Y-216252D03*
X-1025172Y-215540D03*
X-1017729Y-208378D03*
X-1014440Y-215085D03*
X-1014926Y-204502D03*
X-942564Y-242899D03*
Y-235025D03*
X-961866Y-409161D03*
Y-424909D03*
Y-417035D03*
X-962448Y-441366D03*
Y-457968D03*
X-962303Y-450686D03*
X-962448Y-461464D03*
X-991284Y-442094D03*
Y-449376D03*
X-987643Y-442531D03*
X-987498Y-451415D03*
X-983129Y-448793D03*
X-972903Y-353403D03*
Y-345529D03*
X-978075Y-352955D03*
Y-345081D03*
X-972903Y-361277D03*
X-978075Y-360829D03*
X-963759Y-383376D03*
Y-399124D03*
Y-391250D03*
X-966526Y-411782D03*
Y-419656D03*
Y-427531D03*
X-966963Y-443987D03*
X-966817Y-459716D03*
X-958662Y-444133D03*
X-957788Y-453454D03*
X-958079Y-462483D03*
X-932010Y-459716D03*
X-932448Y-450395D03*
X-995507Y-444650D03*
X-995798Y-438791D03*
X-995507Y-452524D03*
X-973953Y-440929D03*
X-974390Y-447337D03*
X-971040Y-411782D03*
Y-419656D03*
Y-427531D03*
X-926766Y-373637D03*
X-930263Y-385442D03*
X-924874Y-406976D03*
X-930700Y-405957D03*
X-924874Y-414850D03*
Y-422724D03*
X-930700Y-413831D03*
Y-421705D03*
X-999440Y-213774D03*
X-999731Y-244940D03*
X-996068Y-222612D03*
X-995216Y-240280D03*
X-991370Y-219304D03*
X-990556Y-205764D03*
X-990993Y-233872D03*
X-990556Y-242853D03*
X-979924Y-207461D03*
X-977449Y-223386D03*
X-978177Y-233726D03*
X-977740Y-244358D03*
X-969584Y-229551D03*
X-969779Y-244600D03*
X-969196Y-239357D03*
X-985878Y-212688D03*
X-991830Y-144187D03*
X-996181Y-153643D03*
X-996096Y-143200D03*
X-996080Y-134619D03*
X-996272Y-127814D03*
X-996016Y-120302D03*
X-992549Y-121458D03*
X-994667Y-118633D03*
X-983946Y-118119D03*
X-980914Y-122175D03*
X-985089Y-121725D03*
X-977012Y-118312D03*
X-971041Y-118505D03*
X-976902Y-122066D03*
X-955440Y-119724D03*
X-958651Y-118440D03*
X-953514Y-118312D03*
X-991767Y-142091D03*
X-929900Y-269920D03*
Y-262046D03*
Y-254172D03*
Y-246298D03*
X-968275Y-205465D03*
X-963609Y-207697D03*
X-968675Y-119543D03*
X-954393Y-139833D03*
X-925592Y-290717D03*
X-981412Y-303434D03*
X-981928Y-323402D03*
X-993748Y-267591D03*
X-988429Y-264413D03*
X-973721Y-266983D03*
X-968583Y-264282D03*
X-982352Y-254048D03*
X-984287Y-251369D03*
X-997865Y-266100D03*
X-1002505Y-276788D03*
X-966366Y-119031D03*
X-962609Y-315280D03*
X-963481Y-122607D03*
X-950946Y-300409D03*
X-941228Y-350300D03*
X-936822Y-364351D03*
X-1006118Y-240609D03*
X-1008290Y-286937D03*
G54D20*
G01X-985211Y-124857D02*
Y-121847D01*
G01D02*
X-985089Y-121725D01*
G54D11*
X-924058Y-433290D03*
Y-436090D03*
X-1010607Y-435685D03*
Y-432885D03*
X-968922Y-435685D03*
Y-432885D03*
X-964754Y-435685D03*
Y-432885D03*
X-938577Y-436045D03*
Y-433245D03*
X-960585Y-435685D03*
Y-432885D03*
X-916412Y-435942D03*
Y-433142D03*
X-998102Y-435685D03*
Y-432885D03*
X-993933Y-435685D03*
Y-432885D03*
X-989765Y-435685D03*
Y-432885D03*
X-1002270Y-435685D03*
Y-432885D03*
X-952417D03*
Y-435685D03*
X-920057Y-433142D03*
Y-435942D03*
X-985596Y-435685D03*
Y-432885D03*
X-981428Y-435685D03*
Y-432885D03*
X-1005726Y-435624D03*
Y-432824D03*
X-932731Y-433129D03*
Y-435929D03*
X-929214Y-433231D03*
Y-436031D03*
X-973091Y-435685D03*
Y-432885D03*
X-977259Y-435685D03*
Y-432885D03*
X-948884Y-432924D03*
Y-435724D03*
X-942371Y-436164D03*
Y-433364D03*
G54D30*
G01X-962383Y-578978D02*
Y-576248D01*
X-964221Y-574410D01*
Y-535708D01*
G01X-1010607Y-435685D02*
Y-437983D01*
G01X-948884Y-435724D02*
Y-437694D01*
X-948542Y-438036D01*
G01X-942371Y-438013D02*
Y-436164D01*
G01X-956207Y-550249D02*
G02X-955284Y-548022I3150J0D01*
G01X-909008Y-501746D01*
G03X-908201Y-499798I-1948J1948D01*
G01Y-479448D01*
X-908781Y-478867D01*
G01X-996913Y-161166D02*
Y-175127D01*
G02X-998413Y-178746I-5118J0D01*
G01X-1040756Y-221090D01*
G03X-1041563Y-223038I1948J-1948D01*
G01Y-499649D01*
G03X-1040756Y-501598I2756J0D01*
G01X-994136Y-548218D01*
G02X-993214Y-550445I-2228J-2227D01*
G01Y-581879D01*
G01X-996913Y-143998D02*
Y-117989D01*
G02X-996126Y-117202I787J0D01*
G01X-953626D01*
G02X-952839Y-117989I0J-787D01*
G01Y-175127D01*
G03X-951340Y-178746I5119J1D01*
G01X-909008Y-221078D01*
G02X-908201Y-223027I-1948J-1948D01*
G01Y-478287D01*
X-908781Y-478867D01*
G01X-988058Y-179870D02*
X-988057Y-180633D01*
G01X-966366Y-119347D02*
X-967254Y-120236D01*
Y-122453D01*
G01X-990651Y-180651D02*
Y-181423D01*
G54D21*
G01X-965919Y-131845D02*
Y-133277D01*
X-966090Y-133447D01*
G01X-965919Y-124857D02*
Y-123534D01*
X-965651Y-123265D01*
Y-121118D01*
X-963571Y-119038D01*
G01X-962130Y-136242D02*
X-963163Y-135208D01*
G01X-962130Y-136242D02*
X-961785Y-135897D01*
G01X-963163Y-135208D02*
Y-131845D01*
G01X-961785Y-135897D02*
Y-131845D01*
G01X-987967Y-134125D02*
Y-131845D01*
G01X-985211Y-131845D02*
Y-134464D01*
G01X-967254Y-122453D02*
X-967297Y-122496D01*
G01D02*
Y-124857D01*
G01X-986589Y-131845D02*
Y-134295D01*
G01X-625135Y-648233D02*
Y-638233D01*
G01X-630385D02*
Y-648233D01*
G01Y-643233D02*
X-625135D01*
G01X-634885Y-648233D02*
Y-638233D01*
X-640635Y-648233D01*
Y-638233D01*
G01X-647760D02*
X-646760Y-638566D01*
X-646010Y-639400D01*
X-645510Y-640400D01*
X-645135Y-641733D01*
X-645010Y-643233D01*
X-645135Y-644733D01*
X-645510Y-646067D01*
X-646010Y-647067D01*
X-646760Y-647900D01*
X-647760Y-648233D01*
X-648760Y-647900D01*
X-649510Y-647067D01*
X-650010Y-646067D01*
X-650385Y-644733D01*
X-650510Y-643233D01*
X-650385Y-641733D01*
X-650010Y-640400D01*
X-649510Y-639400D01*
X-648760Y-638566D01*
X-647760Y-638233D01*
G01X-655260Y-648233D02*
Y-638233D01*
X-658385D01*
X-659385Y-638733D01*
X-660010Y-639400D01*
X-660260Y-640733D01*
X-660010Y-642066D01*
X-659260Y-642900D01*
X-658385Y-643400D01*
X-655260D01*
G01X-658385D02*
X-660260Y-648233D01*
G01X-664885D02*
Y-638233D01*
X-670635Y-648233D01*
Y-638233D01*
G01X-674635Y-648233D02*
X-677760Y-638233D01*
X-680885Y-648233D01*
G01X-679760Y-644733D02*
X-675760D01*
G01X-685260Y-638233D02*
Y-648233D01*
X-690260D01*
G01X-697760Y-638233D02*
Y-648233D01*
G01X-694885Y-638233D02*
X-700635D01*
G01X-705385Y-648233D02*
Y-638233D01*
X-710135D01*
G01X-708385Y-643066D02*
X-705385D01*
G01X-724635Y-638233D02*
X-727760Y-648233D01*
X-730885Y-638233D01*
G01X-735885Y-643733D02*
X-739885D01*
X-739510Y-642566D01*
X-738885Y-641900D01*
X-738010Y-641567D01*
X-737135Y-641733D01*
X-736385Y-642233D01*
X-735885Y-643400D01*
X-735635Y-644400D01*
Y-645400D01*
X-735885Y-646400D01*
X-736510Y-647400D01*
X-737260Y-648066D01*
X-738135Y-648233D01*
X-739010Y-647900D01*
X-739885Y-646900D01*
G01X-746010Y-648233D02*
Y-641567D01*
G01Y-642900D02*
X-746635Y-642233D01*
X-747260Y-641733D01*
X-748135Y-641567D01*
X-748760Y-641733D01*
X-749510Y-642233D01*
G01X-757760Y-648566D02*
X-757510Y-648400D01*
Y-648066D01*
X-757760Y-647900D01*
X-758010Y-648066D01*
Y-648400D01*
X-757760Y-648566D01*
G01X-764635Y-648233D02*
X-767760Y-638233D01*
X-770885Y-648233D01*
G01X-769760Y-644733D02*
X-765760D01*
G01X-784635Y-648233D02*
X-787760Y-638233D01*
X-790885Y-648233D01*
G01X-789760Y-644733D02*
X-785760D01*
G01X-795260Y-648233D02*
Y-638233D01*
X-798385D01*
X-799385Y-638733D01*
X-800010Y-639400D01*
X-800260Y-640733D01*
X-800010Y-642066D01*
X-799260Y-642900D01*
X-798385Y-643400D01*
X-795260D01*
G01X-798385D02*
X-800260Y-648233D01*
G01X-807760Y-638233D02*
Y-648233D01*
G01X-804885Y-638233D02*
X-810635D01*
G01X-814010D02*
X-815760Y-648233D01*
X-817760Y-638233D01*
X-819760Y-648233D01*
X-821510Y-638233D01*
G01X-827760Y-648233D02*
X-826760Y-648066D01*
X-825885Y-647400D01*
X-825135Y-646400D01*
X-824635Y-645233D01*
X-824385Y-643900D01*
Y-642566D01*
X-824635Y-641233D01*
X-825135Y-640066D01*
X-825885Y-639067D01*
X-826760Y-638400D01*
X-827760Y-638233D01*
X-828760Y-638400D01*
X-829635Y-639067D01*
X-830385Y-640066D01*
X-830885Y-641233D01*
X-831135Y-642566D01*
Y-643900D01*
X-830885Y-645233D01*
X-830385Y-646400D01*
X-829635Y-647400D01*
X-828760Y-648066D01*
X-827760Y-648233D01*
G01X-835260D02*
Y-638233D01*
X-838385D01*
X-839385Y-638733D01*
X-840010Y-639400D01*
X-840260Y-640733D01*
X-840010Y-642066D01*
X-839260Y-642900D01*
X-838385Y-643400D01*
X-835260D01*
G01X-838385D02*
X-840260Y-648233D01*
G01X-845010D02*
Y-638233D01*
G01X-849760D02*
X-845010Y-644400D01*
G01X-850510Y-648233D02*
X-847135Y-641567D01*
G01X-868760Y-642900D02*
X-869260Y-642400D01*
X-869635Y-641567D01*
X-869885Y-640400D01*
X-869635Y-639400D01*
X-869135Y-638733D01*
X-868260Y-638233D01*
X-864885D01*
Y-648233D01*
X-869010D01*
X-869885Y-647567D01*
X-870385Y-646566D01*
X-870635Y-645400D01*
X-870385Y-644233D01*
X-869635Y-643233D01*
X-868760Y-642900D01*
X-864885D01*
G01X-877760Y-648233D02*
X-876760Y-648066D01*
X-875885Y-647400D01*
X-875135Y-646400D01*
X-874635Y-645233D01*
X-874385Y-643900D01*
Y-642566D01*
X-874635Y-641233D01*
X-875135Y-640066D01*
X-875885Y-639067D01*
X-876760Y-638400D01*
X-877760Y-638233D01*
X-878760Y-638400D01*
X-879635Y-639067D01*
X-880385Y-640066D01*
X-880885Y-641233D01*
X-881135Y-642566D01*
Y-643900D01*
X-880885Y-645233D01*
X-880385Y-646400D01*
X-879635Y-647400D01*
X-878760Y-648066D01*
X-877760Y-648233D01*
G01X-887760Y-638233D02*
Y-648233D01*
G01X-884885Y-638233D02*
X-890635D01*
G01X-897760D02*
Y-648233D01*
G01X-894885Y-638233D02*
X-900635D01*
G01X-907760Y-648233D02*
X-906760Y-648066D01*
X-905885Y-647400D01*
X-905135Y-646400D01*
X-904635Y-645233D01*
X-904385Y-643900D01*
Y-642566D01*
X-904635Y-641233D01*
X-905135Y-640066D01*
X-905885Y-639067D01*
X-906760Y-638400D01*
X-907760Y-638233D01*
X-908760Y-638400D01*
X-909635Y-639067D01*
X-910385Y-640066D01*
X-910885Y-641233D01*
X-911135Y-642566D01*
Y-643900D01*
X-910885Y-645233D01*
X-910385Y-646400D01*
X-909635Y-647400D01*
X-908760Y-648066D01*
X-907760Y-648233D01*
G01X-914510D02*
Y-638233D01*
X-917760Y-646566D01*
X-921010Y-638233D01*
Y-648233D01*
G54D12*
X-1036048Y-434728D03*
Y-436528D03*
X-1030748Y-434534D03*
Y-436334D03*
X-1025730Y-434306D03*
Y-436106D03*
X-1014462Y-433866D03*
Y-435666D03*
X-1020155Y-434131D03*
Y-435931D03*
X-1016368Y-433920D03*
Y-435720D03*
X-1037953Y-434648D03*
Y-436448D03*
X-1027742Y-434306D03*
Y-436106D03*
X-1022087Y-434077D03*
Y-435877D03*
X-1032760Y-434507D03*
Y-436307D03*
G54D40*
G01X-954698Y-520444D02*
X-936394Y-502140D01*
Y-442133D01*
G01X-916412Y-442229D02*
Y-504001D01*
G01X-958953Y-546543D02*
X-916412Y-504001D01*
G01X-914026Y-342619D02*
Y-393495D01*
G01D02*
X-916036Y-395505D01*
G01Y-424380D02*
Y-401645D01*
G01X-914026Y-283126D02*
Y-224114D01*
G01X-942874Y-423087D02*
Y-371160D01*
G54D31*
G01X-955624Y-302328D02*
X-955447Y-302505D01*
Y-312137D01*
X-960984Y-317674D01*
Y-337761D01*
G01X-945102Y-353643D02*
Y-356034D01*
G01X-960984Y-337761D02*
X-945102Y-353643D01*
G01X-925592Y-290717D02*
X-925624Y-290750D01*
Y-302328D01*
G01X-923237Y-388129D02*
X-922516Y-388851D01*
Y-423864D01*
G01X-925624Y-302328D02*
Y-308134D01*
X-931407Y-312000D01*
Y-335885D01*
X-923237Y-344055D01*
Y-388129D01*
G01X-957331Y-351932D02*
Y-346158D01*
G01X-948884Y-432924D02*
Y-429909D01*
G01X-957331Y-355868D02*
Y-351932D01*
G01X-948884Y-429909D02*
X-953413Y-425381D01*
Y-359785D01*
X-957331Y-355868D01*
G01Y-346158D02*
X-965624Y-337864D01*
G01Y-318295D02*
X-962609Y-315280D01*
G54D22*
G01X-916036Y-395505D02*
Y-393008D01*
G01X-918534Y-395505D02*
X-916036D01*
G01D02*
X-913539D01*
G01X-941167Y-364721D02*
Y-362224D01*
G01D02*
Y-359726D01*
G01X-943665Y-362224D02*
X-941167D01*
G01D02*
X-938669D01*
G01X-990860Y-124680D02*
X-990972Y-124792D01*
X-992865D01*
X-993070Y-124997D01*
G01X-990860Y-132022D02*
X-992753D01*
X-993070Y-131705D01*
G01D02*
Y-131373D01*
X-993144Y-131299D01*
G01X-993070Y-124997D02*
Y-125329D01*
X-993144Y-125403D01*
G01X-990860Y-133370D02*
Y-132022D01*
G01Y-124680D02*
Y-123332D01*
G01X-993258Y-124680D02*
X-990860D01*
G01X-935624Y-309476D02*
Y-302328D01*
G01D02*
Y-295180D01*
G01X-939022Y-302328D02*
X-935624D01*
G01D02*
X-932226D01*
G01X-938389Y-285384D02*
Y-278236D01*
G01D02*
Y-271088D01*
G01X-941786Y-278236D02*
X-938389D01*
G01D02*
X-934991D01*
G01X-993144Y-131299D02*
Y-128351D01*
G01D02*
Y-125403D01*
G01X-994442Y-128351D02*
X-993144D01*
G01X-938389Y-263784D02*
Y-256636D01*
G01D02*
Y-249488D01*
G01X-941786Y-256636D02*
X-938389D01*
G01D02*
X-934991D01*
G01X-915624Y-309476D02*
Y-302328D01*
G01D02*
Y-295180D01*
G01X-919022Y-302328D02*
X-915624D01*
G01D02*
X-912226D01*
G01X-959828Y-351932D02*
X-957331D01*
G01D02*
X-954833D01*
G54D13*
X-1032735Y-436407D03*
X-1030768D03*
X-1032735Y-434523D03*
X-1030768D03*
X-1016404Y-435827D03*
X-1014436D03*
X-1016404Y-433943D03*
X-1014436D03*
X-1037996Y-436404D03*
X-1036028D03*
X-1037996Y-434520D03*
X-1036028D03*
X-1022091Y-435903D03*
X-1020123D03*
X-1022091Y-434019D03*
X-1020123D03*
X-1027718Y-436184D03*
X-1025750D03*
X-1027718Y-434300D03*
X-1025750D03*
G54D41*
G01X-936394Y-442133D02*
X-938577Y-439950D01*
G01X-1010607Y-437983D02*
X-1010474Y-438116D01*
Y-450705D01*
X-1010607Y-450839D01*
Y-459346D01*
X-1003677Y-466276D01*
Y-505208D01*
X-982228Y-526657D01*
Y-567505D01*
X-988614Y-573891D01*
X-988614Y-578303D01*
G01X-1002270Y-440285D02*
Y-457525D01*
X-994331Y-465464D01*
Y-501452D01*
X-977700Y-518083D01*
Y-569911D01*
X-984340Y-576551D01*
G01X-948333Y-529525D02*
X-947919D01*
X-920643Y-502249D01*
Y-438326D01*
G01X-930032Y-439158D02*
Y-503561D01*
X-959003Y-532532D01*
Y-532538D01*
X-960335Y-533871D01*
G01X-948542Y-500652D02*
Y-503096D01*
G01X-967681Y-576526D02*
Y-525435D01*
X-944081Y-501835D01*
Y-501416D01*
G01Y-439724D02*
X-942371Y-438013D01*
G01X-916412Y-438372D02*
Y-442229D01*
G01X-1006439Y-440946D02*
Y-458246D01*
X-998417Y-466268D01*
Y-502690D01*
X-979964Y-521142D01*
Y-568593D01*
X-984848Y-573476D01*
G01X-938577Y-436045D02*
Y-439950D01*
G01X-943217Y-430122D02*
X-948779Y-424560D01*
G01Y-362619D02*
Y-359710D01*
X-945102Y-356034D01*
G01X-916412Y-424756D02*
X-916036Y-424380D01*
G01X-957816Y-134193D02*
X-958892Y-133117D01*
G01X-938577Y-431788D02*
Y-430168D01*
G01D02*
X-940902Y-427843D01*
Y-425059D01*
X-942874Y-423087D01*
G01X-927505Y-381016D02*
Y-426996D01*
X-924058Y-430443D01*
G01X-1011020Y-429594D02*
Y-404488D01*
G01D02*
Y-401403D01*
X-1009868Y-400251D01*
Y-293179D01*
X-1012390Y-290657D01*
Y-260637D01*
X-1008388Y-256636D01*
G01D02*
Y-248802D01*
X-1009868Y-247322D01*
Y-197496D01*
X-1007033Y-194660D01*
Y-194603D01*
X-993283Y-180853D01*
G01X-1002270Y-430931D02*
Y-401360D01*
X-1000896Y-399986D01*
X-1000968Y-399914D01*
G01D02*
X-1004504Y-396377D01*
Y-278787D01*
X-1002505Y-276788D01*
G01X-988057Y-180633D02*
Y-182030D01*
X-1002505Y-196478D01*
Y-252520D01*
X-998389Y-256636D01*
G01X-1008388Y-278236D02*
X-1008621Y-278468D01*
Y-286607D01*
G01X-1008290Y-286937D02*
X-1008621Y-286607D01*
G01X-1005726Y-430407D02*
X-1007005Y-429128D01*
Y-288829D01*
X-1008621Y-287213D01*
Y-286607D01*
G01X-990651Y-181423D02*
X-1004769Y-195540D01*
Y-239260D01*
X-1006118Y-240609D01*
G54D32*
G01X-925624Y-323928D02*
Y-319088D01*
X-928613Y-315645D01*
G54D23*
G01X-1002270Y-435685D02*
Y-440285D01*
G01X-984340Y-576551D02*
Y-577873D01*
X-985091Y-578624D01*
Y-579020D01*
G01X-957816Y-134193D02*
X-957699D01*
X-956392Y-132886D01*
G01X-958892Y-124680D02*
X-956929D01*
X-956632Y-124976D01*
Y-125901D01*
X-956608Y-125925D01*
Y-128351D01*
G01X-958892Y-133117D02*
X-958892Y-132022D01*
G01X-956392Y-132886D02*
Y-128567D01*
X-956608Y-128351D01*
G01X-1010607Y-432885D02*
Y-430007D01*
X-1011020Y-429594D01*
G01X-993283Y-180853D02*
Y-180620D01*
X-991183Y-178520D01*
Y-149150D01*
X-989783Y-147750D01*
Y-135941D01*
X-987967Y-134125D01*
G01X-1002270Y-432885D02*
Y-430931D01*
G01X-985211Y-134464D02*
X-987595Y-136847D01*
Y-148657D01*
X-988908Y-149970D01*
Y-179020D01*
X-988058Y-179870D01*
G01X-950946Y-300409D02*
X-947543D01*
X-945624Y-302328D01*
G01X-941228Y-350300D02*
Y-348170D01*
X-950857Y-338541D01*
Y-315171D01*
X-945624Y-309937D01*
Y-302328D01*
G01X-1005726Y-432824D02*
Y-430407D01*
G01X-986589Y-134295D02*
X-988689Y-136394D01*
Y-148204D01*
X-990014Y-149529D01*
Y-180014D01*
X-990651Y-180651D01*
G54D14*
X-961785Y-131845D03*
X-963163D03*
X-961785Y-124857D03*
X-963163D03*
X-987967Y-131845D03*
X-986589D03*
X-987967Y-124857D03*
X-986589D03*
X-985211Y-131845D03*
Y-124857D03*
X-983833Y-131845D03*
X-982455D03*
X-981077D03*
X-979699D03*
X-978321D03*
X-976943D03*
X-975565D03*
X-974187D03*
X-972809D03*
X-971431D03*
X-970053D03*
X-968675D03*
X-967297D03*
X-965919D03*
X-964541D03*
X-983833Y-124857D03*
X-982455D03*
X-981077D03*
X-978321D03*
X-979699D03*
X-976943D03*
X-975565D03*
X-974187D03*
X-972809D03*
X-971431D03*
X-970053D03*
X-968675D03*
X-967297D03*
X-965919D03*
X-964541D03*
G54D33*
G01X-915624Y-323928D02*
Y-315605D01*
X-914026Y-314007D01*
G01Y-283126D02*
X-915574D01*
X-919298Y-286850D01*
G01X-915624Y-323928D02*
Y-341021D01*
G01D02*
X-925624Y-331021D01*
Y-323928D01*
G01X-915624Y-341021D02*
X-914026Y-342619D01*
G01X-916412Y-430221D02*
Y-424756D01*
G01X-947999Y-190141D02*
X-957677Y-180463D01*
Y-135470D01*
X-957108Y-134901D01*
X-957816Y-134193D01*
G01X-942102Y-312771D02*
X-945624Y-316293D01*
Y-323928D01*
G01X-962130Y-144414D02*
Y-136242D01*
G01X-940180Y-312771D02*
X-942102D01*
G01X-935624Y-323928D02*
Y-317327D01*
X-940180Y-312771D01*
G01X-935624Y-323928D02*
Y-331459D01*
G01X-941049Y-336884D02*
X-941624D01*
X-945624Y-332884D01*
G01X-935624Y-331459D02*
X-941049Y-336884D01*
G01X-945624Y-332884D02*
Y-323928D01*
G01X-965624Y-316780D02*
X-964650Y-315806D01*
G01X-965624Y-318295D02*
Y-316780D01*
G01Y-323928D02*
Y-318295D01*
G01Y-323928D02*
Y-337864D01*
G54D24*
G01X-1027742Y-434306D02*
Y-432694D01*
X-1027159Y-432110D01*
Y-430805D01*
X-1028353Y-429611D01*
X-1028637D01*
G01X-979598Y-119898D02*
Y-120049D01*
X-979433Y-120213D01*
Y-123725D01*
X-979699Y-123990D01*
Y-124857D01*
G01X-1028179Y-446212D02*
X-1027532D01*
X-1027276Y-445956D01*
Y-443509D01*
X-1027532Y-443253D01*
G01D02*
X-1027139Y-442861D01*
Y-438324D01*
X-1027718Y-437746D01*
Y-436184D01*
G01X-1027532Y-443253D02*
X-1029147D01*
G01X-1025730Y-434306D02*
Y-432694D01*
X-1026313Y-432110D01*
Y-430439D01*
X-1026328D01*
X-1026813Y-429955D01*
Y-429793D01*
X-1026632Y-429611D01*
X-1025985D01*
G01X-978321Y-124857D02*
X-978321Y-124069D01*
X-978587Y-123803D01*
Y-120574D01*
X-977848Y-119835D01*
G01X-1026174Y-443253D02*
X-1024558D01*
G01X-1025527Y-446212D02*
X-1026174D01*
X-1026429Y-445956D01*
Y-443509D01*
X-1026174Y-443253D01*
G01X-1025750Y-436184D02*
X-1025750Y-437746D01*
X-1026429Y-438426D01*
Y-442997D01*
X-1026174Y-443253D01*
G01X-1034071Y-429611D02*
X-1033788D01*
X-1032332Y-431067D01*
Y-431348D01*
X-1032355Y-433054D01*
X-1032745Y-433433D01*
X-1032760Y-434507D01*
G01X-984012Y-119921D02*
X-983971D01*
X-983568Y-120325D01*
Y-123624D01*
X-983833Y-123890D01*
Y-124857D01*
G01X-1032735Y-436407D02*
X-1032735Y-437970D01*
X-1032174Y-438531D01*
Y-451718D01*
X-1032175Y-451718D01*
Y-451865D01*
X-1033616Y-453306D01*
Y-454321D01*
G01X-1031651Y-464689D02*
X-1032129D01*
X-1032399Y-464419D01*
Y-463514D01*
X-1031311Y-462426D01*
Y-456580D01*
X-1031693Y-456198D01*
X-1031739D01*
X-1033616Y-454321D01*
G01X-1030768Y-434523D02*
X-1031679Y-433611D01*
Y-433578D01*
X-1031651Y-433550D01*
X-1031645Y-433041D01*
X-1031644Y-433040D01*
X-1031622Y-431352D01*
Y-429792D01*
X-1031441Y-429611D01*
X-1031419D01*
G01X-982455Y-124857D02*
X-982455Y-123842D01*
X-982721Y-123576D01*
Y-120374D01*
X-982097Y-119749D01*
G01X-1029215Y-453674D02*
Y-454727D01*
X-1030591Y-456103D01*
Y-463097D01*
X-1028999Y-464689D01*
G01X-1029215Y-453674D02*
X-1031464Y-451424D01*
Y-438666D01*
X-1030768Y-437970D01*
Y-436407D01*
G01X-975565Y-124857D02*
X-975565Y-124046D01*
X-975300Y-123781D01*
Y-120071D01*
X-975299Y-120071D01*
X-975299Y-119710D01*
X-975325Y-119683D01*
G01X-1022820Y-429805D02*
X-1022870D01*
X-1023073Y-430008D01*
Y-430390D01*
X-1022711Y-430752D01*
X-1022367D01*
X-1021918Y-431202D01*
Y-433908D01*
X-1022087Y-434077D01*
G01Y-435877D02*
Y-436527D01*
X-1021530Y-437084D01*
Y-439216D01*
X-1021786Y-439472D01*
X-1022433D01*
G01X-1020155Y-434131D02*
X-1021071Y-433215D01*
Y-430061D01*
X-1020815Y-429805D01*
X-1020168D01*
G01X-974187Y-124857D02*
Y-123957D01*
X-974453Y-123691D01*
Y-120915D01*
X-973221Y-119686D01*
G01X-1019781Y-439472D02*
X-1020428D01*
X-1020817Y-439083D01*
Y-437419D01*
X-1020123Y-436725D01*
Y-435963D01*
X-1020155Y-435931D01*
G01X-971431Y-124857D02*
X-971431Y-123091D01*
X-972063Y-122460D01*
G01X-1016368Y-433920D02*
X-1016073Y-433624D01*
Y-430918D01*
X-1016917Y-430073D01*
G01X-1016746Y-443343D02*
X-1015843Y-442440D01*
Y-437950D01*
X-1016404Y-437389D01*
Y-435756D01*
X-1016368Y-435720D01*
G01X-970053Y-124857D02*
G01X-970053Y-124857D02*
X-970058Y-124852D01*
G01Y-124852D02*
Y-122353D01*
G01Y-124852D02*
X-970053Y-124857D01*
G01X-1014462Y-433866D02*
X-1014673Y-433656D01*
Y-430482D01*
X-1014265Y-430073D01*
G01X-1014094Y-443343D02*
X-1015133Y-442304D01*
Y-438086D01*
X-1014436Y-437389D01*
Y-435693D01*
X-1014462Y-435666D01*
G01X-988691Y-120237D02*
X-988247D01*
X-987600Y-120885D01*
Y-123484D01*
X-987967Y-123852D01*
Y-124857D01*
G01X-1038382Y-429006D02*
Y-429202D01*
X-1037435Y-430149D01*
Y-432397D01*
X-1037996Y-432957D01*
Y-434519D01*
X-1037996Y-434520D01*
G01X-1038433Y-443527D02*
X-1037394Y-442488D01*
Y-438743D01*
X-1037953Y-438135D01*
Y-436448D01*
G01X-1036028Y-434520D02*
X-1036028Y-432957D01*
X-1036589Y-432397D01*
Y-429008D01*
X-1036750Y-428847D01*
X-1036732D01*
G01X-986712Y-119844D02*
Y-119870D01*
X-986625Y-119957D01*
Y-120320D01*
X-986890Y-120584D01*
Y-123758D01*
X-986589Y-124058D01*
Y-124857D01*
G01X-1035781Y-443527D02*
X-1036684Y-442624D01*
Y-439016D01*
X-1036684Y-439009D01*
X-1036668Y-438648D01*
X-1036116Y-438140D01*
X-1036048Y-436528D01*
G54D15*
X-956608Y-128351D03*
X-993144D03*
G54D34*
G01X-916036Y-401645D02*
Y-395505D01*
G01X-941167Y-362224D02*
X-936819Y-357876D01*
G01X-942874Y-363931D02*
X-941167Y-362224D01*
G01X-936819Y-357876D02*
X-936807D01*
Y-341127D01*
X-941049Y-336884D01*
G01X-942874Y-371160D02*
Y-363931D01*
G54D25*
G01X-964457Y-579072D02*
X-964380Y-578995D01*
Y-578315D01*
X-966256Y-576440D01*
Y-526025D01*
X-944056Y-503826D01*
X-942880D01*
X-941672Y-502618D01*
Y-439330D01*
X-940531Y-438190D01*
Y-430792D01*
X-946268Y-425055D01*
Y-372633D01*
X-946315Y-372586D01*
Y-360989D01*
X-940847Y-355521D01*
Y-352608D01*
X-942169Y-351286D01*
Y-348419D01*
X-951698Y-338890D01*
Y-318330D01*
X-953828Y-316201D01*
Y-310055D01*
X-951425Y-307652D01*
Y-301260D01*
X-951887Y-300798D01*
Y-300019D01*
X-951436Y-299568D01*
Y-246200D01*
X-956643Y-240993D01*
Y-207835D01*
X-960476Y-204002D01*
Y-186080D01*
X-962240Y-184315D01*
Y-149504D01*
X-965412Y-146332D01*
Y-134415D01*
X-964541Y-133544D01*
Y-131845D01*
G01X-990683Y-582664D02*
X-990278Y-583069D01*
X-957226D01*
X-956690Y-582534D01*
X-956640D01*
G01X-991837Y-582697D02*
X-990715D01*
X-990683Y-582664D01*
G01X-956640Y-582534D02*
X-955975Y-581869D01*
Y-581819D01*
X-955963Y-581806D01*
Y-550493D01*
X-956207Y-550249D01*
G01X-993214Y-581879D02*
X-992396Y-582697D01*
X-991837D01*
G01X-965624Y-302328D02*
Y-311414D01*
X-970791Y-316581D01*
Y-342416D01*
X-963223Y-349984D01*
Y-356763D01*
G01X-969746Y-577830D02*
X-968515Y-579062D01*
Y-579146D01*
G01X-975624Y-323928D02*
Y-338416D01*
X-967634Y-346406D01*
G01X-952417Y-435685D02*
Y-438252D01*
X-954279Y-440115D01*
Y-458704D01*
G01X-974470Y-371452D02*
X-988671Y-357251D01*
Y-308907D01*
X-985624Y-305860D01*
Y-302328D01*
G01X-974187Y-133722D02*
Y-131845D01*
G01X-981077Y-124857D02*
Y-122339D01*
G01X-976943Y-124857D02*
Y-122107D01*
G01X-973353Y-122830D02*
G02X-972809Y-124143I-1313J-1313D01*
G01Y-124857D01*
G01X-976943Y-122107D02*
X-976902Y-122066D01*
G01X-981077Y-122339D02*
X-980914Y-122175D01*
G01X-968675Y-124857D02*
Y-119543D01*
G01X-967623Y-343918D02*
X-962045Y-349495D01*
Y-356274D01*
X-959271Y-359048D01*
Y-361252D01*
X-958228Y-362295D01*
Y-428341D01*
X-953684Y-432885D01*
X-952417D01*
G01X-967879Y-346994D02*
X-980010Y-334863D01*
Y-318765D01*
X-975624Y-314379D01*
Y-302328D01*
G01D02*
Y-298247D01*
X-968362Y-290985D01*
X-968361D01*
G01X-972809Y-131845D02*
Y-133960D01*
G01X-985624Y-323928D02*
X-985098Y-323402D01*
X-981928D01*
G01X-985624Y-323928D02*
Y-330200D01*
X-966971Y-348853D01*
G01X-982455Y-131845D02*
Y-145037D01*
X-983737Y-146319D01*
G01X-988389Y-256636D02*
X-988429Y-256677D01*
Y-264413D01*
G01X-976943Y-131845D02*
Y-133272D01*
X-977732Y-134060D01*
G01X-968388Y-256636D02*
X-968583Y-256830D01*
Y-264282D01*
G01X-979699Y-131845D02*
Y-133317D01*
X-979287Y-133730D01*
G01X-978388Y-256636D02*
X-979764D01*
X-982352Y-254048D01*
G01X-968388Y-278236D02*
Y-281412D01*
X-976354Y-289377D01*
G01X-964541Y-124857D02*
Y-123618D01*
G54D16*
X-990860Y-132022D03*
X-958892D03*
Y-124680D03*
X-990860D03*
G54D35*
G01X-988614Y-578303D02*
X-987977Y-578940D01*
G01X-958953Y-580719D02*
Y-580890D01*
G01X-984848Y-573476D02*
X-986456Y-575085D01*
Y-577865D01*
G01X-916412Y-435942D02*
Y-438372D01*
G01Y-433142D02*
Y-430221D01*
G01X-938577Y-433245D02*
Y-431788D01*
G54D26*
G01X-998102Y-435685D02*
Y-455066D01*
X-991140Y-462028D01*
Y-497426D01*
X-976272Y-512293D01*
Y-571173D01*
X-983651Y-578551D01*
Y-579090D01*
G01X-993933Y-435685D02*
Y-455206D01*
X-987743Y-461397D01*
Y-497139D01*
X-975793Y-509088D01*
Y-511938D01*
X-975683Y-512049D01*
Y-571782D01*
X-982222Y-578322D01*
Y-579153D01*
G01X-989765Y-435685D02*
Y-453935D01*
X-982683Y-461017D01*
Y-498026D01*
X-975091Y-505618D01*
Y-572128D01*
X-980916Y-577953D01*
Y-579035D01*
G01X-985596Y-435685D02*
Y-453986D01*
X-979634Y-459948D01*
Y-498268D01*
X-974502Y-503401D01*
Y-572407D01*
X-979533Y-577439D01*
Y-579158D01*
G01X-981428Y-435685D02*
Y-453883D01*
X-976534Y-458777D01*
Y-498965D01*
X-973911Y-501588D01*
Y-572869D01*
X-978231Y-577189D01*
Y-579092D01*
G01X-977259Y-435685D02*
Y-455077D01*
X-974365Y-457972D01*
Y-500299D01*
X-973751Y-500913D01*
Y-500914D01*
X-973321Y-501344D01*
Y-573302D01*
X-976772Y-576752D01*
Y-579044D01*
X-976817Y-579089D01*
G01X-973091Y-435685D02*
X-972307Y-436468D01*
Y-501859D01*
X-972732Y-502284D01*
Y-573727D01*
X-975440Y-576436D01*
Y-579066D01*
G01X-968922Y-435685D02*
Y-499310D01*
X-972142Y-502530D01*
Y-574060D01*
X-974020Y-575938D01*
Y-579041D01*
X-974042Y-579063D01*
G01X-964754Y-435685D02*
Y-497803D01*
X-971552Y-504601D01*
Y-574516D01*
X-972706Y-575669D01*
Y-579072D01*
G01X-960585Y-435685D02*
Y-511617D01*
X-970963Y-521994D01*
Y-576181D01*
X-971358Y-576576D01*
Y-579000D01*
X-971266Y-579092D01*
G01X-967297Y-131845D02*
Y-134286D01*
X-967297Y-134748D01*
X-967296Y-134749D01*
Y-147897D01*
X-967099Y-148094D01*
Y-184998D01*
X-965104Y-186992D01*
Y-186993D01*
X-964772Y-187324D01*
Y-207948D01*
X-962048Y-210673D01*
Y-287172D01*
X-962576Y-287700D01*
Y-309199D01*
X-970202Y-316825D01*
Y-342172D01*
X-962634Y-349740D01*
Y-356518D01*
X-959860Y-359292D01*
Y-361496D01*
X-958817Y-362539D01*
Y-428646D01*
X-957158Y-430305D01*
Y-438279D01*
X-955238Y-440199D01*
Y-509334D01*
X-969158Y-523254D01*
Y-577066D01*
X-968360Y-577863D01*
X-967112Y-579112D01*
G01X-963223Y-356763D02*
X-960449Y-359536D01*
Y-361740D01*
X-959406Y-362783D01*
Y-428890D01*
X-957747Y-430549D01*
Y-438523D01*
X-955828Y-440443D01*
Y-509090D01*
X-969748Y-523010D01*
Y-577310D01*
X-969746Y-577311D01*
Y-577830D01*
G01X-967634Y-346406D02*
X-963812Y-350228D01*
Y-357007D01*
X-962254Y-358565D01*
Y-360769D01*
X-959996Y-363027D01*
Y-429134D01*
X-958337Y-430793D01*
Y-438767D01*
X-956417Y-440687D01*
Y-508816D01*
X-970373Y-522772D01*
Y-578637D01*
X-969907Y-579103D01*
G01X-974470Y-371452D02*
X-967390Y-378532D01*
Y-403555D01*
X-968922Y-405087D01*
Y-432885D01*
G01X-985624Y-302328D02*
Y-299481D01*
X-976548Y-290405D01*
X-969449D01*
X-964995Y-285951D01*
Y-212214D01*
X-970942Y-206267D01*
Y-190449D01*
X-973380Y-188011D01*
Y-154244D01*
X-973379Y-154243D01*
Y-147610D01*
X-973638Y-147351D01*
Y-134272D01*
X-974187Y-133722D01*
G01X-963163Y-124857D02*
Y-123802D01*
X-961340Y-121978D01*
X-961340Y-119292D01*
G01X-963609Y-207697D02*
X-961458Y-209848D01*
Y-287416D01*
X-961987Y-287944D01*
Y-309443D01*
X-969612Y-317069D01*
Y-341928D01*
X-967623Y-343918D01*
G01X-964402Y-359455D02*
Y-350472D01*
X-967879Y-346994D01*
G01X-960585Y-432885D02*
Y-363271D01*
X-964402Y-359455D01*
G01X-968361Y-290985D02*
X-963816Y-286440D01*
Y-211502D01*
X-966872Y-208446D01*
Y-187725D01*
X-968867Y-185730D01*
Y-148826D01*
X-969064Y-148629D01*
Y-135481D01*
X-969066Y-135480D01*
Y-135220D01*
X-971431Y-132854D01*
Y-131845D01*
G01X-972809Y-133960D02*
X-973049Y-134199D01*
Y-147105D01*
X-972789Y-147364D01*
Y-187766D01*
X-969563Y-190992D01*
Y-206589D01*
X-964406Y-211747D01*
Y-286196D01*
X-969205Y-290995D01*
X-974607D01*
X-981774Y-298161D01*
Y-303072D01*
X-981412Y-303434D01*
G01X-964754Y-432885D02*
Y-403919D01*
X-961875Y-401040D01*
Y-376913D01*
X-963601Y-375187D01*
G01X-966971Y-348853D02*
Y-371817D01*
X-963601Y-375187D01*
G01X-965624Y-302328D02*
Y-289915D01*
X-962637Y-286928D01*
Y-210917D01*
X-965362Y-208192D01*
Y-187568D01*
X-965694Y-187237D01*
Y-187236D01*
X-967688Y-185242D01*
Y-148338D01*
X-967885Y-148141D01*
Y-134993D01*
X-967887Y-134992D01*
Y-134530D01*
X-968675Y-133741D01*
Y-131845D01*
G01X-975624Y-323928D02*
X-975451Y-323755D01*
Y-315584D01*
X-971235Y-311368D01*
Y-294693D01*
X-968117Y-291575D01*
Y-291574D01*
X-963227Y-286684D01*
Y-211258D01*
X-965951Y-208534D01*
Y-208437D01*
X-965952Y-208436D01*
Y-187812D01*
X-966283Y-187481D01*
Y-187480D01*
X-968278Y-185486D01*
Y-148582D01*
X-968475Y-148385D01*
Y-135237D01*
X-968476Y-135236D01*
Y-134774D01*
X-970053Y-133197D01*
Y-131845D01*
G01X-983737Y-146319D02*
Y-184521D01*
X-986789Y-187572D01*
G01X-984142Y-194569D02*
X-980130Y-190557D01*
Y-143970D01*
X-980133Y-143966D01*
Y-134327D01*
X-981077Y-133383D01*
Y-131845D01*
G01X-989563Y-189443D02*
X-984327Y-184207D01*
Y-146075D01*
X-983833Y-145581D01*
Y-131845D01*
G01X-973721Y-266983D02*
X-974676D01*
G01X-977732Y-134060D02*
Y-192786D01*
X-974676Y-195841D01*
Y-266983D01*
G01X-977259Y-432885D02*
Y-388961D01*
X-976137Y-387839D01*
Y-387546D01*
G01D02*
Y-385298D01*
X-976049Y-385209D01*
Y-382219D01*
X-991820Y-366448D01*
Y-295366D01*
X-985242Y-288788D01*
X-979416D01*
X-974676Y-284048D01*
Y-266983D01*
G01X-978388Y-278236D02*
X-980431D01*
X-983321Y-275346D01*
G01X-978321Y-131845D02*
X-978321Y-144103D01*
X-978323Y-144105D01*
Y-192115D01*
X-983321Y-197113D01*
Y-275346D01*
G01X-981428Y-432885D02*
Y-392751D01*
X-980761Y-392084D01*
G01D02*
Y-379385D01*
X-993124Y-367022D01*
Y-294811D01*
X-983321Y-285008D01*
Y-275346D01*
G01X-979287Y-133730D02*
Y-192246D01*
X-983959Y-196918D01*
G01X-985596Y-432885D02*
Y-406691D01*
X-983915Y-405010D01*
Y-386127D01*
X-985474Y-384569D01*
Y-381149D01*
G01X-973091Y-432885D02*
Y-384588D01*
X-970820Y-382317D01*
G01D02*
X-970625Y-382122D01*
G01X-975565Y-131845D02*
Y-132726D01*
X-976329Y-133490D01*
X-977142Y-134303D01*
Y-144591D01*
X-977142Y-144592D01*
Y-192542D01*
X-972305Y-197380D01*
Y-274320D01*
X-968388Y-278236D01*
G01X-976354Y-289377D02*
X-984997D01*
X-990601Y-294981D01*
Y-365197D01*
X-973480Y-382317D01*
X-970820D01*
G01X-987967Y-131845D02*
G01X-966366Y-119031D02*
Y-119347D01*
G01X-964541Y-123618D02*
X-963530Y-122607D01*
X-963481D01*
G54D17*
X-997550Y-392085D03*
X-957331Y-351932D03*
X-1029147Y-443253D03*
X-994453Y-404527D03*
X-1011020Y-404488D03*
X-1024558Y-443253D03*
X-1000968Y-399914D03*
X-985474Y-381149D03*
X-980761Y-392084D03*
X-976137Y-387546D03*
X-970625Y-382122D03*
X-964402Y-359455D03*
X-945102Y-356034D03*
X-963601Y-375187D03*
X-974470Y-371452D03*
X-987251Y-398037D03*
X-993283Y-386869D03*
X-916036Y-395505D03*
X-1033616Y-454321D03*
X-927505Y-381016D03*
X-923237Y-388129D03*
X-933373Y-374081D03*
X-936953Y-367977D03*
X-1029215Y-453674D03*
X-941167Y-362224D03*
G54D36*
G01X-965188Y-148948D02*
Y-183979D01*
X-962500Y-186668D01*
Y-204980D01*
X-959792Y-207687D01*
Y-209120D01*
X-959766Y-209146D01*
Y-243513D01*
X-953127Y-250153D01*
Y-292970D01*
X-955624Y-295467D01*
Y-302328D01*
G54D27*
G01X-1005726Y-435624D02*
X-1006439Y-436337D01*
Y-440946D01*
G01X-960998Y-145546D02*
X-962130Y-144414D01*
G01X-954393Y-139833D02*
X-954173Y-139613D01*
Y-124323D01*
X-955439Y-123058D01*
X-961195D01*
X-961785Y-123648D01*
Y-124857D01*
G54D18*
X-1008388Y-256636D03*
X-998389D03*
X-988389D03*
X-978388D03*
X-968388D03*
X-958388D03*
X-948389D03*
X-938389D03*
X-1008388Y-278236D03*
X-998389D03*
X-988389D03*
X-978388D03*
X-968388D03*
X-958388D03*
X-948389D03*
X-938389D03*
X-915624Y-323928D03*
X-925624D03*
X-935624D03*
X-945624D03*
X-955624D03*
X-965624D03*
X-975624D03*
X-985624D03*
X-915624Y-302328D03*
X-925624D03*
X-935624D03*
X-945624D03*
X-955624D03*
X-965624D03*
X-975624D03*
X-985624D03*
G54D37*
G01X-902985Y-514592D02*
G01D02*
G01X-1051089Y-539360D02*
X-1051088Y-539360D01*
G01X-1051089Y-539360D02*
X-1051088Y-539360D01*
G01X-951658Y-136283D02*
Y-117989D01*
G03X-953626Y-116021I-1968J0D01*
G01X-996126D01*
G03X-998095Y-117989I0J-1969D01*
G01Y-175127D01*
G02X-999248Y-177911I-3937J0D01*
G01X-1041592Y-220255D01*
G03X-1042745Y-223038I2784J-2784D01*
G01Y-499649D01*
G03X-1041592Y-502433I3937J0D01*
G01X-994972Y-549053D01*
G02X-994395Y-550445I-1392J-1392D01*
G01Y-582063D01*
G03X-992427Y-584032I1968J0D01*
G01X-956994D01*
G03X-955025Y-582063I0J1968D01*
G01Y-550249D01*
G02X-954449Y-548858I1969J0D01*
G01X-908173Y-502582D01*
G03X-907020Y-499798I-2784J2784D01*
G01Y-223027D01*
G03X-908173Y-220243I-3937J0D01*
G01X-950505Y-177911D01*
G02X-951658Y-175127I2784J2784D01*
G01Y-136283D01*
G01X-1004888Y-271334D02*
G02Y-263538I0J3898D01*
G02Y-271334I0J-3898D01*
G01X-944889D02*
G02Y-263538I0J3898D01*
G02Y-271334I0J-3898D01*
G01X-982124Y-317026D02*
G02Y-309230I0J3898D01*
G02Y-317026I0J-3898D01*
G01X-922124D02*
G02Y-309230I0J3898D01*
G02Y-317026I0J-3898D01*
G54D28*
G01X-993748Y-267591D02*
X-993716D01*
G01X-986789Y-187572D02*
X-988875Y-189658D01*
Y-189728D01*
X-993716Y-194569D01*
Y-267591D01*
G01X-993933Y-432885D02*
X-994150Y-432668D01*
Y-416666D01*
X-992147Y-414663D01*
Y-388004D01*
X-993283Y-386869D01*
G01D02*
X-1002341Y-377810D01*
Y-293108D01*
X-994636Y-285403D01*
Y-272443D01*
X-993716Y-271522D01*
Y-267591D01*
G01X-987251Y-398037D02*
Y-405149D01*
X-989532Y-407430D01*
Y-432652D01*
X-989765Y-432885D01*
G01X-987251Y-398037D02*
Y-389793D01*
X-1001653Y-375391D01*
Y-293393D01*
X-993949Y-285688D01*
Y-283796D01*
X-988389Y-278236D01*
G01D02*
X-988359Y-278206D01*
Y-274613D01*
X-992102Y-270870D01*
Y-248316D01*
X-988359Y-244573D01*
Y-198786D01*
X-984142Y-194569D01*
G01X-997550Y-392085D02*
Y-394382D01*
X-997320Y-394612D01*
Y-430606D01*
X-998102Y-431388D01*
Y-432885D01*
G01X-997550Y-392085D02*
X-1003029Y-386606D01*
Y-284376D01*
X-998389Y-279736D01*
Y-278236D01*
G01D02*
Y-274486D01*
X-995066Y-271164D01*
Y-247668D01*
X-997550Y-245183D01*
Y-197430D01*
X-989563Y-189443D01*
G01X-983959Y-196918D02*
Y-251041D01*
X-984287Y-251369D01*
G01X-985474Y-381149D02*
X-998176Y-368446D01*
Y-298018D01*
X-984148Y-283990D01*
Y-251508D01*
X-984287Y-251369D01*
G54D19*
X-1004888Y-267436D03*
X-944889D03*
X-982124Y-313128D03*
X-922124D03*
G54D38*
G01X-998389Y-256636D02*
X-998162Y-256863D01*
Y-265803D01*
X-997865Y-266100D01*
G54D29*
G01X-994453Y-402186D02*
Y-404527D01*
G01D02*
Y-406869D01*
G54D39*
G01X-957151Y-522744D02*
X-955198D01*
G01X-948542Y-438036D02*
Y-500652D01*
G01X-944081Y-501416D02*
Y-439724D01*
G01X-958953Y-578226D02*
Y-546543D01*
G01X-948779Y-424560D02*
Y-362619D01*
G01X-914026Y-224114D02*
X-947999Y-190141D01*
M02*
