G04 ================== begin FILE IDENTIFICATION RECORD ==================*
G04 Layout Name:  E:/rena/ZJfpc/HN0RNALTF.brd*
G04 Film Name:    art01*
G04 File Format:  Gerber RS274X*
G04 File Origin:  Cadence Allegro 17.2-S053*
G04 Origin Date:  Mon Mar 08 14:33:47 2021*
G04 *
G04 Layer:  VIA CLASS/TOP*
G04 Layer:  PIN/TOP*
G04 Layer:  ETCH/TOP*
G04 Layer:  BOARD GEOMETRY/OUTLINE*
G04 *
G04 Offset:    (0.000 0.000)*
G04 Mirror:    No*
G04 Mode:      Positive*
G04 Rotation:  0*
G04 FullContactRelief:  No*
G04 UndefLineWidth:     6.000*
G04 ================== end FILE IDENTIFICATION RECORD ====================*
%FSLAX25Y25*MOIN*%
%IR0*IPPOS*OFA0.00000B0.00000*MIA0B0*SFA1.00000B1.00000*%
%AMMACRO14*
4,1,5,.00689,-.00551,
.00689,.00276,
.00413,.00551,
-.00689,.00551,
-.00689,-.00551,
.00689,-.00551,
0.0*
%
%ADD14MACRO14*%
%ADD16R,.007X.029*%
%AMMACRO13*
4,1,5,.00689,-.00276,
.00689,.00551,
-.00689,.00551,
-.00689,-.00551,
.00413,-.00551,
.00689,-.00276,
0.0*
%
%ADD13MACRO13*%
%AMMACRO15*
4,1,6,.00551,-.01417,
.00551,.01417,
-.00268,.01417,
-.00551,.01134,
-.00551,-.01141,
-.00275,-.01417,
.00551,-.01417,
0.0*
%
%ADD15MACRO15*%
%AMMACRO10*
4,1,6,-.00551,-.01417,
-.00551,.01417,
.00268,.01417,
.00551,.01134,
.00551,-.01141,
.00275,-.01417,
-.00551,-.01417,
0.0*
%
%ADD10MACRO10*%
%ADD17C,.01*%
%ADD18C,.071*%
%AMMACRO11*
4,1,5,-.00689,.00551,
-.00689,-.00276,
-.00413,-.00551,
.00689,-.00551,
.00689,.00551,
-.00689,.00551,
0.0*
%
%ADD11MACRO11*%
%AMMACRO12*
4,1,5,-.00689,.00276,
-.00689,-.00551,
.00689,-.00551,
.00689,.00551,
-.00413,.00551,
-.00689,.00276,
0.0*
%
%ADD12MACRO12*%
%ADD19C,.006*%
%ADD20C,.007*%
%ADD21C,.008*%
%ADD22C,.0027*%
%ADD23C,.00294*%
%ADD24C,.002953*%
%ADD25C,.005906*%
%ADD26C,.008953*%
%ADD27C,.007874*%
%ADD28C,.04*%
%ADD29C,.0004*%
%ADD30C,.019*%
%ADD31C,.059055*%
%ADD32C,.019685*%
%ADD34C,.015962*%
%ADD33C,.093962*%
G75*
%LPD*%
G75*
G36*
G01X-956344Y-520568D02*
X-954615D01*
X-953660Y-521523D01*
Y-523019D01*
X-955493Y-524852D01*
X-959286D01*
Y-523458D01*
X-957841Y-522013D01*
X-957790D01*
X-956344Y-520568D01*
G37*
G36*
G01X-952314Y-501891D02*
X-948017D01*
X-946942Y-502966D01*
Y-511044D01*
X-955536Y-519638D01*
X-956666D01*
X-960141Y-523113D01*
Y-523920D01*
X-965128Y-528907D01*
G03X-965503Y-529814I907J-907D01*
G01Y-535708D01*
G03X-964320Y-536987I1282J0D01*
G01X-964246Y-536992D01*
X-963241Y-537997D01*
Y-561958D01*
X-965379Y-564096D01*
G03X-965754Y-565002I907J-907D01*
G03X-965170Y-566078I1282J0D01*
G01Y-570362D01*
X-966246Y-571438D01*
G03X-966450Y-571931I494J-494D01*
G01Y-572339D01*
X-968062D01*
Y-571356D01*
X-968060Y-571342D01*
G03X-968056Y-571280I-442J61D01*
G01Y-567816D01*
G03X-968059Y-567761I-446J0D01*
G01X-968061Y-567749D01*
Y-523621D01*
X-954333Y-509893D01*
G03X-954203Y-509578I-315J315D01*
G01Y-509511D01*
X-954163Y-509459D01*
Y-503740D01*
X-952314Y-501891D01*
G37*
G36*
G01X-951061Y-178468D02*
X-908729Y-220799D01*
G02X-907807Y-223027I-2227J-2227D01*
G01Y-499798D01*
G02X-908729Y-502025I-3150J0D01*
G01X-955005Y-548301D01*
G03X-955812Y-550249I1949J-1948D01*
G01Y-582063D01*
G02X-956994Y-583244I-1181J0D01*
G01X-960571D01*
Y-581188D01*
X-959703D01*
X-959645Y-581288D01*
G03X-958658Y-581632I692J398D01*
G01X-958584Y-581618D01*
X-958403Y-581733D01*
G03X-956962Y-581046I722J339D01*
G01X-956982Y-581004D01*
Y-580112D01*
G03X-957014Y-579901I-698J0D01*
G01X-957024Y-579872D01*
Y-575679D01*
X-957851D01*
Y-574399D01*
X-960571D01*
Y-572339D01*
X-961020D01*
Y-569671D01*
X-960999Y-569629D01*
G03X-960926Y-569320I-619J309D01*
G01Y-568931D01*
X-958610Y-566614D01*
X-958550Y-566602D01*
G03X-957901Y-566253I-257J1256D01*
G01X-956972Y-565324D01*
G03X-956596Y-564417I-907J907D01*
G01Y-541131D01*
X-947426Y-531961D01*
G03X-947051Y-531055I-907J907D01*
G01Y-529525D01*
G03X-949616I-1282J0D01*
G01Y-530523D01*
X-958190Y-539097D01*
G02X-958875Y-538813I-284J284D01*
G01Y-538297D01*
X-954910Y-534332D01*
X-954875Y-534316D01*
G03X-954780Y-532897I-314J734D01*
G02X-954859Y-532269I206J345D01*
G01X-954666Y-532076D01*
X-954600Y-532066D01*
G03X-955312Y-530750I-113J790D01*
G03X-955347Y-530782I459J-526D01*
G01X-958398Y-533833D01*
G02X-959076Y-533626I-284J284D01*
G03X-961242Y-532964I-1259J-245D01*
G01X-962253Y-533975D01*
G02X-962939Y-533691I-284J284D01*
G01Y-530345D01*
X-958250Y-525656D01*
X-955160D01*
X-952856Y-523352D01*
Y-521190D01*
X-954403Y-519642D01*
X-946138Y-511377D01*
Y-502633D01*
X-947684Y-501087D01*
X-952648D01*
X-953516Y-501956D01*
G02X-954202Y-501672I-284J284D01*
G01Y-460218D01*
X-953973Y-459989D01*
G03X-953834Y-459666I-307J323D01*
G01Y-459366D01*
G03X-954824Y-459287I-445J662D01*
G01X-954821Y-459290D01*
X-954724Y-459386D01*
Y-459481D01*
X-954945Y-459702D01*
X-954948Y-459705D01*
G03X-955093Y-460034I301J-329D01*
G01Y-507501D01*
X-955094Y-507507D01*
G03X-955094Y-507530I445J-23D01*
G01Y-509394D01*
X-968822Y-523121D01*
G03X-968952Y-523436I315J-315D01*
G01Y-567811D01*
G03X-968949Y-567865I446J0D01*
G01X-968947Y-567877D01*
Y-571211D01*
X-968949Y-571225D01*
G03X-968954Y-571286I442J-61D01*
G01Y-572339D01*
X-969822D01*
Y-542602D01*
G03X-969949Y-542295I-433J0D01*
G01X-1014544Y-497700D01*
Y-451839D01*
G02X-1014437Y-451732I107J0D01*
G01X-1013913D01*
G03X-1012416Y-450235I0J1497D01*
G01Y-450049D01*
G03X-1014099Y-448366I-1683J0D01*
G01X-1014437D01*
G02X-1014544Y-448259I0J107D01*
G01Y-444542D01*
G02X-1014126Y-444140I402J0D01*
G03X-1014784Y-442943I32J797D01*
G03X-1015104Y-443113I235J-828D01*
G02X-1015607Y-443125I-259J307D01*
G03X-1016066Y-442925I-635J-830D01*
G03X-1016597Y-444127I-680J-418D01*
G02X-1016120Y-444522I75J-395D01*
G01Y-448259D01*
G03X-1015300Y-449704I1683J0D01*
G02Y-450394I-206J-345D01*
G03X-1016120Y-451839I863J-1445D01*
G01Y-498173D01*
G03X-1015993Y-498480I433J0D01*
G01X-971398Y-543075D01*
Y-572238D01*
X-971499Y-572339D01*
X-973799D01*
X-973819Y-572319D01*
Y-545284D01*
G03X-973946Y-544978I-433J0D01*
G01X-1020023Y-498901D01*
Y-448413D01*
G03X-1020023Y-448403I-433J9D01*
G02X-1019949Y-448302I107J0D01*
G01X-1019845Y-448290D01*
G03X-1019026Y-447948I-179J1579D01*
G01X-1018754Y-447728D01*
G03X-1018755Y-445498I-900J1115D01*
G01X-1019028Y-445278D01*
G03X-1019845Y-444937I-995J-1236D01*
G01X-1019956Y-444925D01*
G02X-1020023Y-444831I32J94D01*
G03X-1020023Y-444821I-433J0D01*
G01Y-440661D01*
G02X-1019675Y-440263I402J0D01*
G03X-1020452Y-439040I-106J791D01*
G03X-1020734Y-439166I24J-432D01*
G01X-1020763Y-439195D01*
G03X-1020792Y-439228I306J-306D01*
G02X-1021388Y-439258I-312J253D01*
G01X-1021480Y-439166D01*
G03X-1021762Y-439040I-306J-306D01*
G03X-1021977Y-440128I-671J-432D01*
G01X-1021839Y-440032D01*
X-1021600Y-440271D01*
Y-444831D01*
G03X-1020782Y-446270I1676J0D01*
G02X-1020781Y-446960I-206J-345D01*
G03X-1021600Y-448403I865J-1444D01*
G01Y-499374D01*
G03X-1021473Y-499680I433J0D01*
G01X-975395Y-545758D01*
Y-572220D01*
X-975514Y-572339D01*
X-978014D01*
X-978036Y-572318D01*
Y-548342D01*
G03X-978163Y-548035I-433J0D01*
G01X-1024109Y-502089D01*
Y-451774D01*
G03X-1024109Y-451764I-433J9D01*
G02X-1024051Y-451669I107J0D01*
G01X-1023948Y-451654D01*
G03X-1023845Y-451628I-54J430D01*
G03Y-449740I-348J944D01*
G03X-1023948Y-449714I-157J-404D01*
G01X-1024051Y-449699D01*
G02X-1024109Y-449604I49J95D01*
G03X-1024109Y-449595I-433J0D01*
G01Y-448451D01*
G03X-1024236Y-448145I-433J0D01*
G01X-1024827Y-447554D01*
X-1024828Y-447553D01*
G03X-1024832Y-447548I-309J-304D01*
G01X-1025094Y-447286D01*
Y-446882D01*
G03X-1026244Y-446562I-433J670D01*
G01X-1026224Y-446650D01*
G02X-1026424Y-446851I-201J0D01*
G01X-1026575Y-446782D01*
G03X-1026644Y-446709I-1139J-999D01*
G01X-1027099Y-446254D01*
G03X-1027393Y-446069I-549J-549D01*
G03X-1027725Y-446868I-785J-142D01*
G01X-1027699Y-446879D01*
X-1027256Y-447322D01*
G02X-1027197Y-447390I-459J-459D01*
G03X-1027048Y-447561I1299J978D01*
G01X-1025685Y-448924D01*
Y-502563D01*
G03X-1025558Y-502869I433J0D01*
G01X-979612Y-548815D01*
Y-572339D01*
X-982214D01*
Y-549517D01*
G03X-982341Y-549211I-433J0D01*
G01X-1029468Y-502083D01*
Y-474066D01*
G02X-1029144Y-473125I1527J0D01*
G01X-1028791Y-472675D01*
G03X-1028792Y-470626I-1308J1024D01*
G01X-1029144Y-470176D01*
G02X-1029468Y-469236I1201J941D01*
G01Y-465886D01*
G02X-1029044Y-465486I402J0D01*
G03X-1029670Y-464256I45J797D01*
G03X-1029952Y-464383I24J-432D01*
G01X-1030208Y-464639D01*
G03X-1030334Y-464920I306J-306D01*
G01X-1030338Y-464996D01*
X-1030534Y-465193D01*
X-1030866Y-464861D01*
X-1030856Y-464767D01*
G03X-1030853Y-464689I-794J78D01*
G03X-1031651Y-465487I-798J0D01*
G03X-1031573Y-465483I0J798D01*
G01X-1031478Y-465474D01*
X-1031045Y-465907D01*
Y-469236D01*
G03X-1030385Y-471148I3102J0D01*
G01X-1030038Y-471592D01*
G03X-1030033Y-471598I348J258D01*
G02Y-471703I-67J-52D01*
G03X-1030038Y-471710I341J-267D01*
G01X-1030385Y-472154D01*
G03X-1031045Y-474066I2444J-1913D01*
G01Y-502556D01*
G03X-1030918Y-502863I433J0D01*
G01X-983790Y-549991D01*
Y-572339D01*
X-986084D01*
G03X-986116Y-572304I-338J-271D01*
G01X-986413Y-572007D01*
Y-550826D01*
G03X-986540Y-550520I-433J0D01*
G01X-1036220Y-500839D01*
Y-449068D01*
G03X-1036220Y-449059I-433J9D01*
G02X-1036141Y-448956I107J0D01*
G03X-1036132Y-448953I-111J419D01*
G01X-1035509Y-448788D01*
G03X-1034300Y-447218I-415J1570D01*
G03X-1035542Y-445644I-1618J0D01*
G01X-1036130Y-445504D01*
G03X-1036138Y-445502I-111J-419D01*
G02X-1036220Y-445398I25J104D01*
G03X-1036220Y-445389I-433J0D01*
G01Y-444579D01*
X-1035953Y-444312D01*
X-1035859Y-444321D01*
G03X-1035781Y-444325I78J794D01*
G03X-1036579Y-443527I0J798D01*
G03X-1036575Y-443605I798J0D01*
G01X-1036566Y-443699D01*
X-1036960Y-444093D01*
G03X-1036963Y-444096I300J-312D01*
G01X-1037107Y-444240D01*
X-1037648Y-443699D01*
X-1037639Y-443605D01*
G03X-1037635Y-443527I-794J78D01*
G03X-1038433Y-444325I-798J0D01*
G03X-1038355Y-444321I0J798D01*
G01X-1038260Y-444312D01*
X-1037797Y-444775D01*
Y-445398D01*
G03X-1036513Y-447033I1683J0D01*
G01X-1036397Y-447062D01*
X-1036315Y-447371D01*
X-1036544Y-447432D01*
G03X-1037797Y-449059I430J-1627D01*
G01Y-501313D01*
G03X-1037670Y-501619I433J0D01*
G01X-987989Y-551300D01*
Y-572339D01*
X-988847D01*
Y-574399D01*
X-991567D01*
Y-575679D01*
X-992394D01*
Y-579908D01*
X-991567D01*
Y-581188D01*
X-988847D01*
Y-583244D01*
X-992427D01*
G02X-993608Y-582063I0J1181D01*
G01Y-550445D01*
G03X-994415Y-548497I-2756J0D01*
G01X-1041035Y-501877D01*
G02X-1041958Y-499649I2227J2227D01*
G01Y-223038D01*
G02X-1041035Y-220811I3150J0D01*
G01X-998691Y-178468D01*
G03X-997308Y-175127I-3341J3340D01*
G01Y-117989D01*
G02X-996126Y-116808I1181J0D01*
G01X-953626D01*
G02X-952445Y-117989I0J-1181D01*
G01Y-175127D01*
G03X-951061Y-178468I4724J0D01*
G37*
%LPC*%
G75*
G36*
G01X-940510Y-350648D02*
X-940530Y-350690D01*
Y-360400D01*
X-937277Y-363653D01*
X-937209D01*
G02X-937170Y-365070I387J-698D01*
G01X-937212Y-365050D01*
X-937329D01*
G03X-937730Y-365445I0J-402D01*
G02X-939092Y-365996I-798J13D01*
G01X-942992Y-362096D01*
G02X-943226Y-361532I564J564D01*
G01Y-353038D01*
G02X-942361Y-352242I798J0D01*
G03X-941926Y-351842I34J400D01*
G01Y-350690D01*
X-941946Y-350648D01*
G02X-942026Y-350300I718J348D01*
G02X-940430I798J0D01*
G02X-940510Y-350648I-798J0D01*
G37*
G36*
G01X-980967Y-304096D02*
G02X-981097Y-304423I-445J-12D01*
G01X-987412Y-310739D01*
Y-317288D01*
X-982086Y-322614D01*
X-981993Y-322606D01*
G02X-981928Y-322604I66J-795D01*
G02X-982726Y-323402I0J-798D01*
G02X-982723Y-323336I798J0D01*
G01X-982716Y-323244D01*
X-988172Y-317787D01*
G02X-988303Y-317472I315J315D01*
G01Y-310554D01*
G02X-988172Y-310240I445J0D01*
G01X-981966Y-304033D01*
X-982063Y-303895D01*
G02X-980967Y-304096I652J461D01*
G37*
G36*
G01X-996617Y-266100D02*
Y-272148D01*
G02X-996983Y-273031I-1248J0D01*
G01X-1001622Y-277670D01*
G02X-1002505Y-278036I-882J883D01*
G02X-1003753Y-276788I0J1248D01*
G02X-1003388Y-275905I1248J0D01*
G01X-999113Y-271631D01*
Y-266100D01*
G02X-996617I1248J0D01*
G37*
G36*
G01X-988495Y-265208D02*
X-988588Y-265200D01*
X-991293Y-267906D01*
G02X-991608Y-268036I-315J315D01*
G01X-993086D01*
G02X-993748Y-268389I-662J445D01*
G02Y-266793I0J798D01*
G02X-993086Y-267146I0J-798D01*
G01X-991792D01*
X-989217Y-264571D01*
X-989225Y-264478D01*
G02X-989227Y-264413I795J66D01*
G02X-988429Y-265211I798J0D01*
G02X-988495Y-265208I0J798D01*
G37*
G36*
G01X-968649Y-265078D02*
X-968741Y-265070D01*
X-970969Y-267298D01*
G02X-971284Y-267428I-315J315D01*
G01X-973058D01*
G02X-973721Y-267781I-663J445D01*
G02Y-266185I0J798D01*
G02X-973058Y-266538I0J-798D01*
G01X-971468D01*
X-969371Y-264441D01*
X-969378Y-264348D01*
G02X-969381Y-264282I795J66D01*
G02X-968583Y-265080I798J0D01*
G02X-968649Y-265078I0J798D01*
G37*
G36*
G01X-983492Y-251434D02*
X-983500Y-251527D01*
X-982045Y-252981D01*
G02X-981906Y-253304I-307J-323D01*
G01Y-253386D01*
G02X-982980Y-253556I-445J-662D01*
G03X-982996Y-253290I-158J124D01*
G01X-984129Y-252156D01*
X-984222Y-252164D01*
G02X-984287Y-252167I-66J795D01*
G02X-983489Y-251369I0J798D01*
G02X-983492Y-251434I-798J0D01*
G37*
G36*
G01X-1004870Y-240609D02*
Y-257654D01*
G02X-1005235Y-258536I-1248J0D01*
G01X-1011556Y-264857D01*
Y-282514D01*
X-1008380Y-285689D01*
X-1008290D01*
G02Y-288186I0J-1248D01*
G01X-1008897D01*
G02X-1009779Y-287820I0J1248D01*
G01X-1013686Y-283913D01*
G02X-1014052Y-283031I882J883D01*
G01Y-264340D01*
G02X-1013686Y-263457I1248J0D01*
G01X-1007366Y-257137D01*
Y-240609D01*
G02X-1004870I1248J0D01*
G37*
G36*
G01X-992659Y-131204D02*
Y-145946D01*
G03X-992296Y-146346I402J0D01*
G02X-992408Y-147938I-76J-795D01*
G01X-992497Y-147934D01*
X-992949Y-148386D01*
Y-177638D01*
G02X-993076Y-177945I-433J0D01*
G01X-1037026Y-221895D01*
Y-422393D01*
G02X-1037528Y-423395I-1250J0D01*
G03X-1037514Y-424049I240J-322D01*
G02X-1037026Y-424969I-624J-920D01*
G01Y-427652D01*
G03X-1036661Y-428052I402J0D01*
G02X-1037225Y-429474I-71J-795D01*
G03X-1037778Y-429527I-248J-316D01*
G02X-1039079Y-428618I-604J522D01*
G01X-1039054Y-428572D01*
Y-428383D01*
G02X-1038927Y-428077I433J0D01*
G01X-1038603Y-427753D01*
Y-425408D01*
X-1038747Y-425366D01*
G02Y-422134I471J1616D01*
G01X-1038603Y-422092D01*
Y-221422D01*
G02X-1038476Y-221115I433J0D01*
G01X-994526Y-177165D01*
Y-148335D01*
X-994621Y-148276D01*
G02X-994389Y-146821I419J679D01*
G01X-994236Y-146784D01*
X-994235Y-146587D01*
Y-130730D01*
G02X-994109Y-130424I433J0D01*
G01X-988110Y-124425D01*
Y-121423D01*
G03X-988571Y-121026I-402J0D01*
G02X-987958Y-119922I-120J789D01*
G01X-987943Y-119956D01*
X-987715Y-120194D01*
X-987502Y-119991D01*
X-987508Y-119897D01*
G02X-986223Y-120475I796J53D01*
G02X-986307Y-120592I-389J189D01*
G01X-986533Y-120819D01*
Y-124898D01*
G02X-986660Y-125204I-433J0D01*
G01X-992659Y-131204D01*
G37*
G36*
G01X-978450Y-119311D02*
G02X-977540Y-120571I602J-524D01*
G02X-977656Y-120852I-433J14D01*
G01X-978092Y-121320D01*
Y-126585D01*
G02X-978219Y-126891I-433J0D01*
G01X-981388Y-130060D01*
Y-146776D01*
X-980769Y-147395D01*
G02X-980642Y-147701I-306J-306D01*
G01Y-149608D01*
G02X-980769Y-149914I-433J0D01*
G01X-981704Y-150850D01*
Y-188180D01*
G02X-981831Y-188486I-433J0D01*
G01X-1027524Y-234179D01*
Y-427142D01*
X-1027498Y-427210D01*
X-1026714Y-427994D01*
G02X-1026587Y-428300I-306J-306D01*
G01Y-428428D01*
G03X-1026118Y-428824I402J0D01*
G02X-1026264Y-430359I133J-787D01*
G01X-1026298Y-430346D01*
X-1026675D01*
G02X-1026981Y-430219I0J433D01*
G01X-1027126Y-430075D01*
X-1027302Y-430252D01*
X-1027317Y-430299D01*
G02X-1027424Y-430475I-413J131D01*
G01X-1027689Y-430740D01*
G02X-1027996Y-430867I-306J306D01*
G01X-1028367D01*
G02X-1028673Y-430740I0J433D01*
G01X-1028943Y-430470D01*
G02X-1029050Y-430294I306J306D01*
G02X-1028897Y-428857I413J683D01*
G03X-1028744Y-428193I-131J380D01*
G01X-1028784Y-428152D01*
G02X-1028883Y-428001I306J306D01*
G01X-1029071Y-427508D01*
G02X-1029100Y-427354I405J155D01*
G01Y-233706D01*
G02X-1028973Y-233399I433J0D01*
G01X-983280Y-187707D01*
Y-149051D01*
G02X-983154Y-148736I433J9D01*
G01X-983084Y-148666D01*
G02X-982850Y-147917I780J168D01*
G02X-982964Y-147625I319J292D01*
G01Y-129586D01*
G02X-982837Y-129280I433J0D01*
G01X-979669Y-126112D01*
Y-121904D01*
X-979691Y-121258D01*
X-980058Y-120916D01*
G02X-980196Y-120615I295J317D01*
G01X-980203Y-120423D01*
X-980240Y-120373D01*
G02X-979036Y-119332I642J474D01*
G03X-978450Y-119311I283J285D01*
G37*
G36*
G01X-982777Y-119331D02*
G02X-981771Y-120478I680J-418D01*
G01X-981890Y-120531D01*
Y-126317D01*
G02X-982017Y-126623I-433J0D01*
G01X-985081Y-129687D01*
Y-150276D01*
X-985047Y-150326D01*
G02X-985360Y-151486I-664J-443D01*
G01X-985390Y-151501D01*
X-986134Y-152244D01*
Y-182298D01*
G02X-986261Y-182605I-433J0D01*
G01X-1032447Y-228791D01*
Y-427849D01*
X-1032447Y-427853D01*
G02X-1032447Y-427868I-433J-16D01*
G01Y-428827D01*
X-1032016Y-429065D01*
X-1031911Y-428983D01*
G02X-1032092Y-430041I492J-628D01*
G01X-1032119Y-429998D01*
X-1032743Y-429653D01*
G03X-1033317Y-429873I-195J-351D01*
G02X-1034840Y-429396I-754J261D01*
G02X-1034896Y-429182I377J214D01*
G01Y-428800D01*
G02X-1034769Y-428494I433J0D01*
G01X-1034550Y-428274D01*
Y-428100D01*
G02X-1034423Y-427794I433J0D01*
G01X-1034024Y-427394D01*
Y-228318D01*
G02X-1033897Y-228011I433J0D01*
G01X-987710Y-181825D01*
Y-151493D01*
X-987817Y-151436D01*
G02X-987363Y-149938I376J704D01*
G01X-987268Y-149947D01*
X-986657Y-149336D01*
Y-129213D01*
G02X-986530Y-128907I433J0D01*
G01X-983466Y-125843D01*
Y-121081D01*
X-983840Y-120706D01*
X-983934Y-120716D01*
G02X-983418Y-119389I-78J794D01*
G03X-982777Y-119331I299J268D01*
G37*
G36*
G01X-974550Y-119873D02*
X-974577Y-119983D01*
X-974356Y-120205D01*
X-974006Y-119857D01*
X-974016Y-119762D01*
G02X-973301Y-120480I794J77D01*
G01X-973395Y-120470D01*
X-974007Y-121080D01*
Y-133328D01*
G02X-974133Y-133635I-433J0D01*
G01X-974688Y-134189D01*
Y-147029D01*
X-974304Y-147413D01*
G02X-974177Y-147719I-306J-306D01*
G01Y-150732D01*
X-974085Y-150791D01*
G02X-974420Y-152252I-435J-669D01*
G01X-974596Y-152274D01*
Y-197408D01*
G02X-974723Y-197714I-433J0D01*
G01X-1021325Y-244316D01*
Y-423351D01*
G02X-1022096Y-424708I-1580J0D01*
G02X-1022102Y-424711I-223J371D01*
G01X-1022103Y-424712D01*
X-1022337Y-424851D01*
X-1022199Y-425083D01*
X-1022135Y-425108D01*
G02X-1021325Y-426296I-467J-1189D01*
G01Y-427760D01*
X-1020805Y-428281D01*
G02X-1020678Y-428587I-306J-306D01*
G01Y-428611D01*
G03X-1020240Y-429010I402J0D01*
G02X-1020943Y-429996I72J-795D01*
G01X-1020957Y-429942D01*
X-1021142Y-429757D01*
G03X-1021484Y-429899I-142J-142D01*
G01Y-430334D01*
G02X-1021611Y-430641I-433J0D01*
G01X-1021802Y-430832D01*
G02X-1022109Y-430958I-306J306D01*
G01X-1022568D01*
G02X-1022874Y-430832I0J433D01*
G01X-1023042Y-430664D01*
G02X-1023128Y-430542I306J306D01*
G02X-1022797Y-429008I307J737D01*
G01X-1022711Y-429010D01*
X-1022508Y-428807D01*
X-1022774Y-428540D01*
G02X-1022901Y-428234I306J306D01*
G01Y-426561D01*
X-1023042Y-426518D01*
G02X-1024119Y-424679I468J1509D01*
G02X-1024118Y-424672I424J-87D01*
G02X-1023368Y-423631I1574J-344D01*
G01X-1022901Y-423353D01*
Y-243843D01*
G02X-1022774Y-243537I433J0D01*
G01X-976172Y-196934D01*
Y-149996D01*
G02X-976264Y-148724I433J670D01*
G01Y-133716D01*
G02X-976137Y-133409I433J0D01*
G01X-975583Y-132855D01*
Y-120448D01*
X-975691Y-120392D01*
G02X-974550Y-119873I366J709D01*
G37*
G36*
G01X-950939Y-298453D02*
X-949689Y-299703D01*
G02X-949558Y-300018I-315J-315D01*
G01Y-363368D01*
X-940867Y-372060D01*
X-940774Y-372053D01*
G02X-940145Y-372284I65J-795D01*
G01X-935486Y-376942D01*
X-929883D01*
G02Y-378538I0J-798D01*
G01X-935817D01*
G02X-936381Y-378304I0J798D01*
G01X-941273Y-373412D01*
G02X-941505Y-372783I564J564D01*
G01X-941497Y-372691D01*
X-950319Y-363868D01*
G02X-950450Y-363553I315J315D01*
G01Y-301604D01*
G03X-950883Y-301204I-402J0D01*
G02X-951700Y-300670I-63J796D01*
G01X-951715Y-300627D01*
X-952098Y-300243D01*
G03X-952784Y-300527I-284J-284D01*
G01Y-313314D01*
G02X-952986Y-313803I-692J0D01*
G01X-954368Y-315184D01*
X-954383Y-315230D01*
G02X-955828Y-315383I-758J251D01*
G03X-956459Y-315303I-346J-204D01*
G01X-958095Y-316939D01*
X-964402D01*
Y-313549D01*
X-964396Y-313543D01*
Y-311142D01*
X-961983Y-308730D01*
Y-209178D01*
X-962962Y-208198D01*
X-963103Y-208314D01*
G02X-964404Y-207632I-506J617D01*
G01X-964397Y-207539D01*
X-969757Y-202179D01*
G02X-969888Y-201873I315J315D01*
G03X-970266Y-201784I-201J-4D01*
G02X-970343Y-201888I-383J203D01*
G01X-1015098Y-246644D01*
Y-337608D01*
G02X-1015098Y-337617I-433J-9D01*
G03X-1015041Y-337712I107J0D01*
G01X-1014937Y-337728D01*
G02X-1014777Y-337781I-54J-430D01*
G02Y-339614I-503J-916D01*
G02X-1014937Y-339667I-215J376D01*
G01X-1015041Y-339683D01*
G03X-1015098Y-339777I49J-95D01*
G02X-1015098Y-339787I-433J0D01*
G01Y-341831D01*
X-1014341Y-342589D01*
G02X-1014214Y-342895I-306J-306D01*
G01Y-364740D01*
G02X-1015034Y-366185I-1683J0D01*
G03Y-366875I206J-345D01*
G02X-1014214Y-368320I-863J-1445D01*
G01Y-368956D01*
G02X-1015034Y-370401I-1683J0D01*
G03Y-371091I206J-345D01*
G02X-1014214Y-372536I-863J-1445D01*
G01Y-429262D01*
X-1014064Y-429301D01*
G02X-1015038Y-429877I-201J-772D01*
G02X-1015080Y-429692I392J185D01*
G01Y-429334D01*
G03X-1015423Y-429192I-201J0D01*
G01X-1016132Y-429901D01*
X-1016122Y-429996D01*
G02X-1016119Y-430073I-794J-78D01*
G02X-1016917Y-429275I-798J0D01*
G02X-1016839Y-429279I0J-798D01*
G01X-1016744Y-429288D01*
X-1015790Y-428334D01*
Y-410269D01*
G02X-1015790Y-410259I433J1D01*
G01X-1015790Y-410256D01*
Y-372536D01*
G03X-1015897Y-372429I-107J0D01*
G01X-1017516D01*
G02Y-369063I0J1683D01*
G01X-1015897D01*
G03X-1015790Y-368956I0J107D01*
G01Y-368320D01*
G03X-1015897Y-368213I-107J0D01*
G01X-1016948D01*
G02Y-364847I0J1683D01*
G01X-1015897D01*
G03X-1015790Y-364740I0J107D01*
G01Y-343369D01*
X-1016548Y-342611D01*
G02X-1016675Y-342304I306J306D01*
G01Y-246170D01*
G02X-1016548Y-245864I433J0D01*
G01X-971792Y-201108D01*
Y-149783D01*
X-971914Y-149731D01*
G02X-971836Y-148233I312J735D01*
G01X-971694Y-148189D01*
Y-123374D01*
X-971849Y-123234D01*
X-971943Y-123249D01*
G02X-971266Y-122496I-120J789D01*
G01X-971270Y-122590D01*
X-971027Y-122809D01*
X-970828Y-122587D01*
X-970844Y-122490D01*
G02X-969644Y-123035I786J138D01*
G02X-969701Y-123153I-414J128D01*
G01X-969724Y-123186D01*
X-970117Y-123580D01*
Y-148948D01*
G02X-970157Y-149129I-433J0D01*
G01X-970176Y-149169D01*
Y-149776D01*
X-970041Y-149823D01*
G02X-969908Y-149884I-263J-754D01*
G03X-969615Y-149654I100J174D01*
G02X-969633Y-149530I428J124D01*
G01Y-123832D01*
G02X-969554Y-123579I446J0D01*
G01X-969531Y-123546D01*
X-968709Y-122724D01*
Y-120356D01*
X-968863Y-120318D01*
G02X-969422Y-119260I188J776D01*
G01X-969408Y-119226D01*
Y-117573D01*
X-964742D01*
G02X-963661Y-118245I0J-1206D01*
G02X-962858Y-119396I90J-793D01*
G01X-962879Y-119439D01*
Y-119922D01*
X-962582D01*
X-962522Y-119847D01*
G02X-962489Y-119811I348J-279D01*
G01X-962128Y-119449D01*
X-962135Y-119357D01*
G02X-962138Y-119292I796J64D01*
G02X-961340Y-120090I798J0D01*
G02X-961405Y-120087I-1J798D01*
G01X-961497Y-120080D01*
X-961728Y-120311D01*
Y-142188D01*
X-954663D01*
Y-140594D01*
X-954769Y-140537D01*
G02X-953635Y-139582I376J704D01*
G01X-953620Y-139627D01*
X-953482Y-139766D01*
G02X-953279Y-140255I-489J-489D01*
G01Y-178752D01*
X-952834Y-179197D01*
X-952734Y-179183D01*
G02X-951274Y-180453I178J-1270D01*
G01Y-190831D01*
X-924685Y-217420D01*
G02X-924309Y-218326I-907J-907D01*
G01Y-282216D01*
G03X-923624Y-282500I402J0D01*
G01X-920363Y-279240D01*
X-916188D01*
X-916156Y-279272D01*
X-909994D01*
Y-283380D01*
G03X-909629Y-283780I402J0D01*
G02Y-285369I-73J-795D01*
G03X-909994Y-285769I37J-400D01*
G01Y-316520D01*
X-917309D01*
Y-315682D01*
G03X-918058Y-315481I-402J0D01*
G02X-925459Y-316437I-4066J2353D01*
G01X-925518Y-316377D01*
X-925802D01*
Y-316579D01*
X-927538Y-318314D01*
X-930323D01*
X-932722Y-315915D01*
Y-315636D01*
G03X-933408Y-315352I-402J0D01*
G01X-935268Y-317212D01*
X-945325D01*
X-946365Y-316172D01*
Y-305642D01*
X-942245Y-301522D01*
Y-272016D01*
G03X-942823Y-271656I-402J0D01*
G02X-941587Y-264094I-2065J4220D01*
G03X-940903Y-263808I282J286D01*
G01Y-263223D01*
X-942245Y-261881D01*
Y-216976D01*
X-950254Y-208968D01*
G03X-950939Y-209252I-284J-284D01*
G01Y-298453D01*
G37*
G54D34*
X-909970Y-272628D03*
X-920277Y-270610D03*
X-909970Y-264754D03*
X-920277Y-262736D03*
X-909970Y-256880D03*
X-920277Y-254862D03*
X-909970Y-249006D03*
X-920277Y-246988D03*
G54D33*
X-982124Y-313128D03*
X-1004888Y-267436D03*
%LPD*%
G75*
G36*
G01X-920030Y-280044D02*
X-916521D01*
X-916489Y-280076D01*
X-910798D01*
Y-315716D01*
X-916505D01*
Y-305764D01*
X-921500D01*
X-923531Y-307795D01*
X-924530D01*
X-927242Y-310507D01*
Y-315439D01*
X-926865Y-315816D01*
Y-316504D01*
X-927871Y-317510D01*
X-929990D01*
X-931918Y-315582D01*
Y-306950D01*
X-923476Y-298508D01*
Y-283490D01*
X-920030Y-280044D01*
G37*
G36*
G01X-961486Y-142992D02*
X-954663D01*
Y-179038D01*
G03X-954460Y-179528I692J0D01*
G01X-953812Y-180176D01*
X-953826Y-180275D01*
G03X-953838Y-180453I1270J-179D01*
G01Y-191362D01*
G03X-953463Y-192269I1282J0D01*
G01X-953060Y-192671D01*
Y-196274D01*
X-930882Y-218452D01*
Y-272190D01*
X-929910Y-273162D01*
Y-303805D01*
X-932722Y-306616D01*
Y-313529D01*
X-935602Y-316408D01*
X-944992D01*
X-945561Y-315839D01*
Y-305975D01*
X-941441Y-301855D01*
Y-274096D01*
X-939484Y-272139D01*
Y-262334D01*
X-939576D01*
X-941441Y-260469D01*
Y-216643D01*
X-950938Y-207146D01*
X-950939Y-207065D01*
G03X-951070Y-206755I-446J-6D01*
G01X-960071Y-197754D01*
Y-186250D01*
G03X-960202Y-185935I-446J0D01*
G01X-961486Y-184650D01*
Y-150204D01*
G02X-961107Y-149803I402J0D01*
G03Y-148210I-44J797D01*
G02X-961486Y-147808I22J401D01*
G01Y-142992D01*
G37*
G36*
G01X-946691Y-200796D02*
G03X-946317Y-200285I-405J688D01*
G02X-945641Y-200090I392J-89D01*
G01X-926874Y-218857D01*
Y-290717D01*
G03X-925592Y-292000I1282J0D01*
G03X-924899Y-291797I0J1282D01*
G02X-924281Y-292135I217J-338D01*
G01Y-298175D01*
X-928421Y-302315D01*
G02X-929106Y-302031I-284J284D01*
G01Y-272828D01*
X-930078Y-271856D01*
Y-218119D01*
X-934361Y-213836D01*
X-934375Y-213810D01*
G03X-935698Y-212488I-2863J-1540D01*
G01X-935724Y-212474D01*
X-939597Y-208600D01*
G02X-939577Y-208013I284J284D01*
G03X-939303Y-207411I-524J602D01*
G03X-940101Y-206613I-798J0D01*
G03X-940703Y-206887I0J-798D01*
G02X-941290Y-206907I-303J264D01*
G01X-943914Y-204283D01*
G02X-943931Y-203734I284J284D01*
G03X-943731Y-203206I-598J528D01*
G03X-944529Y-202408I-798J0D01*
G03X-945057Y-202607I0J-798D01*
G02X-945607Y-202590I-266J301D01*
G01X-946771Y-201426D01*
G02X-946691Y-200796I284J284D01*
G37*
G36*
G01X-981308Y-304037D02*
G02X-981058Y-303787I424J-174D01*
G01X-981412Y-303397D01*
X-981765Y-303787D01*
G02X-981516Y-304037I-174J-424D01*
G03X-981308I104J104D01*
G37*
G36*
G01X-988782Y-264913D02*
G02X-988429I177J-424D01*
G01X-988403Y-264387D01*
X-988929Y-264413D01*
G02Y-264766I-424J-176D01*
G03X-988782Y-264913I147J0D01*
G37*
G36*
G01X-993145Y-267487D02*
G02X-993395Y-267238I174J424D01*
G01X-993785Y-267591D01*
X-993395Y-267945D01*
G02X-993145Y-267695I424J-174D01*
G03Y-267487I-104J104D01*
G37*
G36*
G01X-968936Y-264782D02*
G02X-968583I177J-424D01*
G01X-968557Y-264256D01*
X-969083Y-264282D01*
G02Y-264635I-424J-176D01*
G03X-968936Y-264782I147J0D01*
G37*
G36*
G01X-973118Y-266879D02*
G02X-973367Y-266630I174J424D01*
G01X-973758Y-266983D01*
X-973367Y-267336D01*
G02X-973118Y-267087I424J-174D01*
G03Y-266879I-104J104D01*
G37*
G36*
G01X-983787Y-251722D02*
G02Y-251369I424J176D01*
G01X-984313Y-251343D01*
X-984287Y-251869D01*
G02X-983934I176J-424D01*
G03X-983787Y-251722I0J147D01*
G37*
G36*
G01X-982456Y-253445D02*
G02X-982705Y-253695I-424J174D01*
G01X-982352Y-254085D01*
X-981998Y-253695D01*
G02X-982248Y-253445I174J424D01*
G03X-982456I-104J-104D01*
G37*
G36*
G01X-968604Y-118377D02*
X-964742D01*
G02X-964350Y-118865I0J-402D01*
G03X-964369Y-119038I779J-173D01*
G03X-964284Y-119396I798J0D01*
G01X-964263Y-119439D01*
Y-120730D01*
X-965158Y-121626D01*
G03X-965361Y-122115I489J-489D01*
G01Y-123099D01*
G03X-965158Y-123588I692J0D01*
G01X-964796Y-123951D01*
Y-185481D01*
G03X-964593Y-185970I692J0D01*
G01X-963161Y-187402D01*
Y-199072D01*
G03X-962958Y-199561I692J0D01*
G01X-954255Y-208264D01*
Y-311962D01*
X-958428Y-316135D01*
X-963598D01*
Y-313882D01*
X-963591Y-313876D01*
Y-311475D01*
X-961179Y-309063D01*
Y-208844D01*
X-968154Y-201869D01*
Y-201708D01*
X-968847Y-201015D01*
Y-152616D01*
X-968154Y-151923D01*
Y-149284D01*
X-968604Y-148834D01*
Y-147037D01*
Y-123880D01*
X-967948Y-123224D01*
G03X-967818Y-122909I-315J315D01*
G01Y-119954D01*
G03X-967894Y-119706I-446J0D01*
G03X-967877Y-119543I-781J163D01*
G03X-968458Y-118775I-798J0D01*
G01X-968604Y-118733D01*
Y-118377D01*
G37*
G54D10*
X-991146Y-577794D03*
G54D20*
G01X-962996Y-581101D02*
Y-579592D01*
X-962383Y-578978D01*
G01X-961618Y-581101D02*
Y-579743D01*
X-962383Y-578978D01*
G01X-992595Y-577794D02*
X-991146D01*
G54D11*
X-990181Y-575648D03*
G54D30*
G01X-997865Y-266100D02*
Y-272148D01*
X-1002505Y-276788D01*
G01X-1008290Y-286937D02*
X-1008897D01*
X-1012804Y-283031D01*
Y-264340D01*
X-1006118Y-257654D01*
Y-240609D01*
G54D21*
G01X-964374Y-574486D02*
Y-572774D01*
X-963296Y-571695D01*
Y-566461D01*
X-960280Y-563446D01*
Y-536703D01*
X-954854Y-531276D01*
X-954712D01*
G01X-965752Y-574486D02*
Y-571931D01*
X-964472Y-570651D01*
Y-565002D01*
G01X-959237Y-579311D02*
Y-576740D01*
G01Y-579940D02*
Y-579311D01*
G01X-958953Y-580890D02*
X-959267Y-580577D01*
Y-579341D01*
X-959237Y-579311D01*
G01X-957873Y-579919D02*
Y-578192D01*
X-958272Y-577794D01*
G01X-958845Y-580890D02*
X-957873Y-579919D01*
G01X-958845Y-580890D02*
X-958184D01*
X-957680Y-581394D01*
G01X-958953Y-580890D02*
X-958845D01*
G01X-957680Y-581394D02*
Y-580112D01*
X-957873Y-579919D01*
G01X-991146Y-577658D02*
Y-576612D01*
X-990181Y-575648D01*
G01X-991146Y-577658D02*
Y-577794D01*
G01D02*
X-990181Y-578758D01*
Y-579940D01*
G01X-992830D02*
X-992851Y-579918D01*
G01X-990181Y-579940D02*
X-992830D01*
G01X-990181Y-582163D02*
X-990683Y-582664D01*
G01X-990181Y-581516D02*
Y-582163D01*
G01Y-579940D02*
Y-581516D01*
G01Y-573778D02*
X-990209Y-573750D01*
G01X-990181Y-575648D02*
Y-573778D01*
G01X-992410Y-575648D02*
X-992439Y-575619D01*
G01X-990181Y-575648D02*
X-992410D01*
G01X-941228Y-350300D02*
Y-360689D01*
X-937566Y-364351D01*
X-936822D01*
G01X-950946Y-300409D02*
X-952388Y-298966D01*
Y-264874D01*
X-952369Y-264855D01*
Y-207420D01*
X-961362Y-198426D01*
Y-186595D01*
X-963016Y-184942D01*
Y-123072D01*
X-963481Y-122607D01*
G54D12*
X-990181Y-579940D03*
G54D31*
G01X-942102Y-312771D02*
X-935550Y-306219D01*
G01D02*
Y-217956D01*
G01D02*
X-943848Y-209659D01*
G54D22*
G01X-979532Y-574486D02*
Y-573077D01*
X-979179Y-572724D01*
Y-548636D01*
X-1025252Y-502563D01*
Y-448745D01*
X-1026742Y-447255D01*
G02X-1026851Y-447129I844J843D01*
G03X-1026950Y-447016I-864J-651D01*
G01X-1027405Y-446560D01*
G03X-1027517Y-446486I-243J-243D01*
G01X-1028179Y-446212D01*
G01X-1025527D02*
Y-447324D01*
G03X-1025426Y-447567I344J0D01*
G01X-1025138Y-447854D01*
X-1024542Y-448451D01*
Y-449604D01*
G03X-1024002Y-450144I540J0D01*
G02Y-451224I-191J-540D01*
G03X-1024542Y-451764I0J-540D01*
G01Y-502268D01*
X-978469Y-548342D01*
Y-572497D01*
X-978154Y-572812D01*
Y-574486D01*
G01X-983666D02*
Y-572968D01*
X-983357Y-572658D01*
Y-549811D01*
X-1030612Y-502556D01*
Y-474066D01*
G02X-1030044Y-472421I2670J0D01*
G01X-1029692Y-471970D01*
G03Y-471331I-408J320D01*
G01X-1030044Y-470881D01*
G02X-1030612Y-469236I2101J1645D01*
G01Y-465728D01*
X-1031651Y-464689D01*
G01X-982288Y-574486D02*
Y-573020D01*
X-982647Y-572661D01*
Y-549517D01*
X-1029902Y-502262D01*
Y-474066D01*
G02X-1029485Y-472858I1960J0D01*
G01X-1029132Y-472408D01*
G03X-1029132Y-470894I-967J757D01*
G01X-1029485Y-470443D01*
G02X-1029902Y-469236I1542J1208D01*
G01Y-465081D01*
X-1029901Y-465081D01*
Y-464945D01*
X-1029646Y-464689D01*
X-1028999D01*
G01X-975398Y-574486D02*
Y-572836D01*
X-974962Y-572400D01*
Y-545578D01*
X-1021166Y-499374D01*
Y-448403D01*
G02X-1019996Y-447156I1250J0D01*
G03X-1019744Y-447058I-28J445D01*
G01X-1019472Y-446838D01*
G03X-1019472Y-446388I-182J225D01*
G01X-1019744Y-446168D01*
G03X-1019996Y-446071I-278J-345D01*
G02X-1021166Y-444831I73J1241D01*
G01Y-440092D01*
X-1021786Y-439472D01*
X-1022433D01*
G01X-974020Y-574486D02*
Y-572731D01*
X-974252Y-572498D01*
Y-545284D01*
X-1020456Y-499080D01*
Y-448403D01*
G02X-1019951Y-447865I540J0D01*
G03X-1019298Y-447611I-73J1153D01*
G01X-1019026Y-447391D01*
G03X-1019027Y-445835I-628J778D01*
G01X-1019299Y-445615D01*
G03X-1019955Y-445362I-723J-898D01*
G02X-1020456Y-444831I31J532D01*
G01Y-439501D01*
X-1020428Y-439472D01*
X-1019781D01*
G01X-1016746Y-443343D02*
X-1016242D01*
G02X-1015738Y-443606I0J-612D01*
G02X-1015687Y-443771I-237J-164D01*
G01Y-448259D01*
G03X-1014437Y-449509I1250J0D01*
G01X-1014099D01*
G02X-1013559Y-450049I0J-540D01*
G01Y-450235D01*
G02X-1013913Y-450589I-354J0D01*
G01X-1014437D01*
G03X-1015687Y-451839I0J-1250D01*
G01Y-498173D01*
X-970965Y-542896D01*
Y-572418D01*
X-971264Y-572717D01*
Y-574486D01*
G01X-1014094Y-443343D02*
X-1014550D01*
G03X-1014977Y-443771I0J-428D01*
G01Y-448259D01*
G03X-1014437Y-448799I540J0D01*
G01X-1014099D01*
G02X-1012849Y-450049I0J-1250D01*
G01Y-450235D01*
G02X-1013913Y-451299I-1064J0D01*
G01X-1014437D01*
G03X-1014977Y-451839I0J-540D01*
G01Y-497879D01*
X-970255Y-542602D01*
Y-572613D01*
X-969886Y-572982D01*
Y-574486D01*
G01X-987800D02*
Y-573012D01*
X-987556Y-572768D01*
Y-551120D01*
X-1037364Y-501313D01*
Y-449059D01*
G02X-1036433Y-447850I1250J0D01*
G01X-1035801Y-447683D01*
G03X-1035443Y-447218I-123J465D01*
G03X-1035808Y-446756I-475J0D01*
G01X-1036404Y-446614D01*
G02X-1037364Y-445398I290J1216D01*
G01Y-444596D01*
X-1038433Y-443527D01*
G01X-986422Y-574486D02*
Y-572610D01*
X-986846Y-572186D01*
Y-550826D01*
X-1036654Y-501019D01*
Y-449059D01*
G02X-1036252Y-448537I540J0D01*
G01X-1035620Y-448370D01*
G03X-1034733Y-447218I-305J1152D01*
G03X-1035643Y-446066I-1185J0D01*
G01X-1036239Y-445923D01*
G02X-1036654Y-445398I125J525D01*
G01Y-444399D01*
X-1035781Y-443527D01*
G01X-982303Y-148498D02*
Y-147852D01*
X-982531Y-147625D01*
Y-129586D01*
X-979236Y-126291D01*
Y-121896D01*
X-979265Y-121064D01*
X-979763Y-120599D01*
X-979781Y-120095D01*
X-979598Y-119898D01*
G01X-982303Y-148498D02*
X-982847Y-149042D01*
Y-187886D01*
X-1028667Y-233706D01*
Y-427354D01*
X-1028478Y-427846D01*
X-1027730Y-428594D01*
Y-430168D01*
X-1027996Y-430434D01*
X-1028367D01*
X-1028637Y-430164D01*
Y-429611D01*
G01X-1025985D02*
X-1026287Y-429913D01*
X-1026675D01*
X-1027020Y-429568D01*
Y-428300D01*
X-1027869Y-427451D01*
X-1027957Y-427222D01*
Y-234000D01*
X-982137Y-188180D01*
Y-150670D01*
X-981075Y-149608D01*
Y-147701D01*
X-981821Y-146956D01*
Y-129881D01*
X-978526Y-126585D01*
Y-121149D01*
X-977973Y-120557D01*
Y-119969D01*
X-977848Y-119835D01*
G01X-984012Y-119921D02*
X-983033Y-120901D01*
Y-126022D01*
X-986224Y-129213D01*
Y-149515D01*
X-987441Y-150732D01*
G01D02*
Y-150821D01*
X-987277Y-150985D01*
Y-182004D01*
X-1033590Y-228318D01*
Y-427574D01*
X-1034117Y-428100D01*
Y-428454D01*
X-1034463Y-428800D01*
Y-429182D01*
X-1034071Y-429574D01*
Y-429611D01*
G01X-985711Y-150769D02*
Y-150533D01*
X-985514Y-150336D01*
Y-129507D01*
X-982323Y-126317D01*
Y-120607D01*
X-982323Y-119975D01*
X-982097Y-119749D01*
G01X-985711Y-150769D02*
Y-151209D01*
X-986567Y-152065D01*
Y-182298D01*
X-1032880Y-228612D01*
Y-427868D01*
X-1032880Y-429080D01*
X-1032876Y-429084D01*
X-1031924Y-429611D01*
X-1031419D01*
G01X-975739Y-149325D02*
X-975831Y-149234D01*
Y-133716D01*
X-975150Y-133034D01*
Y-119860D01*
X-975325Y-119683D01*
G01X-975739Y-149325D02*
Y-197114D01*
X-1022468Y-243843D01*
Y-423350D01*
G02X-1022681Y-423726I-437J0D01*
G01X-1023147Y-424003D01*
G03X-1023694Y-424764I603J-1012D01*
G01X-1023694Y-424765D01*
G03X-1022722Y-426146I1120J-244D01*
G01X-1022584Y-426164D01*
G02X-1022468Y-426296I-17J-133D01*
G01Y-428234D01*
X-1021918Y-428784D01*
Y-430334D01*
X-1022109Y-430525D01*
X-1022568D01*
X-1022736Y-430358D01*
Y-429890D01*
X-1022820Y-429805D01*
G01X-974520Y-151460D02*
X-974610Y-151371D01*
Y-147719D01*
X-975121Y-147208D01*
Y-134010D01*
X-974440Y-133328D01*
Y-120900D01*
X-973221Y-119686D01*
G01X-974520Y-151460D02*
X-975029Y-151969D01*
Y-197408D01*
X-1021758Y-244137D01*
Y-423351D01*
G02X-1022318Y-424336I-1147J0D01*
G01X-1022783Y-424613D01*
G03X-1022999Y-424909I240J-402D01*
G01X-1023001Y-424916D01*
G03X-1022630Y-425442I426J-93D01*
G01X-1022493Y-425460D01*
G02X-1021758Y-426296I-109J-837D01*
G01Y-427940D01*
X-1021111Y-428587D01*
Y-429175D01*
X-1020481Y-429805D01*
X-1020168D01*
G01X-972063Y-122460D02*
X-971453Y-123009D01*
X-971260Y-123201D01*
Y-148654D01*
X-971319Y-148712D01*
X-971496Y-148889D01*
G01D02*
X-971359Y-149026D01*
Y-201287D01*
X-1016242Y-246170D01*
Y-342304D01*
X-1015357Y-343189D01*
Y-364740D01*
G02X-1015897Y-365280I-540J0D01*
G01X-1016948D01*
G03Y-367780I0J-1250D01*
G01X-1015897D01*
G02X-1015357Y-368320I0J-540D01*
G01Y-368956D01*
G02X-1015897Y-369496I-540J0D01*
G01X-1017516D01*
G03Y-371996I0J-1250D01*
G01X-1015897D01*
G02X-1015357Y-372536I0J-540D01*
G01Y-410269D01*
X-1015357Y-428514D01*
X-1016917Y-430073D01*
G01X-971496Y-148889D02*
X-971603Y-148996D01*
G01X-970304Y-150577D02*
X-970609Y-150272D01*
Y-149006D01*
X-970550Y-148948D01*
Y-123400D01*
X-970058Y-122908D01*
Y-122353D01*
G01X-1014265Y-430073D02*
X-1014647Y-429692D01*
Y-372536D01*
G03X-1015897Y-371286I-1250J0D01*
G01X-1017516D01*
G02Y-370206I0J540D01*
G01X-1015897D01*
G03X-1014647Y-368956I0J1250D01*
G01Y-368320D01*
G03X-1015897Y-367070I-1250J0D01*
G01X-1016948D01*
G02Y-365990I0J540D01*
G01X-1015897D01*
G03X-1014647Y-364740I0J1250D01*
G01Y-342895D01*
X-1015532Y-342010D01*
Y-339777D01*
G02X-1014992Y-339237I540J0D01*
G03Y-338157I-288J540D01*
G02X-1015532Y-337617I0J540D01*
G01Y-246464D01*
X-970649Y-201581D01*
Y-150922D01*
X-970304Y-150577D01*
G01X-994202Y-147597D02*
X-993803Y-147198D01*
Y-146704D01*
X-993802Y-146588D01*
Y-130730D01*
X-987676Y-124604D01*
Y-120862D01*
X-987677Y-120861D01*
X-988264Y-120247D01*
X-988691Y-120237D01*
G01X-1038382Y-429006D02*
Y-428977D01*
X-1038621Y-428738D01*
Y-428383D01*
X-1038170Y-427932D01*
Y-425000D01*
X-1038276D01*
G02Y-422500I0J1250D01*
G03X-1038170Y-422393I0J107D01*
G01Y-221422D01*
X-994092Y-177344D01*
Y-147706D01*
X-994202Y-147597D01*
G01X-992372Y-147141D02*
X-992731Y-147087D01*
X-993092Y-146598D01*
Y-131024D01*
X-986966Y-124898D01*
Y-120640D01*
X-986613Y-120286D01*
Y-119980D01*
X-986712Y-119872D01*
Y-119844D01*
G01X-1036732Y-428847D02*
X-1037460Y-428119D01*
Y-424969D01*
G03X-1038138Y-424290I-678J0D01*
G01X-1038276D01*
G02Y-423210I0J540D01*
G03X-1037460Y-422393I0J817D01*
G01Y-221716D01*
X-993382Y-177638D01*
Y-148207D01*
X-992732Y-147557D01*
X-992502Y-147173D01*
X-992372Y-147141D01*
G54D13*
X-959237Y-575648D03*
G54D32*
G01X-957151Y-522744D02*
X-964221Y-529814D01*
Y-535708D01*
G01X-958807Y-565346D02*
X-957879Y-564417D01*
Y-540600D01*
X-948333Y-531055D01*
Y-529525D01*
G01X-964472Y-565002D02*
X-961959Y-562489D01*
Y-535494D01*
X-960335Y-533871D01*
G01X-948542Y-503096D02*
Y-509482D01*
X-967074Y-528013D01*
Y-563780D01*
G01X-952556Y-180453D02*
Y-191362D01*
X-925592Y-218326D01*
Y-290717D01*
G54D23*
G01X-985044Y-579068D02*
X-985091Y-579020D01*
G01X-983666Y-581101D02*
X-983666Y-581100D01*
G01Y-579105D02*
X-983651Y-579090D01*
G01X-980910Y-579041D02*
X-980916Y-579035D01*
G01X-978154Y-581101D02*
X-978154Y-581100D01*
G01Y-579169D02*
X-978231Y-579092D01*
G01X-974020Y-579085D02*
X-974042Y-579063D01*
G01X-972642Y-581101D02*
X-972598Y-581056D01*
G01Y-579180D02*
X-972706Y-579072D01*
G01X-954648Y-460034D02*
X-954279Y-459666D01*
Y-458704D01*
G01X-971264Y-579093D02*
X-971266Y-579092D01*
G01X-986422Y-578483D02*
X-986456Y-578449D01*
Y-578357D01*
G01X-964374Y-579156D02*
X-964457Y-579072D01*
G01X-967081Y-579173D02*
X-967112Y-579142D01*
Y-579112D01*
G01X-956640Y-582534D02*
X-957204Y-583098D01*
G01D02*
X-988376D01*
X-988514Y-582960D01*
X-988738D01*
X-990181Y-581516D01*
G01X-984765Y-566663D02*
X-985044Y-566942D01*
G01D02*
Y-574486D01*
G01X-980746Y-567193D02*
X-980910Y-567357D01*
G01D02*
Y-574486D01*
G01X-972475Y-567606D02*
X-972642Y-567773D01*
G01D02*
Y-574486D01*
G01X-968508Y-579153D02*
X-968515Y-579146D01*
G01X-969886Y-579124D02*
X-969907Y-579103D01*
G01X-985721Y-309346D02*
X-987174Y-310799D01*
Y-316568D01*
G01X-969584Y-216832D02*
X-970517Y-215900D01*
Y-211935D01*
X-970583Y-211870D01*
Y-211002D01*
X-970517Y-210936D01*
Y-202264D01*
X-970073Y-201820D01*
G01D02*
Y-151677D01*
X-969362Y-150966D01*
Y-150187D01*
X-969776Y-149774D01*
G01D02*
Y-123440D01*
X-969117Y-122782D01*
Y-121963D01*
X-970734Y-120346D01*
X-971159D01*
G01X-981928Y-323402D02*
X-987858Y-317472D01*
Y-310554D01*
X-981412Y-304109D01*
Y-303434D01*
G01X-993748Y-267591D02*
X-991608D01*
X-988429Y-264413D01*
G01X-973721Y-266983D02*
X-971284D01*
X-968583Y-264282D01*
G01X-984287Y-251369D02*
X-982352Y-253304D01*
Y-254048D01*
G54D14*
X-959237Y-579940D03*
G54D24*
G01X-982288Y-579218D02*
X-982222Y-579153D01*
G01X-979532Y-579159D02*
X-979533Y-579158D01*
G01X-976776Y-579130D02*
X-976817Y-579089D01*
G01X-975398Y-579108D02*
X-975440Y-579066D01*
G01X-962996Y-574486D02*
Y-572843D01*
X-962454Y-572300D01*
Y-566810D01*
X-959321Y-563677D01*
Y-538112D01*
X-955189Y-533980D01*
Y-533583D01*
G01X-968508Y-574486D02*
Y-571286D01*
X-968502Y-571280D01*
Y-567816D01*
X-968507Y-567811D01*
Y-523436D01*
X-954648Y-509578D01*
Y-507530D01*
X-954648Y-507529D01*
Y-460034D01*
G01X-965752Y-579071D02*
X-965783Y-579041D01*
G01X-961340Y-119292D02*
X-962174Y-120126D01*
Y-184593D01*
X-960517Y-186250D01*
Y-197938D01*
X-951385Y-207070D01*
Y-298638D01*
X-950004Y-300018D01*
Y-363553D01*
X-940709Y-372848D01*
G01X-988034Y-174649D02*
Y-178400D01*
G01X-985620Y-182038D02*
Y-180272D01*
X-985525Y-180177D01*
Y-175723D01*
G01X-968675Y-119543D02*
X-968264Y-119954D01*
Y-122909D01*
X-969187Y-123832D01*
Y-149530D01*
X-968774Y-149943D01*
Y-151210D01*
X-969442Y-151879D01*
Y-201864D01*
X-963609Y-207697D01*
G54D15*
X-958272Y-577794D03*
G54D25*
G01X-959624Y-145340D02*
X-960792D01*
X-960998Y-145546D01*
G54D16*
X-961618Y-574486D03*
X-962996D03*
X-961618Y-581101D03*
X-962996D03*
X-987800Y-574486D03*
X-986422D03*
X-987800Y-581101D03*
X-986422D03*
X-985044Y-574486D03*
Y-581101D03*
X-983666Y-574486D03*
X-982288D03*
X-980910D03*
X-979532D03*
X-978154D03*
X-976776D03*
X-975398D03*
X-974020D03*
X-972642D03*
X-971264D03*
X-969886D03*
X-968508D03*
X-967130D03*
X-965752D03*
X-964374D03*
X-983666Y-581101D03*
X-982288D03*
X-980910D03*
X-978154D03*
X-979532D03*
X-976776D03*
X-975398D03*
X-974020D03*
X-972642D03*
X-971264D03*
X-969886D03*
X-968508D03*
X-967130D03*
X-965752D03*
X-964374D03*
G54D26*
G01X-992439Y-574594D02*
Y-576501D01*
G01D02*
X-991146Y-577794D01*
G01X-976776Y-569095D02*
Y-574486D01*
G54D17*
G01X-942428Y-353038D02*
Y-361532D01*
X-938528Y-365432D01*
G01X-940709Y-372848D02*
X-935817Y-377740D01*
X-929883D01*
G01X-962609Y-315280D02*
X-957908Y-310579D01*
Y-205378D01*
X-963684Y-199603D01*
Y-187850D01*
X-965509Y-186024D01*
Y-138335D01*
X-967321Y-136523D01*
Y-122520D01*
X-967322Y-122519D01*
Y-120304D01*
X-966366Y-119348D01*
Y-119031D01*
X-964221Y-535708D03*
X-962383Y-578978D03*
X-957151Y-522744D03*
X-955227Y-521629D03*
X-955610Y-523433D03*
X-987977Y-578940D03*
X-985091Y-579020D03*
X-983651Y-579090D03*
X-982222Y-579153D03*
X-980916Y-579035D03*
X-979533Y-579158D03*
X-978231Y-579092D03*
X-976817Y-579089D03*
X-975440Y-579066D03*
X-974042Y-579063D03*
X-972706Y-579072D03*
X-948333Y-529525D03*
X-955189Y-533583D03*
X-954712Y-531276D03*
X-960335Y-533871D03*
X-948542Y-503096D03*
X-965783Y-579041D03*
X-971266Y-579092D03*
X-958953Y-580890D03*
X-957873Y-579919D03*
X-957680Y-581394D03*
X-986456Y-577865D03*
X-964457Y-579072D03*
X-967112Y-579112D03*
X-990683Y-582664D03*
X-956640Y-582534D03*
X-991837Y-582697D03*
X-990510Y-567389D03*
X-990025Y-564379D03*
X-990607Y-558942D03*
X-985170Y-563149D03*
X-984911Y-556254D03*
X-990607Y-553505D03*
X-996813Y-538813D03*
X-992886Y-536976D03*
X-998593Y-531422D03*
X-988954Y-534791D03*
X-988735Y-541563D03*
X-1016175Y-519342D03*
X-1008983Y-526591D03*
X-1003372Y-526708D03*
X-1002935Y-521247D03*
X-995507Y-528019D03*
X-994312Y-522153D03*
X-988584Y-528075D03*
X-1018882Y-510980D03*
X-1014950Y-509451D03*
X-1011862Y-518476D03*
X-1007304Y-516004D03*
X-1001206Y-515453D03*
X-1039617Y-498275D03*
X-1033634Y-496521D03*
X-1027712Y-496618D03*
X-1020193Y-503116D03*
X-1010527Y-506424D03*
X-1008884Y-498000D03*
X-1000702Y-498831D03*
X-986748Y-518218D03*
X-996198Y-509026D03*
X-991020Y-514010D03*
X-983770Y-520936D03*
X-984353Y-506567D03*
X-990308Y-501194D03*
X-979563Y-512522D03*
X-964487Y-505518D03*
X-962448Y-496562D03*
X-966941Y-504473D03*
X-965142Y-510761D03*
X-968430Y-509392D03*
X-969336Y-516642D03*
X-996333Y-497569D03*
X-968515Y-579146D03*
X-969907Y-579103D03*
X-954279Y-458704D03*
X-963571Y-119038D03*
X-955141Y-314979D03*
X-942428Y-353038D03*
X-938528Y-365432D03*
X-982303Y-148498D03*
X-979598Y-119898D03*
X-1028637Y-429611D03*
X-1028179Y-446212D03*
X-977848Y-119835D03*
X-1025985Y-429611D03*
X-1025527Y-446212D03*
X-984012Y-119921D03*
X-1034071Y-429611D03*
X-987441Y-150732D03*
X-1031651Y-464689D03*
X-1031419Y-429611D03*
X-982097Y-119749D03*
X-985711Y-150769D03*
X-1028999Y-464689D03*
X-975325Y-119683D03*
X-1022820Y-429805D03*
X-975739Y-149325D03*
X-1022433Y-439472D03*
X-973221Y-119686D03*
X-1020168Y-429805D03*
X-974520Y-151460D03*
X-1019781Y-439472D03*
X-972063Y-122460D03*
X-971603Y-148996D03*
X-1016917Y-430073D03*
X-1016746Y-443343D03*
X-970058Y-122353D03*
X-970304Y-150577D03*
X-1014265Y-430073D03*
X-1014094Y-443343D03*
X-1038382Y-429006D03*
X-994202Y-147597D03*
X-988691Y-120237D03*
X-1038433Y-443527D03*
X-1036732Y-428847D03*
X-992372Y-147141D03*
X-986712Y-119844D03*
X-1035781Y-443527D03*
X-914026Y-283126D03*
Y-314007D03*
X-919298Y-286850D03*
X-928613Y-315645D03*
X-909701Y-284575D03*
X-920277Y-270610D03*
Y-262736D03*
X-909970Y-272628D03*
Y-264754D03*
X-920277Y-254862D03*
X-909970Y-256880D03*
X-920277Y-246988D03*
X-909970Y-249006D03*
X-947095Y-200108D03*
X-944529Y-203206D03*
X-940101Y-207411D03*
X-950005Y-197089D03*
X-961151Y-149006D03*
X-960998Y-145546D03*
X-942102Y-312771D03*
X-929883Y-377740D03*
X-961340Y-119292D03*
X-908781Y-478867D03*
X-1007322Y-495453D03*
X-1039853Y-488479D03*
X-1033518Y-491319D03*
X-1027620Y-489572D03*
X-1022765Y-489142D03*
X-1017711Y-494967D03*
X-1017790Y-489134D03*
X-1011594Y-490598D03*
X-1008615Y-493285D03*
X-1007322Y-487579D03*
X-910331Y-489204D03*
X-1039416Y-480833D03*
X-1033955Y-483236D03*
X-1027183Y-480833D03*
X-1017790Y-480178D03*
X-1007322Y-479705D03*
X-1009488Y-482144D03*
X-1009052Y-473624D03*
X-1039198Y-471658D03*
X-1033154Y-470888D03*
X-1022668Y-471374D03*
X-1007322Y-471830D03*
X-1000702Y-483083D03*
Y-490957D03*
X-962011Y-478503D03*
X-962303Y-490736D03*
X-996333Y-481821D03*
Y-489695D03*
X-984876Y-482872D03*
X-984806Y-494634D03*
X-985022Y-488843D03*
X-980895Y-482763D03*
Y-474889D03*
Y-490637D03*
X-977886Y-470520D03*
Y-478394D03*
Y-486268D03*
X-966817Y-468600D03*
X-966672Y-476318D03*
X-967254Y-486950D03*
Y-492921D03*
X-958370Y-471949D03*
X-958516Y-482290D03*
X-958225Y-490008D03*
X-932302Y-471804D03*
Y-483600D03*
Y-490445D03*
X-969584Y-216832D03*
X-971159Y-120346D03*
X-969536Y-211436D03*
X-1017771Y-361790D03*
X-1018664Y-463575D03*
X-1011892Y-464886D03*
X-910310Y-465760D03*
X-1038980Y-453527D03*
X-1022668Y-457878D03*
X-1018664Y-454400D03*
X-909955Y-452178D03*
X-910080Y-445927D03*
X-909830Y-439988D03*
X-909580Y-433173D03*
X-1025172Y-420264D03*
X-1030415Y-425119D03*
Y-417245D03*
X-1017729Y-420976D03*
X-909580Y-425299D03*
Y-417425D03*
X-1039865Y-408594D03*
X-1035399Y-409177D03*
X-1025172Y-412390D03*
X-1030415Y-409371D03*
X-1025172Y-404516D03*
X-1017729Y-413102D03*
Y-405228D03*
X-909580Y-409551D03*
X-1039865Y-400720D03*
Y-392846D03*
X-1035399Y-401303D03*
X-1025172Y-396642D03*
X-1030415Y-401497D03*
X-1035399Y-393429D03*
X-1030415Y-393623D03*
X-1017729Y-397354D03*
X-909580Y-401677D03*
Y-393803D03*
X-1039865Y-384972D03*
X-1035399Y-385555D03*
X-1025172Y-388768D03*
X-1030415Y-385749D03*
X-1025172Y-380894D03*
X-1017729Y-389480D03*
Y-381606D03*
X-909580Y-385929D03*
X-1039865Y-377098D03*
Y-369224D03*
X-1035399Y-377680D03*
X-1025172Y-373020D03*
X-1030415Y-377875D03*
X-1035399Y-369806D03*
X-1030415Y-370001D03*
X-1012783Y-374719D03*
X-1017729Y-373732D03*
X-909580Y-378055D03*
Y-370181D03*
X-1039865Y-361350D03*
X-1035399Y-361932D03*
X-1025172Y-365146D03*
X-1030415Y-362127D03*
X-1025172Y-357272D03*
X-1012783Y-366845D03*
Y-358971D03*
X-1017729Y-357984D03*
X-909580Y-362307D03*
X-1039865Y-353476D03*
Y-345602D03*
X-1035399Y-354058D03*
X-1025172Y-349398D03*
X-1030415Y-354253D03*
X-1035399Y-346184D03*
X-1030415Y-346379D03*
X-1012783Y-351097D03*
X-1017729Y-350110D03*
X-909701Y-355441D03*
Y-347567D03*
X-1039865Y-337728D03*
X-1035399Y-338310D03*
X-1025172Y-341524D03*
X-1030415Y-338505D03*
X-1025172Y-333650D03*
X-1017729Y-342236D03*
X-1012346Y-334815D03*
X-1017729Y-334362D03*
X-909701Y-339693D03*
X-1039865Y-329854D03*
Y-321980D03*
X-1035399Y-330436D03*
X-1025172Y-325776D03*
X-1030415Y-330630D03*
X-1035399Y-322562D03*
X-1030415Y-322756D03*
X-1012346Y-326941D03*
X-1017729Y-326488D03*
X-909701Y-331819D03*
Y-323945D03*
X-1039865Y-314106D03*
X-1035399Y-314688D03*
X-1025172Y-317902D03*
X-1030415Y-314882D03*
X-1025172Y-310028D03*
X-1012346Y-319067D03*
X-1017729Y-318614D03*
X-1012346Y-311193D03*
X-1017729Y-310740D03*
X-909701Y-316071D03*
X-1039865Y-306232D03*
Y-298358D03*
X-1035399Y-306814D03*
X-1025172Y-302154D03*
X-1035399Y-298940D03*
X-1030415Y-299134D03*
X-1017729Y-302866D03*
X-909701Y-308197D03*
Y-300323D03*
X-1039865Y-290484D03*
X-1035399Y-291066D03*
X-1025172Y-294280D03*
X-1030415Y-291260D03*
X-1025172Y-286406D03*
X-1012201Y-294036D03*
X-1017729Y-294992D03*
X-1019046Y-287184D03*
X-909701Y-292449D03*
X-1039865Y-282610D03*
Y-274736D03*
X-1035399Y-283192D03*
X-1030415Y-283386D03*
X-1035399Y-275318D03*
X-1025172Y-278532D03*
X-1030415Y-275512D03*
X-1017729Y-279244D03*
X-1039865Y-266862D03*
X-1035399Y-267444D03*
X-1025172Y-270658D03*
X-1030415Y-267638D03*
X-1025172Y-262784D03*
X-1017729Y-271370D03*
Y-263496D03*
X-1039865Y-258988D03*
Y-251114D03*
X-1035399Y-259570D03*
Y-251696D03*
X-1025172Y-254910D03*
X-1030415Y-251890D03*
Y-259764D03*
X-1017729Y-255622D03*
X-1039865Y-243240D03*
X-1030415Y-244016D03*
X-1035399Y-243822D03*
X-1025172Y-247036D03*
Y-239162D03*
X-1013566Y-240425D03*
X-1017729Y-247748D03*
X-1016382Y-243047D03*
X-1039865Y-227492D03*
Y-235366D03*
X-1035399Y-235948D03*
Y-228074D03*
X-1030415Y-228268D03*
Y-236142D03*
X-1017729Y-232000D03*
X-1030415Y-220394D03*
X-1025172Y-223414D03*
X-1014295Y-226153D03*
X-1017729Y-216252D03*
X-1025172Y-215540D03*
X-1017729Y-208378D03*
X-1014440Y-215085D03*
X-1014926Y-204502D03*
X-942564Y-242899D03*
Y-235025D03*
X-961866Y-409161D03*
Y-424909D03*
Y-417035D03*
X-962448Y-441366D03*
Y-457968D03*
X-962303Y-450686D03*
X-962448Y-461464D03*
X-991284Y-442094D03*
Y-449376D03*
X-987643Y-442531D03*
X-987498Y-451415D03*
X-983129Y-448793D03*
X-972903Y-353403D03*
Y-345529D03*
X-978075Y-352955D03*
Y-345081D03*
X-972903Y-361277D03*
X-978075Y-360829D03*
X-963759Y-383376D03*
Y-399124D03*
Y-391250D03*
X-966526Y-411782D03*
Y-419656D03*
Y-427531D03*
X-966963Y-443987D03*
X-966817Y-459716D03*
X-958662Y-444133D03*
X-957788Y-453454D03*
X-958079Y-462483D03*
X-932010Y-459716D03*
X-932448Y-450395D03*
X-995507Y-444650D03*
X-995798Y-438791D03*
X-995507Y-452524D03*
X-973953Y-440929D03*
X-974390Y-447337D03*
X-971040Y-411782D03*
Y-419656D03*
Y-427531D03*
X-926766Y-373637D03*
X-930263Y-385442D03*
X-924874Y-406976D03*
X-930700Y-405957D03*
X-924874Y-414850D03*
Y-422724D03*
X-930700Y-413831D03*
Y-421705D03*
X-999440Y-213774D03*
X-999731Y-244940D03*
X-996068Y-222612D03*
X-995216Y-240280D03*
X-991370Y-219304D03*
X-990556Y-205764D03*
X-990993Y-233872D03*
X-990556Y-242853D03*
X-979924Y-207461D03*
X-977449Y-223386D03*
X-978177Y-233726D03*
X-977740Y-244358D03*
X-969584Y-229551D03*
X-969779Y-244600D03*
X-969196Y-239357D03*
X-985878Y-212688D03*
X-991830Y-144187D03*
X-996181Y-153643D03*
X-996096Y-143200D03*
X-996080Y-134619D03*
X-996272Y-127814D03*
X-996016Y-120302D03*
X-992549Y-121458D03*
X-994667Y-118633D03*
X-983946Y-118119D03*
X-980914Y-122175D03*
X-985089Y-121725D03*
X-977012Y-118312D03*
X-971041Y-118505D03*
X-976902Y-122066D03*
X-955440Y-119724D03*
X-958651Y-118440D03*
X-953514Y-118312D03*
X-991767Y-142091D03*
X-929900Y-269920D03*
Y-262046D03*
Y-254172D03*
Y-246298D03*
X-968275Y-205465D03*
X-963609Y-207697D03*
X-968675Y-119543D03*
X-954393Y-139833D03*
X-925592Y-290717D03*
X-981412Y-303434D03*
X-981928Y-323402D03*
X-993748Y-267591D03*
X-988429Y-264413D03*
X-973721Y-266983D03*
X-968583Y-264282D03*
X-982352Y-254048D03*
X-984287Y-251369D03*
X-997865Y-266100D03*
X-1002505Y-276788D03*
X-966366Y-119031D03*
X-962609Y-315280D03*
X-963481Y-122607D03*
X-950946Y-300409D03*
X-941228Y-350300D03*
X-936822Y-364351D03*
X-1006118Y-240609D03*
X-1008290Y-286937D03*
G54D27*
G01X-961618Y-569320D02*
Y-568644D01*
X-958807Y-565834D01*
Y-565346D01*
G01X-967074Y-563780D02*
X-967671Y-564377D01*
Y-567465D01*
X-967130Y-568006D01*
G01X-959237Y-575648D02*
X-958272Y-576612D01*
Y-577705D01*
G01Y-577794D02*
Y-577705D01*
G01X-959237Y-576740D02*
X-958272Y-577705D01*
G01X-986456Y-578357D02*
Y-577865D01*
G01X-991146Y-577658D02*
X-992678Y-576126D01*
G01X-993214Y-565125D02*
Y-550445D01*
G03X-994136Y-548218I-3150J0D01*
G01X-1040756Y-501598D01*
G02X-1041563Y-499649I1948J1948D01*
G01Y-223038D01*
G02X-1040756Y-221090I2756J0D01*
G01X-998413Y-178746D01*
G03X-996913Y-175127I-3619J3619D01*
G01Y-117989D01*
G02X-996126Y-117202I787J0D01*
G01X-953626D01*
G02X-952839Y-117989I0J-787D01*
G01Y-175127D01*
G03X-951340Y-178746I5119J1D01*
G01X-909008Y-221078D01*
G02X-908201Y-223027I-1948J-1948D01*
G01Y-499798D01*
G02X-909008Y-501746I-2755J0D01*
G01X-955284Y-548022D01*
G03X-956207Y-550249I2227J-2227D01*
G01Y-582052D01*
X-956212Y-582106D01*
X-956640Y-582534D01*
G01X-955141Y-314979D02*
X-953476Y-313314D01*
Y-208065D01*
X-962469Y-199072D01*
Y-187116D01*
X-964104Y-185481D01*
Y-123664D01*
X-964669Y-123099D01*
Y-122115D01*
X-963571Y-121017D01*
Y-119038D01*
G01X-954393Y-139833D02*
X-953971Y-140255D01*
Y-179038D01*
X-952556Y-180453D01*
G54D18*
X-1004888Y-267436D03*
X-944889D03*
X-982124Y-313128D03*
X-922124D03*
G54D28*
G01X-914026Y-283126D02*
Y-314007D01*
G01X-928613Y-315645D02*
X-929075Y-315184D01*
Y-309527D01*
X-920290Y-300742D01*
Y-287841D01*
X-919298Y-286850D01*
G01X-956676Y-195912D02*
Y-148288D01*
X-959624Y-145340D01*
G01X-943848Y-208941D02*
X-949814Y-202976D01*
Y-202775D01*
X-956676Y-195912D01*
G54D19*
G01X-987800Y-581101D02*
Y-579117D01*
X-987977Y-578940D01*
G01X-985044Y-581101D02*
Y-579068D01*
G01X-983666Y-581100D02*
Y-579105D01*
G01X-982288Y-581101D02*
Y-579218D01*
G01X-980910Y-581101D02*
Y-579041D01*
G01X-979532Y-581101D02*
Y-579159D01*
G01X-978154Y-581100D02*
Y-579169D01*
G01X-976776Y-581101D02*
Y-579130D01*
G01X-975398Y-581101D02*
Y-579108D01*
G01X-974020Y-581101D02*
Y-579085D01*
G01X-972598Y-581056D02*
Y-579180D01*
G01X-961618Y-574486D02*
Y-569320D01*
G01X-967130Y-568006D02*
G01X-967130Y-568006D02*
Y-574486D01*
G01X-965752Y-581101D02*
Y-579071D01*
G01X-971264Y-581101D02*
Y-579093D01*
G01X-986422Y-581101D02*
Y-578483D01*
G01X-964374Y-581101D02*
Y-579156D01*
G01X-967130Y-581101D02*
X-967081Y-581052D01*
Y-579173D01*
G01X-968508Y-581101D02*
Y-579153D01*
G01X-969886Y-581101D02*
Y-579124D01*
G01X-910385Y-636422D02*
Y-626422D01*
G01X-905135D02*
Y-636422D01*
G01Y-631422D02*
X-910385D01*
G01X-900635Y-636422D02*
Y-626422D01*
X-894885Y-636422D01*
Y-626422D01*
G01X-887760D02*
X-888760Y-626755D01*
X-889510Y-627589D01*
X-890010Y-628588D01*
X-890385Y-629922D01*
X-890510Y-631422D01*
X-890385Y-632922D01*
X-890010Y-634256D01*
X-889510Y-635256D01*
X-888760Y-636089D01*
X-887760Y-636422D01*
X-886760Y-636089D01*
X-886010Y-635256D01*
X-885510Y-634256D01*
X-885135Y-632922D01*
X-885010Y-631422D01*
X-885135Y-629922D01*
X-885510Y-628588D01*
X-886010Y-627589D01*
X-886760Y-626755D01*
X-887760Y-626422D01*
G01X-880260Y-636422D02*
Y-626422D01*
X-877135D01*
X-876135Y-626922D01*
X-875510Y-627589D01*
X-875260Y-628922D01*
X-875510Y-630255D01*
X-876260Y-631089D01*
X-877135Y-631589D01*
X-880260D01*
G01X-877135D02*
X-875260Y-636422D01*
G01X-870635D02*
Y-626422D01*
X-864885Y-636422D01*
Y-626422D01*
G01X-860885Y-636422D02*
X-857760Y-626422D01*
X-854635Y-636422D01*
G01X-855760Y-632922D02*
X-859760D01*
G01X-850260Y-626422D02*
Y-636422D01*
X-845260D01*
G01X-837760Y-626422D02*
Y-636422D01*
G01X-840635Y-626422D02*
X-834885D01*
G01X-830135Y-636422D02*
Y-626422D01*
X-825385D01*
G01X-827135Y-631255D02*
X-830135D01*
G01X-810885Y-626422D02*
X-807760Y-636422D01*
X-804635Y-626422D01*
G01X-799635Y-631922D02*
X-795635D01*
X-796010Y-630755D01*
X-796635Y-630089D01*
X-797510Y-629756D01*
X-798385Y-629922D01*
X-799135Y-630422D01*
X-799635Y-631589D01*
X-799885Y-632589D01*
Y-633589D01*
X-799635Y-634589D01*
X-799010Y-635589D01*
X-798260Y-636255D01*
X-797385Y-636422D01*
X-796510Y-636089D01*
X-795635Y-635089D01*
G01X-789510Y-636422D02*
Y-629756D01*
G01Y-631089D02*
X-788885Y-630422D01*
X-788260Y-629922D01*
X-787385Y-629756D01*
X-786760Y-629922D01*
X-786010Y-630422D01*
G01X-777760Y-636755D02*
X-778010Y-636589D01*
Y-636255D01*
X-777760Y-636089D01*
X-777510Y-636255D01*
Y-636589D01*
X-777760Y-636755D01*
G01X-770885Y-636422D02*
X-767760Y-626422D01*
X-764635Y-636422D01*
G01X-765760Y-632922D02*
X-769760D01*
G01X-750885Y-636422D02*
X-747760Y-626422D01*
X-744635Y-636422D01*
G01X-745760Y-632922D02*
X-749760D01*
G01X-740260Y-636422D02*
Y-626422D01*
X-737135D01*
X-736135Y-626922D01*
X-735510Y-627589D01*
X-735260Y-628922D01*
X-735510Y-630255D01*
X-736260Y-631089D01*
X-737135Y-631589D01*
X-740260D01*
G01X-737135D02*
X-735260Y-636422D01*
G01X-727760Y-626422D02*
Y-636422D01*
G01X-730635Y-626422D02*
X-724885D01*
G01X-721510D02*
X-719760Y-636422D01*
X-717760Y-626422D01*
X-715760Y-636422D01*
X-714010Y-626422D01*
G01X-707760Y-636422D02*
X-708760Y-636255D01*
X-709635Y-635589D01*
X-710385Y-634589D01*
X-710885Y-633422D01*
X-711135Y-632089D01*
Y-630755D01*
X-710885Y-629422D01*
X-710385Y-628255D01*
X-709635Y-627256D01*
X-708760Y-626589D01*
X-707760Y-626422D01*
X-706760Y-626589D01*
X-705885Y-627256D01*
X-705135Y-628255D01*
X-704635Y-629422D01*
X-704385Y-630755D01*
Y-632089D01*
X-704635Y-633422D01*
X-705135Y-634589D01*
X-705885Y-635589D01*
X-706760Y-636255D01*
X-707760Y-636422D01*
G01X-700260D02*
Y-626422D01*
X-697135D01*
X-696135Y-626922D01*
X-695510Y-627589D01*
X-695260Y-628922D01*
X-695510Y-630255D01*
X-696260Y-631089D01*
X-697135Y-631589D01*
X-700260D01*
G01X-697135D02*
X-695260Y-636422D01*
G01X-690510D02*
Y-626422D01*
G01X-685760D02*
X-690510Y-632589D01*
G01X-685010Y-636422D02*
X-688385Y-629756D01*
G01X-667760Y-626422D02*
Y-636422D01*
G01X-670635Y-626422D02*
X-664885D01*
G01X-657760Y-636422D02*
X-658760Y-636255D01*
X-659635Y-635589D01*
X-660385Y-634589D01*
X-660885Y-633422D01*
X-661135Y-632089D01*
Y-630755D01*
X-660885Y-629422D01*
X-660385Y-628255D01*
X-659635Y-627256D01*
X-658760Y-626589D01*
X-657760Y-626422D01*
X-656760Y-626589D01*
X-655885Y-627256D01*
X-655135Y-628255D01*
X-654635Y-629422D01*
X-654385Y-630755D01*
Y-632089D01*
X-654635Y-633422D01*
X-655135Y-634589D01*
X-655885Y-635589D01*
X-656760Y-636255D01*
X-657760Y-636422D01*
G01X-650260D02*
Y-626422D01*
X-647260D01*
X-646260Y-626922D01*
X-645510Y-628089D01*
X-645260Y-629422D01*
X-645510Y-630755D01*
X-646135Y-631755D01*
X-647260Y-632256D01*
X-650260D01*
G54D29*
G01X-902985Y-514592D02*
G01D02*
G01X-1051089Y-539360D02*
X-1051088Y-539360D01*
G01X-1051089Y-539360D02*
X-1051088Y-539360D01*
G01X-951658Y-136283D02*
Y-117989D01*
G03X-953626Y-116021I-1968J0D01*
G01X-996126D01*
G03X-998095Y-117989I0J-1969D01*
G01Y-175127D01*
G02X-999248Y-177911I-3937J0D01*
G01X-1041592Y-220255D01*
G03X-1042745Y-223038I2784J-2784D01*
G01Y-499649D01*
G03X-1041592Y-502433I3937J0D01*
G01X-994972Y-549053D01*
G02X-994395Y-550445I-1392J-1392D01*
G01Y-582063D01*
G03X-992427Y-584032I1968J0D01*
G01X-956994D01*
G03X-955025Y-582063I0J1968D01*
G01Y-550249D01*
G02X-954449Y-548858I1969J0D01*
G01X-908173Y-502582D01*
G03X-907020Y-499798I-2784J2784D01*
G01Y-223027D01*
G03X-908173Y-220243I-3937J0D01*
G01X-950505Y-177911D01*
G02X-951658Y-175127I2784J2784D01*
G01Y-136283D01*
G01X-1004888Y-271334D02*
G02Y-263538I0J3898D01*
G02Y-271334I0J-3898D01*
G01X-944889D02*
G02Y-263538I0J3898D01*
G02Y-271334I0J-3898D01*
G01X-982124Y-317026D02*
G02Y-309230I0J3898D01*
G02Y-317026I0J-3898D01*
G01X-922124D02*
G02Y-309230I0J3898D01*
G02Y-317026I0J-3898D01*
M02*
