G04 ================== begin FILE IDENTIFICATION RECORD ==================*
G04 Layout Name:  E:/rena/ZJfpc/HN0RNALTF.brd*
G04 Film Name:    coverlaytop*
G04 File Format:  Gerber RS274X*
G04 File Origin:  Cadence Allegro 17.2-S053*
G04 Origin Date:  Mon Mar 08 14:33:47 2021*
G04 *
G04 Layer:  RIGID FLEX/COVERLAY_TOP*
G04 Layer:  VIA CLASS/SOLDERMASK_TOP*
G04 Layer:  PIN/SOLDERMASK_TOP*
G04 Layer:  PACKAGE GEOMETRY/SOLDERMASK_TOP*
G04 Layer:  BOARD GEOMETRY/OUTLINE*
G04 Layer:  BOARD GEOMETRY/SOLDERMASK_TOP*
G04 *
G04 Offset:    (0.000 0.000)*
G04 Mirror:    No*
G04 Mode:      Positive*
G04 Rotation:  0*
G04 FullContactRelief:  No*
G04 UndefLineWidth:     6.000*
G04 ================== end FILE IDENTIFICATION RECORD ====================*
%FSLAX25Y25*MOIN*%
%IR0*IPPOS*OFA0.00000B0.00000*MIA0B0*SFA1.00000B1.00000*%
%AMMACRO15*
4,1,6,-.00399,-.01717,
-.00851,-.01265,
-.00851,.01258,
-.00392,.01717,
.00851,.01717,
.00851,-.01717,
-.00399,-.01717,
0.0*
%
%ADD15MACRO15*%
%AMMACRO10*
4,1,6,.00399,-.01717,
-.00851,-.01717,
-.00851,.01717,
.00392,.01717,
.00851,.01258,
.00851,-.01265,
.00399,-.01717,
0.0*
%
%ADD10MACRO10*%
%AMMACRO14*
4,1,5,-.00989,-.00851,
-.00989,.00851,
.00537,.00851,
.00989,.00401,
.00989,-.00851,
-.00989,-.00851,
0.0*
%
%ADD14MACRO14*%
%AMMACRO13*
4,1,5,.00537,-.00851,
-.00989,-.00851,
-.00989,.00851,
.00989,.00851,
.00989,-.00401,
.00537,-.00851,
0.0*
%
%ADD13MACRO13*%
%ADD16R,.011X.017*%
%ADD17C,.081*%
%AMMACRO11*
4,1,5,.00989,.00851,
.00989,-.00851,
-.00537,-.00851,
-.00989,-.00401,
-.00989,.00851,
.00989,.00851,
0.0*
%
%ADD11MACRO11*%
%AMMACRO12*
4,1,5,-.00537,.00851,
.00989,.00851,
.00989,-.00851,
-.00989,-.00851,
-.00989,.00401,
-.00537,.00851,
0.0*
%
%ADD12MACRO12*%
%ADD18C,.0004*%
%ADD19C,.006*%
G75*
%LPD*%
G75*
G36*
G01X-955027Y-582533D02*
Y-573014D01*
X-994394D01*
Y-582533D01*
X-955027D01*
G37*
G54D10*
X-991146Y-577794D03*
G54D11*
X-990181Y-575648D03*
G54D12*
Y-579940D03*
G54D13*
X-959237Y-575648D03*
G54D14*
Y-579940D03*
G54D15*
X-958272Y-577794D03*
G54D16*
X-961618Y-574486D03*
X-962996D03*
X-961618Y-581101D03*
X-962996D03*
X-987800Y-574486D03*
X-986422D03*
X-987800Y-581101D03*
X-986422D03*
X-985044Y-574486D03*
Y-581101D03*
X-983666Y-574486D03*
X-982288D03*
X-980910D03*
X-979532D03*
X-978154D03*
X-976776D03*
X-975398D03*
X-974020D03*
X-972642D03*
X-971264D03*
X-969886D03*
X-968508D03*
X-967130D03*
X-965752D03*
X-964374D03*
X-983666Y-581101D03*
X-982288D03*
X-980910D03*
X-978154D03*
X-979532D03*
X-976776D03*
X-975398D03*
X-974020D03*
X-972642D03*
X-971264D03*
X-969886D03*
X-968508D03*
X-967130D03*
X-965752D03*
X-964374D03*
G54D17*
X-1004888Y-267436D03*
X-944889D03*
X-982124Y-313128D03*
X-922124D03*
G54D18*
G01X-902985Y-514592D02*
G01D02*
G01X-1051089Y-539360D02*
X-1051088Y-539360D01*
G01X-1051089Y-539360D02*
X-1051088Y-539360D01*
G01X-951658Y-136283D02*
Y-117989D01*
G03X-953626Y-116021I-1968J0D01*
G01X-996126D01*
G03X-998095Y-117989I0J-1969D01*
G01Y-175127D01*
G02X-999248Y-177911I-3937J0D01*
G01X-1041592Y-220255D01*
G03X-1042745Y-223038I2784J-2784D01*
G01Y-499649D01*
G03X-1041592Y-502433I3937J0D01*
G01X-994972Y-549053D01*
G02X-994395Y-550445I-1392J-1392D01*
G01Y-582063D01*
G03X-992427Y-584032I1968J0D01*
G01X-956994D01*
G03X-955025Y-582063I0J1968D01*
G01Y-550249D01*
G02X-954449Y-548858I1969J0D01*
G01X-908173Y-502582D01*
G03X-907020Y-499798I-2784J2784D01*
G01Y-223027D01*
G03X-908173Y-220243I-3937J0D01*
G01X-950505Y-177911D01*
G02X-951658Y-175127I2784J2784D01*
G01Y-136283D01*
G01X-1004888Y-271334D02*
G02Y-263538I0J3898D01*
G02Y-271334I0J-3898D01*
G01X-944889D02*
G02Y-263538I0J3898D01*
G02Y-271334I0J-3898D01*
G01X-982124Y-317026D02*
G02Y-309230I0J3898D01*
G02Y-317026I0J-3898D01*
G01X-922124D02*
G02Y-309230I0J3898D01*
G02Y-317026I0J-3898D01*
G54D19*
G01X-910385Y-660044D02*
Y-650044D01*
G01X-905135D02*
Y-660044D01*
G01Y-655044D02*
X-910385D01*
G01X-900635Y-660044D02*
Y-650044D01*
X-894885Y-660044D01*
Y-650044D01*
G01X-887760D02*
X-888760Y-650377D01*
X-889510Y-651211D01*
X-890010Y-652211D01*
X-890385Y-653544D01*
X-890510Y-655044D01*
X-890385Y-656544D01*
X-890010Y-657878D01*
X-889510Y-658878D01*
X-888760Y-659711D01*
X-887760Y-660044D01*
X-886760Y-659711D01*
X-886010Y-658878D01*
X-885510Y-657878D01*
X-885135Y-656544D01*
X-885010Y-655044D01*
X-885135Y-653544D01*
X-885510Y-652211D01*
X-886010Y-651211D01*
X-886760Y-650377D01*
X-887760Y-650044D01*
G01X-880260Y-660044D02*
Y-650044D01*
X-877135D01*
X-876135Y-650544D01*
X-875510Y-651211D01*
X-875260Y-652544D01*
X-875510Y-653877D01*
X-876260Y-654711D01*
X-877135Y-655211D01*
X-880260D01*
G01X-877135D02*
X-875260Y-660044D01*
G01X-870635D02*
Y-650044D01*
X-864885Y-660044D01*
Y-650044D01*
G01X-860885Y-660044D02*
X-857760Y-650044D01*
X-854635Y-660044D01*
G01X-855760Y-656544D02*
X-859760D01*
G01X-850260Y-650044D02*
Y-660044D01*
X-845260D01*
G01X-837760Y-650044D02*
Y-660044D01*
G01X-840635Y-650044D02*
X-834885D01*
G01X-830135Y-660044D02*
Y-650044D01*
X-825385D01*
G01X-827135Y-654877D02*
X-830135D01*
G01X-810885Y-650044D02*
X-807760Y-660044D01*
X-804635Y-650044D01*
G01X-799635Y-655544D02*
X-795635D01*
X-796010Y-654377D01*
X-796635Y-653711D01*
X-797510Y-653378D01*
X-798385Y-653544D01*
X-799135Y-654044D01*
X-799635Y-655211D01*
X-799885Y-656211D01*
Y-657211D01*
X-799635Y-658211D01*
X-799010Y-659211D01*
X-798260Y-659878D01*
X-797385Y-660044D01*
X-796510Y-659711D01*
X-795635Y-658711D01*
G01X-789510Y-660044D02*
Y-653378D01*
G01Y-654711D02*
X-788885Y-654044D01*
X-788260Y-653544D01*
X-787385Y-653378D01*
X-786760Y-653544D01*
X-786010Y-654044D01*
G01X-777760Y-660377D02*
X-778010Y-660211D01*
Y-659878D01*
X-777760Y-659711D01*
X-777510Y-659878D01*
Y-660211D01*
X-777760Y-660377D01*
G01X-770885Y-660044D02*
X-767760Y-650044D01*
X-764635Y-660044D01*
G01X-765760Y-656544D02*
X-769760D01*
G01X-750385Y-658711D02*
X-749385Y-659544D01*
X-748260Y-660044D01*
X-747260D01*
X-746260Y-659544D01*
X-745510Y-658711D01*
X-745135Y-657544D01*
X-745385Y-656378D01*
X-746010Y-655378D01*
X-747135Y-654711D01*
X-748635Y-654377D01*
X-749510Y-653711D01*
X-749885Y-652544D01*
X-749635Y-651378D01*
X-749010Y-650544D01*
X-748135Y-650044D01*
X-747260D01*
X-746385Y-650377D01*
X-745635Y-651211D01*
G01X-737760Y-660044D02*
X-738760Y-659878D01*
X-739635Y-659211D01*
X-740385Y-658211D01*
X-740885Y-657044D01*
X-741135Y-655711D01*
Y-654377D01*
X-740885Y-653044D01*
X-740385Y-651877D01*
X-739635Y-650878D01*
X-738760Y-650211D01*
X-737760Y-650044D01*
X-736760Y-650211D01*
X-735885Y-650878D01*
X-735135Y-651877D01*
X-734635Y-653044D01*
X-734385Y-654377D01*
Y-655711D01*
X-734635Y-657044D01*
X-735135Y-658211D01*
X-735885Y-659211D01*
X-736760Y-659878D01*
X-737760Y-660044D01*
G01X-730260Y-650044D02*
Y-660044D01*
X-725260D01*
G01X-720510D02*
Y-650044D01*
X-718010D01*
X-717010Y-650544D01*
X-716260Y-651211D01*
X-715635Y-652211D01*
X-715135Y-653378D01*
X-715010Y-655044D01*
X-715135Y-656711D01*
X-715635Y-657878D01*
X-716260Y-658878D01*
X-717010Y-659544D01*
X-718010Y-660044D01*
X-720510D01*
G01X-711010D02*
Y-650044D01*
X-707760Y-658378D01*
X-704510Y-650044D01*
Y-660044D01*
G01X-700885D02*
X-697760Y-650044D01*
X-694635Y-660044D01*
G01X-695760Y-656544D02*
X-699760D01*
G01X-690385Y-658711D02*
X-689385Y-659544D01*
X-688260Y-660044D01*
X-687260D01*
X-686260Y-659544D01*
X-685510Y-658711D01*
X-685135Y-657544D01*
X-685385Y-656378D01*
X-686010Y-655378D01*
X-687135Y-654711D01*
X-688635Y-654377D01*
X-689510Y-653711D01*
X-689885Y-652544D01*
X-689635Y-651378D01*
X-689010Y-650544D01*
X-688135Y-650044D01*
X-687260D01*
X-686385Y-650377D01*
X-685635Y-651211D01*
G01X-680510Y-660044D02*
Y-650044D01*
G01X-675760D02*
X-680510Y-656211D01*
G01X-675010Y-660044D02*
X-678385Y-653378D01*
G01X-657760Y-650044D02*
Y-660044D01*
G01X-660635Y-650044D02*
X-654885D01*
G01X-647760Y-660044D02*
X-648760Y-659878D01*
X-649635Y-659211D01*
X-650385Y-658211D01*
X-650885Y-657044D01*
X-651135Y-655711D01*
Y-654377D01*
X-650885Y-653044D01*
X-650385Y-651877D01*
X-649635Y-650878D01*
X-648760Y-650211D01*
X-647760Y-650044D01*
X-646760Y-650211D01*
X-645885Y-650878D01*
X-645135Y-651877D01*
X-644635Y-653044D01*
X-644385Y-654377D01*
Y-655711D01*
X-644635Y-657044D01*
X-645135Y-658211D01*
X-645885Y-659211D01*
X-646760Y-659878D01*
X-647760Y-660044D01*
G01X-640260D02*
Y-650044D01*
X-637260D01*
X-636260Y-650544D01*
X-635510Y-651711D01*
X-635260Y-653044D01*
X-635510Y-654377D01*
X-636135Y-655378D01*
X-637260Y-655878D01*
X-640260D01*
M02*
