G04 ================== begin FILE IDENTIFICATION RECORD ==================*
G04 Layout Name:  E:/rena/ZJfpc/HN0RNALTF.brd*
G04 Film Name:    coverlaybotm*
G04 File Format:  Gerber RS274X*
G04 File Origin:  Cadence Allegro 17.2-S053*
G04 Origin Date:  Mon Mar 08 14:33:47 2021*
G04 *
G04 Layer:  PIN/SOLDERMASK_BOTTOM*
G04 Layer:  VIA CLASS/SOLDERMASK_BOTTOM*
G04 Layer:  RIGID FLEX/COVERLAY_BOTTOM*
G04 Layer:  PACKAGE GEOMETRY/SOLDERMASK_BOTTOM*
G04 Layer:  BOARD GEOMETRY/SOLDERMASK_BOTTOM*
G04 Layer:  BOARD GEOMETRY/CUTOUT*
G04 Layer:  BOARD GEOMETRY/OUTLINE*
G04 *
G04 Offset:    (0.000 0.000)*
G04 Mirror:    No*
G04 Mode:      Positive*
G04 Rotation:  0*
G04 FullContactRelief:  No*
G04 UndefLineWidth:     6.000*
G04 ================== end FILE IDENTIFICATION RECORD ====================*
%FSLAX25Y25*MOIN*%
%IR0*IPPOS*OFA0.00000B0.00000*MIA0B0*SFA1.00000B1.00000*%
%ADD17R,.056X.131*%
%ADD13R,.011X.013*%
%ADD11R,.014X.013*%
%ADD12R,.014X.013*%
%ADD15R,.036X.015*%
%ADD10R,.023X.019*%
%ADD14R,.014X.047*%
%ADD18C,.081*%
%ADD16C,.038*%
%ADD19C,.0004*%
%ADD20C,.006*%
G75*
%LPD*%
G75*
G36*
G01X-951676Y-133358D02*
Y-123331D01*
X-998076D01*
Y-133358D01*
X-951676D01*
G37*
G54D10*
X-924058Y-433290D03*
Y-436090D03*
X-1010607Y-435685D03*
Y-432885D03*
X-968922Y-435685D03*
Y-432885D03*
X-964754Y-435685D03*
Y-432885D03*
X-938577Y-436045D03*
Y-433245D03*
X-960585Y-435685D03*
Y-432885D03*
X-916412Y-435942D03*
Y-433142D03*
X-998102Y-435685D03*
Y-432885D03*
X-993933Y-435685D03*
Y-432885D03*
X-989765Y-435685D03*
Y-432885D03*
X-1002270Y-435685D03*
Y-432885D03*
X-952417D03*
Y-435685D03*
X-920057Y-433142D03*
Y-435942D03*
X-985596Y-435685D03*
Y-432885D03*
X-981428Y-435685D03*
Y-432885D03*
X-1005726Y-435624D03*
Y-432824D03*
X-932731Y-433129D03*
Y-435929D03*
X-929214Y-433231D03*
Y-436031D03*
X-973091Y-435685D03*
Y-432885D03*
X-977259Y-435685D03*
Y-432885D03*
X-948884Y-432924D03*
Y-435724D03*
X-942371Y-436164D03*
Y-433364D03*
G54D20*
G01X-615135Y-671855D02*
Y-661855D01*
G01X-620385D02*
Y-671855D01*
G01Y-666855D02*
X-615135D01*
G01X-624885Y-671855D02*
Y-661855D01*
X-630635Y-671855D01*
Y-661855D01*
G01X-637760D02*
X-636760Y-662188D01*
X-636010Y-663022D01*
X-635510Y-664022D01*
X-635135Y-665355D01*
X-635010Y-666855D01*
X-635135Y-668355D01*
X-635510Y-669689D01*
X-636010Y-670689D01*
X-636760Y-671522D01*
X-637760Y-671855D01*
X-638760Y-671522D01*
X-639510Y-670689D01*
X-640010Y-669689D01*
X-640385Y-668355D01*
X-640510Y-666855D01*
X-640385Y-665355D01*
X-640010Y-664022D01*
X-639510Y-663022D01*
X-638760Y-662188D01*
X-637760Y-661855D01*
G01X-645260Y-671855D02*
Y-661855D01*
X-648385D01*
X-649385Y-662355D01*
X-650010Y-663022D01*
X-650260Y-664355D01*
X-650010Y-665688D01*
X-649260Y-666522D01*
X-648385Y-667022D01*
X-645260D01*
G01X-648385D02*
X-650260Y-671855D01*
G01X-654885D02*
Y-661855D01*
X-660635Y-671855D01*
Y-661855D01*
G01X-664635Y-671855D02*
X-667760Y-661855D01*
X-670885Y-671855D01*
G01X-669760Y-668355D02*
X-665760D01*
G01X-675260Y-661855D02*
Y-671855D01*
X-680260D01*
G01X-687760Y-661855D02*
Y-671855D01*
G01X-684885Y-661855D02*
X-690635D01*
G01X-695385Y-671855D02*
Y-661855D01*
X-700135D01*
G01X-698385Y-666688D02*
X-695385D01*
G01X-714635Y-661855D02*
X-717760Y-671855D01*
X-720885Y-661855D01*
G01X-725885Y-667355D02*
X-729885D01*
X-729510Y-666188D01*
X-728885Y-665522D01*
X-728010Y-665189D01*
X-727135Y-665355D01*
X-726385Y-665855D01*
X-725885Y-667022D01*
X-725635Y-668022D01*
Y-669022D01*
X-725885Y-670022D01*
X-726510Y-671022D01*
X-727260Y-671688D01*
X-728135Y-671855D01*
X-729010Y-671522D01*
X-729885Y-670522D01*
G01X-736010Y-671855D02*
Y-665189D01*
G01Y-666522D02*
X-736635Y-665855D01*
X-737260Y-665355D01*
X-738135Y-665189D01*
X-738760Y-665355D01*
X-739510Y-665855D01*
G01X-747760Y-672188D02*
X-747510Y-672022D01*
Y-671688D01*
X-747760Y-671522D01*
X-748010Y-671688D01*
Y-672022D01*
X-747760Y-672188D01*
G01X-754635Y-671855D02*
X-757760Y-661855D01*
X-760885Y-671855D01*
G01X-759760Y-668355D02*
X-755760D01*
G01X-775135Y-670522D02*
X-776135Y-671355D01*
X-777260Y-671855D01*
X-778260D01*
X-779260Y-671355D01*
X-780010Y-670522D01*
X-780385Y-669355D01*
X-780135Y-668189D01*
X-779510Y-667188D01*
X-778385Y-666522D01*
X-776885Y-666188D01*
X-776010Y-665522D01*
X-775635Y-664355D01*
X-775885Y-663188D01*
X-776510Y-662355D01*
X-777385Y-661855D01*
X-778260D01*
X-779135Y-662188D01*
X-779885Y-663022D01*
G01X-787760Y-671855D02*
X-786760Y-671688D01*
X-785885Y-671022D01*
X-785135Y-670022D01*
X-784635Y-668855D01*
X-784385Y-667522D01*
Y-666188D01*
X-784635Y-664855D01*
X-785135Y-663688D01*
X-785885Y-662689D01*
X-786760Y-662022D01*
X-787760Y-661855D01*
X-788760Y-662022D01*
X-789635Y-662689D01*
X-790385Y-663688D01*
X-790885Y-664855D01*
X-791135Y-666188D01*
Y-667522D01*
X-790885Y-668855D01*
X-790385Y-670022D01*
X-789635Y-671022D01*
X-788760Y-671688D01*
X-787760Y-671855D01*
G01X-795260Y-661855D02*
Y-671855D01*
X-800260D01*
G01X-805010D02*
Y-661855D01*
X-807510D01*
X-808510Y-662355D01*
X-809260Y-663022D01*
X-809885Y-664022D01*
X-810385Y-665189D01*
X-810510Y-666855D01*
X-810385Y-668522D01*
X-809885Y-669689D01*
X-809260Y-670689D01*
X-808510Y-671355D01*
X-807510Y-671855D01*
X-805010D01*
G01X-814510D02*
Y-661855D01*
X-817760Y-670189D01*
X-821010Y-661855D01*
Y-671855D01*
G01X-824635D02*
X-827760Y-661855D01*
X-830885Y-671855D01*
G01X-829760Y-668355D02*
X-825760D01*
G01X-835135Y-670522D02*
X-836135Y-671355D01*
X-837260Y-671855D01*
X-838260D01*
X-839260Y-671355D01*
X-840010Y-670522D01*
X-840385Y-669355D01*
X-840135Y-668189D01*
X-839510Y-667188D01*
X-838385Y-666522D01*
X-836885Y-666188D01*
X-836010Y-665522D01*
X-835635Y-664355D01*
X-835885Y-663188D01*
X-836510Y-662355D01*
X-837385Y-661855D01*
X-838260D01*
X-839135Y-662188D01*
X-839885Y-663022D01*
G01X-845010Y-671855D02*
Y-661855D01*
G01X-849760D02*
X-845010Y-668022D01*
G01X-850510Y-671855D02*
X-847135Y-665189D01*
G01X-868760Y-666522D02*
X-869260Y-666022D01*
X-869635Y-665189D01*
X-869885Y-664022D01*
X-869635Y-663022D01*
X-869135Y-662355D01*
X-868260Y-661855D01*
X-864885D01*
Y-671855D01*
X-869010D01*
X-869885Y-671189D01*
X-870385Y-670189D01*
X-870635Y-669022D01*
X-870385Y-667855D01*
X-869635Y-666855D01*
X-868760Y-666522D01*
X-864885D01*
G01X-877760Y-671855D02*
X-876760Y-671688D01*
X-875885Y-671022D01*
X-875135Y-670022D01*
X-874635Y-668855D01*
X-874385Y-667522D01*
Y-666188D01*
X-874635Y-664855D01*
X-875135Y-663688D01*
X-875885Y-662689D01*
X-876760Y-662022D01*
X-877760Y-661855D01*
X-878760Y-662022D01*
X-879635Y-662689D01*
X-880385Y-663688D01*
X-880885Y-664855D01*
X-881135Y-666188D01*
Y-667522D01*
X-880885Y-668855D01*
X-880385Y-670022D01*
X-879635Y-671022D01*
X-878760Y-671688D01*
X-877760Y-671855D01*
G01X-887760Y-661855D02*
Y-671855D01*
G01X-884885Y-661855D02*
X-890635D01*
G01X-897760D02*
Y-671855D01*
G01X-894885Y-661855D02*
X-900635D01*
G01X-907760Y-671855D02*
X-906760Y-671688D01*
X-905885Y-671022D01*
X-905135Y-670022D01*
X-904635Y-668855D01*
X-904385Y-667522D01*
Y-666188D01*
X-904635Y-664855D01*
X-905135Y-663688D01*
X-905885Y-662689D01*
X-906760Y-662022D01*
X-907760Y-661855D01*
X-908760Y-662022D01*
X-909635Y-662689D01*
X-910385Y-663688D01*
X-910885Y-664855D01*
X-911135Y-666188D01*
Y-667522D01*
X-910885Y-668855D01*
X-910385Y-670022D01*
X-909635Y-671022D01*
X-908760Y-671688D01*
X-907760Y-671855D01*
G01X-914510D02*
Y-661855D01*
X-917760Y-670189D01*
X-921010Y-661855D01*
Y-671855D01*
G54D11*
X-1036048Y-434728D03*
Y-436528D03*
X-1030748Y-434534D03*
Y-436334D03*
X-1025730Y-434306D03*
Y-436106D03*
X-1014462Y-433866D03*
Y-435666D03*
X-1020155Y-434131D03*
Y-435931D03*
X-1016368Y-433920D03*
Y-435720D03*
X-1037953Y-434648D03*
Y-436448D03*
X-1027742Y-434306D03*
Y-436106D03*
X-1022087Y-434077D03*
Y-435877D03*
X-1032760Y-434507D03*
Y-436307D03*
G54D12*
X-1032735Y-436407D03*
X-1030768D03*
X-1032735Y-434523D03*
X-1030768D03*
X-1016404Y-435827D03*
X-1014436D03*
X-1016404Y-433943D03*
X-1014436D03*
X-1037996Y-436404D03*
X-1036028D03*
X-1037996Y-434520D03*
X-1036028D03*
X-1022091Y-435903D03*
X-1020123D03*
X-1022091Y-434019D03*
X-1020123D03*
X-1027718Y-436184D03*
X-1025750D03*
X-1027718Y-434300D03*
X-1025750D03*
G54D13*
X-961785Y-131845D03*
X-963163D03*
X-961785Y-124857D03*
X-963163D03*
X-987967Y-131845D03*
X-986589D03*
X-987967Y-124857D03*
X-986589D03*
X-985211Y-131845D03*
Y-124857D03*
X-983833Y-131845D03*
X-982455D03*
X-981077D03*
X-979699D03*
X-978321D03*
X-976943D03*
X-975565D03*
X-974187D03*
X-972809D03*
X-971431D03*
X-970053D03*
X-968675D03*
X-967297D03*
X-965919D03*
X-964541D03*
X-983833Y-124857D03*
X-982455D03*
X-981077D03*
X-978321D03*
X-979699D03*
X-976943D03*
X-975565D03*
X-974187D03*
X-972809D03*
X-971431D03*
X-970053D03*
X-968675D03*
X-967297D03*
X-965919D03*
X-964541D03*
G54D14*
X-956608Y-128351D03*
X-993144D03*
G54D15*
X-990860Y-132022D03*
X-958892D03*
Y-124680D03*
X-990860D03*
G54D16*
X-997550Y-392085D03*
X-957331Y-351932D03*
X-1029147Y-443253D03*
X-994453Y-404527D03*
X-1011020Y-404488D03*
X-1024558Y-443253D03*
X-1000968Y-399914D03*
X-985474Y-381149D03*
X-980761Y-392084D03*
X-976137Y-387546D03*
X-970625Y-382122D03*
X-964402Y-359455D03*
X-945102Y-356034D03*
X-963601Y-375187D03*
X-974470Y-371452D03*
X-987251Y-398037D03*
X-993283Y-386869D03*
X-916036Y-395505D03*
X-1033616Y-454321D03*
X-927505Y-381016D03*
X-923237Y-388129D03*
X-933373Y-374081D03*
X-936953Y-367977D03*
X-1029215Y-453674D03*
X-941167Y-362224D03*
G54D17*
X-1008388Y-256636D03*
X-998389D03*
X-988389D03*
X-978388D03*
X-968388D03*
X-958388D03*
X-948389D03*
X-938389D03*
X-1008388Y-278236D03*
X-998389D03*
X-988389D03*
X-978388D03*
X-968388D03*
X-958388D03*
X-948389D03*
X-938389D03*
X-915624Y-323928D03*
X-925624D03*
X-935624D03*
X-945624D03*
X-955624D03*
X-965624D03*
X-975624D03*
X-985624D03*
X-915624Y-302328D03*
X-925624D03*
X-935624D03*
X-945624D03*
X-955624D03*
X-965624D03*
X-975624D03*
X-985624D03*
G54D18*
X-1004888Y-267436D03*
X-944889D03*
X-982124Y-313128D03*
X-922124D03*
G54D19*
G01X-902985Y-514592D02*
G01D02*
G01X-1051089Y-539360D02*
X-1051088Y-539360D01*
G01X-1051089Y-539360D02*
X-1051088Y-539360D01*
G01X-951658Y-136283D02*
Y-117989D01*
G03X-953626Y-116021I-1968J0D01*
G01X-996126D01*
G03X-998095Y-117989I0J-1969D01*
G01Y-175127D01*
G02X-999248Y-177911I-3937J0D01*
G01X-1041592Y-220255D01*
G03X-1042745Y-223038I2784J-2784D01*
G01Y-499649D01*
G03X-1041592Y-502433I3937J0D01*
G01X-994972Y-549053D01*
G02X-994395Y-550445I-1392J-1392D01*
G01Y-582063D01*
G03X-992427Y-584032I1968J0D01*
G01X-956994D01*
G03X-955025Y-582063I0J1968D01*
G01Y-550249D01*
G02X-954449Y-548858I1969J0D01*
G01X-908173Y-502582D01*
G03X-907020Y-499798I-2784J2784D01*
G01Y-223027D01*
G03X-908173Y-220243I-3937J0D01*
G01X-950505Y-177911D01*
G02X-951658Y-175127I2784J2784D01*
G01Y-136283D01*
G01X-1004888Y-271334D02*
G02Y-263538I0J3898D01*
G02Y-271334I0J-3898D01*
G01X-944889D02*
G02Y-263538I0J3898D01*
G02Y-271334I0J-3898D01*
G01X-982124Y-317026D02*
G02Y-309230I0J3898D01*
G02Y-317026I0J-3898D01*
G01X-922124D02*
G02Y-309230I0J3898D01*
G02Y-317026I0J-3898D01*
M02*
