G04 ================== begin FILE IDENTIFICATION RECORD ==================*
G04 Layout Name:  E:/rena/ZJfpc/HN0RNALTF.brd*
G04 Film Name:    lpibotm*
G04 File Format:  Gerber RS274X*
G04 File Origin:  Cadence Allegro 17.2-S053*
G04 Origin Date:  Mon Mar 08 14:33:47 2021*
G04 *
G04 Layer:  BOARD GEOMETRY/LPI_BOTTOM*
G04 Layer:  RIGID FLEX/LPI_BOTTOM*
G04 Layer:  BOARD GEOMETRY/CUTOUT*
G04 Layer:  BOARD GEOMETRY/OUTLINE*
G04 *
G04 Offset:    (0.000 0.000)*
G04 Mirror:    No*
G04 Mode:      Positive*
G04 Rotation:  0*
G04 FullContactRelief:  No*
G04 UndefLineWidth:     6.000*
G04 ================== end FILE IDENTIFICATION RECORD ====================*
%FSLAX25Y25*MOIN*%
%IR0*IPPOS*OFA0.00000B0.00000*MIA0B0*SFA1.00000B1.00000*%
%ADD10C,.0004*%
%ADD11C,.006*%
%ADD14R,.273637X.014123*%
%ADD17R,.273596X.013836*%
%ADD18R,.036402X.015236*%
%ADD13R,.037062X.015813*%
%ADD15R,.014825X.047274*%
%ADD12R,.036485X.015566*%
%ADD19R,.035991X.015566*%
%ADD16R,.014825X.047768*%
G75*
%LPD*%
G75*
G36*
G01X-999276Y-122018D02*
X-950476D01*
Y-134637D01*
X-999276D01*
Y-122018D01*
G37*
%LPC*%
G75*
G54D14*
X-974910Y-131799D03*
G54D17*
X-974847Y-124834D03*
G54D18*
X-990865Y-124664D03*
G54D13*
X-990844Y-131966D03*
G54D15*
X-993142Y-128317D03*
G54D12*
X-958885Y-132011D03*
G54D19*
Y-124665D03*
G54D16*
X-956592Y-128334D03*
%LPD*%
G75*
G54D10*
G01X-902985Y-514592D02*
G01D02*
G01X-1051089Y-539360D02*
X-1051088Y-539360D01*
G01X-1051089Y-539360D02*
X-1051088Y-539360D01*
G01X-951658Y-136283D02*
Y-117989D01*
G03X-953626Y-116021I-1968J0D01*
G01X-996126D01*
G03X-998095Y-117989I0J-1969D01*
G01Y-175127D01*
G02X-999248Y-177911I-3937J0D01*
G01X-1041592Y-220255D01*
G03X-1042745Y-223038I2784J-2784D01*
G01Y-499649D01*
G03X-1041592Y-502433I3937J0D01*
G01X-994972Y-549053D01*
G02X-994395Y-550445I-1392J-1392D01*
G01Y-582063D01*
G03X-992427Y-584032I1968J0D01*
G01X-956994D01*
G03X-955025Y-582063I0J1968D01*
G01Y-550249D01*
G02X-954449Y-548858I1969J0D01*
G01X-908173Y-502582D01*
G03X-907020Y-499798I-2784J2784D01*
G01Y-223027D01*
G03X-908173Y-220243I-3937J0D01*
G01X-950505Y-177911D01*
G02X-951658Y-175127I2784J2784D01*
G01Y-136283D01*
G01X-1004888Y-271334D02*
G02Y-263538I0J3898D01*
G02Y-271334I0J-3898D01*
G01X-944889D02*
G02Y-263538I0J3898D01*
G02Y-271334I0J-3898D01*
G01X-982124Y-317026D02*
G02Y-309230I0J3898D01*
G02Y-317026I0J-3898D01*
G01X-922124D02*
G02Y-309230I0J3898D01*
G02Y-317026I0J-3898D01*
G54D11*
G01X-665135Y-766343D02*
Y-756343D01*
G01X-670385D02*
Y-766343D01*
G01Y-761344D02*
X-665135D01*
G01X-674885Y-766343D02*
Y-756343D01*
X-680635Y-766343D01*
Y-756343D01*
G01X-687760D02*
X-686760Y-756677D01*
X-686010Y-757510D01*
X-685510Y-758510D01*
X-685135Y-759844D01*
X-685010Y-761344D01*
X-685135Y-762843D01*
X-685510Y-764177D01*
X-686010Y-765177D01*
X-686760Y-766010D01*
X-687760Y-766343D01*
X-688760Y-766010D01*
X-689510Y-765177D01*
X-690010Y-764177D01*
X-690385Y-762843D01*
X-690510Y-761344D01*
X-690385Y-759844D01*
X-690010Y-758510D01*
X-689510Y-757510D01*
X-688760Y-756677D01*
X-687760Y-756343D01*
G01X-695260Y-766343D02*
Y-756343D01*
X-698385D01*
X-699385Y-756844D01*
X-700010Y-757510D01*
X-700260Y-758843D01*
X-700010Y-760177D01*
X-699260Y-761010D01*
X-698385Y-761510D01*
X-695260D01*
G01X-698385D02*
X-700260Y-766343D01*
G01X-704885D02*
Y-756343D01*
X-710635Y-766343D01*
Y-756343D01*
G01X-714635Y-766343D02*
X-717760Y-756343D01*
X-720885Y-766343D01*
G01X-719760Y-762843D02*
X-715760D01*
G01X-725260Y-756343D02*
Y-766343D01*
X-730260D01*
G01X-737760Y-756343D02*
Y-766343D01*
G01X-734885Y-756343D02*
X-740635D01*
G01X-745385Y-766343D02*
Y-756343D01*
X-750135D01*
G01X-748385Y-761176D02*
X-745385D01*
G01X-764635Y-756343D02*
X-767760Y-766343D01*
X-770885Y-756343D01*
G01X-775885Y-761843D02*
X-779885D01*
X-779510Y-760677D01*
X-778885Y-760010D01*
X-778010Y-759677D01*
X-777135Y-759844D01*
X-776385Y-760343D01*
X-775885Y-761510D01*
X-775635Y-762510D01*
Y-763510D01*
X-775885Y-764510D01*
X-776510Y-765510D01*
X-777260Y-766177D01*
X-778135Y-766343D01*
X-779010Y-766010D01*
X-779885Y-765010D01*
G01X-786010Y-766343D02*
Y-759677D01*
G01Y-761010D02*
X-786635Y-760343D01*
X-787260Y-759844D01*
X-788135Y-759677D01*
X-788760Y-759844D01*
X-789510Y-760343D01*
G01X-797760Y-766677D02*
X-797510Y-766510D01*
Y-766177D01*
X-797760Y-766010D01*
X-798010Y-766177D01*
Y-766510D01*
X-797760Y-766677D01*
G01X-804635Y-766343D02*
X-807760Y-756343D01*
X-810885Y-766343D01*
G01X-809760Y-762843D02*
X-805760D01*
G01X-825260Y-756343D02*
Y-766343D01*
X-830260D01*
G01X-835260D02*
Y-756343D01*
X-838260D01*
X-839260Y-756844D01*
X-840010Y-758010D01*
X-840260Y-759343D01*
X-840010Y-760677D01*
X-839385Y-761677D01*
X-838260Y-762177D01*
X-835260D01*
G01X-846260Y-756343D02*
X-849260D01*
G01X-847760D02*
Y-766343D01*
G01X-846260D02*
X-849260D01*
G01X-868760Y-761010D02*
X-869260Y-760510D01*
X-869635Y-759677D01*
X-869885Y-758510D01*
X-869635Y-757510D01*
X-869135Y-756844D01*
X-868260Y-756343D01*
X-864885D01*
Y-766343D01*
X-869010D01*
X-869885Y-765677D01*
X-870385Y-764677D01*
X-870635Y-763510D01*
X-870385Y-762344D01*
X-869635Y-761344D01*
X-868760Y-761010D01*
X-864885D01*
G01X-877760Y-766343D02*
X-876760Y-766177D01*
X-875885Y-765510D01*
X-875135Y-764510D01*
X-874635Y-763343D01*
X-874385Y-762010D01*
Y-760677D01*
X-874635Y-759343D01*
X-875135Y-758177D01*
X-875885Y-757177D01*
X-876760Y-756510D01*
X-877760Y-756343D01*
X-878760Y-756510D01*
X-879635Y-757177D01*
X-880385Y-758177D01*
X-880885Y-759343D01*
X-881135Y-760677D01*
Y-762010D01*
X-880885Y-763343D01*
X-880385Y-764510D01*
X-879635Y-765510D01*
X-878760Y-766177D01*
X-877760Y-766343D01*
G01X-887760Y-756343D02*
Y-766343D01*
G01X-884885Y-756343D02*
X-890635D01*
G01X-897760D02*
Y-766343D01*
G01X-894885Y-756343D02*
X-900635D01*
G01X-907760Y-766343D02*
X-906760Y-766177D01*
X-905885Y-765510D01*
X-905135Y-764510D01*
X-904635Y-763343D01*
X-904385Y-762010D01*
Y-760677D01*
X-904635Y-759343D01*
X-905135Y-758177D01*
X-905885Y-757177D01*
X-906760Y-756510D01*
X-907760Y-756343D01*
X-908760Y-756510D01*
X-909635Y-757177D01*
X-910385Y-758177D01*
X-910885Y-759343D01*
X-911135Y-760677D01*
Y-762010D01*
X-910885Y-763343D01*
X-910385Y-764510D01*
X-909635Y-765510D01*
X-908760Y-766177D01*
X-907760Y-766343D01*
G01X-914510D02*
Y-756343D01*
X-917760Y-764677D01*
X-921010Y-756343D01*
Y-766343D01*
M02*
