G04 ================== begin FILE IDENTIFICATION RECORD ==================*
G04 Layout Name:  E:/rena/ZJfpc/HN0RNALTF.brd*
G04 Film Name:    lpitop*
G04 File Format:  Gerber RS274X*
G04 File Origin:  Cadence Allegro 17.2-S053*
G04 Origin Date:  Mon Mar 08 14:33:47 2021*
G04 *
G04 Layer:  BOARD GEOMETRY/LPI_TOP*
G04 Layer:  RIGID FLEX/LPI_TOP*
G04 Layer:  BOARD GEOMETRY/OUTLINE*
G04 *
G04 Offset:    (0.000 0.000)*
G04 Mirror:    No*
G04 Mode:      Positive*
G04 Rotation:  0*
G04 FullContactRelief:  No*
G04 UndefLineWidth:     6.000*
G04 ================== end FILE IDENTIFICATION RECORD ====================*
%FSLAX25Y25*MOIN*%
%IR0*IPPOS*OFA0.00000B0.00000*MIA0B0*SFA1.00000B1.00000*%
%ADD10C,.0004*%
%ADD11C,.006*%
%ADD13R,.272897X.017024*%
%ADD12R,.272979X.017047*%
G75*
%LPD*%
G75*
G36*
G01X-995594Y-571814D02*
X-953827D01*
Y-583733D01*
X-995594D01*
Y-571814D01*
G37*
%LPC*%
G75*
G36*
G01X-960289Y-576535D02*
Y-574789D01*
X-958230D01*
Y-576049D01*
X-957406D01*
Y-579517D01*
X-958238D01*
Y-580768D01*
X-960256D01*
Y-579039D01*
X-959136D01*
Y-576535D01*
X-960289D01*
G37*
G36*
G01X-991223Y-576020D02*
Y-574760D01*
X-989155D01*
Y-576531D01*
X-990292D01*
Y-579059D01*
X-989147D01*
Y-580814D01*
X-991173D01*
Y-579512D01*
X-992046D01*
Y-576020D01*
X-991223D01*
G37*
G54D13*
X-974708Y-574482D03*
G54D12*
X-974708Y-581098D03*
%LPD*%
G75*
G54D10*
G01X-902985Y-514592D02*
G01D02*
G01X-1051089Y-539360D02*
X-1051088Y-539360D01*
G01X-1051089Y-539360D02*
X-1051088Y-539360D01*
G01X-951658Y-136283D02*
Y-117989D01*
G03X-953626Y-116021I-1968J0D01*
G01X-996126D01*
G03X-998095Y-117989I0J-1969D01*
G01Y-175127D01*
G02X-999248Y-177911I-3937J0D01*
G01X-1041592Y-220255D01*
G03X-1042745Y-223038I2784J-2784D01*
G01Y-499649D01*
G03X-1041592Y-502433I3937J0D01*
G01X-994972Y-549053D01*
G02X-994395Y-550445I-1392J-1392D01*
G01Y-582063D01*
G03X-992427Y-584032I1968J0D01*
G01X-956994D01*
G03X-955025Y-582063I0J1968D01*
G01Y-550249D01*
G02X-954449Y-548858I1969J0D01*
G01X-908173Y-502582D01*
G03X-907020Y-499798I-2784J2784D01*
G01Y-223027D01*
G03X-908173Y-220243I-3937J0D01*
G01X-950505Y-177911D01*
G02X-951658Y-175127I2784J2784D01*
G01Y-136283D01*
G01X-1004888Y-271334D02*
G02Y-263538I0J3898D01*
G02Y-271334I0J-3898D01*
G01X-944889D02*
G02Y-263538I0J3898D01*
G02Y-271334I0J-3898D01*
G01X-982124Y-317026D02*
G02Y-309230I0J3898D01*
G02Y-317026I0J-3898D01*
G01X-922124D02*
G02Y-309230I0J3898D01*
G02Y-317026I0J-3898D01*
G54D11*
G01X-910385Y-754532D02*
Y-744532D01*
G01X-905135D02*
Y-754532D01*
G01Y-749532D02*
X-910385D01*
G01X-900635Y-754532D02*
Y-744532D01*
X-894885Y-754532D01*
Y-744532D01*
G01X-887760D02*
X-888760Y-744866D01*
X-889510Y-745699D01*
X-890010Y-746699D01*
X-890385Y-748032D01*
X-890510Y-749532D01*
X-890385Y-751032D01*
X-890010Y-752366D01*
X-889510Y-753366D01*
X-888760Y-754199D01*
X-887760Y-754532D01*
X-886760Y-754199D01*
X-886010Y-753366D01*
X-885510Y-752366D01*
X-885135Y-751032D01*
X-885010Y-749532D01*
X-885135Y-748032D01*
X-885510Y-746699D01*
X-886010Y-745699D01*
X-886760Y-744866D01*
X-887760Y-744532D01*
G01X-880260Y-754532D02*
Y-744532D01*
X-877135D01*
X-876135Y-745032D01*
X-875510Y-745699D01*
X-875260Y-747032D01*
X-875510Y-748366D01*
X-876260Y-749199D01*
X-877135Y-749699D01*
X-880260D01*
G01X-877135D02*
X-875260Y-754532D01*
G01X-870635D02*
Y-744532D01*
X-864885Y-754532D01*
Y-744532D01*
G01X-860885Y-754532D02*
X-857760Y-744532D01*
X-854635Y-754532D01*
G01X-855760Y-751032D02*
X-859760D01*
G01X-850260Y-744532D02*
Y-754532D01*
X-845260D01*
G01X-837760Y-744532D02*
Y-754532D01*
G01X-840635Y-744532D02*
X-834885D01*
G01X-830135Y-754532D02*
Y-744532D01*
X-825385D01*
G01X-827135Y-749366D02*
X-830135D01*
G01X-810885Y-744532D02*
X-807760Y-754532D01*
X-804635Y-744532D01*
G01X-799635Y-750032D02*
X-795635D01*
X-796010Y-748866D01*
X-796635Y-748199D01*
X-797510Y-747866D01*
X-798385Y-748032D01*
X-799135Y-748532D01*
X-799635Y-749699D01*
X-799885Y-750699D01*
Y-751699D01*
X-799635Y-752699D01*
X-799010Y-753699D01*
X-798260Y-754366D01*
X-797385Y-754532D01*
X-796510Y-754199D01*
X-795635Y-753199D01*
G01X-789510Y-754532D02*
Y-747866D01*
G01Y-749199D02*
X-788885Y-748532D01*
X-788260Y-748032D01*
X-787385Y-747866D01*
X-786760Y-748032D01*
X-786010Y-748532D01*
G01X-777760Y-754866D02*
X-778010Y-754699D01*
Y-754366D01*
X-777760Y-754199D01*
X-777510Y-754366D01*
Y-754699D01*
X-777760Y-754866D01*
G01X-770885Y-754532D02*
X-767760Y-744532D01*
X-764635Y-754532D01*
G01X-765760Y-751032D02*
X-769760D01*
G01X-750260Y-744532D02*
Y-754532D01*
X-745260D01*
G01X-740260D02*
Y-744532D01*
X-737260D01*
X-736260Y-745032D01*
X-735510Y-746199D01*
X-735260Y-747532D01*
X-735510Y-748866D01*
X-736135Y-749866D01*
X-737260Y-750366D01*
X-740260D01*
G01X-729260Y-744532D02*
X-726260D01*
G01X-727760D02*
Y-754532D01*
G01X-729260D02*
X-726260D01*
G01X-707760Y-744532D02*
Y-754532D01*
G01X-710635Y-744532D02*
X-704885D01*
G01X-697760Y-754532D02*
X-698760Y-754366D01*
X-699635Y-753699D01*
X-700385Y-752699D01*
X-700885Y-751532D01*
X-701135Y-750199D01*
Y-748866D01*
X-700885Y-747532D01*
X-700385Y-746366D01*
X-699635Y-745366D01*
X-698760Y-744699D01*
X-697760Y-744532D01*
X-696760Y-744699D01*
X-695885Y-745366D01*
X-695135Y-746366D01*
X-694635Y-747532D01*
X-694385Y-748866D01*
Y-750199D01*
X-694635Y-751532D01*
X-695135Y-752699D01*
X-695885Y-753699D01*
X-696760Y-754366D01*
X-697760Y-754532D01*
G01X-690260D02*
Y-744532D01*
X-687260D01*
X-686260Y-745032D01*
X-685510Y-746199D01*
X-685260Y-747532D01*
X-685510Y-748866D01*
X-686135Y-749866D01*
X-687260Y-750366D01*
X-690260D01*
M02*
