G04 ================== begin FILE IDENTIFICATION RECORD ==================*
G04 Layout Name:  E:/rena/ZJfpc/HN0RNALTF.brd*
G04 Film Name:    silkbotm*
G04 File Format:  Gerber RS274X*
G04 File Origin:  Cadence Allegro 17.2-S053*
G04 Origin Date:  Mon Mar 08 14:33:47 2021*
G04 *
G04 Layer:  BOARD GEOMETRY/SILKSCREEN_BOTTOM*
G04 Layer:  BOARD GEOMETRY/CUTOUT*
G04 Layer:  BOARD GEOMETRY/OUTLINE*
G04 *
G04 Offset:    (0.000 0.000)*
G04 Mirror:    No*
G04 Mode:      Positive*
G04 Rotation:  0*
G04 FullContactRelief:  No*
G04 UndefLineWidth:     6.000*
G04 ================== end FILE IDENTIFICATION RECORD ====================*
%FSLAX25Y25*MOIN*%
%IR0*IPPOS*OFA0.00000B0.00000*MIA0B0*SFA1.00000B1.00000*%
%ADD10C,.007874*%
%ADD11C,.0004*%
%ADD12C,.006*%
G75*
%LPD*%
G75*
G54D10*
G01X-973128Y-535290D02*
X-967222D01*
G01Y-532630D02*
X-973128D01*
G01X-970175D02*
Y-535290D01*
G01X-973128Y-530318D02*
X-967222D01*
X-973128Y-527406D01*
X-967222D01*
G01Y-523764D02*
X-967419Y-524270D01*
X-967911Y-524650D01*
X-968502Y-524903D01*
X-969289Y-525093D01*
X-970175Y-525156D01*
X-971061Y-525093D01*
X-971848Y-524903D01*
X-972439Y-524650D01*
X-972931Y-524270D01*
X-973128Y-523764D01*
X-972931Y-523257D01*
X-972439Y-522877D01*
X-971848Y-522624D01*
X-971061Y-522434D01*
X-970175Y-522370D01*
X-969289Y-522434D01*
X-968502Y-522624D01*
X-967911Y-522877D01*
X-967419Y-523257D01*
X-967222Y-523764D01*
G01X-973128Y-519931D02*
X-967222D01*
Y-518348D01*
X-967518Y-517842D01*
X-967911Y-517525D01*
X-968699Y-517399D01*
X-969486Y-517525D01*
X-969978Y-517905D01*
X-970274Y-518348D01*
Y-519931D01*
G01Y-518348D02*
X-973128Y-517399D01*
G01Y-515023D02*
X-967222D01*
X-973128Y-512110D01*
X-967222D01*
G01X-973128Y-510051D02*
X-967222Y-508468D01*
X-973128Y-506885D01*
G01X-971061Y-507455D02*
Y-509481D01*
G01X-967222Y-504636D02*
X-973128D01*
Y-502103D01*
G01X-967222Y-498272D02*
X-973128D01*
G01X-967222Y-499728D02*
Y-496815D01*
G01X-973128Y-494376D02*
X-967222D01*
Y-491970D01*
G01X-970077Y-492856D02*
Y-494376D01*
G01X-967222Y-484559D02*
X-973128Y-482976D01*
X-967222Y-481393D01*
G01X-973128Y-476611D02*
Y-479144D01*
X-967222D01*
Y-476611D01*
G01X-970077Y-477625D02*
Y-479144D01*
G01X-973128Y-474046D02*
X-967222D01*
Y-472463D01*
X-967518Y-471956D01*
X-967911Y-471640D01*
X-968699Y-471513D01*
X-969486Y-471640D01*
X-969978Y-472019D01*
X-970274Y-472463D01*
Y-474046D01*
G01Y-472463D02*
X-973128Y-471513D01*
G01X-973325Y-467681D02*
X-973226Y-467808D01*
X-973029D01*
X-972931Y-467681D01*
X-973029Y-467554D01*
X-973226D01*
X-973325Y-467681D01*
G01X-973128Y-464166D02*
X-967222Y-462583D01*
X-973128Y-460999D01*
G01X-971061Y-461569D02*
Y-463596D01*
G54D11*
G01X-902985Y-514592D02*
G01D02*
G01X-1051089Y-539360D02*
X-1051088Y-539360D01*
G01X-1051089Y-539360D02*
X-1051088Y-539360D01*
G01X-951658Y-136283D02*
Y-117989D01*
G03X-953626Y-116021I-1968J0D01*
G01X-996126D01*
G03X-998095Y-117989I0J-1969D01*
G01Y-175127D01*
G02X-999248Y-177911I-3937J0D01*
G01X-1041592Y-220255D01*
G03X-1042745Y-223038I2784J-2784D01*
G01Y-499649D01*
G03X-1041592Y-502433I3937J0D01*
G01X-994972Y-549053D01*
G02X-994395Y-550445I-1392J-1392D01*
G01Y-582063D01*
G03X-992427Y-584032I1968J0D01*
G01X-956994D01*
G03X-955025Y-582063I0J1968D01*
G01Y-550249D01*
G02X-954449Y-548858I1969J0D01*
G01X-908173Y-502582D01*
G03X-907020Y-499798I-2784J2784D01*
G01Y-223027D01*
G03X-908173Y-220243I-3937J0D01*
G01X-950505Y-177911D01*
G02X-951658Y-175127I2784J2784D01*
G01Y-136283D01*
G01X-1004888Y-271334D02*
G02Y-263538I0J3898D01*
G02Y-271334I0J-3898D01*
G01X-944889D02*
G02Y-263538I0J3898D01*
G02Y-271334I0J-3898D01*
G01X-982124Y-317026D02*
G02Y-309230I0J3898D01*
G02Y-317026I0J-3898D01*
G01X-922124D02*
G02Y-309230I0J3898D01*
G02Y-317026I0J-3898D01*
G54D12*
G01X-597521Y-692638D02*
Y-682638D01*
G01X-602771D02*
Y-692638D01*
G01Y-687639D02*
X-597521D01*
G01X-607271Y-692638D02*
Y-682638D01*
X-613021Y-692638D01*
Y-682638D01*
G01X-620146D02*
X-619146Y-682972D01*
X-618396Y-683805D01*
X-617896Y-684805D01*
X-617521Y-686139D01*
X-617396Y-687639D01*
X-617521Y-689138D01*
X-617896Y-690472D01*
X-618396Y-691472D01*
X-619146Y-692305D01*
X-620146Y-692638D01*
X-621146Y-692305D01*
X-621896Y-691472D01*
X-622397Y-690472D01*
X-622771Y-689138D01*
X-622896Y-687639D01*
X-622771Y-686139D01*
X-622397Y-684805D01*
X-621896Y-683805D01*
X-621146Y-682972D01*
X-620146Y-682638D01*
G01X-627646Y-692638D02*
Y-682638D01*
X-630771D01*
X-631771Y-683139D01*
X-632396Y-683805D01*
X-632646Y-685138D01*
X-632396Y-686472D01*
X-631646Y-687305D01*
X-630771Y-687805D01*
X-627646D01*
G01X-630771D02*
X-632646Y-692638D01*
G01X-637271D02*
Y-682638D01*
X-643021Y-692638D01*
Y-682638D01*
G01X-647021Y-692638D02*
X-650146Y-682638D01*
X-653272Y-692638D01*
G01X-652146Y-689138D02*
X-648146D01*
G01X-657646Y-682638D02*
Y-692638D01*
X-662646D01*
G01X-670146Y-682638D02*
Y-692638D01*
G01X-667271Y-682638D02*
X-673021D01*
G01X-677771Y-692638D02*
Y-682638D01*
X-682522D01*
G01X-680771Y-687472D02*
X-677771D01*
G01X-697021Y-682638D02*
X-700146Y-692638D01*
X-703272Y-682638D01*
G01X-708272Y-688138D02*
X-712272D01*
X-711896Y-686972D01*
X-711272Y-686305D01*
X-710396Y-685972D01*
X-709521Y-686139D01*
X-708771Y-686638D01*
X-708272Y-687805D01*
X-708021Y-688805D01*
Y-689805D01*
X-708272Y-690805D01*
X-708896Y-691805D01*
X-709646Y-692472D01*
X-710521Y-692638D01*
X-711396Y-692305D01*
X-712272Y-691305D01*
G01X-718396Y-692638D02*
Y-685972D01*
G01Y-687305D02*
X-719021Y-686638D01*
X-719646Y-686139D01*
X-720521Y-685972D01*
X-721146Y-686139D01*
X-721896Y-686638D01*
G01X-730146Y-692972D02*
X-729896Y-692805D01*
Y-692472D01*
X-730146Y-692305D01*
X-730397Y-692472D01*
Y-692805D01*
X-730146Y-692972D01*
G01X-737021Y-692638D02*
X-740146Y-682638D01*
X-743272Y-692638D01*
G01X-742146Y-689138D02*
X-738146D01*
G01X-757521Y-691305D02*
X-758521Y-692139D01*
X-759646Y-692638D01*
X-760646D01*
X-761646Y-692139D01*
X-762396Y-691305D01*
X-762771Y-690138D01*
X-762522Y-688972D01*
X-761896Y-687972D01*
X-760771Y-687305D01*
X-759272Y-686972D01*
X-758396Y-686305D01*
X-758021Y-685138D01*
X-758272Y-683972D01*
X-758896Y-683139D01*
X-759771Y-682638D01*
X-760646D01*
X-761521Y-682972D01*
X-762272Y-683805D01*
G01X-768646Y-682638D02*
X-771646D01*
G01X-770146D02*
Y-692638D01*
G01X-768646D02*
X-771646D01*
G01X-777646Y-682638D02*
Y-692638D01*
X-782646D01*
G01X-787396D02*
Y-682638D01*
G01X-792146D02*
X-787396Y-688805D01*
G01X-792896Y-692638D02*
X-789521Y-685972D01*
G01X-797521Y-691305D02*
X-798521Y-692139D01*
X-799646Y-692638D01*
X-800646D01*
X-801646Y-692139D01*
X-802396Y-691305D01*
X-802771Y-690138D01*
X-802522Y-688972D01*
X-801896Y-687972D01*
X-800771Y-687305D01*
X-799272Y-686972D01*
X-798396Y-686305D01*
X-798021Y-685138D01*
X-798272Y-683972D01*
X-798896Y-683139D01*
X-799771Y-682638D01*
X-800646D01*
X-801521Y-682972D01*
X-802272Y-683805D01*
G01X-812896Y-683472D02*
X-812146Y-682972D01*
X-811272Y-682638D01*
X-810272D01*
X-809146Y-683139D01*
X-808272Y-683972D01*
X-807646Y-684972D01*
X-807146Y-686638D01*
X-807021Y-688138D01*
X-807271Y-689638D01*
X-807646Y-690638D01*
X-808396Y-691639D01*
X-809272Y-692305D01*
X-810146Y-692638D01*
X-811021D01*
X-811896Y-692305D01*
X-812646Y-691805D01*
X-813272Y-691139D01*
G01X-817646Y-692638D02*
Y-682638D01*
X-820771D01*
X-821771Y-683139D01*
X-822396Y-683805D01*
X-822646Y-685138D01*
X-822396Y-686472D01*
X-821646Y-687305D01*
X-820771Y-687805D01*
X-817646D01*
G01X-820771D02*
X-822646Y-692638D01*
G01X-832646D02*
X-827646D01*
Y-682638D01*
X-832646D01*
G01X-830646Y-687472D02*
X-827646D01*
G01X-842646Y-692638D02*
X-837646D01*
Y-682638D01*
X-842646D01*
G01X-840646Y-687472D02*
X-837646D01*
G01X-847271Y-692638D02*
Y-682638D01*
X-853021Y-692638D01*
Y-682638D01*
G01X-871146Y-687305D02*
X-871646Y-686805D01*
X-872021Y-685972D01*
X-872272Y-684805D01*
X-872021Y-683805D01*
X-871521Y-683139D01*
X-870646Y-682638D01*
X-867271D01*
Y-692638D01*
X-871396D01*
X-872272Y-691972D01*
X-872771Y-690972D01*
X-873021Y-689805D01*
X-872771Y-688639D01*
X-872021Y-687639D01*
X-871146Y-687305D01*
X-867271D01*
G01X-880146Y-692638D02*
X-879146Y-692472D01*
X-878272Y-691805D01*
X-877521Y-690805D01*
X-877021Y-689638D01*
X-876771Y-688305D01*
Y-686972D01*
X-877021Y-685638D01*
X-877521Y-684472D01*
X-878272Y-683472D01*
X-879146Y-682805D01*
X-880146Y-682638D01*
X-881146Y-682805D01*
X-882021Y-683472D01*
X-882771Y-684472D01*
X-883272Y-685638D01*
X-883522Y-686972D01*
Y-688305D01*
X-883272Y-689638D01*
X-882771Y-690805D01*
X-882021Y-691805D01*
X-881146Y-692472D01*
X-880146Y-692638D01*
G01X-890146Y-682638D02*
Y-692638D01*
G01X-887271Y-682638D02*
X-893021D01*
G01X-900146D02*
Y-692638D01*
G01X-897271Y-682638D02*
X-903021D01*
G01X-910146Y-692638D02*
X-909146Y-692472D01*
X-908272Y-691805D01*
X-907521Y-690805D01*
X-907021Y-689638D01*
X-906771Y-688305D01*
Y-686972D01*
X-907021Y-685638D01*
X-907521Y-684472D01*
X-908272Y-683472D01*
X-909146Y-682805D01*
X-910146Y-682638D01*
X-911146Y-682805D01*
X-912021Y-683472D01*
X-912771Y-684472D01*
X-913272Y-685638D01*
X-913522Y-686972D01*
Y-688305D01*
X-913272Y-689638D01*
X-912771Y-690805D01*
X-912021Y-691805D01*
X-911146Y-692472D01*
X-910146Y-692638D01*
G01X-916896D02*
Y-682638D01*
X-920146Y-690972D01*
X-923396Y-682638D01*
Y-692638D01*
G01X-959311Y-364545D02*
Y-362045D01*
X-959977D01*
X-960190Y-362170D01*
X-960323Y-362337D01*
X-960376Y-362670D01*
X-960323Y-363004D01*
X-960163Y-363212D01*
X-959977Y-363337D01*
X-959311D01*
G01X-959977D02*
X-960376Y-364545D01*
G01X-962573D02*
X-961508D01*
Y-362045D01*
X-962573D01*
G01X-962147Y-363254D02*
X-961508D01*
G01X-963678Y-364212D02*
X-963891Y-364420D01*
X-964131Y-364545D01*
X-964344D01*
X-964557Y-364420D01*
X-964717Y-364212D01*
X-964797Y-363920D01*
X-964743Y-363629D01*
X-964610Y-363379D01*
X-964370Y-363212D01*
X-964051Y-363128D01*
X-963864Y-362962D01*
X-963784Y-362670D01*
X-963838Y-362378D01*
X-963971Y-362170D01*
X-964157Y-362045D01*
X-964344D01*
X-964530Y-362128D01*
X-964690Y-362337D01*
G01X-966967Y-364545D02*
X-965901D01*
Y-362045D01*
X-966967D01*
G01X-966541Y-363254D02*
X-965901D01*
G01X-968631Y-362045D02*
Y-364545D01*
G01X-968018Y-362045D02*
X-969244D01*
G01X-963026Y-350335D02*
X-963692Y-352835D01*
X-964358Y-350335D01*
G01X-965303Y-352835D02*
Y-350335D01*
X-965836D01*
X-966049Y-350460D01*
X-966209Y-350626D01*
X-966342Y-350876D01*
X-966449Y-351168D01*
X-966475Y-351585D01*
X-966449Y-352002D01*
X-966342Y-352293D01*
X-966209Y-352543D01*
X-966049Y-352710D01*
X-965836Y-352835D01*
X-965303D01*
G01X-967500D02*
Y-350335D01*
X-968033D01*
X-968246Y-350460D01*
X-968406Y-350626D01*
X-968539Y-350876D01*
X-968645Y-351168D01*
X-968672Y-351585D01*
X-968645Y-352002D01*
X-968539Y-352293D01*
X-968406Y-352543D01*
X-968246Y-352710D01*
X-968033Y-352835D01*
X-967500D01*
G01X-969697D02*
Y-350335D01*
X-970230D01*
X-970443Y-350460D01*
X-970602Y-350626D01*
X-970736Y-350876D01*
X-970842Y-351168D01*
X-970869Y-351585D01*
X-970842Y-352002D01*
X-970736Y-352293D01*
X-970602Y-352543D01*
X-970443Y-352710D01*
X-970230Y-352835D01*
X-969697D01*
G01X-928735Y-356707D02*
X-929401Y-354207D01*
X-930067Y-356707D01*
G01X-929827Y-355832D02*
X-928975D01*
G01X-930932Y-354207D02*
X-931598Y-356707D01*
X-932264Y-354207D01*
G01X-933209Y-356707D02*
Y-354207D01*
X-933742D01*
X-933955Y-354332D01*
X-934115Y-354499D01*
X-934248Y-354749D01*
X-934354Y-355041D01*
X-934381Y-355457D01*
X-934354Y-355874D01*
X-934248Y-356166D01*
X-934115Y-356416D01*
X-933955Y-356582D01*
X-933742Y-356707D01*
X-933209D01*
G01X-935406D02*
Y-354207D01*
X-935938D01*
X-936151Y-354332D01*
X-936311Y-354499D01*
X-936444Y-354749D01*
X-936551Y-355041D01*
X-936578Y-355457D01*
X-936551Y-355874D01*
X-936444Y-356166D01*
X-936311Y-356416D01*
X-936151Y-356582D01*
X-935938Y-356707D01*
X-935406D01*
G01X-924662Y-363099D02*
X-923596D01*
Y-360599D01*
X-924662D01*
G01X-924235Y-361807D02*
X-923596D01*
G01X-925793Y-360599D02*
Y-363099D01*
X-926858D01*
G01X-927856Y-360599D02*
X-928522Y-363099D01*
X-929188Y-360599D01*
G01X-930160Y-362766D02*
X-930373Y-362974D01*
X-930613Y-363099D01*
X-930826D01*
X-931039Y-362974D01*
X-931199Y-362766D01*
X-931279Y-362474D01*
X-931225Y-362182D01*
X-931092Y-361932D01*
X-930852Y-361765D01*
X-930533Y-361682D01*
X-930346Y-361516D01*
X-930266Y-361224D01*
X-930320Y-360932D01*
X-930453Y-360724D01*
X-930639Y-360599D01*
X-930826D01*
X-931012Y-360682D01*
X-931172Y-360891D01*
G01X-932357Y-362766D02*
X-932570Y-362974D01*
X-932809Y-363099D01*
X-933023D01*
X-933236Y-362974D01*
X-933396Y-362766D01*
X-933475Y-362474D01*
X-933422Y-362182D01*
X-933289Y-361932D01*
X-933049Y-361765D01*
X-932730Y-361682D01*
X-932543Y-361516D01*
X-932463Y-361224D01*
X-932516Y-360932D01*
X-932650Y-360724D01*
X-932836Y-360599D01*
X-933023D01*
X-933209Y-360682D01*
X-933369Y-360891D01*
G01X-914318Y-369164D02*
X-914984Y-366664D01*
X-915650Y-369164D01*
G01X-915411Y-368289D02*
X-914558D01*
G01X-916515Y-366664D02*
X-917181Y-369164D01*
X-917847Y-366664D01*
G01X-918792Y-369164D02*
Y-366664D01*
X-919325D01*
X-919538Y-366789D01*
X-919698Y-366956D01*
X-919831Y-367206D01*
X-919937Y-367497D01*
X-919964Y-367914D01*
X-919937Y-368331D01*
X-919831Y-368622D01*
X-919698Y-368872D01*
X-919538Y-369039D01*
X-919325Y-369164D01*
X-918792D01*
G01X-920989D02*
Y-366664D01*
X-921522D01*
X-921735Y-366789D01*
X-921894Y-366956D01*
X-922028Y-367206D01*
X-922134Y-367497D01*
X-922161Y-367914D01*
X-922134Y-368331D01*
X-922028Y-368622D01*
X-921894Y-368872D01*
X-921735Y-369039D01*
X-921522Y-369164D01*
X-920989D01*
G01X-922972Y-369997D02*
X-924571D01*
G01X-926501Y-369164D02*
X-925436D01*
Y-366664D01*
X-926501D01*
G01X-926075Y-367872D02*
X-925436D01*
G01X-927552Y-369164D02*
Y-366664D01*
X-928778Y-369164D01*
Y-366664D01*
G01X-916185Y-372029D02*
X-916851Y-374529D01*
X-917517Y-372029D01*
G01X-918461Y-374529D02*
Y-372029D01*
X-918994D01*
X-919207Y-372154D01*
X-919367Y-372321D01*
X-919500Y-372571D01*
X-919607Y-372863D01*
X-919634Y-373279D01*
X-919607Y-373696D01*
X-919500Y-373988D01*
X-919367Y-374238D01*
X-919207Y-374404D01*
X-918994Y-374529D01*
X-918461D01*
G01X-920658D02*
Y-372029D01*
X-921191D01*
X-921404Y-372154D01*
X-921564Y-372321D01*
X-921697Y-372571D01*
X-921804Y-372863D01*
X-921831Y-373279D01*
X-921804Y-373696D01*
X-921697Y-373988D01*
X-921564Y-374238D01*
X-921404Y-374404D01*
X-921191Y-374529D01*
X-920658D01*
G01X-923122Y-372029D02*
X-923761D01*
G01X-923441D02*
Y-374529D01*
G01X-923122D02*
X-923761D01*
G01X-925638D02*
X-925425Y-374488D01*
X-925238Y-374321D01*
X-925079Y-374071D01*
X-924972Y-373779D01*
X-924919Y-373446D01*
Y-373112D01*
X-924972Y-372779D01*
X-925079Y-372488D01*
X-925238Y-372238D01*
X-925425Y-372071D01*
X-925638Y-372029D01*
X-925851Y-372071D01*
X-926038Y-372238D01*
X-926197Y-372488D01*
X-926304Y-372779D01*
X-926357Y-373112D01*
Y-373446D01*
X-926304Y-373779D01*
X-926197Y-374071D01*
X-926038Y-374321D01*
X-925851Y-374488D01*
X-925638Y-374529D01*
G01X-909359Y-382180D02*
X-908293D01*
Y-379680D01*
X-909359D01*
G01X-908933Y-380889D02*
X-908293D01*
G01X-910490Y-382180D02*
Y-379680D01*
X-911156D01*
X-911369Y-379805D01*
X-911502Y-379972D01*
X-911556Y-380305D01*
X-911502Y-380639D01*
X-911342Y-380847D01*
X-911156Y-380972D01*
X-910490D01*
G01X-911156D02*
X-911556Y-382180D01*
G01X-912687D02*
Y-379680D01*
X-913353D01*
X-913566Y-379805D01*
X-913699Y-379972D01*
X-913752Y-380305D01*
X-913699Y-380639D01*
X-913539Y-380847D01*
X-913353Y-380972D01*
X-912687D01*
G01X-913353D02*
X-913752Y-382180D01*
G01X-914617Y-383014D02*
X-916216D01*
G01X-917107Y-382180D02*
Y-379680D01*
X-918119D01*
G01X-917746Y-380889D02*
X-917107D01*
G01X-919970Y-380930D02*
X-920503D01*
Y-381680D01*
X-920343Y-381930D01*
X-920156Y-382097D01*
X-919890Y-382180D01*
X-919624Y-382097D01*
X-919437Y-381930D01*
X-919277Y-381680D01*
X-919171Y-381389D01*
X-919117Y-381055D01*
Y-380764D01*
X-919171Y-380514D01*
X-919277Y-380222D01*
X-919437Y-379972D01*
X-919597Y-379805D01*
X-919810Y-379680D01*
X-919997D01*
X-920210Y-379764D01*
X-920369Y-379930D01*
G01X-908620Y-386819D02*
Y-389319D01*
X-909686D01*
G01X-911936Y-387027D02*
X-911776Y-386902D01*
X-911589Y-386819D01*
X-911376D01*
X-911136Y-386944D01*
X-910950Y-387152D01*
X-910817Y-387402D01*
X-910710Y-387819D01*
X-910684Y-388194D01*
X-910737Y-388569D01*
X-910817Y-388819D01*
X-910977Y-389069D01*
X-911163Y-389236D01*
X-911350Y-389319D01*
X-911536D01*
X-911723Y-389236D01*
X-911882Y-389110D01*
X-912016Y-388944D01*
G01X-912960Y-389319D02*
Y-386819D01*
X-913493D01*
X-913706Y-386944D01*
X-913866Y-387110D01*
X-913999Y-387360D01*
X-914106Y-387652D01*
X-914132Y-388069D01*
X-914106Y-388486D01*
X-913999Y-388777D01*
X-913866Y-389027D01*
X-913706Y-389194D01*
X-913493Y-389319D01*
X-912960D01*
G01X-914944Y-390152D02*
X-916542D01*
G01X-917274Y-386819D02*
X-917940Y-389319D01*
X-918606Y-386819D01*
G01X-920723Y-387027D02*
X-920563Y-386902D01*
X-920377Y-386819D01*
X-920164D01*
X-919924Y-386944D01*
X-919737Y-387152D01*
X-919604Y-387402D01*
X-919497Y-387819D01*
X-919471Y-388194D01*
X-919524Y-388569D01*
X-919604Y-388819D01*
X-919764Y-389069D01*
X-919950Y-389236D01*
X-920137Y-389319D01*
X-920323D01*
X-920510Y-389236D01*
X-920670Y-389110D01*
X-920803Y-388944D01*
G01X-922014Y-386819D02*
X-922653D01*
G01X-922334D02*
Y-389319D01*
G01X-922014D02*
X-922653D01*
G01X-909872Y-400890D02*
X-908806D01*
Y-398390D01*
X-909872D01*
G01X-909446Y-399598D02*
X-908806D01*
G01X-911003Y-398390D02*
Y-400890D01*
X-912069D01*
G01X-913067Y-398390D02*
X-913733Y-400890D01*
X-914399Y-398390D01*
G01X-915344Y-400890D02*
Y-398390D01*
X-915876D01*
X-916089Y-398515D01*
X-916249Y-398681D01*
X-916383Y-398931D01*
X-916489Y-399223D01*
X-916516Y-399640D01*
X-916489Y-400056D01*
X-916383Y-400348D01*
X-916249Y-400598D01*
X-916089Y-400765D01*
X-915876Y-400890D01*
X-915344D01*
G01X-917540D02*
Y-398390D01*
X-918073D01*
X-918286Y-398515D01*
X-918446Y-398681D01*
X-918579Y-398931D01*
X-918686Y-399223D01*
X-918712Y-399640D01*
X-918686Y-400056D01*
X-918579Y-400348D01*
X-918446Y-400598D01*
X-918286Y-400765D01*
X-918073Y-400890D01*
X-917540D01*
G01X-985453Y-372476D02*
X-984388D01*
Y-369976D01*
X-985453D01*
G01X-985027Y-371185D02*
X-984388D01*
G01X-986584Y-369976D02*
Y-372476D01*
X-987650D01*
G01X-988648Y-369976D02*
X-989314Y-372476D01*
X-989980Y-369976D01*
G01X-990925Y-372476D02*
Y-369976D01*
X-991458D01*
X-991671Y-370101D01*
X-991830Y-370268D01*
X-991964Y-370518D01*
X-992070Y-370810D01*
X-992097Y-371226D01*
X-992070Y-371643D01*
X-991964Y-371935D01*
X-991830Y-372185D01*
X-991671Y-372351D01*
X-991458Y-372476D01*
X-990925D01*
G01X-993122D02*
Y-369976D01*
X-993654D01*
X-993867Y-370101D01*
X-994027Y-370268D01*
X-994160Y-370518D01*
X-994267Y-370810D01*
X-994294Y-371226D01*
X-994267Y-371643D01*
X-994160Y-371935D01*
X-994027Y-372185D01*
X-993867Y-372351D01*
X-993654Y-372476D01*
X-993122D01*
G01X-951282Y-374222D02*
Y-376722D01*
G01X-950669Y-374222D02*
X-951895D01*
G01X-954012Y-376722D02*
X-952946D01*
Y-374222D01*
X-954012D01*
G01X-953585Y-375430D02*
X-952946D01*
G01X-952029Y-380567D02*
Y-383067D01*
G01X-951416Y-380567D02*
X-952642D01*
G01X-953693Y-383067D02*
Y-380567D01*
X-954332D01*
X-954545Y-380692D01*
X-954705Y-380984D01*
X-954758Y-381317D01*
X-954705Y-381650D01*
X-954572Y-381900D01*
X-954332Y-382025D01*
X-953693D01*
G01X-955623Y-383900D02*
X-957222D01*
G01X-958086Y-383067D02*
Y-380567D01*
X-958752D01*
X-958966Y-380692D01*
X-959099Y-380859D01*
X-959152Y-381192D01*
X-959099Y-381525D01*
X-958939Y-381733D01*
X-958752Y-381858D01*
X-958086D01*
G01X-958752D02*
X-959152Y-383067D01*
G01X-960257Y-382734D02*
X-960470Y-382942D01*
X-960709Y-383067D01*
X-960923D01*
X-961136Y-382942D01*
X-961296Y-382734D01*
X-961375Y-382442D01*
X-961322Y-382150D01*
X-961189Y-381900D01*
X-960949Y-381733D01*
X-960630Y-381650D01*
X-960443Y-381484D01*
X-960363Y-381192D01*
X-960416Y-380900D01*
X-960550Y-380692D01*
X-960736Y-380567D01*
X-960923D01*
X-961109Y-380650D01*
X-961269Y-380859D01*
G01X-963546Y-383067D02*
X-962480D01*
Y-380567D01*
X-963546D01*
G01X-963119Y-381775D02*
X-962480D01*
G01X-954408Y-386119D02*
Y-388619D01*
G01X-953795Y-386119D02*
X-955021D01*
G01X-956072Y-388619D02*
Y-386119D01*
X-956711D01*
X-956924Y-386244D01*
X-957084Y-386536D01*
X-957138Y-386869D01*
X-957084Y-387202D01*
X-956951Y-387452D01*
X-956711Y-387577D01*
X-956072D01*
G01X-958002Y-389452D02*
X-959601D01*
G01X-960679Y-386119D02*
X-961318D01*
G01X-960998D02*
Y-388619D01*
G01X-960679D02*
X-961318D01*
G01X-962583D02*
Y-386119D01*
X-963808Y-388619D01*
Y-386119D01*
G01X-965392D02*
Y-388619D01*
G01X-964779Y-386119D02*
X-966005D01*
G01X-958374Y-390738D02*
Y-393238D01*
G01X-957761Y-390738D02*
X-958987D01*
G01X-960038Y-393238D02*
Y-390738D01*
X-960677D01*
X-960890Y-390863D01*
X-961050Y-391155D01*
X-961104Y-391488D01*
X-961050Y-391821D01*
X-960917Y-392071D01*
X-960677Y-392196D01*
X-960038D01*
G01X-961968Y-394071D02*
X-963567D01*
G01X-964272Y-393238D02*
Y-390738D01*
X-964964Y-392821D01*
X-965657Y-390738D01*
Y-393238D01*
G01X-966842Y-390738D02*
X-967481D01*
G01X-967161D02*
Y-393238D01*
G01X-966842D02*
X-967481D01*
G01X-968799Y-392905D02*
X-969012Y-393113D01*
X-969251Y-393238D01*
X-969465D01*
X-969678Y-393113D01*
X-969838Y-392905D01*
X-969917Y-392613D01*
X-969864Y-392321D01*
X-969731Y-392071D01*
X-969491Y-391905D01*
X-969172Y-391821D01*
X-968985Y-391655D01*
X-968905Y-391363D01*
X-968958Y-391071D01*
X-969092Y-390863D01*
X-969278Y-390738D01*
X-969465D01*
X-969651Y-390821D01*
X-969811Y-391030D01*
G01X-971555Y-393238D02*
X-971342Y-393196D01*
X-971155Y-393030D01*
X-970995Y-392780D01*
X-970889Y-392488D01*
X-970835Y-392155D01*
Y-391821D01*
X-970889Y-391488D01*
X-970995Y-391196D01*
X-971155Y-390946D01*
X-971342Y-390780D01*
X-971555Y-390738D01*
X-971768Y-390780D01*
X-971954Y-390946D01*
X-972114Y-391196D01*
X-972221Y-391488D01*
X-972274Y-391821D01*
Y-392155D01*
X-972221Y-392488D01*
X-972114Y-392780D01*
X-971954Y-393030D01*
X-971768Y-393196D01*
X-971555Y-393238D01*
G01X-970411Y-396990D02*
Y-399490D01*
G01X-969798Y-396990D02*
X-971024D01*
G01X-972075Y-399490D02*
Y-396990D01*
X-972714D01*
X-972927Y-397115D01*
X-973087Y-397406D01*
X-973140Y-397740D01*
X-973087Y-398073D01*
X-972954Y-398323D01*
X-972714Y-398448D01*
X-972075D01*
G01X-974005Y-400323D02*
X-975604D01*
G01X-977587Y-397198D02*
X-977427Y-397073D01*
X-977241Y-396990D01*
X-977028D01*
X-976788Y-397115D01*
X-976602Y-397323D01*
X-976468Y-397573D01*
X-976362Y-397990D01*
X-976335Y-398365D01*
X-976388Y-398740D01*
X-976468Y-398990D01*
X-976628Y-399240D01*
X-976815Y-399406D01*
X-977001Y-399490D01*
X-977188D01*
X-977374Y-399406D01*
X-977534Y-399281D01*
X-977667Y-399115D01*
G01X-978639Y-399156D02*
X-978852Y-399365D01*
X-979091Y-399490D01*
X-979305D01*
X-979518Y-399365D01*
X-979678Y-399156D01*
X-979757Y-398865D01*
X-979704Y-398573D01*
X-979571Y-398323D01*
X-979331Y-398156D01*
X-979012Y-398073D01*
X-978825Y-397906D01*
X-978745Y-397615D01*
X-978798Y-397323D01*
X-978932Y-397115D01*
X-979118Y-396990D01*
X-979305D01*
X-979491Y-397073D01*
X-979651Y-397281D01*
G01X-978222Y-404212D02*
X-978755D01*
Y-404962D01*
X-978595Y-405212D01*
X-978408Y-405378D01*
X-978142Y-405462D01*
X-977875Y-405378D01*
X-977689Y-405212D01*
X-977529Y-404962D01*
X-977423Y-404670D01*
X-977369Y-404337D01*
Y-404045D01*
X-977423Y-403795D01*
X-977529Y-403503D01*
X-977689Y-403253D01*
X-977849Y-403087D01*
X-978062Y-402962D01*
X-978249D01*
X-978462Y-403045D01*
X-978621Y-403212D01*
G01X-979646Y-405462D02*
Y-402962D01*
X-980872Y-405462D01*
Y-402962D01*
G01X-981870Y-405462D02*
Y-402962D01*
X-982402D01*
X-982615Y-403087D01*
X-982775Y-403253D01*
X-982908Y-403503D01*
X-983015Y-403795D01*
X-983042Y-404212D01*
X-983015Y-404628D01*
X-982908Y-404920D01*
X-982775Y-405170D01*
X-982615Y-405337D01*
X-982402Y-405462D01*
X-981870D01*
G01X-1019398Y-403242D02*
Y-405742D01*
G01X-1018786Y-403242D02*
X-1020011D01*
G01X-1021062Y-405742D02*
Y-403242D01*
X-1021702D01*
X-1021915Y-403367D01*
X-1022075Y-403658D01*
X-1022128Y-403992D01*
X-1022075Y-404325D01*
X-1021942Y-404575D01*
X-1021702Y-404700D01*
X-1021062D01*
G01X-1022993Y-406575D02*
X-1024591D01*
G01X-1025323Y-403242D02*
X-1025989Y-405742D01*
X-1026655Y-403242D01*
G01X-1028772Y-403450D02*
X-1028612Y-403325D01*
X-1028425Y-403242D01*
X-1028212D01*
X-1027973Y-403367D01*
X-1027786Y-403575D01*
X-1027653Y-403825D01*
X-1027546Y-404242D01*
X-1027520Y-404617D01*
X-1027573Y-404992D01*
X-1027653Y-405242D01*
X-1027813Y-405492D01*
X-1027999Y-405658D01*
X-1028186Y-405742D01*
X-1028372D01*
X-1028559Y-405658D01*
X-1028718Y-405533D01*
X-1028852Y-405367D01*
G01X-1030063Y-403242D02*
X-1030702D01*
G01X-1030382D02*
Y-405742D01*
G01X-1030063D02*
X-1030702D01*
G01X-1013334Y-398389D02*
Y-400889D01*
G01X-1012721Y-398389D02*
X-1013946D01*
G01X-1014998Y-400889D02*
Y-398389D01*
X-1015637D01*
X-1015850Y-398514D01*
X-1016010Y-398806D01*
X-1016063Y-399139D01*
X-1016010Y-399472D01*
X-1015877Y-399723D01*
X-1015637Y-399848D01*
X-1014998D01*
G01X-1017727Y-400889D02*
Y-398389D01*
X-1017408Y-398889D01*
G01Y-400889D02*
X-1018047D01*
G01X-1019125Y-401722D02*
X-1020723D01*
G01X-1021455Y-398389D02*
X-1022121Y-400889D01*
X-1022787Y-398389D01*
G01X-1023732Y-400889D02*
Y-398389D01*
X-1024264D01*
X-1024477Y-398514D01*
X-1024637Y-398681D01*
X-1024770Y-398931D01*
X-1024877Y-399223D01*
X-1024904Y-399639D01*
X-1024877Y-400056D01*
X-1024770Y-400348D01*
X-1024637Y-400598D01*
X-1024477Y-400764D01*
X-1024264Y-400889D01*
X-1023732D01*
G01X-1025928D02*
Y-398389D01*
X-1026461D01*
X-1026674Y-398514D01*
X-1026834Y-398681D01*
X-1026967Y-398931D01*
X-1027074Y-399223D01*
X-1027100Y-399639D01*
X-1027074Y-400056D01*
X-1026967Y-400348D01*
X-1026834Y-400598D01*
X-1026674Y-400764D01*
X-1026461Y-400889D01*
X-1025928D01*
G01X-1028392Y-398389D02*
X-1029031D01*
G01X-1028711D02*
Y-400889D01*
G01X-1028392D02*
X-1029031D01*
G01X-1030908D02*
X-1030695Y-400848D01*
X-1030508Y-400681D01*
X-1030349Y-400431D01*
X-1030242Y-400139D01*
X-1030189Y-399806D01*
Y-399472D01*
X-1030242Y-399139D01*
X-1030349Y-398848D01*
X-1030508Y-398598D01*
X-1030695Y-398431D01*
X-1030908Y-398389D01*
X-1031121Y-398431D01*
X-1031308Y-398598D01*
X-1031467Y-398848D01*
X-1031574Y-399139D01*
X-1031627Y-399472D01*
Y-399806D01*
X-1031574Y-400139D01*
X-1031467Y-400431D01*
X-1031308Y-400681D01*
X-1031121Y-400848D01*
X-1030908Y-400889D01*
G01X-1007642Y-390551D02*
Y-393051D01*
G01X-1007029Y-390551D02*
X-1008254D01*
G01X-1009306Y-393051D02*
Y-390551D01*
X-1009945D01*
X-1010158Y-390676D01*
X-1010318Y-390968D01*
X-1010371Y-391301D01*
X-1010318Y-391634D01*
X-1010185Y-391885D01*
X-1009945Y-392010D01*
X-1009306D01*
G01X-1011236Y-393884D02*
X-1012834D01*
G01X-1013912Y-390551D02*
X-1014552D01*
G01X-1014232D02*
Y-393051D01*
G01X-1013912D02*
X-1014552D01*
G01X-1015816D02*
Y-390551D01*
X-1017042Y-393051D01*
Y-390551D01*
G01X-1018626D02*
Y-393051D01*
G01X-1018013Y-390551D02*
X-1019238D01*
G01X-1003256Y-385419D02*
Y-387919D01*
G01X-1002643Y-385419D02*
X-1003869D01*
G01X-1004920Y-387919D02*
Y-385419D01*
X-1005559D01*
X-1005773Y-385544D01*
X-1005932Y-385836D01*
X-1005986Y-386169D01*
X-1005932Y-386502D01*
X-1005799Y-386753D01*
X-1005559Y-386878D01*
X-1004920D01*
G01X-1006850Y-388752D02*
X-1008449D01*
G01X-1010433Y-385628D02*
X-1010273Y-385503D01*
X-1010086Y-385419D01*
X-1009873D01*
X-1009633Y-385544D01*
X-1009447Y-385753D01*
X-1009314Y-386003D01*
X-1009207Y-386419D01*
X-1009180Y-386794D01*
X-1009234Y-387169D01*
X-1009314Y-387419D01*
X-1009473Y-387669D01*
X-1009660Y-387836D01*
X-1009846Y-387919D01*
X-1010033D01*
X-1010219Y-387836D01*
X-1010379Y-387711D01*
X-1010512Y-387544D01*
G01X-1011510Y-385419D02*
Y-387919D01*
X-1012576D01*
G01X-1013654D02*
Y-385419D01*
G01X-1014666D02*
X-1013654Y-386961D01*
G01X-1014826Y-387919D02*
X-1014107Y-386253D01*
G01X-997191Y-379541D02*
Y-382041D01*
G01X-996578Y-379541D02*
X-997804D01*
G01X-998855Y-382041D02*
Y-379541D01*
X-999494D01*
X-999707Y-379666D01*
X-999867Y-379958D01*
X-999920Y-380291D01*
X-999867Y-380624D01*
X-999734Y-380874D01*
X-999494Y-380999D01*
X-998855D01*
G01X-1000785Y-382874D02*
X-1002384D01*
G01X-1003088Y-382041D02*
Y-379541D01*
X-1003781Y-381624D01*
X-1004474Y-379541D01*
Y-382041D01*
G01X-1005978D02*
X-1005765Y-381999D01*
X-1005578Y-381832D01*
X-1005419Y-381582D01*
X-1005312Y-381291D01*
X-1005259Y-380958D01*
Y-380624D01*
X-1005312Y-380291D01*
X-1005419Y-379999D01*
X-1005578Y-379749D01*
X-1005765Y-379582D01*
X-1005978Y-379541D01*
X-1006191Y-379582D01*
X-1006378Y-379749D01*
X-1006537Y-379999D01*
X-1006644Y-380291D01*
X-1006697Y-380624D01*
Y-380958D01*
X-1006644Y-381291D01*
X-1006537Y-381582D01*
X-1006378Y-381832D01*
X-1006191Y-381999D01*
X-1005978Y-382041D01*
G01X-1007615Y-381708D02*
X-1007828Y-381916D01*
X-1008068Y-382041D01*
X-1008281D01*
X-1008494Y-381916D01*
X-1008654Y-381708D01*
X-1008734Y-381416D01*
X-1008681Y-381124D01*
X-1008548Y-380874D01*
X-1008308Y-380707D01*
X-1007988Y-380624D01*
X-1007802Y-380458D01*
X-1007722Y-380166D01*
X-1007775Y-379874D01*
X-1007908Y-379666D01*
X-1008095Y-379541D01*
X-1008281D01*
X-1008468Y-379624D01*
X-1008628Y-379832D01*
G01X-1010052Y-379541D02*
X-1010691D01*
G01X-1010372D02*
Y-382041D01*
G01X-1010052D02*
X-1010691D01*
G01X-1014106Y-445906D02*
X-1013946Y-445781D01*
X-1013759Y-445697D01*
X-1013546D01*
X-1013306Y-445822D01*
X-1013120Y-446030D01*
X-1012987Y-446281D01*
X-1012880Y-446697D01*
X-1012854Y-447072D01*
X-1012907Y-447447D01*
X-1012987Y-447697D01*
X-1013147Y-447947D01*
X-1013333Y-448114D01*
X-1013520Y-448197D01*
X-1013706D01*
X-1013893Y-448114D01*
X-1014052Y-447989D01*
X-1014186Y-447822D01*
G01X-1015184Y-445697D02*
Y-448197D01*
X-1016249D01*
G01X-1017380D02*
Y-445697D01*
X-1018020D01*
X-1018233Y-445822D01*
X-1018393Y-446114D01*
X-1018446Y-446447D01*
X-1018393Y-446780D01*
X-1018259Y-447031D01*
X-1018020Y-447156D01*
X-1017380D01*
G01X-1019311Y-449030D02*
X-1020909D01*
G01X-1021721Y-448197D02*
Y-445697D01*
X-1022254D01*
X-1022467Y-445822D01*
X-1022626Y-445989D01*
X-1022760Y-446239D01*
X-1022866Y-446531D01*
X-1022893Y-446947D01*
X-1022866Y-447364D01*
X-1022760Y-447656D01*
X-1022626Y-447906D01*
X-1022467Y-448072D01*
X-1022254Y-448197D01*
X-1021721D01*
G01X-1023971D02*
Y-445697D01*
X-1024610D01*
X-1024823Y-445822D01*
X-1024983Y-446114D01*
X-1025036Y-446447D01*
X-1024983Y-446780D01*
X-1024850Y-447031D01*
X-1024610Y-447156D01*
X-1023971D01*
G01X-1030528Y-445952D02*
X-1030369Y-445827D01*
X-1030182Y-445744D01*
X-1029969D01*
X-1029729Y-445869D01*
X-1029543Y-446077D01*
X-1029410Y-446327D01*
X-1029303Y-446744D01*
X-1029276Y-447119D01*
X-1029330Y-447494D01*
X-1029410Y-447744D01*
X-1029569Y-447994D01*
X-1029756Y-448161D01*
X-1029942Y-448244D01*
X-1030129D01*
X-1030315Y-448161D01*
X-1030475Y-448036D01*
X-1030608Y-447869D01*
G01X-1031553Y-448244D02*
Y-445744D01*
G01X-1032565D02*
X-1031553Y-447286D01*
G01X-1032725Y-448244D02*
X-1032006Y-446577D01*
G01X-1033723Y-448244D02*
Y-445744D01*
X-1034949Y-448244D01*
Y-445744D01*
G01X-1035734Y-449077D02*
X-1037332D01*
G01X-1038144Y-448244D02*
Y-445744D01*
X-1038676D01*
X-1038889Y-445869D01*
X-1039049Y-446036D01*
X-1039183Y-446286D01*
X-1039289Y-446577D01*
X-1039316Y-446994D01*
X-1039289Y-447411D01*
X-1039183Y-447702D01*
X-1039049Y-447952D01*
X-1038889Y-448119D01*
X-1038676Y-448244D01*
X-1038144D01*
G01X-1040394D02*
Y-445744D01*
X-1041033D01*
X-1041246Y-445869D01*
X-1041406Y-446161D01*
X-1041459Y-446494D01*
X-1041406Y-446827D01*
X-1041273Y-447077D01*
X-1041033Y-447202D01*
X-1040394D01*
G01X-1014333Y-459114D02*
Y-456614D01*
X-1014866D01*
X-1015079Y-456739D01*
X-1015239Y-456906D01*
X-1015372Y-457156D01*
X-1015479Y-457448D01*
X-1015505Y-457864D01*
X-1015479Y-458281D01*
X-1015372Y-458573D01*
X-1015239Y-458823D01*
X-1015079Y-458989D01*
X-1014866Y-459114D01*
X-1014333D01*
G01X-1017116Y-456614D02*
X-1016903Y-456698D01*
X-1016743Y-456906D01*
X-1016637Y-457156D01*
X-1016557Y-457489D01*
X-1016530Y-457864D01*
X-1016557Y-458239D01*
X-1016637Y-458573D01*
X-1016743Y-458823D01*
X-1016903Y-459031D01*
X-1017116Y-459114D01*
X-1017329Y-459031D01*
X-1017489Y-458823D01*
X-1017596Y-458573D01*
X-1017675Y-458239D01*
X-1017702Y-457864D01*
X-1017675Y-457489D01*
X-1017596Y-457156D01*
X-1017489Y-456906D01*
X-1017329Y-456698D01*
X-1017116Y-456614D01*
G01X-1018780Y-459114D02*
Y-456614D01*
X-1019419D01*
X-1019633Y-456739D01*
X-1019792Y-457031D01*
X-1019846Y-457364D01*
X-1019792Y-457698D01*
X-1019659Y-457948D01*
X-1019419Y-458073D01*
X-1018780D01*
G01X-1020710Y-459948D02*
X-1022309D01*
G01X-1023120Y-459114D02*
Y-456614D01*
X-1023653D01*
X-1023866Y-456739D01*
X-1024026Y-456906D01*
X-1024159Y-457156D01*
X-1024266Y-457448D01*
X-1024292Y-457864D01*
X-1024266Y-458281D01*
X-1024159Y-458573D01*
X-1024026Y-458823D01*
X-1023866Y-458989D01*
X-1023653Y-459114D01*
X-1023120D01*
G01X-1025370D02*
Y-456614D01*
X-1026010D01*
X-1026223Y-456739D01*
X-1026383Y-457031D01*
X-1026436Y-457364D01*
X-1026383Y-457698D01*
X-1026250Y-457948D01*
X-1026010Y-458073D01*
X-1025370D01*
G01X-1030243Y-464107D02*
Y-461607D01*
X-1030776D01*
X-1030989Y-461732D01*
X-1031149Y-461898D01*
X-1031282Y-462148D01*
X-1031388Y-462440D01*
X-1031415Y-462857D01*
X-1031388Y-463273D01*
X-1031282Y-463565D01*
X-1031149Y-463815D01*
X-1030989Y-463982D01*
X-1030776Y-464107D01*
X-1030243D01*
G01X-1033026Y-461607D02*
X-1032812Y-461690D01*
X-1032653Y-461898D01*
X-1032546Y-462148D01*
X-1032466Y-462482D01*
X-1032440Y-462857D01*
X-1032466Y-463232D01*
X-1032546Y-463565D01*
X-1032653Y-463815D01*
X-1032812Y-464023D01*
X-1033026Y-464107D01*
X-1033239Y-464023D01*
X-1033399Y-463815D01*
X-1033505Y-463565D01*
X-1033585Y-463232D01*
X-1033612Y-462857D01*
X-1033585Y-462482D01*
X-1033505Y-462148D01*
X-1033399Y-461898D01*
X-1033239Y-461690D01*
X-1033026Y-461607D01*
G01X-1034610Y-464107D02*
Y-461607D01*
X-1035835Y-464107D01*
Y-461607D01*
G01X-1036620Y-464940D02*
X-1038218D01*
G01X-1039030Y-464107D02*
Y-461607D01*
X-1039563D01*
X-1039776Y-461732D01*
X-1039936Y-461898D01*
X-1040069Y-462148D01*
X-1040175Y-462440D01*
X-1040202Y-462857D01*
X-1040175Y-463273D01*
X-1040069Y-463565D01*
X-1039936Y-463815D01*
X-1039776Y-463982D01*
X-1039563Y-464107D01*
X-1039030D01*
G01X-1041280D02*
Y-461607D01*
X-1041919D01*
X-1042133Y-461732D01*
X-1042292Y-462024D01*
X-1042346Y-462357D01*
X-1042292Y-462690D01*
X-1042159Y-462940D01*
X-1041919Y-463065D01*
X-1041280D01*
G01X-937977Y-218187D02*
Y-217654D01*
X-938727D01*
X-938977Y-217814D01*
X-939144Y-218000D01*
X-939227Y-218267D01*
X-939144Y-218533D01*
X-938977Y-218720D01*
X-938727Y-218879D01*
X-938435Y-218986D01*
X-938102Y-219039D01*
X-937810D01*
X-937560Y-218986D01*
X-937268Y-218879D01*
X-937018Y-218720D01*
X-936852Y-218560D01*
X-936727Y-218347D01*
Y-218160D01*
X-936810Y-217947D01*
X-936977Y-217787D01*
G01X-939227Y-216762D02*
X-936727D01*
X-939227Y-215537D01*
X-936727D01*
G01X-939227Y-214539D02*
X-936727D01*
Y-214006D01*
X-936852Y-213793D01*
X-937018Y-213633D01*
X-937268Y-213500D01*
X-937560Y-213394D01*
X-937977Y-213367D01*
X-938393Y-213394D01*
X-938685Y-213500D01*
X-938935Y-213633D01*
X-939102Y-213793D01*
X-939227Y-214006D01*
Y-214539D01*
G01X-942394Y-218693D02*
Y-218000D01*
G01Y-216496D02*
Y-215804D01*
G01Y-214299D02*
Y-213607D01*
G01X-946393Y-218693D02*
Y-218000D01*
G01Y-216496D02*
Y-215804D01*
G01Y-214299D02*
Y-213607D01*
G01X-948727Y-218666D02*
Y-218027D01*
G01Y-218347D02*
X-951227D01*
G01Y-218666D02*
Y-218027D01*
G01Y-216762D02*
X-948727D01*
X-951227Y-215537D01*
X-948727D01*
G01Y-213953D02*
X-951227D01*
G01X-948727Y-214566D02*
Y-213340D01*
G01X-952060Y-212555D02*
Y-210957D01*
G01X-951227Y-210066D02*
X-948727D01*
Y-209053D01*
G01X-949935Y-209426D02*
Y-210066D01*
G01X-951227Y-207895D02*
X-948727D01*
Y-207256D01*
X-948852Y-207043D01*
X-949143Y-206883D01*
X-949477Y-206830D01*
X-949810Y-206883D01*
X-950060Y-207016D01*
X-950185Y-207256D01*
Y-207895D01*
G01X-955227Y-219039D02*
X-952727D01*
X-954810Y-218347D01*
X-952727Y-217654D01*
X-955227D01*
G01Y-216150D02*
X-955185Y-216363D01*
X-955018Y-216549D01*
X-954768Y-216709D01*
X-954477Y-216816D01*
X-954144Y-216869D01*
X-953810D01*
X-953477Y-216816D01*
X-953185Y-216709D01*
X-952935Y-216549D01*
X-952768Y-216363D01*
X-952727Y-216150D01*
X-952768Y-215937D01*
X-952935Y-215750D01*
X-953185Y-215590D01*
X-953477Y-215484D01*
X-953810Y-215430D01*
X-954144D01*
X-954477Y-215484D01*
X-954768Y-215590D01*
X-955018Y-215750D01*
X-955185Y-215937D01*
X-955227Y-216150D01*
G01X-954894Y-214512D02*
X-955102Y-214299D01*
X-955227Y-214060D01*
Y-213846D01*
X-955102Y-213633D01*
X-954894Y-213474D01*
X-954602Y-213394D01*
X-954310Y-213447D01*
X-954060Y-213580D01*
X-953893Y-213820D01*
X-953810Y-214140D01*
X-953643Y-214326D01*
X-953352Y-214406D01*
X-953060Y-214353D01*
X-952852Y-214219D01*
X-952727Y-214033D01*
Y-213846D01*
X-952810Y-213660D01*
X-953018Y-213500D01*
G01X-952727Y-212076D02*
Y-211437D01*
G01Y-211756D02*
X-955227D01*
G01Y-212076D02*
Y-211437D01*
G01X-956727Y-218347D02*
X-959227D01*
G01X-956727Y-218959D02*
Y-217734D01*
G01X-959227Y-216683D02*
X-956727D01*
Y-216043D01*
X-956852Y-215830D01*
X-957143Y-215670D01*
X-957477Y-215617D01*
X-957810Y-215670D01*
X-958060Y-215804D01*
X-958185Y-216043D01*
Y-216683D01*
G01X-960060Y-214752D02*
Y-213154D01*
G01X-956935Y-211170D02*
X-956810Y-211330D01*
X-956727Y-211516D01*
Y-211730D01*
X-956852Y-211969D01*
X-957060Y-212156D01*
X-957310Y-212289D01*
X-957727Y-212396D01*
X-958102Y-212422D01*
X-958477Y-212369D01*
X-958727Y-212289D01*
X-958977Y-212129D01*
X-959143Y-211943D01*
X-959227Y-211756D01*
Y-211570D01*
X-959143Y-211383D01*
X-959018Y-211223D01*
X-958852Y-211090D01*
G01X-956727Y-210092D02*
X-959227D01*
Y-209027D01*
G01Y-207949D02*
X-956727D01*
G01Y-206936D02*
X-958268Y-207949D01*
G01X-959227Y-206776D02*
X-957560Y-207496D01*
G01X-960727Y-219013D02*
X-963227Y-218347D01*
X-960727Y-217681D01*
G01X-963227Y-216736D02*
X-960727D01*
Y-216203D01*
X-960852Y-215990D01*
X-961018Y-215830D01*
X-961268Y-215697D01*
X-961560Y-215590D01*
X-961977Y-215564D01*
X-962394Y-215590D01*
X-962685Y-215697D01*
X-962935Y-215830D01*
X-963102Y-215990D01*
X-963227Y-216203D01*
Y-216736D01*
G01Y-214539D02*
X-960727D01*
Y-214006D01*
X-960852Y-213793D01*
X-961018Y-213633D01*
X-961268Y-213500D01*
X-961560Y-213394D01*
X-961977Y-213367D01*
X-962394Y-213394D01*
X-962685Y-213500D01*
X-962935Y-213633D01*
X-963102Y-213793D01*
X-963227Y-214006D01*
Y-214539D01*
G01X-960727Y-212076D02*
Y-211437D01*
G01Y-211756D02*
X-963227D01*
G01Y-212076D02*
Y-211437D01*
G01Y-209559D02*
X-963185Y-209772D01*
X-963018Y-209959D01*
X-962768Y-210119D01*
X-962477Y-210225D01*
X-962144Y-210279D01*
X-961810D01*
X-961477Y-210225D01*
X-961185Y-210119D01*
X-960935Y-209959D01*
X-960768Y-209772D01*
X-960727Y-209559D01*
X-960768Y-209346D01*
X-960935Y-209160D01*
X-961185Y-209000D01*
X-961477Y-208893D01*
X-961810Y-208840D01*
X-962144D01*
X-962477Y-208893D01*
X-962768Y-209000D01*
X-963018Y-209160D01*
X-963185Y-209346D01*
X-963227Y-209559D01*
G01X-964727Y-218347D02*
X-967227D01*
G01X-964727Y-218959D02*
Y-217734D01*
G01X-967227Y-216683D02*
X-964727D01*
Y-216043D01*
X-964852Y-215830D01*
X-965143Y-215670D01*
X-965477Y-215617D01*
X-965810Y-215670D01*
X-966060Y-215804D01*
X-966185Y-216043D01*
Y-216683D01*
G01X-968060Y-214752D02*
Y-213154D01*
G01X-964727Y-212422D02*
X-967227Y-211756D01*
X-964727Y-211090D01*
G01X-964935Y-208973D02*
X-964810Y-209133D01*
X-964727Y-209320D01*
Y-209533D01*
X-964852Y-209772D01*
X-965060Y-209959D01*
X-965310Y-210092D01*
X-965727Y-210199D01*
X-966102Y-210225D01*
X-966477Y-210172D01*
X-966727Y-210092D01*
X-966977Y-209932D01*
X-967143Y-209746D01*
X-967227Y-209559D01*
Y-209373D01*
X-967143Y-209186D01*
X-967018Y-209027D01*
X-966852Y-208893D01*
G01X-964727Y-207682D02*
Y-207043D01*
G01Y-207363D02*
X-967227D01*
G01Y-207682D02*
Y-207043D01*
G01X-938076Y-229937D02*
Y-229404D01*
X-938826D01*
X-939076Y-229564D01*
X-939242Y-229751D01*
X-939326Y-230017D01*
X-939242Y-230283D01*
X-939076Y-230470D01*
X-938826Y-230630D01*
X-938534Y-230736D01*
X-938201Y-230790D01*
X-937909D01*
X-937659Y-230736D01*
X-937367Y-230630D01*
X-937117Y-230470D01*
X-936951Y-230310D01*
X-936826Y-230097D01*
Y-229910D01*
X-936909Y-229697D01*
X-937076Y-229538D01*
G01X-939326Y-228513D02*
X-936826D01*
X-939326Y-227287D01*
X-936826D01*
G01X-939326Y-226289D02*
X-936826D01*
Y-225757D01*
X-936951Y-225544D01*
X-937117Y-225384D01*
X-937367Y-225250D01*
X-937659Y-225144D01*
X-938076Y-225117D01*
X-938492Y-225144D01*
X-938784Y-225250D01*
X-939034Y-225384D01*
X-939201Y-225544D01*
X-939326Y-225757D01*
Y-226289D01*
G01X-942492Y-230443D02*
Y-229751D01*
G01Y-228246D02*
Y-227554D01*
G01Y-226050D02*
Y-225357D01*
G01X-946492Y-230443D02*
Y-229751D01*
G01Y-228246D02*
Y-227554D01*
G01Y-226050D02*
Y-225357D01*
G01X-951326Y-230630D02*
X-948826D01*
Y-229964D01*
X-948951Y-229751D01*
X-949117Y-229617D01*
X-949451Y-229564D01*
X-949784Y-229617D01*
X-949992Y-229777D01*
X-950117Y-229964D01*
Y-230630D01*
G01Y-229964D02*
X-951326Y-229564D01*
G01X-950992Y-228460D02*
X-951201Y-228246D01*
X-951326Y-228007D01*
Y-227793D01*
X-951201Y-227580D01*
X-950992Y-227421D01*
X-950701Y-227341D01*
X-950409Y-227394D01*
X-950159Y-227527D01*
X-949992Y-227767D01*
X-949909Y-228087D01*
X-949742Y-228273D01*
X-949451Y-228353D01*
X-949159Y-228300D01*
X-948951Y-228166D01*
X-948826Y-227980D01*
Y-227793D01*
X-948909Y-227607D01*
X-949117Y-227447D01*
G01X-948826Y-225703D02*
X-951326D01*
G01X-948826Y-226316D02*
Y-225091D01*
G01X-955326Y-230790D02*
X-952826D01*
X-954909Y-230097D01*
X-952826Y-229404D01*
X-955326D01*
G01X-952826Y-228220D02*
Y-227580D01*
G01Y-227900D02*
X-955326D01*
G01Y-228220D02*
Y-227580D01*
G01X-954992Y-226263D02*
X-955201Y-226050D01*
X-955326Y-225810D01*
Y-225597D01*
X-955201Y-225384D01*
X-954992Y-225224D01*
X-954701Y-225144D01*
X-954409Y-225197D01*
X-954159Y-225330D01*
X-953992Y-225570D01*
X-953909Y-225890D01*
X-953742Y-226076D01*
X-953451Y-226156D01*
X-953159Y-226103D01*
X-952951Y-225970D01*
X-952826Y-225783D01*
Y-225597D01*
X-952909Y-225410D01*
X-953117Y-225250D01*
G01X-955326Y-223506D02*
X-955284Y-223720D01*
X-955117Y-223906D01*
X-954867Y-224066D01*
X-954576Y-224172D01*
X-954242Y-224226D01*
X-953909D01*
X-953576Y-224172D01*
X-953284Y-224066D01*
X-953034Y-223906D01*
X-952867Y-223720D01*
X-952826Y-223506D01*
X-952867Y-223293D01*
X-953034Y-223107D01*
X-953284Y-222947D01*
X-953576Y-222841D01*
X-953909Y-222787D01*
X-954242D01*
X-954576Y-222841D01*
X-954867Y-222947D01*
X-955117Y-223107D01*
X-955284Y-223293D01*
X-955326Y-223506D01*
G01X-957034Y-229511D02*
X-956909Y-229671D01*
X-956826Y-229857D01*
Y-230070D01*
X-956951Y-230310D01*
X-957159Y-230497D01*
X-957409Y-230630D01*
X-957826Y-230736D01*
X-958201Y-230763D01*
X-958576Y-230710D01*
X-958826Y-230630D01*
X-959076Y-230470D01*
X-959242Y-230283D01*
X-959326Y-230097D01*
Y-229910D01*
X-959242Y-229724D01*
X-959117Y-229564D01*
X-958951Y-229431D01*
G01X-958992Y-228460D02*
X-959201Y-228246D01*
X-959326Y-228007D01*
Y-227793D01*
X-959201Y-227580D01*
X-958992Y-227421D01*
X-958701Y-227341D01*
X-958409Y-227394D01*
X-958159Y-227527D01*
X-957992Y-227767D01*
X-957909Y-228087D01*
X-957742Y-228273D01*
X-957451Y-228353D01*
X-957159Y-228300D01*
X-956951Y-228166D01*
X-956826Y-227980D01*
Y-227793D01*
X-956909Y-227607D01*
X-957117Y-227447D01*
G01X-960826Y-230417D02*
Y-229777D01*
G01Y-230097D02*
X-963326D01*
G01Y-230417D02*
Y-229777D01*
G01Y-228513D02*
X-960826D01*
X-963326Y-227287D01*
X-960826D01*
G01Y-225703D02*
X-963326D01*
G01X-960826Y-226316D02*
Y-225091D01*
G01X-964826Y-230763D02*
X-967326Y-230097D01*
X-964826Y-229431D01*
G01X-967326Y-228433D02*
X-964826D01*
Y-227793D01*
X-964951Y-227580D01*
X-965242Y-227421D01*
X-965576Y-227367D01*
X-965909Y-227421D01*
X-966159Y-227554D01*
X-966284Y-227793D01*
Y-228433D01*
G01X-967326Y-226236D02*
X-964826D01*
Y-225597D01*
X-964951Y-225384D01*
X-965242Y-225224D01*
X-965576Y-225170D01*
X-965909Y-225224D01*
X-966159Y-225357D01*
X-966284Y-225597D01*
Y-226236D01*
G01X-1003040Y-324697D02*
Y-324164D01*
X-1003790D01*
X-1004040Y-324324D01*
X-1004207Y-324511D01*
X-1004290Y-324777D01*
X-1004207Y-325044D01*
X-1004040Y-325230D01*
X-1003790Y-325390D01*
X-1003498Y-325496D01*
X-1003165Y-325550D01*
X-1002873D01*
X-1002623Y-325496D01*
X-1002332Y-325390D01*
X-1002082Y-325230D01*
X-1001915Y-325070D01*
X-1001790Y-324857D01*
Y-324670D01*
X-1001873Y-324457D01*
X-1002040Y-324298D01*
G01X-1004290Y-323273D02*
X-1001790D01*
X-1004290Y-322048D01*
X-1001790D01*
G01X-1004290Y-321050D02*
X-1001790D01*
Y-320517D01*
X-1001915Y-320304D01*
X-1002082Y-320144D01*
X-1002332Y-320010D01*
X-1002623Y-319904D01*
X-1003040Y-319877D01*
X-1003457Y-319904D01*
X-1003748Y-320010D01*
X-1003998Y-320144D01*
X-1004165Y-320304D01*
X-1004290Y-320517D01*
Y-321050D01*
G01X-1005790Y-325390D02*
X-1008290D01*
Y-324324D01*
G01X-1005998Y-322074D02*
X-1005873Y-322234D01*
X-1005790Y-322420D01*
Y-322634D01*
X-1005915Y-322873D01*
X-1006123Y-323060D01*
X-1006373Y-323193D01*
X-1006790Y-323300D01*
X-1007165Y-323326D01*
X-1007540Y-323273D01*
X-1007790Y-323193D01*
X-1008040Y-323033D01*
X-1008207Y-322847D01*
X-1008290Y-322660D01*
Y-322474D01*
X-1008207Y-322287D01*
X-1008082Y-322127D01*
X-1007915Y-321994D01*
G01X-1008290Y-321050D02*
X-1005790D01*
Y-320517D01*
X-1005915Y-320304D01*
X-1006082Y-320144D01*
X-1006332Y-320010D01*
X-1006623Y-319904D01*
X-1007040Y-319877D01*
X-1007457Y-319904D01*
X-1007748Y-320010D01*
X-1007998Y-320144D01*
X-1008165Y-320304D01*
X-1008290Y-320517D01*
Y-321050D01*
G01X-1009123Y-319066D02*
Y-317467D01*
G01X-1005790Y-316736D02*
X-1008290Y-316070D01*
X-1005790Y-315404D01*
G01X-1005998Y-313287D02*
X-1005873Y-313447D01*
X-1005790Y-313633D01*
Y-313846D01*
X-1005915Y-314086D01*
X-1006123Y-314273D01*
X-1006373Y-314406D01*
X-1006790Y-314512D01*
X-1007165Y-314539D01*
X-1007540Y-314486D01*
X-1007790Y-314406D01*
X-1008040Y-314246D01*
X-1008207Y-314060D01*
X-1008290Y-313873D01*
Y-313686D01*
X-1008207Y-313500D01*
X-1008082Y-313340D01*
X-1007915Y-313207D01*
G01X-1005790Y-311996D02*
Y-311357D01*
G01Y-311676D02*
X-1008290D01*
G01Y-311996D02*
Y-311357D01*
G01X-1011040Y-324697D02*
Y-324164D01*
X-1011790D01*
X-1012040Y-324324D01*
X-1012207Y-324511D01*
X-1012290Y-324777D01*
X-1012207Y-325044D01*
X-1012040Y-325230D01*
X-1011790Y-325390D01*
X-1011498Y-325496D01*
X-1011165Y-325550D01*
X-1010873D01*
X-1010623Y-325496D01*
X-1010332Y-325390D01*
X-1010082Y-325230D01*
X-1009915Y-325070D01*
X-1009790Y-324857D01*
Y-324670D01*
X-1009873Y-324457D01*
X-1010040Y-324298D01*
G01X-1012290Y-323273D02*
X-1009790D01*
X-1012290Y-322048D01*
X-1009790D01*
G01X-1012290Y-321050D02*
X-1009790D01*
Y-320517D01*
X-1009915Y-320304D01*
X-1010082Y-320144D01*
X-1010332Y-320010D01*
X-1010623Y-319904D01*
X-1011040Y-319877D01*
X-1011457Y-319904D01*
X-1011748Y-320010D01*
X-1011998Y-320144D01*
X-1012165Y-320304D01*
X-1012290Y-320517D01*
Y-321050D01*
G01X-1013790Y-325523D02*
X-1016290Y-324857D01*
X-1013790Y-324191D01*
G01X-1016290Y-323246D02*
X-1013790D01*
Y-322714D01*
X-1013915Y-322500D01*
X-1014082Y-322340D01*
X-1014332Y-322207D01*
X-1014623Y-322101D01*
X-1015040Y-322074D01*
X-1015457Y-322101D01*
X-1015748Y-322207D01*
X-1015998Y-322340D01*
X-1016165Y-322500D01*
X-1016290Y-322714D01*
Y-323246D01*
G01Y-321050D02*
X-1013790D01*
Y-320517D01*
X-1013915Y-320304D01*
X-1014082Y-320144D01*
X-1014332Y-320010D01*
X-1014623Y-319904D01*
X-1015040Y-319877D01*
X-1015457Y-319904D01*
X-1015748Y-320010D01*
X-1015998Y-320144D01*
X-1016165Y-320304D01*
X-1016290Y-320517D01*
Y-321050D01*
G01X-1013790Y-318586D02*
Y-317947D01*
G01Y-318267D02*
X-1016290D01*
G01Y-318586D02*
Y-317947D01*
G01Y-316070D02*
X-1016248Y-316283D01*
X-1016082Y-316469D01*
X-1015832Y-316629D01*
X-1015540Y-316736D01*
X-1015207Y-316789D01*
X-1014873D01*
X-1014540Y-316736D01*
X-1014248Y-316629D01*
X-1013998Y-316469D01*
X-1013832Y-316283D01*
X-1013790Y-316070D01*
X-1013832Y-315857D01*
X-1013998Y-315670D01*
X-1014248Y-315510D01*
X-1014540Y-315404D01*
X-1014873Y-315350D01*
X-1015207D01*
X-1015540Y-315404D01*
X-1015832Y-315510D01*
X-1016082Y-315670D01*
X-1016248Y-315857D01*
X-1016290Y-316070D01*
G01X-1020290Y-325523D02*
X-1017790Y-324857D01*
X-1020290Y-324191D01*
G01X-1019415Y-324431D02*
Y-325283D01*
G01X-1017790Y-323326D02*
X-1020290Y-322660D01*
X-1017790Y-321994D01*
G01X-1020290Y-321050D02*
X-1017790D01*
Y-320517D01*
X-1017915Y-320304D01*
X-1018082Y-320144D01*
X-1018332Y-320010D01*
X-1018623Y-319904D01*
X-1019040Y-319877D01*
X-1019457Y-319904D01*
X-1019748Y-320010D01*
X-1019998Y-320144D01*
X-1020165Y-320304D01*
X-1020290Y-320517D01*
Y-321050D01*
G01Y-318853D02*
X-1017790D01*
Y-318320D01*
X-1017915Y-318107D01*
X-1018082Y-317947D01*
X-1018332Y-317814D01*
X-1018623Y-317707D01*
X-1019040Y-317680D01*
X-1019457Y-317707D01*
X-1019748Y-317814D01*
X-1019998Y-317947D01*
X-1020165Y-318107D01*
X-1020290Y-318320D01*
Y-318853D01*
G01X-1024290Y-325523D02*
X-1021790Y-324857D01*
X-1024290Y-324191D01*
G01X-1023415Y-324431D02*
Y-325283D01*
G01X-1022207Y-323166D02*
X-1021957Y-323006D01*
X-1021832Y-322820D01*
X-1021790Y-322607D01*
X-1021873Y-322340D01*
X-1022082Y-322154D01*
X-1022332Y-322101D01*
X-1022582Y-322127D01*
X-1022790Y-322234D01*
X-1023207Y-322767D01*
X-1023498Y-323006D01*
X-1023915Y-323166D01*
X-1024290Y-323220D01*
Y-322101D01*
G01X-1024373Y-320463D02*
X-1024332Y-320517D01*
X-1024248D01*
X-1024207Y-320463D01*
X-1024248Y-320410D01*
X-1024332D01*
X-1024373Y-320463D01*
G01X-1024290Y-318267D02*
X-1024248Y-318080D01*
X-1024123Y-317867D01*
X-1023915Y-317734D01*
X-1023623Y-317680D01*
X-1023332Y-317734D01*
X-1023082Y-317894D01*
X-1022957Y-318133D01*
Y-318400D01*
X-1022873Y-318560D01*
X-1022665Y-318693D01*
X-1022373Y-318746D01*
X-1022082Y-318666D01*
X-1021873Y-318480D01*
X-1021790Y-318267D01*
X-1021873Y-318054D01*
X-1022082Y-317867D01*
X-1022373Y-317787D01*
X-1022665Y-317840D01*
X-1022873Y-317974D01*
X-1022957Y-318133D01*
Y-318400D01*
X-1023082Y-318640D01*
X-1023332Y-318799D01*
X-1023623Y-318853D01*
X-1023915Y-318799D01*
X-1024123Y-318666D01*
X-1024248Y-318453D01*
X-1024290Y-318267D01*
G01X-1028290Y-325390D02*
X-1025790D01*
Y-324724D01*
X-1025915Y-324511D01*
X-1026082Y-324378D01*
X-1026415Y-324324D01*
X-1026748Y-324378D01*
X-1026957Y-324537D01*
X-1027082Y-324724D01*
Y-325390D01*
G01Y-324724D02*
X-1028290Y-324324D01*
G01Y-322127D02*
Y-323193D01*
X-1025790D01*
Y-322127D01*
G01X-1026998Y-322554D02*
Y-323193D01*
G01X-1027957Y-321023D02*
X-1028165Y-320810D01*
X-1028290Y-320570D01*
Y-320357D01*
X-1028165Y-320144D01*
X-1027957Y-319984D01*
X-1027665Y-319904D01*
X-1027373Y-319957D01*
X-1027123Y-320090D01*
X-1026957Y-320330D01*
X-1026873Y-320650D01*
X-1026707Y-320836D01*
X-1026415Y-320916D01*
X-1026123Y-320863D01*
X-1025915Y-320730D01*
X-1025790Y-320543D01*
Y-320357D01*
X-1025873Y-320170D01*
X-1026082Y-320010D01*
G01X-1028290Y-317734D02*
Y-318799D01*
X-1025790D01*
Y-317734D01*
G01X-1026998Y-318160D02*
Y-318799D01*
G01X-1025790Y-316070D02*
X-1028290D01*
G01X-1025790Y-316682D02*
Y-315457D01*
G01X-1032290Y-324324D02*
Y-325390D01*
X-1029790D01*
Y-324324D01*
G01X-1030998Y-324750D02*
Y-325390D01*
G01X-1029790Y-323193D02*
X-1032290D01*
Y-322127D01*
G01X-1029790Y-321129D02*
X-1032290Y-320463D01*
X-1029790Y-319797D01*
G01X-1032290Y-318853D02*
X-1029790D01*
Y-318320D01*
X-1029915Y-318107D01*
X-1030082Y-317947D01*
X-1030332Y-317814D01*
X-1030623Y-317707D01*
X-1031040Y-317680D01*
X-1031457Y-317707D01*
X-1031748Y-317814D01*
X-1031998Y-317947D01*
X-1032165Y-318107D01*
X-1032290Y-318320D01*
Y-318853D01*
G01Y-316656D02*
X-1029790D01*
Y-316123D01*
X-1029915Y-315910D01*
X-1030082Y-315750D01*
X-1030332Y-315617D01*
X-1030623Y-315510D01*
X-1031040Y-315484D01*
X-1031457Y-315510D01*
X-1031748Y-315617D01*
X-1031998Y-315750D01*
X-1032165Y-315910D01*
X-1032290Y-316123D01*
Y-316656D01*
G01X-1033123Y-314672D02*
Y-313074D01*
G01X-1032290Y-311143D02*
Y-312209D01*
X-1029790D01*
Y-311143D01*
G01X-1030998Y-311570D02*
Y-312209D01*
G01X-1032290Y-310092D02*
X-1029790D01*
X-1032290Y-308867D01*
X-1029790D01*
G01X-1004512Y-340994D02*
Y-342059D01*
X-1002012D01*
Y-340994D01*
G01X-1003220Y-341420D02*
Y-342059D01*
G01X-1002012Y-339862D02*
X-1004512D01*
Y-338797D01*
G01X-1002012Y-337799D02*
X-1004512Y-337133D01*
X-1002012Y-336467D01*
G01X-1004512Y-335522D02*
X-1002012D01*
Y-334989D01*
X-1002137Y-334776D01*
X-1002303Y-334616D01*
X-1002553Y-334483D01*
X-1002845Y-334377D01*
X-1003262Y-334350D01*
X-1003678Y-334377D01*
X-1003970Y-334483D01*
X-1004220Y-334616D01*
X-1004387Y-334776D01*
X-1004512Y-334989D01*
Y-335522D01*
G01Y-333325D02*
X-1002012D01*
Y-332793D01*
X-1002137Y-332580D01*
X-1002303Y-332420D01*
X-1002553Y-332286D01*
X-1002845Y-332180D01*
X-1003262Y-332153D01*
X-1003678Y-332180D01*
X-1003970Y-332286D01*
X-1004220Y-332420D01*
X-1004387Y-332580D01*
X-1004512Y-332793D01*
Y-333325D01*
G01X-1008512Y-340994D02*
Y-342059D01*
X-1006012D01*
Y-340994D01*
G01X-1007220Y-341420D02*
Y-342059D01*
G01X-1006012Y-339862D02*
X-1008512D01*
Y-338797D01*
G01X-1006012Y-337799D02*
X-1008512Y-337133D01*
X-1006012Y-336467D01*
G01X-1008512Y-335522D02*
X-1006012D01*
Y-334989D01*
X-1006137Y-334776D01*
X-1006303Y-334616D01*
X-1006553Y-334483D01*
X-1006845Y-334377D01*
X-1007262Y-334350D01*
X-1007678Y-334377D01*
X-1007970Y-334483D01*
X-1008220Y-334616D01*
X-1008387Y-334776D01*
X-1008512Y-334989D01*
Y-335522D01*
G01Y-333325D02*
X-1006012D01*
Y-332793D01*
X-1006137Y-332580D01*
X-1006303Y-332420D01*
X-1006553Y-332286D01*
X-1006845Y-332180D01*
X-1007262Y-332153D01*
X-1007678Y-332180D01*
X-1007970Y-332286D01*
X-1008220Y-332420D01*
X-1008387Y-332580D01*
X-1008512Y-332793D01*
Y-333325D01*
G01X-1012512Y-340994D02*
Y-342059D01*
X-1010012D01*
Y-340994D01*
G01X-1011220Y-341420D02*
Y-342059D01*
G01X-1010012Y-339862D02*
X-1012512D01*
Y-338797D01*
G01X-1010012Y-337799D02*
X-1012512Y-337133D01*
X-1010012Y-336467D01*
G01X-1012178Y-335496D02*
X-1012387Y-335282D01*
X-1012512Y-335043D01*
Y-334830D01*
X-1012387Y-334616D01*
X-1012178Y-334457D01*
X-1011887Y-334377D01*
X-1011595Y-334430D01*
X-1011345Y-334563D01*
X-1011178Y-334803D01*
X-1011095Y-335123D01*
X-1010928Y-335309D01*
X-1010637Y-335389D01*
X-1010345Y-335336D01*
X-1010137Y-335202D01*
X-1010012Y-335016D01*
Y-334830D01*
X-1010095Y-334643D01*
X-1010303Y-334483D01*
G01X-1012178Y-333299D02*
X-1012387Y-333086D01*
X-1012512Y-332846D01*
Y-332633D01*
X-1012387Y-332420D01*
X-1012178Y-332260D01*
X-1011887Y-332180D01*
X-1011595Y-332233D01*
X-1011345Y-332366D01*
X-1011178Y-332606D01*
X-1011095Y-332926D01*
X-1010928Y-333112D01*
X-1010637Y-333192D01*
X-1010345Y-333139D01*
X-1010137Y-333006D01*
X-1010012Y-332819D01*
Y-332633D01*
X-1010095Y-332446D01*
X-1010303Y-332286D01*
G01X-1016512Y-340994D02*
Y-342059D01*
X-1014012D01*
Y-340994D01*
G01X-1015220Y-341420D02*
Y-342059D01*
G01X-1014012Y-339862D02*
X-1016512D01*
Y-338797D01*
G01X-1014012Y-337799D02*
X-1016512Y-337133D01*
X-1014012Y-336467D01*
G01X-1016178Y-335496D02*
X-1016387Y-335282D01*
X-1016512Y-335043D01*
Y-334830D01*
X-1016387Y-334616D01*
X-1016178Y-334457D01*
X-1015887Y-334377D01*
X-1015595Y-334430D01*
X-1015345Y-334563D01*
X-1015178Y-334803D01*
X-1015095Y-335123D01*
X-1014928Y-335309D01*
X-1014637Y-335389D01*
X-1014345Y-335336D01*
X-1014137Y-335202D01*
X-1014012Y-335016D01*
Y-334830D01*
X-1014095Y-334643D01*
X-1014303Y-334483D01*
G01X-1016178Y-333299D02*
X-1016387Y-333086D01*
X-1016512Y-332846D01*
Y-332633D01*
X-1016387Y-332420D01*
X-1016178Y-332260D01*
X-1015887Y-332180D01*
X-1015595Y-332233D01*
X-1015345Y-332366D01*
X-1015178Y-332606D01*
X-1015095Y-332926D01*
X-1014928Y-333112D01*
X-1014637Y-333192D01*
X-1014345Y-333139D01*
X-1014137Y-333006D01*
X-1014012Y-332819D01*
Y-332633D01*
X-1014095Y-332446D01*
X-1014303Y-332286D01*
G01X-1020512Y-342193D02*
X-1018012Y-341526D01*
X-1020512Y-340860D01*
G01X-1019637Y-341100D02*
Y-341953D01*
G01X-1018012Y-339996D02*
X-1020512Y-339330D01*
X-1018012Y-338664D01*
G01X-1020512Y-337719D02*
X-1018012D01*
Y-337186D01*
X-1018137Y-336973D01*
X-1018303Y-336813D01*
X-1018553Y-336680D01*
X-1018845Y-336574D01*
X-1019262Y-336547D01*
X-1019678Y-336574D01*
X-1019970Y-336680D01*
X-1020220Y-336813D01*
X-1020387Y-336973D01*
X-1020512Y-337186D01*
Y-337719D01*
G01Y-335522D02*
X-1018012D01*
Y-334989D01*
X-1018137Y-334776D01*
X-1018303Y-334616D01*
X-1018553Y-334483D01*
X-1018845Y-334377D01*
X-1019262Y-334350D01*
X-1019678Y-334377D01*
X-1019970Y-334483D01*
X-1020220Y-334616D01*
X-1020387Y-334776D01*
X-1020512Y-334989D01*
Y-335522D01*
G01Y-332206D02*
Y-333272D01*
X-1018012D01*
Y-332206D01*
G01X-1019220Y-332633D02*
Y-333272D01*
G01X-1020512Y-331155D02*
X-1018012D01*
X-1020512Y-329930D01*
X-1018012D01*
G01X-1024012Y-342113D02*
X-1024303Y-341953D01*
X-1024470Y-341740D01*
X-1024512Y-341500D01*
X-1024470Y-341287D01*
X-1024262Y-341074D01*
X-1024012Y-340940D01*
X-1023762Y-340914D01*
X-1023470Y-340967D01*
X-1023262Y-341154D01*
X-1023178Y-341340D01*
Y-341580D01*
G01Y-341340D02*
X-1023053Y-341180D01*
X-1022845Y-341047D01*
X-1022595Y-340994D01*
X-1022345Y-341047D01*
X-1022137Y-341180D01*
X-1022012Y-341420D01*
X-1022053Y-341660D01*
X-1022220Y-341900D01*
G01X-1024512Y-339330D02*
X-1024470Y-339143D01*
X-1024345Y-338930D01*
X-1024137Y-338797D01*
X-1023845Y-338744D01*
X-1023553Y-338797D01*
X-1023303Y-338957D01*
X-1023178Y-339197D01*
Y-339463D01*
X-1023095Y-339623D01*
X-1022887Y-339756D01*
X-1022595Y-339809D01*
X-1022303Y-339729D01*
X-1022095Y-339543D01*
X-1022012Y-339330D01*
X-1022095Y-339117D01*
X-1022303Y-338930D01*
X-1022595Y-338850D01*
X-1022887Y-338904D01*
X-1023095Y-339037D01*
X-1023178Y-339197D01*
Y-339463D01*
X-1023303Y-339703D01*
X-1023553Y-339862D01*
X-1023845Y-339916D01*
X-1024137Y-339862D01*
X-1024345Y-339729D01*
X-1024470Y-339516D01*
X-1024512Y-339330D01*
G01Y-337826D02*
X-1022012D01*
X-1024095Y-337133D01*
X-1022012Y-336440D01*
X-1024512D01*
G01Y-334616D02*
X-1022012D01*
X-1023803Y-335602D01*
Y-334270D01*
G01X-1026220Y-340940D02*
X-1026095Y-341100D01*
X-1026012Y-341287D01*
Y-341500D01*
X-1026137Y-341740D01*
X-1026345Y-341926D01*
X-1026595Y-342059D01*
X-1027012Y-342166D01*
X-1027387Y-342193D01*
X-1027762Y-342139D01*
X-1028012Y-342059D01*
X-1028262Y-341900D01*
X-1028428Y-341713D01*
X-1028512Y-341526D01*
Y-341340D01*
X-1028428Y-341154D01*
X-1028303Y-340994D01*
X-1028137Y-340860D01*
G01X-1026012Y-339862D02*
X-1028512D01*
Y-338797D01*
G01Y-337719D02*
X-1026012D01*
G01Y-336707D02*
X-1027553Y-337719D01*
G01X-1028512Y-336547D02*
X-1026845Y-337266D01*
G01X-1028512Y-334403D02*
Y-335469D01*
X-1026012D01*
Y-334403D01*
G01X-1027220Y-334830D02*
Y-335469D01*
G01X-1028512Y-333352D02*
X-1026012D01*
X-1028512Y-332127D01*
X-1026012D01*
G01X-1030012Y-341526D02*
X-1032512D01*
G01X-1030012Y-342139D02*
Y-340914D01*
G01X-1032512Y-338797D02*
Y-339862D01*
X-1030012D01*
Y-338797D01*
G01X-1031220Y-339223D02*
Y-339862D01*
M02*
