G04 ================== begin FILE IDENTIFICATION RECORD ==================*
G04 Layout Name:  E:/rena/ZJfpc/HN0RNALTF.brd*
G04 Film Name:    stiffenerbotm*
G04 File Format:  Gerber RS274X*
G04 File Origin:  Cadence Allegro 17.2-S053*
G04 Origin Date:  Mon Mar 08 14:33:47 2021*
G04 *
G04 Layer:  BOARD GEOMETRY/STIFFENER_BOTTOM*
G04 Layer:  RIGID FLEX/STIFFENER_BOTTOM*
G04 Layer:  BOARD GEOMETRY/OUTLINE*
G04 *
G04 Offset:    (0.000 0.000)*
G04 Mirror:    No*
G04 Mode:      Positive*
G04 Rotation:  0*
G04 FullContactRelief:  No*
G04 UndefLineWidth:     6.000*
G04 ================== end FILE IDENTIFICATION RECORD ====================*
%FSLAX25Y25*MOIN*%
%IR0*IPPOS*OFA0.00000B0.00000*MIA0B0*SFA1.00000B1.00000*%
%ADD10C,.0004*%
%ADD11C,.006*%
G75*
%LPD*%
G75*
G36*
G01X-956994Y-570030D02*
X-992427D01*
G03X-993805Y-571408I0J-1378D01*
G01Y-582063D01*
G03X-992427Y-583442I1378J0D01*
G01X-956994D01*
G03X-955615Y-582063I0J1379D01*
G01Y-571408D01*
G03X-956994Y-570030I-1379J0D01*
G37*
G54D10*
G01X-902985Y-514592D02*
G01D02*
G01X-1051089Y-539360D02*
X-1051088Y-539360D01*
G01X-1051089Y-539360D02*
X-1051088Y-539360D01*
G01X-951658Y-136283D02*
Y-117989D01*
G03X-953626Y-116021I-1968J0D01*
G01X-996126D01*
G03X-998095Y-117989I0J-1969D01*
G01Y-175127D01*
G02X-999248Y-177911I-3937J0D01*
G01X-1041592Y-220255D01*
G03X-1042745Y-223038I2784J-2784D01*
G01Y-499649D01*
G03X-1041592Y-502433I3937J0D01*
G01X-994972Y-549053D01*
G02X-994395Y-550445I-1392J-1392D01*
G01Y-582063D01*
G03X-992427Y-584032I1968J0D01*
G01X-956994D01*
G03X-955025Y-582063I0J1968D01*
G01Y-550249D01*
G02X-954449Y-548858I1969J0D01*
G01X-908173Y-502582D01*
G03X-907020Y-499798I-2784J2784D01*
G01Y-223027D01*
G03X-908173Y-220243I-3937J0D01*
G01X-950505Y-177911D01*
G02X-951658Y-175127I2784J2784D01*
G01Y-136283D01*
G01X-1004888Y-271334D02*
G02Y-263538I0J3898D01*
G02Y-271334I0J-3898D01*
G01X-944889D02*
G02Y-263538I0J3898D01*
G02Y-271334I0J-3898D01*
G01X-982124Y-317026D02*
G02Y-309230I0J3898D01*
G02Y-317026I0J-3898D01*
G01X-922124D02*
G02Y-309230I0J3898D01*
G02Y-317026I0J-3898D01*
G54D11*
G01X-605135Y-695477D02*
Y-685477D01*
G01X-610385D02*
Y-695477D01*
G01Y-690477D02*
X-605135D01*
G01X-614885Y-695477D02*
Y-685477D01*
X-620635Y-695477D01*
Y-685477D01*
G01X-627760D02*
X-626760Y-685810D01*
X-626010Y-686644D01*
X-625510Y-687644D01*
X-625135Y-688977D01*
X-625010Y-690477D01*
X-625135Y-691977D01*
X-625510Y-693311D01*
X-626010Y-694311D01*
X-626760Y-695144D01*
X-627760Y-695477D01*
X-628760Y-695144D01*
X-629510Y-694311D01*
X-630010Y-693311D01*
X-630385Y-691977D01*
X-630510Y-690477D01*
X-630385Y-688977D01*
X-630010Y-687644D01*
X-629510Y-686644D01*
X-628760Y-685810D01*
X-627760Y-685477D01*
G01X-635260Y-695477D02*
Y-685477D01*
X-638385D01*
X-639385Y-685977D01*
X-640010Y-686644D01*
X-640260Y-687977D01*
X-640010Y-689311D01*
X-639260Y-690144D01*
X-638385Y-690644D01*
X-635260D01*
G01X-638385D02*
X-640260Y-695477D01*
G01X-644885D02*
Y-685477D01*
X-650635Y-695477D01*
Y-685477D01*
G01X-654635Y-695477D02*
X-657760Y-685477D01*
X-660885Y-695477D01*
G01X-659760Y-691977D02*
X-655760D01*
G01X-665260Y-685477D02*
Y-695477D01*
X-670260D01*
G01X-677760Y-685477D02*
Y-695477D01*
G01X-674885Y-685477D02*
X-680635D01*
G01X-685385Y-695477D02*
Y-685477D01*
X-690135D01*
G01X-688385Y-690310D02*
X-685385D01*
G01X-704635Y-685477D02*
X-707760Y-695477D01*
X-710885Y-685477D01*
G01X-715885Y-690977D02*
X-719885D01*
X-719510Y-689810D01*
X-718885Y-689144D01*
X-718010Y-688811D01*
X-717135Y-688977D01*
X-716385Y-689477D01*
X-715885Y-690644D01*
X-715635Y-691644D01*
Y-692644D01*
X-715885Y-693644D01*
X-716510Y-694644D01*
X-717260Y-695311D01*
X-718135Y-695477D01*
X-719010Y-695144D01*
X-719885Y-694144D01*
G01X-726010Y-695477D02*
Y-688811D01*
G01Y-690144D02*
X-726635Y-689477D01*
X-727260Y-688977D01*
X-728135Y-688811D01*
X-728760Y-688977D01*
X-729510Y-689477D01*
G01X-737760Y-695810D02*
X-737510Y-695644D01*
Y-695311D01*
X-737760Y-695144D01*
X-738010Y-695311D01*
Y-695644D01*
X-737760Y-695810D01*
G01X-744635Y-695477D02*
X-747760Y-685477D01*
X-750885Y-695477D01*
G01X-749760Y-691977D02*
X-745760D01*
G01X-765135Y-694144D02*
X-766135Y-694977D01*
X-767260Y-695477D01*
X-768260D01*
X-769260Y-694977D01*
X-770010Y-694144D01*
X-770385Y-692977D01*
X-770135Y-691811D01*
X-769510Y-690811D01*
X-768385Y-690144D01*
X-766885Y-689810D01*
X-766010Y-689144D01*
X-765635Y-687977D01*
X-765885Y-686811D01*
X-766510Y-685977D01*
X-767385Y-685477D01*
X-768260D01*
X-769135Y-685810D01*
X-769885Y-686644D01*
G01X-777760Y-685477D02*
Y-695477D01*
G01X-774885Y-685477D02*
X-780635D01*
G01X-786260D02*
X-789260D01*
G01X-787760D02*
Y-695477D01*
G01X-786260D02*
X-789260D01*
G01X-795385D02*
Y-685477D01*
X-800135D01*
G01X-798385Y-690310D02*
X-795385D01*
G01X-805385Y-695477D02*
Y-685477D01*
X-810135D01*
G01X-808385Y-690310D02*
X-805385D01*
G01X-820260Y-695477D02*
X-815260D01*
Y-685477D01*
X-820260D01*
G01X-818260Y-690310D02*
X-815260D01*
G01X-824885Y-695477D02*
Y-685477D01*
X-830635Y-695477D01*
Y-685477D01*
G01X-840260Y-695477D02*
X-835260D01*
Y-685477D01*
X-840260D01*
G01X-838260Y-690310D02*
X-835260D01*
G01X-845260Y-695477D02*
Y-685477D01*
X-848385D01*
X-849385Y-685977D01*
X-850010Y-686644D01*
X-850260Y-687977D01*
X-850010Y-689311D01*
X-849260Y-690144D01*
X-848385Y-690644D01*
X-845260D01*
G01X-848385D02*
X-850260Y-695477D01*
G01X-868760Y-690144D02*
X-869260Y-689644D01*
X-869635Y-688811D01*
X-869885Y-687644D01*
X-869635Y-686644D01*
X-869135Y-685977D01*
X-868260Y-685477D01*
X-864885D01*
Y-695477D01*
X-869010D01*
X-869885Y-694811D01*
X-870385Y-693811D01*
X-870635Y-692644D01*
X-870385Y-691477D01*
X-869635Y-690477D01*
X-868760Y-690144D01*
X-864885D01*
G01X-877760Y-695477D02*
X-876760Y-695311D01*
X-875885Y-694644D01*
X-875135Y-693644D01*
X-874635Y-692477D01*
X-874385Y-691144D01*
Y-689810D01*
X-874635Y-688477D01*
X-875135Y-687310D01*
X-875885Y-686311D01*
X-876760Y-685644D01*
X-877760Y-685477D01*
X-878760Y-685644D01*
X-879635Y-686311D01*
X-880385Y-687310D01*
X-880885Y-688477D01*
X-881135Y-689810D01*
Y-691144D01*
X-880885Y-692477D01*
X-880385Y-693644D01*
X-879635Y-694644D01*
X-878760Y-695311D01*
X-877760Y-695477D01*
G01X-887760Y-685477D02*
Y-695477D01*
G01X-884885Y-685477D02*
X-890635D01*
G01X-897760D02*
Y-695477D01*
G01X-894885Y-685477D02*
X-900635D01*
G01X-907760Y-695477D02*
X-906760Y-695311D01*
X-905885Y-694644D01*
X-905135Y-693644D01*
X-904635Y-692477D01*
X-904385Y-691144D01*
Y-689810D01*
X-904635Y-688477D01*
X-905135Y-687310D01*
X-905885Y-686311D01*
X-906760Y-685644D01*
X-907760Y-685477D01*
X-908760Y-685644D01*
X-909635Y-686311D01*
X-910385Y-687310D01*
X-910885Y-688477D01*
X-911135Y-689810D01*
Y-691144D01*
X-910885Y-692477D01*
X-910385Y-693644D01*
X-909635Y-694644D01*
X-908760Y-695311D01*
X-907760Y-695477D01*
G01X-914510D02*
Y-685477D01*
X-917760Y-693811D01*
X-921010Y-685477D01*
Y-695477D01*
M02*
