G04 ================== begin FILE IDENTIFICATION RECORD ==================*
G04 Layout Name:  E:/taolei/2021_work/05-MORGAN-FPCB/EDP/SP1MORGANTFDC.brd*
G04 Film Name:    art01*
G04 File Format:  Gerber RS274X*
G04 File Origin:  Cadence Allegro 17.2-S053*
G04 Origin Date:  Mon Mar 01 16:44:44 2021*
G04 *
G04 Layer:  VIA CLASS/TOP*
G04 Layer:  PIN/TOP*
G04 Layer:  ETCH/TOP*
G04 Layer:  BOARD GEOMETRY/OUTLINE*
G04 *
G04 Offset:    (0.00 0.00)*
G04 Mirror:    No*
G04 Mode:      Positive*
G04 Rotation:  0*
G04 FullContactRelief:  No*
G04 UndefLineWidth:     6.00*
G04 ================== end FILE IDENTIFICATION RECORD ====================*
%FSLAX25Y25*MOIN*%
%IR0*IPPOS*OFA0.00000B0.00000*MIA0B0*SFA1.00000B1.00000*%
%AMMACRO15*
4,1,6,-.00141,-.01617,
-.00652,-.01107,
-.00652,.01107,
-.00141,.01617,
.00653,.01617,
.00653,-.01617,
-.00141,-.01617,
0.0*
%
%ADD15MACRO15*%
%ADD16R,.007X.021*%
%ADD17C,.016*%
%AMMACRO12*
4,1,5,.00889,.00751,
.00889,-.00751,
-.00889,-.00751,
-.00889,.00359,
-.00496,.00751,
.00889,.00751,
0.0*
%
%ADD12MACRO12*%
%AMMACRO11*
4,1,5,.00889,.00751,
.00889,-.00751,
-.00496,-.00751,
-.00889,-.00359,
-.00889,.00751,
.00889,.00751,
0.0*
%
%ADD11MACRO11*%
%AMMACRO14*
4,1,6,.00141,.01617,
.00652,.01107,
.00652,-.01107,
.00141,-.01617,
-.00653,-.01617,
-.00653,.01617,
.00141,.01617,
0.0*
%
%ADD14MACRO14*%
%AMMACRO13*
4,1,5,-.00889,-.00751,
-.00889,.00751,
.00889,.00751,
.00889,-.00359,
.00496,-.00751,
-.00889,-.00751,
0.0*
%
%ADD13MACRO13*%
%AMMACRO10*
4,1,5,-.00889,-.00751,
-.00889,.00751,
.00496,.00751,
.00889,.00359,
.00889,-.00751,
-.00889,-.00751,
0.0*
%
%ADD10MACRO10*%
%ADD18C,.0004*%
%ADD19C,.002*%
%ADD20C,.003*%
%ADD21C,.004*%
%ADD22C,.0031*%
%ADD23C,.005*%
%ADD24C,.006*%
%ADD25C,.007*%
G75*
%LPD*%
G75*
G36*
G01X527294Y985104D02*
X528853D01*
Y973563D01*
G03X528618Y972939I928J-706D01*
G01X528425Y972746D01*
X527763D01*
X527294Y973215D01*
Y985104D01*
G37*
G36*
G01X557270Y984284D02*
X560204D01*
Y978747D01*
X557270D01*
G02X556564Y978891I0J1801D01*
G01X556551Y984134D01*
G02X557270Y984284I720J-1651D01*
G37*
G36*
G01X582477Y1029489D02*
X583816D01*
Y1023952D01*
X582477D01*
G02X580677Y1025752I0J1800D01*
G01Y1025979D01*
X580994Y1028384D01*
G03X581154Y1028910I-45952J14265D01*
G02X582477Y1029489I1323J-1222D01*
G37*
G36*
G01X530561D02*
X537995D01*
G02X539793Y1027772I0J-1800D01*
G02X539805Y1027755I-2004J-1427D01*
G02X538552Y1024039I-33844J9343D01*
G02X537325Y1023952I-782J2332D01*
G01X530561D01*
Y1029489D01*
G37*
G36*
G01X515740Y984312D02*
G02X517540Y982512I0J-1800D01*
G01Y980575D01*
G02X515740Y978775I-1800J0D01*
G01X506981D01*
Y984312D01*
X515740D01*
G37*
G36*
G01X536712Y970570D02*
Y972570D01*
X536012D01*
Y970570D01*
X536712D01*
G37*
G36*
G01X532578D02*
Y972570D01*
X531878D01*
Y970570D01*
X532578D01*
G37*
G36*
G01X551365Y1037635D02*
X552065D01*
Y1035184D01*
X552237D01*
X552278Y1035035D01*
G03X552411Y1034732I1124J313D01*
G01Y1034733D01*
G03X552452Y1034672I988J620D01*
G03X552475Y1034641I948J679D01*
G02X552472Y1034217I-40133J72D01*
G01Y1034215D01*
G02X545602Y1013227I-50686J4973D01*
G01X541017Y1007422D01*
X537115Y1003520D01*
G03X528853Y983575I19948J-19947D01*
G01Y978352D01*
X527294D01*
Y986625D01*
X528320Y993380D01*
X530090Y997782D01*
X534028Y1003046D01*
X539290Y1008308D01*
G03X550209Y1032814I-26481J26485D01*
G03X550918Y1034783I-114020J42169D01*
G02X551069Y1035184I797J-71D01*
G01X551365D01*
Y1037635D01*
G37*
G36*
G01X572034D02*
X572734D01*
Y1035184D01*
X572922D01*
X572924Y1035181D01*
Y1033239D01*
G02X565729Y1011414I-36706J2D01*
G02X565518Y1011132I-29495J21849D01*
G01X564631Y1010245D01*
X555672Y1001285D01*
G03X551173Y995207I18096J-18099D01*
G03X548725Y988468I22595J-12022D01*
G01Y988465D01*
G03X548177Y983541I25043J-5280D01*
G01X548176Y983540D01*
Y983414D01*
G03X548175Y983188I25593J-226D01*
G03X548176Y983147I852J0D01*
G01Y975145D01*
G03X548813Y973146I3457J1D01*
G01X548604Y973022D01*
X548564D01*
X547688Y973898D01*
X547794Y985562D01*
X548082Y987793D01*
G02X550242Y995788I23367J-2024D01*
G02X551377Y997644I19668J-10752D01*
G01Y997903D01*
G02X554863Y1002352I20070J-12135D01*
G01X562088Y1009577D01*
G03X563566Y1011152I-24295J24280D01*
G01X564697Y1012283D01*
G03X565238Y1013067I-30820J21846D01*
G01X565275Y1013252D01*
G03X566032Y1014301I-27469J20620D01*
G01X566034Y1014305D01*
G03X566471Y1014951I-28229J19567D01*
G03X572147Y1033863I-28671J18913D01*
G01Y1033903D01*
X572295Y1034051D01*
Y1034260D01*
X572330Y1034317D01*
X572295Y1034468D01*
Y1034613D01*
X572386Y1034832D01*
Y1035030D01*
X572034D01*
Y1037635D01*
G37*
G36*
G01X528444Y970570D02*
Y972570D01*
X527744D01*
Y970570D01*
X528444D01*
G37*
G36*
G01X532474Y972663D02*
X532792Y972981D01*
X532227Y973634D01*
X531662Y972981D01*
X531980Y972663D01*
G03X532474I247J247D01*
G37*
G36*
G01X536608D02*
X536926Y972981D01*
X536361Y973634D01*
X535796Y972981D01*
X536114Y972663D01*
G03X536608I247J247D01*
G37*
G36*
G01X556641Y975229D02*
X560364D01*
Y956973D01*
G02X559196Y955805I-1174J6D01*
G01X539511D01*
G02X538344Y956972I0J1168D01*
G01Y958453D01*
G03X535574Y961223I-2770J0D01*
G01X508015D01*
G02X506848Y962390I0J1167D01*
G01Y974380D01*
X507194Y974375D01*
X515557Y974452D01*
G02X515644Y974302I0J-100D01*
G01X515609Y974241D01*
X515604Y974235D01*
G03X515311Y973412I1011J-823D01*
G01Y973411D01*
G03X515341Y973133I1303J0D01*
G03X515372Y973016I1274J275D01*
G01X515377Y973001D01*
Y971033D01*
X515236Y970892D01*
X514382D01*
X514007Y971267D01*
Y971472D01*
X513999Y971480D01*
X513332D01*
X512914Y971062D01*
Y970362D01*
X513076Y970200D01*
X513438D01*
X513570Y970068D01*
Y967532D01*
X513404Y967366D01*
X513049D01*
X512859Y967176D01*
Y966104D01*
X513266Y965697D01*
X513773D01*
X513999Y965923D01*
Y966329D01*
X514095Y966425D01*
X515174D01*
X515377Y966222D01*
Y965166D01*
X515701Y964842D01*
X516088Y964440D01*
X517283Y964049D01*
X517289Y963983D01*
G03X518270Y962844I1297J125D01*
G03X519029Y962600I759J1058D01*
G03X519976Y963008I0J1303D01*
G03X519991Y963024I-943J899D01*
G02X520518Y963046I276J-289D01*
G03X521336Y962757I818J1013D01*
G03X521561Y962777I-2J1302D01*
G02X521730Y962728I34J-197D01*
G03X522381Y961825I1281J238D01*
G03X523053Y961638I672J1115D01*
G01X523054D01*
G03X523945Y961990I1J1302D01*
G01X523958Y962003D01*
X524027Y962031D01*
X524097Y962002D01*
X524110Y961989D01*
G03X525009Y961629I900J945D01*
G01X525011D01*
G03X526028Y962118I0J1302D01*
G02X526196Y962072I36J-197D01*
G03X527052Y961751I856J981D01*
G03X527956Y962116I0J1302D01*
G01X530948D01*
G03X531958Y961636I1010J823D01*
G03X533131Y962371I0J1304D01*
G02X533381Y962470I179J-88D01*
G03X533841Y962386I460J1219D01*
G01X533842D01*
X533843D01*
G03X535146Y963689I0J1303D01*
G03X535038Y964208I-1303J0D01*
G02X535234Y964491I395J-64D01*
G01X535222Y964649D01*
G02X535396Y964723I100J7D01*
G01X535556Y964544D01*
X536073Y964027D01*
X536448Y963549D01*
X536451Y963522D01*
G03X537743Y962386I1292J167D01*
G03X537971Y962406I0J1306D01*
G02X538088Y962300I17J-98D01*
G03X538084Y962196I1299J-102D01*
G03X539387Y960893I1303J0D01*
G03X540676Y962004I0J1303D01*
G02X540935Y962165I198J-29D01*
G03X541334Y962102I400J1240D01*
G03X542144Y962384I0J1304D01*
G03X542206Y962383I52J1300D01*
G03X543508Y963685I0J1302D01*
G01Y963687D01*
G03X543501Y963821I-1302J-1D01*
G01X543496Y963869D01*
X543885Y964258D01*
X545821D01*
X547591Y962488D01*
X556748D01*
X558734Y964466D01*
Y972024D01*
X556641Y974117D01*
Y975229D01*
G37*
G36*
G01X534634Y966996D02*
X535334D01*
Y963693D01*
X535146D01*
G03X534634Y964724I-1303J-4D01*
G01Y966996D01*
G37*
G36*
G01X549799Y977156D02*
X550474D01*
Y974881D01*
X550800Y974269D01*
X555780D01*
X558233Y971816D01*
Y964674D01*
X556541Y962990D01*
X547799D01*
X547035Y963753D01*
Y965309D01*
X547092Y965366D01*
X547722D01*
X547735Y965353D01*
Y964942D01*
X547833Y964844D01*
X548282D01*
X548413Y964975D01*
Y965199D01*
X548431Y965217D01*
X549097D01*
X549113Y965201D01*
Y964944D01*
X549215Y964842D01*
X549671D01*
X549791Y964962D01*
Y965214D01*
X549850Y965273D01*
X550462D01*
X550491Y965244D01*
Y964983D01*
X550632Y964842D01*
X551510D01*
X551834Y965166D01*
Y966222D01*
X552037Y966425D01*
X553116D01*
X553212Y966329D01*
Y965923D01*
X553438Y965697D01*
X553945D01*
X554352Y966104D01*
Y967176D01*
X554162Y967366D01*
X553807D01*
X553641Y967532D01*
Y970068D01*
X553773Y970200D01*
X554135D01*
X554297Y970362D01*
Y971062D01*
X553879Y971480D01*
X553212D01*
X553204Y971472D01*
Y971267D01*
X552829Y970892D01*
X551975D01*
X551834Y971033D01*
Y971536D01*
X551234Y972136D01*
Y972479D01*
X550786Y973220D01*
X550368Y973576D01*
G03X550117Y973918I-2376J-1481D01*
G02X549789Y974863I13913J5358D01*
G01Y977146D01*
X549799Y977156D01*
G37*
G36*
G01X550491Y964996D02*
Y966996D01*
X549791D01*
Y964996D01*
X550491D01*
G37*
G36*
G01X549113D02*
Y966996D01*
X548413D01*
Y964996D01*
X549113D01*
G37*
G36*
G01X547735D02*
Y966996D01*
X547038Y966994D01*
X547035Y964996D01*
X547735D01*
G37*
G36*
G01X522932D02*
Y966673D01*
X522232D01*
Y964996D01*
X522932D01*
G37*
G36*
G01X520939Y963481D02*
X521814D01*
G02X522520Y964173I1197J-515D01*
G01X522932Y964585D01*
Y966996D01*
X522232D01*
Y964996D01*
X522010Y964774D01*
X521641D01*
X521554Y964861D01*
Y965085D01*
X521402Y965237D01*
X521091D01*
X520854Y965000D01*
Y964037D01*
X520764Y963947D01*
Y963656D01*
X520939Y963481D01*
G37*
G36*
G01X521554Y964996D02*
Y966996D01*
X520854D01*
Y964996D01*
X521554D01*
G37*
G36*
G01X520176D02*
Y966758D01*
X519476D01*
Y964996D01*
X520176D01*
G37*
G36*
G01X518500Y963410D02*
X518981D01*
G03X519198Y963590I-396J698D01*
G01X519348Y963767D01*
X519350D01*
X520127Y964544D01*
G02X520176Y964652I1210J-484D01*
G01Y966996D01*
X519476D01*
Y964854D01*
X519450Y964828D01*
X518866D01*
X518798Y964896D01*
Y965017D01*
X518772Y965043D01*
X518144D01*
X518098Y964997D01*
Y964361D01*
X518061Y964324D01*
Y963849D01*
X518500Y963410D01*
G37*
G36*
G01X518798Y964996D02*
Y966996D01*
X518099D01*
Y964996D01*
X518798D01*
G37*
G36*
G01X529822Y970570D02*
Y972570D01*
X529820D01*
X529816Y973288D01*
X529586Y973309D01*
X529528Y973285D01*
X529122Y972570D01*
Y970570D01*
X529822D01*
G37*
G36*
G01X531200D02*
Y972570D01*
X530761Y973317D01*
X530479Y973333D01*
X530500Y972570D01*
Y970570D01*
X531200D01*
G37*
G36*
G01X535334D02*
Y972570D01*
X535049Y973136D01*
X534656Y973128D01*
X534634Y972570D01*
Y970570D01*
X535334D01*
G37*
G36*
G01X533956D02*
Y972570D01*
X533951D01*
X533975Y973239D01*
X533608Y973209D01*
X533256Y972570D01*
Y970570D01*
X533956D01*
G37*
G36*
G01X539467D02*
Y972570D01*
X539465D01*
X539189Y973131D01*
X538777Y973171D01*
X538768Y972630D01*
Y970570D01*
X539467D01*
G37*
G36*
G01X538089D02*
Y972570D01*
X538088D01*
X538064Y973288D01*
X537782Y973259D01*
X537391Y972574D01*
Y970570D01*
X538089D01*
G37*
G36*
G01X542915Y973079D02*
X543138Y973209D01*
G03X543600Y972572I1236J411D01*
G01X543601Y972570D01*
Y970570D01*
X542902D01*
Y972537D01*
Y972543D01*
X542915Y973079D01*
G37*
G36*
G01X542223Y970570D02*
Y972570D01*
X542229Y973338D01*
X541830Y973152D01*
X541524Y972572D01*
Y970570D01*
X542223D01*
G37*
G36*
G01X547235Y971843D02*
X547085Y972481D01*
X547036Y972564D01*
Y972710D01*
G03X547662Y972334I953J877D01*
G01X547235Y971843D01*
G37*
G36*
G01X547060Y972674D02*
X547247Y972825D01*
G03X547580Y972658I744J1069D01*
G01X547735Y972570D01*
Y970570D01*
X547036D01*
Y972570D01*
X547096D01*
X547060Y972674D01*
G37*
G36*
G01X545658Y970570D02*
Y972570D01*
X546219D01*
X546357Y972428D01*
Y970570D01*
X545658D01*
G37*
G36*
G01X545955Y971719D02*
X545658Y972418D01*
X545669Y972505D01*
X545658Y972530D01*
Y972538D01*
X545662Y972813D01*
X545778Y972972D01*
X546217Y972572D01*
X546212Y972526D01*
X546213D01*
X546343Y972396D01*
X545955Y971719D01*
G37*
G36*
G01X538768Y966996D02*
X539467D01*
Y964841D01*
X539911Y963977D01*
X540153Y962421D01*
X539751Y962036D01*
X538712Y962502D01*
X538845Y962994D01*
G03X539046Y963689I-1101J695D01*
G03X538852Y964373I-1303J0D01*
G01X538768Y964989D01*
Y966996D01*
G37*
G36*
G01X540147Y966994D02*
X540845D01*
Y964924D01*
X540854Y964842D01*
X541037Y964653D01*
X541333Y964357D01*
X541335D01*
X541912Y963468D01*
X541874Y963428D01*
X540647Y963071D01*
X540385Y964190D01*
X540384Y964194D01*
X540153Y964641D01*
X540146Y964918D01*
X540167Y964992D01*
X540147Y966994D01*
G37*
G36*
G01X550491Y970570D02*
Y972570D01*
X549983Y973058D01*
X549763Y973020D01*
X549791Y972570D01*
Y970570D01*
X550491D01*
G37*
G36*
G01X517420D02*
Y973400D01*
X517237Y973583D01*
X516720D01*
Y970570D01*
X517420D01*
G37*
G36*
G01X532578Y964996D02*
Y966996D01*
X531878D01*
Y964996D01*
X532578D01*
G37*
G36*
G01X532726Y963992D02*
G02X533190Y963363I-768J-1052D01*
G01X533806Y964395D01*
X532795Y964336D01*
X532726Y963992D01*
G37*
G36*
G01X531200Y964996D02*
Y966713D01*
X530500D01*
Y964996D01*
X531200D01*
G37*
G36*
G01Y966996D02*
Y964551D01*
X531042Y964393D01*
X530500Y964935D01*
Y966996D01*
X531200D01*
G37*
G36*
G01X531175Y962837D02*
X531834D01*
X532435Y963433D01*
X531552Y964172D01*
X531237Y963999D01*
G02X531339Y963493I-1201J-505D01*
G02X531176Y962861I-1303J-1D01*
G01X531175Y962837D01*
G37*
G36*
G01X529719Y964688D02*
X530459Y963997D01*
X530007Y963369D01*
X529278Y963268D01*
X529145Y964013D01*
X529719Y964688D01*
G37*
G36*
G01X527949Y966346D02*
X528239D01*
X528444Y966141D01*
Y964077D01*
X527989Y963622D01*
X527704Y962763D01*
X527220Y962853D01*
X527149Y962782D01*
X526859D01*
X526654Y962987D01*
Y963277D01*
X526869Y963492D01*
X526827Y963906D01*
X527344Y963967D01*
X527744Y964367D01*
Y966141D01*
X527949Y966346D01*
G37*
G36*
G01X528444Y964996D02*
Y966996D01*
X527744D01*
Y964996D01*
X528444D01*
G37*
G36*
G01X525177Y962913D02*
X525561D01*
X525703Y963055D01*
G02X525701Y963132I1301J72D01*
G02X525929Y963869I1303J1D01*
G01X525991Y964162D01*
X525585Y964006D01*
X524937Y963357D01*
X524902D01*
X525177Y962913D01*
G37*
G36*
G01X527066Y966668D02*
Y964996D01*
X527062D01*
Y964899D01*
X526563Y964400D01*
X526366Y964597D01*
Y966668D01*
X527066D01*
G37*
G36*
G01Y964996D02*
Y966996D01*
X526366D01*
Y964996D01*
X527066D01*
G37*
G36*
G01X525688D02*
Y966730D01*
X524988D01*
Y964996D01*
X525688D01*
G37*
G36*
G01X524835Y964375D02*
X524841Y964369D01*
X525448Y964976D01*
G03X525688Y965342I-765J764D01*
G01Y966996D01*
X524988D01*
Y964900D01*
X524835Y964747D01*
Y964375D01*
G37*
G36*
G01X522923Y962923D02*
X523577Y962742D01*
X523710Y962853D01*
G02X523708Y962932I1301J72D01*
G02X523808Y963433I1303J0D01*
G01X523817Y963790D01*
X524036Y964235D01*
X523828Y964196D01*
X523179Y964042D01*
X522875Y963740D01*
X522923Y962923D01*
G37*
G36*
G01X536712Y964996D02*
Y966996D01*
X536012D01*
Y964996D01*
X536712D01*
G37*
G36*
G01X537056Y963477D02*
G03X537327Y963365I187J70D01*
G01X537918Y963639D01*
G03X537960Y963975I-84J181D01*
G01X537434Y964403D01*
X537359D01*
X536889Y964497D01*
X536712Y964991D01*
Y966804D01*
X536012D01*
Y964996D01*
X536250Y964603D01*
X536795Y963977D01*
X536808Y963940D01*
X536821Y963904D01*
X536831Y963891D01*
G02X537022Y963569I-1014J-819D01*
G02X537056Y963477I-1205J-497D01*
G37*
G36*
G01X549648Y1046089D02*
G03X548632Y1046576I-1016J-816D01*
G03X547724Y1046206I1J-1303D01*
G01X547709Y1046192D01*
X547629Y1046162D01*
X547497Y1046212D01*
X547483Y1046224D01*
G03X545375Y1045579I-851J-985D01*
G02X545152Y1045433I-193J52D01*
G03X543924Y1044938I-195J-1287D01*
G01X543201D01*
G03X540937Y1044385I-994J-841D01*
G01X540924Y1044328D01*
X540593Y1043997D01*
X539622D01*
X538998Y1043373D01*
Y1041983D01*
X538795Y1041780D01*
X537716D01*
X537620Y1041876D01*
Y1042282D01*
X537394Y1042508D01*
X536887D01*
X536480Y1042101D01*
Y1041029D01*
X536670Y1040839D01*
X537025D01*
X537191Y1040673D01*
Y1038137D01*
X537059Y1038005D01*
X536697D01*
X536535Y1037843D01*
Y1037143D01*
X536953Y1036725D01*
X537620D01*
X537628Y1036733D01*
Y1036938D01*
X538003Y1037313D01*
X538857D01*
X538998Y1037172D01*
Y1034886D01*
X539007Y1034864D01*
X539003Y1034837D01*
G03X538987Y1034637I1287J-204D01*
G01Y1034634D01*
G03X539437Y1033649I1303J0D01*
G03X539538Y1033570I852J986D01*
G01X539545Y1033565D01*
X539617Y1033493D01*
G02X539547Y1033322I-70J-71D01*
G01X530540D01*
X530470Y1033392D01*
Y1045817D01*
G02X531637Y1046984I1167J0D01*
G01X582819D01*
G02X583976Y1045963I-27J-1196D01*
G01X583979Y1045909D01*
X583978Y1033214D01*
X583771Y1033008D01*
X581644D01*
G02X581457Y1033279I0J200D01*
G01X581987Y1034672D01*
Y1045231D01*
X580864Y1046350D01*
X570908D01*
X570154Y1045596D01*
Y1044734D01*
X569322Y1043902D01*
X567745D01*
X566709Y1044938D01*
X566602D01*
X566577Y1045002D01*
G03X565362Y1045835I-1215J-470D01*
G03X564395Y1045406I0J-1304D01*
G02X564253Y1045400I-74J67D01*
G03X563363Y1045751I-890J-953D01*
G03X562466Y1045393I0J-1303D01*
G02X562323Y1045398I-69J72D01*
G03X561364Y1045819I-959J-882D01*
G03X560131Y1044938I0J-1303D01*
G01X559990D01*
G03X559895Y1044808I0J-100D01*
G01X559979Y1044540D01*
X559099Y1043530D01*
X558954Y1043217D01*
X558953Y1042918D01*
X558951Y1042908D01*
G03X558947Y1042890I5948J-1331D01*
G02X558605Y1042616I-342J76D01*
G02X558255Y1042966I0J350D01*
G02X558263Y1043042I350J2D01*
G02X558288Y1043149I6630J-1493D01*
G01X558255Y1043209D01*
X558331Y1043402D01*
X558343Y1043415D01*
G03X558635Y1043944I-965J877D01*
G03X558767Y1044503I-1171J572D01*
G02X558995Y1044938I6129J-2935D01*
G01X558697D01*
G03X557464Y1045819I-1233J-422D01*
G03X557002Y1045734I1J-1303D01*
G02X556751Y1045834I-71J187D01*
G03X554477Y1045959I-1172J-568D01*
G02X554221Y1045885I-169J107D01*
G03X552673Y1045565I-565J-1173D01*
G01X552640Y1045526D01*
X551817Y1045600D01*
X551793Y1045650D01*
G03X549844Y1046115I-1168J-577D01*
G02X549648Y1046089I-121J159D01*
G37*
G36*
G01X568600Y1041209D02*
Y1044126D01*
X567901D01*
Y1041209D01*
X568600D01*
G37*
G36*
G01X558955D02*
Y1043209D01*
X558255D01*
Y1041209D01*
X558955D01*
G37*
G36*
G01X556199Y1034298D02*
Y1037635D01*
X555499D01*
Y1034298D01*
X556199D01*
G37*
G36*
G01X568600Y1034388D02*
Y1037635D01*
X567901D01*
Y1034388D01*
X568600D01*
G37*
G36*
G01X560333Y1034405D02*
Y1037635D01*
X559633D01*
Y1034405D01*
X560333D01*
G37*
G36*
G01X564466Y1034426D02*
Y1037635D01*
X563767D01*
Y1034426D01*
X564466D01*
G37*
G36*
G01X571116Y1045848D02*
X580659D01*
X581487Y1045023D01*
Y1034881D01*
X580544Y1033938D01*
X574657D01*
Y1034823D01*
X575455Y1035621D01*
Y1037172D01*
X575596Y1037313D01*
X576450D01*
X576825Y1036938D01*
Y1036733D01*
X576833Y1036725D01*
X577500D01*
X577918Y1037143D01*
Y1037843D01*
X577756Y1038005D01*
X577394D01*
X577262Y1038137D01*
Y1040673D01*
X577428Y1040839D01*
X577783D01*
X577973Y1041029D01*
Y1042101D01*
X577566Y1042508D01*
X577059D01*
X576833Y1042282D01*
Y1041876D01*
X576737Y1041780D01*
X575658D01*
X575455Y1041983D01*
Y1043039D01*
X575131Y1043363D01*
X574253D01*
X574112Y1043222D01*
Y1042961D01*
X574083Y1042932D01*
X573471D01*
X573412Y1042991D01*
Y1043243D01*
X573292Y1043363D01*
X572836D01*
X572734Y1043261D01*
Y1043004D01*
X572718Y1042988D01*
X572052D01*
X572034Y1043006D01*
Y1043230D01*
X571903Y1043361D01*
X571454D01*
X571356Y1043263D01*
Y1042852D01*
X571343Y1042839D01*
X570713D01*
X570656Y1042896D01*
Y1045388D01*
X571116Y1045848D01*
G37*
G36*
G01X545175Y1041209D02*
Y1043209D01*
X544475D01*
Y1041209D01*
X545175D01*
G37*
G36*
G01X544560Y1044724D02*
X545435D01*
G03X546141Y1044032I1197J515D01*
G01X546553Y1043620D01*
Y1041209D01*
X545853D01*
Y1043209D01*
X545631Y1043431D01*
X545262D01*
X545175Y1043344D01*
Y1043120D01*
X545023Y1042968D01*
X544712D01*
X544475Y1043205D01*
Y1044168D01*
X544385Y1044258D01*
Y1044549D01*
X544560Y1044724D01*
G37*
G36*
G01X542419Y1041209D02*
Y1043209D01*
X541720D01*
Y1041209D01*
X542419D01*
G37*
G36*
G01X542121Y1044795D02*
X542602D01*
G02X542819Y1044615I-396J-698D01*
G01X542969Y1044438D01*
X542971D01*
X543748Y1043661D01*
G03X543797Y1043553I1210J484D01*
G01Y1041209D01*
X543097D01*
Y1043351D01*
X543071Y1043377D01*
X542487D01*
X542419Y1043309D01*
Y1043188D01*
X542393Y1043162D01*
X541765D01*
X541719Y1043208D01*
Y1043844D01*
X541682Y1043881D01*
Y1044356D01*
X542121Y1044795D01*
G37*
G36*
G01X553443Y1035635D02*
Y1037635D01*
X552743D01*
Y1035635D01*
X553024Y1035063D01*
X553407Y1035111D01*
X553443Y1035635D01*
G37*
G36*
G01X554821D02*
Y1037635D01*
X554121D01*
Y1035635D01*
X554199Y1034951D01*
X554460Y1034984D01*
X554821Y1035635D01*
G37*
G36*
G01X558955D02*
Y1037635D01*
X558255D01*
Y1035635D01*
X558284Y1035085D01*
X558576Y1035010D01*
X558955Y1035635D01*
G37*
G36*
G01X557577D02*
Y1037635D01*
X556877D01*
Y1035635D01*
X557282Y1034937D01*
X557570Y1034949D01*
X557577Y1035635D01*
G37*
G36*
G01X563088D02*
Y1037635D01*
X562389D01*
Y1035649D01*
X562346Y1035028D01*
X562636Y1034853D01*
X563088Y1035635D01*
G37*
G36*
G01X561710D02*
Y1037635D01*
X561011D01*
Y1035633D01*
X561353Y1035003D01*
X561675Y1034999D01*
X561710Y1035635D01*
G37*
G36*
G01X567222Y1035603D02*
Y1037635D01*
X566524Y1037634D01*
X566523Y1035620D01*
X566558Y1035101D01*
X566911Y1035063D01*
X566972Y1035124D01*
X567222Y1035603D01*
G37*
G36*
G01X565844Y1035635D02*
Y1037635D01*
X565145D01*
Y1035633D01*
X565560Y1034883D01*
X565709Y1034939D01*
X565844Y1035635D01*
G37*
G36*
G01X570657Y1037635D02*
X571356D01*
Y1035635D01*
X571318Y1035520D01*
G03X571113Y1035055I1067J-748D01*
G01X570962Y1034995D01*
X570664Y1035635D01*
X570657D01*
Y1037635D01*
G37*
G36*
G01X569279D02*
X569978D01*
Y1035635D01*
X569728Y1034942D01*
X569521Y1035015D01*
G03X569349Y1035430I-1272J-284D01*
G01X569279Y1035632D01*
Y1037635D01*
G37*
G36*
G01X562473Y1043832D02*
G03X562666Y1044472I-1109J684D01*
G01X563601Y1044208D01*
X563088Y1043209D01*
Y1041209D01*
X562390D01*
X562389Y1041212D01*
X562390Y1043224D01*
X562473Y1043832D01*
G37*
G36*
G01X565222Y1044897D02*
X565911Y1044172D01*
X565441Y1043802D01*
X564965D01*
X564819Y1043702D01*
X564466Y1043321D01*
Y1041408D01*
X563769D01*
X563768Y1041409D01*
X563825Y1043230D01*
G03X564666Y1044448I-464J1220D01*
G03X564655Y1044616I-1303J-1D01*
G01X565222Y1044897D01*
G37*
G36*
G01X573412Y1037635D02*
X574112D01*
Y1035635D01*
X573918Y1035090D01*
X573655Y1035058D01*
G03X573484Y1035468I-1270J-289D01*
G01X573416Y1035635D01*
X573412D01*
Y1037635D01*
G37*
G36*
G01X541041Y1035635D02*
Y1037635D01*
X540341D01*
Y1035635D01*
X540159Y1034571D01*
X540944Y1034245D01*
X541041Y1035635D01*
G37*
G36*
G01X549309D02*
Y1037635D01*
X548609D01*
Y1035635D01*
X549309D01*
G37*
G36*
G01X547931D02*
Y1037635D01*
X547231D01*
Y1035635D01*
X547931D01*
G37*
G36*
G01X546553D02*
Y1037635D01*
X545853D01*
Y1035635D01*
X546553D01*
G37*
G36*
G01X545175D02*
Y1037635D01*
X544475D01*
Y1035635D01*
X545175D01*
G37*
G36*
G01X543797D02*
Y1037635D01*
X543097D01*
Y1035635D01*
X543797D01*
G37*
G36*
G01X542419D02*
Y1037635D01*
X541720D01*
Y1035635D01*
X542419D01*
G37*
G36*
G01X556199Y1041209D02*
Y1043209D01*
X556154Y1043517D01*
X555780Y1043674D01*
X555499Y1043209D01*
Y1041209D01*
X556199D01*
G37*
G36*
G01X556347Y1044213D02*
G03X556811Y1044842I-768J1052D01*
G01X557423Y1043816D01*
X556415Y1043874D01*
X556347Y1044213D01*
G37*
G36*
G01X554821Y1041209D02*
Y1043654D01*
X554663Y1043812D01*
X554121Y1043270D01*
Y1041209D01*
X554821D01*
G37*
G36*
G01X554796Y1045368D02*
X555455D01*
X556056Y1044772D01*
X555173Y1044033D01*
X554858Y1044206D01*
G03X554960Y1044712I-1201J505D01*
G03X554797Y1045344I-1303J1D01*
G01X554796Y1045368D01*
G37*
G36*
G01X553443Y1041209D02*
Y1043209D01*
X552743D01*
Y1041209D01*
X553443D01*
G37*
G36*
G01X553340Y1043517D02*
X554080Y1044208D01*
X553628Y1044836D01*
X552899Y1044937D01*
X552766Y1044192D01*
X553340Y1043517D01*
G37*
G36*
G01X550549Y1045298D02*
X551325Y1045442D01*
X551756Y1044144D01*
X550448Y1044299D01*
X550549Y1045298D01*
G37*
G36*
G01X552065Y1041209D02*
Y1043209D01*
X551365D01*
Y1041209D01*
X552065D01*
G37*
G36*
G01X550687D02*
Y1043209D01*
X550683D01*
Y1043306D01*
X550184Y1043805D01*
X549987Y1043608D01*
Y1041209D01*
X550687D01*
G37*
G36*
G01X548798Y1045292D02*
X549182D01*
X549324Y1045150D01*
G03X549322Y1045073I1301J-72D01*
G03X549550Y1044336I1303J-1D01*
G01X549612Y1044043D01*
X549206Y1044199D01*
X548558Y1044848D01*
X548523D01*
X548798Y1045292D01*
G37*
G36*
G01X548456Y1043830D02*
X548462Y1043836D01*
X549069Y1043229D01*
G02X549309Y1042863I-765J-764D01*
G01Y1041209D01*
X548609D01*
Y1043305D01*
X548456Y1043458D01*
Y1043830D01*
G37*
G36*
G01X546544Y1045282D02*
X547198Y1045463D01*
X547331Y1045352D01*
G03X547329Y1045273I1301J-72D01*
G03X547429Y1044772I1303J0D01*
G01X547438Y1044415D01*
X547657Y1043970D01*
X547449Y1044009D01*
X546800Y1044163D01*
X546496Y1044465D01*
X546544Y1045282D01*
G37*
G36*
G01X560677Y1044728D02*
G02X560948Y1044840I187J-70D01*
G01X561539Y1044566D01*
G02X561581Y1044230I-84J-181D01*
G01X561362Y1044052D01*
X560643Y1043709D01*
X560515D01*
X560510Y1043708D01*
X560333Y1043214D01*
Y1041209D01*
X559633D01*
Y1043209D01*
X559871Y1043602D01*
X560416Y1044228D01*
X560429Y1044265D01*
X560442Y1044301D01*
X560452Y1044314D01*
G03X560643Y1044636I-1014J819D01*
G03X560677Y1044728I-1205J497D01*
G37*
G54D10*
X552523Y966637D03*
X576144Y1037276D03*
G54D20*
G01X550141Y971570D02*
Y971598D01*
G01X573776Y1036620D02*
Y1033244D01*
G02X566162Y1010571I-37558J-2D01*
G01X556274Y1000683D01*
G03X549027Y983188I17495J-17495D01*
G01X549028Y983187D01*
Y975156D01*
G03X549185Y974525I1350J1D01*
G02X549318Y974153I-1191J-636D01*
G03X549398Y973889I1325J257D01*
G01X549516Y973608D01*
G03X549609Y973510I1485J1316D01*
G02X550141Y972095I-1616J-1415D01*
G01Y971598D02*
Y972095D01*
G01X517070Y971570D02*
Y972310D01*
G01D02*
G03X516614Y973411I-1557J0D01*
G01X573776Y1036620D02*
G03X573762Y1036635I-399J-358D01*
G01X559983Y1042209D02*
Y1042237D01*
G01Y1042309D02*
Y1042372D01*
G01Y1042237D02*
Y1042309D01*
G54D11*
X514689Y970929D03*
X538310Y1041568D03*
G54D21*
G01X530987Y964681D02*
X531601Y963800D01*
G01X525338Y965034D02*
Y965968D01*
G01X523011Y963107D02*
Y962966D01*
G01Y963107D02*
X524163Y964259D01*
X524563D01*
X525338Y965034D01*
G01Y965968D02*
Y965996D01*
G01X548959Y1042209D02*
Y1042237D01*
G01Y1043171D02*
X548184Y1043946D01*
X547925D01*
X546632Y1045239D01*
G01X548959Y1042237D02*
Y1043171D01*
G54D12*
X514689Y966637D03*
X538310Y1037276D03*
G54D22*
G01X529472Y971570D02*
X529710Y973351D01*
Y982173D01*
G02X538711Y1003904I30733J0D01*
G01X545775Y1010968D01*
G03X553332Y1034287I-32200J23319D01*
G01Y1034853D01*
X553093Y1036635D01*
G01X530850Y971570D02*
G02X530849Y971572I2J2D01*
G01X530850Y971570D02*
X530610Y973352D01*
Y982173D01*
G02X539348Y1003268I29832J0D01*
G01X546462Y1010382D01*
G03X554232Y1034287I-32888J23905D01*
G01Y1034853D01*
X554471Y1036635D01*
G01X534983Y971572D02*
G03X534984Y971570I3J0D01*
G01D02*
X534744Y973352D01*
Y981814D01*
X534745Y981813D01*
G02X544015Y1004195I31653J1D01*
G01X548926Y1009106D01*
G03X558381Y1031934I-22828J22827D01*
G01Y1034889D01*
X558605Y1036635D01*
G01X533605Y971572D02*
G03X533606Y971570I3J0D01*
G01D02*
X533844Y973352D01*
Y981813D01*
G02X543378Y1004832I32553J1D01*
G01X548289Y1009743D01*
G03X557481Y1031934I-22190J22191D01*
G01Y1034838D01*
X557466Y1034853D01*
X557227Y1036635D01*
G01X539117Y971570D02*
X538878Y973352D01*
Y982025D01*
G02X548401Y1005015I32515J-1D01*
G01X552906Y1009520D01*
G03X562492Y1032664I-23143J23143D01*
G01Y1034974D01*
G01X537739Y971570D02*
X537978Y973352D01*
Y982025D01*
G02X547764Y1005652I33415J0D01*
G01X552269Y1010157D01*
G03X561592Y1032664I-22506J22507D01*
G01Y1034869D01*
X561360Y1036635D01*
G01X543251Y971570D02*
X543012Y973210D01*
Y983734D01*
G02X551696Y1004698I29648J-1D01*
G01X556164Y1009166D01*
G03X566619Y1034408I-25241J25241D01*
G01Y1034839D01*
X566872Y1036635D01*
G01X541873Y971570D02*
X542112Y973350D01*
Y983735D01*
G02X551059Y1005335I30548J0D01*
G01X555527Y1009803D01*
G03X565719Y1034408I-24604J24605D01*
G01Y1034945D01*
X565494Y1036635D01*
G01X547385Y971570D02*
Y972282D01*
G01Y972562D02*
Y972518D01*
G01D02*
Y972430D01*
G01D02*
Y972282D01*
G01X571006Y1036635D02*
X570860Y1034884D01*
X570807Y1034730D01*
G03X570796Y1034689I295J-101D01*
G01Y1033470D01*
G02X561417Y1010827I-32022J0D01*
G01X561418D01*
X553903Y1003312D01*
G03X546644Y986357I17545J-17543D01*
G03X546637Y985768I24804J-589D01*
G01X546636Y985769D01*
Y973311D01*
X547385Y972562D01*
G01X546007Y971570D02*
X545736Y973136D01*
Y986371D01*
X545743Y986378D01*
G02X553266Y1003949I25704J-609D01*
G01X560781Y1011464D01*
G03X569896Y1033470I-22007J22006D01*
G01Y1034693D01*
G03X569879Y1034792I-309J-2D01*
G01Y1034793D01*
X569805Y1034912D01*
X569628Y1036635D01*
G01X562492Y1034974D02*
X562738Y1036635D01*
G54D13*
X552523Y970929D03*
X576144Y1041568D03*
G54D23*
G01X526716Y965434D02*
G02X526338Y964520I-1292J-1D01*
G01X525011Y963193D01*
G01D02*
Y962932D01*
G01X554471Y1042904D02*
X555462Y1045265D01*
G01X554471Y1042209D02*
Y1042237D01*
G01X555522Y1045290D02*
X555579Y1045266D01*
G01X555462Y1045265D02*
X555522Y1045290D01*
G01X554471Y1042237D02*
Y1042904D01*
G01X550337Y1042209D02*
Y1042237D01*
G01Y1042771D02*
G03X549959Y1043685I-1292J1D01*
G01X548632Y1045012D01*
G01X550337Y1042464D02*
Y1042771D01*
G01X548632Y1045012D02*
Y1045273D01*
G01X550337Y1042237D02*
Y1042464D01*
G54D14*
X513823Y968783D03*
X537444Y1039422D03*
G54D24*
G01X556540Y917138D02*
X557540Y916305D01*
X558665Y915805D01*
X559665D01*
X560665Y916305D01*
X561415Y917138D01*
X561790Y918305D01*
X561540Y919471D01*
X560915Y920472D01*
X559790Y921138D01*
X558290Y921472D01*
X557415Y922138D01*
X557040Y923305D01*
X557290Y924472D01*
X557915Y925305D01*
X558790Y925805D01*
X559665D01*
X560540Y925472D01*
X561290Y924638D01*
G01X566665Y915805D02*
Y925805D01*
X569665D01*
X570665Y925305D01*
X571415Y924138D01*
X571665Y922805D01*
X571415Y921472D01*
X570790Y920472D01*
X569665Y919971D01*
X566665D01*
G01X579165Y915805D02*
Y925805D01*
X577665Y923805D01*
G01Y915805D02*
X580665D01*
G01X585915D02*
Y925805D01*
X589165Y917472D01*
X592415Y925805D01*
Y915805D01*
G01X599165D02*
X598165Y915972D01*
X597290Y916638D01*
X596540Y917638D01*
X596040Y918805D01*
X595790Y920138D01*
Y921472D01*
X596040Y922805D01*
X596540Y923972D01*
X597290Y924972D01*
X598165Y925638D01*
X599165Y925805D01*
X600165Y925638D01*
X601040Y924972D01*
X601790Y923972D01*
X602290Y922805D01*
X602540Y921472D01*
Y920138D01*
X602290Y918805D01*
X601790Y917638D01*
X601040Y916638D01*
X600165Y915972D01*
X599165Y915805D01*
G01X606665D02*
Y925805D01*
X609790D01*
X610790Y925305D01*
X611415Y924638D01*
X611665Y923305D01*
X611415Y921972D01*
X610665Y921138D01*
X609790Y920638D01*
X606665D01*
G01X609790D02*
X611665Y915805D01*
G01X619915Y920805D02*
X622415D01*
Y917805D01*
X621665Y916805D01*
X620790Y916138D01*
X619540Y915805D01*
X618290Y916138D01*
X617415Y916805D01*
X616665Y917805D01*
X616165Y918972D01*
X615915Y920305D01*
Y921472D01*
X616165Y922471D01*
X616665Y923638D01*
X617415Y924638D01*
X618165Y925305D01*
X619165Y925805D01*
X620040D01*
X621040Y925472D01*
X621790Y924805D01*
G01X626040Y915805D02*
X629165Y925805D01*
X632290Y915805D01*
G01X631165Y919305D02*
X627165D01*
G01X636290Y915805D02*
Y925805D01*
X642040Y915805D01*
Y925805D01*
G01X646790Y915805D02*
Y925805D01*
X651540D01*
G01X649790Y920972D02*
X646790D01*
G01X656415Y915805D02*
Y925805D01*
X658915D01*
X659915Y925305D01*
X660665Y924638D01*
X661290Y923638D01*
X661790Y922471D01*
X661915Y920805D01*
X661790Y919138D01*
X661290Y917972D01*
X660665Y916971D01*
X659915Y916305D01*
X658915Y915805D01*
X656415D01*
G01X671915Y924972D02*
X671165Y925472D01*
X670290Y925805D01*
X669290D01*
X668165Y925305D01*
X667290Y924472D01*
X666665Y923472D01*
X666165Y921805D01*
X666040Y920305D01*
X666290Y918805D01*
X666665Y917805D01*
X667415Y916805D01*
X668290Y916138D01*
X669165Y915805D01*
X670040D01*
X670915Y916138D01*
X671665Y916638D01*
X672290Y917305D01*
G01X686040Y925805D02*
X689165Y915805D01*
X692290Y925805D01*
G01X701665Y915805D02*
X696665D01*
Y925805D01*
X701665D01*
G01X699665Y920972D02*
X696665D01*
G01X706665Y915805D02*
Y925805D01*
X709790D01*
X710790Y925305D01*
X711415Y924638D01*
X711665Y923305D01*
X711415Y921972D01*
X710665Y921138D01*
X709790Y920638D01*
X706665D01*
G01X709790D02*
X711665Y915805D01*
G01X719165Y915472D02*
X718915Y915638D01*
Y915972D01*
X719165Y916138D01*
X719415Y915972D01*
Y915638D01*
X719165Y915472D01*
G01X726040Y915805D02*
X729165Y925805D01*
X732290Y915805D01*
G01X731165Y919305D02*
X727165D01*
G01X746040Y915805D02*
X749165Y925805D01*
X752290Y915805D01*
G01X751165Y919305D02*
X747165D01*
G01X756665Y915805D02*
Y925805D01*
X759790D01*
X760790Y925305D01*
X761415Y924638D01*
X761665Y923305D01*
X761415Y921972D01*
X760665Y921138D01*
X759790Y920638D01*
X756665D01*
G01X759790D02*
X761665Y915805D01*
G01X769165Y925805D02*
Y915805D01*
G01X766290Y925805D02*
X772040D01*
G01X775415D02*
X777165Y915805D01*
X779165Y925805D01*
X781165Y915805D01*
X782915Y925805D01*
G01X789165Y915805D02*
X788165Y915972D01*
X787290Y916638D01*
X786540Y917638D01*
X786040Y918805D01*
X785790Y920138D01*
Y921472D01*
X786040Y922805D01*
X786540Y923972D01*
X787290Y924972D01*
X788165Y925638D01*
X789165Y925805D01*
X790165Y925638D01*
X791040Y924972D01*
X791790Y923972D01*
X792290Y922805D01*
X792540Y921472D01*
Y920138D01*
X792290Y918805D01*
X791790Y917638D01*
X791040Y916638D01*
X790165Y915972D01*
X789165Y915805D01*
G01X796665D02*
Y925805D01*
X799790D01*
X800790Y925305D01*
X801415Y924638D01*
X801665Y923305D01*
X801415Y921972D01*
X800665Y921138D01*
X799790Y920638D01*
X796665D01*
G01X799790D02*
X801665Y915805D01*
G01X806415D02*
Y925805D01*
G01X811165D02*
X806415Y919638D01*
G01X811915Y915805D02*
X808540Y922471D01*
G01X829165Y925805D02*
Y915805D01*
G01X826290Y925805D02*
X832040D01*
G01X839165Y915805D02*
X838165Y915972D01*
X837290Y916638D01*
X836540Y917638D01*
X836040Y918805D01*
X835790Y920138D01*
Y921472D01*
X836040Y922805D01*
X836540Y923972D01*
X837290Y924972D01*
X838165Y925638D01*
X839165Y925805D01*
X840165Y925638D01*
X841040Y924972D01*
X841790Y923972D01*
X842290Y922805D01*
X842540Y921472D01*
Y920138D01*
X842290Y918805D01*
X841790Y917638D01*
X841040Y916638D01*
X840165Y915972D01*
X839165Y915805D01*
G01X846665D02*
Y925805D01*
X849665D01*
X850665Y925305D01*
X851415Y924138D01*
X851665Y922805D01*
X851415Y921472D01*
X850790Y920472D01*
X849665Y919971D01*
X846665D01*
G01X525338Y971598D02*
Y987365D01*
X525339Y987366D01*
X525342D01*
G02X526068Y992912I21602J-7D01*
G02X532198Y1003058I23643J-7360D01*
G01X538369Y1009229D01*
G03X548959Y1034805I-25560J25564D01*
G01Y1036607D01*
G01X523960Y971598D02*
Y987366D01*
X523962D01*
G02X524743Y993294I22982J-12D01*
G02X531223Y1004032I24968J-7743D01*
G01X538057Y1010866D01*
G03X547581Y1033872I-22996J22994D01*
G01Y1036607D01*
G01X522582Y971598D02*
Y987366D01*
X522653D01*
G02X523485Y993658I24290J-11D01*
G02X530298Y1004957I26224J-8109D01*
G01X537544Y1012203D01*
G03X546275Y1033640I-21086J21084D01*
G01X546203Y1036635D01*
G01X521204Y971598D02*
Y987366D01*
G02X522092Y994060I25739J-9D01*
G02X529273Y1005982I27617J-8511D01*
G01X536519Y1013228D01*
G03X544826Y1033624I-20061J20060D01*
G01X544825Y1036635D01*
G01X519826Y971598D02*
X519789Y971635D01*
Y988871D01*
G02X522092Y998090I25618J-1502D01*
G02X528241Y1007014I28743J-13225D01*
G01X535487Y1014260D01*
G03X543367Y1033608I-19029J19029D01*
G01X543447Y1036635D01*
G01X542069D02*
G02X531495Y1011542I-36108J441D01*
G01X527604Y1007651D01*
G03X518448Y985547I22103J-22104D01*
G01Y971599D01*
X518449Y971598D01*
G01X533024Y964028D02*
G03X533843Y963689I819J819D01*
G01X532228Y965342D02*
G03X532594Y964458I1250J0D01*
G01X533024Y964028D01*
G01X548959Y1036607D02*
Y1036635D01*
G01X547581Y1036607D02*
Y1036635D01*
G01X555849Y1042863D02*
G02X556215Y1043747I1250J0D01*
G01X556645Y1044177D01*
G01X555849Y1042209D02*
Y1042237D01*
G01X556645Y1044177D02*
G02X557464Y1044516I819J-819D01*
G01X555849Y1042237D02*
Y1042863D01*
G54D15*
X553389Y968783D03*
X577010Y1039422D03*
G54D25*
G01X528094Y971570D02*
Y971598D01*
G01X536361Y971572D02*
G03X536362Y971570I3J0D01*
G01X536361Y973546D02*
Y971572D01*
G01D02*
Y971570D01*
G01X532227Y971572D02*
Y971570D01*
G01X532228D02*
G02X532227Y971572I2J2D01*
G01D02*
Y973546D01*
G01X547993Y973598D02*
Y973892D01*
X547991Y973894D01*
G01X548763Y971598D02*
Y972828D01*
X547993Y973598D01*
G01X528094Y971598D02*
Y973546D01*
G01X534984Y965995D02*
X534983Y965996D01*
G01X544630Y964182D02*
Y965968D01*
G01X544760Y964052D02*
X544630Y964182D01*
G01X540496Y971598D02*
Y973545D01*
X540495Y973546D01*
G01X544630Y971598D02*
Y973364D01*
X544374Y973620D01*
G01X555347Y974169D02*
Y983803D01*
G02X560264Y995674I16789J0D01*
G01X570282Y1005692D01*
Y1005691D01*
G03X580231Y1033690I-37304J29022D01*
G01Y1035169D01*
G01X551441Y974169D02*
Y983132D01*
G02X557947Y998839I22213J0D01*
G01X568019Y1008911D01*
G03X576328Y1033454I-32086J24541D01*
G01Y1034792D01*
G01X552743Y974169D02*
Y982878D01*
G02X559019Y998029I21427J0D01*
G01X569008Y1008018D01*
Y1008017D01*
G03X577641Y1033424I-33063J25405D01*
G01Y1034788D01*
G01X554045Y974169D02*
Y983334D01*
G02X559646Y996856I19123J0D01*
G01X569266Y1006476D01*
G03X578952Y1033690I-36591J28354D01*
G01Y1035110D01*
G01X550139Y976502D02*
Y983295D01*
G02X556937Y999707I23210J0D01*
G01X567079Y1009849D01*
G03X574994Y1033333I-30874J23482D01*
G01Y1034713D01*
G01X529467Y964074D02*
X530036Y963505D01*
Y963493D01*
G01X529467Y964074D02*
Y965963D01*
X529472Y965968D01*
G01X553093Y1042209D02*
X553088Y1042214D01*
G01D02*
Y1044131D01*
G01D02*
X553657Y1044700D01*
Y1044712D01*
G01X551715Y1042209D02*
Y1042237D01*
G01D02*
Y1043983D01*
X550625Y1045073D01*
G54D16*
X550141Y971598D03*
X548763D03*
X547386D03*
X546008D03*
X544630D03*
X543252D03*
X541874D03*
X540496D03*
X539118D03*
X537740D03*
X536362D03*
X534984D03*
X533606D03*
X532228D03*
X530850D03*
X529472D03*
X528094D03*
X526716D03*
X525338D03*
X523960D03*
X522582D03*
X521204D03*
X519826D03*
X518449D03*
X517071D03*
Y965968D03*
X518449D03*
X519826D03*
X521204D03*
X522582D03*
X523960D03*
X525338D03*
X526716D03*
X528094D03*
X529472D03*
X530850D03*
X532228D03*
X533606D03*
X534984D03*
X536362D03*
X537740D03*
X539118D03*
X540496D03*
X541874D03*
X543252D03*
X544630D03*
X546008D03*
X547386D03*
X548763D03*
X550141D03*
X573762Y1042237D03*
X572384D03*
X571007D03*
X569629D03*
X568251D03*
X566873D03*
X565495D03*
X564117D03*
X562739D03*
X561361D03*
X559983D03*
X558605D03*
X557227D03*
X555849D03*
X554471D03*
X553093D03*
X551715D03*
X550337D03*
X548959D03*
X547581D03*
X546203D03*
X544825D03*
X543447D03*
X542070D03*
X540692D03*
Y1036607D03*
X542070D03*
X543447D03*
X544825D03*
X546203D03*
X547581D03*
X548959D03*
X550337D03*
X551715D03*
X553093D03*
X554471D03*
X555849D03*
X557227D03*
X558605D03*
X559983D03*
X561361D03*
X562739D03*
X564117D03*
X565495D03*
X566873D03*
X568251D03*
X569629D03*
X571007D03*
X572384D03*
X573762D03*
G54D17*
X535865Y962692D03*
X544760Y964052D03*
X514289Y964434D03*
X511301Y971263D03*
X513882Y972905D03*
X511544Y973625D03*
X508574Y973816D03*
X508272Y971803D03*
X513951Y962412D03*
X517013Y962450D03*
X539494Y959882D03*
X539882Y957193D03*
X543132Y961519D03*
X545306Y957098D03*
X549046Y957403D03*
X546364Y962457D03*
X558920Y963498D03*
X558903Y973801D03*
X546677Y959730D03*
X549294Y961304D03*
X556974Y1003388D03*
X535895Y1003530D03*
X528094Y973546D03*
X547991Y973894D03*
X544374Y973620D03*
X540495Y973546D03*
X536361D03*
X532227D03*
X570597Y1003274D03*
X520757Y1003474D03*
X521336Y964059D03*
X518586Y964108D03*
X539387Y962196D03*
X541334Y963405D03*
X516614Y973411D03*
X533843Y963689D03*
X531958Y962939D03*
X530036Y963493D03*
X527004Y963132D03*
X525011Y962932D03*
X523011Y962966D03*
X537743Y963689D03*
X569160Y1044948D03*
X559438Y1045133D03*
X543612Y1045729D03*
X540169Y1044894D03*
X538042Y1043676D03*
X535127Y1036699D03*
X537731Y1035514D03*
X536609Y1045769D03*
X531758Y1035900D03*
X534254Y1034176D03*
X567067Y1045695D03*
X582791Y1037863D03*
X582695Y1034306D03*
X555849Y1034712D03*
X559983Y1034658D03*
X564116Y1034710D03*
X568250Y1034730D03*
X572384Y1034770D03*
X551715Y1034712D03*
X544957Y1044146D03*
X542207Y1044097D03*
X563363Y1044448D03*
X565362Y1044532D03*
X540290Y1034634D03*
X557464Y1044516D03*
X555579Y1045266D03*
X553657Y1044712D03*
X550625Y1045073D03*
X548632Y1045273D03*
X546632Y1045239D03*
X561364Y1044516D03*
G54D18*
G01X524709Y1009319D02*
X528346Y1012632D01*
X529024Y1013249D01*
G03X529667Y1014704I-1325J1455D01*
G01Y1045819D01*
G02X531635Y1047787I1968J0D01*
G01X582816D01*
G02X584785Y1045819I1J-1969D01*
G01Y1014704D01*
G02X584142Y1013249I-1968J0D01*
G01X583465Y1012632D01*
X579827Y1009319D01*
X567394Y997997D01*
X563757Y994684D01*
X561806Y992907D01*
G03X561163Y991452I1325J-1455D01*
G01Y956974D01*
G02X559194Y955005I-1969J0D01*
G01X539509D01*
G02X537541Y956974I0J1969D01*
G01Y958454D01*
G03X535572Y960423I-1969J0D01*
G01X508013D01*
G02X506045Y962391I0J1968D01*
G01Y991452D01*
G02X506688Y992907I1968J0D01*
G01X508638Y994684D01*
X512276Y997997D01*
X524709Y1009319D01*
G54D19*
G01X581465Y1033023D02*
X583786D01*
Y1014704D01*
G02X583470Y1013989I-967J0D01*
G01X561135Y993648D01*
G03X560468Y992764I1995J-2199D01*
G03X560164Y991455I2666J-1309D01*
G01Y974705D01*
X556599D01*
Y983804D01*
G02X559002Y992104I15537J0D01*
G02X559294Y992508I11924J-8311D01*
G01X559314Y992535D01*
Y992753D01*
G02X561079Y994859I12821J-8952D01*
G01X571068Y1004848D01*
G03X571125Y1004905I-786J843D01*
G01X571434Y1005215D01*
Y1005298D01*
G03X572928Y1007362I-38459J29411D01*
G01X573304Y1007738D01*
G03X581465Y1033023I-40326J26975D01*
G01X581460Y1032877D02*
X581606Y1033023D01*
G01X581418Y1031986D02*
X582455Y1033023D01*
G01X581359Y1031078D02*
X583304Y1033023D01*
G01X581280Y1030151D02*
X583786Y1032657D01*
G01X581181Y1029204D02*
X583786Y1031809D01*
G01X581060Y1028234D02*
X583786Y1030960D01*
G01X580916Y1027242D02*
X583786Y1030112D01*
G01X580746Y1026223D02*
X583786Y1029263D01*
G01X580548Y1025176D02*
X583786Y1028414D01*
G01X580320Y1024100D02*
X583786Y1027566D01*
G01X580057Y1022988D02*
X583786Y1026717D01*
G01X579755Y1021838D02*
X583786Y1025869D01*
G01X579410Y1020644D02*
X583786Y1025020D01*
G01X579015Y1019401D02*
X583786Y1024172D01*
G01X578561Y1018098D02*
X583786Y1023323D01*
G01X578037Y1016726D02*
X583786Y1022475D01*
G01X577427Y1015267D02*
X583786Y1021626D01*
G01X576708Y1013700D02*
X583786Y1020778D01*
G01X575842Y1011985D02*
X583786Y1019929D01*
G01X574763Y1010058D02*
X583786Y1019081D01*
G01X573329Y1007775D02*
X583786Y1018232D01*
G01X559753Y993350D02*
X583786Y1017383D01*
G01X558499Y991248D02*
X583786Y1016535D01*
G01X567992Y999893D02*
X583786Y1015687D01*
G01X557736Y989637D02*
X560245Y992146D01*
G01X577496Y1008549D02*
X583786Y1014839D01*
G01X557271Y988323D02*
X560164Y991216D01*
G01X556969Y987173D02*
X560164Y990368D01*
G01X556775Y986130D02*
X560164Y989519D01*
G01X556659Y985166D02*
X560164Y988671D01*
G01X556606Y984264D02*
X560164Y987822D01*
G01X556599Y983409D02*
X560164Y986974D01*
G01X556600Y982561D02*
X560164Y986125D01*
G01X556599Y981712D02*
X560164Y985277D01*
G01X556600Y980864D02*
X560164Y984428D01*
G01X556599Y980015D02*
X560164Y983580D01*
G01X556600Y979167D02*
X560164Y982731D01*
G01X556600Y978318D02*
X560164Y981882D01*
G01X556599Y977469D02*
X560164Y981034D01*
G01X556600Y976621D02*
X560164Y980185D01*
G01X556599Y975772D02*
X560164Y979337D01*
G01X556600Y974924D02*
X560164Y978488D01*
G01X557230Y974706D02*
X560164Y977640D01*
G01X558078Y974705D02*
X560164Y976791D01*
G01X558927Y974706D02*
X560164Y975943D01*
G01X559775Y974705D02*
X560164Y975094D01*
G01X556888Y974705D02*
X556599Y974994D01*
G01X557736Y974706D02*
X556600Y975842D01*
G01X558585Y974705D02*
X556599Y976691D01*
G01X559433Y974706D02*
X556600Y977539D01*
G01X560164Y974823D02*
X556599Y978388D01*
G01X560164Y975672D02*
X556600Y979236D01*
G01X560164Y976520D02*
X556599Y980085D01*
G01X560164Y977369D02*
X556600Y980933D01*
G01X560164Y978218D02*
X556600Y981782D01*
G01X560164Y979066D02*
X556599Y982631D01*
G01X560164Y979915D02*
X556600Y983479D01*
G01X560164Y980763D02*
X556608Y984319D01*
G01X560164Y981612D02*
X556655Y985121D01*
G01X560164Y982460D02*
X556740Y985885D01*
G01X560164Y983309D02*
X556856Y986617D01*
G01X560164Y984157D02*
X557002Y987319D01*
G01X560164Y985006D02*
X557175Y987994D01*
G01X560164Y985854D02*
X557373Y988645D01*
G01X560164Y986703D02*
X557594Y989273D01*
G01X560164Y987551D02*
X557837Y989879D01*
G01X560164Y988400D02*
X558100Y990464D01*
G01X560164Y989248D02*
X558382Y991030D01*
G01X560164Y990097D02*
X558684Y991577D01*
G01X560164Y990945D02*
X559004Y992106D01*
G01X560181Y991777D02*
X559315Y992643D01*
G01X560341Y992466D02*
X559626Y993181D01*
G01X560620Y993036D02*
X559997Y993659D01*
G01X560993Y993511D02*
X560385Y994118D01*
G01X561432Y993920D02*
X560790Y994562D01*
G01X561877Y994324D02*
X561211Y994990D01*
G01X562321Y994729D02*
X561635Y995415D01*
G01X562765Y995133D02*
X562059Y995839D01*
G01X563209Y995537D02*
X562483Y996263D01*
G01X563653Y995942D02*
X562908Y996687D01*
G01X564097Y996346D02*
X563332Y997111D01*
G01X564541Y996751D02*
X563756Y997536D01*
G01X564985Y997155D02*
X564180Y997960D01*
G01X565429Y997560D02*
X564605Y998384D01*
G01X565873Y997964D02*
X565029Y998808D01*
G01X566317Y998369D02*
X565453Y999233D01*
G01X566761Y998773D02*
X565877Y999657D01*
G01X567206Y999177D02*
X566302Y1000081D01*
G01X567650Y999582D02*
X566726Y1000506D01*
G01X568094Y999986D02*
X567150Y1000930D01*
G01X568538Y1000391D02*
X567575Y1001354D01*
G01X568982Y1000795D02*
X567999Y1001778D01*
G01X569426Y1001200D02*
X568423Y1002203D01*
G01X569870Y1001604D02*
X568847Y1002627D01*
G01X570314Y1002009D02*
X569272Y1003051D01*
G01X570758Y1002413D02*
X569696Y1003475D01*
G01X571202Y1002817D02*
X570120Y1003899D01*
G01X571646Y1003222D02*
X570544Y1004324D01*
G01X572091Y1003626D02*
X570969Y1004748D01*
G01X572535Y1004031D02*
X571393Y1005173D01*
G01X572979Y1004435D02*
X571728Y1005686D01*
G01X573423Y1004839D02*
X572089Y1006173D01*
G01X573867Y1005244D02*
X572444Y1006667D01*
G01X574311Y1005648D02*
X572794Y1007166D01*
G01X574755Y1006053D02*
X573187Y1007621D01*
G01X575199Y1006457D02*
X573549Y1008107D01*
G01X575643Y1006862D02*
X573883Y1008622D01*
G01X576087Y1007266D02*
X574210Y1009143D01*
G01X576531Y1007671D02*
X574532Y1009670D01*
G01X576976Y1008075D02*
X574848Y1010202D01*
G01X577419Y1008480D02*
X575159Y1010740D01*
G01X577864Y1008884D02*
X575463Y1011285D01*
G01X578308Y1009288D02*
X575762Y1011834D01*
G01X578752Y1009693D02*
X576055Y1012390D01*
G01X579196Y1010097D02*
X576341Y1012952D01*
G01X579640Y1010502D02*
X576622Y1013520D01*
G01X580084Y1010906D02*
X576896Y1014094D01*
G01X580528Y1011311D02*
X577164Y1014675D01*
G01X580972Y1011715D02*
X577425Y1015262D01*
G01X581416Y1012120D02*
X577680Y1015856D01*
G01X581860Y1012524D02*
X577929Y1016456D01*
G01X582304Y1012928D02*
X578170Y1017062D01*
G01X582749Y1013333D02*
X578405Y1017676D01*
G01X583193Y1013737D02*
X578633Y1018297D01*
G01X583618Y1014160D02*
X578854Y1018924D01*
G01X583786Y1014841D02*
X579068Y1019559D01*
G01X583786Y1015690D02*
X579274Y1020202D01*
G01X583786Y1016538D02*
X579473Y1020851D01*
G01X583786Y1017387D02*
X579664Y1021509D01*
G01X583786Y1018235D02*
X579847Y1022174D01*
G01X583786Y1019084D02*
X580022Y1022848D01*
G01X583786Y1019932D02*
X580188Y1023530D01*
G01X583786Y1020781D02*
X580347Y1024220D01*
G01X583786Y1021629D02*
X580496Y1024919D01*
G01X583786Y1022478D02*
X580637Y1025627D01*
G01X583786Y1023326D02*
X580768Y1026344D01*
G01X583786Y1024175D02*
X580889Y1027072D01*
G01X583786Y1025023D02*
X581001Y1027808D01*
G01X583786Y1025872D02*
X581103Y1028555D01*
G01X583786Y1026720D02*
X581193Y1029313D01*
G01X583786Y1027569D02*
X581273Y1030082D01*
G01X583786Y1028417D02*
X581342Y1030862D01*
G01X583786Y1029266D02*
X581398Y1031654D01*
G01X583786Y1030115D02*
X581443Y1032458D01*
G01X583786Y1030963D02*
X581726Y1033023D01*
G01X583786Y1031812D02*
X582575Y1033023D01*
G01X583786Y1032660D02*
X583423Y1033023D01*
G01X530570Y1033379D02*
X539662D01*
X539682Y1033369D01*
G03X540159Y1033237I607J1265D01*
G03X540290Y1033231I130J1397D01*
G01X540292D01*
G03X540814Y1033332I-1J1403D01*
G01X540866Y1033351D01*
X540959Y1033222D01*
G02X530858Y1012179I-34998J3854D01*
G01X526967Y1008288D01*
G03X526822Y1008143I22668J-22813D01*
G01X526529Y1007850D01*
G03X517547Y986167I21683J-21684D01*
G01Y985726D01*
G03X517546Y985547I32160J-269D01*
G01Y974663D01*
G02X517446Y974563I-100J0D01*
G01X517391Y974580D01*
G03X516616Y974814I-776J-1170D01*
G01X516614D01*
G03X515637Y974418I0J-1403D01*
G01X506956D01*
X506948Y974426D01*
Y991454D01*
G02X507058Y991924I1068J-2D01*
G02X507296Y992240I956J-473D01*
G01X510291Y994968D01*
X529633Y1012583D01*
G03X530570Y1014704I-1932J2121D01*
G01Y1033379D01*
G01Y1032899D02*
X531050Y1033379D01*
G01X530571Y1032051D02*
X531899Y1033379D01*
G01X530570Y1031202D02*
X532747Y1033379D01*
G01X530571Y1030354D02*
X533596Y1033379D01*
G01X530570Y1029505D02*
X534444Y1033379D01*
G01X530571Y1028657D02*
X535293Y1033379D01*
G01X530571Y1027808D02*
X536142Y1033379D01*
G01X530570Y1026959D02*
X536990Y1033379D01*
G01X530571Y1026111D02*
X537839Y1033379D01*
G01X530570Y1025262D02*
X538687Y1033379D01*
G01X530571Y1024414D02*
X539536Y1033379D01*
G01X530570Y1023565D02*
X540237Y1033231D01*
G01X530571Y1022717D02*
X540944Y1033090D01*
G01X530570Y1021868D02*
X540819Y1032117D01*
G01X530571Y1021020D02*
X540661Y1031110D01*
G01X530570Y1020171D02*
X540465Y1030066D01*
G01X530570Y1019322D02*
X540227Y1028980D01*
G01X530570Y1018474D02*
X539938Y1027842D01*
G01X530571Y1017626D02*
X539590Y1026646D01*
G01X530570Y1016777D02*
X539170Y1025377D01*
G01X530570Y1015928D02*
X538659Y1024017D01*
G01X530570Y1015080D02*
X538029Y1022539D01*
G01X506949Y991458D02*
X512166Y996675D01*
G01X530523Y1014184D02*
X537230Y1020891D01*
G01X506949Y990610D02*
X521669Y1005330D01*
G01X506948Y989761D02*
X536160Y1018973D01*
G01X506948Y988912D02*
X534524Y1016488D01*
G01X506949Y988064D02*
X524523Y1005639D01*
G01X506948Y987215D02*
X522303Y1002570D01*
G01X506949Y986367D02*
X521128Y1000547D01*
G01X506948Y985518D02*
X520303Y998873D01*
G01X506949Y984670D02*
X519679Y997401D01*
G01X506948Y983821D02*
X519186Y996059D01*
G01X506949Y982973D02*
X518792Y994816D01*
G01X506948Y982124D02*
X518474Y993650D01*
G01X506949Y981276D02*
X518217Y992545D01*
G01X506948Y980427D02*
X518012Y991491D01*
G01X506949Y979579D02*
X517852Y990482D01*
G01X506948Y978730D02*
X517730Y989512D01*
G01X506949Y977882D02*
X517641Y988574D01*
G01X506948Y977033D02*
X517583Y987668D01*
G01X506949Y976185D02*
X517553Y986789D01*
G01X506948Y975336D02*
X517547Y985935D01*
G01X506949Y974488D02*
X517546Y985085D01*
G01X507728Y974418D02*
X517546Y984236D01*
G01X508577Y974419D02*
X517546Y983388D01*
G01X509425Y974418D02*
X517546Y982539D01*
G01X510274Y974419D02*
X517546Y981691D01*
G01X511122Y974418D02*
X517546Y980842D01*
G01X511971Y974419D02*
X517546Y979994D01*
G01X512819Y974418D02*
X517546Y979145D01*
G01X513668Y974419D02*
X517546Y978297D01*
G01X514516Y974418D02*
X517546Y977448D01*
G01X515365Y974419D02*
X517546Y976600D01*
G01X516609Y974814D02*
X517546Y975751D01*
G01X517287Y974644D02*
X517546Y974903D01*
G01X507112Y974418D02*
X506948Y974582D01*
G01X507960Y974419D02*
X506949Y975430D01*
G01X508809Y974418D02*
X506948Y976279D01*
G01X509657Y974419D02*
X506949Y977127D01*
G01X510506Y974418D02*
X506948Y977976D01*
G01X511354Y974419D02*
X506949Y978824D01*
G01X512203Y974418D02*
X506948Y979673D01*
G01X513051Y974419D02*
X506949Y980521D01*
G01X513900Y974418D02*
X506948Y981370D01*
G01X514748Y974419D02*
X506949Y982218D01*
G01X515597Y974418D02*
X506948Y983067D01*
G01X516134Y974730D02*
X506949Y983915D01*
G01X516936Y974777D02*
X506949Y984764D01*
G01X517546Y975015D02*
X506949Y985612D01*
G01X517546Y975864D02*
X506949Y986461D01*
G01X517546Y976712D02*
X506948Y987310D01*
G01X517546Y977561D02*
X506949Y988158D01*
G01X517546Y978409D02*
X506948Y989007D01*
G01X517546Y979258D02*
X506949Y989855D01*
G01X517546Y980106D02*
X506948Y990704D01*
G01X517546Y980955D02*
X506953Y991548D01*
G01X517546Y981803D02*
X507204Y992145D01*
G01X517546Y982652D02*
X507643Y992555D01*
G01X517546Y983500D02*
X508087Y992959D01*
G01X517546Y984349D02*
X508531Y993364D01*
G01X517546Y985197D02*
X508975Y993768D01*
G01X517547Y986045D02*
X509419Y994173D01*
G01X517555Y986885D02*
X509863Y994577D01*
G01X517585Y987704D02*
X510307Y994982D01*
G01X517636Y988501D02*
X510751Y995386D01*
G01X517705Y989281D02*
X511195Y995791D01*
G01X517792Y990042D02*
X511639Y996195D01*
G01X517896Y990787D02*
X512084Y996600D01*
G01X518017Y991515D02*
X512528Y997004D01*
G01X518152Y992228D02*
X512972Y997408D01*
G01X518301Y992928D02*
X513416Y997813D01*
G01X518464Y993613D02*
X513860Y998217D01*
G01X518641Y994285D02*
X514304Y998622D01*
G01X518830Y994944D02*
X514748Y999026D01*
G01X519031Y995592D02*
X515192Y999431D01*
G01X519244Y996227D02*
X515636Y999835D01*
G01X519468Y996852D02*
X516080Y1000240D01*
G01X519704Y997464D02*
X516524Y1000644D01*
G01X519950Y998067D02*
X516969Y1001048D01*
G01X520206Y998659D02*
X517412Y1001453D01*
G01X520473Y999241D02*
X517857Y1001857D01*
G01X520750Y999812D02*
X518301Y1002262D01*
G01X521037Y1000374D02*
X518745Y1002666D01*
G01X521333Y1000927D02*
X519189Y1003071D01*
G01X521638Y1001470D02*
X519633Y1003475D01*
G01X521953Y1002004D02*
X520077Y1003880D01*
G01X522276Y1002529D02*
X520521Y1004284D01*
G01X522609Y1003044D02*
X520965Y1004688D01*
G01X522951Y1003551D02*
X521409Y1005093D01*
G01X523301Y1004050D02*
X521853Y1005497D01*
G01X523660Y1004539D02*
X522297Y1005902D01*
G01X524027Y1005020D02*
X522741Y1006306D01*
G01X524403Y1005493D02*
X523186Y1006710D01*
G01X524788Y1005957D02*
X523630Y1007115D01*
G01X525180Y1006413D02*
X524074Y1007519D01*
G01X525582Y1006860D02*
X524518Y1007924D01*
G01X525991Y1007299D02*
X524962Y1008328D01*
G01X526409Y1007730D02*
X525406Y1008733D01*
G01X526833Y1008155D02*
X525850Y1009137D01*
G01X527257Y1008579D02*
X526294Y1009542D01*
G01X527681Y1009003D02*
X526738Y1009946D01*
G01X528106Y1009427D02*
X527183Y1010350D01*
G01X528530Y1009852D02*
X527627Y1010755D01*
G01X528954Y1010276D02*
X528071Y1011159D01*
G01X529379Y1010700D02*
X528515Y1011564D01*
G01X529803Y1011124D02*
X528959Y1011968D01*
G01X530227Y1011549D02*
X529403Y1012373D01*
G01X530651Y1011973D02*
X529837Y1012787D01*
G01X531075Y1012398D02*
X530193Y1013280D01*
G01X531491Y1012830D02*
X530448Y1013873D01*
G01X531901Y1013269D02*
X530569Y1014601D01*
G01X532303Y1013715D02*
X530570Y1015448D01*
G01X532699Y1014168D02*
X530571Y1016296D01*
G01X533087Y1014629D02*
X530571Y1017145D01*
G01X533467Y1015097D02*
X530571Y1017993D01*
G01X533840Y1015572D02*
X530570Y1018842D01*
G01X534206Y1016055D02*
X530571Y1019690D01*
G01X534564Y1016545D02*
X530570Y1020539D01*
G01X534915Y1017043D02*
X530571Y1021387D01*
G01X535258Y1017548D02*
X530570Y1022236D01*
G01X535594Y1018061D02*
X530570Y1023085D01*
G01X535922Y1018582D02*
X530571Y1023933D01*
G01X536242Y1019110D02*
X530570Y1024782D01*
G01X536554Y1019647D02*
X530571Y1025630D01*
G01X536857Y1020192D02*
X530570Y1026479D01*
G01X537153Y1020744D02*
X530570Y1027327D01*
G01X537441Y1021305D02*
X530570Y1028176D01*
G01X537720Y1021875D02*
X530571Y1029024D01*
G01X537990Y1022453D02*
X530570Y1029873D01*
G01X538251Y1023040D02*
X530570Y1030721D01*
G01X538504Y1023636D02*
X530570Y1031570D01*
G01X538747Y1024241D02*
X530570Y1032418D01*
G01X538981Y1024856D02*
X530570Y1033267D01*
G01X539206Y1025480D02*
X531307Y1033379D01*
G01X539420Y1026114D02*
X532155Y1033379D01*
G01X539624Y1026759D02*
X533004Y1033379D01*
G01X539818Y1027413D02*
X533852Y1033379D01*
G01X540001Y1028079D02*
X534701Y1033379D01*
G01X540173Y1028756D02*
X535550Y1033379D01*
G01X540333Y1029444D02*
X536398Y1033379D01*
G01X540481Y1030145D02*
X537247Y1033379D01*
G01X540617Y1030858D02*
X538096Y1033379D01*
G01X540739Y1031584D02*
X538944Y1033379D01*
G01X540848Y1032323D02*
X539879Y1033292D01*
G01X540942Y1033077D02*
X540721Y1033298D01*
M02*
