G04 ================== begin FILE IDENTIFICATION RECORD ==================*
G04 Layout Name:  E:/taolei/2021_work/05-MORGAN-FPCB/EDP/SP1MORGANTFDC.brd*
G04 Film Name:    bending*
G04 File Format:  Gerber RS274X*
G04 File Origin:  Cadence Allegro 17.2-S053*
G04 Origin Date:  Mon Mar 01 16:44:44 2021*
G04 *
G04 Layer:  RIGID FLEX/BEND_AREA*
G04 Layer:  RIGID FLEX/BEND_LINE*
G04 Layer:  BOARD GEOMETRY/OUTLINE*
G04 *
G04 Offset:    (0.00 0.00)*
G04 Mirror:    No*
G04 Mode:      Positive*
G04 Rotation:  0*
G04 FullContactRelief:  No*
G04 UndefLineWidth:     6.00*
G04 ================== end FILE IDENTIFICATION RECORD ====================*
%FSLAX25Y25*MOIN*%
%IR0*IPPOS*OFA0.00000B0.00000*MIA0B0*SFA1.00000B1.00000*%
%ADD10C,.0004*%
%ADD11C,.006*%
G75*
%LPD*%
G75*
G36*
G01X529668Y1022149D02*
Y1018835D01*
X584786D01*
Y1022149D01*
X529668D01*
G37*
G36*
G01X521655Y1012630D02*
Y1009317D01*
X584786D01*
Y1012630D01*
X521655D01*
G37*
G36*
G01X505668Y994684D02*
Y997997D01*
X568434D01*
Y994684D01*
X505668D01*
G37*
G36*
G01X506046Y986943D02*
Y990255D01*
X561164D01*
Y986943D01*
X506046D01*
G37*
G54D10*
G01X524709Y1009319D02*
X528346Y1012632D01*
X529024Y1013249D01*
G03X529667Y1014704I-1325J1455D01*
G01Y1045819D01*
G02X531635Y1047787I1968J0D01*
G01X582816D01*
G02X584785Y1045819I1J-1969D01*
G01Y1014704D01*
G02X584142Y1013249I-1968J0D01*
G01X583465Y1012632D01*
X579827Y1009319D01*
X567394Y997997D01*
X563757Y994684D01*
X561806Y992907D01*
G03X561163Y991452I1325J-1455D01*
G01Y956974D01*
G02X559194Y955005I-1969J0D01*
G01X539509D01*
G02X537541Y956974I0J1969D01*
G01Y958454D01*
G03X535572Y960423I-1969J0D01*
G01X508013D01*
G02X506045Y962391I0J1968D01*
G01Y991452D01*
G02X506688Y992907I1968J0D01*
G01X508638Y994684D01*
X512276Y997997D01*
X524709Y1009319D01*
G54D11*
G01X556540Y897138D02*
X557540Y896305D01*
X558665Y895805D01*
X559665D01*
X560665Y896305D01*
X561415Y897138D01*
X561790Y898305D01*
X561540Y899471D01*
X560915Y900472D01*
X559790Y901138D01*
X558290Y901472D01*
X557415Y902138D01*
X557040Y903305D01*
X557290Y904472D01*
X557915Y905305D01*
X558790Y905805D01*
X559665D01*
X560540Y905472D01*
X561290Y904638D01*
G01X566665Y895805D02*
Y905805D01*
X569665D01*
X570665Y905305D01*
X571415Y904138D01*
X571665Y902805D01*
X571415Y901472D01*
X570790Y900472D01*
X569665Y899971D01*
X566665D01*
G01X579165Y895805D02*
Y905805D01*
X577665Y903805D01*
G01Y895805D02*
X580665D01*
G01X585915D02*
Y905805D01*
X589165Y897472D01*
X592415Y905805D01*
Y895805D01*
G01X599165D02*
X598165Y895972D01*
X597290Y896638D01*
X596540Y897638D01*
X596040Y898805D01*
X595790Y900138D01*
Y901472D01*
X596040Y902805D01*
X596540Y903972D01*
X597290Y904972D01*
X598165Y905638D01*
X599165Y905805D01*
X600165Y905638D01*
X601040Y904972D01*
X601790Y903972D01*
X602290Y902805D01*
X602540Y901472D01*
Y900138D01*
X602290Y898805D01*
X601790Y897638D01*
X601040Y896638D01*
X600165Y895972D01*
X599165Y895805D01*
G01X606665D02*
Y905805D01*
X609790D01*
X610790Y905305D01*
X611415Y904638D01*
X611665Y903305D01*
X611415Y901972D01*
X610665Y901138D01*
X609790Y900638D01*
X606665D01*
G01X609790D02*
X611665Y895805D01*
G01X619915Y900805D02*
X622415D01*
Y897805D01*
X621665Y896805D01*
X620790Y896138D01*
X619540Y895805D01*
X618290Y896138D01*
X617415Y896805D01*
X616665Y897805D01*
X616165Y898972D01*
X615915Y900305D01*
Y901472D01*
X616165Y902471D01*
X616665Y903638D01*
X617415Y904638D01*
X618165Y905305D01*
X619165Y905805D01*
X620040D01*
X621040Y905472D01*
X621790Y904805D01*
G01X626040Y895805D02*
X629165Y905805D01*
X632290Y895805D01*
G01X631165Y899305D02*
X627165D01*
G01X636290Y895805D02*
Y905805D01*
X642040Y895805D01*
Y905805D01*
G01X646790Y895805D02*
Y905805D01*
X651540D01*
G01X649790Y900972D02*
X646790D01*
G01X656415Y895805D02*
Y905805D01*
X658915D01*
X659915Y905305D01*
X660665Y904638D01*
X661290Y903638D01*
X661790Y902471D01*
X661915Y900805D01*
X661790Y899138D01*
X661290Y897972D01*
X660665Y896971D01*
X659915Y896305D01*
X658915Y895805D01*
X656415D01*
G01X671915Y904972D02*
X671165Y905472D01*
X670290Y905805D01*
X669290D01*
X668165Y905305D01*
X667290Y904472D01*
X666665Y903472D01*
X666165Y901805D01*
X666040Y900305D01*
X666290Y898805D01*
X666665Y897805D01*
X667415Y896805D01*
X668290Y896138D01*
X669165Y895805D01*
X670040D01*
X670915Y896138D01*
X671665Y896638D01*
X672290Y897305D01*
G01X686040Y905805D02*
X689165Y895805D01*
X692290Y905805D01*
G01X701665Y895805D02*
X696665D01*
Y905805D01*
X701665D01*
G01X699665Y900972D02*
X696665D01*
G01X706665Y895805D02*
Y905805D01*
X709790D01*
X710790Y905305D01*
X711415Y904638D01*
X711665Y903305D01*
X711415Y901972D01*
X710665Y901138D01*
X709790Y900638D01*
X706665D01*
G01X709790D02*
X711665Y895805D01*
G01X719165Y895472D02*
X718915Y895638D01*
Y895972D01*
X719165Y896138D01*
X719415Y895972D01*
Y895638D01*
X719165Y895472D01*
G01X726040Y895805D02*
X729165Y905805D01*
X732290Y895805D01*
G01X731165Y899305D02*
X727165D01*
G01X750165Y901138D02*
X750665Y901638D01*
X751040Y902471D01*
X751290Y903638D01*
X751040Y904638D01*
X750540Y905305D01*
X749665Y905805D01*
X746290D01*
Y895805D01*
X750415D01*
X751290Y896472D01*
X751790Y897472D01*
X752040Y898638D01*
X751790Y899805D01*
X751040Y900805D01*
X750165Y901138D01*
X746290D01*
G01X761665Y895805D02*
X756665D01*
Y905805D01*
X761665D01*
G01X759665Y900972D02*
X756665D01*
G01X766290Y895805D02*
Y905805D01*
X772040Y895805D01*
Y905805D01*
G01X776415Y895805D02*
Y905805D01*
X778915D01*
X779915Y905305D01*
X780665Y904638D01*
X781290Y903638D01*
X781790Y902471D01*
X781915Y900805D01*
X781790Y899138D01*
X781290Y897972D01*
X780665Y896971D01*
X779915Y896305D01*
X778915Y895805D01*
X776415D01*
G01X787665Y905805D02*
X790665D01*
G01X789165D02*
Y895805D01*
G01X787665D02*
X790665D01*
G01X796290D02*
Y905805D01*
X802040Y895805D01*
Y905805D01*
G01X809915Y900805D02*
X812415D01*
Y897805D01*
X811665Y896805D01*
X810790Y896138D01*
X809540Y895805D01*
X808290Y896138D01*
X807415Y896805D01*
X806665Y897805D01*
X806165Y898972D01*
X805915Y900305D01*
Y901472D01*
X806165Y902471D01*
X806665Y903638D01*
X807415Y904638D01*
X808165Y905305D01*
X809165Y905805D01*
X810040D01*
X811040Y905472D01*
X811790Y904805D01*
G01X826040Y895805D02*
X829165Y905805D01*
X832290Y895805D01*
G01X831165Y899305D02*
X827165D01*
G01X836665Y895805D02*
Y905805D01*
X839790D01*
X840790Y905305D01*
X841415Y904638D01*
X841665Y903305D01*
X841415Y901972D01*
X840665Y901138D01*
X839790Y900638D01*
X836665D01*
G01X839790D02*
X841665Y895805D01*
G01X851665D02*
X846665D01*
Y905805D01*
X851665D01*
G01X849665Y900972D02*
X846665D01*
G01X856040Y895805D02*
X859165Y905805D01*
X862290Y895805D01*
G01X861165Y899305D02*
X857165D01*
M02*
