G04 ================== begin FILE IDENTIFICATION RECORD ==================*
G04 Layout Name:  E:/taolei/2021_work/05-MORGAN-FPCB/EDP/SP1MORGANTFDC.brd*
G04 Film Name:    coverlaytop*
G04 File Format:  Gerber RS274X*
G04 File Origin:  Cadence Allegro 17.2-S053*
G04 Origin Date:  Mon Mar 01 16:44:44 2021*
G04 *
G04 Layer:  RIGID FLEX/COVERLAY_TOP*
G04 Layer:  VIA CLASS/SOLDERMASK_TOP*
G04 Layer:  PIN/SOLDERMASK_TOP*
G04 Layer:  PACKAGE GEOMETRY/SOLDERMASK_TOP*
G04 Layer:  BOARD GEOMETRY/OUTLINE*
G04 Layer:  BOARD GEOMETRY/SOLDERMASK_TOP*
G04 *
G04 Offset:    (0.00 0.00)*
G04 Mirror:    No*
G04 Mode:      Positive*
G04 Rotation:  0*
G04 FullContactRelief:  No*
G04 UndefLineWidth:     6.00*
G04 ================== end FILE IDENTIFICATION RECORD ====================*
%FSLAX25Y25*MOIN*%
%IR0*IPPOS*OFA0.00000B0.00000*MIA0B0*SFA1.00000B1.00000*%
%AMMACRO12*
4,1,5,-.00689,.00276,
-.00689,-.00551,
.00689,-.00551,
.00689,.00551,
-.00413,.00551,
-.00689,.00276,
0.0*
%
%ADD12MACRO12*%
%AMMACRO11*
4,1,5,-.00413,-.00551,
.00689,-.00551,
.00689,.00551,
-.00689,.00551,
-.00689,-.00276,
-.00413,-.00551,
0.0*
%
%ADD11MACRO11*%
%AMMACRO14*
4,1,6,.00452,-.01024,
.00452,.01024,
.00058,.01417,
-.00453,.01417,
-.00453,-.01417,
.00058,-.01417,
.00452,-.01024,
0.0*
%
%ADD14MACRO14*%
%ADD16R,.011X.015*%
%AMMACRO13*
4,1,5,.00689,-.00276,
.00689,.00551,
-.00689,.00551,
-.00689,-.00551,
.00413,-.00551,
.00689,-.00276,
0.0*
%
%ADD13MACRO13*%
%AMMACRO10*
4,1,5,.00413,.00551,
-.00689,.00551,
-.00689,-.00551,
.00689,-.00551,
.00689,.00276,
.00413,.00551,
0.0*
%
%ADD10MACRO10*%
%AMMACRO15*
4,1,6,-.00452,.01024,
-.00452,-.01024,
-.00058,-.01417,
.00453,-.01417,
.00453,.01417,
-.00058,.01417,
-.00452,.01024,
0.0*
%
%ADD15MACRO15*%
%ADD17C,.0004*%
%ADD18C,.006*%
G75*
%LPD*%
G75*
G36*
G01X582077Y1028689D02*
X590651D01*
G02X591651Y1027689I0J-1000D01*
G01Y1025752D01*
G02X590651Y1024752I-1000J0D01*
G01X582077D01*
G02X581077Y1025752I0J1000D01*
G01Y1027689D01*
G02X582077Y1028689I1000J0D01*
G37*
G36*
G01X564558Y980517D02*
Y982454D01*
G03X563558Y983454I-1000J0D01*
G01X557684D01*
G03X556684Y982454I0J-1000D01*
G01Y980517D01*
G03X557684Y979517I1000J0D01*
G01X563558D01*
G03X564558Y980517I0J1000D01*
G37*
G36*
G01X512419Y964396D02*
X554791D01*
Y973170D01*
X512419D01*
Y964396D01*
G37*
G36*
G01X504536Y983454D02*
X515810D01*
G02X516810Y982454I0J-1000D01*
G01Y980517D01*
G02X515810Y979517I-1000J0D01*
G01X504536D01*
G02X503536Y980517I0J1000D01*
G01Y982454D01*
G02X504536Y983454I1000J0D01*
G37*
G36*
G01X526621Y1028689D02*
X537695D01*
G02X538695Y1027689I0J-1000D01*
G01Y1025752D01*
G02X537695Y1024752I-1000J0D01*
G01X526621D01*
G02X525621Y1025752I0J1000D01*
G01Y1027689D01*
G02X526621Y1028689I1000J0D01*
G37*
G36*
G01X536040Y1035035D02*
X578412D01*
Y1043809D01*
X536040D01*
Y1035035D01*
G37*
G54D10*
X552523Y966637D03*
X576144Y1037276D03*
G54D11*
X514689Y970929D03*
X538310Y1041568D03*
G54D12*
X514689Y966637D03*
X538310Y1037276D03*
G54D13*
X552523Y970929D03*
X576144Y1041568D03*
G54D14*
X513823Y968783D03*
X537444Y1039422D03*
G54D15*
X553389Y968783D03*
X577010Y1039422D03*
G54D16*
X550141Y971598D03*
X548763D03*
X547386D03*
X546008D03*
X544630D03*
X543252D03*
X541874D03*
X540496D03*
X539118D03*
X537740D03*
X536362D03*
X534984D03*
X533606D03*
X532228D03*
X530850D03*
X529472D03*
X528094D03*
X526716D03*
X525338D03*
X523960D03*
X522582D03*
X521204D03*
X519826D03*
X518449D03*
X517071D03*
Y965968D03*
X518449D03*
X519826D03*
X521204D03*
X522582D03*
X523960D03*
X525338D03*
X526716D03*
X528094D03*
X529472D03*
X530850D03*
X532228D03*
X533606D03*
X534984D03*
X536362D03*
X537740D03*
X539118D03*
X540496D03*
X541874D03*
X543252D03*
X544630D03*
X546008D03*
X547386D03*
X548763D03*
X550141D03*
X573762Y1042237D03*
X572384D03*
X571007D03*
X569629D03*
X568251D03*
X566873D03*
X565495D03*
X564117D03*
X562739D03*
X561361D03*
X559983D03*
X558605D03*
X557227D03*
X555849D03*
X554471D03*
X553093D03*
X551715D03*
X550337D03*
X548959D03*
X547581D03*
X546203D03*
X544825D03*
X543447D03*
X542070D03*
X540692D03*
Y1036607D03*
X542070D03*
X543447D03*
X544825D03*
X546203D03*
X547581D03*
X548959D03*
X550337D03*
X551715D03*
X553093D03*
X554471D03*
X555849D03*
X557227D03*
X558605D03*
X559983D03*
X561361D03*
X562739D03*
X564117D03*
X565495D03*
X566873D03*
X568251D03*
X569629D03*
X571007D03*
X572384D03*
X573762D03*
G54D17*
G01X524709Y1009319D02*
X528346Y1012632D01*
X529024Y1013249D01*
G03X529667Y1014704I-1325J1455D01*
G01Y1045819D01*
G02X531635Y1047787I1968J0D01*
G01X582816D01*
G02X584785Y1045819I1J-1969D01*
G01Y1014704D01*
G02X584142Y1013249I-1968J0D01*
G01X583465Y1012632D01*
X579827Y1009319D01*
X567394Y997997D01*
X563757Y994684D01*
X561806Y992907D01*
G03X561163Y991452I1325J-1455D01*
G01Y956974D01*
G02X559194Y955005I-1969J0D01*
G01X539509D01*
G02X537541Y956974I0J1969D01*
G01Y958454D01*
G03X535572Y960423I-1969J0D01*
G01X508013D01*
G02X506045Y962391I0J1968D01*
G01Y991452D01*
G02X506688Y992907I1968J0D01*
G01X508638Y994684D01*
X512276Y997997D01*
X524709Y1009319D01*
G54D18*
G01X556540Y897138D02*
X557540Y896305D01*
X558665Y895805D01*
X559665D01*
X560665Y896305D01*
X561415Y897138D01*
X561790Y898305D01*
X561540Y899471D01*
X560915Y900472D01*
X559790Y901138D01*
X558290Y901472D01*
X557415Y902138D01*
X557040Y903305D01*
X557290Y904472D01*
X557915Y905305D01*
X558790Y905805D01*
X559665D01*
X560540Y905472D01*
X561290Y904638D01*
G01X566665Y895805D02*
Y905805D01*
X569665D01*
X570665Y905305D01*
X571415Y904138D01*
X571665Y902805D01*
X571415Y901472D01*
X570790Y900472D01*
X569665Y899971D01*
X566665D01*
G01X579165Y895805D02*
Y905805D01*
X577665Y903805D01*
G01Y895805D02*
X580665D01*
G01X585915D02*
Y905805D01*
X589165Y897472D01*
X592415Y905805D01*
Y895805D01*
G01X599165D02*
X598165Y895972D01*
X597290Y896638D01*
X596540Y897638D01*
X596040Y898805D01*
X595790Y900138D01*
Y901472D01*
X596040Y902805D01*
X596540Y903972D01*
X597290Y904972D01*
X598165Y905638D01*
X599165Y905805D01*
X600165Y905638D01*
X601040Y904972D01*
X601790Y903972D01*
X602290Y902805D01*
X602540Y901472D01*
Y900138D01*
X602290Y898805D01*
X601790Y897638D01*
X601040Y896638D01*
X600165Y895972D01*
X599165Y895805D01*
G01X606665D02*
Y905805D01*
X609790D01*
X610790Y905305D01*
X611415Y904638D01*
X611665Y903305D01*
X611415Y901972D01*
X610665Y901138D01*
X609790Y900638D01*
X606665D01*
G01X609790D02*
X611665Y895805D01*
G01X619915Y900805D02*
X622415D01*
Y897805D01*
X621665Y896805D01*
X620790Y896138D01*
X619540Y895805D01*
X618290Y896138D01*
X617415Y896805D01*
X616665Y897805D01*
X616165Y898972D01*
X615915Y900305D01*
Y901472D01*
X616165Y902471D01*
X616665Y903638D01*
X617415Y904638D01*
X618165Y905305D01*
X619165Y905805D01*
X620040D01*
X621040Y905472D01*
X621790Y904805D01*
G01X626040Y895805D02*
X629165Y905805D01*
X632290Y895805D01*
G01X631165Y899305D02*
X627165D01*
G01X636290Y895805D02*
Y905805D01*
X642040Y895805D01*
Y905805D01*
G01X646790Y895805D02*
Y905805D01*
X651540D01*
G01X649790Y900972D02*
X646790D01*
G01X656415Y895805D02*
Y905805D01*
X658915D01*
X659915Y905305D01*
X660665Y904638D01*
X661290Y903638D01*
X661790Y902471D01*
X661915Y900805D01*
X661790Y899138D01*
X661290Y897972D01*
X660665Y896971D01*
X659915Y896305D01*
X658915Y895805D01*
X656415D01*
G01X671915Y904972D02*
X671165Y905472D01*
X670290Y905805D01*
X669290D01*
X668165Y905305D01*
X667290Y904472D01*
X666665Y903472D01*
X666165Y901805D01*
X666040Y900305D01*
X666290Y898805D01*
X666665Y897805D01*
X667415Y896805D01*
X668290Y896138D01*
X669165Y895805D01*
X670040D01*
X670915Y896138D01*
X671665Y896638D01*
X672290Y897305D01*
G01X686040Y905805D02*
X689165Y895805D01*
X692290Y905805D01*
G01X701665Y895805D02*
X696665D01*
Y905805D01*
X701665D01*
G01X699665Y900972D02*
X696665D01*
G01X706665Y895805D02*
Y905805D01*
X709790D01*
X710790Y905305D01*
X711415Y904638D01*
X711665Y903305D01*
X711415Y901972D01*
X710665Y901138D01*
X709790Y900638D01*
X706665D01*
G01X709790D02*
X711665Y895805D01*
G01X719165Y895472D02*
X718915Y895638D01*
Y895972D01*
X719165Y896138D01*
X719415Y895972D01*
Y895638D01*
X719165Y895472D01*
G01X726040Y895805D02*
X729165Y905805D01*
X732290Y895805D01*
G01X731165Y899305D02*
X727165D01*
G01X751915Y904972D02*
X751165Y905472D01*
X750290Y905805D01*
X749290D01*
X748165Y905305D01*
X747290Y904472D01*
X746665Y903472D01*
X746165Y901805D01*
X746040Y900305D01*
X746290Y898805D01*
X746665Y897805D01*
X747415Y896805D01*
X748290Y896138D01*
X749165Y895805D01*
X750040D01*
X750915Y896138D01*
X751665Y896638D01*
X752290Y897305D01*
G01X759165Y895805D02*
X758165Y895972D01*
X757290Y896638D01*
X756540Y897638D01*
X756040Y898805D01*
X755790Y900138D01*
Y901472D01*
X756040Y902805D01*
X756540Y903972D01*
X757290Y904972D01*
X758165Y905638D01*
X759165Y905805D01*
X760165Y905638D01*
X761040Y904972D01*
X761790Y903972D01*
X762290Y902805D01*
X762540Y901472D01*
Y900138D01*
X762290Y898805D01*
X761790Y897638D01*
X761040Y896638D01*
X760165Y895972D01*
X759165Y895805D01*
G01X766040Y905805D02*
X769165Y895805D01*
X772290Y905805D01*
G01X781665Y895805D02*
X776665D01*
Y905805D01*
X781665D01*
G01X779665Y900972D02*
X776665D01*
G01X786665Y895805D02*
Y905805D01*
X789790D01*
X790790Y905305D01*
X791415Y904638D01*
X791665Y903305D01*
X791415Y901972D01*
X790665Y901138D01*
X789790Y900638D01*
X786665D01*
G01X789790D02*
X791665Y895805D01*
G01X796665Y905805D02*
Y895805D01*
X801665D01*
G01X806040D02*
X809165Y905805D01*
X812290Y895805D01*
G01X811165Y899305D02*
X807165D01*
G01X819165Y895805D02*
Y900305D01*
X816665Y905805D01*
G01X821665D02*
X819165Y900305D01*
G01X839165Y905805D02*
Y895805D01*
G01X836290Y905805D02*
X842040D01*
G01X849165Y895805D02*
X848165Y895972D01*
X847290Y896638D01*
X846540Y897638D01*
X846040Y898805D01*
X845790Y900138D01*
Y901472D01*
X846040Y902805D01*
X846540Y903972D01*
X847290Y904972D01*
X848165Y905638D01*
X849165Y905805D01*
X850165Y905638D01*
X851040Y904972D01*
X851790Y903972D01*
X852290Y902805D01*
X852540Y901472D01*
Y900138D01*
X852290Y898805D01*
X851790Y897638D01*
X851040Y896638D01*
X850165Y895972D01*
X849165Y895805D01*
G01X856665D02*
Y905805D01*
X859665D01*
X860665Y905305D01*
X861415Y904138D01*
X861665Y902805D01*
X861415Y901472D01*
X860790Y900472D01*
X859665Y899971D01*
X856665D01*
M02*
