G04 ================== begin FILE IDENTIFICATION RECORD ==================*
G04 Layout Name:  E:/taolei/2021_work/05-MORGAN-FPCB/EDP/SP1MORGANTFDC.brd*
G04 Film Name:    coverlaybotm*
G04 File Format:  Gerber RS274X*
G04 File Origin:  Cadence Allegro 17.2-S053*
G04 Origin Date:  Mon Mar 01 16:44:44 2021*
G04 *
G04 Layer:  RIGID FLEX/COVERLAY_BOTTOM*
G04 Layer:  VIA CLASS/SOLDERMASK_BOTTOM*
G04 Layer:  PIN/SOLDERMASK_BOTTOM*
G04 Layer:  PACKAGE GEOMETRY/SOLDERMASK_BOTTOM*
G04 Layer:  BOARD GEOMETRY/OUTLINE*
G04 Layer:  BOARD GEOMETRY/SOLDERMASK_BOTTOM*
G04 *
G04 Offset:    (0.00 0.00)*
G04 Mirror:    No*
G04 Mode:      Positive*
G04 Rotation:  0*
G04 FullContactRelief:  No*
G04 UndefLineWidth:     6.00*
G04 ================== end FILE IDENTIFICATION RECORD ====================*
%FSLAX25Y25*MOIN*%
%IR0*IPPOS*OFA0.00000B0.00000*MIA0B0*SFA1.00000B1.00000*%
%ADD10C,.0004*%
%ADD11C,.006*%
G75*
%LPD*%
G75*
G36*
G01X504513Y969992D02*
X509450D01*
G02X510450Y968992I0J-1000D01*
G01Y960418D01*
X504513D01*
G02X503513Y961418I0J1000D01*
G01Y968992D01*
G02X504513Y969992I1000J0D01*
G37*
G36*
G01X551892Y961662D02*
X561766D01*
Y955025D01*
G02X560766Y954025I-1000J0D01*
G01X551892D01*
G02X550892Y955025I0J1000D01*
G01Y960662D01*
G02X551892Y961662I1000J0D01*
G37*
G36*
G01X581381Y1048533D02*
X589255D01*
Y1040596D01*
G02X588255Y1039596I-1000J0D01*
G01X581381D01*
G02X580381Y1040596I0J1000D01*
G01Y1047533D01*
G02X581381Y1048533I1000J0D01*
G37*
G36*
G01X526774Y1049527D02*
X534071D01*
Y1038890D01*
G02X533071Y1037890I-1000J0D01*
G01X526774D01*
Y1049527D01*
G37*
G54D10*
G01X524709Y1009319D02*
X528346Y1012632D01*
X529024Y1013249D01*
G03X529667Y1014704I-1325J1455D01*
G01Y1045819D01*
G02X531635Y1047787I1968J0D01*
G01X582816D01*
G02X584785Y1045819I1J-1969D01*
G01Y1014704D01*
G02X584142Y1013249I-1968J0D01*
G01X583465Y1012632D01*
X579827Y1009319D01*
X567394Y997997D01*
X563757Y994684D01*
X561806Y992907D01*
G03X561163Y991452I1325J-1455D01*
G01Y956974D01*
G02X559194Y955005I-1969J0D01*
G01X539509D01*
G02X537541Y956974I0J1969D01*
G01Y958454D01*
G03X535572Y960423I-1969J0D01*
G01X508013D01*
G02X506045Y962391I0J1968D01*
G01Y991452D01*
G02X506688Y992907I1968J0D01*
G01X508638Y994684D01*
X512276Y997997D01*
X524709Y1009319D01*
G54D11*
G01X534290Y897138D02*
X533290Y896305D01*
X532165Y895805D01*
X531165D01*
X530165Y896305D01*
X529415Y897138D01*
X529040Y898305D01*
X529290Y899471D01*
X529915Y900472D01*
X531040Y901138D01*
X532540Y901472D01*
X533415Y902138D01*
X533790Y903305D01*
X533540Y904472D01*
X532915Y905305D01*
X532040Y905805D01*
X531165D01*
X530290Y905472D01*
X529540Y904638D01*
G01X524165Y895805D02*
Y905805D01*
X521165D01*
X520165Y905305D01*
X519415Y904138D01*
X519165Y902805D01*
X519415Y901472D01*
X520040Y900472D01*
X521165Y899971D01*
X524165D01*
G01X511665Y895805D02*
Y905805D01*
X513165Y903805D01*
G01Y895805D02*
X510165D01*
G01X504915D02*
Y905805D01*
X501665Y897472D01*
X498415Y905805D01*
Y895805D01*
G01X491665D02*
X492665Y895972D01*
X493540Y896638D01*
X494290Y897638D01*
X494790Y898805D01*
X495040Y900138D01*
Y901472D01*
X494790Y902805D01*
X494290Y903972D01*
X493540Y904972D01*
X492665Y905638D01*
X491665Y905805D01*
X490665Y905638D01*
X489790Y904972D01*
X489040Y903972D01*
X488540Y902805D01*
X488290Y901472D01*
Y900138D01*
X488540Y898805D01*
X489040Y897638D01*
X489790Y896638D01*
X490665Y895972D01*
X491665Y895805D01*
G01X484165D02*
Y905805D01*
X481040D01*
X480040Y905305D01*
X479415Y904638D01*
X479165Y903305D01*
X479415Y901972D01*
X480165Y901138D01*
X481040Y900638D01*
X484165D01*
G01X481040D02*
X479165Y895805D01*
G01X470915Y900805D02*
X468415D01*
Y897805D01*
X469165Y896805D01*
X470040Y896138D01*
X471290Y895805D01*
X472540Y896138D01*
X473415Y896805D01*
X474165Y897805D01*
X474665Y898972D01*
X474915Y900305D01*
Y901472D01*
X474665Y902471D01*
X474165Y903638D01*
X473415Y904638D01*
X472665Y905305D01*
X471665Y905805D01*
X470790D01*
X469790Y905472D01*
X469040Y904805D01*
G01X464790Y895805D02*
X461665Y905805D01*
X458540Y895805D01*
G01X459665Y899305D02*
X463665D01*
G01X454540Y895805D02*
Y905805D01*
X448790Y895805D01*
Y905805D01*
G01X444040Y895805D02*
Y905805D01*
X439290D01*
G01X441040Y900972D02*
X444040D01*
G01X434415Y895805D02*
Y905805D01*
X431915D01*
X430915Y905305D01*
X430165Y904638D01*
X429540Y903638D01*
X429040Y902471D01*
X428915Y900805D01*
X429040Y899138D01*
X429540Y897972D01*
X430165Y896971D01*
X430915Y896305D01*
X431915Y895805D01*
X434415D01*
G01X418915Y904972D02*
X419665Y905472D01*
X420540Y905805D01*
X421540D01*
X422665Y905305D01*
X423540Y904472D01*
X424165Y903472D01*
X424665Y901805D01*
X424790Y900305D01*
X424540Y898805D01*
X424165Y897805D01*
X423415Y896805D01*
X422540Y896138D01*
X421665Y895805D01*
X420790D01*
X419915Y896138D01*
X419165Y896638D01*
X418540Y897305D01*
G01X404790Y905805D02*
X401665Y895805D01*
X398540Y905805D01*
G01X389165Y895805D02*
X394165D01*
Y905805D01*
X389165D01*
G01X391165Y900972D02*
X394165D01*
G01X384165Y895805D02*
Y905805D01*
X381040D01*
X380040Y905305D01*
X379415Y904638D01*
X379165Y903305D01*
X379415Y901972D01*
X380165Y901138D01*
X381040Y900638D01*
X384165D01*
G01X381040D02*
X379165Y895805D01*
G01X371665Y895472D02*
X371915Y895638D01*
Y895972D01*
X371665Y896138D01*
X371415Y895972D01*
Y895638D01*
X371665Y895472D01*
G01X364790Y895805D02*
X361665Y905805D01*
X358540Y895805D01*
G01X359665Y899305D02*
X363665D01*
G01X338915Y904972D02*
X339665Y905472D01*
X340540Y905805D01*
X341540D01*
X342665Y905305D01*
X343540Y904472D01*
X344165Y903472D01*
X344665Y901805D01*
X344790Y900305D01*
X344540Y898805D01*
X344165Y897805D01*
X343415Y896805D01*
X342540Y896138D01*
X341665Y895805D01*
X340790D01*
X339915Y896138D01*
X339165Y896638D01*
X338540Y897305D01*
G01X331665Y895805D02*
X332665Y895972D01*
X333540Y896638D01*
X334290Y897638D01*
X334790Y898805D01*
X335040Y900138D01*
Y901472D01*
X334790Y902805D01*
X334290Y903972D01*
X333540Y904972D01*
X332665Y905638D01*
X331665Y905805D01*
X330665Y905638D01*
X329790Y904972D01*
X329040Y903972D01*
X328540Y902805D01*
X328290Y901472D01*
Y900138D01*
X328540Y898805D01*
X329040Y897638D01*
X329790Y896638D01*
X330665Y895972D01*
X331665Y895805D01*
G01X324790Y905805D02*
X321665Y895805D01*
X318540Y905805D01*
G01X309165Y895805D02*
X314165D01*
Y905805D01*
X309165D01*
G01X311165Y900972D02*
X314165D01*
G01X304165Y895805D02*
Y905805D01*
X301040D01*
X300040Y905305D01*
X299415Y904638D01*
X299165Y903305D01*
X299415Y901972D01*
X300165Y901138D01*
X301040Y900638D01*
X304165D01*
G01X301040D02*
X299165Y895805D01*
G01X294165Y905805D02*
Y895805D01*
X289165D01*
G01X284790D02*
X281665Y905805D01*
X278540Y895805D01*
G01X279665Y899305D02*
X283665D01*
G01X271665Y895805D02*
Y900305D01*
X274165Y905805D01*
G01X269165D02*
X271665Y900305D01*
G01X250665Y901138D02*
X250165Y901638D01*
X249790Y902471D01*
X249540Y903638D01*
X249790Y904638D01*
X250290Y905305D01*
X251165Y905805D01*
X254540D01*
Y895805D01*
X250415D01*
X249540Y896472D01*
X249040Y897472D01*
X248790Y898638D01*
X249040Y899805D01*
X249790Y900805D01*
X250665Y901138D01*
X254540D01*
G01X241665Y895805D02*
X242665Y895972D01*
X243540Y896638D01*
X244290Y897638D01*
X244790Y898805D01*
X245040Y900138D01*
Y901472D01*
X244790Y902805D01*
X244290Y903972D01*
X243540Y904972D01*
X242665Y905638D01*
X241665Y905805D01*
X240665Y905638D01*
X239790Y904972D01*
X239040Y903972D01*
X238540Y902805D01*
X238290Y901472D01*
Y900138D01*
X238540Y898805D01*
X239040Y897638D01*
X239790Y896638D01*
X240665Y895972D01*
X241665Y895805D01*
G01X231665Y905805D02*
Y895805D01*
G01X234540Y905805D02*
X228790D01*
G01X221665D02*
Y895805D01*
G01X224540Y905805D02*
X218790D01*
G01X211665Y895805D02*
X212665Y895972D01*
X213540Y896638D01*
X214290Y897638D01*
X214790Y898805D01*
X215040Y900138D01*
Y901472D01*
X214790Y902805D01*
X214290Y903972D01*
X213540Y904972D01*
X212665Y905638D01*
X211665Y905805D01*
X210665Y905638D01*
X209790Y904972D01*
X209040Y903972D01*
X208540Y902805D01*
X208290Y901472D01*
Y900138D01*
X208540Y898805D01*
X209040Y897638D01*
X209790Y896638D01*
X210665Y895972D01*
X211665Y895805D01*
G01X204915D02*
Y905805D01*
X201665Y897472D01*
X198415Y905805D01*
Y895805D01*
M02*
