G04 ================== begin FILE IDENTIFICATION RECORD ==================*
G04 Layout Name:  E:/taolei/2021_work/05-MORGAN-FPCB/EDP/SP1MORGANTFDC.brd*
G04 Film Name:    stiffenerbotm*
G04 File Format:  Gerber RS274X*
G04 File Origin:  Cadence Allegro 17.2-S053*
G04 Origin Date:  Mon Mar 01 16:44:44 2021*
G04 *
G04 Layer:  RIGID FLEX/STIFFENER_BOTTOM*
G04 Layer:  BOARD GEOMETRY/OUTLINE*
G04 *
G04 Offset:    (0.00 0.00)*
G04 Mirror:    No*
G04 Mode:      Positive*
G04 Rotation:  0*
G04 FullContactRelief:  No*
G04 UndefLineWidth:     6.00*
G04 ================== end FILE IDENTIFICATION RECORD ====================*
%FSLAX25Y25*MOIN*%
%IR0*IPPOS*OFA0.00000B0.00000*MIA0B0*SFA1.00000B1.00000*%
%ADD10C,.0004*%
%ADD11C,.006*%
G75*
%LPD*%
G75*
G36*
G01X507225Y975579D02*
X559981D01*
X560039Y975576D01*
X560096Y975567D01*
X560153Y975553D01*
X560207Y975534D01*
X560260Y975510D01*
X560309Y975480D01*
X560356Y975445D01*
X560399Y975406D01*
X560438Y975363D01*
X560472Y975317D01*
X560502Y975267D01*
X560527Y975215D01*
X560546Y975160D01*
X560560Y975104D01*
X560568Y975047D01*
X560572Y974989D01*
Y956973D01*
X560556Y956775D01*
X560518Y956591D01*
X560457Y956422D01*
X560377Y956267D01*
X560281Y956126D01*
X560168Y955998D01*
X560041Y955886D01*
X559900Y955789D01*
X559745Y955709D01*
X559575Y955649D01*
X559392Y955611D01*
X559194Y955595D01*
X539509D01*
X539311Y955611D01*
X539127Y955649D01*
X538958Y955709D01*
X538803Y955789D01*
X538661Y955886D01*
X538534Y955998D01*
X538422Y956126D01*
X538325Y956267D01*
X538245Y956422D01*
X538185Y956591D01*
X538147Y956775D01*
X538131Y956973D01*
Y958453D01*
X538111Y958759D01*
X538060Y959050D01*
X537977Y959328D01*
X537865Y959590D01*
X537728Y959832D01*
X537566Y960057D01*
X537381Y960263D01*
X537175Y960448D01*
X536951Y960609D01*
X536708Y960746D01*
X536446Y960858D01*
X536168Y960942D01*
X535877Y960993D01*
X535572Y961012D01*
X508013D01*
X507815Y961028D01*
X507631Y961066D01*
X507462Y961127D01*
X507307Y961207D01*
X507165Y961303D01*
X507038Y961416D01*
X506926Y961543D01*
X506829Y961684D01*
X506749Y961839D01*
X506689Y962009D01*
X506651Y962192D01*
X506635Y962390D01*
Y974989D01*
X506638Y975047D01*
X506647Y975104D01*
X506660Y975160D01*
X506679Y975215D01*
X506704Y975267D01*
X506734Y975317D01*
X506769Y975363D01*
X506808Y975406D01*
X506851Y975445D01*
X506897Y975480D01*
X506947Y975510D01*
X506999Y975534D01*
X507054Y975553D01*
X507110Y975567D01*
X507167Y975576D01*
X507225Y975579D01*
G37*
G36*
G01X531637Y1047194D02*
X582818D01*
X583016Y1047178D01*
X583199Y1047140D01*
X583369Y1047079D01*
X583524Y1046999D01*
X583665Y1046903D01*
X583792Y1046790D01*
X583905Y1046663D01*
X584001Y1046521D01*
X584081Y1046366D01*
X584142Y1046197D01*
X584180Y1046014D01*
X584196Y1045816D01*
Y1033808D01*
X584182Y1033638D01*
X584150Y1033481D01*
X584098Y1033336D01*
X584029Y1033203D01*
X583946Y1033082D01*
X583850Y1032973D01*
X583741Y1032876D01*
X583620Y1032793D01*
X583487Y1032725D01*
X583342Y1032673D01*
X583184Y1032640D01*
X583015Y1032627D01*
X531440D01*
X531270Y1032640D01*
X531113Y1032673D01*
X530968Y1032725D01*
X530835Y1032793D01*
X530714Y1032876D01*
X530605Y1032973D01*
X530508Y1033082D01*
X530426Y1033203D01*
X530357Y1033336D01*
X530305Y1033481D01*
X530273Y1033638D01*
X530259Y1033808D01*
Y1045816D01*
X530275Y1046014D01*
X530313Y1046197D01*
X530373Y1046366D01*
X530453Y1046521D01*
X530550Y1046663D01*
X530662Y1046790D01*
X530789Y1046903D01*
X530931Y1046999D01*
X531086Y1047079D01*
X531255Y1047140D01*
X531439Y1047178D01*
X531637Y1047194D01*
G37*
G54D10*
G01X524709Y1009319D02*
X528346Y1012632D01*
X529024Y1013249D01*
G03X529667Y1014704I-1325J1455D01*
G01Y1045819D01*
G02X531635Y1047787I1968J0D01*
G01X582816D01*
G02X584785Y1045819I1J-1969D01*
G01Y1014704D01*
G02X584142Y1013249I-1968J0D01*
G01X583465Y1012632D01*
X579827Y1009319D01*
X567394Y997997D01*
X563757Y994684D01*
X561806Y992907D01*
G03X561163Y991452I1325J-1455D01*
G01Y956974D01*
G02X559194Y955005I-1969J0D01*
G01X539509D01*
G02X537541Y956974I0J1969D01*
G01Y958454D01*
G03X535572Y960423I-1969J0D01*
G01X508013D01*
G02X506045Y962391I0J1968D01*
G01Y991452D01*
G02X506688Y992907I1968J0D01*
G01X508638Y994684D01*
X512276Y997997D01*
X524709Y1009319D01*
G54D11*
G01X534290Y897138D02*
X533290Y896305D01*
X532165Y895805D01*
X531165D01*
X530165Y896305D01*
X529415Y897138D01*
X529040Y898305D01*
X529290Y899471D01*
X529915Y900472D01*
X531040Y901138D01*
X532540Y901472D01*
X533415Y902138D01*
X533790Y903305D01*
X533540Y904472D01*
X532915Y905305D01*
X532040Y905805D01*
X531165D01*
X530290Y905472D01*
X529540Y904638D01*
G01X524165Y895805D02*
Y905805D01*
X521165D01*
X520165Y905305D01*
X519415Y904138D01*
X519165Y902805D01*
X519415Y901472D01*
X520040Y900472D01*
X521165Y899971D01*
X524165D01*
G01X511665Y895805D02*
Y905805D01*
X513165Y903805D01*
G01Y895805D02*
X510165D01*
G01X504915D02*
Y905805D01*
X501665Y897472D01*
X498415Y905805D01*
Y895805D01*
G01X491665D02*
X492665Y895972D01*
X493540Y896638D01*
X494290Y897638D01*
X494790Y898805D01*
X495040Y900138D01*
Y901472D01*
X494790Y902805D01*
X494290Y903972D01*
X493540Y904972D01*
X492665Y905638D01*
X491665Y905805D01*
X490665Y905638D01*
X489790Y904972D01*
X489040Y903972D01*
X488540Y902805D01*
X488290Y901472D01*
Y900138D01*
X488540Y898805D01*
X489040Y897638D01*
X489790Y896638D01*
X490665Y895972D01*
X491665Y895805D01*
G01X484165D02*
Y905805D01*
X481040D01*
X480040Y905305D01*
X479415Y904638D01*
X479165Y903305D01*
X479415Y901972D01*
X480165Y901138D01*
X481040Y900638D01*
X484165D01*
G01X481040D02*
X479165Y895805D01*
G01X470915Y900805D02*
X468415D01*
Y897805D01*
X469165Y896805D01*
X470040Y896138D01*
X471290Y895805D01*
X472540Y896138D01*
X473415Y896805D01*
X474165Y897805D01*
X474665Y898972D01*
X474915Y900305D01*
Y901472D01*
X474665Y902471D01*
X474165Y903638D01*
X473415Y904638D01*
X472665Y905305D01*
X471665Y905805D01*
X470790D01*
X469790Y905472D01*
X469040Y904805D01*
G01X464790Y895805D02*
X461665Y905805D01*
X458540Y895805D01*
G01X459665Y899305D02*
X463665D01*
G01X454540Y895805D02*
Y905805D01*
X448790Y895805D01*
Y905805D01*
G01X444040Y895805D02*
Y905805D01*
X439290D01*
G01X441040Y900972D02*
X444040D01*
G01X434415Y895805D02*
Y905805D01*
X431915D01*
X430915Y905305D01*
X430165Y904638D01*
X429540Y903638D01*
X429040Y902471D01*
X428915Y900805D01*
X429040Y899138D01*
X429540Y897972D01*
X430165Y896971D01*
X430915Y896305D01*
X431915Y895805D01*
X434415D01*
G01X418915Y904972D02*
X419665Y905472D01*
X420540Y905805D01*
X421540D01*
X422665Y905305D01*
X423540Y904472D01*
X424165Y903472D01*
X424665Y901805D01*
X424790Y900305D01*
X424540Y898805D01*
X424165Y897805D01*
X423415Y896805D01*
X422540Y896138D01*
X421665Y895805D01*
X420790D01*
X419915Y896138D01*
X419165Y896638D01*
X418540Y897305D01*
G01X404790Y905805D02*
X401665Y895805D01*
X398540Y905805D01*
G01X389165Y895805D02*
X394165D01*
Y905805D01*
X389165D01*
G01X391165Y900972D02*
X394165D01*
G01X384165Y895805D02*
Y905805D01*
X381040D01*
X380040Y905305D01*
X379415Y904638D01*
X379165Y903305D01*
X379415Y901972D01*
X380165Y901138D01*
X381040Y900638D01*
X384165D01*
G01X381040D02*
X379165Y895805D01*
G01X371665Y895472D02*
X371915Y895638D01*
Y895972D01*
X371665Y896138D01*
X371415Y895972D01*
Y895638D01*
X371665Y895472D01*
G01X364790Y895805D02*
X361665Y905805D01*
X358540Y895805D01*
G01X359665Y899305D02*
X363665D01*
G01X344290Y897138D02*
X343290Y896305D01*
X342165Y895805D01*
X341165D01*
X340165Y896305D01*
X339415Y897138D01*
X339040Y898305D01*
X339290Y899471D01*
X339915Y900472D01*
X341040Y901138D01*
X342540Y901472D01*
X343415Y902138D01*
X343790Y903305D01*
X343540Y904472D01*
X342915Y905305D01*
X342040Y905805D01*
X341165D01*
X340290Y905472D01*
X339540Y904638D01*
G01X331665Y905805D02*
Y895805D01*
G01X334540Y905805D02*
X328790D01*
G01X323165D02*
X320165D01*
G01X321665D02*
Y895805D01*
G01X323165D02*
X320165D01*
G01X314040D02*
Y905805D01*
X309290D01*
G01X311040Y900972D02*
X314040D01*
G01X304040Y895805D02*
Y905805D01*
X299290D01*
G01X301040Y900972D02*
X304040D01*
G01X289165Y895805D02*
X294165D01*
Y905805D01*
X289165D01*
G01X291165Y900972D02*
X294165D01*
G01X284540Y895805D02*
Y905805D01*
X278790Y895805D01*
Y905805D01*
G01X269165Y895805D02*
X274165D01*
Y905805D01*
X269165D01*
G01X271165Y900972D02*
X274165D01*
G01X264165Y895805D02*
Y905805D01*
X261040D01*
X260040Y905305D01*
X259415Y904638D01*
X259165Y903305D01*
X259415Y901972D01*
X260165Y901138D01*
X261040Y900638D01*
X264165D01*
G01X261040D02*
X259165Y895805D01*
G01X240665Y901138D02*
X240165Y901638D01*
X239790Y902471D01*
X239540Y903638D01*
X239790Y904638D01*
X240290Y905305D01*
X241165Y905805D01*
X244540D01*
Y895805D01*
X240415D01*
X239540Y896472D01*
X239040Y897472D01*
X238790Y898638D01*
X239040Y899805D01*
X239790Y900805D01*
X240665Y901138D01*
X244540D01*
G01X231665Y895805D02*
X232665Y895972D01*
X233540Y896638D01*
X234290Y897638D01*
X234790Y898805D01*
X235040Y900138D01*
Y901472D01*
X234790Y902805D01*
X234290Y903972D01*
X233540Y904972D01*
X232665Y905638D01*
X231665Y905805D01*
X230665Y905638D01*
X229790Y904972D01*
X229040Y903972D01*
X228540Y902805D01*
X228290Y901472D01*
Y900138D01*
X228540Y898805D01*
X229040Y897638D01*
X229790Y896638D01*
X230665Y895972D01*
X231665Y895805D01*
G01X221665Y905805D02*
Y895805D01*
G01X224540Y905805D02*
X218790D01*
G01X211665D02*
Y895805D01*
G01X214540Y905805D02*
X208790D01*
G01X201665Y895805D02*
X202665Y895972D01*
X203540Y896638D01*
X204290Y897638D01*
X204790Y898805D01*
X205040Y900138D01*
Y901472D01*
X204790Y902805D01*
X204290Y903972D01*
X203540Y904972D01*
X202665Y905638D01*
X201665Y905805D01*
X200665Y905638D01*
X199790Y904972D01*
X199040Y903972D01*
X198540Y902805D01*
X198290Y901472D01*
Y900138D01*
X198540Y898805D01*
X199040Y897638D01*
X199790Y896638D01*
X200665Y895972D01*
X201665Y895805D01*
G01X194915D02*
Y905805D01*
X191665Y897472D01*
X188415Y905805D01*
Y895805D01*
M02*
