G04 ================== begin FILE IDENTIFICATION RECORD ==================*
G04 Layout Name:  D:/Projects/MORGAN_FPC/PCB/SP1MORGANFLA.brd*
G04 Film Name:    art02*
G04 File Format:  Gerber RS274X*
G04 File Origin:  Cadence Allegro 17.2-S053*
G04 Origin Date:  Wed Mar 03 11:52:20 2021*
G04 *
G04 Layer:  VIA CLASS/BOTTOM*
G04 Layer:  PIN/BOTTOM*
G04 Layer:  ETCH/BOTTOM*
G04 Layer:  BOARD GEOMETRY/OUTLINE*
G04 *
G04 Offset:    (0.00 0.00)*
G04 Mirror:    No*
G04 Mode:      Positive*
G04 Rotation:  0*
G04 FullContactRelief:  No*
G04 UndefLineWidth:     6.00*
G04 ================== end FILE IDENTIFICATION RECORD ====================*
%FSLAX25Y25*MOIN*%
%IR0*IPPOS*OFA0.00000B0.00000*MIA0B0*SFA1.00000B1.00000*%
%AMMACRO18*
4,1,6,.01617,.00141,
.01107,.00652,
-.01107,.00652,
-.01617,.00141,
-.01617,-.00653,
.01617,-.00653,
.01617,.00141,
0.0*
%
%ADD18MACRO18*%
%ADD20R,.021X.007*%
%ADD11R,.009X.03*%
%ADD13C,.014*%
%ADD12R,.025X.007*%
%ADD10R,.041X.009*%
%AMMACRO17*
4,1,5,-.00751,-.00889,
.00751,-.00889,
.00751,.00889,
-.00359,.00889,
-.00751,.00496,
-.00751,-.00889,
0.0*
%
%ADD17MACRO17*%
%AMMACRO14*
4,1,5,-.00751,-.00889,
.00751,-.00889,
.00751,.00496,
.00359,.00889,
-.00751,.00889,
-.00751,-.00889,
0.0*
%
%ADD14MACRO14*%
%AMMACRO19*
4,1,6,-.01617,-.00141,
-.01107,-.00652,
.01107,-.00652,
.01617,-.00141,
.01617,.00653,
-.01617,.00653,
-.01617,-.00141,
0.0*
%
%ADD19MACRO19*%
%AMMACRO16*
4,1,5,.00751,.00889,
-.00751,.00889,
-.00751,-.00889,
.00359,-.00889,
.00751,-.00496,
.00751,.00889,
0.0*
%
%ADD16MACRO16*%
%AMMACRO15*
4,1,5,.00751,.00889,
-.00751,.00889,
-.00751,-.00496,
-.00359,-.00889,
.00751,-.00889,
.00751,.00889,
0.0*
%
%ADD15MACRO15*%
%ADD21C,.0004*%
%ADD22C,.003*%
%ADD23C,.004*%
%ADD24C,.005*%
%ADD25C,.006*%
%ADD26C,.007*%
%ADD27C,.00224*%
G75*
%LPD*%
G75*
G36*
G01X1993685Y750461D02*
X1992241Y750451D01*
X1992012Y750331D01*
X1989939Y748572D01*
Y747907D01*
X1990090Y747756D01*
X1991191D01*
X1991705Y748270D01*
X1991877Y748442D01*
X1993488D01*
X1993664Y748618D01*
Y749024D01*
X1993633Y749055D01*
X1992358D01*
X1992287Y749126D01*
Y749750D01*
X1992439Y749902D01*
X1993651D01*
X1993685Y749936D01*
Y750461D01*
G37*
G36*
G01X2192625Y785196D02*
X2314308D01*
G02X2315360Y784001I-153J-1195D01*
G01Y781768D01*
G02X2315052Y781098I-967J39D01*
G03X2314720Y780499I751J-808D01*
G02X2314448Y780018I-1002J249D01*
G01X2313642Y779212D01*
X2311165D01*
Y780309D01*
X2308442D01*
X2308366Y780233D01*
Y779434D01*
Y779212D01*
X2308363Y779209D01*
X2306899D01*
X2306385Y778695D01*
G02X2305945Y778558I-440J638D01*
G01X2305403D01*
X2304383D01*
G03X2303990Y778451I25J-867D01*
G02X2303588Y778348I-401J729D01*
G01X2192624D01*
G03X2156919Y763283I3J-49851D01*
G02X2145814Y758598I-11105J10819D01*
G01X2124159D01*
G02X2113054Y763283I0J15504D01*
G03X2077349Y778348I-35708J-34786D01*
G01X2004468D01*
G03X2003438Y778776I-4916J-10376D01*
G03X2003022Y778812I-284J-856D01*
G03X2002424Y778986I-3478J-10837D01*
G03X2001585Y779094I-839J-3207D01*
G01X2001252D01*
Y779095D01*
X2000361D01*
X2000348Y779108D01*
Y779094D01*
X1998534D01*
Y781978D01*
X1998462Y782018D01*
X1995825D01*
Y780000D01*
X1995827D01*
Y779094D01*
X1993656D01*
G02X1993040Y779360I27J909D01*
G01X1992318Y780082D01*
G02X1992272Y780333I376J199D01*
G03X1992280Y780468I-1095J133D01*
G03X1992246Y780740I-1103J0D01*
G01Y781082D01*
X1992239Y781089D01*
Y781531D01*
X1992257Y781570D01*
G03X1992340Y781946I-819J378D01*
G01Y784144D01*
G02X1993476Y785196I1136J-87D01*
G01X2077349D01*
G02X2097344Y781553I-1J-56700D01*
G03X2097874Y781350I646J894D01*
G02X2104679Y778174I-20524J-52854D01*
G03X2105467Y777732I886J657D01*
G02X2110466Y774519I-28115J-49238D01*
G03X2111355Y773866I1010J443D01*
G02X2115060Y770836I-34010J-45367D01*
G03X2115979Y770000I1073J256D01*
G02X2117961Y768062I-38637J-41497D01*
G03X2119276Y766957I6198J6041D01*
G03X2120214Y766398I960J544D01*
G03X2124160Y765446I3946J7704D01*
G01X2145813D01*
G03X2152012Y768062I-1J8655D01*
G02X2192625Y785196I40613J-39566D01*
G37*
G36*
G01X2146155Y719428D02*
X2145907Y719427D01*
X2124161D01*
G02X2122430Y719455I19J54675D01*
G02X2121936Y719474I11612J308335D01*
G01X2121923Y719475D01*
Y719474D01*
X2121919D01*
X2121914Y719475D01*
G02X2118026Y719774I2246J54628D01*
G01X2118027D01*
G03X2118001Y719776I-55J-548D01*
G03X2117998I-2J-550D01*
G01X2117997D01*
X2117994D01*
X2117983Y719778D01*
G03X2117894Y719788I-6367J-56262D01*
G02X2116856Y719918I6275J54313D01*
G02X2116448Y719976I20713J147167D01*
G02X2115434Y720129I7650J54136D01*
G02X2115396Y720135I8508J54008D01*
G02X2115050Y720192I8714J53975D01*
G01Y720193D01*
G02X2114727Y720248I9016J53925D01*
G01X2114647Y720262D01*
X2114598Y720271D01*
X2114503Y720287D01*
G02X2106298Y722429I9666J53813D01*
G02X2105191Y722825I17861J51675D01*
G01X2105189Y722826D01*
G03X2105186Y722827I-173J-513D01*
G01X2105185D01*
X2105184D01*
G02X2105145Y722841I25840J72043D01*
G02X2105124Y722849I27234J71520D01*
G02X2105057Y722873I25777J72065D01*
G02X2103235Y723591I19131J51218D01*
G02X2103035Y723674I31297J75697D01*
G02X2102985Y723695I31694J75533D01*
G02X2102456Y723921I21215J50391D01*
G02X2100875Y724635I21710J50180D01*
G01X2100784Y724677D01*
G02X2093164Y729064I23381J49423D01*
G02X2093148Y729075I30962J45053D01*
G03X2093145Y729077I-307J-457D01*
G03X2093124Y729092I-331J-441D01*
G02X2092113Y729804I30974J45054D01*
G02X2091755Y730065I32030J44310D01*
G02X2091740Y730076I32325J44095D01*
G02X2091732Y730082I32801J43743D01*
G01X2091731Y730083D01*
G03X2091723Y730089I-335J-438D01*
G03X2091707Y730101I-338J-434D01*
G02X2086327Y734633I32461J43995D01*
G01X2085791Y735168D01*
X2085772D01*
G03X2084893Y735936I-9959J-10512D01*
G03X2084271Y736410I-9167J-11384D01*
G03X2083981Y736615I-8581J-11831D01*
G03X2075716Y739177I-8266J-12054D01*
G01X2004785D01*
G03X2004775I-5J-7396D01*
G01X2003315D01*
G03X2003056Y739138I1J-885D01*
G01X1999835Y739137D01*
G03X1999832I-1J-551D01*
G03X1999802I-15J-1595D01*
G03X1999248Y739025I34J-1595D01*
G02X1999100Y738992I-180J459D01*
G01X1993553D01*
G02X1992992Y739223I0J796D01*
G01Y739222D01*
G02X1992923Y739387I163J165D01*
G01X1992924Y739388D01*
Y743221D01*
X1994937D01*
G02X1995711Y742346I-108J-875D01*
G01Y739926D01*
X1998529D01*
Y742929D01*
G02X1999101Y743257I572J-335D01*
G01X2001324D01*
G03X2001408Y743250I84J504D01*
G03X2001492Y743257I0J511D01*
G01X2001527D01*
Y743264D01*
G03X2001907Y743651I-119J497D01*
G03X2002088Y743834I-267J445D01*
G03X2002375Y744251I-214J454D01*
G03X2002599Y744409I-256J600D01*
G03X2003177Y744843I-1231J2242D01*
G01X2004269Y745935D01*
G02X2004471Y746118I2144J-2163D01*
G03X2004473Y746120I-389J391D01*
G03X2004931Y746569I-2667J3179D01*
G01X2004932Y746570D01*
G02X2005316Y746982I6340J-5525D01*
G01X2007424Y749090D01*
G02X2008587Y749572I1164J-1165D01*
G01X2075718D01*
G02X2082644Y748593I-4J-25014D01*
G01X2082645D01*
G02X2083120Y748451I-6927J-24035D01*
G03X2083144Y748444I166J526D01*
G01X2083147Y748443D01*
X2083217Y748423D01*
G03X2083225Y748420I197J513D01*
G01X2083231Y748419D01*
G02X2085546Y747562I-7517J-23860D01*
G03X2085573Y747550I237J498D01*
G01X2085680Y747504D01*
X2085681D01*
G03X2085700Y747496I457J1058D01*
G02X2088006Y746348I-9981J-22938D01*
G02X2090411Y744803I-12273J-21749D01*
G02X2091780Y743733I-14710J-20232D01*
G02X2093203Y742446I-16055J-19182D01*
G03X2094914Y740856I30987J31629D01*
G01X2094915Y740855D01*
G03X2095418Y740422I29138J33340D01*
G03X2095455Y740390I1164J1309D01*
G03X2097190Y738984I28736J33687D01*
G03X2097902Y738448I26985J35105D01*
G01X2097903Y738447D01*
G03X2099001Y737668I26167J35720D01*
G03X2099055Y737628I713J906D01*
G03X2105190Y734092I25108J36472D01*
G03X2105197Y734089I457J1058D01*
G03X2105213Y734082I229J502D01*
G01X2105321Y734033D01*
X2105326Y734030D01*
G03X2105368Y734009I536J1020D01*
G01X2105369D01*
G03X2107004Y733283I18783J40097D01*
G03X2107216Y733194I27789J65897D01*
G01X2107217D01*
G03X2108124Y732829I16982J40891D01*
G03X2110057Y732131I15221J39128D01*
G03X2114154Y730970I14106J41970D01*
G03X2115058Y730770I10016J43129D01*
G03X2116325Y730523I9105J43330D01*
G01X2116327D01*
X2116525Y730488D01*
X2116526D01*
G03X2117848Y730278I7606J43618D01*
G03X2117904Y730270I276J1731D01*
G03X2118070Y730246I19861J136786D01*
G03X2118111Y730239I113J541D01*
G02X2118171Y730218I-23J-162D01*
G03X2118207Y730198I286J473D01*
G03X2119126Y730083I606J1114D01*
G03X2119170Y730094I-112J541D01*
G02X2119234Y730100I47J-157D01*
G03X2119260Y730097I76J546D01*
G03X2123819Y729778I5908J51695D01*
G01X2123826D01*
G03X2123851Y729777I58J1149D01*
G01X2123852Y729778D01*
X2145745D01*
G03X2155388Y730875I-1J42941D01*
G03X2156830Y731222I-9652J43279D01*
G03X2159111Y731873I-11024J42950D01*
G01X2159113D01*
G03X2159377Y731958I-20561J64313D01*
G03X2159426Y731974I-520J1675D01*
G03X2161133Y732565I-13651J42189D01*
G03X2161672Y732767I-15291J41622D01*
G03X2161676Y732768I-131J532D01*
G03X2161761Y732802I-3269J8296D01*
G03X2164325Y733886I-15977J41364D01*
G03X2164367Y733905I-206J512D01*
G03X2164378Y733910I-720J1598D01*
G03X2166031Y734715I-18584J40261D01*
G03X2168838Y736287I-20249J39449D01*
G03X2169110Y736454I-28707J47061D01*
G03X2169426Y736651I-23300J37727D01*
G03X2169713Y736833I-14573J23299D01*
G03X2171237Y737856I-23947J37321D01*
G03X2171401Y737972I-8319J11935D01*
G03X2175094Y740894I-25629J36186D01*
G03X2175572Y741320I-29262J33316D01*
G03X2176775Y742449I-29738J32893D01*
G01Y742450D01*
G02X2178421Y743921I17473J-17896D01*
G02X2189671Y749154I15870J-19407D01*
G02X2192004Y749477I4596J-24613D01*
G02X2192927Y749544I2274J-24934D01*
G02X2193061Y749551I1198J-21639D01*
G01X2193064D01*
G02X2193931Y749580I1158J-21641D01*
G01X2193935D01*
G02X2194209Y749582I295J-21671D01*
G01X2298734D01*
G02X2299827Y749129I-1J-1547D01*
G01X2302069Y746887D01*
G03X2302894Y746183I4882J4885D01*
G02X2303588Y745591I-3407J-4697D01*
G01X2303778Y745401D01*
G03X2305398Y744364I3174J3175D01*
G01Y744288D01*
G03X2305629Y743864I505J0D01*
G01X2305667Y743834D01*
Y743538D01*
X2305632D01*
Y743109D01*
X2308408D01*
X2308933Y743565D01*
Y776683D01*
G03X2308583Y777133I-648J-143D01*
G01X2308006Y777423D01*
G03X2307560Y777458I-446J-2829D01*
G01X2306849D01*
X2306703Y777604D01*
Y777812D01*
X2306849Y777958D01*
X2307560D01*
G02X2309158Y777554I0J-3364D01*
G01X2310268Y777088D01*
G02X2310580Y776593I-237J-495D01*
G01Y743947D01*
X2311377Y743168D01*
X2313284D01*
X2313501Y742951D01*
Y742183D01*
G03Y742164I551J-9D01*
G02X2313503Y742085I-2779J-110D01*
G01X2313519Y739270D01*
G03X2313503Y739250I1566J-1269D01*
G03X2313500Y739246I439J-332D01*
G01X2313501D01*
G02X2313450Y739201I-143J111D01*
G01X2305632D01*
Y739176D01*
X2198640D01*
Y739175D01*
X2194385D01*
G03X2194350Y739177I-843J-14450D01*
G03X2194237Y739206I-342J-1099D01*
G03X2193956Y739228I-230J-1128D01*
G01X2193145Y739193D01*
G03X2192334Y739136I621J-14633D01*
G03X2192231Y739125I1504J-14569D01*
G03X2192226Y739124I105J-539D01*
G03X2192216Y739123I50J-549D01*
G03X2192183Y739119I206J-1840D01*
G03X2190714Y738884I1576J-14561D01*
G03X2190608Y738861I916J-4476D01*
G03X2190575Y738853I255J-1124D01*
G03X2190112Y738743I3114J-14136D01*
G03X2190028Y738721I3625J-14013D01*
G03X2189779Y738654I3681J-14176D01*
G01X2189778Y738653D01*
G03X2189720Y738636I864J-3054D01*
G03X2188684Y738295I4058J-14073D01*
G03X2188602Y738264I1834J-4975D01*
G03X2188580Y738257I156J-528D01*
G01X2188578Y738256D01*
G03X2188518Y738233I2176J-5765D01*
G03X2188272Y738136I5249J-13673D01*
G03X2188201Y738107I5503J-13573D01*
G03X2188185Y738101I1510J-4052D01*
G03X2188110Y738070I1614J-4012D01*
G03X2187867Y737965I5688J-13497D01*
G03X2187520Y737806I5927J-13393D01*
G03X2186596Y737329I6252J-13245D01*
G01X2186595D01*
G03X2186588Y737325I568J-1002D01*
G03X2186545Y737303I229J-501D01*
G03X2184266Y735706I7228J-12739D01*
G03X2184043Y735512I9502J-11147D01*
G03X2184022Y735493I9816J-10870D01*
G01X2184019Y735491D01*
G03X2183880Y735365I7836J-8784D01*
G03X2183624Y735125I9888J-10804D01*
G03X2183546Y735049I10182J-10528D01*
G03X2183535Y735038I10350J-10361D01*
G03X2183527Y735030I10352J-10360D01*
G02X2183225Y734738I-38133J39137D01*
G02X2182715Y734254I-37869J39393D01*
G02X2181573Y733213I-37379J39858D01*
G03X2181548Y733190I361J-417D01*
G01Y733189D01*
G03X2181529Y733173I7485J-8908D01*
G03X2181518Y733163I7821J-8615D01*
G03X2181505Y733151I7886J-8556D01*
G02X2180921Y732642I-36194J40937D01*
G02X2179213Y731234I-35605J41451D01*
G02X2179020Y731082I-33906J42853D01*
G01X2179019Y731081D01*
G02X2178993Y731061I-33329J43301D01*
G01X2178989Y731058D01*
G03X2178968Y731042I18085J-23759D01*
G03X2178945Y731024I18387J-23518D01*
G03X2178937Y731018I326J-444D01*
G02X2176682Y729350I-33612J43083D01*
G03X2176679Y729348I304J-459D01*
G03X2176669Y729341I1058J-1522D01*
G01X2176667Y729340D01*
G03X2176645Y729324I1079J-1507D01*
G02X2176501Y729224I-57500J82646D01*
G02X2176435Y729178I-57602J82575D01*
G02X2176422Y729169I-57315J82775D01*
G02X2176362Y729127I-57767J82460D01*
G02X2172005Y726414I-31030J44979D01*
G03X2172003Y726413I245J-493D01*
G03X2171995Y726409I242J-495D01*
G03X2171983Y726403I240J-496D01*
G02X2171645Y726214I-26838J47599D01*
G02X2171038Y725884I-26403J47841D01*
G02X2170999Y725864I-24923J48552D01*
G01X2170994Y725861D01*
G02X2170952Y725839I-25347J48339D01*
G01X2170945Y725841D01*
X2170909Y725821D01*
X2170708Y725710D01*
X2170698Y725704D01*
G02X2170598Y725652I-25232J48400D01*
G02X2170236Y725465I-25231J48400D01*
G02X2169829Y725258I-24947J48547D01*
G02X2169740Y725214I-24234J48907D01*
G01X2169741D01*
G02X2161045Y721767I-24387J48831D01*
G01X2161044D01*
G02X2158473Y721063I-15713J52336D01*
G02X2157687Y720874I-13168J53033D01*
G02X2156259Y720561I-12413J53216D01*
G02X2154354Y720208I-11016J54130D01*
G01X2153025Y719988D01*
G02X2151987Y719831I-6846J41753D01*
G02X2151833Y719810I-5794J41913D01*
G02X2151517Y719768I-5733J41921D01*
G02X2151033Y719709I-5362J41970D01*
G03X2150970Y719702I1961J-17935D01*
G02X2148369Y719486I-4801J42038D01*
G01X2148137Y719474D01*
G02X2148110Y719473I-1376J36799D01*
G01X2148101D01*
G02X2148072Y719472I-1284J36802D01*
G02X2147992Y719469I-1420J36797D01*
G02X2146383Y719429I-1856J42269D01*
G01X2146168Y719428D01*
X2146156D01*
X2146155D01*
G37*
G36*
G01X2032708Y777560D02*
Y772953D01*
X2040242D01*
Y777560D01*
X2032708D01*
G37*
G36*
G01X2192136Y787144D02*
X2314216D01*
G02X2317352Y784008I0J-3136D01*
G01Y753039D01*
G02X2316682Y752744I-400J0D01*
G03X2315750Y753018I-745J-812D01*
G01X2315648Y753001D01*
X2315627Y753022D01*
Y754167D01*
G03X2315280Y756247I143J1093D01*
G01Y756975D01*
G03X2316076Y758659I-135J1094D01*
G02X2316132Y758931I169J107D01*
G03X2315692Y760925I-624J908D01*
G02X2315528Y761150I34J197D01*
G03X2315196Y762099I-1092J151D01*
G02X2315344Y762767I276J289D01*
G03X2315502Y764787I-354J1044D01*
G02X2315414Y765051I92J177D01*
G03X2315524Y765517I-992J480D01*
G01X2315720Y765714D01*
G03X2316408Y767657I-24J1102D01*
G02X2316434Y768287I259J305D01*
G03X2315864Y770282I-643J895D01*
G02X2315492Y770725I26J399D01*
G03X2315499Y770828I-1095J126D01*
G02X2315842Y771217I400J-7D01*
G03X2315703Y773410I-156J1091D01*
G01X2315667Y773446D01*
Y774867D01*
G03X2316557Y776705I72J1099D01*
G02X2316565Y776982I148J134D01*
G03X2316217Y778785I-772J786D01*
G02X2316114Y779058I77J185D01*
G03X2316126Y779084I-1359J643D01*
G01X2316127D01*
G03X2316201Y779262I-2243J1037D01*
G03X2316022Y781370I-398J1028D01*
G01X2315862Y781403D01*
Y784806D01*
X2314970Y785698D01*
X2192623D01*
G03X2151652Y768412I2J-57202D01*
G02X2145812Y765948I-5840J5690D01*
G01X2124159D01*
G02X2119662Y767301I1J8154D01*
G01Y767302D01*
G02X2118360Y768372I4498J6801D01*
G01X2118321Y768412D01*
X2118261Y768473D01*
G03X2117092Y769636I-40924J-39966D01*
G01X2117053Y769673D01*
G03X2116185Y770493I-39713J-41169D01*
G03X2077351Y785698I-38837J-41997D01*
G01X1992677D01*
X1991838Y784857D01*
Y781947D01*
G02X1991802Y781780I-400J-1D01*
G01X1991660Y781474D01*
X1991494Y781523D01*
G03X1991177Y781570I-318J-1055D01*
G03X1990075Y780468I0J-1102D01*
G01Y780466D01*
G03X1990130Y780123I1102J1D01*
G02X1989961Y779657I-380J-126D01*
G03X1989437Y778719I578J-938D01*
G03X1989766Y777934I1101J0D01*
G02X1989765Y777363I-281J-285D01*
G03X1989434Y776576I770J-787D01*
G03X1990002Y775612I1102J0D01*
G02X1990020Y774923I-194J-350D01*
G03X1989500Y773987I582J-936D01*
G03X1990285Y772932I1101J0D01*
G02X1990561Y772467I-116J-383D01*
G03X1990538Y772243I1079J-224D01*
G03X1990542Y772150I1102J1D01*
G02X1990364Y771934I-199J-17D01*
G03X1989377Y770838I115J-1096D01*
G03X1990359Y769743I1102J0D01*
G02X1990537Y769530I-22J-199D01*
G03X1990534Y769456I1099J-82D01*
G03X1990539Y769353I1102J2D01*
G02X1990360Y769135I-199J-19D01*
G03X1989370Y768039I112J-1096D01*
G03X1990389Y766940I1102J0D01*
G02X1990574Y766733I-15J-199D01*
G03X1990573Y766689I1101J-47D01*
G03X1990574Y766644I1102J2D01*
G02X1990391Y766436I-200J-9D01*
G03X1989382Y765338I93J-1098D01*
G03X1990311Y764250I1102J0D01*
G02X1990478Y764026I-31J-198D01*
G03X1990469Y763887I1093J-141D01*
G01Y763884D01*
G03X1991571Y762782I1102J0D01*
G03X1991874Y762825I-2J1102D01*
G02X1992384Y762441I110J-385D01*
G01Y762039D01*
X1992134D01*
X1992089Y762063D01*
G03X1991563Y762197I-527J-968D01*
G03X1990461Y761095I0J-1102D01*
G03X1990470Y760957I1102J3D01*
G02X1990304Y760734I-199J-26D01*
G03X1989382Y759647I180J-1087D01*
G03X1990373Y758551I1102J0D01*
G02X1990553Y758340I-20J-199D01*
G03X1990551Y758275I1100J-66D01*
G03X1991013Y757378I1102J0D01*
G02X1990991Y756711I-232J-326D01*
G03X1990467Y755773I578J-938D01*
G03X1990477Y755627I1102J2D01*
G02X1990310Y755403I-198J-26D01*
G03X1989384Y754315I176J-1088D01*
G03X1989692Y753551I1102J0D01*
G02X1989693Y753275I-144J-139D01*
G03X1989389Y752515I798J-760D01*
G03X1989669Y751781I1102J0D01*
G02X1989668Y751247I-298J-266D01*
G03X1989385Y750510I818J-737D01*
G03X1989761Y749681I1102J0D01*
G02X1989757Y749075I-263J-301D01*
G01X1989438Y748804D01*
Y747699D01*
X1989882Y747254D01*
X1990191D01*
X1990226Y747241D01*
G03X1990403Y747188I404J1026D01*
G02X1990535Y746893I-41J-196D01*
G03X1990351Y746292I1213J-700D01*
G01Y746288D01*
G02X1990341Y746200I-897J57D01*
G03X1990313Y745925I1972J-340D01*
G01Y745924D01*
G02X1990280Y745731I-698J20D01*
G01X1990279Y745730D01*
G03X1990180Y745090I2006J-638D01*
G01Y744143D01*
G03X1990325Y743089I3902J0D01*
G01Y743088D01*
G02X1990357Y742967I-4595J-1280D01*
G01X1990390Y742774D01*
G02X1990420Y742407I-2250J-369D01*
G01X1990421Y739917D01*
Y739381D01*
G03X1992209Y736744I2839J0D01*
G01X1992210Y736743D01*
G03X1993553Y736488I1333J3356D01*
G01X2002654D01*
G03X2002771Y736489I-6J7596D01*
G01X2002835D01*
G03X2002873Y736488I36J650D01*
G01X2002874D01*
G03X2003132Y736503I-2J2252D01*
G03X2003918Y736595I-489J7581D01*
G02X2004903Y736674I994J-6213D01*
G01X2075716D01*
G02X2084184Y733220I-2J-12113D01*
G03X2097372Y723586I39977J40882D01*
G01X2097371D01*
G03X2099719Y722409I26791J50515D01*
G03X2099724Y722407I244J604D01*
G01X2099750Y722395D01*
G03X2124160Y716922I24412J51707D01*
G01X2146158D01*
G03X2153434Y717517I-3J44816D01*
G01X2154616Y717712D01*
G03X2156759Y718108I-9419J56970D01*
G03X2167565Y721457I-11432J55994D01*
G01X2167620Y721480D01*
X2167623Y721482D01*
G03X2177785Y727066I-22299J52619D01*
G01X2177787Y727068D01*
G03X2178118Y727298I-58715J84851D01*
G01X2178119D01*
G03X2180482Y729046I-32794J46803D01*
G02X2180561Y729108I16928J-21489D01*
G03X2180564Y729110I-360J543D01*
G03X2183169Y731279I-35249J44983D01*
G03X2183170Y731280I-460J461D01*
G01X2183171Y731281D01*
G02X2183175Y731285I6459J-6455D01*
G02X2183220Y731323I5914J-6957D01*
G03X2183222Y731325I-460J462D01*
G03X2185279Y733240I-37901J42773D01*
G01X2185280Y733241D01*
G02X2185573Y733519I8503J-8668D01*
G02X2185686Y733620I6231J-6858D01*
G03X2185688Y733622I-460J462D01*
G02X2187777Y735120I8080J-9062D01*
G02X2187790Y735127I1547J-2858D01*
G03X2187793Y735129I-359J542D01*
G02X2189429Y735900I5980J-10567D01*
G02X2189476Y735918I4366J-11330D01*
G03X2189485Y735921I-201J619D01*
G02X2189547Y735945I1041J-2598D01*
G01X2189548D01*
G02X2191160Y736419I4223J-11384D01*
G03X2191167Y736420I-88J643D01*
G02X2191223Y736432I461J-2013D01*
G03X2191230Y736434I-175J626D01*
G02X2192482Y736633I2529J-11875D01*
G03X2192510Y736637I-78J647D01*
G02X2193341Y736695I1260J-12077D01*
G02X2194078Y736684I259J-7320D01*
G03X2194255Y736672I180J1340D01*
G01X2309762D01*
X2309784Y735611D01*
G02X2309384Y735203I-400J-8D01*
G01X2193769D01*
G03X2186328Y732169I1J-10643D01*
G02X2145325Y715453I-41004J41932D01*
G01X2123670D01*
G02X2082667Y732169I1J58648D01*
G03X2075226Y735203I-7442J-7609D01*
G01X1992090D01*
G02X1988954Y738339I0J3136D01*
G01Y784008D01*
G02X1992090Y787144I3136J0D01*
G01X2076859D01*
G02X2118867Y769421I-1J-58648D01*
G03X2123671Y767394I4804J4680D01*
G01X2145324D01*
G03X2150128Y769421I0J6707D01*
G02X2192136Y787144I42009J-40925D01*
G37*
G36*
G01X2031553Y757784D02*
Y753188D01*
X2039293D01*
Y757784D01*
X2031553D01*
G37*
G36*
G01X2048577Y777592D02*
Y772921D01*
X2056197D01*
Y777592D01*
X2048577D01*
G37*
G36*
G01X2064251Y777642D02*
Y773002D01*
X2072164D01*
Y777642D01*
X2064251D01*
G37*
G36*
G01X2085444Y774925D02*
G03I-2241J0D01*
G37*
G36*
G01X2099745Y770559D02*
G03I-2241J0D01*
G37*
G36*
G01X2112833Y761458D02*
G03I-2241J0D01*
G37*
G36*
G01X2129708Y755514D02*
G03I-2241J0D01*
G37*
G36*
G01X2065451Y757989D02*
Y753219D01*
X2072996D01*
Y757989D01*
X2065451D01*
G37*
G36*
G01X2047305Y757925D02*
Y753275D01*
X2055163D01*
Y757925D01*
X2047305D01*
G37*
G36*
G01X2127011Y735715D02*
G03I-2241J0D01*
G37*
G36*
G01X2105108Y742365D02*
G03I-2241J0D01*
G37*
G36*
G01X2087570Y754044D02*
G03I-2241J0D01*
G37*
G36*
G01X2229729Y777517D02*
Y773051D01*
X2238694D01*
Y777517D01*
X2229729D01*
G37*
G36*
G01X2213565Y777529D02*
Y773063D01*
X2221055D01*
Y777529D01*
X2213565D01*
G37*
G36*
G01X2195590Y777647D02*
Y772997D01*
X2203081D01*
Y777647D01*
X2195590D01*
G37*
G36*
G01X2147952Y755556D02*
G03I-2241J0D01*
G37*
G36*
G01X2163080Y762788D02*
G03I-2241J0D01*
G37*
G36*
G01X2174966Y770726D02*
G03I-2241J0D01*
G37*
G36*
G01X2189097Y775026D02*
G03I-2241J0D01*
G37*
G36*
G01X2196262Y757985D02*
Y753390D01*
X2203562D01*
Y757985D01*
X2196262D01*
G37*
G36*
G01X2213892Y757959D02*
Y753341D01*
X2221719D01*
Y757959D01*
X2213892D01*
G37*
G36*
G01X2230001Y758025D02*
Y753342D01*
X2239345D01*
Y758025D01*
X2230001D01*
G37*
G36*
G01X2175242Y747164D02*
G03I-2241J0D01*
G37*
G36*
G01X2161466Y738333D02*
G03I-2241J0D01*
G37*
G36*
G01X2145049Y735714D02*
G03I-2241J0D01*
G37*
G36*
G01X2191467Y755247D02*
G03I-2404J0D01*
G37*
G36*
G01X2268251Y777470D02*
Y773005D01*
X2272771D01*
Y777470D01*
X2268251D01*
G37*
G36*
G01X2250396Y777503D02*
Y772946D01*
X2259486D01*
Y777503D01*
X2250396D01*
G37*
G36*
G01X2250813Y758047D02*
Y753126D01*
X2260222D01*
Y758047D01*
X2250813D01*
G37*
G36*
G01X2267572Y757983D02*
Y753322D01*
X2272753D01*
Y757983D01*
X2267572D01*
G37*
G36*
G01X2316683Y745538D02*
G02X2317352Y745242I269J-296D01*
G01Y738339D01*
G02X2314216Y735203I-3136J0D01*
G01X2306089D01*
Y736672D01*
X2313431D01*
Y736673D01*
G03X2314625Y736936I-1J2847D01*
G03X2314645Y736945I-791J1784D01*
G03X2315630Y737764I-1035J2247D01*
G01X2315792Y737993D01*
G03X2316101Y738968I-1381J974D01*
G01Y744255D01*
X2315965Y744390D01*
G02X2315963Y744402I287J54D01*
G03X2315831Y744856I-2310J-425D01*
G02X2315796Y744956I1490J578D01*
G03X2315786Y744989I-4471J-1337D01*
G02X2315970Y745250I190J61D01*
G03X2316683Y745538I-30J1102D01*
G37*
%LPC*%
G75*
G36*
G01X2001251Y743246D02*
G02X2001252Y743244I-2J-2D01*
G01Y740244D01*
G02X2001251Y740242I-1J-1D01*
G01X2000351D01*
G02X2000350Y740244I2J2D01*
G01Y743244D01*
G02X2000351Y743246I1J1D01*
G01X2001251D01*
G37*
%LPD*%
G75*
G54D10*
X1997130Y782886D03*
Y739460D03*
G54D11*
X1993459Y741744D03*
X2000801D03*
Y780602D03*
X1993459D03*
G54D20*
X2312583Y777708D03*
Y776330D03*
Y774953D03*
Y773575D03*
Y772197D03*
Y770819D03*
Y769441D03*
Y768063D03*
Y766685D03*
Y765307D03*
Y763929D03*
Y762551D03*
Y761173D03*
Y759795D03*
Y758417D03*
Y757039D03*
Y755661D03*
Y754283D03*
Y752905D03*
Y751527D03*
Y750149D03*
Y748771D03*
Y747393D03*
Y746016D03*
Y744638D03*
X2306953D03*
Y746016D03*
Y747393D03*
Y748771D03*
Y750149D03*
Y751527D03*
Y752905D03*
Y754283D03*
Y755661D03*
Y757039D03*
Y758417D03*
Y759795D03*
Y761173D03*
Y762551D03*
Y763929D03*
Y765307D03*
Y766685D03*
Y768063D03*
Y769441D03*
Y770819D03*
Y772197D03*
Y773575D03*
Y774953D03*
Y776330D03*
Y777708D03*
G54D21*
G01X2318153Y738339D02*
Y784008D01*
G03X2314216Y787945I-3937J0D01*
G01X2192137D01*
G03X2149554Y769980I0J-59449D01*
G02X2145324Y768195I-4230J4121D01*
G01X2123671D01*
G02X2119441Y769980I0J5906D01*
G03X2076858Y787945I-42583J-41484D01*
G01X1992090D01*
G03X1988153Y784008I0J-3937D01*
G01Y738339D01*
G03X1992090Y734402I3937J0D01*
G01X2075226D01*
G02X2082107Y731596I-1J-9842D01*
G03X2123671Y714652I41563J42505D01*
G01X2145324D01*
G03X2186888Y731596I1J59449D01*
G02X2193769Y734402I6882J-7036D01*
G01X2314216D01*
G03X2318153Y738339I0J3937D01*
G54D12*
X2000624Y777708D03*
Y776330D03*
Y774953D03*
Y773575D03*
Y772197D03*
Y770819D03*
Y769441D03*
Y768063D03*
Y766685D03*
Y765307D03*
Y763929D03*
Y762551D03*
Y761173D03*
Y759795D03*
Y758417D03*
Y757039D03*
Y755661D03*
Y754283D03*
Y752905D03*
Y751527D03*
Y750149D03*
Y748771D03*
Y747393D03*
Y746016D03*
Y744638D03*
X1993636D03*
Y746016D03*
Y747393D03*
Y748771D03*
Y750149D03*
Y751527D03*
Y752905D03*
Y754283D03*
Y755661D03*
Y757039D03*
Y758417D03*
Y759795D03*
Y761173D03*
Y762551D03*
Y763929D03*
Y765307D03*
Y766685D03*
Y768063D03*
Y769441D03*
Y770819D03*
Y772197D03*
Y773575D03*
Y774953D03*
Y776330D03*
Y777708D03*
G54D22*
G01X2314911Y745396D02*
Y745468D01*
G03Y745478I-625J5D01*
G01X1993636Y759795D02*
X1990841D01*
G03X1990484Y759647I0J-505D01*
G01X2000624Y751527D02*
X2003497D01*
G03X2005118Y752026I0J2882D01*
G02X2006738Y752524I1619J-2384D01*
G01X2075721D01*
G02X2080259Y752155I10J-27968D01*
G02X2082802Y751614I-4542J-27597D01*
G02X2083952Y751287I-7073J-27059D01*
G02X2084003Y751272I-313J-1160D01*
G01X2084104Y751240D01*
G02X2086683Y750288I-8384J-26683D01*
G02X2086724Y750271I-439J-1118D01*
G02X2086728Y750269I-266J-537D01*
G02X2090113Y748539I-11006J-25712D01*
G02X2090301Y748424I-12623J-20848D01*
G02X2092353Y747043I-14575J-23871D01*
G02X2095271Y744554I-14215J-19621D01*
G03X2097337Y742665I28902J29536D01*
G03X2098707Y741546I26821J31439D01*
G02X2098873Y741417I-51328J-66221D01*
G03X2099652Y740828I25311J32666D01*
G03X2100727Y740068I24390J33359D01*
G02X2100757Y740045I-350J-488D01*
G01X2100758D01*
G02X2100772Y740034I-1167J-1500D01*
G03X2102687Y738796I23384J34071D01*
G03X2102875Y738682I45582J74959D01*
G03X2106453Y736765I21281J35422D01*
G01X2106596Y736697D01*
G02X2106675Y736660I-767J-1740D01*
G03X2108149Y736007I17472J37449D01*
G03X2108352Y735923I26316J63310D01*
G03X2109676Y735399I15866J38155D01*
G03X2109773Y735363I22032J59216D01*
G02X2109864Y735331I-4517J-12990D01*
G03X2112950Y734328I14306J38767D01*
G03X2113401Y734205I17663J63877D01*
G03X2116850Y733430I10776J39893D01*
G01X2117040Y733395D01*
G03X2118314Y733195I7045J40719D01*
G03X2118655Y733147I19025J133922D01*
G02X2118671Y733144I-103J-591D01*
G01X2118673D01*
G03X2119377Y733056I5477J40960D01*
G01X2119381D01*
G02X2119413Y733053I-40J-599D01*
G02X2119536Y733038I-8409J-69466D01*
G02X2119552Y733036I-67J-597D01*
G03X2122470Y732813I4606J41066D01*
G03X2122895Y732796I12011J294960D01*
G03X2124171Y732774I1350J41304D01*
G01X2145779D01*
G03X2147703Y732822I-70J41390D01*
G03X2148019Y732838I-6334J128222D01*
G03X2151813Y733220I-2245J41327D01*
G03X2156093Y734083I-6029J40946D01*
G03X2158222Y734691I-10297J40086D01*
G03X2158508Y734782I-19433J61571D01*
G03X2159046Y734960I-12731J39382D01*
G03X2159617Y735158I-17258J50690D01*
G03X2163123Y736584I-13824J39012D01*
G01X2163122Y736585D01*
G03X2167298Y738807I-17322J37590D01*
G03X2167552Y738966I-27556J44302D01*
G03X2173140Y743108I-21765J35203D01*
G02X2173169Y743134I817J-882D01*
G03X2173590Y743509I-27318J31093D01*
G03X2174710Y744564I-27814J30650D01*
G02X2180059Y748657I19546J-20002D01*
G02X2180129Y748699I8322J-13791D01*
G02X2180449Y748882I14043J-24185D01*
G02X2181979Y749690I13831J-24337D01*
G02X2192764Y752495I12297J-25146D01*
G02X2194211Y752533I1370J-24588D01*
G01X2300413D01*
G02X2302030Y752367I1J-7951D01*
G01X2305219Y751705D01*
G03X2306953Y751527I1734J8355D01*
G01X2000624Y750149D02*
X2000985D01*
G03X2001284Y750172I1J1942D01*
G01X2002894Y750423D01*
G03X2003700Y750676I-434J2793D01*
G02X2005736Y751555I10434J-21370D01*
G02X2006316Y751711I1098J-2924D01*
G01X2007276Y751874D01*
G02X2007873Y751924I596J-3522D01*
G01X2075722D01*
G02X2080162Y751562I3J-27367D01*
G02X2082650Y751033I-4441J-27005D01*
G02X2083787Y750709I-6930J-26475D01*
G02X2083822Y750699I-147J-582D01*
G01X2083924Y750667D01*
G02X2086461Y749729I-8211J-26107D01*
G02X2086492Y749717I-201J-566D01*
G02X2089803Y748024I-10776J-25158D01*
G02X2089987Y747912I-12267J-20361D01*
G02X2091998Y746558I-14265J-23357D01*
G02X2094849Y744127I-13857J-19138D01*
G03X2096947Y742209I29321J29966D01*
G03X2099297Y740344I27221J31886D01*
G03X2100387Y739572I24773J33823D01*
G02X2100397Y739564I-370J-472D01*
G02X2100425Y739544I-742J-1069D01*
G03X2102375Y738283I23732J34560D01*
G03X2102565Y738168I45833J75509D01*
G03X2106197Y736221I21600J35932D01*
G01X2106347Y736151D01*
G02X2106412Y736120I-527J-1189D01*
G03X2107917Y735453I17736J37988D01*
G03X2108121Y735368I26703J63800D01*
G03X2109468Y734835I16096J38710D01*
G03X2109571Y734798I21616J60012D01*
G02X2109657Y734767I-4417J-12388D01*
G03X2112788Y733750I14507J39333D01*
G03X2113244Y733625I17908J64433D01*
G03X2116743Y732839I10930J40474D01*
G01X2116935Y732804D01*
G03X2118230Y732600I7171J41306D01*
G03X2118572Y732552I19055J134525D01*
G01X2118584Y732550D01*
G03X2119324Y732458I5542J41557D01*
G02X2119340Y732457I-73J-1299D01*
G02X2119461Y732442I-8474J-68853D01*
G03X2122446Y732213I4697J41660D01*
G03X2122874Y732196I11954J295563D01*
G03X2124170Y732174I1360J41905D01*
G01X2145780D01*
G03X2147732Y732222I-56J41990D01*
G03X2148051Y732238I-6302J128825D01*
G03X2156243Y733501I-2271J41927D01*
G03X2158403Y734118I-10448J40667D01*
G03X2158692Y734210I-19623J62141D01*
G03X2159239Y734391I-12917J39953D01*
G03X2159817Y734592I-17496J51243D01*
G03X2163374Y736039I-14027J39577D01*
G01X2163381Y736042D01*
G03X2167612Y738295I-17588J38129D01*
G01X1993636Y773575D02*
X1991597D01*
G02X1990602Y773987I0J1407D01*
G01X1993636Y769441D02*
X1991651D01*
X1991636Y769456D01*
G01X1993636Y772197D02*
X1991751D01*
G02X1991640Y772243I0J157D01*
G01X1993636Y770819D02*
X1990498D01*
X1990479Y770838D01*
G01X1993636Y744638D02*
X1992637D01*
G03X1992312Y744543I-1J-601D01*
G03X1992169Y744279I170J-263D01*
G01Y744061D01*
G03X1992194Y743761I1859J4D01*
G03X1992235Y743539I4708J755D01*
G01X1992241Y743511D01*
G02X1992259Y743426I-2584J-592D01*
G02X1992263Y743406I-586J-128D01*
G01X1992315Y743097D01*
G02X1992372Y742407I-4175J-692D01*
G01Y739388D01*
G03X1992603Y738832I783J-1D01*
G03X1992861Y738631I952J955D01*
G03X1993249Y738474I690J1147D01*
G03X1993548Y738440I298J1293D01*
G01X2002660D01*
G03X2003120Y738502I-1J1742D01*
G02X2004042Y738626I921J-3361D01*
G01X2075716D01*
G02X2084547Y735507I-1J-14065D01*
G02X2085550Y734617I-8733J-10852D01*
G01X2085563D01*
X2085941Y734239D01*
G03X2091380Y729658I38222J39861D01*
G01X2091381Y729656D01*
G03X2092812Y728638I32724J44485D01*
G01Y728637D01*
G03X2100551Y724177I31354J45462D01*
G01X2100643Y724135D01*
G03X2102771Y723187I23533J49962D01*
G03X2103024Y723082I31736J76112D01*
G03X2104868Y722355I21174J51005D01*
G03X2105000Y722308I25924J72598D01*
G03X2114406Y719745I19165J51793D01*
G01X2114631Y719705D01*
G03X2116370Y719430I9494J54403D01*
G03X2116781Y719372I21050J147676D01*
G03X2117832Y719240I7407J54727D01*
G02X2117958Y719226I-6129J-55734D01*
G03X2117965I4J1999D01*
G03X2121889Y718924I6197J54877D01*
G03X2122411Y718904I12095J308868D01*
G03X2124161Y718876I1758J55198D01*
G01X2145908D01*
X2146157Y718877D01*
X2146158D01*
G03X2148015Y718918I-17J42861D01*
G03X2148163Y718924I-1440J37348D01*
G01X2148397Y718936D01*
G03X2151033Y719155I-2229J42804D01*
G02X2151095Y719162I1993J-17377D01*
G03X2152063Y719285I-4919J42579D01*
G03X2153115Y719444I-5879J42457D01*
G01X2154444Y719664D01*
G03X2156369Y720021I-9209J55025D01*
G03X2157812Y720337I-11085J54071D01*
G03X2158606Y720528I-12512J53758D01*
G03X2161202Y721239I-13278J53574D01*
G03X2170956Y725217I-15848J52806D01*
G01X2171012Y725248D01*
X2171013D01*
G03X2171297Y725398I-25606J48825D01*
G03X2172253Y725922I-26050J48660D01*
G01X2172254D01*
G03X2176675Y728674I-26925J48182D01*
G03X2176968Y728877I-57505J83313D01*
G02X2176998Y728899I785J-1040D01*
G03X2179276Y730584I-31673J45202D01*
G02X2179324Y730620I17609J-23428D01*
G03X2181871Y732739I-34011J43470D01*
G02X2181926Y732788I7401J-8252D01*
G01X2181938Y732800D01*
G03X2183912Y734636I-36592J41321D01*
G02X2184253Y734959I9862J-10070D01*
G02X2184389Y735082I7594J-8260D01*
G02X2186817Y736824I9385J-10518D01*
G01X2186819D01*
G03X2186822I2J2908D01*
G02X2186836Y736832I2587J-4511D01*
G02X2186862Y736847I313J-513D01*
G02X2187755Y737308I6908J-12287D01*
G02X2188324Y737562I6029J-12741D01*
G02X2188407Y737596I1472J-3474D01*
G02X2188717Y737719I5353J-13039D01*
G02X2188774Y737741I2049J-5224D01*
G01X2188776D01*
G02X2188874Y737778I1727J-4427D01*
G02X2189877Y738108I4904J-13215D01*
G02X2189928Y738123I766J-2509D01*
G02X2190168Y738188I3805J-13572D01*
G02X2190701Y738317I3541J-13466D01*
G02X2190727Y738323I148J-583D01*
G02X2190827Y738345I913J-3913D01*
G02X2192246Y738572I2933J-13786D01*
G02X2192282Y738576I162J-1291D01*
G02X2192289Y738577I88J-593D01*
G02X2193169Y738643I1494J-14016D01*
G01X2193980Y738678D01*
G02X2194242Y738630I25J-600D01*
G02X2194371Y738624I-582J-13911D01*
G01X2313357D01*
G03X2313941Y738915I0J732D01*
G02X2313951Y738927I1129J-931D01*
G01X2313989Y738974D01*
G02X2313992Y738978I251J-185D01*
G01X2313998Y738985D01*
G03X2314016Y739008I-231J199D01*
G01X2314071Y739076D01*
Y739157D01*
G03Y739163I-305J3D01*
G01X2314054Y742088D01*
G03X2314052Y742183I-3332J-23D01*
G01Y743640D01*
G03X2313853Y744206I-901J1D01*
G03X2313346Y744580I-972J-786D01*
G03X2313051Y744637I-294J-732D01*
G01X2312585D01*
G02X2312583Y744638I0J3D01*
G01X1993636Y746016D02*
X1993099D01*
G03X1991974Y745774I-2J-2728D01*
G03X1991531Y745087I310J-686D01*
G01Y744529D01*
G03X1991648Y743414I5368J0D01*
G01X1991655Y743381D01*
G02X1991670Y743311I-1997J-465D01*
G01X1991671Y743306D01*
X1991723Y742998D01*
G02X1991772Y742401I-3583J-595D01*
G01Y739385D01*
G03X1992182Y738401I1382J-2D01*
G03X1992921Y737944I1369J1387D01*
G03X1992943Y737936I325J859D01*
G03X1993550Y737840I603J1843D01*
G01X2002869D01*
G03X2003149Y737884I2J900D01*
G02X2004040Y738025I891J-2744D01*
G01X2075716D01*
G02X2085129Y734187I-1J-13465D01*
G03X2091058Y729148I39030J39916D01*
G03X2092512Y728113I33098J44958D01*
G03X2100295Y723633I31652J45987D01*
G01X2100453Y723560D01*
G03X2102540Y722632I23721J50537D01*
G03X2102794Y722526I32118J76605D01*
G03X2104659Y721792I21374J51573D01*
G03X2104843Y721725I26673J72966D01*
G03X2114301Y719153I19322J52376D01*
G01X2114528Y719113D01*
G03X2116286Y718834I9628J54990D01*
G03X2116700Y718777I20635J148342D01*
G03X2117764Y718643I7507J55319D01*
G02X2117899Y718628I-6058J-55137D01*
G03X2121891Y718322I6260J55474D01*
G03X2122390Y718303I12033J309472D01*
G03X2124161Y718274I1799J55798D01*
G01X2146158D01*
X2146157Y718275D01*
G03X2148051Y718317I-16J43463D01*
G03X2148192Y718323I-1544J37946D01*
G01X2148428Y718335D01*
G03X2151103Y718557I-2255J43405D01*
G02X2151164Y718564I1956J-16775D01*
G03X2153214Y718851I-4999J43175D01*
G01X2154544Y719071D01*
G03X2156489Y719432I-9317J55617D01*
G03X2157948Y719751I-11187J54664D01*
G03X2161453Y720686I-12621J54350D01*
G03X2171580Y724867I-16102J53357D01*
G03X2172675Y725467I-26263J49230D01*
G03X2177018Y728179I-27351J48634D01*
G03X2177321Y728390I-58042J83673D01*
G02X2177343Y728406I423J-558D01*
G03X2179650Y730112I-32011J45701D01*
G02X2179731Y730176I17838J-22493D01*
G03X2182273Y732291I-34400J43930D01*
G02X2182326Y732339I7063J-7746D01*
G03X2184334Y734206I-36978J41784D01*
G02X2184659Y734516I9475J-9608D01*
G02X2184788Y734632I7164J-7838D01*
G02X2187110Y736297I8980J-10072D01*
G02X2187128Y736307I2244J-4018D01*
G02X2187157Y736323I3058J-5509D01*
G02X2188935Y737159I6616J-11761D01*
G02X2188989Y737180I1843J-4659D01*
G02X2189079Y737213I1474J-3881D01*
G02X2190322Y737607I4694J-12651D01*
G02X2190866Y737738I3207J-12123D01*
G02X2190951Y737757I788J-3325D01*
G02X2192323Y737976I2810J-13198D01*
G02X2192352Y737980I110J-692D01*
G02X2193195Y738043I1427J-13419D01*
G01X2194006Y738078D01*
G03X2194064Y738039I112J105D01*
G01X2194126Y738036D01*
G02X2194131Y738035I-63J-330D01*
G01X2194193Y738031D01*
G02X2194251Y738024I-55J-698D01*
G01X2313430D01*
G03X2314061Y738164I-1J1496D01*
G03X2314674Y739123I-434J953D01*
G01X2314654Y742092D01*
G02X2314652Y742689I95249J618D01*
G01Y743564D01*
G03Y743566I-3314J1D01*
G01Y743847D01*
X2314643Y743856D01*
Y743988D01*
G03X2314573Y744361I-996J6D01*
G02X2314507Y744546I2553J1015D01*
G01X2314493Y744590D01*
G03X2314289Y745073I-3145J-1044D01*
G02X2314286Y745078I598J362D01*
G03X2314255Y745137I-3290J-1691D01*
G03X2313880Y745705I-3261J-1745D01*
G03X2313283Y745990I-597J-482D01*
G01X2312607D01*
G02X2312583Y746016I382J377D01*
G01X1993636Y774953D02*
X1992947D01*
G02X1991371Y775606I0J2228D01*
G01X1991329Y775648D01*
X1991318D01*
X1991288Y775678D01*
Y775773D01*
X1991138Y775923D01*
Y775974D01*
X1990536Y776576D01*
G01X1993636Y777708D02*
X1992980D01*
G02X1992008Y778099I-2J1400D01*
G02X1991788Y778657I504J521D01*
G03X1991374Y779650I-1249J62D01*
G02X1991177Y780448I26675J7008D01*
G01Y780468D01*
G01X1993636Y776330D02*
X1993349Y776349D01*
G02X1992340Y776518I352J5198D01*
G02X1991829Y776888I235J862D01*
G01X1991577Y777269D01*
G03X1991360Y777517I-1041J-692D01*
G02X1991179Y777757I469J542D01*
G02X1991102Y777948I2193J995D01*
G03X1990779Y778479I-1460J-525D01*
G01X1990539Y778719D01*
G01X1993636Y752905D02*
X1991433D01*
G03X1990491Y752515I0J-1332D01*
G01X1993636Y766685D02*
X1991687D01*
G02X1991675Y766689I0J20D01*
G01X1993636Y765307D02*
X1990559D01*
G02X1990484Y765338I0J106D01*
G01X1993636Y763929D02*
X1991578D01*
G03X1991571Y763884I0J-23D01*
G01X1993636Y758417D02*
X1991996D01*
G03X1991653Y758275I0J-485D01*
G01X2000624Y748771D02*
X2000666D01*
G03X2002108Y749000I-1J4664D01*
G01X2002123Y749015D01*
G02X2002485Y749275I899J-870D01*
G03X2002559Y749314I-545J1124D01*
G02X2002964Y749456I610J-1091D01*
G03X2003330Y749604I-143J881D01*
G03X2003754Y749937I-2668J3833D01*
G02X2004315Y750304I1562J-1775D01*
G02X2005823Y750945I9816J-20999D01*
G02X2006633Y751156I1626J-4581D01*
G01X2007376Y751282D01*
G02X2007872Y751324I498J-2930D01*
G01X2075718D01*
G02X2083638Y750126I2J-26767D01*
G01X2083642D01*
X2083744Y750094D01*
G02X2086256Y749164I-8026J-25536D01*
G01Y749165D01*
G02X2089494Y747509I-10541J-24605D01*
G02X2089674Y747400I-11912J-19874D01*
G02X2092906Y745078I-13959J-22840D01*
G02X2094429Y743698I-17199J-20511D01*
G03X2096557Y741753I29737J30399D01*
G03X2098941Y739860I27619J32335D01*
G03X2100047Y739076I25143J34297D01*
G02X2100071Y739058I-408J-569D01*
G03X2105943Y735676I24093J35042D01*
G01X2106096Y735606D01*
G02X2106141Y735583I-296J-635D01*
G03X2107684Y734899I18002J38528D01*
G03X2107890Y734813I26979J64335D01*
G03X2109260Y734272I16301J39276D01*
G03X2109367Y734233I22103J60474D01*
G02X2109450Y734203I-4225J-11819D01*
G03X2116636Y732248I14713J39898D01*
G01X2116830Y732213D01*
G03X2118145Y732006I7269J41898D01*
G03X2118490Y731957I19362J135087D01*
G01X2118505Y731955D01*
G03X2119263Y731861I5612J42153D01*
G02X2119274Y731860I-58J-698D01*
G02X2119391Y731846I-8112J-68292D01*
G03X2122422Y731613I4773J42255D01*
G03X2122853Y731596I11898J296166D01*
G03X2124169Y731574I1369J42505D01*
G01X2145781D01*
G03X2147761Y731622I-42J42590D01*
G03X2148083Y731638I-6270J129428D01*
G03X2156393Y732919I-2302J42527D01*
G03X2158584Y733545I-10600J41249D01*
G03X2158877Y733639I-19944J62669D01*
G03X2163618Y735490I-13091J40528D01*
G03X2163625Y735493I-21200J49477D01*
G03X2167925Y737783I-17837J38675D01*
G03X2168187Y737945I-27938J45477D01*
G03X2173936Y742208I-22404J36221D01*
G03X2174396Y742619I-28146J31965D01*
G03X2175550Y743704I-28592J31566D01*
G02X2180667Y747621I18709J-19140D01*
G02X2180734Y747660I7533J-12864D01*
G02X2181042Y747838I13546J-23084D01*
G02X2192830Y751295I13233J-23295D01*
G02X2194209Y751333I1334J-23386D01*
G01X2300161D01*
G02X2304449Y749981I1J-7473D01*
G03X2304649Y749867I716J1024D01*
G02X2305152Y749493I-603J-1336D01*
G02X2305186Y749450I-964J-797D01*
G01X2305271Y749342D01*
G03X2305427Y749202I476J374D01*
G03X2306952Y748771I1522J2473D01*
G01X2306953D01*
G01X1993636Y768063D02*
X1990546D01*
G03X1990472Y768039I0J-126D01*
G01X1993636Y761173D02*
X1992424D01*
G03X1991563Y761095I0J-4793D01*
G01X1993636Y751527D02*
X1992942D01*
G03X1990487Y750510I0J-3472D01*
G01X1993636Y755661D02*
X1991791D01*
G02X1991621Y755731I0J241D01*
G01X1991579Y755773D01*
X1991569D01*
G01X1993636Y754283D02*
X1990563D01*
G02X1990486Y754315I0J109D01*
G01X1993636Y757039D02*
G03X1991792Y757020I-84J-81337D01*
G02X1991640Y757023I-36J2033D01*
G03X1991427Y757017I-71J-1248D01*
G02X1991268Y757006I-210J1887D01*
G03X1990052Y756960I2467J-81300D01*
G01X2002955Y777030D02*
X2003803Y777878D01*
G01X2003536Y776352D02*
X2004829Y777645D01*
G01X2004267Y775825D02*
X2006088Y777646D01*
G01X2004839Y775138D02*
X2007347Y777646D01*
G01X2005245Y774285D02*
X2008605Y777645D01*
G01X2005822Y773603D02*
X2009865Y777646D01*
G01X2006576Y773099D02*
X2011123Y777646D01*
G01X2007744Y773008D02*
X2012381Y777645D01*
G01X2009003Y773009D02*
X2013640Y777646D01*
G01X2010262Y773009D02*
X2014899Y777646D01*
G01X2011520Y773008D02*
X2016157Y777645D01*
G01X2012779Y773009D02*
X2017416Y777646D01*
G01X2014037Y773008D02*
X2018675Y777646D01*
G01X2015296Y773008D02*
X2019934Y777646D01*
G01X2016555Y773009D02*
X2021192Y777646D01*
G01X2017813Y773008D02*
X2022451Y777646D01*
G01X2019072Y773008D02*
X2023710Y777646D01*
G01X2020331Y773009D02*
X2024968Y777646D01*
G01X2021589Y773008D02*
X2026227Y777646D01*
G01X2022848Y773008D02*
X2027486Y777646D01*
G01X2024107Y773009D02*
X2028744Y777646D01*
G01X2025365Y773008D02*
X2030003Y777646D01*
G01X2026624Y773009D02*
X2031261Y777646D01*
G01X2027883Y773009D02*
X2032520Y777646D01*
G01X2029141Y773008D02*
X2033779Y777646D01*
G01X2030400Y773009D02*
X2035037Y777646D01*
G01X2031659Y773009D02*
X2036296Y777646D01*
G01X2032917Y773008D02*
X2037555Y777646D01*
G01X2034176Y773009D02*
X2038813Y777646D01*
G01X2035435Y773009D02*
X2040072Y777646D01*
G01X2036693Y773008D02*
X2041331Y777646D01*
G01X2037952Y773009D02*
X2042589Y777646D01*
G01X2039210Y773008D02*
X2043848Y777646D01*
G01X2040469Y773008D02*
X2045107Y777646D01*
G01X2041728Y773009D02*
X2046365Y777646D01*
G01X2042986Y773008D02*
X2047624Y777646D01*
G01X2044245Y773008D02*
X2048882Y777645D01*
G01X2045504Y773009D02*
X2050141Y777646D01*
G01X2046762Y773008D02*
X2051400Y777646D01*
G01X2048021Y773008D02*
X2052658Y777645D01*
G01X2049280Y773009D02*
X2053917Y777646D01*
G01X2050538Y773008D02*
X2055176Y777646D01*
G01X2051797Y773009D02*
X2056434Y777646D01*
G01X2053056Y773009D02*
X2057693Y777646D01*
G01X2054314Y773008D02*
X2058952Y777646D01*
G01X2055573Y773009D02*
X2060210Y777646D01*
G01X2056832Y773009D02*
X2061469Y777646D01*
G01X2058090Y773008D02*
X2062728Y777646D01*
G01X2059349Y773009D02*
X2063986Y777646D01*
G01X2060608Y773009D02*
X2065245Y777646D01*
G01X2061866Y773008D02*
X2066504Y777646D01*
G01X2063125Y773009D02*
X2067762Y777646D01*
G01X2064383Y773008D02*
X2069021Y777646D01*
G01X2065642Y773008D02*
X2070280Y777646D01*
G01X2066901Y773009D02*
X2071538Y777646D01*
G01X2068159Y773008D02*
X2072796Y777645D01*
G01X2069418Y773008D02*
X2074056Y777646D01*
G01X2070677Y773009D02*
X2075314Y777646D01*
G01X2071935Y773008D02*
X2076572Y777645D01*
G01X2073194Y773008D02*
X2077829Y777643D01*
G01X2074453Y773009D02*
X2079060Y777616D01*
G01X2075711Y773008D02*
X2080262Y777559D01*
G01X2076970Y773009D02*
X2081437Y777475D01*
G01X2078220Y773000D02*
X2082586Y777366D01*
G01X2079438Y772959D02*
X2083711Y777232D01*
G01X2080625Y772887D02*
X2084813Y777075D01*
G01X2081783Y772787D02*
X2085893Y776897D01*
G01X2082914Y772659D02*
X2086953Y776698D01*
G01X2084018Y772505D02*
X2087992Y776479D01*
G01X2085100Y772328D02*
X2089013Y776241D01*
G01X2086158Y772127D02*
X2090016Y775985D01*
G01X2087194Y771905D02*
X2091000Y775711D01*
G01X2088210Y771662D02*
X2091968Y775420D01*
G01X2089206Y771399D02*
X2092920Y775113D01*
G01X2090182Y771117D02*
X2093855Y774790D01*
G01X2091141Y770817D02*
X2094775Y774452D01*
G01X2092081Y770498D02*
X2095681Y774098D01*
G01X2093004Y770163D02*
X2096571Y773730D01*
G01X2093911Y769811D02*
X2097447Y773347D01*
G01X2094801Y769443D02*
X2098309Y772951D01*
G01X2095676Y769059D02*
X2099158Y772541D01*
G01X2096535Y768659D02*
X2099993Y772117D01*
G01X2097379Y768245D02*
X2100815Y771681D01*
G01X2098209Y767816D02*
X2101624Y771231D01*
G01X2099024Y767372D02*
X2102420Y770769D01*
G01X2099825Y766915D02*
X2103204Y770294D01*
G01X2100612Y766443D02*
X2103976Y769806D01*
G01X2101386Y765958D02*
X2104735Y769307D01*
G01X2102145Y765459D02*
X2105482Y768796D01*
G01X2102892Y764947D02*
X2106217Y768272D01*
G01X2103626Y764422D02*
X2106941Y767737D01*
G01X2104347Y763885D02*
X2107652Y767190D01*
G01X2105055Y763334D02*
X2108352Y766631D01*
G01X2105749Y762769D02*
X2109041Y766061D01*
G01X2106431Y762193D02*
X2109718Y765479D01*
G01X2107100Y761603D02*
X2110383Y764886D01*
G01X2107757Y761001D02*
X2111037Y764281D01*
G01X2108401Y760387D02*
X2111680Y763665D01*
G01X2109032Y759759D02*
X2112311Y763038D01*
G01X2109660Y759128D02*
X2112940Y762408D01*
G01X2110313Y758523D02*
X2113599Y761809D01*
G01X2110993Y757944D02*
X2114294Y761245D01*
G01X2111700Y757393D02*
X2115024Y760716D01*
G01X2112435Y756869D02*
X2115790Y760224D01*
G01X2113198Y756373D02*
X2116595Y759770D01*
G01X2113991Y755907D02*
X2117439Y759355D01*
G01X2114813Y755471D02*
X2118325Y758983D01*
G01X2115668Y755067D02*
X2119256Y758655D01*
G01X2116555Y754695D02*
X2120238Y758378D01*
G01X2117477Y754359D02*
X2121273Y758155D01*
G01X2118436Y754060D02*
X2122371Y757995D01*
G01X2119436Y753801D02*
X2123543Y757907D01*
G01X2120480Y753586D02*
X2124789Y757895D01*
G01X2121572Y753420D02*
X2126048Y757896D01*
G01X2122719Y753308D02*
X2127307Y757896D01*
G01X2123930Y753260D02*
X2128565Y757895D01*
G01X2125187Y753258D02*
X2129825Y757896D01*
G01X2126446Y753259D02*
X2131083Y757896D01*
G01X2127704Y753258D02*
X2132341Y757895D01*
G01X2128963Y753258D02*
X2133601Y757896D01*
G01X2130222Y753259D02*
X2134859Y757896D01*
G01X2131480Y753258D02*
X2136117Y757895D01*
G01X2132739Y753259D02*
X2137376Y757896D01*
G01X2133998Y753259D02*
X2138635Y757896D01*
G01X2135256Y753258D02*
X2139893Y757895D01*
G01X2136515Y753259D02*
X2141152Y757896D01*
G01X2137774Y753259D02*
X2142411Y757896D01*
G01X2139032Y753258D02*
X2143670Y757896D01*
G01X2140291Y753259D02*
X2144928Y757896D01*
G01X2141550Y753259D02*
X2146191Y757900D01*
G01X2142808Y753258D02*
X2147537Y757987D01*
G01X2144067Y753259D02*
X2149025Y758217D01*
G01X2145325Y753258D02*
X2150725Y758658D01*
G01X2146599Y753273D02*
X2152809Y759483D01*
G01X2147952Y753368D02*
X2156527Y761942D01*
G01X2149415Y753572D02*
X2164968Y769125D01*
G01X2151021Y753919D02*
X2168312Y771210D01*
G01X2152837Y754477D02*
X2170985Y772625D01*
G01X2155021Y755402D02*
X2173310Y773691D01*
G01X2158258Y757381D02*
X2175410Y774532D01*
G01X2167093Y764957D02*
X2177348Y775211D01*
G01X2170531Y767137D02*
X2179160Y775765D01*
G01X2173197Y768544D02*
X2180873Y776220D01*
G01X2175489Y769577D02*
X2182504Y776592D01*
G01X2177547Y770377D02*
X2184065Y776894D01*
G01X2179440Y771011D02*
X2185565Y777136D01*
G01X2181207Y771519D02*
X2187012Y777324D01*
G01X2182874Y771927D02*
X2188412Y777465D01*
G01X2184458Y772253D02*
X2189768Y777562D01*
G01X2185973Y772509D02*
X2191085Y777621D01*
G01X2187427Y772704D02*
X2192368Y777645D01*
G01X2188828Y772847D02*
X2193627Y777646D01*
G01X2190182Y772942D02*
X2194886Y777646D01*
G01X2191493Y772995D02*
X2196144Y777646D01*
G01X2192768Y773011D02*
X2197403Y777646D01*
G01X2194026Y773010D02*
X2198662Y777646D01*
G01X2195285Y773010D02*
X2199921Y777646D01*
G01X2196544Y773011D02*
X2201179Y777646D01*
G01X2197802Y773010D02*
X2202438Y777646D01*
G01X2199061Y773010D02*
X2203697Y777646D01*
G01X2200320Y773011D02*
X2204955Y777646D01*
G01X2201578Y773010D02*
X2206214Y777646D01*
G01X2202837Y773011D02*
X2207472Y777646D01*
G01X2204096Y773011D02*
X2208731Y777646D01*
G01X2205354Y773010D02*
X2209990Y777646D01*
G01X2206613Y773011D02*
X2211248Y777646D01*
G01X2207872Y773011D02*
X2212507Y777646D01*
G01X2209130Y773010D02*
X2213766Y777646D01*
G01X2210389Y773011D02*
X2215024Y777646D01*
G01X2211648Y773011D02*
X2216283Y777646D01*
G01X2212906Y773010D02*
X2217542Y777646D01*
G01X2214165Y773011D02*
X2218800Y777646D01*
G01X2215423Y773010D02*
X2220059Y777646D01*
G01X2216682Y773010D02*
X2221318Y777646D01*
G01X2217941Y773011D02*
X2222576Y777646D01*
G01X2219199Y773010D02*
X2223835Y777646D01*
G01X2220458Y773010D02*
X2225094Y777646D01*
G01X2221717Y773011D02*
X2226352Y777646D01*
G01X2222975Y773010D02*
X2227611Y777646D01*
G01X2224234Y773010D02*
X2228870Y777646D01*
G01X2225493Y773011D02*
X2230128Y777646D01*
G01X2226751Y773010D02*
X2231387Y777646D01*
G01X2228010Y773011D02*
X2232645Y777646D01*
G01X2229269Y773011D02*
X2233904Y777646D01*
G01X2230527Y773010D02*
X2235163Y777646D01*
G01X2231786Y773011D02*
X2236421Y777646D01*
G01X2233045Y773011D02*
X2237680Y777646D01*
G01X2234303Y773010D02*
X2238939Y777646D01*
G01X2235562Y773011D02*
X2240197Y777646D01*
G01X2236821Y773011D02*
X2241456Y777646D01*
G01X2238079Y773010D02*
X2242715Y777646D01*
G01X2239338Y773011D02*
X2243973Y777646D01*
G01X2240596Y773010D02*
X2245232Y777646D01*
G01X2241855Y773010D02*
X2246491Y777646D01*
G01X2243114Y773011D02*
X2247749Y777646D01*
G01X2244372Y773010D02*
X2249008Y777646D01*
G01X2245631Y773010D02*
X2250267Y777646D01*
G01X2246890Y773011D02*
X2251525Y777646D01*
G01X2248148Y773010D02*
X2252784Y777646D01*
G01X2249407Y773010D02*
X2254043Y777646D01*
G01X2250666Y773011D02*
X2255301Y777646D01*
G01X2251924Y773010D02*
X2256560Y777646D01*
G01X2253183Y773011D02*
X2257818Y777646D01*
G01X2254442Y773011D02*
X2259077Y777646D01*
G01X2255700Y773010D02*
X2260336Y777646D01*
G01X2256959Y773011D02*
X2261594Y777646D01*
G01X2258218Y773011D02*
X2262853Y777646D01*
G01X2259476Y773010D02*
X2264111Y777645D01*
G01X2260735Y773011D02*
X2265370Y777646D01*
G01X2261994Y773011D02*
X2266629Y777646D01*
G01X2263252Y773010D02*
X2267887Y777645D01*
G01X2264511Y773011D02*
X2269146Y777646D01*
G01X2265769Y773010D02*
X2270405Y777646D01*
G01X2267028Y773010D02*
X2271663Y777645D01*
G01X2268287Y773011D02*
X2272922Y777646D01*
G01X2269545Y773010D02*
X2274181Y777646D01*
G01X2270804Y773010D02*
X2275439Y777645D01*
G01X2272063Y773011D02*
X2276698Y777646D01*
G01X2273321Y773010D02*
X2277957Y777646D01*
G01X2274580Y773010D02*
X2279216Y777646D01*
G01X2275839Y773011D02*
X2280474Y777646D01*
G01X2277097Y773010D02*
X2281733Y777646D01*
G01X2278356Y773011D02*
X2282991Y777646D01*
G01X2279615Y773011D02*
X2284250Y777646D01*
G01X2280873Y773010D02*
X2285509Y777646D01*
G01X2282132Y773011D02*
X2286767Y777646D01*
G01X2283391Y773011D02*
X2288026Y777646D01*
G01X2284649Y773010D02*
X2289285Y777646D01*
G01X2285908Y773011D02*
X2290543Y777646D01*
G01X2287167Y773011D02*
X2291802Y777646D01*
G01X2288425Y773010D02*
X2293061Y777646D01*
G01X2289684Y773011D02*
X2294319Y777646D01*
G01X2290942Y773010D02*
X2295577Y777645D01*
G01X2292201Y773010D02*
X2296837Y777646D01*
G01X2293460Y773011D02*
X2298095Y777646D01*
G01X2294718Y773010D02*
X2299353Y777645D01*
G01X2295977Y773010D02*
X2300613Y777646D01*
G01X2297236Y773011D02*
X2301871Y777646D01*
G01X2298494Y773010D02*
X2303130Y777646D01*
G01X2299909Y773167D02*
X2304388Y777646D01*
G01X2305040Y777039D02*
X2305203Y777202D01*
G01X2007350Y773008D02*
X2002955Y777403D01*
G01X2008608Y773009D02*
X2003691Y777925D01*
G01X2009867Y773008D02*
X2005229Y777646D01*
G01X2011125Y773009D02*
X2006488Y777646D01*
G01X2012384Y773009D02*
X2007747Y777646D01*
G01X2013643Y773008D02*
X2009005Y777646D01*
G01X2014901Y773009D02*
X2010264Y777646D01*
G01X2016160Y773009D02*
X2011523Y777646D01*
G01X2017419Y773008D02*
X2012781Y777646D01*
G01X2018677Y773009D02*
X2014040Y777646D01*
G01X2019936Y773009D02*
X2015299Y777646D01*
G01X2021195Y773008D02*
X2016557Y777646D01*
G01X2022453Y773009D02*
X2017816Y777646D01*
G01X2023712Y773008D02*
X2019074Y777646D01*
G01X2024971Y773008D02*
X2020333Y777646D01*
G01X2026229Y773009D02*
X2021592Y777646D01*
G01X2027488Y773008D02*
X2022850Y777646D01*
G01X2028747Y773008D02*
X2024109Y777646D01*
G01X2030005Y773009D02*
X2025368Y777646D01*
G01X2031264Y773008D02*
X2026626Y777646D01*
G01X2032523Y773008D02*
X2027885Y777646D01*
G01X2033781Y773009D02*
X2029144Y777646D01*
G01X2035040Y773008D02*
X2030402Y777646D01*
G01X2036298Y773009D02*
X2031661Y777646D01*
G01X2037557Y773009D02*
X2032920Y777646D01*
G01X2038816Y773008D02*
X2034178Y777646D01*
G01X2040074Y773009D02*
X2035437Y777646D01*
G01X2041333Y773009D02*
X2036696Y777646D01*
G01X2042592Y773008D02*
X2037954Y777646D01*
G01X2043850Y773009D02*
X2039213Y777646D01*
G01X2045109Y773009D02*
X2040472Y777646D01*
G01X2046368Y773008D02*
X2041730Y777646D01*
G01X2047626Y773009D02*
X2042989Y777646D01*
G01X2048885Y773008D02*
X2044247Y777646D01*
G01X2050144Y773008D02*
X2045506Y777646D01*
G01X2051402Y773009D02*
X2046765Y777646D01*
G01X2052661Y773008D02*
X2048023Y777646D01*
G01X2053920Y773008D02*
X2049282Y777646D01*
G01X2055178Y773009D02*
X2050541Y777646D01*
G01X2056437Y773008D02*
X2051799Y777646D01*
G01X2057696Y773008D02*
X2053058Y777646D01*
G01X2058954Y773009D02*
X2054317Y777646D01*
G01X2060213Y773008D02*
X2055575Y777646D01*
G01X2061471Y773009D02*
X2056834Y777646D01*
G01X2062730Y773009D02*
X2058093Y777646D01*
G01X2063989Y773008D02*
X2059351Y777646D01*
G01X2065247Y773009D02*
X2060610Y777646D01*
G01X2066506Y773009D02*
X2061869Y777646D01*
G01X2067765Y773008D02*
X2063127Y777646D01*
G01X2069023Y773009D02*
X2064386Y777646D01*
G01X2070282Y773009D02*
X2065645Y777646D01*
G01X2071541Y773008D02*
X2066903Y777646D01*
G01X2072799Y773009D02*
X2068162Y777646D01*
G01X2074058Y773008D02*
X2069420Y777646D01*
G01X2075317Y773008D02*
X2070679Y777646D01*
G01X2076575Y773009D02*
X2071938Y777646D01*
G01X2077837Y773006D02*
X2073197Y777646D01*
G01X2079128Y772973D02*
X2074455Y777646D01*
G01X2080461Y772899D02*
X2075714Y777646D01*
G01X2081837Y772781D02*
X2076972Y777646D01*
G01X2083264Y772613D02*
X2078240Y777637D01*
G01X2084747Y772389D02*
X2079539Y777597D01*
G01X2086295Y772099D02*
X2080875Y777519D01*
G01X2087919Y771734D02*
X2082253Y777400D01*
G01X2089634Y771278D02*
X2083675Y777237D01*
G01X2091459Y770711D02*
X2085147Y777023D01*
G01X2093428Y770001D02*
X2086677Y776752D01*
G01X2095592Y769096D02*
X2088270Y776417D01*
G01X2098045Y767902D02*
X2089941Y776005D01*
G01X2101008Y766197D02*
X2091702Y775503D01*
G01X2105445Y763019D02*
X2093574Y774890D01*
G01X2113579Y756143D02*
X2095586Y774136D01*
G01X2116102Y754879D02*
X2097787Y773194D01*
G01X2118073Y754167D02*
X2100262Y771977D01*
G01X2119773Y753725D02*
X2103203Y770295D01*
G01X2121302Y753455D02*
X2107268Y767488D01*
G01X2122706Y753309D02*
X2115791Y760224D01*
G01X2124015Y753259D02*
X2118270Y759004D01*
G01X2125274Y753259D02*
X2120127Y758406D01*
G01X2126533Y753258D02*
X2121709Y758082D01*
G01X2127792Y753258D02*
X2123121Y757929D01*
G01X2129050Y753259D02*
X2124413Y757896D01*
G01X2130309Y753258D02*
X2125671Y757896D01*
G01X2131567Y753259D02*
X2126930Y757896D01*
G01X2132826Y753259D02*
X2128189Y757896D01*
G01X2134085Y753258D02*
X2129447Y757896D01*
G01X2135343Y753259D02*
X2130706Y757896D01*
G01X2136602Y753259D02*
X2131965Y757896D01*
G01X2137861Y753258D02*
X2133223Y757896D01*
G01X2139119Y753259D02*
X2134482Y757896D01*
G01X2140378Y753259D02*
X2135741Y757896D01*
G01X2141637Y753258D02*
X2136999Y757896D01*
G01X2142895Y753259D02*
X2138258Y757896D01*
G01X2144154Y753258D02*
X2139516Y757896D01*
G01X2145413Y753258D02*
X2140775Y757896D01*
G01X2146655Y753275D02*
X2142034Y757896D01*
G01X2147832Y753356D02*
X2143292Y757896D01*
G01X2148951Y753496D02*
X2144551Y757896D01*
G01X2150019Y753687D02*
X2145810Y757896D01*
G01X2151040Y753924D02*
X2147023Y757941D01*
G01X2152019Y754204D02*
X2148157Y758066D01*
G01X2152960Y754522D02*
X2149224Y758258D01*
G01X2153864Y754876D02*
X2150231Y758509D01*
G01X2154735Y755264D02*
X2151187Y758812D01*
G01X2155573Y755685D02*
X2152095Y759162D01*
G01X2156381Y756136D02*
X2152960Y759556D01*
G01X2157158Y756617D02*
X2153784Y759991D01*
G01X2157908Y757126D02*
X2154569Y760464D01*
G01X2158629Y757664D02*
X2155318Y760975D01*
G01X2159322Y758229D02*
X2156030Y761521D01*
G01X2159989Y758821D02*
X2156707Y762103D01*
G01X2160628Y759440D02*
X2157349Y762719D01*
G01X2161254Y760073D02*
X2157975Y763352D01*
G01X2161891Y760694D02*
X2158612Y763974D01*
G01X2162541Y761303D02*
X2159260Y764584D01*
G01X2163204Y761899D02*
X2159920Y765183D01*
G01X2163880Y762482D02*
X2160591Y765771D01*
G01X2164568Y763052D02*
X2161274Y766346D01*
G01X2165269Y763610D02*
X2161968Y766911D01*
G01X2165983Y764154D02*
X2162673Y767464D01*
G01X2166710Y764686D02*
X2163391Y768005D01*
G01X2167450Y765205D02*
X2164120Y768534D01*
G01X2168203Y765710D02*
X2164861Y769052D01*
G01X2168970Y766202D02*
X2165615Y769557D01*
G01X2169750Y766680D02*
X2166380Y770051D01*
G01X2170544Y767145D02*
X2167157Y770532D01*
G01X2171352Y767596D02*
X2167948Y771000D01*
G01X2172175Y768032D02*
X2168750Y771456D01*
G01X2173011Y768454D02*
X2169566Y771900D01*
G01X2173863Y768861D02*
X2170394Y772330D01*
G01X2174730Y769253D02*
X2171236Y772747D01*
G01X2175612Y769629D02*
X2172091Y773150D01*
G01X2176511Y769989D02*
X2172960Y773540D01*
G01X2177426Y770333D02*
X2173844Y773915D01*
G01X2178357Y770660D02*
X2174741Y774276D01*
G01X2179307Y770969D02*
X2175654Y774622D01*
G01X2180274Y771261D02*
X2176582Y774953D01*
G01X2181260Y771533D02*
X2177525Y775268D01*
G01X2182266Y771786D02*
X2178485Y775567D01*
G01X2183291Y772019D02*
X2179461Y775849D01*
G01X2184338Y772231D02*
X2180454Y776115D01*
G01X2185408Y772420D02*
X2181466Y776362D01*
G01X2186501Y772586D02*
X2182496Y776590D01*
G01X2187618Y772727D02*
X2183546Y776799D01*
G01X2188763Y772841D02*
X2184615Y776988D01*
G01X2189935Y772928D02*
X2185706Y777156D01*
G01X2191137Y772984D02*
X2186820Y777301D01*
G01X2192371Y773009D02*
X2187956Y777423D01*
G01X2193628Y773010D02*
X2189118Y777520D01*
G01X2194886Y773011D02*
X2190306Y777591D01*
G01X2196145Y773011D02*
X2191522Y777633D01*
G01X2197404Y773010D02*
X2192768Y777646D01*
G01X2198662Y773011D02*
X2194027Y777646D01*
G01X2199921Y773010D02*
X2195285Y777646D01*
G01X2201180Y773010D02*
X2196544Y777646D01*
G01X2202438Y773011D02*
X2197803Y777646D01*
G01X2203697Y773010D02*
X2199061Y777646D01*
G01X2204956Y773010D02*
X2200320Y777646D01*
G01X2206214Y773011D02*
X2201579Y777646D01*
G01X2207473Y773010D02*
X2202837Y777646D01*
G01X2208732Y773010D02*
X2204096Y777646D01*
G01X2209990Y773011D02*
X2205355Y777646D01*
G01X2211249Y773010D02*
X2206613Y777646D01*
G01X2212507Y773011D02*
X2207872Y777646D01*
G01X2213766Y773011D02*
X2209131Y777646D01*
G01X2215025Y773010D02*
X2210389Y777646D01*
G01X2216283Y773011D02*
X2211648Y777646D01*
G01X2217542Y773011D02*
X2212907Y777646D01*
G01X2218801Y773010D02*
X2214165Y777646D01*
G01X2220059Y773011D02*
X2215424Y777646D01*
G01X2221318Y773011D02*
X2216683Y777646D01*
G01X2222577Y773010D02*
X2217941Y777646D01*
G01X2223835Y773011D02*
X2219200Y777646D01*
G01X2225094Y773010D02*
X2220458Y777646D01*
G01X2226353Y773010D02*
X2221717Y777646D01*
G01X2227611Y773011D02*
X2222976Y777646D01*
G01X2228870Y773010D02*
X2224234Y777646D01*
G01X2230129Y773010D02*
X2225493Y777646D01*
G01X2231387Y773011D02*
X2226752Y777646D01*
G01X2232646Y773010D02*
X2228010Y777646D01*
G01X2233905Y773010D02*
X2229269Y777646D01*
G01X2235163Y773011D02*
X2230528Y777646D01*
G01X2236422Y773010D02*
X2231786Y777646D01*
G01X2237680Y773011D02*
X2233045Y777646D01*
G01X2238939Y773011D02*
X2234304Y777646D01*
G01X2240198Y773010D02*
X2235562Y777646D01*
G01X2241456Y773011D02*
X2236821Y777646D01*
G01X2242715Y773011D02*
X2238080Y777646D01*
G01X2243974Y773010D02*
X2239338Y777646D01*
G01X2245232Y773011D02*
X2240597Y777646D01*
G01X2246491Y773011D02*
X2241856Y777646D01*
G01X2247750Y773010D02*
X2243114Y777646D01*
G01X2249008Y773011D02*
X2244373Y777646D01*
G01X2250267Y773010D02*
X2245631Y777646D01*
G01X2251526Y773010D02*
X2246890Y777646D01*
G01X2252784Y773011D02*
X2248149Y777646D01*
G01X2254043Y773010D02*
X2249407Y777646D01*
G01X2255302Y773010D02*
X2250666Y777646D01*
G01X2256560Y773011D02*
X2251925Y777646D01*
G01X2257819Y773010D02*
X2253183Y777646D01*
G01X2259078Y773010D02*
X2254442Y777646D01*
G01X2260336Y773011D02*
X2255701Y777646D01*
G01X2261595Y773010D02*
X2256959Y777646D01*
G01X2262853Y773011D02*
X2258218Y777646D01*
G01X2264112Y773011D02*
X2259477Y777646D01*
G01X2265371Y773010D02*
X2260735Y777646D01*
G01X2266629Y773011D02*
X2261994Y777646D01*
G01X2267888Y773011D02*
X2263253Y777646D01*
G01X2269147Y773010D02*
X2264511Y777646D01*
G01X2270405Y773011D02*
X2265770Y777646D01*
G01X2271664Y773011D02*
X2267029Y777646D01*
G01X2272923Y773010D02*
X2268287Y777646D01*
G01X2274181Y773011D02*
X2269546Y777646D01*
G01X2275440Y773010D02*
X2270804Y777646D01*
G01X2276699Y773010D02*
X2272064Y777645D01*
G01X2277957Y773011D02*
X2273322Y777646D01*
G01X2279216Y773010D02*
X2274580Y777646D01*
G01X2280475Y773010D02*
X2275840Y777645D01*
G01X2281733Y773011D02*
X2277098Y777646D01*
G01X2282992Y773010D02*
X2278356Y777646D01*
G01X2284251Y773010D02*
X2279616Y777645D01*
G01X2285509Y773011D02*
X2280874Y777646D01*
G01X2286768Y773010D02*
X2282132Y777646D01*
G01X2288026Y773011D02*
X2283391Y777646D01*
G01X2289285Y773011D02*
X2284650Y777646D01*
G01X2290544Y773010D02*
X2285908Y777646D01*
G01X2291802Y773011D02*
X2287167Y777646D01*
G01X2293061Y773011D02*
X2288426Y777646D01*
G01X2294320Y773010D02*
X2289684Y777646D01*
G01X2295578Y773011D02*
X2290943Y777646D01*
G01X2296837Y773011D02*
X2292202Y777646D01*
G01X2298096Y773010D02*
X2293460Y777646D01*
G01X2299352Y773012D02*
X2294718Y777646D01*
G01X2300227Y773396D02*
X2295978Y777645D01*
G01X2300857Y774025D02*
X2297236Y777646D01*
G01X2301486Y774655D02*
X2298495Y777646D01*
G01X2302115Y775284D02*
X2299754Y777645D01*
G01X2302745Y775913D02*
X2301012Y777646D01*
G01X2303418Y776499D02*
X2302271Y777646D01*
G01X2304272Y776904D02*
X2303530Y777646D01*
G01X2305203Y777231D02*
X2304788Y777646D01*
G01X1990609Y762551D02*
X1993636D01*
G01X2002490Y752650D02*
X2007686Y757846D01*
G01X2003377Y752279D02*
X2009046Y757948D01*
G01X2005363Y753006D02*
X2010305Y757948D01*
G01X2006892Y753277D02*
X2011563Y757948D01*
G01X2008151Y753277D02*
X2012822Y757948D01*
G01X2009409Y753276D02*
X2014081Y757948D01*
G01X2010668Y753277D02*
X2015339Y757948D01*
G01X2011927Y753277D02*
X2016598Y757948D01*
G01X2013185Y753276D02*
X2017857Y757948D01*
G01X2014444Y753277D02*
X2019115Y757948D01*
G01X2015703Y753277D02*
X2020374Y757948D01*
G01X2016961Y753276D02*
X2021633Y757948D01*
G01X2018220Y753277D02*
X2022891Y757948D01*
G01X2019478Y753276D02*
X2024150Y757948D01*
G01X2020737Y753276D02*
X2025409Y757948D01*
G01X2021996Y753277D02*
X2026667Y757948D01*
G01X2023254Y753276D02*
X2027926Y757948D01*
G01X2024513Y753276D02*
X2029185Y757948D01*
G01X2025772Y753277D02*
X2030443Y757948D01*
G01X2027030Y753276D02*
X2031702Y757948D01*
G01X2028289Y753276D02*
X2032961Y757948D01*
G01X2029548Y753277D02*
X2034219Y757948D01*
G01X2030806Y753276D02*
X2035478Y757948D01*
G01X2032065Y753277D02*
X2036736Y757948D01*
G01X2033324Y753277D02*
X2037995Y757948D01*
G01X2034582Y753276D02*
X2039254Y757948D01*
G01X2035841Y753277D02*
X2040512Y757948D01*
G01X2037100Y753277D02*
X2041771Y757948D01*
G01X2038358Y753276D02*
X2043030Y757948D01*
G01X2039617Y753277D02*
X2044288Y757948D01*
G01X2040876Y753277D02*
X2045547Y757948D01*
G01X2042134Y753276D02*
X2046806Y757948D01*
G01X2043393Y753277D02*
X2048064Y757948D01*
G01X2044651Y753276D02*
X2049323Y757948D01*
G01X2045910Y753276D02*
X2050582Y757948D01*
G01X2047169Y753277D02*
X2051840Y757948D01*
G01X2048427Y753276D02*
X2053099Y757948D01*
G01X2049686Y753276D02*
X2054358Y757948D01*
G01X2050945Y753277D02*
X2055616Y757948D01*
G01X2052203Y753276D02*
X2056875Y757948D01*
G01X2053462Y753276D02*
X2058134Y757948D01*
G01X2054721Y753277D02*
X2059392Y757948D01*
G01X2055979Y753276D02*
X2060651Y757948D01*
G01X2057238Y753277D02*
X2061909Y757948D01*
G01X2058497Y753277D02*
X2063168Y757948D01*
G01X2059755Y753276D02*
X2064427Y757948D01*
G01X2061014Y753277D02*
X2065685Y757948D01*
G01X2062273Y753277D02*
X2066944Y757948D01*
G01X2063531Y753276D02*
X2068203Y757948D01*
G01X2064790Y753277D02*
X2069461Y757948D01*
G01X2066049Y753277D02*
X2070720Y757948D01*
G01X2067307Y753276D02*
X2071979Y757948D01*
G01X2068566Y753277D02*
X2073237Y757948D01*
G01X2069824Y753276D02*
X2074496Y757948D01*
G01X2071083Y753276D02*
X2075755Y757948D01*
G01X2072342Y753277D02*
X2077013Y757948D01*
G01X2073600Y753276D02*
X2078260Y757936D01*
G01X2074859Y753276D02*
X2079444Y757861D01*
G01X2076115Y753274D02*
X2080592Y757751D01*
G01X2077332Y753232D02*
X2081719Y757619D01*
G01X2078501Y753143D02*
X2082798Y757439D01*
G01X2079628Y753011D02*
X2083840Y757223D01*
G01X2080716Y752840D02*
X2084853Y756977D01*
G01X2081768Y752634D02*
X2085834Y756700D01*
G01X2082787Y752394D02*
X2086786Y756393D01*
G01X2083777Y752125D02*
X2087713Y756061D01*
G01X2084737Y751827D02*
X2088615Y755705D01*
G01X2085669Y751500D02*
X2089494Y755325D01*
G01X2086576Y751148D02*
X2090350Y754922D01*
G01X2087458Y750772D02*
X2091182Y754496D01*
G01X2088315Y750370D02*
X2091991Y754046D01*
G01X2089150Y749946D02*
X2092780Y753576D01*
G01X2089961Y749499D02*
X2093524Y753061D01*
G01X2090751Y749030D02*
X2094297Y752576D01*
G01X2091520Y748541D02*
X2095023Y752043D01*
G01X2092269Y748031D02*
X2095734Y751496D01*
G01X2092999Y747502D02*
X2096424Y750927D01*
G01X2093711Y746955D02*
X2097094Y750339D01*
G01X2094399Y746385D02*
X2097746Y749732D01*
G01X2095066Y745793D02*
X2098377Y749104D01*
G01X2095710Y745178D02*
X2099005Y748473D01*
G01X2096350Y744560D02*
X2099647Y747857D01*
G01X2097005Y743956D02*
X2100306Y747257D01*
G01X2097674Y743367D02*
X2100980Y746673D01*
G01X2098357Y742791D02*
X2101670Y746104D01*
G01X2099055Y742230D02*
X2102378Y745553D01*
G01X2099765Y741682D02*
X2103099Y745016D01*
G01X2100492Y741150D02*
X2103836Y744494D01*
G01X2101232Y740631D02*
X2104593Y743992D01*
G01X2101986Y740126D02*
X2105365Y743505D01*
G01X2102755Y739637D02*
X2106152Y743034D01*
G01X2103540Y739163D02*
X2106958Y742581D01*
G01X2104338Y738703D02*
X2107781Y742146D01*
G01X2105153Y738259D02*
X2108623Y741730D01*
G01X2105983Y737830D02*
X2109484Y741331D01*
G01X2106830Y737419D02*
X2110363Y740952D01*
G01X2107693Y737023D02*
X2111262Y740592D01*
G01X2108574Y736645D02*
X2112182Y740253D01*
G01X2109471Y736283D02*
X2113122Y739934D01*
G01X2110387Y735941D02*
X2114086Y739640D01*
G01X2111321Y735616D02*
X2115073Y739368D01*
G01X2112274Y735311D02*
X2116082Y739119D01*
G01X2113248Y735026D02*
X2117118Y738896D01*
G01X2114242Y734762D02*
X2118180Y738700D01*
G01X2115259Y734520D02*
X2119272Y738533D01*
G01X2116298Y734300D02*
X2120396Y738398D01*
G01X2117360Y734104D02*
X2121550Y738293D01*
G01X2118450Y733935D02*
X2122735Y738220D01*
G01X2119566Y733792D02*
X2123939Y738165D01*
G01X2120710Y733678D02*
X2125155Y738122D01*
G01X2121885Y733594D02*
X2126405Y738114D01*
G01X2123092Y733543D02*
X2127663Y738114D01*
G01X2124335Y733527D02*
X2128922Y738114D01*
G01X2125593Y733526D02*
X2130181Y738114D01*
G01X2126852Y733526D02*
X2131440Y738114D01*
G01X2128111Y733527D02*
X2132698Y738114D01*
G01X2129369Y733526D02*
X2133957Y738114D01*
G01X2130628Y733526D02*
X2135216Y738114D01*
G01X2131887Y733527D02*
X2136474Y738114D01*
G01X2133145Y733526D02*
X2137733Y738114D01*
G01X2134404Y733526D02*
X2138992Y738114D01*
G01X2135663Y733527D02*
X2140250Y738114D01*
G01X2136921Y733526D02*
X2141509Y738114D01*
G01X2138180Y733527D02*
X2142767Y738114D01*
G01X2139439Y733527D02*
X2144018Y738106D01*
G01X2140697Y733526D02*
X2145276Y738105D01*
G01X2141956Y733527D02*
X2146580Y738151D01*
G01X2143215Y733527D02*
X2147919Y738231D01*
G01X2144473Y733526D02*
X2149305Y738358D01*
G01X2145732Y733527D02*
X2150744Y738538D01*
G01X2147011Y733547D02*
X2152243Y738779D01*
G01X2148332Y733609D02*
X2153827Y739104D01*
G01X2149700Y733719D02*
X2155512Y739531D01*
G01X2151122Y733882D02*
X2157335Y740095D01*
G01X2152605Y734107D02*
X2159336Y740837D01*
G01X2154160Y734403D02*
X2161617Y741859D01*
G01X2155800Y734784D02*
X2164384Y743368D01*
G01X2157543Y735269D02*
X2168770Y746495D01*
G01X2159418Y735885D02*
X2176986Y753453D01*
G01X2161471Y736680D02*
X2179803Y755011D01*
G01X2163786Y737736D02*
X2182024Y755973D01*
G01X2166536Y739227D02*
X2183952Y756643D01*
G01X2170408Y741841D02*
X2185686Y757118D01*
G01X2178194Y748368D02*
X2187287Y757460D01*
G01X2181253Y750168D02*
X2188781Y757696D01*
G01X2183558Y751214D02*
X2190193Y757849D01*
G01X2185525Y751923D02*
X2191531Y757928D01*
G01X2187285Y752424D02*
X2192821Y757960D01*
G01X2188900Y752780D02*
X2194084Y757964D01*
G01X2190403Y753025D02*
X2195342Y757964D01*
G01X2191819Y753182D02*
X2196601Y757964D01*
G01X2193162Y753266D02*
X2197860Y757964D01*
G01X2194439Y753285D02*
X2199118Y757964D01*
G01X2195697Y753284D02*
X2200377Y757964D01*
G01X2196956Y753284D02*
X2201636Y757964D01*
G01X2198215Y753285D02*
X2202894Y757964D01*
G01X2199473Y753284D02*
X2204153Y757964D01*
G01X2200732Y753284D02*
X2205412Y757964D01*
G01X2201991Y753285D02*
X2206670Y757964D01*
G01X2203249Y753284D02*
X2207929Y757964D01*
G01X2204508Y753284D02*
X2209188Y757964D01*
G01X2205767Y753285D02*
X2210446Y757964D01*
G01X2207025Y753284D02*
X2211705Y757964D01*
G01X2208284Y753285D02*
X2212963Y757964D01*
G01X2209543Y753285D02*
X2214222Y757964D01*
G01X2210801Y753284D02*
X2215481Y757964D01*
G01X2212060Y753285D02*
X2216739Y757964D01*
G01X2213319Y753285D02*
X2217998Y757964D01*
G01X2214577Y753284D02*
X2219257Y757964D01*
G01X2215836Y753285D02*
X2220515Y757964D01*
G01X2217095Y753285D02*
X2221774Y757964D01*
G01X2218353Y753284D02*
X2223033Y757964D01*
G01X2219612Y753285D02*
X2224291Y757964D01*
G01X2220870Y753284D02*
X2225550Y757964D01*
G01X2222129Y753284D02*
X2226809Y757964D01*
G01X2223388Y753285D02*
X2228067Y757964D01*
G01X2224646Y753284D02*
X2229326Y757964D01*
G01X2225905Y753284D02*
X2230584Y757963D01*
G01X2227164Y753285D02*
X2231843Y757964D01*
G01X2228422Y753284D02*
X2233102Y757964D01*
G01X2229681Y753284D02*
X2234360Y757963D01*
G01X2230940Y753285D02*
X2235619Y757964D01*
G01X2232198Y753284D02*
X2236878Y757964D01*
G01X2233457Y753285D02*
X2238136Y757964D01*
G01X2234716Y753285D02*
X2239395Y757964D01*
G01X2235974Y753284D02*
X2240654Y757964D01*
G01X2237233Y753285D02*
X2241912Y757964D01*
G01X2238492Y753285D02*
X2243171Y757964D01*
G01X2239750Y753284D02*
X2244429Y757963D01*
G01X2241009Y753285D02*
X2245688Y757964D01*
G01X2242268Y753285D02*
X2246947Y757964D01*
G01X2243526Y753284D02*
X2248205Y757963D01*
G01X2244785Y753285D02*
X2249464Y757964D01*
G01X2246043Y753284D02*
X2250722Y757963D01*
G01X2247302Y753284D02*
X2251981Y757963D01*
G01X2248561Y753285D02*
X2253240Y757964D01*
G01X2249819Y753284D02*
X2254498Y757963D01*
G01X2251078Y753284D02*
X2255757Y757963D01*
G01X2252337Y753285D02*
X2257016Y757964D01*
G01X2253595Y753284D02*
X2258274Y757963D01*
G01X2254854Y753284D02*
X2259533Y757963D01*
G01X2256113Y753285D02*
X2260792Y757964D01*
G01X2257371Y753284D02*
X2262050Y757963D01*
G01X2258630Y753285D02*
X2263309Y757964D01*
G01X2259889Y753285D02*
X2264568Y757964D01*
G01X2261147Y753284D02*
X2265826Y757963D01*
G01X2262406Y753285D02*
X2267085Y757964D01*
G01X2263665Y753285D02*
X2268344Y757964D01*
G01X2264923Y753284D02*
X2269602Y757963D01*
G01X2266182Y753285D02*
X2270861Y757964D01*
G01X2267441Y753285D02*
X2272120Y757964D01*
G01X2268699Y753284D02*
X2273379Y757964D01*
G01X2269958Y753285D02*
X2274637Y757964D01*
G01X2271216Y753284D02*
X2275895Y757963D01*
G01X2272475Y753284D02*
X2277155Y757964D01*
G01X2273734Y753285D02*
X2278413Y757964D01*
G01X2274992Y753284D02*
X2279671Y757963D01*
G01X2276251Y753284D02*
X2280931Y757964D01*
G01X2277510Y753285D02*
X2282189Y757964D01*
G01X2278768Y753284D02*
X2283447Y757963D01*
G01X2280027Y753284D02*
X2284707Y757964D01*
G01X2281286Y753285D02*
X2285965Y757964D01*
G01X2282544Y753284D02*
X2287223Y757963D01*
G01X2283803Y753285D02*
X2288482Y757964D01*
G01X2285062Y753285D02*
X2289741Y757964D01*
G01X2286320Y753284D02*
X2290999Y757963D01*
G01X2287579Y753285D02*
X2292258Y757964D01*
G01X2288838Y753285D02*
X2293517Y757964D01*
G01X2290096Y753284D02*
X2294775Y757963D01*
G01X2291355Y753285D02*
X2296034Y757964D01*
G01X2292614Y753285D02*
X2297293Y757964D01*
G01X2293872Y753284D02*
X2298551Y757963D01*
G01X2295131Y753285D02*
X2299810Y757964D01*
G01X2296389Y753284D02*
X2300994Y757889D01*
G01X2297648Y753284D02*
X2301718Y757354D01*
G01X2298907Y753285D02*
X2302203Y756581D01*
G01X2300165Y753284D02*
X2302757Y755876D01*
G01X2301381Y753241D02*
X2303404Y755264D01*
G01X2302447Y753049D02*
X2304178Y754780D01*
G01X2303489Y752832D02*
X2304863Y754206D01*
G01X2304676Y752760D02*
X2305380Y753465D01*
G01X2002907Y752278D02*
X2002489Y752696D01*
G01X2004083Y752361D02*
X2002638Y753805D01*
G01X2004916Y752786D02*
X2003502Y754200D01*
G01X2005806Y753155D02*
X2004250Y754711D01*
G01X2006943Y753277D02*
X2004882Y755337D01*
G01X2008202Y753276D02*
X2005400Y756078D01*
G01X2009460Y753277D02*
X2005926Y756811D01*
G01X2010719Y753277D02*
X2006611Y757385D01*
G01X2011978Y753276D02*
X2007469Y757785D01*
G01X2013236Y753277D02*
X2008565Y757948D01*
G01X2014495Y753277D02*
X2009824Y757948D01*
G01X2015754Y753276D02*
X2011082Y757948D01*
G01X2017012Y753277D02*
X2012341Y757948D01*
G01X2018271Y753276D02*
X2013599Y757948D01*
G01X2019530Y753276D02*
X2014858Y757948D01*
G01X2020788Y753277D02*
X2016117Y757948D01*
G01X2022047Y753276D02*
X2017375Y757948D01*
G01X2023306Y753276D02*
X2018634Y757948D01*
G01X2024564Y753277D02*
X2019893Y757948D01*
G01X2025823Y753276D02*
X2021151Y757948D01*
G01X2027082Y753276D02*
X2022410Y757948D01*
G01X2028340Y753277D02*
X2023669Y757948D01*
G01X2029599Y753276D02*
X2024927Y757948D01*
G01X2030857Y753277D02*
X2026186Y757948D01*
G01X2032116Y753277D02*
X2027445Y757948D01*
G01X2033375Y753276D02*
X2028703Y757948D01*
G01X2034633Y753277D02*
X2029962Y757948D01*
G01X2035892Y753277D02*
X2031221Y757948D01*
G01X2037151Y753276D02*
X2032479Y757948D01*
G01X2038409Y753277D02*
X2033738Y757948D01*
G01X2039668Y753277D02*
X2034997Y757948D01*
G01X2040927Y753276D02*
X2036255Y757948D01*
G01X2042185Y753277D02*
X2037514Y757948D01*
G01X2043444Y753276D02*
X2038772Y757948D01*
G01X2044703Y753276D02*
X2040031Y757948D01*
G01X2045961Y753277D02*
X2041290Y757948D01*
G01X2047220Y753276D02*
X2042548Y757948D01*
G01X2048479Y753276D02*
X2043807Y757948D01*
G01X2049737Y753277D02*
X2045066Y757948D01*
G01X2050996Y753276D02*
X2046324Y757948D01*
G01X2052255Y753276D02*
X2047583Y757948D01*
G01X2053513Y753277D02*
X2048842Y757948D01*
G01X2054772Y753276D02*
X2050100Y757948D01*
G01X2056030Y753277D02*
X2051359Y757948D01*
G01X2057289Y753277D02*
X2052618Y757948D01*
G01X2058548Y753276D02*
X2053876Y757948D01*
G01X2059806Y753277D02*
X2055135Y757948D01*
G01X2061065Y753277D02*
X2056394Y757948D01*
G01X2062324Y753276D02*
X2057652Y757948D01*
G01X2063582Y753277D02*
X2058911Y757948D01*
G01X2064841Y753277D02*
X2060170Y757948D01*
G01X2066100Y753276D02*
X2061428Y757948D01*
G01X2067358Y753277D02*
X2062687Y757948D01*
G01X2068617Y753276D02*
X2063945Y757948D01*
G01X2069876Y753276D02*
X2065204Y757948D01*
G01X2071134Y753277D02*
X2066463Y757948D01*
G01X2072393Y753276D02*
X2067721Y757948D01*
G01X2073652Y753276D02*
X2068980Y757948D01*
G01X2074910Y753277D02*
X2070239Y757948D01*
G01X2076172Y753273D02*
X2071497Y757948D01*
G01X2077481Y753223D02*
X2072756Y757948D01*
G01X2078857Y753106D02*
X2074015Y757948D01*
G01X2080313Y752909D02*
X2075274Y757948D01*
G01X2081868Y752612D02*
X2076532Y757948D01*
G01X2083549Y752190D02*
X2077792Y757946D01*
G01X2085399Y751598D02*
X2079108Y757889D01*
G01X2087506Y750750D02*
X2080496Y757760D01*
G01X2090090Y749425D02*
X2081929Y757585D01*
G01X2094327Y746447D02*
X2083468Y757305D01*
G01X2101753Y740279D02*
X2085128Y756903D01*
G01X2104893Y738398D02*
X2086957Y756334D01*
G01X2107392Y737157D02*
X2089009Y755540D01*
G01X2109559Y736249D02*
X2091464Y754343D01*
G01X2111514Y735552D02*
X2095022Y752044D01*
G01X2113319Y735007D02*
X2103815Y744510D01*
G01X2115007Y734577D02*
X2107056Y742528D01*
G01X2116602Y734242D02*
X2109532Y741310D01*
G01X2118118Y733983D02*
X2111660Y740441D01*
G01X2119569Y733791D02*
X2113562Y739797D01*
G01X2120961Y733657D02*
X2115312Y739306D01*
G01X2122304Y733573D02*
X2116947Y738930D01*
G01X2123605Y733531D02*
X2118486Y738650D01*
G01X2124868Y733526D02*
X2119946Y738448D01*
G01X2126126Y733527D02*
X2121343Y738310D01*
G01X2127385Y733527D02*
X2122690Y738222D01*
G01X2128644Y733526D02*
X2124007Y738163D01*
G01X2129902Y733527D02*
X2125310Y738119D01*
G01X2131161Y733527D02*
X2126574Y738114D01*
G01X2132420Y733526D02*
X2127832Y738114D01*
G01X2133678Y733527D02*
X2129091Y738114D01*
G01X2134937Y733527D02*
X2130350Y738114D01*
G01X2136196Y733526D02*
X2131608Y738114D01*
G01X2137454Y733527D02*
X2132867Y738114D01*
G01X2138713Y733526D02*
X2134125Y738114D01*
G01X2139972Y733526D02*
X2135384Y738114D01*
G01X2141230Y733527D02*
X2136643Y738114D01*
G01X2142489Y733526D02*
X2137901Y738114D01*
G01X2143748Y733526D02*
X2139160Y738114D01*
G01X2145006Y733527D02*
X2140419Y738114D01*
G01X2146261Y733530D02*
X2141677Y738114D01*
G01X2147485Y733565D02*
X2142936Y738114D01*
G01X2148677Y733632D02*
X2144214Y738095D01*
G01X2149835Y733732D02*
X2145456Y738111D01*
G01X2150964Y733862D02*
X2146671Y738155D01*
G01X2152066Y734019D02*
X2147859Y738226D01*
G01X2153141Y734202D02*
X2149016Y738327D01*
G01X2154192Y734410D02*
X2150145Y738457D01*
G01X2155219Y734641D02*
X2151247Y738613D01*
G01X2156224Y734895D02*
X2152326Y738793D01*
G01X2157209Y735169D02*
X2153375Y739003D01*
G01X2158173Y735464D02*
X2154398Y739239D01*
G01X2159116Y735779D02*
X2155397Y739498D01*
G01X2160041Y736113D02*
X2156371Y739783D01*
G01X2160947Y736465D02*
X2157322Y740090D01*
G01X2161836Y736835D02*
X2158250Y740421D01*
G01X2162709Y737221D02*
X2159161Y740769D01*
G01X2163562Y737627D02*
X2160056Y741133D01*
G01X2164401Y738046D02*
X2160919Y741528D01*
G01X2165224Y738482D02*
X2161771Y741934D01*
G01X2166031Y738933D02*
X2162605Y742359D01*
G01X2166824Y739399D02*
X2163420Y742803D01*
G01X2167598Y739884D02*
X2164216Y743266D01*
G01X2168360Y740380D02*
X2164993Y743747D01*
G01X2169106Y740892D02*
X2165754Y744245D01*
G01X2169841Y741417D02*
X2166502Y744756D01*
G01X2170559Y741957D02*
X2167231Y745285D01*
G01X2171264Y742511D02*
X2167946Y745829D01*
G01X2171954Y743080D02*
X2168643Y746390D01*
G01X2172630Y743662D02*
X2169324Y746968D01*
G01X2173294Y744257D02*
X2169992Y747559D01*
G01X2173943Y744867D02*
X2170643Y748167D01*
G01X2174584Y745484D02*
X2171278Y748790D01*
G01X2175242Y746084D02*
X2171904Y749423D01*
G01X2175920Y746665D02*
X2172546Y750039D01*
G01X2176618Y747226D02*
X2173207Y750638D01*
G01X2177336Y747767D02*
X2173887Y751216D01*
G01X2178074Y748287D02*
X2174586Y751775D01*
G01X2178833Y748787D02*
X2175304Y752316D01*
G01X2179612Y749267D02*
X2176085Y752794D01*
G01X2180413Y749724D02*
X2176802Y753335D01*
G01X2181236Y750160D02*
X2177581Y753815D01*
G01X2182082Y750573D02*
X2178382Y754273D01*
G01X2182951Y750962D02*
X2179201Y754712D01*
G01X2183844Y751328D02*
X2180046Y755126D01*
G01X2184763Y751668D02*
X2180913Y755518D01*
G01X2185708Y751981D02*
X2181803Y755886D01*
G01X2186682Y752266D02*
X2182724Y756224D01*
G01X2187685Y752522D02*
X2183656Y756550D01*
G01X2188720Y752745D02*
X2184626Y756839D01*
G01X2189789Y752935D02*
X2185622Y757102D01*
G01X2190895Y753088D02*
X2186648Y757335D01*
G01X2192041Y753200D02*
X2187706Y757535D01*
G01X2193231Y753269D02*
X2188801Y757699D01*
G01X2194474Y753284D02*
X2189932Y757826D01*
G01X2195733Y753284D02*
X2191108Y757909D01*
G01X2196991Y753285D02*
X2192324Y757952D01*
G01X2198250Y753284D02*
X2193570Y757964D01*
G01X2199509Y753284D02*
X2194829Y757964D01*
G01X2200767Y753285D02*
X2196088Y757964D01*
G01X2202026Y753284D02*
X2197346Y757964D01*
G01X2203285Y753284D02*
X2198605Y757964D01*
G01X2204543Y753285D02*
X2199864Y757964D01*
G01X2205802Y753284D02*
X2201122Y757964D01*
G01X2207060Y753285D02*
X2202381Y757964D01*
G01X2208319Y753285D02*
X2203640Y757964D01*
G01X2209578Y753284D02*
X2204898Y757964D01*
G01X2210836Y753285D02*
X2206157Y757964D01*
G01X2212095Y753285D02*
X2207416Y757964D01*
G01X2213354Y753284D02*
X2208674Y757964D01*
G01X2214612Y753285D02*
X2209933Y757964D01*
G01X2215871Y753285D02*
X2211192Y757964D01*
G01X2217130Y753284D02*
X2212450Y757964D01*
G01X2218388Y753285D02*
X2213709Y757964D01*
G01X2219647Y753284D02*
X2214967Y757964D01*
G01X2220906Y753284D02*
X2216226Y757964D01*
G01X2222164Y753285D02*
X2217485Y757964D01*
G01X2223423Y753284D02*
X2218743Y757964D01*
G01X2224682Y753284D02*
X2220002Y757964D01*
G01X2225940Y753285D02*
X2221261Y757964D01*
G01X2227199Y753284D02*
X2222519Y757964D01*
G01X2228458Y753284D02*
X2223778Y757964D01*
G01X2229716Y753285D02*
X2225037Y757964D01*
G01X2230975Y753284D02*
X2226295Y757964D01*
G01X2232233Y753285D02*
X2227554Y757964D01*
G01X2233492Y753285D02*
X2228813Y757964D01*
G01X2234751Y753284D02*
X2230071Y757964D01*
G01X2236009Y753285D02*
X2231330Y757964D01*
G01X2237268Y753285D02*
X2232589Y757964D01*
G01X2238527Y753284D02*
X2233847Y757964D01*
G01X2239785Y753285D02*
X2235106Y757964D01*
G01X2241044Y753285D02*
X2236365Y757964D01*
G01X2242303Y753284D02*
X2237623Y757964D01*
G01X2243561Y753285D02*
X2238882Y757964D01*
G01X2244820Y753284D02*
X2240140Y757964D01*
G01X2246079Y753284D02*
X2241399Y757964D01*
G01X2247337Y753285D02*
X2242658Y757964D01*
G01X2248596Y753284D02*
X2243916Y757964D01*
G01X2249855Y753284D02*
X2245175Y757964D01*
G01X2251113Y753285D02*
X2246434Y757964D01*
G01X2252372Y753284D02*
X2247692Y757964D01*
G01X2253631Y753284D02*
X2248951Y757964D01*
G01X2254889Y753285D02*
X2250210Y757964D01*
G01X2256148Y753284D02*
X2251468Y757964D01*
G01X2257406Y753285D02*
X2252727Y757964D01*
G01X2258665Y753285D02*
X2253986Y757964D01*
G01X2259924Y753284D02*
X2255245Y757963D01*
G01X2261182Y753285D02*
X2256503Y757964D01*
G01X2262441Y753285D02*
X2257762Y757964D01*
G01X2263700Y753284D02*
X2259020Y757964D01*
G01X2264958Y753285D02*
X2260279Y757964D01*
G01X2266217Y753285D02*
X2261538Y757964D01*
G01X2267476Y753284D02*
X2262796Y757964D01*
G01X2268734Y753285D02*
X2264055Y757964D01*
G01X2269993Y753284D02*
X2265314Y757963D01*
G01X2271252Y753284D02*
X2266572Y757964D01*
G01X2272510Y753285D02*
X2267831Y757964D01*
G01X2273769Y753284D02*
X2269090Y757963D01*
G01X2275028Y753284D02*
X2270348Y757964D01*
G01X2276286Y753285D02*
X2271607Y757964D01*
G01X2277545Y753284D02*
X2272866Y757963D01*
G01X2278804Y753284D02*
X2274125Y757963D01*
G01X2280062Y753285D02*
X2275383Y757964D01*
G01X2281321Y753284D02*
X2276642Y757963D01*
G01X2282579Y753285D02*
X2277900Y757964D01*
G01X2283838Y753285D02*
X2279159Y757964D01*
G01X2285097Y753284D02*
X2280418Y757963D01*
G01X2286355Y753285D02*
X2281676Y757964D01*
G01X2287614Y753285D02*
X2282935Y757964D01*
G01X2288873Y753284D02*
X2284194Y757963D01*
G01X2290131Y753285D02*
X2285452Y757964D01*
G01X2291390Y753285D02*
X2286711Y757964D01*
G01X2292649Y753284D02*
X2287970Y757963D01*
G01X2293907Y753285D02*
X2289228Y757964D01*
G01X2295166Y753284D02*
X2290486Y757964D01*
G01X2296425Y753284D02*
X2291746Y757963D01*
G01X2297683Y753285D02*
X2293004Y757964D01*
G01X2298942Y753284D02*
X2294262Y757964D01*
G01X2300201Y753284D02*
X2295522Y757963D01*
G01X2301531Y753213D02*
X2296780Y757964D01*
G01X2303087Y752916D02*
X2298039Y757964D01*
G01X2304501Y752760D02*
X2299298Y757963D01*
G01X2305702Y752818D02*
X2300590Y757930D01*
G01X2000624Y744638D02*
X2000632Y744646D01*
X2001369D01*
G03X2002787Y745233I0J2006D01*
G01X2003880Y746326D01*
G02X2004119Y746543I2535J-2552D01*
G03X2004516Y746932I-2312J2757D01*
G02X2004926Y747372I6757J-5886D01*
G01X2007034Y749480D01*
G02X2008589Y750124I1555J-1555D01*
G01X2075718D01*
G02X2082797Y749123I-5J-25566D01*
G02X2083283Y748978I-7066J-24569D01*
G03X2083288Y748977I120J585D01*
G01X2083375Y748951D01*
G03X2083386Y748948I163J577D01*
G02X2085784Y748060I-7668J-24390D01*
G01X2085787Y748058D01*
X2085896Y748012D01*
G03X2085913Y748005I237J552D01*
G02X2088277Y746828I-10198J-23445D01*
G02X2090735Y745249I-12543J-22229D01*
G02X2092134Y744156I-15031J-20681D01*
G02X2093589Y742840I-16409J-19605D01*
G03X2095279Y741270I30596J31240D01*
G03X2095777Y740840I28825J32880D01*
G03X2095808Y740814I787J907D01*
G03X2097526Y739421I28390J33257D01*
G03X2098229Y738892I26642J34673D01*
G03X2099328Y738112I25855J35265D01*
G03X2099367Y738083I378J468D01*
G03X2105432Y734588I24795J36018D01*
G03X2105440Y734584I273J535D01*
G01X2105566Y734527D01*
G03X2105603Y734508I293J525D01*
G03X2107218Y733791I18547J39599D01*
G03X2107428Y733703I27532J65407D01*
G03X2108324Y733343I16749J40391D01*
G03X2110232Y732654I15022J38613D01*
G03X2114279Y731507I13933J41446D01*
G03X2115171Y731310I9875J42595D01*
G03X2116423Y731066I8989J42791D01*
G01X2116621Y731031D01*
G03X2117932Y730823I7506J43076D01*
G03X2117979Y730816I200J1185D01*
G03X2118187Y730786I19757J136244D01*
G02X2118451Y730694I-99J-709D01*
G03X2119015Y730624I363J618D01*
G02X2119297Y730648I200J-687D01*
G03X2123833Y730329I5876J51144D01*
G03X2123849I8J600D01*
G01X2145737D01*
G03X2155266Y731413I4J42390D01*
G03X2156693Y731756I-9519J42743D01*
G03X2158946Y732399I-10887J42416D01*
G03X2159212Y732484I-20251J63832D01*
G03X2159252Y732497I-352J1150D01*
G03X2160942Y733082I-13477J41666D01*
G03X2161475Y733282I-15118J41099D01*
G03X2161558Y733315I-3049J7790D01*
G03X2164113Y734396I-15777J40850D01*
G03X2164124Y734400I-199J564D01*
G03X2164138Y734407I-530J1077D01*
G03X2165779Y735206I-18346J39763D01*
G03X2168551Y736758I-19993J38961D01*
G03X2168820Y736923I-28400J46603D01*
G03X2169133Y737118I-22999J37265D01*
G03X2169415Y737297I-14290J22825D01*
G03X2170921Y738308I-23650J36856D01*
G03X2171081Y738421I-7994J11489D01*
G03X2174730Y741308I-25308J35737D01*
G03X2175202Y741729I-28912J32890D01*
G03X2176390Y742844I-29369J32483D01*
G02X2178072Y744348I17863J-18285D01*
G02X2189570Y749696I16218J-19835D01*
G02X2191954Y750026I4697J-25155D01*
G02X2192897Y750095I2339J-25482D01*
G02X2193035Y750102I1195J-22191D01*
G02X2193927Y750131I1168J-22193D01*
G01X2193928D01*
G02X2194209Y750133I299J-22222D01*
G01X2298734D01*
G02X2300217Y749519I0J-2098D01*
G01X2302459Y747277D01*
G03X2303218Y746629I4493J4494D01*
G02X2303978Y745981I-3730J-5144D01*
G01X2304168Y745791D01*
G03X2306953Y744638I2784J2785D01*
G01X2000624Y746016D02*
G03X2003093Y746594I-1J5565D01*
G01X2003354Y746722D01*
G03X2003603Y746891I-477J970D01*
G02X2003734Y747004I2807J-3121D01*
G03X2004063Y747327I-1929J2294D01*
G02X2004501Y747796I7203J-6288D01*
G01X2005758Y749054D01*
G02X2005799Y749095I4048J-4007D01*
G01X2006609Y749905D01*
G02X2008588Y750724I1979J-1980D01*
G01X2075719D01*
G02X2082963Y749700I-4J-26166D01*
G02X2083460Y749552I-7219J-25150D01*
G01X2083547Y749526D01*
X2083548D01*
X2083564Y749521D01*
G02X2086020Y748612I-7843J-24964D01*
G01X2086022Y748611D01*
X2086132Y748564D01*
X2086133D01*
G02X2088572Y747351I-10417J-24005D01*
G02X2091088Y745735I-12837J-22753D01*
G02X2092520Y744617I-15377J-21172D01*
G02X2094009Y743269I-16804J-20058D01*
G03X2095676Y741721I30169J30817D01*
G03X2096167Y741296I28469J32394D01*
G03X2096189Y741278I391J456D01*
G03X2098585Y739376I27994J32805D01*
G03X2099700Y738586I25486J34790D01*
G01Y738585D01*
G03X2099705Y738581I378J467D01*
G01X2099708Y738578D01*
G03X2105689Y735131I24456J35521D01*
G01X2105843Y735061D01*
X2105858Y735052D01*
G03X2107451Y734345I18288J39057D01*
G03X2107659Y734258I27256J64871D01*
G03X2108542Y733903I16527J39832D01*
G03X2110394Y733233I14813J38050D01*
G03X2116529Y731657I13768J40868D01*
G01X2116725Y731622D01*
G03X2118026Y731416I7394J42486D01*
G03X2118059Y731411I107J592D01*
G03X2118408Y731362I19232J135713D01*
G01X2118426Y731360D01*
G03X2119194Y731264I5733J42743D01*
G03X2119216Y731262I65J597D01*
G03X2123849Y730929I5960J50530D01*
G01X2145737D01*
G03X2155133Y731999I0J41790D01*
G03X2156543Y732337I-9362J42163D01*
G03X2158765Y732972I-10752J41830D01*
G03X2159034Y733058I-20075J63258D01*
G03X2159062Y733067I-170J577D01*
G03X2160734Y733645I-13272J41101D01*
G03X2161260Y733843I-14952J40520D01*
G03X2161340Y733874I-2766J7256D01*
G03X2163862Y734941I-15559J40291D01*
G03X2163876Y734948I-261J540D01*
G03X2165505Y735740I-18066J39231D01*
G03X2168238Y737271I-19728J38422D01*
G03X2168504Y737434I-28068J46102D01*
G03X2170577Y738800I-22718J36733D01*
G03X2170723Y738903I-7649J10998D01*
G03X2174333Y741758I-24949J35256D01*
G03X2174799Y742174I-28529J32427D01*
G03X2175970Y743274I-28981J32025D01*
G02X2180971Y747103I18291J-18709D01*
G02X2181037Y747141I7172J-12379D01*
G02X2181339Y747316I13269J-22550D01*
G02X2192863Y750695I12935J-22773D01*
G02X2194208Y750733I1317J-22786D01*
G01X2298981D01*
G02X2300468Y750118I1J-2103D01*
G01X2302884Y747702D01*
G03X2306953Y746016I4070J4069D01*
G01X2167612Y738295D02*
G03X2167870Y738456I-27809J44851D01*
G01D02*
G02X2167612Y738295I-28067J44690D01*
G01X2306953Y750149D02*
X2306074D01*
G02X2305282Y750477I0J1120D01*
G03X2304755Y750936I-3520J-3510D01*
G03X2303723Y751402I-1557J-2073D01*
G01X2301908Y751779D01*
G03X2300414Y751933I-1497J-7197D01*
G01X2194210D01*
G03X2192797Y751895I-61J-24025D01*
G03X2180745Y748360I1478J-27352D01*
G03X2180431Y748179I13509J-23799D01*
G03X2180362Y748139I7743J-13437D01*
G03X2175130Y744134I13897J-23574D01*
G02X2173993Y743064I-29340J30038D01*
G02X2173560Y742677I-28198J31114D01*
G03X2173539Y742659I380J-465D01*
G02X2167870Y738456I-27753J31509D01*
G01X2312583Y750149D02*
X2313451D01*
G02X2313783Y750055I0J-632D01*
G02X2313879Y749883I-106J-172D01*
G01Y749716D01*
G03X2313899Y749186I7043J0D01*
G02X2313514Y748771I-384J-29D01*
G01X2312583D01*
G01D02*
G02X2313860Y748441I2J-2627D01*
G02X2314100Y748259I-528J-945D01*
G01X2315940Y746419D01*
Y746352D01*
G01X2312583Y759795D02*
X2315402D01*
G03X2315508Y759839I0J150D01*
G01X2312583Y773575D02*
X2314384D01*
G03X2314405Y773583I0J32D01*
G01X2312583Y769441D02*
X2315166D01*
G02X2315791Y769182I0J-884D01*
G01X2312583Y772197D02*
X2315417D01*
G03X2315685Y772308I0J379D01*
G01X2312583Y770819D02*
X2313866D01*
G03X2314397Y770846I0J5235D01*
G01X2312583Y774953D02*
X2313294D01*
G03X2315740Y775966I0J3459D01*
G01X2312583Y777708D02*
X2313065D01*
G03X2313571Y777823I0J1169D01*
G01X2314360Y778201D01*
G03X2314834Y778570I-613J1277D01*
G02X2315208Y778875I962J-798D01*
G03X2315626Y779316I-446J842D01*
G03X2315802Y780047I-1742J806D01*
G03X2315803Y780151I-2508J76D01*
G01Y780290D01*
G01X2312583Y776330D02*
G03X2315608Y777583I0J4278D01*
G01X2315793Y777768D01*
G01X2312583Y752905D02*
X2313307D01*
G02X2314139Y752628I2J-1383D01*
G02X2314401Y752206I-417J-552D01*
G03X2314697Y751425I2405J465D01*
G03X2314882Y751188I1031J614D01*
G01X2315820Y750249D01*
G02X2315911Y750031I-218J-219D01*
G01X2312583Y766685D02*
X2313944D01*
G02X2314900I478J-1155D01*
G01X2315380D01*
G03X2315696Y766816I0J447D01*
G01X2312583Y765307D02*
X2313884D01*
G03X2314422Y765530I0J761D01*
G01X2312583Y763929D02*
X2314727D01*
G02X2314990Y763820I0J-372D01*
G01Y763811D01*
G01X2312583Y758417D02*
X2314305D01*
G02X2315145Y758069I0J-1188D01*
G01X2312583Y768063D02*
X2314257D01*
G03X2314334Y768121I0J80D01*
G01X2312583Y761173D02*
X2314127D01*
G03X2314436Y761301I0J437D01*
G01X2312583Y751527D02*
X2312754D01*
G02X2314319Y750719I1J-1918D01*
G02X2314473Y750383I-802J-571D01*
G01X2314635Y749718D01*
G03X2314902Y749243I985J241D01*
G01X2315915Y748229D01*
G01X2312583Y755661D02*
X2314802D01*
G02X2315770Y755260I0J-1369D01*
G01X2312583Y754283D02*
G02X2314295Y753574I0J-2421D01*
G01X2315937Y751932D01*
G01X2306953Y747393D02*
G02X2304414Y748444I-1J3590D01*
G01X2304130Y748729D01*
G01X2312583Y757039D02*
X2314119D01*
G02X2314632Y756929I0J-1250D01*
G03X2315854Y757039I513J1140D01*
G01X2316584Y756895D02*
G03X2316236Y757039I-348J-348D01*
G01X2315854D01*
G01X2316618Y762718D02*
G02X2316215Y762551I-403J403D01*
G01X2317203Y753025D02*
Y744532D01*
G01X2316215Y762551D02*
X2312583D01*
G54D13*
X1990628Y748267D03*
X2001977Y783243D03*
X1993762Y784058D03*
X1996943Y784097D03*
X2002135Y781323D03*
X2000347Y784163D03*
X1995352Y784123D03*
X1998599Y784163D03*
X1990484Y759647D03*
X1990602Y773987D03*
X1991636Y769456D03*
X1991640Y772243D03*
X1990479Y770838D03*
X1990536Y776576D03*
X1991177Y780468D03*
X1990539Y778719D03*
X1990491Y752515D03*
X1991675Y766689D03*
X1990484Y765338D03*
X1991571Y763884D03*
X1991653Y758275D03*
X1990472Y768039D03*
X1991563Y761095D03*
X1990487Y750510D03*
X1991569Y755773D03*
X1990486Y754315D03*
X2028159Y748650D03*
X2003170Y748222D03*
X1999445Y742662D03*
X2002111Y742675D03*
X2029209Y786435D03*
X2034779D03*
X2028359Y735906D03*
X1990901Y782249D03*
X1989778Y755985D03*
X1989768Y763679D03*
X1989875Y757945D03*
X1989654Y772446D03*
X1989769Y761302D03*
X2000594Y786426D03*
X1998812Y786431D03*
X1991205Y786235D03*
X1995192Y786440D03*
X1989655Y781451D03*
X1989687Y784166D03*
X1989653Y746325D03*
X1989689Y740488D03*
X1989677Y741934D03*
X2031439Y774073D03*
X2028929Y774105D03*
X2029563Y757045D03*
X2002718Y769143D03*
X2002596Y773499D03*
X2002650Y765292D03*
X2002880Y761634D03*
X2003113Y757648D03*
X2137795Y737013D03*
X2097169Y737868D03*
X2081304Y748003D03*
X2088588Y744949D03*
X2067998Y748659D03*
X2055308Y748661D03*
X2040413Y748653D03*
X2137871Y728901D03*
X2130281Y728913D03*
X2122274Y728938D03*
X2113041Y730310D03*
X2105856Y732778D03*
X2099767Y736056D03*
X2129372Y766677D03*
X2134368Y766676D03*
X2139083D03*
X2077877Y786404D03*
X2085185Y785836D03*
X2090467Y784816D03*
X2097990Y782447D03*
X2105565Y778831D03*
X2111476Y774962D03*
X2116133Y771092D03*
X2120235Y767501D03*
X2124207Y766666D03*
X2065249Y786419D03*
X2071864Y786418D03*
X2041626Y786422D03*
X2047329Y786435D03*
X2052249Y786420D03*
X2058234Y786419D03*
X2133579Y716168D03*
X2115364Y716861D03*
X2105575Y719276D03*
X2125229Y716167D03*
X2097020Y722924D03*
X2087182Y729552D03*
X2078782Y735537D03*
X2067118Y735947D03*
X2051781Y735946D03*
X2040157Y735927D03*
X2135320Y754570D03*
X2074892Y757039D03*
X2057269Y757030D03*
X2063554D03*
X2045922Y757039D03*
X2057235Y774706D03*
X2047193Y774730D03*
X2139683Y755166D03*
X2131528Y754572D03*
X2119546Y755172D03*
X2114543Y757739D03*
X2107601Y763363D03*
X2123968Y754563D03*
X2121451Y754558D03*
X2100049Y768412D03*
X2103815Y765885D03*
X2093105Y771572D03*
X2086209Y773426D03*
X2079280Y774105D03*
X2111375Y739489D03*
X2106315Y741921D03*
X2101237Y745738D03*
X2095020Y750738D03*
X2091263Y753296D03*
X2088754Y754551D03*
X2083044Y756417D03*
X2077408Y757036D03*
X2076133Y774696D03*
X2074262Y774071D03*
X2059766Y774698D03*
X2062324Y774692D03*
X2043401Y774686D03*
X2045291Y774069D03*
X2059774Y757039D03*
X2043409Y757037D03*
X2040897Y757045D03*
X2135301Y736993D03*
X2131522Y736982D03*
X2115198Y738283D03*
X2113260Y738812D03*
X2128998Y736968D03*
X2120767Y737456D03*
X2118241Y737659D03*
X2137778Y754572D03*
X2133381Y755171D03*
X2116409Y755823D03*
X2112630Y758366D03*
X2102552Y767174D03*
X2105694Y764002D03*
X2091229Y772195D03*
X2089384Y772804D03*
X2041498Y774085D03*
X2236089Y748683D03*
X2229769D03*
X2223449D03*
X2217129D03*
X2210809D03*
X2198066D03*
X2192400Y748589D03*
X2181785Y745190D03*
X2176412Y740853D03*
X2166382Y733858D03*
X2159328Y730998D03*
X2152334Y729401D03*
X2144578Y728913D03*
X2230567Y786415D03*
X2235513Y786428D03*
X2241164Y786416D03*
X2180826Y785208D03*
X2187096Y786170D03*
X2193172Y786427D03*
X2197437D03*
X2201855Y786428D03*
X2206697Y786442D03*
X2211235Y786427D03*
X2215860D03*
X2220985D03*
X2225597D03*
X2163844Y778760D03*
X2168726Y781266D03*
X2174249Y783435D03*
X2146020Y766675D03*
X2150581Y768421D03*
X2153838Y771536D03*
X2158643Y775396D03*
X2236848Y735916D03*
X2198772Y735915D03*
X2187203Y733821D03*
X2179445Y727285D03*
X2226932Y735915D03*
X2217195D03*
X2208023Y735940D03*
X2161335Y718409D03*
X2170604Y721962D03*
X2152010Y716556D03*
X2142340Y716168D03*
X2240391Y774086D03*
X2227817Y774107D03*
X2222752Y774061D03*
X2211447Y774098D03*
X2241022Y757045D03*
X2228428Y757049D03*
X2194424Y774708D03*
X2190019Y774063D03*
X2181230Y772839D03*
X2183132Y773465D03*
X2225876Y774698D03*
X2208931Y774082D03*
X2204535Y774736D03*
X2205750Y757063D03*
X2194435Y757050D03*
X2191933Y757040D03*
X2185652Y755828D03*
X2181869Y754579D03*
X2225891Y757054D03*
X2223415Y757047D03*
X2212091Y757053D03*
X2157342Y758959D03*
X2153551Y756478D03*
X2155447Y757079D03*
X2165505Y765883D03*
X2179344Y772175D03*
X2168043Y767151D03*
X2162354Y741312D03*
X2179360Y753330D03*
X2176187Y751428D03*
X2169301Y745736D03*
X2167975Y744634D03*
X2154169Y738205D03*
X2149806Y737506D03*
X2146775Y737195D03*
X2152281Y737591D03*
X2164888Y742600D03*
X2209560Y757056D03*
X2206408Y774097D03*
X2192559Y774087D03*
X2177456Y771596D03*
X2169260Y768402D03*
X2164234Y764627D03*
X2159198Y759568D03*
X2151025Y755205D03*
X2149142Y754560D03*
X2141568Y754582D03*
X2315940Y746352D03*
X2308432Y782729D03*
X2309902Y782802D03*
X2311392Y782357D03*
X2312909Y782190D03*
X2314482D03*
X2313647Y783581D03*
X2311893Y784333D03*
X2315508Y759839D03*
X2314405Y773583D03*
X2315791Y769182D03*
X2315685Y772308D03*
X2314397Y770846D03*
X2315740Y775966D03*
X2315803Y780290D03*
X2315793Y777768D03*
X2315911Y750031D03*
X2315696Y766816D03*
X2314422Y765530D03*
X2314990Y763811D03*
X2315145Y758069D03*
X2314334Y768121D03*
X2314436Y761301D03*
X2315915Y748229D03*
X2315770Y755260D03*
X2315937Y751932D03*
X2267689Y748683D03*
X2261369D03*
X2304130Y748729D03*
X2255049Y748683D03*
X2248729D03*
X2242409D03*
X2316608Y782718D03*
X2316578Y773874D03*
X2316476Y784829D03*
X2315191Y786212D03*
X2316641Y770770D03*
X2316630Y765032D03*
X2316641Y761270D03*
X2316618Y762718D03*
X2316584Y756895D03*
X2316578Y753650D03*
X2263143Y786416D03*
X2266933Y786430D03*
X2272647Y786433D03*
X2270357Y786441D03*
X2245827Y786416D03*
X2250451Y786429D03*
X2254780D03*
X2258917Y786416D03*
X2312058Y735903D03*
X2312223Y786420D03*
X2308472D03*
X2313481Y735907D03*
X2264478Y735904D03*
X2270925Y735908D03*
X2247162Y735904D03*
X2256115Y735917D03*
X2261173Y774683D03*
X2249210Y774070D03*
X2245399Y774069D03*
X2265569Y774075D03*
X2263045Y774069D03*
X2247311Y757045D03*
X2243556Y757056D03*
X2266198Y757046D03*
X2262400D03*
X2263822Y757036D03*
X2249832Y757052D03*
X2305054Y769448D03*
X2305073Y773593D03*
X2304918Y765700D03*
X2304839Y757684D03*
X2304777Y761866D03*
X2304447Y753920D03*
X2310431Y743143D03*
X2309081Y742747D03*
G54D23*
G01X2003024Y778072D02*
G02X2003212Y778112I131J-152D01*
G02X2003302Y778079I-3666J-10138D01*
G02X2003456Y778020I-3780J-10096D01*
G02X2004307Y777646I-3908J-10047D01*
G01X2077349D01*
G02X2088611Y776338I-1J-49149D01*
G02X2112552Y762793I-11265J-47841D01*
G03X2118827Y758799I11607J11310D01*
G03X2124158Y757896I5334J15303D01*
G01X2145815D01*
G03X2151145Y758798I-1J16206D01*
G03X2157422Y762794I-5332J15304D01*
G01X2157421Y762793D01*
G02X2181362Y776338I35206J-34296D01*
G02X2192624Y777646I11263J-47841D01*
G01X2305351D01*
Y777380D01*
X2305203D01*
Y777043D01*
G03X2302929Y776097I9J-3229D01*
G01X2300245Y773413D01*
G02X2299307Y773010I-975J976D01*
G01X2192621D01*
G03X2192620Y773009I0J-1D01*
G03X2190849Y772973I19J-44511D01*
G01X2190846D01*
G03X2190514Y772958I8326J-187972D01*
G01X2190433Y772954D01*
X2190385Y772952D01*
X2190381D01*
G03X2170695Y767230I2247J-44454D01*
G03X2170201Y766946I27424J-48274D01*
G03X2164639Y763109I22421J-38451D01*
G01X2164635Y763105D01*
G03X2164495Y762992I27886J-34692D01*
G03X2162231Y761015I28129J-34497D01*
G01X2162220Y761004D01*
G03X2162184Y760970I30544J-32377D01*
G03X2162159Y760947I1029J-1144D01*
G03X2162158Y760946I504J-505D01*
G03X2160745Y759558I30477J-32440D01*
G01X2160744Y759557D01*
G02X2145816Y753258I-14930J14545D01*
G01X2124158D01*
G02X2109229Y759557I2J20845D01*
G03X2109117Y759672I-31944J-30998D01*
G01X2109102Y759687D01*
G03X2108220Y760561I-31769J-31177D01*
G03X2105485Y762986I-30873J-32065D01*
G03X2103733Y764344I-28137J-34491D01*
G03X2103730Y764346I-397J-593D01*
G01X2103726Y764349D01*
X2103514Y764503D01*
X2103513D01*
G03X2077347Y773008I-26169J-36006D01*
G01X2007156D01*
G02X2006427Y773152I3J1933D01*
G02X2006254Y773234I738J1780D01*
G03X2006252Y773235I-320J-638D01*
G02X2006179Y773278I480J898D01*
G01X2006166Y773287D01*
G02X2006061Y773375I459J654D01*
G03X2005978Y773446I-504J-505D01*
G01X2005503Y773922D01*
G03X2005484Y773940I-500J-509D01*
G02X2005239Y774295I953J920D01*
G02X2005189Y774420I1335J606D01*
G03X2005187Y774425I-663J-262D01*
G03X2002955Y776602I-3344J-1196D01*
G01X2002954Y777920D01*
G02X2003024Y778072I200J0D01*
G01X2193357Y757964D02*
X2300434D01*
X2300468Y757930D01*
X2300853D01*
G02X2301479Y757595I-304J-1321D01*
G01X2301917Y757156D01*
G03X2302757Y755876I3507J1386D01*
G01Y755875D01*
X2302843Y755790D01*
G03X2302947Y755686I1996J1892D01*
G01X2303070Y755563D01*
G03X2303418Y755253I2833J2830D01*
G01X2303419Y755252D01*
G03X2304279Y754734I2480J3144D01*
G01X2304356Y754656D01*
X2304361Y754654D01*
G03X2304654Y754414I1360J1362D01*
G01X2304711Y754377D01*
X2304765Y754311D01*
G03X2304792Y754282I1364J1243D01*
G03X2304804Y754268I548J457D01*
G02X2304819Y754252I-356J-349D01*
G03X2304842Y754228I526J481D01*
G03X2305201Y753936I1335J1275D01*
G01X2305202Y753934D01*
Y753933D01*
G03X2305702Y753261I702J0D01*
G01Y752760D01*
X2303834D01*
X2303642Y752800D01*
X2302183Y753103D01*
G03X2301787Y753175I-1754J-8523D01*
G03X2301392Y753229I-1376J-8593D01*
G01X2301207Y753413D01*
X2300863Y753273D01*
G03X2300788Y753276I-385J-8694D01*
G03X2300415Y753284I-373J-8694D01*
G01X2194212D01*
G03X2192723Y753245I-80J-25377D01*
G03X2181649Y750365I1553J-28701D01*
G03X2180754Y749908I12622J-25824D01*
G03X2180078Y749536I13519J-25366D01*
G03X2179955Y749466I14143J-24994D01*
G03X2179750Y749348I14224J-24948D01*
G01X2179748Y749347D01*
G03X2179744Y749344I446J-599D01*
G03X2179693Y749314I8522J-14546D01*
G03X2179673Y749302I8664J-14462D01*
G03X2179299Y749077I14617J-24719D01*
G03X2174185Y745101I14957J-24515D01*
G02X2173086Y744066I-28406J29061D01*
G02X2172675Y743700I-27231J30165D01*
G03X2172637Y743667I1262J-1491D01*
G02X2170322Y741775I-26856J30498D01*
G02X2167146Y739600I-24523J32403D01*
G03X2167142Y739597I440J-591D01*
G02X2166976Y739492I-27571J43404D01*
G02X2166905Y739448I-27122J43686D01*
G02X2162805Y737268I-21096J34731D01*
G03X2162768Y737248I339J-671D01*
G02X2161161Y736551I-16970J36925D01*
G02X2160204Y736174I-15372J37618D01*
G02X2159366Y735866I-14437J37986D01*
G02X2158980Y735732I-17507J49809D01*
G02X2158804Y735672I-17124J49942D01*
G02X2158517Y735576I-13034J38490D01*
G02X2158325Y735513I-12765J38580D01*
G02X2158278Y735497I-13118J38457D01*
G02X2158066Y735430I-19336J60814D01*
G02X2157996Y735408I-19168J60867D01*
G02X2155906Y734811I-12202J38761D01*
G02X2155089Y734610I-10116J39357D01*
G02X2153979Y734365I-9313J39555D01*
G02X2151704Y733963I-8206J39799D01*
G01X2151703D01*
G02X2147979Y733588I-5929J40201D01*
G02X2147770Y733578I-6204J127476D01*
G02X2147666Y733573I-6181J127478D01*
G02X2145778Y733526I-1955J40591D01*
G01X2124172D01*
G02X2122968Y733546I72J40575D01*
G01X2122967D01*
X2122924Y733547D01*
X2122922D01*
X2122893Y733548D01*
X2122872Y733549D01*
G02X2122501Y733564I11710J294220D01*
G02X2119638Y733783I1661J40538D01*
G01X2119627Y733784D01*
X2119624D01*
G03X2119503Y733799I-8761J-70180D01*
G03X2119441Y733805I-161J-1342D01*
G02X2119315Y733820I4733J40296D01*
G02X2118783Y733888I4878J40279D01*
G03X2118759Y733891I-105J-744D01*
G02X2118504Y733927I18676J133213D01*
G01X2118485Y733930D01*
X2118484D01*
G02X2118420Y733939I5618J40181D01*
G01X2118406Y733941D01*
G02X2118391Y733943I5355J40217D01*
G01X2118379Y733945D01*
X2118378D01*
G02X2117172Y734135I5710J40168D01*
G01X2117052Y734157D01*
X2117014Y734164D01*
X2116969Y734173D01*
X2116966Y734174D01*
G02X2115014Y734575I7186J39929D01*
G02X2114974Y734584I8886J39586D01*
G02X2113597Y734930I9197J39515D01*
G01X2113596Y734931D01*
X2113544Y734945D01*
G02X2113152Y735052I17058J63263D01*
G02X2111795Y735461I11028J39044D01*
G02X2110573Y735873I12349J38646D01*
G02X2110124Y736036I13620J38217D01*
G03X2110116Y736039I-268J-702D01*
G03X2110027Y736070I-4815J-13681D01*
G01X2110018Y736074D01*
X2109990Y736085D01*
X2109940Y736103D01*
G02X2108682Y736600I14276J37976D01*
G02X2108597Y736635I25776J62720D01*
G02X2108545Y736656I25366J62887D01*
G02X2108439Y736700I25944J62651D01*
G02X2107000Y737337I15701J37412D01*
G03X2106929Y737371I-1181J-2375D01*
G03X2106910Y737380I-1145J-2392D01*
G01X2106848Y737410D01*
X2106776Y737444D01*
X2106775D01*
G02X2106273Y737686I17367J36667D01*
G02X2103263Y739327I17898J36410D01*
G02X2103168Y739383I44121J74957D01*
G02X2103077Y739438I44945J74466D01*
G02X2101217Y740640I21083J34664D01*
G03X2101203Y740651I-471J-585D01*
G03X2101199Y740654I-452J-599D01*
G03X2101188Y740661I-731J-1137D01*
G03X2101165Y740678I-815J-1079D01*
G03X2101151Y740688I-443J-606D01*
G02X2100274Y741305I22905J33489D01*
G02X2100097Y741434I23808J32853D01*
G02X2099870Y741603I24115J32628D01*
G02X2099334Y742010I24267J32516D01*
G03X2099288Y742047I-53000J-65845D01*
G03X2099230Y742092I-51849J-66768D01*
G01X2099169Y742139D01*
G02X2097825Y743237I24991J31962D01*
G02X2097395Y743609I26330J30870D01*
G02X2095799Y745088I26770J30489D01*
G03X2092797Y747649I-17663J-17664D01*
G03X2090694Y749064I-17069J-23098D01*
G03X2090603Y749121I-13382J-21262D01*
G03X2090586Y749131I-12743J-21644D01*
G01Y749151D01*
X2090471Y749201D01*
G03X2090158Y749385I-14711J-24667D01*
G03X2087034Y750957I-14448J-24822D01*
G03X2087020Y750963I-303J-689D01*
G03X2086970Y750983I-750J-1803D01*
G03X2084497Y751904I-11250J-26426D01*
G03X2084330Y751957I-8771J-27348D01*
G01X2084327Y751958D01*
X2084326D01*
X2084321Y751959D01*
X2084230Y751988D01*
G03X2084185Y752002I-603J-1857D01*
G03X2084162Y752009I-580J-1864D01*
G03X2083733Y752137I-8425J-27456D01*
G03X2082992Y752341I-7993J-27585D01*
G03X2081764Y752634I-7278J-27782D01*
G03X2080381Y752897I-6055J-28074D01*
G03X2075735Y753276I-4650J-28341D01*
G01X2006736D01*
G03X2005672Y753116I2J-3634D01*
G03X2004746Y752681I1067J-3474D01*
G01X2004720Y752665D01*
X2004711Y752658D01*
G03X2004696Y752648I2008J-3028D01*
G01X2004695Y752647D01*
G02X2003497Y752278I-1199J1762D01*
G01X2002489D01*
Y753596D01*
G03X2002514Y753645I-612J343D01*
G03X2002550Y753744I-640J289D01*
G03X2002672Y753833I-623J982D01*
G03X2005426Y756124I-1597J4720D01*
G01Y756125D01*
G02X2008472Y757948I3105J-1732D01*
G01X2077678D01*
G02X2079548Y757852I-142J-21025D01*
G01X2080961Y757716D01*
G02X2081160Y757695I-1207J-12389D01*
G02X2081485Y757654I-1395J-12369D01*
G02X2081809Y757605I-1699J-12331D01*
G01X2082672Y757462D01*
X2082737Y757451D01*
G02X2082753Y757448I-5420J-28952D01*
G02X2082833Y757433I-5388J-28958D01*
G02X2082922Y757416I-5482J-28941D01*
G02X2083115Y757379I-5449J-28947D01*
G02X2083407Y757318I-10655J-51735D01*
G02X2083563Y757285I-10854J-51694D01*
G02X2083625Y757272I-6014J-28834D01*
G02X2083772Y757239I-6378J-28756D01*
G01X2083775Y757238D01*
G02X2083805Y757231I-6678J-28687D01*
G01X2083808D01*
G02X2083937Y757201I-6608J-28707D01*
G02X2084102Y757163I-6529J-28725D01*
G01X2084400Y757093D01*
G02X2085201Y756883I-7069J-28596D01*
G03X2085208Y756881I428J1484D01*
G03X2085228Y756876I386J1500D01*
G02X2086347Y756540I-7910J-28374D01*
G03X2086399Y756521I271J660D01*
G02X2086433Y756511I-9031J-30770D01*
G01X2086446Y756506D01*
X2086447D01*
G02X2086551Y756473I-9649J-30588D01*
G02X2086614Y756453I-9673J-30580D01*
G02X2086710Y756420I-9527J-27872D01*
G02X2086778Y756396I-9769J-27788D01*
G01X2086878Y756361D01*
X2086947Y756337D01*
X2086961Y756333D01*
X2086962D01*
X2086966Y756331D01*
G03X2087013Y756317I958J3130D01*
G02X2087050Y756304I-9746J-27798D01*
G01X2087092Y756288D01*
X2087100Y756287D01*
X2087126Y756277D01*
X2087129Y756276D01*
G03X2087143Y756271I247J669D01*
G03X2087176Y756258I2460J6195D01*
G03X2087215Y756243I2412J6214D01*
G02X2087229Y756238I-9895J-27728D01*
G02X2087352Y756194I-9859J-27756D01*
G02X2087375Y756185I-10721J-27433D01*
G03X2087385Y756182I210J682D01*
G03X2087412Y756173I239J672D01*
G03X2087422Y756170I945J3132D01*
G03X2087427Y756168I1216J3034D01*
G01X2087534Y756129D01*
G02X2088108Y755910I-10213J-27629D01*
G02X2088708Y755667I-10757J-27422D01*
G01Y755666D01*
X2088776Y755638D01*
G02X2088896Y755588I-24985J-60132D01*
G02X2088923Y755577I-24553J-60305D01*
G02X2090520Y754839I-11553J-27098D01*
G02X2090642Y754778I-20061J-40275D01*
G02X2090824Y754685I-20383J-40113D01*
G02X2091176Y754500I-13527J-26165D01*
G02X2091254Y754458I-13926J-25955D01*
G02X2091990Y754047I-13991J-25920D01*
G01X2092228Y753908D01*
X2092239Y753901D01*
G03X2092251Y753894I366J613D01*
G03X2092268Y753885I1540J2888D01*
G03X2092272Y753882I1947J2592D01*
G03X2092354Y753834I5287J8938D01*
G03X2092376Y753820I842J1299D01*
G03X2092417Y753796I803J1324D01*
G03X2092428Y753790I347J623D01*
G03X2092439Y753783I388J598D01*
G02X2092646Y753659I-15032J-25329D01*
G02X2092829Y753547I-15284J-25178D01*
G02X2092942Y753476I-15614J-24975D01*
G03X2092955Y753468I380J604D01*
G03X2092958Y753466I397J593D01*
G03X2092981Y753451I857J1290D01*
G01X2092984Y753450D01*
G02X2093134Y753343I-1033J-1606D01*
G01X2093151Y753329D01*
X2093182Y753304D01*
X2093346Y753174D01*
X2093354Y753168D01*
G03X2093658Y753007I624J810D01*
G01X2093678Y753000D01*
X2093679D01*
G03X2093717Y752975I17823J27050D01*
G02X2093928Y752833I-16338J-24505D01*
G02X2093973Y752802I-16686J-24270D01*
G02X2094017Y752772I-16569J-24349D01*
G01X2094095Y752718D01*
X2094097Y752717D01*
X2094134Y752692D01*
X2094183Y752659D01*
G03X2094192Y752651I477J528D01*
G02X2094441Y752474I-16939J-24094D01*
G02X2094556Y752390I-17315J-23825D01*
G03X2094560Y752387I429J568D01*
G03X2094569Y752381I400J591D01*
G03X2094573Y752378I430J569D01*
G03X2094590Y752366I1896J2668D01*
G03X2095126Y751968I41295J55054D01*
G01X2095128D01*
X2095149Y751952D01*
X2095157Y751946D01*
X2095158Y751945D01*
G03X2095251Y751874I2032J2565D01*
G02X2095285Y751849I-17429J-23738D01*
G02X2095306Y751833I-17833J-23428D01*
G01X2095315Y751827D01*
G03X2095345Y751803I2059J2543D01*
G03X2095364Y751789I433J567D01*
G03X2095440Y751730I15784J20254D01*
G02X2095519Y751668I-18145J-23201D01*
G02X2095670Y751548I-18249J-23119D01*
G02X2096146Y751162I-17871J-22524D01*
G02X2096165Y751147I-17802J-22569D01*
G02X2096241Y751083I-18483J-22025D01*
G02X2096745Y750648I-18990J-22512D01*
G01X2096746Y750647D01*
X2096755Y750639D01*
G03X2096769Y750627I35053J40881D01*
G03X2096893Y750518I35617J40393D01*
G02X2097144Y750295I-19436J-22129D01*
G02X2097167Y750274I-19847J-21760D01*
G01X2097170Y750270D01*
X2097178Y750264D01*
G03X2097226Y750217I6479J6569D01*
G03X2097283Y750166I4473J4942D01*
G03X2097294Y750157I4221J5148D01*
G03X2097348Y750107I4556J4866D01*
G01X2097375Y750083D01*
X2097393Y750066D01*
G02X2097486Y749979I-20074J-21551D01*
G02X2097668Y749805I-20261J-21375D01*
G03X2097669Y749804I505J504D01*
G01X2097670Y749803D01*
G03X2097686Y749789I478J530D01*
G03X2097689Y749786I505J502D01*
G03X2097700Y749776I2206J2416D01*
G03X2097702Y749774I4124J4122D01*
G03X2097747Y749732I4001J4242D01*
G02X2097844Y749636I-20668J-20981D01*
G03X2097852Y749628I509J501D01*
G01X2097905Y749578D01*
X2097906Y749576D01*
X2097947Y749537D01*
G03X2098000Y749485I17747J18036D01*
G03X2098016Y749470I17314J18452D01*
G03X2098033Y749453I17900J17883D01*
G03X2098068Y749417I2364J2263D01*
G03X2098082Y749399I562J423D01*
G03X2098100Y749385I441J548D01*
G03X2098143Y749344I14115J14760D01*
G02X2098166Y749321I-20813J-20836D01*
G02X2098252Y749233I-21019J-20628D01*
G02X2098431Y749049I-21019J-20627D01*
G03X2098436Y749044I507J502D01*
G03X2098463Y749016I25858J24908D01*
G03X2098559Y748919I25567J25207D01*
G03X2098562Y748916I506J503D01*
G03X2098592Y748884I535J472D01*
G03X2098632Y748844I43933J43893D01*
G03X2099261Y748224I43909J43917D01*
G03X2099281Y748204I514J494D01*
G03X2099283Y748202I506J504D01*
G03X2099289Y748196I507J501D01*
G01X2099290Y748195D01*
G03X2101902Y745921I24853J25910D01*
G01X2101907Y745917D01*
X2101910Y745915D01*
G03X2101984Y745857I22184J28228D01*
G03X2102011Y745835I2080J2526D01*
G01X2102012D01*
G03X2102109Y745759I22190J28222D01*
G03X2102122Y745749I442J561D01*
G03X2102140Y745736I427J572D01*
G01X2102144Y745734D01*
G03X2102155Y745726I2421J3317D01*
G03X2102157Y745724I2904J2902D01*
G03X2102236Y745663I17091J22053D01*
G01X2102251Y745652D01*
G03X2102289Y745622I17307J21883D01*
G01X2102290D01*
G03X2103977Y744399I21890J28420D01*
G03X2104207Y744244I20162J29670D01*
G03X2104228Y744230I869J1281D01*
G03X2104258Y744210I874J1278D01*
G03X2104261Y744208I4445J6664D01*
G03X2104274Y744199I4563J6578D01*
G03X2104308Y744177I405J588D01*
G03X2104321Y744170I345J625D01*
G03X2104357Y744148I4196J6826D01*
G03X2105397Y743486I19779J29925D01*
G03X2105785Y743251I18765J30545D01*
G03X2106120Y743053I18408J30762D01*
G03X2106368Y742910I18031J30984D01*
G03X2107401Y742344I17750J31170D01*
G03X2107878Y742097I16732J31729D01*
G01X2107881Y742096D01*
G03X2107925Y742073I2724J5157D01*
G03X2107948Y742060I2881J5070D01*
G01X2107951Y742059D01*
G03X2107958Y742055I357J617D01*
G03X2107977Y742045I1923J3630D01*
G03X2108003Y742030I2065J3550D01*
G03X2108041Y742013I310J643D01*
G03X2108047Y742011I228J673D01*
G03X2108062Y742004I309J642D01*
G03X2108195Y741940I12423J25647D01*
G03X2108868Y741616I15824J32008D01*
G03X2108948Y741578I15360J32233D01*
G03X2109089Y741511I2573J5234D01*
G03X2109137Y741489I2454J5291D01*
G03X2109755Y741212I14993J32621D01*
G03X2110150Y741042I14390J32892D01*
G03X2110155Y741039I1677J2790D01*
G03X2110196Y741022I294J651D01*
G03X2110273Y740990I13816J33137D01*
G03X2110461Y740911I14002J33059D01*
G03X2110513Y740890I1564J3797D01*
G01X2110514D01*
X2110515Y740889D01*
G03X2110558Y740871I1285J3009D01*
G03X2110565Y740867I356J616D01*
G03X2110950Y740714I13451J33285D01*
G03X2111370Y740551I13198J33386D01*
G03X2111696Y740428I12836J33527D01*
G03X2111732Y740415I2788J7665D01*
G03X2111767Y740402I2857J7639D01*
G03X2112031Y740307I12288J33732D01*
G03X2112378Y740185I12081J33807D01*
G03X2112401Y740177I11805J33904D01*
G03X2112617Y740100I12163J33779D01*
G03X2112663Y740086I231J675D01*
G03X2112674Y740082I249J667D01*
G03X2113191Y739913I10124J30096D01*
G03X2113399Y739848I10813J34235D01*
G03X2113693Y739757I10763J34251D01*
G03X2113739Y739743I10476J34340D01*
G03X2113771Y739732I248J669D01*
G03X2113787Y739727I221J678D01*
G03X2113878Y739700I1941J6376D01*
G03X2113889Y739697I1759J6429D01*
G03X2113956Y739678I1852J6403D01*
G03X2114564Y739507I9327J31996D01*
G03X2115015Y739384I9671J34571D01*
G03X2115314Y739306I9211J34696D01*
G03X2115327Y739302I968J3122D01*
G03X2115350Y739296I837J3162D01*
G01X2115357Y739295D01*
G03X2115371Y739291I905J3142D01*
G03X2115390Y739287I156J696D01*
G03X2115411Y739282I961J3992D01*
G03X2115426Y739278I1064J3960D01*
G03X2115462Y739270I5135J23024D01*
G01X2115471Y739267D01*
X2115478Y739266D01*
X2115495Y739261D01*
G03X2115630Y739227I8835J34794D01*
G03X2115647Y739223I949J3995D01*
G03X2115719Y739204I1084J3961D01*
G03X2115752Y739197I165J694D01*
G03X2117537Y738815I8403J34902D01*
G03X2118026Y738727I6603J35287D01*
G03X2118142Y738707I1649J9220D01*
G03X2121022Y738338I5998J35394D01*
G03X2121037Y738337I1289J19227D01*
G03X2121095Y738332I1684J19198D01*
G03X2121121Y738330I68J710D01*
G03X2121271Y738317I3175J35757D01*
G03X2121639Y738287I3101J35764D01*
G03X2121813Y738276I2352J35821D01*
G03X2123440Y738185I5010J74981D01*
G01X2123478D01*
G03X2123991Y738164I3330J75074D01*
G03X2124332Y738151I3033J75086D01*
G01X2124369Y738150D01*
X2124375D01*
G03X2124420Y738148I1654J36716D01*
G03X2124480Y738145I1865J36706D01*
G03X2124787Y738133I1589J36719D01*
G03X2124917Y738129I1195J36734D01*
G01X2124918D01*
G03X2125870Y738113I1073J35491D01*
G03X2125932Y738111I137J3270D01*
G01X2125990Y738109D01*
G03X2126062Y738110I26J713D01*
G01X2126081Y738112D01*
X2126106D01*
G03X2126159Y738114I-1312J35481D01*
G01X2143897D01*
G02X2143938Y738112I-24J-915D01*
G03X2144186Y738097I675J9105D01*
G03X2144246Y738094I486J9117D01*
G03X2144315Y738092I299J9125D01*
G03X2144950Y738095I279J8179D01*
G01X2146158Y738135D01*
G03X2147359Y738193I-1460J42693D01*
G01X2147360D01*
G03X2147402Y738196I-394J5817D01*
G03X2147476Y738200I-278J5824D01*
G03X2148433Y738273I-2770J42629D01*
G01X2148467Y738276D01*
X2148475Y738277D01*
G03X2148644Y738292I-872J10784D01*
G03X2150412Y738492I-3917J42539D01*
G03X2151011Y738577I-5702J42337D01*
G01X2151024Y738579D01*
X2151026D01*
X2151113Y738591D01*
X2151115Y738593D01*
G03X2151538Y738659I-6374J42240D01*
G03X2152109Y738755I-6797J42174D01*
G03X2152752Y738875I-6265J35352D01*
G01X2152780Y738880D01*
G03X2153109Y738947I-6070J30647D01*
G03X2153245Y738976I-6447J30569D01*
G03X2153306Y738989I-6481J30562D01*
G03X2153649Y739064I-5237J24771D01*
G03X2155274Y739466I-7807J35043D01*
G03X2155313Y739476I-502J2038D01*
G03X2155335Y739482I-541J2028D01*
G03X2155589Y739553I-9538J34613D01*
G03X2155607Y739558I-9600J34596D01*
G03X2155683Y739580I-9945J34498D01*
G03X2156014Y739676I-7462J26346D01*
G03X2156055Y739688I-10065J34463D01*
G03X2156760Y739906I-10253J34408D01*
G03X2156783Y739912I-169J694D01*
G03X2156805Y739920I-233J674D01*
G01X2156806Y739921D01*
X2156807D01*
X2156823Y739926D01*
X2156827Y739927D01*
G03X2156856Y739936I-444J1482D01*
G03X2156868Y739940I-219J678D01*
G01X2156872Y739941D01*
X2156873Y739942D01*
X2156874D01*
G03X2157307Y740086I-11113J34140D01*
G03X2157437Y740130I-11445J34030D01*
G01X2157439D01*
G03X2158133Y740378I-11734J33931D01*
G03X2158894Y740668I-12403J33692D01*
G03X2159274Y740813I-8379J22530D01*
G03X2159629Y740954I-8695J22410D01*
G03X2160190Y741192I-9107J22246D01*
G03X2160347Y741263I-2030J4698D01*
G03X2160422Y741297I-9888J21911D01*
G03X2160786Y741468I-10039J21842D01*
G03X2160846Y741495I-14704J32756D01*
G03X2161153Y741638I-15007J32618D01*
G03X2161354Y741733I-15242J32509D01*
G03X2165517Y744088I-14449J30399D01*
G03X2166253Y744585I-19721J29999D01*
G01X2166279Y744601D01*
X2166283Y744604D01*
G03X2166293Y744611I-404J588D01*
G03X2166296Y744613I-1751J2629D01*
G03X2166301Y744616I-1617J2701D01*
G03X2166339Y744643I-20776J29280D01*
G03X2166755Y744936I-20465J29498D01*
G03X2166803Y744970I-20728J29314D01*
G03X2166841Y744998I-5404J7374D01*
G03X2166860Y745013I-5656J7183D01*
G03X2168733Y746465I-21048J29085D01*
G01X2168734Y746466D01*
G03X2168793Y746514I-14360J17712D01*
G03X2168801Y746521I-15001J17152D01*
G03X2168906Y746610I-14691J17438D01*
G03X2168996Y746687I-14778J17364D01*
G03X2169021Y746708I-2092J2516D01*
G03X2169033Y746718I-451J553D01*
G03X2169057Y746739I-23628J27028D01*
G01X2169071Y746751D01*
G03X2169153Y746824I-23830J26850D01*
G03X2169448Y747075I-17695J21096D01*
G03X2169457Y747082I-3572J4602D01*
G03X2169605Y747213I-3791J4432D01*
G03X2169854Y747435I-23768J26909D01*
G03X2170486Y748018I-24025J26679D01*
G03X2170909Y748424I-24649J26104D01*
G01Y748425D01*
G03X2171589Y749108I-25100J25670D01*
G03X2171610Y749128I-481J526D01*
G01X2171614Y749132D01*
G02X2172181Y749694I21015J-20635D01*
G03X2172256Y749765I-7491J7988D01*
G01X2172369Y749871D01*
X2172413Y749912D01*
G03X2172428Y749926I-479J529D01*
G03X2172496Y749993I-8516J8711D01*
G01X2172530Y750026D01*
G03X2172538Y750033I-466J540D01*
G03X2172605Y750096I-16925J18067D01*
G02X2172985Y750441I19988J-21634D01*
G02X2172997Y750451I18852J-22610D01*
G03X2173003Y750457I-2233J2239D01*
G03X2173012Y750465I-470J537D01*
G01X2173013Y750466D01*
G02X2173022Y750474I19573J-22010D01*
G03X2173114Y750558I-32634J35835D01*
G02X2173187Y750622I19452J-22114D01*
G01X2173218Y750648D01*
G03X2173221Y750651I-501J504D01*
G03X2173233Y750661I-19145J22986D01*
G03X2173324Y750741I-19716J22518D01*
G02X2173891Y751220I19289J-22257D01*
G01X2174050Y751351D01*
X2174085Y751379D01*
G02X2174143Y751426I11322J-13912D01*
G02X2174231Y751494I11011J-14159D01*
G03X2174250Y751508I-414J582D01*
G03X2174285Y751538I-3777J4442D01*
G01X2174353Y751591D01*
X2174379Y751605D01*
G03X2174397Y751628I-529J433D01*
G02X2174438Y751662I18822J-22656D01*
G03X2174471Y751687I-9601J12707D01*
G03X2174488Y751699I-9173J13013D01*
G03X2174544Y751740I-9380J12871D01*
G01X2174547Y751745D01*
G02X2174986Y752084I18221J-23142D01*
G01X2175019Y752104D01*
G03X2175032Y752114I-428J570D01*
G03X2175044Y752124I-450J552D01*
G03X2175146Y752202I-1936J2638D01*
G01X2175148Y752203D01*
X2175149Y752204D01*
X2175156Y752209D01*
X2175159Y752211D01*
X2175166Y752216D01*
G02X2175254Y752280I17368J-23789D01*
G02X2175340Y752343I17449J-23730D01*
G02X2175382Y752372I490J-665D01*
G02X2175442Y752406I437J-701D01*
G03X2176488Y753102I-2715J5214D01*
G03X2176540Y753146I-3771J4509D01*
G01X2176541Y753147D01*
G02X2176547Y753153I1324J-1318D01*
G02X2176737Y753293I1201J-1431D01*
G02X2176759Y753308I16604J-24329D01*
G02X2176901Y753400I16087J-24674D01*
G02X2176973Y753445I15647J-24955D01*
G02X2177133Y753543I16401J-26598D01*
G02X2177183Y753573I16102J-26780D01*
G01X2177190Y753577D01*
X2177198Y753582D01*
X2177337Y753667D01*
X2177338Y753668D01*
G03X2177341Y753670I-1814J2724D01*
G01X2177342Y753671D01*
X2177343D01*
G02X2177465Y753745I16266J-26679D01*
G02X2177564Y753806I16441J-26572D01*
G02X2177627Y753843I15855J-26925D01*
G03X2177859Y753981I-4599J7996D01*
G03X2177868Y753986I-342J626D01*
G02X2177985Y754050I19476J-35466D01*
G02X2178041Y754081I19624J-35384D01*
G03X2178048Y754085I-350J621D01*
G03X2178068Y754097I-357J618D01*
G03X2178095Y754111I-1494J2913D01*
G03X2178128Y754130I-1616J2845D01*
G01X2178136Y754135D01*
X2178140Y754137D01*
G02X2178480Y754328I14595J-25583D01*
G02X2178765Y754482I14144J-25835D01*
G01X2178767D01*
G03X2178885Y754547I-6459J11865D01*
G02X2178914Y754562I13545J-26152D01*
G02X2179620Y754924I13791J-26027D01*
G03X2179641Y754933I-2614J6129D01*
G03X2179648Y754935I-193J687D01*
G02X2179671Y754947I13631J-26097D01*
G02X2179693Y754959I14102J-25828D01*
G03X2179919Y755067I-19235J40541D01*
G02X2180172Y755186I12662J-26591D01*
G01X2180259Y755226D01*
X2180260D01*
X2180315Y755250D01*
G03X2180330Y755257I-294J650D01*
G03X2180352Y755268I-308J644D01*
G01X2180354Y755269D01*
G03X2180371Y755278I-1521J2894D01*
G02X2180485Y755330I12280J-26772D01*
G02X2180530Y755351I12478J-26680D01*
G02X2180554Y755362I12284J-26770D01*
G01X2180579Y755372D01*
X2180602Y755382D01*
X2180663Y755408D01*
X2180664D01*
G03X2180725Y755436I-267J661D01*
G01X2180727D01*
G03X2180737Y755441I-1457J2927D01*
G03X2180752Y755447I-1208J3042D01*
G03X2180788Y755464I-1379J2967D01*
G02X2182558Y756173I11831J-26973D01*
G01X2182581Y756181D01*
X2182659Y756208D01*
X2182795Y756243D01*
X2182911Y756271D01*
X2182932Y756307D01*
X2182970Y756321D01*
X2182993Y756329D01*
G02X2183792Y756594I9670J-27820D01*
G02X2183827Y756605I8848J-28091D01*
G02X2184878Y756909I8707J-28135D01*
G01X2184900Y756915D01*
G03X2184919Y756920I-172J692D01*
G03X2184932Y756923I-154J697D01*
G03X2184940Y756926I-244J664D01*
G02X2185837Y757155I7733J-28419D01*
G01X2185839Y757156D01*
G02X2186115Y757220I6791J-28659D01*
G02X2186466Y757296I12507J-56916D01*
G01X2186467Y757297D01*
G02X2186686Y757343I6164J-28801D01*
G02X2186844Y757375I5925J-28851D01*
G01X2186845D01*
G03X2186864Y757379I-137J700D01*
G03X2186876Y757381I-111J705D01*
G03X2186881Y757382I-137J699D01*
G03X2186904Y757386I-111J705D01*
G03X2186917Y757388I-102J706D01*
G03X2186941Y757394I-781J3176D01*
G03X2186953Y757397I-788J3176D01*
G03X2186963Y757399I-637J3210D01*
G02X2187214Y757447I5433J-27731D01*
G02X2187226Y757449I4652J-27873D01*
G02X2187392Y757479I5321J-28969D01*
G02X2187478Y757494I5104J-29008D01*
G01X2187484Y757495D01*
X2187486Y757496D01*
G03X2187492Y757497I-114J704D01*
G01X2187495D01*
G03X2187570Y757512I-604J3216D01*
G02X2187819Y757554I5023J-29022D01*
G01X2187822D01*
X2187837Y757557D01*
X2187853Y757559D01*
G02X2187950Y757575I4842J-29052D01*
G02X2189246Y757754I4677J-29079D01*
G01X2189248Y757755D01*
G03X2189267Y757757I-65J710D01*
G01X2189282Y757758D01*
X2189342Y757765D01*
G02X2189995Y757832I3333J-29264D01*
G01X2189996D01*
G03X2190106Y757842I-1821J20637D01*
G02X2190157Y757846I2329J-29362D01*
G02X2190444Y757869I2496J-29349D01*
G03X2190459Y757870I-210J3265D01*
G01X2190472D01*
X2190488Y757872D01*
G03X2190522Y757875I-1753J20063D01*
G02X2190813Y757894I2065J-29383D01*
G02X2191052Y757907I1719J-29405D01*
G01X2191054D01*
X2191073Y757908D01*
G03X2191116Y757910I-368J8382D01*
G01X2191117Y757911D01*
G03X2191207Y757916I-420J8377D01*
G03X2191228Y757917I-263J5745D01*
G01X2191241D01*
G02X2191492Y757927I1298J-29426D01*
G01X2191508Y757928D01*
G02X2191613Y757931I894J-29442D01*
G03X2191743Y757937I-86J3271D01*
G01X2191778D01*
X2191780Y757938D01*
X2191790D01*
G03X2191908Y757942I-306J10778D01*
G02X2192103Y757948I1003J-29440D01*
G01X2192158D01*
G03X2192186Y757949I-11J713D01*
G01X2192204Y757950D01*
G02X2192253Y757951I1022J-48863D01*
G02X2192562Y757957I1103J-48861D01*
G02X2193357Y757964I828J-48866D01*
G54D14*
X2307622Y780090D03*
G54D24*
G01X1993636Y747393D02*
X1992323D01*
G03X1991582Y747086I0J-1048D01*
G01X1991258Y746762D01*
G03X1991196Y746699I1521J-1559D01*
G03X1991001Y746246I552J-506D01*
G02X1990983Y746091I-1547J101D01*
G03X1990964Y745904I1330J-230D01*
G02X1990900Y745532I-1349J41D01*
G03X1990831Y745089I1384J-442D01*
G01Y744142D01*
G03X1990952Y743264I3251J1D01*
G02X1990995Y743100I-5222J-1457D01*
G01X1991032Y742882D01*
G02X1991072Y742405I-2892J-483D01*
G01Y739381D01*
G03X1992450Y737349I2187J0D01*
G03X1993552Y737140I1092J2750D01*
G01X2001802D01*
G03X2001804I1J11940D01*
G01X2002868D01*
X2002871Y737139D01*
G03X2003365Y737218I-3J1601D01*
G02X2003541Y737267I673J-2078D01*
G03X2003658Y737285I-1757J11810D01*
G02X2004165Y737325I512J-3254D01*
G01X2075715D01*
G02X2084639Y733686I-1J-12764D01*
G03X2097676Y724162I39522J40416D01*
G03X2099998Y722998I26487J49939D01*
G01X2100026Y722985D01*
G03X2124160Y717574I24134J51117D01*
G01X2146157D01*
G03X2153328Y718160I0J44165D01*
G01X2154510Y718355D01*
G03X2156629Y718746I-9298J56330D01*
G03X2167313Y722058I-11304J55355D01*
G03X2167368Y722081I-24450J58545D01*
G03X2177416Y727603I-22046J52018D01*
G03X2177745Y727832I-58411J84269D01*
G03X2180081Y729560I-32420J46270D01*
G02X2180162Y729623I17235J-22076D01*
G03X2182738Y731767I-34838J44477D01*
G02X2182790Y731813I6507J-7304D01*
G03X2184824Y733706I-37462J42291D01*
G02X2185133Y733999I8956J-9136D01*
G02X2185254Y734108I6698J-7314D01*
G02X2187456Y735687I8514J-9549D01*
G02X2187472Y735696I1921J-3396D01*
G02X2189246Y736527I6298J-11136D01*
G02X2189322Y736556I1268J-3209D01*
G02X2191020Y737055I4448J-11996D01*
G02X2191094Y737071I611J-2647D01*
G02X2192413Y737281I2668J-12512D01*
G02X2192426Y737283I214J-1347D01*
G02X2193318Y737346I1347J-12722D01*
G02X2194145Y737332I279J-7971D01*
G03X2194254Y737324I106J692D01*
G01X2313431D01*
G03X2314354Y737528I-1J2196D01*
G03X2315098Y738140I-745J1664D01*
G01X2315260Y738369D01*
G03X2315450Y738968I-849J599D01*
G01Y743985D01*
X2315402Y744033D01*
G03X2315383Y744083I-640J-214D01*
G02X2315322Y744284I866J373D01*
G03X2315226Y744615I-1669J-305D01*
G02X2315175Y744759I2093J822D01*
G03X2314911Y745396I-3827J-1213D01*
G01Y745478D02*
G02X2314599Y746192I1029J875D01*
G03X2313245Y747393I-1354J-162D01*
G01X2312583D01*
G01X2000624D02*
X2001217D01*
G03X2002994Y748129I0J2513D01*
G01X2003087Y748222D01*
X2003170D01*
G54D15*
X2311914Y742256D03*
G54D25*
G01X2333929Y675816D02*
X2332929Y674983D01*
X2331804Y674483D01*
X2330804D01*
X2329804Y674983D01*
X2329054Y675816D01*
X2328679Y676983D01*
X2328929Y678149D01*
X2329554Y679150D01*
X2330679Y679816D01*
X2332179Y680150D01*
X2333054Y680816D01*
X2333429Y681983D01*
X2333179Y683150D01*
X2332554Y683983D01*
X2331679Y684483D01*
X2330804D01*
X2329929Y684150D01*
X2329179Y683316D01*
G01X2323804Y674483D02*
Y684483D01*
X2320804D01*
X2319804Y683983D01*
X2319054Y682816D01*
X2318804Y681483D01*
X2319054Y680150D01*
X2319679Y679150D01*
X2320804Y678649D01*
X2323804D01*
G01X2311304Y674483D02*
Y684483D01*
X2312804Y682483D01*
G01Y674483D02*
X2309804D01*
G01X2304554D02*
Y684483D01*
X2301304Y676150D01*
X2298054Y684483D01*
Y674483D01*
G01X2291304D02*
X2292304Y674650D01*
X2293179Y675316D01*
X2293929Y676316D01*
X2294429Y677483D01*
X2294679Y678816D01*
Y680150D01*
X2294429Y681483D01*
X2293929Y682650D01*
X2293179Y683650D01*
X2292304Y684316D01*
X2291304Y684483D01*
X2290304Y684316D01*
X2289429Y683650D01*
X2288679Y682650D01*
X2288179Y681483D01*
X2287929Y680150D01*
Y678816D01*
X2288179Y677483D01*
X2288679Y676316D01*
X2289429Y675316D01*
X2290304Y674650D01*
X2291304Y674483D01*
G01X2283804D02*
Y684483D01*
X2280679D01*
X2279679Y683983D01*
X2279054Y683316D01*
X2278804Y681983D01*
X2279054Y680650D01*
X2279804Y679816D01*
X2280679Y679316D01*
X2283804D01*
G01X2280679D02*
X2278804Y674483D01*
G01X2270554Y679483D02*
X2268054D01*
Y676483D01*
X2268804Y675483D01*
X2269679Y674816D01*
X2270929Y674483D01*
X2272179Y674816D01*
X2273054Y675483D01*
X2273804Y676483D01*
X2274304Y677650D01*
X2274554Y678983D01*
Y680150D01*
X2274304Y681149D01*
X2273804Y682316D01*
X2273054Y683316D01*
X2272304Y683983D01*
X2271304Y684483D01*
X2270429D01*
X2269429Y684150D01*
X2268679Y683483D01*
G01X2264429Y674483D02*
X2261304Y684483D01*
X2258179Y674483D01*
G01X2259304Y677983D02*
X2263304D01*
G01X2254179Y674483D02*
Y684483D01*
X2248429Y674483D01*
Y684483D01*
G01X2243679Y674483D02*
Y684483D01*
X2238929D01*
G01X2240679Y679650D02*
X2243679D01*
G01X2233804Y684483D02*
Y674483D01*
X2228804D01*
G01X2224429D02*
X2221304Y684483D01*
X2218179Y674483D01*
G01X2219304Y677983D02*
X2223304D01*
G01X2204429Y684483D02*
X2201304Y674483D01*
X2198179Y684483D01*
G01X2188804Y674483D02*
X2193804D01*
Y684483D01*
X2188804D01*
G01X2190804Y679650D02*
X2193804D01*
G01X2183804Y674483D02*
Y684483D01*
X2180679D01*
X2179679Y683983D01*
X2179054Y683316D01*
X2178804Y681983D01*
X2179054Y680650D01*
X2179804Y679816D01*
X2180679Y679316D01*
X2183804D01*
G01X2180679D02*
X2178804Y674483D01*
G01X2171304Y674150D02*
X2171554Y674316D01*
Y674650D01*
X2171304Y674816D01*
X2171054Y674650D01*
Y674316D01*
X2171304Y674150D01*
G01X2164429Y674483D02*
X2161304Y684483D01*
X2158179Y674483D01*
G01X2159304Y677983D02*
X2163304D01*
G01X2144429Y674483D02*
X2141304Y684483D01*
X2138179Y674483D01*
G01X2139304Y677983D02*
X2143304D01*
G01X2133804Y674483D02*
Y684483D01*
X2130679D01*
X2129679Y683983D01*
X2129054Y683316D01*
X2128804Y681983D01*
X2129054Y680650D01*
X2129804Y679816D01*
X2130679Y679316D01*
X2133804D01*
G01X2130679D02*
X2128804Y674483D01*
G01X2121304Y684483D02*
Y674483D01*
G01X2124179Y684483D02*
X2118429D01*
G01X2115054D02*
X2113304Y674483D01*
X2111304Y684483D01*
X2109304Y674483D01*
X2107554Y684483D01*
G01X2101304Y674483D02*
X2102304Y674650D01*
X2103179Y675316D01*
X2103929Y676316D01*
X2104429Y677483D01*
X2104679Y678816D01*
Y680150D01*
X2104429Y681483D01*
X2103929Y682650D01*
X2103179Y683650D01*
X2102304Y684316D01*
X2101304Y684483D01*
X2100304Y684316D01*
X2099429Y683650D01*
X2098679Y682650D01*
X2098179Y681483D01*
X2097929Y680150D01*
Y678816D01*
X2098179Y677483D01*
X2098679Y676316D01*
X2099429Y675316D01*
X2100304Y674650D01*
X2101304Y674483D01*
G01X2093804D02*
Y684483D01*
X2090679D01*
X2089679Y683983D01*
X2089054Y683316D01*
X2088804Y681983D01*
X2089054Y680650D01*
X2089804Y679816D01*
X2090679Y679316D01*
X2093804D01*
G01X2090679D02*
X2088804Y674483D01*
G01X2084054D02*
Y684483D01*
G01X2079304D02*
X2084054Y678316D01*
G01X2078554Y674483D02*
X2081929Y681149D01*
G01X2060304Y679816D02*
X2059804Y680316D01*
X2059429Y681149D01*
X2059179Y682316D01*
X2059429Y683316D01*
X2059929Y683983D01*
X2060804Y684483D01*
X2064179D01*
Y674483D01*
X2060054D01*
X2059179Y675150D01*
X2058679Y676150D01*
X2058429Y677316D01*
X2058679Y678483D01*
X2059429Y679483D01*
X2060304Y679816D01*
X2064179D01*
G01X2051304Y674483D02*
X2052304Y674650D01*
X2053179Y675316D01*
X2053929Y676316D01*
X2054429Y677483D01*
X2054679Y678816D01*
Y680150D01*
X2054429Y681483D01*
X2053929Y682650D01*
X2053179Y683650D01*
X2052304Y684316D01*
X2051304Y684483D01*
X2050304Y684316D01*
X2049429Y683650D01*
X2048679Y682650D01*
X2048179Y681483D01*
X2047929Y680150D01*
Y678816D01*
X2048179Y677483D01*
X2048679Y676316D01*
X2049429Y675316D01*
X2050304Y674650D01*
X2051304Y674483D01*
G01X2041304Y684483D02*
Y674483D01*
G01X2044179Y684483D02*
X2038429D01*
G01X2031304D02*
Y674483D01*
G01X2034179Y684483D02*
X2028429D01*
G01X2021304Y674483D02*
X2022304Y674650D01*
X2023179Y675316D01*
X2023929Y676316D01*
X2024429Y677483D01*
X2024679Y678816D01*
Y680150D01*
X2024429Y681483D01*
X2023929Y682650D01*
X2023179Y683650D01*
X2022304Y684316D01*
X2021304Y684483D01*
X2020304Y684316D01*
X2019429Y683650D01*
X2018679Y682650D01*
X2018179Y681483D01*
X2017929Y680150D01*
Y678816D01*
X2018179Y677483D01*
X2018679Y676316D01*
X2019429Y675316D01*
X2020304Y674650D01*
X2021304Y674483D01*
G01X2014554D02*
Y684483D01*
X2011304Y676150D01*
X2008054Y684483D01*
Y674483D01*
G01X2000801Y741744D02*
G03X2001448Y742012I0J915D01*
G01D02*
X2002111Y742675D01*
G01X2306953Y761173D02*
X2306450D01*
G02X2304777Y761866I0J2366D01*
G01X2306953Y765307D02*
X2305867D01*
G02X2304918Y765700I0J1342D01*
G01X2306953Y757039D02*
X2305851D01*
G02X2305119Y757342I0J1036D01*
G01X2304902Y757559D01*
Y757621D01*
X2304839Y757684D01*
G01X2305043Y753117D02*
G03X2305699Y752905I656J908D01*
G01D02*
X2306953D01*
G54D16*
X2307622Y742256D03*
G54D26*
G01X2000624Y777708D02*
X2003006D01*
G01X2000624Y773575D02*
X2002413D01*
G02X2002596Y773499I0J-258D01*
G01X2000624Y765307D02*
X2002613D01*
G02X2002650Y765292I0J-53D01*
G01X2000624Y757039D02*
X2002226D01*
G03X2002629Y757206I0J570D01*
G01X2003071Y757648D01*
X2003113D01*
G01X2000624Y769441D02*
X2002125D01*
X2002192Y769434D01*
X2002491Y769370D01*
X2002718Y769143D01*
G01X2000624Y761173D02*
X2002007D01*
G03X2002569Y761406I0J794D01*
G01X2002579Y761416D01*
X2002642D01*
X2002860Y761634D01*
X2002880D01*
G01X2003121Y753294D02*
X2002732Y752905D01*
G01D02*
X2000624D01*
G01X2306953Y773575D02*
X2305116D01*
G02X2305073Y773593I0J61D01*
G01X2306953Y769441D02*
X2305071D01*
G02X2305054Y769448I0J24D01*
G01X2304248Y777062D02*
X2304894Y777708D01*
G01D02*
X2306953D01*
G54D17*
X2311914Y780090D03*
G54D27*
G01X2000624Y758417D02*
G03X2002924Y759095I1J4237D01*
G02X2003019Y759156I7236J-11165D01*
G02X2003209Y759259I918J-1467D01*
G01X2003208Y759261D01*
G03X2003491Y759410I-1431J3062D01*
G02X2010142Y761224I6651J-11287D01*
G02X2010144I1J-13101D01*
G01X2050112D01*
G03X2053794Y761228I-1J1695903D01*
G01X2077363D01*
G02X2077749Y761225I-105J-38302D01*
G02X2078244Y761212I-2357J-99172D01*
G02X2078804Y761191I-946J-32714D01*
G02X2078824Y761190I-2132J-42850D01*
G02X2078865Y761188I-2070J-42853D01*
G02X2079114Y761176I-1451J-32695D01*
G03X2079237Y761169I739J11895D01*
G02X2079403Y761158I-2081J-32661D01*
G01X2079876Y761125D01*
G02X2081661Y760937I-2534J-32629D01*
G01X2081672Y760935D01*
X2081676D01*
X2081706Y760930D01*
G03X2081730Y760927I114J817D01*
G02X2082246Y760853I-4388J-32432D01*
G01X2082260Y760851D01*
X2082263Y760850D01*
X2082268Y760849D01*
X2082369Y760835D01*
G02X2083173Y760699I-5056J-32335D01*
G02X2083760Y760587I-5840J-32202D01*
G02X2084249Y760486I-11101J-54983D01*
G02X2084529Y760424I-6935J-31984D01*
G02X2084856Y760348I-7246J-31917D01*
G01X2085167Y760274D01*
G02X2086103Y760030I-7787J-31790D01*
G02X2087446Y759624I-8797J-31524D01*
G03X2087458Y759620I779J2318D01*
G02X2087644Y759559I-10922J-33617D01*
G02X2087846Y759491I-10341J-31052D01*
G01X2087964Y759450D01*
X2087968Y759449D01*
X2088008Y759435D01*
X2088009D01*
G02X2088179Y759377I-10483J-31004D01*
G02X2088266Y759346I-21858J-61481D01*
G03X2088336Y759320I1216J3168D01*
G02X2088473Y759270I-11152J-30770D01*
G03X2088490Y759264I1138J3197D01*
G01X2088663Y759201D01*
G02X2090013Y758670I-11302J-30716D01*
G02X2090202Y758590I-26563J-63018D01*
G02X2092297Y757608I-12835J-30108D01*
G02X2093636Y756877I-15008J-29083D01*
G01X2093915Y756714D01*
X2093926Y756707D01*
G03X2094046Y756637I3644J6108D01*
G01X2094073Y756621D01*
X2094076Y756619D01*
X2094084Y756614D01*
X2094091Y756610D01*
G02X2094707Y756234I-16742J-28121D01*
G03X2094779Y756189I3980J6288D01*
G02X2094974Y756065I-17464J-27679D01*
G01X2095061Y755995D01*
X2095105Y755981D01*
G02X2095409Y755781I-17834J-27438D01*
G03X2095527Y755702I16260J24160D01*
G02X2095962Y755407I-18149J-27231D01*
G01X2095978Y755396D01*
X2095991Y755388D01*
G02X2096493Y755030I-18749J-26822D01*
G03X2096501Y755025I2710J4328D01*
G03X2097020Y754641I39245J52499D01*
G01X2097035Y754630D01*
G02X2097141Y754551I-19503J-26279D01*
G01X2097181Y754519D01*
X2097185Y754517D01*
G02X2097324Y754410I-19892J-25984D01*
G03X2097332Y754404I1473J1955D01*
G03X2097437Y754324I13631J17781D01*
G02X2097707Y754112I-20075J-25845D01*
G02X2098346Y753590I-19940J-25061D01*
G02X2098929Y753089I-21036J-25069D01*
G03X2099058Y752975I33559J37844D01*
G02X2099356Y752708I-21688J-24506D01*
G03X2099365Y752701I517J655D01*
G01X2099401Y752667D01*
G03X2099457Y752615I4079J4337D01*
G03X2099539Y752540I2331J2467D01*
G02X2099624Y752462I-22082J-24149D01*
G02X2099923Y752178I-22386J-23868D01*
G03X2099989Y752118I1754J1863D01*
G03X2100001Y752106I596J584D01*
G02X2100131Y751981I-22618J-23653D01*
G01X2100214Y751900D01*
G03X2100377Y751740I15513J15641D01*
G01X2100378Y751739D01*
G03X2100396Y751719I629J548D01*
G03X2100446Y751669I12152J12102D01*
G02X2100781Y751330I-23107J-23170D01*
G03X2100940Y751167I23437J22703D01*
G03X2101565Y750550I41641J41556D01*
G03X2104014Y748424I22589J23547D01*
G03X2104098Y748360I19816J25922D01*
G03X2104119Y748344I516J655D01*
G03X2104280Y748221I15032J19509D01*
G03X2106066Y746940I19882J25834D01*
G03X2106132Y746897I2621J3950D01*
G03X2107108Y746276I17984J27188D01*
G03X2108029Y745731I17048J27759D01*
G03X2109379Y745006I16094J28348D01*
G01X2109380D01*
G03X2109440Y744974I1234J2242D01*
G03X2109452Y744968I379J743D01*
G03X2109627Y744884I11003J22699D01*
G03X2110364Y744530I14410J29056D01*
G03X2110486Y744473I1144J2290D01*
G03X2111463Y744041I13682J29622D01*
G03X2111485Y744032I3381J8233D01*
G03X2111501Y744025I342J761D01*
G03X2111681Y743950I12640J30082D01*
G03X2111757Y743919I5262J12792D01*
G03X2111802Y743898I375J745D01*
G03X2112833Y743498I12315J30214D01*
G03X2112888Y743478I1697J4580D01*
G03X2113482Y743266I11264J30622D01*
G03X2113626Y743216I10775J30800D01*
G03X2114187Y743031I9200J26955D01*
G03X2114764Y742852I9956J31074D01*
G03X2114846Y742829I957J3255D01*
G03X2115436Y742661I8526J28821D01*
G03X2116127Y742476I8783J31421D01*
G03X2116165Y742468I191J812D01*
G03X2116272Y742441I5025J19688D01*
G03X2116451Y742396I8044J31619D01*
G03X2116474Y742390I222J804D01*
G03X2118586Y741952I7678J31710D01*
G03X2118676Y741937I1047J6003D01*
G03X2121317Y741598I5471J32164D01*
G03X2121449Y741586I1515J15928D01*
G03X2122032Y741542I2747J32510D01*
G03X2124504Y741420I4778J71717D01*
G03X2125021Y741400I1553J33445D01*
G03X2125971Y741384I1018J32220D01*
G01Y741383D01*
G03X2126027I28J32237D01*
G03X2126136Y741386I-832J32223D01*
G01X2143913D01*
G02X2144209Y741375I-7J-4189D01*
G03X2144831Y741365I405J5843D01*
G01X2146046Y741406D01*
G03X2147165Y741460I-1342J39424D01*
G03X2147241Y741465I-130J2555D01*
G03X2151461Y741965I-2524J39365D01*
G03X2152150Y742092I-5570J32151D01*
G03X2152627Y742190I-5390J27446D01*
G03X2152934Y742257I-4547J21572D01*
G03X2155878Y743060I-7105J31848D01*
G03X2156375Y743226I-10088J31031D01*
G03X2157725Y743724I-10615J30855D01*
G03X2158940Y744220I-7237J19464D01*
G03X2159401Y744434I-8512J18941D01*
G03X2159947Y744689I-13535J29692D01*
G03X2160134Y744781I-7210J14892D01*
G03X2161611Y745548I-14295J29334D01*
G03X2162274Y745925I-15796J28551D01*
G03X2162305Y745943I-3428J5939D01*
G03X2162331Y745957I-1201J2261D01*
G03X2163092Y746422I-16631J28073D01*
G03X2163208Y746492I-2587J4418D01*
G03X2163229Y746506I-1409J2136D01*
G03X2164404Y747284I-17422J27588D01*
G03X2164458Y747321I-18416J26936D01*
G03X2166645Y748985I-18647J26777D01*
G03X2166877Y749180I-12449J15047D01*
G03X2167018Y749304I-21477J24563D01*
G03X2167320Y749560I-15537J18635D01*
G03X2167411Y749642I-1668J1942D01*
G03X2167662Y749866I-21601J24457D01*
G03X2169248Y751394I-21833J24249D01*
G01X2169250Y751396D01*
G02X2169933Y752075I23412J-22867D01*
G03X2170040Y752175I-5189J5660D01*
G01X2170155Y752283D01*
X2170314Y752438D01*
G03X2170379Y752496I-1672J1939D01*
G02X2170796Y752875I22219J-24027D01*
G03X2170930Y752996I-30222J33604D01*
G02X2171061Y753111I21655J-24536D01*
G03X2171170Y753206I-17460J20143D01*
G02X2171817Y753752I21427J-24735D01*
G01X2172025Y753922D01*
G02X2172211Y754071I13354J-16479D01*
G03X2172235Y754090I-1576J2016D01*
G01X2172335Y754170D01*
G02X2172442Y754254I20262J-25700D01*
G02X2173070Y754737I20265J-25698D01*
G01X2173114Y754768D01*
X2173118Y754771D01*
X2173121Y754773D01*
X2173128Y754778D01*
X2173136Y754784D01*
G03X2173173Y754813I-1560J2028D01*
G02X2173511Y755060I19478J-26299D01*
G02X2173895Y755291I1665J-2332D01*
G03X2174457Y755674I-1174J2327D01*
G02X2174812Y755947I1999J-2232D01*
G02X2175236Y756219I17883J-27409D01*
G02X2175491Y756375I18142J-29368D01*
G01X2175519Y756392D01*
X2175524Y756395D01*
G02X2175845Y756590I18082J-29404D01*
G01X2176038Y756705D01*
X2176039Y756706D01*
G03X2176195Y756798I-2945J5172D01*
G02X2176257Y756835I16802J-28085D01*
G02X2176440Y756938I21543J-38061D01*
G03X2176458Y756948I-391J725D01*
G03X2176469Y756954I-1220J2249D01*
G01X2176480Y756960D01*
G03X2176516Y756980I-1225J2247D01*
G02X2176762Y757118I16134J-28472D01*
G02X2177251Y757384I15882J-28614D01*
G03X2177333Y757428I-4799J9042D01*
G02X2178197Y757870I15335J-28911D01*
G03X2178230Y757886I-1464J3062D01*
G02X2178456Y757994I14223J-29473D01*
G02X2178786Y758151I14224J-29472D01*
G01X2178789Y758152D01*
X2178857Y758185D01*
G02X2178962Y758232I13423J-29847D01*
G02X2179232Y758355I13702J-29720D01*
G01X2179396Y758427D01*
Y758428D01*
G02X2181452Y759254I13221J-29937D01*
G01X2181589Y759303D01*
G02X2181908Y759417I17945J-49711D01*
G02X2182814Y759717I10739J-30913D01*
G02X2184040Y760074I9760J-31235D01*
G02X2185398Y760413I8603J-31574D01*
G02X2185777Y760496I13356J-60079D01*
G02X2186205Y760585I6876J-31994D01*
G03X2186275Y760600I-1748J8328D01*
G03X2186296Y760604I-468J2515D01*
G02X2186635Y760669I6107J-30934D01*
G02X2186915Y760719I5893J-32191D01*
G01Y760720D01*
G02X2187288Y760784I5721J-32222D01*
G02X2188888Y761008I5336J-32288D01*
G01X2188966Y761017D01*
G02X2189706Y761092I3670J-32520D01*
G03X2189795Y761100I-1517J17379D01*
G02X2190215Y761133I2773J-32609D01*
G03X2190226Y761134I-216J2437D01*
G03X2190278Y761138I-1268J16822D01*
G02X2190893Y761177I2379J-32640D01*
G03X2190954Y761180I-221J5112D01*
G03X2191048Y761185I-225J5111D01*
G01X2191076Y761186D01*
X2191082D01*
G02X2191519Y761202I1416J-32696D01*
G03X2191530Y761204I-432J2408D01*
G03X2191650Y761209I-4585J111489D01*
G01X2191703D01*
G03X2191787Y761212I-226J7508D01*
G02X2191924Y761216I1024J-32713D01*
G02X2192370Y761222I469J-18261D01*
G01X2301775D01*
G02X2302187Y761131I-1J-982D01*
G01X2302500Y760987D01*
G02X2302699Y760882I-864J-1878D01*
G02X2303146Y760574I-2361J-3905D01*
G02X2303418Y760345I-2801J-3603D01*
G03X2303431Y760334I539J624D01*
G03X2303437Y760328I1444J1438D01*
G03X2303993Y759983I1339J1537D01*
G02X2304745Y759534I-1162J-2801D01*
G02X2305266Y759068I-4779J-5868D01*
G03X2306150Y758532I1599J1640D01*
G03X2306629Y758455I480J1455D01*
G01X2306953D01*
Y758417D01*
G01Y759795D02*
X2306350D01*
G02X2305923Y759910I1J855D01*
G01X2305011Y760436D01*
G03X2304738Y760578I-1749J-3028D01*
G03X2304392Y760715I-1395J-3017D01*
G02X2303912Y761015I385J1149D01*
G03X2303753Y761152I-867J-845D01*
G02X2303615Y761255I3560J4914D01*
G03X2303124Y761588I-3265J-4286D01*
G03X2302845Y761736I-1492J-2476D01*
G01X2302351Y761965D01*
G03X2301914Y762061I-436J-944D01*
G01X2192122D01*
X2192105Y762044D01*
X2192104D01*
G03X2191902Y762040I277J-19089D01*
G03X2191757Y762036I853J-33543D01*
G02X2191690Y762033I-333J6679D01*
G01X2191615D01*
G02X2191432Y762025I-4929J110648D01*
G02X2191427Y762024I-321J1591D01*
G03X2191052Y762010I1064J-33534D01*
G01X2191042D01*
X2191028Y762009D01*
X2191010D01*
X2190997Y762008D01*
G02X2190913Y762003I-297J4282D01*
G02X2190853Y762001I-173J4289D01*
G03X2190216Y761960I1836J-33501D01*
G02X2190156Y761956I-1097J16007D01*
G01X2190148Y761955D01*
G03X2189722Y761921I2456J-33461D01*
G02X2189633Y761913I-1532J16550D01*
G03X2188873Y761836I3002J-33416D01*
G01X2188794Y761827D01*
G03X2187153Y761597I3835J-33330D01*
G03X2186961Y761578I0J-979D01*
G01X2186138Y761413D01*
G02X2186112Y761408I-341J1701D01*
G02X2186039Y761393I-1583J7521D01*
G03X2185604Y761302I6652J-32883D01*
G03X2185217Y761217I13186J-60960D01*
G03X2183824Y760870I7411J-32721D01*
G03X2182567Y760504I8749J-32388D01*
G03X2181635Y760195I10091J-31996D01*
G03X2181310Y760079I17881J-50610D01*
G01X2181176Y760031D01*
X2181172Y760030D01*
G03X2179063Y759182I11455J-31535D01*
G03X2178581Y758965I13532J-30701D01*
G03X2178510Y758933I13750J-30603D01*
G01X2178500Y758928D01*
X2178433Y758896D01*
G03X2178100Y758738I14215J-30389D01*
G03X2177869Y758627I14415J-30295D01*
G02X2177837Y758612I-1107J2319D01*
G03X2176943Y758154I14849J-30086D01*
G02X2176864Y758112I-4458J8290D01*
G03X2176109Y757698I15752J-29622D01*
G02X2176069Y757675I-884J1491D01*
G02X2176050Y757664I-879J1496D01*
G01X2176048Y757663D01*
G03X2175845Y757549I21717J-38909D01*
G03X2175769Y757504I17056J-28893D01*
G02X2175570Y757388I-2681J4371D01*
G03X2175090Y757096I18128J-30341D01*
G01X2175065Y757081D01*
G03X2174799Y756918I18334J-30217D01*
G03X2174361Y756637I17898J-28379D01*
G03X2173907Y756289I2091J-3198D01*
G02X2173525Y756028I-1187J1328D01*
G03X2173030Y755730I1650J-3301D01*
G03X2172669Y755466I19624J-27214D01*
G02X2172645Y755446I-1122J1322D01*
G01X2172642Y755444D01*
X2172629Y755435D01*
X2172585Y755404D01*
G03X2171933Y754902I20141J-26834D01*
G03X2171822Y754816I20493J-26565D01*
G01X2171719Y754734D01*
G02X2171701Y754719I-1119J1324D01*
G03X2171504Y754562I13634J-17310D01*
G01X2171294Y754390D01*
G03X2170628Y753828I21302J-25920D01*
G02X2170520Y753733I-17115J19348D01*
G03X2170380Y753611I21971J-25354D01*
G02X2170246Y753489I-29938J32748D01*
G03X2169819Y753102I22316J-25052D01*
G02X2169775Y753063I-1173J1279D01*
G01X2169757Y753046D01*
X2169585Y752879D01*
X2169474Y752774D01*
X2169472Y752772D01*
G02X2169368Y752676I-4701J4988D01*
G03X2168663Y751976I23284J-24156D01*
G01X2168660Y751973D01*
X2168656Y751968D01*
G02X2167110Y750478I-22832J22143D01*
G02X2166854Y750250I-21282J23637D01*
G02X2166783Y750185I-1207J1247D01*
G02X2166480Y749930I-15243J17805D01*
G02X2166338Y749804I-21179J23726D01*
G02X2166119Y749620I-12141J14228D01*
G02X2163989Y747999I-20310J24477D01*
G02X2163937Y747963I-18130J26132D01*
G02X2162778Y747196I-18127J26133D01*
G02X2162763Y747186I-970J1438D01*
G02X2162665Y747127I-2264J3650D01*
G02X2161924Y746675I-16932J26924D01*
G02X2161904Y746664I-846J1514D01*
G02X2161860Y746638I-3091J5180D01*
G02X2161212Y746269I-16062J27452D01*
G02X2159769Y745520I-15370J27847D01*
G02X2159589Y745432I-6995J14079D01*
G02X2159052Y745181I-13736J28688D01*
G02X2158603Y744972I-8639J17973D01*
G02X2157430Y744494I-8108J18219D01*
G02X2156107Y744006I-11666J29589D01*
G02X2155624Y743844I-10355J30073D01*
G02X2152753Y743062I-9785J30264D01*
G02X2152455Y742997I-4671J20700D01*
G02X2151992Y742901I-5743J26532D01*
G02X2151320Y742777I-6107J31214D01*
G02X2147181Y742287I-6603J38053D01*
G02X2147119Y742283I-143J1728D01*
G02X2146018Y742230I-2407J38547D01*
G01X2144802Y742189D01*
X2144800D01*
G02X2144267Y742197I-191J5029D01*
G03X2143914Y742210I-361J-5000D01*
G01X2126112D01*
G02X2126051Y742208I-1060J31392D01*
G02X2125047Y742224I-2J31412D01*
G02X2124536Y742244I1022J32640D01*
G02X2122087Y742365I2281J71015D01*
G02X2121519Y742408I2117J31731D01*
G02X2121392Y742419I1246J15124D01*
G02X2118810Y742751I2761J31681D01*
G02X2118727Y742764I774J5212D01*
G02X2116671Y743191I5435J31334D01*
G02X2116669Y743192I3J9D01*
G02X2116474Y743241I7653J30867D01*
G02X2116321Y743279I4623J18939D01*
G02X2116317Y743278I-4J9D01*
G02X2115656Y743456I7938J30795D01*
G02X2115069Y743623I7705J28197D01*
G02X2114999Y743642I638J2488D01*
G02X2114438Y743816I9141J30464D01*
G02X2113894Y743996I8415J26346D01*
G02X2113753Y744045I10370J30068D01*
G02X2113169Y744253I10378J30063D01*
G02X2113119Y744271I1350J3829D01*
G02X2112127Y744656I11009J29837D01*
G02X2112123Y744660I5J9D01*
G02X2111995Y744712I4832J12077D01*
G02X2111824Y744784I12257J29348D01*
G02X2111821Y744785I1J9D01*
G02X2111780Y744802I3072J7468D01*
G02X2110823Y745225I12378J29297D01*
G02X2110723Y745272I688J1593D01*
G02X2109987Y745626I13331J28660D01*
G02X2109815Y745708I10415J22067D01*
G02X2109778Y745729I837J1519D01*
G01X2109592Y745830D01*
X2109578D01*
G02X2108437Y746448I14559J28242D01*
G02X2107539Y746979I15710J27593D01*
G02X2106581Y747588I16564J27115D01*
G02X2106523Y747627I2156J3269D01*
G02X2104780Y748876I17626J26437D01*
G02X2104610Y749007I14444J18920D01*
G02X2104607Y749009I4J9D01*
G02X2104519Y749076I19222J25338D01*
G02X2102138Y751143I19634J25022D01*
G02X2101526Y751747I40438J41586D01*
G02X2101373Y751905I22771J22204D01*
G03X2101028Y752253I-23996J-23444D01*
G02X2100995Y752286I11528J11561D01*
G01X2100981Y752302D01*
X2100956Y752328D01*
X2100952Y752332D01*
G02X2100795Y752486I14770J15215D01*
G01X2100793Y752488D01*
X2100706Y752573D01*
G03X2100578Y752696I-23311J-24130D01*
G02X2100575Y752702I7J7D01*
G02X2100491Y752775I1096J1345D01*
G03X2100185Y753066I-23271J-24164D01*
G03X2100090Y753153I-22705J-24697D01*
G02X2100019Y753218I1699J1928D01*
G02X2099966Y753267I3456J3791D01*
G01X2099901Y753330D01*
X2099885Y753341D01*
G03X2099604Y753593I-22539J-24850D01*
G02X2099475Y753707I32884J37340D01*
G03X2098876Y754221I-22146J-25202D01*
G03X2098220Y754757I-21111J-25168D01*
G03X2097939Y754979I-20939J-26215D01*
G02X2097829Y755062I12943J17268D01*
G02X2097824Y755065I829J1387D01*
G03X2097612Y755229I-20633J-26453D01*
G03X2097525Y755294I-20124J-26844D01*
G01X2097507Y755306D01*
G02X2096965Y755707I38223J52229D01*
G02X2096954Y755715I2505J3456D01*
G03X2096444Y756078I-19709J-27151D01*
G01X2096428Y756087D01*
G03X2095984Y756388I-19047J-27618D01*
G02X2095867Y756466I15639J23585D01*
G03X2095460Y756733I-18605J-27917D01*
G01X2095456Y756735D01*
G03X2095216Y756889I-18240J-28161D01*
G02X2095146Y756932I3428J5660D01*
G03X2094513Y757318I-17783J-28451D01*
G01X2094493Y757330D01*
X2094461Y757350D01*
X2094454Y757353D01*
G02X2094358Y757409I3120J5459D01*
G01X2094344Y757418D01*
X2094331Y757426D01*
X2094050Y757590D01*
G03X2092674Y758341I-16757J-29067D01*
G03X2090525Y759349I-15315J-29855D01*
G03X2090332Y759430I-26881J-63779D01*
G03X2088946Y759975I-12969J-30946D01*
G01X2088767Y760041D01*
X2088762Y760042D01*
G02X2088753Y760045I808J2439D01*
G03X2088616Y760096I-11774J-31418D01*
G02X2088553Y760119I849J2424D01*
G03X2088451Y760155I-22042J-62290D01*
G03X2088234Y760230I-11069J-31675D01*
G01X2088114Y760271D01*
G03X2087904Y760341I-10715J-31796D01*
G03X2087715Y760403I-11369J-34337D01*
G02X2087706Y760407I651J1476D01*
G03X2086324Y760824I-10381J-31906D01*
G03X2085361Y761076I-8975J-32331D01*
G01X2085356Y761077D01*
X2085047Y761150D01*
G03X2084711Y761228I-7755J-32645D01*
G03X2084421Y761292I-7375J-32730D01*
G03X2083922Y761395I-11755J-55690D01*
G03X2083320Y761510I-6596J-32897D01*
G03X2083278Y761518I-6299J-32954D01*
G01X2083274Y761519D01*
G03X2082494Y761650I-5947J-33021D01*
G01X2082488Y761651D01*
X2082384Y761666D01*
G03X2082370Y761668I-124J-815D01*
G03X2081840Y761744I-5027J-33173D01*
G03X2081835Y761745I-164J-806D01*
G01X2081813Y761748D01*
X2081808Y761749D01*
X2081771Y761754D01*
G03X2079285Y761992I-4438J-33257D01*
G03X2079271Y761993I-66J-822D01*
G02X2079161Y761999I549J11080D01*
G03X2078904Y762012I-1823J-33502D01*
G01X2078865Y762013D01*
X2078843Y762015D01*
G03X2078268Y762036I-1512J-33518D01*
G03X2077764Y762049I-2831J-99984D01*
G03X2077365Y762052I-494J-39123D01*
G01X2053793D01*
G02X2050112Y762048I-3682J1695075D01*
G01X2010143D01*
G03X2003072Y760120I-1J-13925D01*
G02X2002858Y760007I-1299J2201D01*
G03X2002841Y759999I1080J-2317D01*
G02X2001891Y759795I-949J2103D01*
G01X2000624D01*
G01X2306953Y762551D02*
X2306520D01*
G02X2306201Y762614I-1J834D01*
G01X2304267Y763414D01*
G03X2302391Y763787I-1877J-4534D01*
G01X2192638D01*
G03X2191689Y763769I195J-35287D01*
G02X2191634Y763767I-207J4948D01*
G01X2191600D01*
G02X2191382Y763759I-4107J108948D01*
G03X2190958Y763743I1119J-35269D01*
G02X2190899Y763740I-289J5108D01*
G02X2190872Y763738I-202J2550D01*
G02X2190783Y763734I-159J2554D01*
G03X2190085Y763690I1871J-35236D01*
G02X2190024Y763685I-1200J14261D01*
G03X2189568Y763649I2549J-35193D01*
G02X2189480Y763641I-1392J14820D01*
G03X2186872Y763309I3149J-35144D01*
G03X2186165Y763185I5742J-34815D01*
G03X2185794Y763113I6309J-33501D01*
G01X2185787Y763112D01*
G02X2185705Y763095I-1249J5820D01*
G03X2183369Y762545I6914J-34600D01*
G03X2182048Y762158I9258J-34048D01*
G03X2181063Y761833I10562J-33666D01*
G03X2180721Y761711I18446J-52250D01*
G03X2178359Y760768I11893J-33220D01*
G01X2178256Y760722D01*
G03X2177895Y760559I14340J-32239D01*
G03X2177705Y760471I14734J-32061D01*
G03X2177351Y760304I14877J-31995D01*
G03X2177096Y760181I15202J-31842D01*
G02X2177076Y760171I-383J741D01*
G03X2176122Y759683I15591J-31655D01*
G02X2176049Y759644I-3654J6752D01*
G03X2175250Y759204I16620J-31126D01*
G01X2175231Y759194D01*
X2175230Y759193D01*
G02X2175226Y759191I-1146J2288D01*
G03X2174978Y759052I22510J-40453D01*
G03X2174782Y758936I17875J-30425D01*
G02X2174704Y758891I-1734J2916D01*
G03X2174160Y758562I18915J-31891D01*
G03X2173876Y758386I19390J-31605D01*
G03X2173140Y757909I18822J-29847D01*
G02X2173023Y757836I-1855J2843D01*
G03X2172859Y757726I19574J-29360D01*
G01X2172671Y757597D01*
G03X2171626Y756851I19976J-29087D01*
G01X2171625Y756850D01*
X2171622Y756848D01*
X2171550Y756795D01*
G03X2170743Y756174I21114J-28272D01*
G01X2170616Y756073D01*
X2170615Y756072D01*
G03X2170411Y755908I14791J-18608D01*
G01X2170196Y755733D01*
G03X2169491Y755137I22425J-27241D01*
G03X2169475Y755136I3J-174D01*
G03X2168736Y754477I21110J-24416D01*
G01X2168188Y753949D01*
G03X2167354Y753118I24485J-25408D01*
G02X2165950Y751768I-21534J20990D01*
G02X2165654Y751505I-20121J22348D01*
G02X2165648Y751497I-1961J1464D01*
G02X2165360Y751252I-14207J16409D01*
G02X2165158Y751079I-19660J22752D01*
G02X2165012Y750957I-10954J12960D01*
G02X2162946Y749387I-19210J23134D01*
G02X2161850Y748662I-17134J24711D01*
G02X2161793Y748628I-1340J2181D01*
G02X2161781Y748620I-1426J2125D01*
G02X2161036Y748166I-16019J25449D01*
G02X2160999Y748145I-2140J3727D01*
G02X2160372Y747788I-15191J25951D01*
G02X2159007Y747078I-14555J26315D01*
G02X2158842Y746998I-6185J12546D01*
G02X2158318Y746753I-12998J27117D01*
G02X2157895Y746557I-7865J16420D01*
G02X2156811Y746114I-7426J16623D01*
G02X2155328Y745574I-11027J27976D01*
G02X2152373Y744754I-9508J28529D01*
G02X2152098Y744694I-4291J19008D01*
G02X2151660Y744605I-5279J24858D01*
G02X2151023Y744487I-5795J29507D01*
G02X2147014Y744015I-6311J36343D01*
G01Y744014D01*
G02X2145961Y743964I-2276J36817D01*
G01X2144740Y743923D01*
G02X2144313Y743935I-121J3296D01*
G03X2144157Y743944I-172J-1620D01*
G01X2126124D01*
G02X2125103Y743958I-104J29677D01*
G02X2123645Y744038I965J30907D01*
G02X2123266Y744047I524J30062D01*
G02X2123223Y744048I111J5682D01*
G01X2123222D01*
G02X2121660Y744137I929J30052D01*
G02X2121544Y744147I1096J13396D01*
G02X2116888Y744925I2612J29953D01*
G02X2116747Y744960I4208J17255D01*
G02X2116117Y745128I7432J29134D01*
G02X2115551Y745289I7240J26527D01*
G02X2115514Y745300I219J805D01*
G02X2114319Y745685I8622J28808D01*
G02X2112775Y746267I9830J28417D01*
G02X2112671Y746311I4340J10404D01*
G02X2111518Y746816I11484J27789D01*
G02X2111510Y746819I288J781D01*
G02X2111487Y746831I2355J4541D01*
G02X2111476Y746836I1053J2332D01*
G02X2110751Y747183I12534J27118D01*
G02X2110586Y747264I9906J20388D01*
G02X2110568Y747274I396J734D01*
G02X2110538Y747289I1129J2296D01*
G02X2105834Y750254I13596J26784D01*
G02X2105669Y750381I13379J17553D01*
G02X2102617Y753115I18491J23712D01*
G03X2102255Y753482I-25300J-24593D01*
G02X2102210Y753527I10295J10340D01*
G03X2102188Y753549I-24960J-24938D01*
G02X2101989Y753747I13634J13901D01*
G03X2101721Y754003I-24507J-25388D01*
G02X2101704Y754018I544J633D01*
G01X2101703Y754019D01*
G03X2101362Y754342I-24434J-25454D01*
G03X2101243Y754450I-23772J-26073D01*
G02X2101207Y754483I546J631D01*
G02X2101161Y754526I2295J2502D01*
G01X2101151Y754536D01*
X2101121Y754564D01*
G02X2101105Y754579I1742J1875D01*
G03X2099651Y755833I-23764J-26084D01*
G03X2098996Y756355I-22317J-27331D01*
G02X2098901Y756427I11939J15852D01*
G03X2098548Y756696I-21562J-27929D01*
G02X2098529Y756710I39659J53843D01*
G02X2098027Y757080I37119J50887D01*
G02X2098011Y757092I1528J2054D01*
G03X2097928Y757152I-20713J-28565D01*
G01X2097861Y757174D01*
X2097456Y757487D01*
G03X2096394Y758195I-20100J-29000D01*
G03X2095396Y758813I-19073J-29687D01*
G01X2095232Y758910D01*
G03X2095031Y759027I-17852J-30437D01*
G01X2094919Y759092D01*
G03X2093467Y759884I-17618J-30573D01*
G03X2089544Y761604I-16105J-31398D01*
G01X2089361Y761671D01*
X2089357Y761672D01*
G02X2089349Y761675I289J783D01*
G03X2089186Y761734I-12092J-33151D01*
G02X2089155Y761745I264J792D01*
G03X2089038Y761788I-23450J-63625D01*
G03X2088444Y761991I-11708J-33289D01*
G03X2088258Y762051I-11730J-36044D01*
G03X2086789Y762495I-10941J-33548D01*
G03X2085090Y762922I-9448J-34000D01*
G03X2084782Y762989I-7654J-34446D01*
G03X2084266Y763096I-12167J-57375D01*
G03X2082758Y763364I-6927J-34600D01*
G01X2082648Y763381D01*
G03X2079381Y763724I-5314J-34884D01*
G02X2079268Y763731I522J9344D01*
G03X2078315Y763770I-1919J-35234D01*
G03X2077794Y763783I-2799J-101719D01*
G03X2077368Y763786I-501J-40857D01*
G01X2027273D01*
G03X2027157Y763784I15J-4235D01*
G01X2027069Y763782D01*
X2004693D01*
G03X2004040Y763604I-2J-1281D01*
G01X2003571Y763327D01*
G02X2003000Y763097I-1037J1751D01*
G03X2002792Y763015I177J-754D01*
G02X2002495Y762886I-731J1276D01*
G03X2002358Y762837I495J-1599D01*
G02X2000876Y762551I-1478J3677D01*
G01X2000624D01*
G01X2306953Y763929D02*
X2306634D01*
G02X2306412Y763951I1J1146D01*
G01X2304264Y764376D01*
G03X2303761Y764466I-2518J-12621D01*
G02X2303508Y764513I715J4554D01*
G03X2302542Y764615I-964J-4509D01*
G01X2302158D01*
G03X2301765Y764621I-393J-12864D01*
G01X2192636D01*
G03X2191652Y764603I169J-36122D01*
G02X2191614Y764601I-235J4112D01*
G01X2191585D01*
G02X2191354Y764593I-3860J108122D01*
G03X2190917Y764576I1186J-36101D01*
G02X2190852Y764573I-230J4276D01*
G02X2190822Y764571I-130J1719D01*
G02X2190751Y764568I-108J1721D01*
G03X2190019Y764522I1899J-36070D01*
G02X2189960Y764517I-1168J13426D01*
G03X2189493Y764480I2619J-36024D01*
G02X2189406Y764472I-1330J13988D01*
G03X2186736Y764132I3224J-35975D01*
G03X2186012Y764005I5878J-35638D01*
G03X2185637Y763933I6398J-34333D01*
G02X2185626Y763931I-314J1696D01*
G02X2185543Y763914I-1068J5005D01*
G03X2183150Y763350I7084J-35417D01*
G03X2181798Y762955I9451J-34861D01*
G03X2180787Y762621I10823J-34459D01*
G03X2180438Y762496I18791J-53013D01*
G03X2178022Y761531I12181J-34003D01*
G01X2177918Y761485D01*
G03X2176730Y760931I14669J-33006D01*
G03X2175725Y760418I15917J-32424D01*
G02X2175655Y760380I-3299J5994D01*
G03X2174838Y759930I17016J-31860D01*
G01X2174828Y759925D01*
X2174827Y759924D01*
G02X2174815Y759917I-875J1486D01*
G03X2174563Y759776I22886J-41199D01*
G03X2174350Y759651I18176J-31216D01*
G02X2174283Y759611I-1345J2176D01*
G03X2173432Y759092I19313J-32625D01*
G03X2172680Y758606I19228J-30577D01*
G02X2172577Y758542I-1402J2142D01*
G03X2172389Y758415I20125J-29994D01*
G01X2172199Y758285D01*
G03X2171129Y757521I20451J-29773D01*
G01X2171053Y757465D01*
G03X2170224Y756827I21613J-28941D01*
G01X2170097Y756726D01*
G03X2169885Y756556I15286J-19280D01*
G01X2169670Y756381D01*
X2169667Y756379D01*
G03X2168943Y755766I22975J-27869D01*
G03X2167620Y754560I21630J-25057D01*
G03X2166756Y753700I25046J-26026D01*
G02X2165054Y752089I-20933J20411D01*
G02X2165050Y752084I-1261J1005D01*
G02X2164820Y751888I-13651J15786D01*
G02X2164619Y751717I-19044J22181D01*
G02X2164479Y751600I-10416J12321D01*
G02X2161410Y749371I-18678J22490D01*
G02X2161355Y749339I-895J1475D01*
G02X2161331Y749323I-969J1427D01*
G02X2160609Y748884I-15549J24759D01*
G02X2160577Y748865I-1784J2968D01*
G02X2159968Y748518I-14777J25227D01*
G02X2158640Y747827I-14155J25583D01*
G02X2158483Y747751I-5809J11801D01*
G02X2157965Y747509I-12634J26367D01*
G02X2156513Y746893I-7504J15668D01*
G02X2155064Y746366I-10714J27203D01*
G02X2152190Y745568I-9249J27736D01*
G02X2151925Y745510I-4120J18192D01*
G02X2151500Y745424I-5087J24046D01*
G02X2150880Y745309I-5642J28687D01*
G02X2146962Y744848I-6166J35522D01*
G02X2145933Y744798I-2264J35982D01*
G01X2144711Y744757D01*
G02X2144393Y744766I-89J2462D01*
G03X2144159Y744778I-243J-2451D01*
G01X2126122D01*
G02X2125129Y744792I-90J28842D01*
G02X2123685Y744872I942J30072D01*
G02X2123287Y744881I462J29228D01*
G02X2123248Y744882I105J4847D01*
G02X2121727Y744969I908J29218D01*
G02X2121616Y744978I963J12569D01*
G02X2117089Y745735I2543J29121D01*
G02X2116954Y745769I4066J16431D01*
G02X2116338Y745933I7212J28328D01*
G02X2115787Y746089I6987J25731D01*
G02X2115783Y746091I719J1444D01*
G02X2114592Y746474I8352J28017D01*
G02X2113091Y747040I9560J27627D01*
G02X2112992Y747081I3944J9664D01*
G02X2111869Y747573I11167J27017D01*
G02X2111844Y747585I1841J3868D01*
G02X2111829Y747592I722J1566D01*
G02X2111120Y747931I12171J26366D01*
G02X2110961Y748010I9635J19591D01*
G01X2110958Y748012D01*
G02X2110918Y748032I751J1552D01*
G02X2106342Y750916I13216J26042D01*
G02X2106183Y751039I12914J16858D01*
G02X2103215Y753698I17978J23054D01*
G03X2102844Y754073I-25861J-25214D01*
G02X2102801Y754116I9706J9749D01*
G03X2102775Y754142I-25552J-25526D01*
G02X2102575Y754341I13045J13310D01*
G03X2102293Y754610I-25072J-26002D01*
G02X2102287Y754616I1138J1144D01*
G03X2101929Y754954I-24973J-26093D01*
G03X2101782Y755089I-24504J-26534D01*
G02X2101775Y755094I999J1406D01*
G02X2101736Y755131I1743J1876D01*
G01X2101731Y755136D01*
X2101723Y755143D01*
X2101690Y755174D01*
G02X2101673Y755190I1174J1264D01*
G03X2100179Y756480I-24344J-26684D01*
G03X2099506Y757015I-22811J-28005D01*
G02X2099413Y757087I11591J15068D01*
G03X2099050Y757364I-22093J-28575D01*
G03X2098769Y757573I-21696J-28877D01*
G01X2098529Y757747D01*
G02X2098507Y757763I1004J1403D01*
G03X2098312Y757906I-21457J-29055D01*
G01X2098256Y757924D01*
X2097949Y758161D01*
G03X2096845Y758898I-20603J-29667D01*
G03X2095822Y759530I-19493J-30409D01*
G01X2095657Y759628D01*
G03X2095450Y759749I-18332J-31123D01*
G03X2095336Y759815I-57786J-99680D01*
G03X2093848Y760626I-18025J-31301D01*
G03X2089829Y762388I-16486J-32140D01*
G01X2089646Y762455D01*
G03X2089550Y762490I-12421J-33919D01*
G03X2089466Y762520I-12191J-34003D01*
G02X2089461Y762523I828J1385D01*
G01X2089456Y762524D01*
G03X2089318Y762574I-23453J-64514D01*
G03X2088706Y762783I-11979J-34078D01*
G03X2088516Y762845I-12112J-36797D01*
G03X2087012Y763299I-11188J-34345D01*
G03X2085272Y763736I-9666J-34805D01*
G03X2084956Y763805I-7863J-35254D01*
G03X2084431Y763914I-12355J-58188D01*
G03X2082885Y764189I-7097J-35417D01*
G01X2082773Y764206D01*
G03X2079429Y764557I-5439J-35709D01*
G02X2079320Y764564I492J8510D01*
G03X2078338Y764604I-1961J-36067D01*
G03X2077808Y764617I-2781J-102554D01*
G03X2077369Y764620I-504J-41691D01*
G01X2027128D01*
X2027126Y764618D01*
X2027055Y764616D01*
X2004468D01*
G03X2003712Y764405I-2J-1454D01*
G01X2003032Y763991D01*
G02X2002822Y763913I-304J496D01*
G02X2001666Y763899I-626J3919D01*
G03X2001219Y763929I-449J-3352D01*
G01X2000624D01*
G01Y766685D02*
X2001991D01*
G02X2003032Y766504I0J-3085D01*
G03X2003711Y766386I679J1894D01*
G01X2072632D01*
G02X2077920Y766350I-2J-388712D01*
G01X2077927D01*
G02X2078069Y766346I-995J-37843D01*
G02X2085652Y765429I-730J-37848D01*
G02X2087476Y764971I-8304J-36934D01*
G02X2089898Y764209I-10144J-36472D01*
G02X2090051Y764154I-23732J-66258D01*
G02X2094640Y762169I-12702J-35661D01*
G02X2096539Y761123I-17307J-33668D01*
G01X2096708Y761022D01*
G02X2097783Y760359I-19331J-32547D01*
G02X2098975Y759561I-20459J-31850D01*
G01X2099082Y759477D01*
X2099106Y759470D01*
X2099144Y759444D01*
G02X2099533Y759163I-21971J-30825D01*
G01X2099535Y759161D01*
X2099808Y758963D01*
G02X2102857Y756458I-22473J-30461D01*
G01X2102861Y756454D01*
X2102929Y756392D01*
G03X2102936Y756386I1663J1933D01*
G02X2103107Y756228I-25603J-27881D01*
G02X2103489Y755870I-25693J-27799D01*
G02X2103795Y755575I-26120J-27400D01*
G03X2103992Y755379I12019J11883D01*
G02X2104458Y754910I-26618J-26914D01*
G03X2107270Y752393I19703J19183D01*
G03X2111734Y749563I16871J21677D01*
G01X2111738Y749562D01*
G03X2112569Y749162I12256J24400D01*
G03X2112592Y749151I1111J2293D01*
G03X2115160Y748114I11568J24948D01*
G03X2116278Y747754I8986J25991D01*
G03X2116799Y747605I7115J23892D01*
G03X2123768Y746607I7351J26498D01*
G03X2123922Y746605I434J27494D01*
G01X2124187Y746601D01*
X2124226Y746605D01*
X2146112D01*
G03X2146132Y746602I1755J11633D01*
G03X2146799Y746620I16J11777D01*
G03X2147212Y746638I-991J27483D01*
G03X2147285Y746642I-350J7064D01*
G03X2148164Y746704I-1495J27459D01*
G01X2148170D01*
G03X2148264Y746712I-498J6410D01*
G03X2149441Y746842I-2430J27392D01*
G03X2149559Y746859I-717J5398D01*
G03X2150564Y747015I-3715J27247D01*
G03X2150579Y747018I-492J2501D01*
G01X2150582D01*
G03X2151166Y747127I-4754J27088D01*
G03X2151624Y747221I-4363J22422D01*
G03X2154516Y748013I-5807J26881D01*
G03X2155894Y748514I-8705J26087D01*
G03X2159127Y750037I-10079J25588D01*
G03X2160418Y750799I-13328J24055D01*
G01X2160423Y750801D01*
G03X2160483Y750839I-5478J8715D01*
G03X2163698Y753210I-14672J23260D01*
G03X2163910Y753393I-12397J14576D01*
G03X2165513Y754911I-18093J20712D01*
G02X2166437Y755829I27138J-26392D01*
G03X2166453Y755844I-1734J1866D01*
G03X2166513Y755899I-1693J1907D01*
G01X2166657Y756035D01*
X2166675Y756053D01*
X2166827Y756197D01*
X2166835Y756205D01*
Y756206D01*
G02X2166921Y756284I25473J-28000D01*
G02X2167386Y756708I25737J-27758D01*
G03X2167520Y756827I-26537J30017D01*
G02X2168569Y757724I25122J-28317D01*
G02X2168822Y757930I24027J-29251D01*
G02X2171652Y760010I23810J-29430D01*
G03X2171668Y760017I-1014J2339D01*
G02X2173299Y761046I21008J-31491D01*
G01X2173415Y761114D01*
X2173431Y761121D01*
X2173458Y761137D01*
G02X2173697Y761280I19556J-32414D01*
G02X2173970Y761433I24026J-42550D01*
G03X2173981Y761440I-1301J2057D01*
G02X2174841Y761912I18641J-32946D01*
G03X2174903Y761946I-2425J4495D01*
G02X2175968Y762489I17725J-33449D01*
G02X2179852Y764130I16652J-33995D01*
G02X2180216Y764258I19416J-54632D01*
G02X2182695Y765024I12408J-35762D01*
G02X2185208Y765616I9931J-36527D01*
G03X2185286Y765633I-681J3314D01*
G02X2186454Y765844I7313J-37141D01*
G02X2189259Y766200I6165J-37349D01*
G03X2189344Y766208I-1112J12267D01*
G02X2190687Y766302I3314J-37709D01*
G03X2190748Y766305I-95J2547D01*
G01X2190753D01*
G03X2190831Y766308I-59J2548D01*
G02X2191295Y766327I1781J-37813D01*
G03X2191527Y766335I-3553J106398D01*
G02X2192633Y766355I1237J-37836D01*
G01X2301931D01*
G03X2302611Y766475I-4J2007D01*
G01X2303033Y766626D01*
G03X2303213Y766695I-2098J5742D01*
G03X2303287Y766725I-2260J5680D01*
G01X2303288D01*
G02X2304389Y766944I1103J-2667D01*
G01X2305120D01*
G03X2305162I21J1647D01*
G01X2305352D01*
G02X2305785Y766828I-1J-869D01*
G03X2306323Y766685I538J939D01*
G01X2306953D01*
G01X2000624Y768063D02*
X2001256D01*
G02X2002630Y767575I1J-2175D01*
G03X2003029Y767369I687J842D01*
G02X2003310Y767280I-1039J-3769D01*
G03X2003711Y767210I402J1117D01*
G01X2072631D01*
G02X2077931Y767174I4J-389536D01*
G01X2077938D01*
G02X2078089Y767170I-949J-38668D01*
G02X2085833Y766233I-750J-38672D01*
G02X2087697Y765765I-8484J-37738D01*
G02X2090175Y764986I-10355J-37269D01*
G02X2090330Y764930I-24117J-66996D01*
G02X2095017Y762902I-12983J-36436D01*
G02X2096959Y761832I-17687J-34399D01*
G01X2097129Y761731D01*
G02X2098228Y761053I-19756J-33254D01*
G02X2099462Y760226I-20912J-32538D01*
G01X2099475Y760216D01*
X2099478Y760215D01*
G02X2099617Y760119I-48652J-70593D01*
G02X2100071Y759792I-22378J-31547D01*
G01X2100072Y759791D01*
X2100279Y759641D01*
X2100282Y759639D01*
G02X2103427Y757055I-22948J-31136D01*
G01X2103431Y757051D01*
X2103498Y756990D01*
G03X2103504Y756984I1223J1217D01*
G02X2103668Y756833I-26116J-28529D01*
G02X2104057Y756467I-26309J-28352D01*
G02X2104375Y756161I-26660J-28024D01*
G03X2104570Y755968I11407J11330D01*
G02X2105049Y755486I-27194J-27504D01*
G03X2107777Y753044I19113J18607D01*
G03X2112105Y750300I16365J21026D01*
G01X2112107Y750299D01*
G03X2112913Y749911I11887J23663D01*
G03X2112933Y749902I718J1568D01*
G03X2115430Y748893I11230J24196D01*
G03X2116513Y748544I8722J25210D01*
G03X2117018Y748400I6862J23107D01*
G03X2123780Y747431I7134J25702D01*
G03X2123932Y747429I427J26670D01*
G01X2124155Y747426D01*
X2124188Y747429D01*
X2146155D01*
G03X2146174Y747427I1156J10892D01*
G03X2146762Y747444I-22J10952D01*
G03X2147169Y747461I-910J26661D01*
G03X2147236Y747465I-339J6239D01*
G03X2148128Y747528I-1433J26637D01*
G01X2148134D01*
G03X2148187Y747533I-500J5583D01*
G03X2149331Y747659I-2348J26572D01*
G03X2149438Y747675I-630J4578D01*
G03X2150415Y747826I-3585J26433D01*
G03X2150430Y747829I-331J1693D01*
G03X2150442Y747831I-552J3349D01*
G03X2151008Y747936I-4583J26281D01*
G03X2151450Y748027I-4219J21610D01*
G03X2154255Y748795I-5632J26076D01*
G03X2155592Y749281I-8442J25306D01*
G03X2158728Y750758I-9775J24822D01*
G03X2159972Y751492I-12929J23334D01*
G03X2159978Y751496I-953J1436D01*
G03X2160044Y751537I-4964J8064D01*
G03X2163163Y753838I-14235J22560D01*
G03X2163368Y754014I-11825J13980D01*
G03X2164922Y755486I-17554J20088D01*
G02X2165886Y756444I27743J-26953D01*
G03X2165911Y756465I-1097J1332D01*
G03X2165946Y756497I-1147J1290D01*
G01X2166080Y756625D01*
X2166099Y756644D01*
X2166259Y756796D01*
X2166264Y756801D01*
G02X2166362Y756891I26211J-28442D01*
G02X2166838Y757324I26264J-28394D01*
G03X2166972Y757443I-25990J29401D01*
G02X2168045Y758360I25661J-28940D01*
G02X2168304Y758571I24559J-29881D01*
G02X2171215Y760709I24327J-30072D01*
G03X2171254Y760734I-3646J5731D01*
G03X2171263Y760738I-696J1578D01*
G02X2172879Y761755I21404J-32218D01*
G01X2172882Y761757D01*
X2173027Y761842D01*
X2173030Y761843D01*
X2173034Y761845D01*
G02X2173285Y761994I19870J-33187D01*
G02X2173566Y762152I24494J-43233D01*
G03X2173573Y762156I-797J1402D01*
G02X2174455Y762641I19076J-33647D01*
G03X2174513Y762672I-1990J3793D01*
G02X2175605Y763229I18119J-34173D01*
G02X2179574Y764906I17015J-34735D01*
G02X2179944Y765037I19811J-55366D01*
G02X2182479Y765820I12675J-36542D01*
G02X2185045Y766424I10140J-37324D01*
G03X2185114Y766439I-509J2508D01*
G02X2186320Y766658I7513J-37942D01*
G02X2189189Y767022I6299J-38162D01*
G03X2189271Y767029I-937J11455D01*
G02X2190659Y767126I3390J-38530D01*
G01X2190663D01*
G03X2190687Y767127I-60J1724D01*
G01X2190693Y767128D01*
X2190735Y767129D01*
G03X2190790Y767131I-35J1724D01*
G01X2191153Y767150D01*
G02X2191499Y767159I345J-6626D01*
G02X2192631Y767179I1249J-38660D01*
G01X2301930D01*
G03X2302331Y767250I-3J1183D01*
G01X2302753Y767402D01*
G03X2302909Y767461I-1793J4975D01*
G03X2302956Y767480I-1959J4913D01*
G02X2302970Y767486I332J-755D01*
G02X2304388Y767768I1419J-3428D01*
G01X2305119D01*
G03X2305341Y767799I-2J822D01*
G03X2305600Y767912I-270J973D01*
G02X2306131Y768063I531J-859D01*
G01X2306953D01*
G01X2000624Y770819D02*
X2002997D01*
G02X2003695Y770530I0J-987D01*
G01X2004732Y769493D01*
G03X2006159Y768902I1427J1427D01*
G01X2077343D01*
G02X2077949Y768898I0J-45837D01*
G01X2077952D01*
G02X2078123Y768895I-623J-40400D01*
G02X2086212Y767916I-785J-40397D01*
G02X2088159Y767427I-8866J-39420D01*
G02X2090751Y766612I-10817J-38930D01*
G02X2090911Y766555I-24394J-68729D01*
G02X2095805Y764436I-13572J-38057D01*
G02X2097836Y763318I-18461J-35940D01*
G01X2098010Y763215D01*
G02X2099160Y762504I-20669J-34717D01*
G02X2100449Y761641I-21829J-33999D01*
G02X2100607Y761531I-49892J-71832D01*
G02X2101094Y761182I-23291J-33015D01*
G01X2101301Y761032D01*
G02X2104593Y758327I-23969J-32526D01*
G01X2104672Y758255D01*
X2104673Y758254D01*
G02X2104842Y758098I-27320J-29766D01*
G02X2105248Y757716I-27483J-29616D01*
G02X2105588Y757388I-27881J-29242D01*
G03X2105777Y757202I10161J10136D01*
G02X2106285Y756690I-28426J-28712D01*
G03X2108837Y754406I17876J17406D01*
G03X2112885Y751840I15304J19666D01*
G03X2113638Y751476I11149J22104D01*
G03X2113647Y751472I6948J15621D01*
G03X2115995Y750523I10512J22629D01*
G03X2117007Y750197I8155J23581D01*
G03X2117478Y750062I6402J21445D01*
G03X2123945Y749153I6676J24040D01*
G01X2146160D01*
G03X2146686Y749167I18J9228D01*
G03X2147084Y749184I-866J24937D01*
G03X2147139Y749187I-219J4518D01*
G03X2147984Y749246I-1315J24917D01*
G03X2148026Y749250I-347J3865D01*
G03X2149105Y749369I-2195J24855D01*
G03X2149187Y749381I-378J2872D01*
G03X2150117Y749525I-3352J24725D01*
G03X2150133Y749528I-300J1642D01*
G03X2150677Y749629I-4282J24581D01*
G03X2151086Y749713I-3878J19919D01*
G03X2153709Y750432I-5275J24388D01*
G03X2159056Y752953I-7892J23671D01*
G03X2159117Y752992I-4141J6544D01*
G03X2162043Y755149I-13303J21109D01*
G03X2162231Y755312I-10770J12612D01*
G03X2163686Y756690I-16416J18791D01*
G02X2164754Y757748I28965J-28170D01*
G01X2164757D01*
X2165083Y758058D01*
G02X2165192Y758159I27516J-29586D01*
G02X2165693Y758614I27413J-29681D01*
G03X2165826Y758732I-24832J28122D01*
G02X2167220Y759913I26807J-30229D01*
G02X2170272Y762152I25399J-31423D01*
G03X2170312Y762178I-2743J4263D01*
G02X2172002Y763240I22336J-33669D01*
G01X2172155Y763330D01*
G02X2172426Y763489I20582J-34770D01*
G02X2172720Y763655I25425J-44686D01*
G02X2173646Y764164I19923J-35149D01*
G03X2173692Y764189I-1199J2261D01*
G02X2178993Y766530I18930J-35694D01*
G02X2179377Y766666I20399J-56987D01*
G02X2184711Y768117I13248J-38169D01*
G03X2184752Y768126I-159J820D01*
G02X2187089Y768519I7866J-39630D01*
G02X2189038Y768740I5525J-40023D01*
G03X2189115Y768747I-846J9733D01*
G02X2190584Y768849I3533J-40249D01*
G01X2190585D01*
X2190675Y768854D01*
X2190709D01*
G02X2191205Y768875I1957J-40356D01*
G03X2191442Y768883I-3387J103853D01*
G02X2192629Y768903I1274J-40384D01*
G01X2299556Y768913D01*
X2301896D01*
G03X2303328Y769507I-1J2025D01*
G01X2304202Y770381D01*
G02X2304837Y770660I675J-675D01*
G01X2304975D01*
G03X2305192Y770668I-1J2980D01*
G03X2305276Y770678I-55J823D01*
G01X2305544Y770690D01*
G02X2305554I5J-237D01*
G01X2306731D01*
G03X2306890Y770756I0J224D01*
G01X2306953Y770819D01*
G01X2000624Y772197D02*
X2001982D01*
G02X2004052Y771339I0J-2926D01*
G01X2004993Y770398D01*
G03X2006617Y769726I1623J1624D01*
G01X2077343D01*
Y769736D01*
X2077375D01*
G02X2077965Y769732I-22J-46810D01*
G02X2088382Y768231I-625J-41234D01*
G02X2091029Y767399I-11035J-39735D01*
G02X2091192Y767341I-24647J-69525D01*
G02X2096187Y765179I-13848J-38844D01*
G02X2098260Y764037I-18854J-36677D01*
G01X2098436Y763933D01*
G02X2099611Y763207I-21086J-35441D01*
G02X2100927Y762326I-22278J-34702D01*
G02X2101087Y762214I-50553J-72389D01*
G02X2101586Y761857I-23744J-33716D01*
G01X2101795Y761704D01*
G02X2105158Y758942I-24455J-33204D01*
G01X2105237Y758869D01*
G02X2105824Y758320I-27873J-30391D01*
G02X2106175Y757981I-28472J-29831D01*
G03X2106360Y757799I9572J9545D01*
G02X2106883Y757273I-28980J-29338D01*
G03X2109351Y755065I17275J16826D01*
G03X2109506Y754946I8153J10458D01*
G03X2113838Y752305I14649J19156D01*
G03X2113999Y752229I7022J14668D01*
G03X2116268Y751312I10159J21872D01*
G03X2117247Y750997I7874J22794D01*
G03X2117701Y750866I6200J20635D01*
G03X2123949Y749987I6455J23236D01*
G03X2124128I89J1092689D01*
G03X2124155I14J24115D01*
G01X2146160D01*
G03X2146648Y750001I3J8393D01*
G03X2147048Y750018I-824J24103D01*
G03X2147097Y750020I-126J3687D01*
G03X2147916Y750078I-1294J24083D01*
G03X2147953Y750081I-228J3038D01*
G03X2148996Y750196I-2121J24024D01*
G03X2149064Y750206I-266J2045D01*
G03X2149978Y750348I-3245J23898D01*
G03X2149990Y750350I-131J825D01*
G03X2150516Y750448I-4154J23757D01*
G03X2150909Y750529I-3731J19097D01*
G03X2153445Y751224I-5097J23573D01*
G03X2157489Y752999I-7630J22878D01*
G03X2161501Y755783I-11673J21104D01*
G03X2161681Y755939I-10225J11980D01*
G03X2163088Y757272I-15870J18160D01*
G02X2164422Y758582I29554J-28761D01*
G01X2164423D01*
X2164466Y758623D01*
Y758624D01*
G02X2165138Y759237I28126J-30158D01*
G03X2165270Y759355I-24381J27407D01*
G02X2166696Y760562I27348J-30865D01*
G02X2169815Y762851I25932J-32065D01*
G03X2169852Y762875I-2286J3565D01*
G02X2171577Y763958I22783J-34374D01*
G01X2171731Y764049D01*
G02X2172010Y764212I20942J-35526D01*
G02X2172309Y764382I25973J-45334D01*
G02X2173253Y764900I20308J-35890D01*
G03X2173291Y764921I-815J1520D01*
G02X2174480Y765527I19318J-36433D01*
G02X2178712Y767316I18148J-37029D01*
G02X2179102Y767454I20664J-57779D01*
G02X2181808Y768290I13518J-38958D01*
G02X2184552Y768937I10830J-39789D01*
G01X2184553Y768938D01*
G02X2186975Y769346I8058J-40443D01*
G02X2188969Y769572I5640J-40850D01*
G03X2189043Y769578I-685J8909D01*
G02X2190541Y769682I3605J-41080D01*
G01X2190652Y769688D01*
X2190669D01*
G02X2191177Y769709I1957J-41191D01*
G03X2191415Y769717I-3344J103020D01*
G02X2192628Y769737I1286J-41218D01*
G01X2301816D01*
G03X2302799Y770144I0J1391D01*
G01X2303619Y770964D01*
G02X2304428Y771428I1259J-1258D01*
G03X2304850Y771598I-448J1722D01*
G01X2305134Y771757D01*
G03X2305321Y771882I-741J1311D01*
G02X2306241Y772197I919J-1182D01*
G01X2306953D01*
G01Y774953D02*
X2306941Y774948D01*
X2305016D01*
G03X2304123Y774402I0J-1003D01*
G01X2303315Y772823D01*
G02X2303312Y772818I-16J6D01*
G02X2301695Y771472I-1617J298D01*
G01X2192621D01*
G03X2190913Y771436I51J-42974D01*
G03X2190585Y771421I8361J-186431D01*
G01X2190457Y771415D01*
G03X2171454Y765891I2171J-42917D01*
G03X2171144Y765715I26497J-47031D01*
G03X2165605Y761912I21479J-37220D01*
G03X2163282Y759890I27034J-33404D01*
G01X2163240Y759851D01*
X2163221Y759834D01*
X2163200Y759813D01*
G03X2163065Y759686I29377J-31363D01*
G03X2161846Y758483I29569J-31182D01*
G02X2145817Y751721I-16030J15620D01*
G01X2124157D01*
G02X2108127Y758483I1J22383D01*
G03X2107024Y759577I-30809J-29959D01*
G03X2102823Y763103I-29671J-31086D01*
G01X2102610Y763259D01*
G03X2077347Y771471I-25266J-34762D01*
G01X2006991D01*
G02X2004922Y772327I0J2930D01*
G01X2004414Y772834D01*
G02X2003844Y773648I2024J2024D01*
G02X2003738Y773908I2726J1263D01*
G03X2003158Y774574I-1141J-408D01*
G02X2003053Y774635I555J1077D01*
G03X2001990Y774953I-1062J-1614D01*
G01X2000624D01*
G01Y776330D02*
X2000949D01*
G02X2002046Y776104I1J-2772D01*
G01X2002533Y775982D01*
G02X2004515Y774185I-690J-2753D01*
G03X2004591Y773996I2058J718D01*
G03X2004997Y773417I1846J863D01*
G01X2004998D01*
X2005505Y772910D01*
G03X2005917Y772605I1225J1224D01*
G03X2006156Y772492I1247J2327D01*
G03X2007160Y772295I1002J2450D01*
G01X2077347D01*
G02X2103094Y763926I-3J-43798D01*
G01X2103310Y763769D01*
G02X2107593Y760173I-25964J-35272D01*
G02X2108718Y759059I-30250J-31674D01*
G03X2124158Y752545I15441J15044D01*
G01X2145816D01*
G03X2161255Y759059I-2J21557D01*
G02X2162472Y760260I31366J-30567D01*
G02X2162635Y760414I30159J-31758D01*
G01X2162653Y760432D01*
G02X2162678Y760455I571J-595D01*
G02X2162719Y760493I36699J-39555D01*
G02X2165087Y762553I29911J-31992D01*
G02X2170732Y766429I27537J-34057D01*
G02X2171047Y766609I27349J-47495D01*
G02X2190417Y772239I21580J-38111D01*
G01X2190547Y772245D01*
G02X2190878Y772260I8651J-187243D01*
G02X2192621Y772296I1776J-43762D01*
G01X2301673D01*
G03X2302503Y772979I1J845D01*
G02X2302827Y773679I1589J-311D01*
G01X2303389Y774778D01*
G02X2303933Y775425I1679J-859D01*
G03X2304075Y775578I-363J480D01*
G02X2304181Y775701I505J-328D01*
G02X2305578Y776228I1396J-1585D01*
G01X2306707D01*
G03X2306953Y776330I0J348D01*
G01X2000624Y754283D02*
X2001074D01*
G03X2004803Y756472I1J4269D01*
G02X2008531Y758662I3728J-2079D01*
G01X2077533D01*
G02X2079616Y758562I0J-21739D01*
G01X2081029Y758426D01*
G02X2081926Y758309I-1253J-13102D01*
G01X2082860Y758154D01*
G02X2083256Y758078I-5488J-29666D01*
G02X2083712Y757983I-10690J-52456D01*
G02X2083963Y757927I-6444J-29472D01*
G02X2084265Y757858I-6569J-29447D01*
G01X2084268Y757857D01*
X2084567Y757787D01*
G02X2085398Y757569I-7239J-29289D01*
G03X2085416Y757564I232J802D01*
G02X2086600Y757208I-8093J-29063D01*
G03X2086613Y757202I1079J2320D01*
G02X2086839Y757130I-9840J-31276D01*
G02X2087013Y757070I-9748J-28551D01*
G01X2087167Y757016D01*
X2087177Y757013D01*
G03X2087232Y756996I783J2436D01*
G02X2087333Y756961I-9828J-28524D01*
G01X2087369Y756948D01*
X2087376Y756946D01*
G03X2087459Y756914I2183J5538D01*
G02X2087621Y756855I-10243J-28377D01*
G03X2087651Y756846I750J2446D01*
G01X2087781Y756798D01*
G02X2088369Y756574I-10446J-28304D01*
G02X2089022Y756309I-11018J-28086D01*
G02X2089201Y756234I-25350J-60753D01*
G02X2090839Y755477I-11833J-27754D01*
G02X2091150Y755320I-20443J-40882D01*
G02X2092350Y754664I-13867J-26793D01*
G01X2092600Y754517D01*
G03X2092627Y754502I1256J2229D01*
G03X2092730Y754441I4979J8291D01*
G03X2092775Y754413I463J695D01*
G01X2092785Y754408D01*
G02X2093336Y754072I-15430J-25923D01*
G02X2093343Y754067I-1518J-2133D01*
G03X2093364Y754054I450J703D01*
G03X2093370Y754050I5548J8315D01*
G02X2093577Y753902I-1420J-2205D01*
G01X2093786Y753736D01*
G03X2093884Y753684I191J242D01*
G01X2093987Y753651D01*
G03X2094110Y753570I17486J26419D01*
G02X2094500Y753306I-16714J-25112D01*
G01X2094595Y753241D01*
X2094597Y753240D01*
G02X2094979Y752965I-17433J-24619D01*
G03X2095005Y752947I1470J2095D01*
G03X2095499Y752581I40790J54540D01*
G01X2095585Y752517D01*
X2095591Y752513D01*
X2095601Y752505D01*
G03X2095677Y752448I1573J2018D01*
G02X2095754Y752389I-18308J-23974D01*
G03X2095782Y752367I1595J2001D01*
G01X2095784Y752366D01*
G03X2095877Y752294I15329J19704D01*
G02X2096115Y752107I-18519J-23814D01*
G02X2096700Y751629I-18350J-23055D01*
G02X2097234Y751168I-19443J-23062D01*
G03X2097364Y751054I35101J39897D01*
G02X2097642Y750806I-19942J-22634D01*
G03X2097656Y750793I1747J1868D01*
G03X2097711Y750742I5816J6217D01*
G03X2097826Y750638I4050J4362D01*
G02X2097880Y750588I-20467J-22159D01*
G02X2098163Y750319I-20640J-21998D01*
G03X2098180Y750304I1701J1911D01*
G03X2098238Y750250I3516J3718D01*
G02X2098346Y750144I-21076J-21581D01*
G01X2098420Y750073D01*
G03X2098540Y749955I17301J17474D01*
G03X2098585Y749909I1852J1767D01*
G03X2098644Y749852I13724J14146D01*
G02X2098945Y749544I-21422J-21236D01*
G03X2099086Y749401I25128J24635D01*
G03X2099097Y749388I1875J1575D01*
G03X2099773Y748722I43421J43397D01*
G03X2099784Y748710I1809J1647D01*
G03X2102427Y746416I24359J25395D01*
G03X2102451Y746397I1600J1997D01*
G03X2102546Y746323I21671J27723D01*
G03X2102581Y746299I1936J2786D01*
G03X2102725Y746187I16763J21403D01*
G03X2104612Y744832I21439J27866D01*
G03X2104652Y744805I487J678D01*
G03X2104674Y744790I4122J6021D01*
G01X2104680Y744787D01*
G03X2104741Y744749I3890J6177D01*
G03X2105770Y744094I19390J29326D01*
G03X2106615Y743591I18393J29937D01*
G03X2108208Y742730I17507J30487D01*
G03X2108294Y742685I2416J4512D01*
G01X2108295Y742684D01*
G03X2108331Y742665I1602J2993D01*
G03X2108351Y742657I960J2371D01*
G03X2108508Y742581I12184J24969D01*
G03X2109256Y742222I15514J31366D01*
G03X2109433Y742139I2261J4592D01*
G03X2110440Y741694I14725J31959D01*
G03X2110455Y741687I1090J2316D01*
G01X2110458Y741686D01*
G03X2110737Y741570I13649J32434D01*
G03X2110794Y741546I1345J3115D01*
G03X2110836Y741528I1029J2342D01*
G03X2111944Y741098I13283J32583D01*
G03X2112014Y741072I2626J6964D01*
G03X2112638Y740850I12106J33039D01*
G03X2112854Y740773I11924J33107D01*
G03X2112866Y740771I408J2413D01*
G03X2113409Y740593I9940J29405D01*
G03X2113979Y740416I10720J33516D01*
G03X2113993Y740410I1015J2350D01*
G03X2114150Y740365I1718J5698D01*
G03X2114754Y740195I9138J31307D01*
G03X2115494Y739996I9507J33876D01*
G03X2115541Y739984I656J2473D01*
G03X2115584Y739975I717J3317D01*
G03X2115647Y739959I5663J22166D01*
G03X2115809Y739918I8714J34088D01*
G03X2115890Y739897I892J3274D01*
G03X2115901Y739895I463J2517D01*
G03X2118150Y739430I8245J34206D01*
G03X2118260Y739411I1528J8516D01*
G03X2121087Y739049I5879J34690D01*
G03X2121161Y739042I1785J18472D01*
G01X2121165D01*
G03X2121862Y738988I3066J35051D01*
G03X2123472Y738898I4959J74269D01*
G01Y738899D01*
G03X2124403Y738863I3342J74359D01*
G03X2124940Y738842I1677J36000D01*
G03X2125886Y738826I1061J34778D01*
G03X2125950Y738824I112J2557D01*
G01X2126013Y738822D01*
X2126057Y738825D01*
X2126084D01*
G03X2126176Y738828I-1088J34775D01*
G01X2143906D01*
G02X2143973Y738825I-39J-1629D01*
G01X2143974D01*
G03X2144339Y738805I643J8392D01*
G03X2144923Y738808I254J7466D01*
G01X2146134Y738848D01*
G03X2147315Y738905I-1434J41980D01*
G03X2147423Y738913I-324J5106D01*
G03X2148416Y738988I-2667J41920D01*
G03X2148577Y739002I-795J10075D01*
G03X2150907Y739283I-3862J41827D01*
G03X2151008Y739298I-3584J24482D01*
G03X2151898Y739443I-6309J41529D01*
G03X2152642Y739581I-6045J34666D01*
G03X2153158Y739687I-5885J29956D01*
G03X2153493Y739760I-5071J24076D01*
G03X2155090Y740155I-7648J34348D01*
G03X2155140Y740169I-348J1341D01*
G03X2155488Y740266I-9274J33945D01*
G03X2155811Y740360I-7291J25653D01*
G03X2156537Y740584I-10011J33735D01*
G01X2156560Y740591D01*
X2156568Y740594D01*
X2156575Y740596D01*
G03X2156620Y740611I-11105J33389D01*
G03X2156648Y740619I-215J806D01*
G01X2156651Y740620D01*
G03X2157206Y740805I-10850J33475D01*
G03X2158639Y741334I-11467J33268D01*
G03X2159904Y741846I-8115J21867D01*
G03X2160044Y741910I-1761J4037D01*
G03X2160123Y741946I-9632J21242D01*
G03X2160484Y742115I-9708J21208D01*
G03X2161048Y742377I-14544J32046D01*
G03X2165124Y744683I-14143J29754D01*
G03X2165854Y745176I-19327J29405D01*
G01X2165889Y745199D01*
G03X2165902Y745208I-1386J2015D01*
G03X2166348Y745522I-20034J28930D01*
G03X2166438Y745588I-4940J6830D01*
G03X2168278Y747014I-20624J28512D01*
G03X2168537Y747233I-14132J16976D01*
G03X2168561Y747253I-1626J1975D01*
G03X2168686Y747364I-23301J26366D01*
G03X2168985Y747618I-17215J20568D01*
G03X2169129Y747744I-3298J3915D01*
G03X2169376Y747965I-23340J26335D01*
G03X2170352Y748878I-23547J26150D01*
G03X2171096Y749624I-24541J25219D01*
G01X2171101Y749628D01*
G02X2171689Y750211I21531J-21128D01*
G03X2171796Y750313I-7010J7461D01*
G01X2171929Y750436D01*
G03X2171999Y750505I-8016J8202D01*
G01X2172039Y750543D01*
X2172042Y750546D01*
G03X2172117Y750617I-16491J17495D01*
G02X2172524Y750986I20465J-22164D01*
G03X2172532Y750993I-1608J1846D01*
G03X2172635Y751087I-32140J35320D01*
G02X2172741Y751179I19826J-22736D01*
G03X2172852Y751278I-19391J21853D01*
G02X2173438Y751772I19735J-22816D01*
G01X2173637Y751935D01*
G02X2173795Y752059I11593J-14609D01*
G03X2173837Y752094I-3255J3949D01*
G01X2173923Y752162D01*
X2173929Y752167D01*
G02X2173998Y752223I19045J-23396D01*
G03X2174070Y752278I-9199J12117D01*
G02X2174572Y752665I18669J-23697D01*
G01X2174621Y752698D01*
G03X2174703Y752761I-1518J2060D01*
G03X2174722Y752776I-3161J4023D01*
G02X2174921Y752921I17865J-24310D01*
G02X2175112Y753039I902J-1247D01*
G03X2176077Y753689I-2385J4582D01*
G02X2176347Y753891I1678J-1962D01*
G02X2176594Y754050I16452J-25287D01*
G02X2176818Y754187I16788J-27198D01*
G01X2176830Y754194D01*
X2176900Y754237D01*
G03X2176966Y754277I-1293J2208D01*
G02X2177266Y754459I16727J-27234D01*
G03X2177505Y754601I-4227J7387D01*
G01X2177522Y754610D01*
G02X2177700Y754708I19948J-36021D01*
G03X2177708Y754713I-1353J2173D01*
G03X2177717Y754718I-2481J4476D01*
G03X2177753Y754738I-1225J2248D01*
G03X2177786Y754757I-2537J4445D01*
G02X2178456Y755126I14887J-26238D01*
G03X2178544Y755174I-6083J11257D01*
G02X2179316Y755569I14126J-26657D01*
G03X2179347Y755583I-2434J5430D01*
G02X2179381Y755600I13505J-26967D01*
G03X2179611Y755710I-18938J39893D01*
G02X2179872Y755833I12990J-27225D01*
G01X2179965Y755876D01*
X2180024Y755902D01*
G03X2180054Y755918I-1189J2266D01*
G02X2180267Y756015I12609J-27406D01*
G01X2180419Y756080D01*
X2180425Y756083D01*
G03X2180493Y756114I-1027J2344D01*
G02X2182317Y756845I12128J-27622D01*
G01X2182445Y756890D01*
X2182449Y756891D01*
X2182455Y756894D01*
X2182466Y756898D01*
G02X2182755Y757002I17174J-47270D01*
G02X2183579Y757275I9898J-28496D01*
G02X2184699Y757600I8965J-28802D01*
G01X2184727Y757607D01*
X2184738Y757611D01*
G02X2185959Y757916I7920J-29108D01*
G02X2186316Y757994I12769J-57589D01*
G02X2186702Y758075I6388J-29482D01*
G03X2186727Y758079I-392J2529D01*
G03X2186748Y758084I-2553J10768D01*
G03X2186765Y758086I-589J5084D01*
G03X2186813Y758097I-548J2499D01*
G02X2187098Y758151I5536J-28438D01*
G02X2187361Y758198I5438J-29673D01*
G03X2187435Y758213I-471J2515D01*
G02X2187704Y758258I5112J-29731D01*
G02X2189180Y758465I4926J-29762D01*
G01X2189182D01*
X2189257Y758474D01*
G02X2189932Y758543I3405J-29974D01*
G03X2190021Y758551I-1746J19927D01*
G02X2190400Y758581I2570J-30059D01*
G03X2190419Y758582I-125J2555D01*
G03X2190467Y758586I-1589J19361D01*
G02X2191017Y758620I2136J-30093D01*
G03X2191079Y758623I-340J7668D01*
G03X2191164Y758628I-408J7664D01*
G03X2191198Y758630I-279J5030D01*
G02X2191593Y758644I1266J-30142D01*
G03X2191724Y758651I-71J2558D01*
G01X2191769D01*
G03X2191882Y758655I-300J10065D01*
G02X2192086Y758661I989J-30154D01*
G03X2192124Y758662I-82J3846D01*
G01X2192154D01*
G02X2192179Y758663I105J-2313D01*
G02X2193370Y758678I1220J-49572D01*
G01X2300781D01*
G03X2301656Y758679I232J179402D01*
G02X2302295Y758384I5J-830D01*
G02X2302388Y758168I-319J-265D01*
G03X2302553Y757491I3052J385D01*
G03X2303262Y756380I2871J1051D01*
G01X2303575Y756067D01*
G03X2303861Y755812I2329J2324D01*
G03X2304640Y755355I2039J2583D01*
G01X2305038Y755189D01*
G02X2305502Y754772I-366J-874D01*
G03X2306332Y754283I829J459D01*
G01X2306953D01*
G01X2000624Y755661D02*
X2001313D01*
G03X2003717Y756493I0J3890D01*
G03X2004220Y757149I-1030J1310D01*
G03X2004250Y757223I-1529J663D01*
G02X2004907Y758249I2683J-995D01*
G01X2004995Y758336D01*
G02X2007795Y759496I2800J-2799D01*
G01X2008176D01*
G03X2008178Y759497I0J2D01*
G01X2077797D01*
G02X2079426Y759419I0J-17053D01*
G01X2081248Y759244D01*
G02X2081648Y759196I-848J-8754D01*
G01X2081971Y759150D01*
X2082006Y759147D01*
X2082042Y759139D01*
X2082046Y759138D01*
X2082106Y759130D01*
G02X2082864Y759001I-4822J-30625D01*
G02X2083420Y758896I-5475J-30516D01*
G02X2083888Y758799I-10800J-53285D01*
G02X2084146Y758741I-6671J-30276D01*
G02X2084456Y758671I-6674J-30279D01*
G01X2084459Y758670D01*
X2084762Y758598D01*
G02X2085630Y758371I-7410J-30107D01*
G01X2085631Y758370D01*
G02X2086911Y757985I-8288J-29875D01*
G03X2086919Y757981I775J1540D01*
G02X2087102Y757922I-10225J-32029D01*
G02X2087287Y757858I-10044J-29331D01*
G01X2087441Y757805D01*
G03X2087485Y757791I545J1636D01*
G02X2087608Y757749I-9957J-29362D01*
G01X2087667Y757729D01*
X2087682Y757722D01*
G03X2087748Y757697I1846J4774D01*
G02X2087885Y757647I-10561J-29149D01*
G01X2087886D01*
X2087913Y757639D01*
X2088070Y757581D01*
G02X2088674Y757351I-10731J-29088D01*
G02X2089344Y757079I-11327J-28861D01*
G02X2089527Y757003I-25477J-61604D01*
G02X2091212Y756223I-12177J-28515D01*
G02X2091531Y756062I-20811J-41630D01*
G02X2091817Y755912I-14257J-27531D01*
G01Y755913D01*
G02X2099206Y750471I-14237J-27068D01*
G03X2105076Y745527I29794J29418D01*
G03X2105099Y745511I19609J28164D01*
G01Y745510D01*
G03X2105117Y745498I3594J5371D01*
G01X2105124Y745493D01*
G03X2105190Y745452I3445J5471D01*
G03X2106206Y744805I18942J28623D01*
G03X2107031Y744314I17953J29228D01*
G03X2108594Y743470I17084J29769D01*
G03X2108674Y743428I2031J3772D01*
G01X2108683Y743423D01*
X2108685D01*
G03X2108873Y743331I11940J24160D01*
G03X2109617Y742974I15148J30616D01*
G03X2109777Y742899I1898J3841D01*
G03X2110782Y742455I14384J31198D01*
G03X2110788Y742452I775J1542D01*
G03X2111062Y742339I13235J31703D01*
G03X2111120Y742314I1041J2336D01*
G03X2111155Y742299I697J1577D01*
G03X2112236Y741880I12954J31816D01*
G03X2112301Y741856I2321J6187D01*
G03X2112915Y741637I11847J32245D01*
G03X2113057Y741586I11683J32307D01*
G01X2113062D01*
G03X2113662Y741388I9765J28583D01*
G03X2114270Y741200I10452J32726D01*
G03X2114280Y741195I776J1540D01*
G03X2114376Y741168I1434J4913D01*
G03X2114976Y740999I8916J30503D01*
G03X2115705Y740803I9283J33073D01*
G03X2115729Y740797I430J1670D01*
G03X2115769Y740789I522J2505D01*
G03X2115853Y740768I5388J21375D01*
G03X2116021Y740725I8601J33256D01*
G03X2116065Y740713I695J2463D01*
G01X2116071D01*
G03X2118295Y740252I8080J33387D01*
G03X2118398Y740234I1397J7692D01*
G03X2121163Y739880I5741J33867D01*
G03X2121200Y739876I1923J17618D01*
G01X2121202D01*
X2121238Y739873D01*
G03X2121918Y739821I2959J34223D01*
G03X2122638Y739776I4951J73433D01*
G01Y739777D01*
G03X2124436Y739697I4170J73482D01*
G03X2124966Y739676I1659J35166D01*
G03X2125907Y739660I1048J33944D01*
G03X2125966Y739658I88J1723D01*
G01X2125981D01*
X2125998Y739657D01*
X2126028Y739659D01*
X2126070D01*
G03X2126148Y739662I-1266J33934D01*
G01X2143916D01*
G02X2143998Y739659I-49J-2463D01*
G01X2144006D01*
X2144038Y739657D01*
G03X2144367Y739639I579J7560D01*
G03X2144886Y739642I221J6632D01*
G01X2144896D01*
X2146105Y739682D01*
X2146106D01*
G03X2147263Y739738I-1412J41146D01*
G03X2147361Y739745I-256J4275D01*
G03X2148347Y739820I-2629J41087D01*
G03X2148499Y739833I-714J9244D01*
G03X2150070Y740009I-3797J40995D01*
G03X2150785Y740109I-5345J40822D01*
G03X2150883Y740123I-3332J23675D01*
G03X2151755Y740265I-6181J40704D01*
G03X2152481Y740400I-5917J33841D01*
G03X2152985Y740503I-5693J29143D01*
G03X2153311Y740574I-4895J23261D01*
G03X2154876Y740962I-7482J33530D01*
G03X2154908Y740971I-133J535D01*
G03X2155260Y741069I-9038J33145D01*
G03X2155573Y741160I-7056J24852D01*
G03X2156282Y741379I-9784J32932D01*
G01X2156284D01*
X2156304Y741386D01*
X2156317Y741390D01*
G03X2156355Y741403I-11101J32510D01*
G01X2156398Y741415D01*
G03X2156935Y741594I-10595J32681D01*
G03X2158341Y742113I-11191J32481D01*
G03X2159569Y742611I-7834J21081D01*
G03X2159691Y742666I-1406J3281D01*
G03X2159776Y742705I-9336J20460D01*
G03X2160124Y742868I-9365J20447D01*
G02X2160139Y742875I360J-753D01*
G03X2160690Y743131I-14200J31285D01*
G03X2161004Y743283I-13833J28977D01*
G03X2162481Y744058I-15250J30859D01*
G03X2163136Y744432I-16706J30019D01*
G01X2163144Y744436D01*
G03X2163159Y744444I-2009J3785D01*
G03X2163210Y744473I-827J1514D01*
G03X2163988Y744948I-17511J29556D01*
G03X2164119Y745027I-3469J5900D01*
G03X2164158Y745053I-937J1448D01*
G03X2164168Y745060I-2451J3512D01*
G03X2165382Y745864I-18357J29037D01*
G03X2165432Y745898I-19293J28426D01*
G03X2165440Y745903I-851J1370D01*
G03X2165863Y746202I-19618J28202D01*
G03X2165948Y746263I-4386J6201D01*
G03X2167745Y747657I-20147J27827D01*
G03X2167995Y747867I-13545J16379D01*
G03X2168010Y747880I-1122J1309D01*
G03X2168141Y747996I-22708J25776D01*
G03X2168444Y748253I-16658J19946D01*
G03X2168572Y748365I-2757J3280D01*
G03X2168817Y748584I-22773J25723D01*
G03X2170479Y750186I-22997J25522D01*
G01X2170485Y750193D01*
G02X2171116Y750819I22147J-21693D01*
G03X2171224Y750920I-6369J6918D01*
G01X2171227Y750923D01*
X2171345Y751033D01*
X2171352Y751040D01*
G03X2171415Y751102I-7428J7610D01*
G01X2171423Y751110D01*
X2171463Y751148D01*
X2171469Y751154D01*
G03X2171550Y751229I-15727J17067D01*
G02X2171953Y751595I21043J-22766D01*
G03X2171957Y751599I-1139J1143D01*
G03X2172079Y751710I-31515J34760D01*
G02X2172193Y751809I20383J-23357D01*
G03X2172302Y751905I-18704J21347D01*
G02X2172909Y752418I20313J-23419D01*
G01X2173113Y752584D01*
G02X2173278Y752715I12198J-15194D01*
G03X2173313Y752743I-2659J3359D01*
G01X2173396Y752810D01*
X2173404Y752817D01*
X2173407Y752819D01*
G02X2173483Y752879I19248J-24303D01*
G03X2173553Y752934I-8848J11334D01*
G02X2174087Y753344I19146J-24384D01*
G01X2174137Y753378D01*
G03X2174187Y753417I-1036J1379D01*
G03X2174218Y753441I-2606J3398D01*
G02X2174448Y753609I18402J-24951D01*
G02X2174721Y753776I1263J-1758D01*
G03X2175571Y754356I-1999J3842D01*
G02X2175770Y754511I1428J-1628D01*
G02X2176150Y754756I16989J-25933D01*
G02X2176385Y754901I17339J-27838D01*
G01X2176388Y754903D01*
X2176402Y754911D01*
X2176470Y754952D01*
G03X2176521Y754984I-891J1476D01*
G02X2176846Y755180I17098J-27985D01*
G03X2177082Y755320I-3798J6671D01*
G01X2177114Y755338D01*
G02X2177285Y755433I20487J-36676D01*
G03X2177290Y755436I-885J1481D01*
G03X2177315Y755450I-2080J3744D01*
G03X2177339Y755463I-810J1524D01*
G03X2177366Y755479I-2170J3693D01*
G02X2178061Y755861I15279J-26975D01*
G03X2178147Y755908I-5693J10519D01*
G02X2178951Y756319I14512J-27397D01*
G03X2178984Y756335I-2216J4613D01*
G02X2179024Y756354I13321J-27992D01*
G03X2179250Y756462I-18568J39145D01*
G02X2179518Y756589I13409J-27949D01*
G01X2179519Y756590D01*
X2179575Y756617D01*
X2179582Y756620D01*
G02X2179666Y756657I12539J-28352D01*
G03X2179685Y756667I-794J1531D01*
G02X2179931Y756779I12969J-28159D01*
G01X2179937Y756782D01*
X2180089Y756847D01*
G03X2180142Y756872I-709J1572D01*
G02X2182036Y757631I12473J-28382D01*
G01X2182040Y757632D01*
X2182167Y757677D01*
X2182173Y757679D01*
X2182178Y757681D01*
X2182181Y757682D01*
G02X2182478Y757789I17478J-48047D01*
G02X2183330Y758071I10166J-29286D01*
G02X2184489Y758408I9233J-29592D01*
G01X2184493Y758409D01*
X2184496Y758410D01*
G02X2185776Y758730I8157J-29908D01*
G02X2186140Y758810I13023J-58387D01*
G02X2186544Y758894I6513J-30309D01*
G03X2186560Y758897I-310J1697D01*
G03X2186615Y758909I-2154J10005D01*
G03X2186625Y758910I-421J4263D01*
G03X2186633Y758912I-414J1674D01*
G02X2186947Y758972I5751J-29246D01*
G02X2187211Y759019I5566J-30498D01*
G03X2187272Y759032I-329J1693D01*
G02X2187569Y759082I5295J-30546D01*
G02X2189085Y759294I5050J-30587D01*
G01X2189161Y759303D01*
G02X2189858Y759374I3490J-30804D01*
G03X2189947Y759382I-1672J19096D01*
G02X2190338Y759413I2646J-30890D01*
G03X2190362Y759415I-131J1719D01*
G01X2190364D01*
G03X2190407Y759418I-1273J18550D01*
G02X2190976Y759454I2242J-30922D01*
G03X2191039Y759457I-294J6835D01*
G03X2191120Y759461I-297J6834D01*
G03X2191156Y759463I-215J4198D01*
G02X2191570Y759478I1330J-30974D01*
G03X2191665Y759483I-43J1724D01*
G01X2191688Y759485D01*
X2191754D01*
G03X2191850Y759489I-336J9229D01*
G02X2192066Y759495I969J-30990D01*
G03X2192099Y759496I-75J3012D01*
G02X2193369Y759512I1270J-50405D01*
G01X2301834D01*
G02X2303205Y758289I0J-1380D01*
G03X2303845Y756963I2219J253D01*
G01X2304158Y756650D01*
G03X2304956Y756116I1744J1744D01*
G01X2305896Y755725D01*
X2306544D01*
G03X2306697Y755732I-6J1803D01*
G02X2306831Y755711I24J-286D01*
G01X2306953Y755661D01*
G54D18*
X2309768Y741390D03*
G54D19*
Y780956D03*
M02*
