G04 ================== begin FILE IDENTIFICATION RECORD ==================*
G04 Layout Name:  D:/Projects/MORGAN_FPC/PCB/SP1MORGANFLA.brd*
G04 Film Name:    barcodetop*
G04 File Format:  Gerber RS274X*
G04 File Origin:  Cadence Allegro 17.2-S053*
G04 Origin Date:  Wed Mar 03 11:52:20 2021*
G04 *
G04 Layer:  RIGID FLEX/BARCODE_TOP*
G04 Layer:  BOARD GEOMETRY/OUTLINE*
G04 *
G04 Offset:    (0.00 0.00)*
G04 Mirror:    No*
G04 Mode:      Positive*
G04 Rotation:  0*
G04 FullContactRelief:  No*
G04 UndefLineWidth:     6.00*
G04 ================== end FILE IDENTIFICATION RECORD ====================*
%FSLAX25Y25*MOIN*%
%IR0*IPPOS*OFA0.00000B0.00000*MIA0B0*SFA1.00000B1.00000*%
%ADD10C,.0004*%
%ADD11C,.006*%
G75*
%LPD*%
G75*
G36*
G01X2029778Y786764D02*
Y771016D01*
X2045526D01*
Y786764D01*
X2029778D01*
G37*
G54D10*
G01X2318153Y738339D02*
Y784008D01*
G03X2314216Y787945I-3937J0D01*
G01X2192137D01*
G03X2149554Y769980I0J-59449D01*
G02X2145324Y768195I-4230J4121D01*
G01X2123671D01*
G02X2119441Y769980I0J5906D01*
G03X2076858Y787945I-42583J-41484D01*
G01X1992090D01*
G03X1988153Y784008I0J-3937D01*
G01Y738339D01*
G03X1992090Y734402I3937J0D01*
G01X2075226D01*
G02X2082107Y731596I-1J-9842D01*
G03X2123671Y714652I41563J42505D01*
G01X2145324D01*
G03X2186888Y731596I1J59449D01*
G02X2193769Y734402I6882J-7036D01*
G01X2314216D01*
G03X2318153Y738339I0J3937D01*
G54D11*
G01X2061728Y700045D02*
X2062728Y699212D01*
X2063853Y698712D01*
X2064853D01*
X2065853Y699212D01*
X2066603Y700045D01*
X2066978Y701212D01*
X2066728Y702378D01*
X2066103Y703379D01*
X2064978Y704045D01*
X2063478Y704379D01*
X2062603Y705045D01*
X2062228Y706212D01*
X2062478Y707379D01*
X2063103Y708212D01*
X2063978Y708712D01*
X2064853D01*
X2065728Y708379D01*
X2066478Y707545D01*
G01X2071853Y698712D02*
Y708712D01*
X2074853D01*
X2075853Y708212D01*
X2076603Y707045D01*
X2076853Y705712D01*
X2076603Y704379D01*
X2075978Y703379D01*
X2074853Y702878D01*
X2071853D01*
G01X2084353Y698712D02*
Y708712D01*
X2082853Y706712D01*
G01Y698712D02*
X2085853D01*
G01X2091103D02*
Y708712D01*
X2094353Y700379D01*
X2097603Y708712D01*
Y698712D01*
G01X2104353D02*
X2103353Y698879D01*
X2102478Y699545D01*
X2101728Y700545D01*
X2101228Y701712D01*
X2100978Y703045D01*
Y704379D01*
X2101228Y705712D01*
X2101728Y706879D01*
X2102478Y707879D01*
X2103353Y708545D01*
X2104353Y708712D01*
X2105353Y708545D01*
X2106228Y707879D01*
X2106978Y706879D01*
X2107478Y705712D01*
X2107728Y704379D01*
Y703045D01*
X2107478Y701712D01*
X2106978Y700545D01*
X2106228Y699545D01*
X2105353Y698879D01*
X2104353Y698712D01*
G01X2111853D02*
Y708712D01*
X2114978D01*
X2115978Y708212D01*
X2116603Y707545D01*
X2116853Y706212D01*
X2116603Y704879D01*
X2115853Y704045D01*
X2114978Y703545D01*
X2111853D01*
G01X2114978D02*
X2116853Y698712D01*
G01X2125103Y703712D02*
X2127603D01*
Y700712D01*
X2126853Y699712D01*
X2125978Y699045D01*
X2124728Y698712D01*
X2123478Y699045D01*
X2122603Y699712D01*
X2121853Y700712D01*
X2121353Y701879D01*
X2121103Y703212D01*
Y704379D01*
X2121353Y705378D01*
X2121853Y706545D01*
X2122603Y707545D01*
X2123353Y708212D01*
X2124353Y708712D01*
X2125228D01*
X2126228Y708379D01*
X2126978Y707712D01*
G01X2131228Y698712D02*
X2134353Y708712D01*
X2137478Y698712D01*
G01X2136353Y702212D02*
X2132353D01*
G01X2141478Y698712D02*
Y708712D01*
X2147228Y698712D01*
Y708712D01*
G01X2151978Y698712D02*
Y708712D01*
X2156728D01*
G01X2154978Y703879D02*
X2151978D01*
G01X2161853Y708712D02*
Y698712D01*
X2166853D01*
G01X2171228D02*
X2174353Y708712D01*
X2177478Y698712D01*
G01X2176353Y702212D02*
X2172353D01*
G01X2191228Y708712D02*
X2194353Y698712D01*
X2197478Y708712D01*
G01X2206853Y698712D02*
X2201853D01*
Y708712D01*
X2206853D01*
G01X2204853Y703879D02*
X2201853D01*
G01X2211853Y698712D02*
Y708712D01*
X2214978D01*
X2215978Y708212D01*
X2216603Y707545D01*
X2216853Y706212D01*
X2216603Y704879D01*
X2215853Y704045D01*
X2214978Y703545D01*
X2211853D01*
G01X2214978D02*
X2216853Y698712D01*
G01X2224353Y698379D02*
X2224103Y698545D01*
Y698879D01*
X2224353Y699045D01*
X2224603Y698879D01*
Y698545D01*
X2224353Y698379D01*
G01X2231228Y698712D02*
X2234353Y708712D01*
X2237478Y698712D01*
G01X2236353Y702212D02*
X2232353D01*
G01X2255353Y704045D02*
X2255853Y704545D01*
X2256228Y705378D01*
X2256478Y706545D01*
X2256228Y707545D01*
X2255728Y708212D01*
X2254853Y708712D01*
X2251478D01*
Y698712D01*
X2255603D01*
X2256478Y699379D01*
X2256978Y700379D01*
X2257228Y701545D01*
X2256978Y702712D01*
X2256228Y703712D01*
X2255353Y704045D01*
X2251478D01*
G01X2261228Y698712D02*
X2264353Y708712D01*
X2267478Y698712D01*
G01X2266353Y702212D02*
X2262353D01*
G01X2271853Y698712D02*
Y708712D01*
X2274978D01*
X2275978Y708212D01*
X2276603Y707545D01*
X2276853Y706212D01*
X2276603Y704879D01*
X2275853Y704045D01*
X2274978Y703545D01*
X2271853D01*
G01X2274978D02*
X2276853Y698712D01*
G01X2287103Y707879D02*
X2286353Y708379D01*
X2285478Y708712D01*
X2284478D01*
X2283353Y708212D01*
X2282478Y707379D01*
X2281853Y706379D01*
X2281353Y704712D01*
X2281228Y703212D01*
X2281478Y701712D01*
X2281853Y700712D01*
X2282603Y699712D01*
X2283478Y699045D01*
X2284353Y698712D01*
X2285228D01*
X2286103Y699045D01*
X2286853Y699545D01*
X2287478Y700212D01*
G01X2294353Y698712D02*
X2293353Y698879D01*
X2292478Y699545D01*
X2291728Y700545D01*
X2291228Y701712D01*
X2290978Y703045D01*
Y704379D01*
X2291228Y705712D01*
X2291728Y706879D01*
X2292478Y707879D01*
X2293353Y708545D01*
X2294353Y708712D01*
X2295353Y708545D01*
X2296228Y707879D01*
X2296978Y706879D01*
X2297478Y705712D01*
X2297728Y704379D01*
Y703045D01*
X2297478Y701712D01*
X2296978Y700545D01*
X2296228Y699545D01*
X2295353Y698879D01*
X2294353Y698712D01*
G01X2301603D02*
Y708712D01*
X2304103D01*
X2305103Y708212D01*
X2305853Y707545D01*
X2306478Y706545D01*
X2306978Y705378D01*
X2307103Y703712D01*
X2306978Y702045D01*
X2306478Y700879D01*
X2305853Y699878D01*
X2305103Y699212D01*
X2304103Y698712D01*
X2301603D01*
G01X2316853D02*
X2311853D01*
Y708712D01*
X2316853D01*
G01X2314853Y703879D02*
X2311853D01*
G01X2334353Y708712D02*
Y698712D01*
G01X2331478Y708712D02*
X2337228D01*
G01X2344353Y698712D02*
X2343353Y698879D01*
X2342478Y699545D01*
X2341728Y700545D01*
X2341228Y701712D01*
X2340978Y703045D01*
Y704379D01*
X2341228Y705712D01*
X2341728Y706879D01*
X2342478Y707879D01*
X2343353Y708545D01*
X2344353Y708712D01*
X2345353Y708545D01*
X2346228Y707879D01*
X2346978Y706879D01*
X2347478Y705712D01*
X2347728Y704379D01*
Y703045D01*
X2347478Y701712D01*
X2346978Y700545D01*
X2346228Y699545D01*
X2345353Y698879D01*
X2344353Y698712D01*
G01X2351853D02*
Y708712D01*
X2354853D01*
X2355853Y708212D01*
X2356603Y707045D01*
X2356853Y705712D01*
X2356603Y704379D01*
X2355978Y703379D01*
X2354853Y702878D01*
X2351853D01*
M02*
