G04 ================== begin FILE IDENTIFICATION RECORD ==================*
G04 Layout Name:  D:/Projects/MORGAN_FPC/PCB/SP1MORGANFLA.brd*
G04 Film Name:    bending*
G04 File Format:  Gerber RS274X*
G04 File Origin:  Cadence Allegro 17.2-S053*
G04 Origin Date:  Wed Mar 03 11:52:20 2021*
G04 *
G04 Layer:  RIGID FLEX/BEND_AREA*
G04 Layer:  RIGID FLEX/BEND_LINE*
G04 Layer:  BOARD GEOMETRY/OUTLINE*
G04 *
G04 Offset:    (0.00 0.00)*
G04 Mirror:    No*
G04 Mode:      Positive*
G04 Rotation:  0*
G04 FullContactRelief:  No*
G04 UndefLineWidth:     6.00*
G04 ================== end FILE IDENTIFICATION RECORD ====================*
%FSLAX25Y25*MOIN*%
%IR0*IPPOS*OFA0.00000B0.00000*MIA0B0*SFA1.00000B1.00000*%
%ADD10C,.0004*%
%ADD11C,.006*%
G75*
%LPD*%
G75*
G36*
G01X2008716Y787945D02*
X2012090D01*
Y734402D01*
X2008716D01*
Y787945D01*
G37*
G36*
G01X2015471D02*
Y734402D01*
X2018846D01*
Y787945D01*
X2015471D01*
G37*
G36*
G01X2280475D02*
Y734402D01*
X2283849D01*
Y787945D01*
X2280475D01*
G37*
G36*
G01X2290787Y734402D02*
Y787945D01*
X2294161D01*
Y734402D01*
X2290787D01*
G37*
G54D10*
G01X2318153Y738339D02*
Y784008D01*
G03X2314216Y787945I-3937J0D01*
G01X2192137D01*
G03X2149554Y769980I0J-59449D01*
G02X2145324Y768195I-4230J4121D01*
G01X2123671D01*
G02X2119441Y769980I0J5906D01*
G03X2076858Y787945I-42583J-41484D01*
G01X1992090D01*
G03X1988153Y784008I0J-3937D01*
G01Y738339D01*
G03X1992090Y734402I3937J0D01*
G01X2075226D01*
G02X2082107Y731596I-1J-9842D01*
G03X2123671Y714652I41563J42505D01*
G01X2145324D01*
G03X2186888Y731596I1J59449D01*
G02X2193769Y734402I6882J-7036D01*
G01X2314216D01*
G03X2318153Y738339I0J3937D01*
G54D11*
G01X2000189Y691108D02*
X2001189Y690275D01*
X2002314Y689775D01*
X2003314D01*
X2004314Y690275D01*
X2005064Y691108D01*
X2005439Y692275D01*
X2005189Y693441D01*
X2004564Y694442D01*
X2003439Y695108D01*
X2001939Y695442D01*
X2001064Y696108D01*
X2000689Y697275D01*
X2000939Y698442D01*
X2001564Y699275D01*
X2002439Y699775D01*
X2003314D01*
X2004189Y699442D01*
X2004939Y698608D01*
G01X2010314Y689775D02*
Y699775D01*
X2013314D01*
X2014314Y699275D01*
X2015064Y698108D01*
X2015314Y696775D01*
X2015064Y695442D01*
X2014439Y694442D01*
X2013314Y693941D01*
X2010314D01*
G01X2022814Y689775D02*
Y699775D01*
X2021314Y697775D01*
G01Y689775D02*
X2024314D01*
G01X2029564D02*
Y699775D01*
X2032814Y691442D01*
X2036064Y699775D01*
Y689775D01*
G01X2042814D02*
X2041814Y689942D01*
X2040939Y690608D01*
X2040189Y691608D01*
X2039689Y692775D01*
X2039439Y694108D01*
Y695442D01*
X2039689Y696775D01*
X2040189Y697942D01*
X2040939Y698942D01*
X2041814Y699608D01*
X2042814Y699775D01*
X2043814Y699608D01*
X2044689Y698942D01*
X2045439Y697942D01*
X2045939Y696775D01*
X2046189Y695442D01*
Y694108D01*
X2045939Y692775D01*
X2045439Y691608D01*
X2044689Y690608D01*
X2043814Y689942D01*
X2042814Y689775D01*
G01X2050314D02*
Y699775D01*
X2053439D01*
X2054439Y699275D01*
X2055064Y698608D01*
X2055314Y697275D01*
X2055064Y695942D01*
X2054314Y695108D01*
X2053439Y694608D01*
X2050314D01*
G01X2053439D02*
X2055314Y689775D01*
G01X2063564Y694775D02*
X2066064D01*
Y691775D01*
X2065314Y690775D01*
X2064439Y690108D01*
X2063189Y689775D01*
X2061939Y690108D01*
X2061064Y690775D01*
X2060314Y691775D01*
X2059814Y692942D01*
X2059564Y694275D01*
Y695442D01*
X2059814Y696441D01*
X2060314Y697608D01*
X2061064Y698608D01*
X2061814Y699275D01*
X2062814Y699775D01*
X2063689D01*
X2064689Y699442D01*
X2065439Y698775D01*
G01X2069689Y689775D02*
X2072814Y699775D01*
X2075939Y689775D01*
G01X2074814Y693275D02*
X2070814D01*
G01X2079939Y689775D02*
Y699775D01*
X2085689Y689775D01*
Y699775D01*
G01X2090439Y689775D02*
Y699775D01*
X2095189D01*
G01X2093439Y694942D02*
X2090439D01*
G01X2100314Y699775D02*
Y689775D01*
X2105314D01*
G01X2109689D02*
X2112814Y699775D01*
X2115939Y689775D01*
G01X2114814Y693275D02*
X2110814D01*
G01X2129689Y699775D02*
X2132814Y689775D01*
X2135939Y699775D01*
G01X2145314Y689775D02*
X2140314D01*
Y699775D01*
X2145314D01*
G01X2143314Y694942D02*
X2140314D01*
G01X2150314Y689775D02*
Y699775D01*
X2153439D01*
X2154439Y699275D01*
X2155064Y698608D01*
X2155314Y697275D01*
X2155064Y695942D01*
X2154314Y695108D01*
X2153439Y694608D01*
X2150314D01*
G01X2153439D02*
X2155314Y689775D01*
G01X2162814Y689442D02*
X2162564Y689608D01*
Y689942D01*
X2162814Y690108D01*
X2163064Y689942D01*
Y689608D01*
X2162814Y689442D01*
G01X2169689Y689775D02*
X2172814Y699775D01*
X2175939Y689775D01*
G01X2174814Y693275D02*
X2170814D01*
G01X2193814Y695108D02*
X2194314Y695608D01*
X2194689Y696441D01*
X2194939Y697608D01*
X2194689Y698608D01*
X2194189Y699275D01*
X2193314Y699775D01*
X2189939D01*
Y689775D01*
X2194064D01*
X2194939Y690442D01*
X2195439Y691442D01*
X2195689Y692608D01*
X2195439Y693775D01*
X2194689Y694775D01*
X2193814Y695108D01*
X2189939D01*
G01X2205314Y689775D02*
X2200314D01*
Y699775D01*
X2205314D01*
G01X2203314Y694942D02*
X2200314D01*
G01X2209939Y689775D02*
Y699775D01*
X2215689Y689775D01*
Y699775D01*
G01X2220064Y689775D02*
Y699775D01*
X2222564D01*
X2223564Y699275D01*
X2224314Y698608D01*
X2224939Y697608D01*
X2225439Y696441D01*
X2225564Y694775D01*
X2225439Y693108D01*
X2224939Y691942D01*
X2224314Y690941D01*
X2223564Y690275D01*
X2222564Y689775D01*
X2220064D01*
G01X2231314Y699775D02*
X2234314D01*
G01X2232814D02*
Y689775D01*
G01X2231314D02*
X2234314D01*
G01X2239939D02*
Y699775D01*
X2245689Y689775D01*
Y699775D01*
G01X2253564Y694775D02*
X2256064D01*
Y691775D01*
X2255314Y690775D01*
X2254439Y690108D01*
X2253189Y689775D01*
X2251939Y690108D01*
X2251064Y690775D01*
X2250314Y691775D01*
X2249814Y692942D01*
X2249564Y694275D01*
Y695442D01*
X2249814Y696441D01*
X2250314Y697608D01*
X2251064Y698608D01*
X2251814Y699275D01*
X2252814Y699775D01*
X2253689D01*
X2254689Y699442D01*
X2255439Y698775D01*
G01X2269689Y689775D02*
X2272814Y699775D01*
X2275939Y689775D01*
G01X2274814Y693275D02*
X2270814D01*
G01X2280314Y689775D02*
Y699775D01*
X2283439D01*
X2284439Y699275D01*
X2285064Y698608D01*
X2285314Y697275D01*
X2285064Y695942D01*
X2284314Y695108D01*
X2283439Y694608D01*
X2280314D01*
G01X2283439D02*
X2285314Y689775D01*
G01X2295314D02*
X2290314D01*
Y699775D01*
X2295314D01*
G01X2293314Y694942D02*
X2290314D01*
G01X2299689Y689775D02*
X2302814Y699775D01*
X2305939Y689775D01*
G01X2304814Y693275D02*
X2300814D01*
M02*
