G04 ================== begin FILE IDENTIFICATION RECORD ==================*
G04 Layout Name:  D:/Projects/MORGAN_FPC/PCB/SP1MORGANFLA.brd*
G04 Film Name:    coverlaybotm*
G04 File Format:  Gerber RS274X*
G04 File Origin:  Cadence Allegro 17.2-S053*
G04 Origin Date:  Wed Mar 03 11:52:20 2021*
G04 *
G04 Layer:  BOARD GEOMETRY/OUTLINE*
G04 Layer:  RIGID FLEX/COVERLAY_BOTTOM*
G04 Layer:  VIA CLASS/SOLDERMASK_BOTTOM*
G04 Layer:  PIN/SOLDERMASK_BOTTOM*
G04 Layer:  PACKAGE GEOMETRY/SOLDERMASK_BOTTOM*
G04 Layer:  BOARD GEOMETRY/SOLDERMASK_BOTTOM*
G04 *
G04 Offset:    (0.00 0.00)*
G04 Mirror:    No*
G04 Mode:      Positive*
G04 Rotation:  0*
G04 FullContactRelief:  No*
G04 UndefLineWidth:     6.00*
G04 ================== end FILE IDENTIFICATION RECORD ====================*
%FSLAX25Y25*MOIN*%
%IR0*IPPOS*OFA0.00000B0.00000*MIA0B0*SFA1.00000B1.00000*%
%AMMACRO16*
4,1,5,-.00276,.00689,
.00551,.00689,
.00551,-.00689,
-.00551,-.00689,
-.00551,.00413,
-.00276,.00689,
0.0*
%
%ADD16MACRO16*%
%AMMACRO13*
4,1,5,.00551,.00413,
.00551,-.00689,
-.00551,-.00689,
-.00551,.00689,
.00276,.00689,
.00551,.00413,
0.0*
%
%ADD13MACRO13*%
%AMMACRO18*
4,1,6,.01024,-.00452,
-.01024,-.00452,
-.01417,-.00058,
-.01417,.00453,
.01417,.00453,
.01417,-.00058,
.01024,-.00452,
0.0*
%
%ADD18MACRO18*%
%ADD12R,.013X.011*%
%ADD19R,.015X.011*%
%ADD11R,.012X.033*%
%ADD10R,.044X.012*%
%AMMACRO15*
4,1,5,.00276,-.00689,
-.00551,-.00689,
-.00551,.00689,
.00551,.00689,
.00551,-.00413,
.00276,-.00689,
0.0*
%
%ADD15MACRO15*%
%AMMACRO14*
4,1,5,-.00551,-.00413,
-.00551,.00689,
.00551,.00689,
.00551,-.00689,
-.00276,-.00689,
-.00551,-.00413,
0.0*
%
%ADD14MACRO14*%
%AMMACRO17*
4,1,6,-.01024,.00452,
.01024,.00452,
.01417,.00058,
.01417,-.00453,
-.01417,-.00453,
-.01417,.00058,
-.01024,.00452,
0.0*
%
%ADD17MACRO17*%
%ADD20C,.0004*%
%ADD21C,.006*%
G75*
%LPD*%
G75*
G36*
G01X1991989Y784688D02*
Y738264D01*
X2002047D01*
Y784688D01*
X1991989D01*
G37*
G36*
G01X2033060Y777204D02*
Y773110D01*
X2040022D01*
Y777204D01*
X2033060D01*
G37*
G36*
G01X2031954Y757503D02*
Y753409D01*
X2038957D01*
Y757503D01*
X2031954D01*
G37*
G36*
G01X2129467Y755514D02*
G03I-2000J0D01*
G37*
G36*
G01X2112592Y761458D02*
G03I-2000J0D01*
G37*
G36*
G01X2099482Y770619D02*
G03I-2000J0D01*
G37*
G36*
G01X2085203Y774925D02*
G03I-2000J0D01*
G37*
G36*
G01X2126770Y735715D02*
G03I-2000J0D01*
G37*
G36*
G01X2104867Y742365D02*
G03I-2000J0D01*
G37*
G36*
G01X2087329Y754044D02*
G03I-2000J0D01*
G37*
G36*
G01X2048969Y777340D02*
Y773246D01*
X2055931D01*
Y777340D01*
X2048969D01*
G37*
G36*
G01X2064763Y777341D02*
Y773247D01*
X2071725D01*
Y777341D01*
X2064763D01*
G37*
G36*
G01X2065690Y757640D02*
Y753546D01*
X2072714D01*
Y757640D01*
X2065690D01*
G37*
G36*
G01X2047707Y757639D02*
Y753545D01*
X2054897D01*
Y757639D01*
X2047707D01*
G37*
G36*
G01X2188856Y775026D02*
G03I-2000J0D01*
G37*
G36*
G01X2174725Y770726D02*
G03I-2000J0D01*
G37*
G36*
G01X2162839Y762788D02*
G03I-2000J0D01*
G37*
G36*
G01X2147711Y755556D02*
G03I-2000J0D01*
G37*
G36*
G01X2191063Y755247D02*
G03I-2000J0D01*
G37*
G36*
G01X2175001Y747164D02*
G03I-2000J0D01*
G37*
G36*
G01X2161225Y738333D02*
G03I-2000J0D01*
G37*
G36*
G01X2144808Y735714D02*
G03I-2000J0D01*
G37*
G36*
G01X2229957Y777326D02*
Y773294D01*
X2238520D01*
Y777326D01*
X2229957D01*
G37*
G36*
G01X2195872Y777328D02*
Y773296D01*
X2202877D01*
Y777328D01*
X2195872D01*
G37*
G36*
G01X2213789Y777308D02*
Y773276D01*
X2220836D01*
Y777308D01*
X2213789D01*
G37*
G36*
G01X2196415Y757730D02*
Y753698D01*
X2203420D01*
Y757730D01*
X2196415D01*
G37*
G36*
G01X2214332Y757710D02*
Y753678D01*
X2221379D01*
Y757710D01*
X2214332D01*
G37*
G36*
G01X2230500Y757728D02*
Y753696D01*
X2239063D01*
Y757728D01*
X2230500D01*
G37*
G36*
G01X2305574Y782487D02*
Y740141D01*
X2314009D01*
Y782487D01*
X2305574D01*
G37*
G36*
G01X2250802Y777263D02*
Y773231D01*
X2259365D01*
Y777263D01*
X2250802D01*
G37*
G36*
G01X2251345Y757665D02*
Y753633D01*
X2259908D01*
Y757665D01*
X2251345D01*
G37*
G36*
G01X2268497Y777232D02*
Y773232D01*
X2272497D01*
Y777232D01*
X2268497D01*
G37*
G36*
G01X2268342Y757705D02*
Y753705D01*
X2272342D01*
Y757705D01*
X2268342D01*
G37*
G54D10*
X1997130Y782886D03*
Y739460D03*
G54D20*
G01X2318153Y738339D02*
Y784008D01*
G03X2314216Y787945I-3937J0D01*
G01X2192137D01*
G03X2149554Y769980I0J-59449D01*
G02X2145324Y768195I-4230J4121D01*
G01X2123671D01*
G02X2119441Y769980I0J5906D01*
G03X2076858Y787945I-42583J-41484D01*
G01X1992090D01*
G03X1988153Y784008I0J-3937D01*
G01Y738339D01*
G03X1992090Y734402I3937J0D01*
G01X2075226D01*
G02X2082107Y731596I-1J-9842D01*
G03X2123671Y714652I41563J42505D01*
G01X2145324D01*
G03X2186888Y731596I1J59449D01*
G02X2193769Y734402I6882J-7036D01*
G01X2314216D01*
G03X2318153Y738339I0J3937D01*
G54D11*
X1993459Y741744D03*
X2000801D03*
Y780602D03*
X1993459D03*
G54D21*
G01X2322455Y700085D02*
X2321455Y699252D01*
X2320330Y698752D01*
X2319330D01*
X2318330Y699252D01*
X2317580Y700085D01*
X2317205Y701252D01*
X2317455Y702418D01*
X2318080Y703419D01*
X2319205Y704085D01*
X2320705Y704419D01*
X2321580Y705085D01*
X2321955Y706252D01*
X2321705Y707419D01*
X2321080Y708252D01*
X2320205Y708752D01*
X2319330D01*
X2318455Y708419D01*
X2317705Y707585D01*
G01X2312330Y698752D02*
Y708752D01*
X2309330D01*
X2308330Y708252D01*
X2307580Y707085D01*
X2307330Y705752D01*
X2307580Y704419D01*
X2308205Y703419D01*
X2309330Y702918D01*
X2312330D01*
G01X2299830Y698752D02*
Y708752D01*
X2301330Y706752D01*
G01Y698752D02*
X2298330D01*
G01X2293080D02*
Y708752D01*
X2289830Y700419D01*
X2286580Y708752D01*
Y698752D01*
G01X2279830D02*
X2280830Y698919D01*
X2281705Y699585D01*
X2282455Y700585D01*
X2282955Y701752D01*
X2283205Y703085D01*
Y704419D01*
X2282955Y705752D01*
X2282455Y706919D01*
X2281705Y707919D01*
X2280830Y708585D01*
X2279830Y708752D01*
X2278830Y708585D01*
X2277955Y707919D01*
X2277205Y706919D01*
X2276705Y705752D01*
X2276455Y704419D01*
Y703085D01*
X2276705Y701752D01*
X2277205Y700585D01*
X2277955Y699585D01*
X2278830Y698919D01*
X2279830Y698752D01*
G01X2272330D02*
Y708752D01*
X2269205D01*
X2268205Y708252D01*
X2267580Y707585D01*
X2267330Y706252D01*
X2267580Y704919D01*
X2268330Y704085D01*
X2269205Y703585D01*
X2272330D01*
G01X2269205D02*
X2267330Y698752D01*
G01X2259080Y703752D02*
X2256580D01*
Y700752D01*
X2257330Y699752D01*
X2258205Y699085D01*
X2259455Y698752D01*
X2260705Y699085D01*
X2261580Y699752D01*
X2262330Y700752D01*
X2262830Y701919D01*
X2263080Y703252D01*
Y704419D01*
X2262830Y705418D01*
X2262330Y706585D01*
X2261580Y707585D01*
X2260830Y708252D01*
X2259830Y708752D01*
X2258955D01*
X2257955Y708419D01*
X2257205Y707752D01*
G01X2252955Y698752D02*
X2249830Y708752D01*
X2246705Y698752D01*
G01X2247830Y702252D02*
X2251830D01*
G01X2242705Y698752D02*
Y708752D01*
X2236955Y698752D01*
Y708752D01*
G01X2232205Y698752D02*
Y708752D01*
X2227455D01*
G01X2229205Y703919D02*
X2232205D01*
G01X2222330Y708752D02*
Y698752D01*
X2217330D01*
G01X2212955D02*
X2209830Y708752D01*
X2206705Y698752D01*
G01X2207830Y702252D02*
X2211830D01*
G01X2192955Y708752D02*
X2189830Y698752D01*
X2186705Y708752D01*
G01X2177330Y698752D02*
X2182330D01*
Y708752D01*
X2177330D01*
G01X2179330Y703919D02*
X2182330D01*
G01X2172330Y698752D02*
Y708752D01*
X2169205D01*
X2168205Y708252D01*
X2167580Y707585D01*
X2167330Y706252D01*
X2167580Y704919D01*
X2168330Y704085D01*
X2169205Y703585D01*
X2172330D01*
G01X2169205D02*
X2167330Y698752D01*
G01X2159830Y698419D02*
X2160080Y698585D01*
Y698919D01*
X2159830Y699085D01*
X2159580Y698919D01*
Y698585D01*
X2159830Y698419D01*
G01X2152955Y698752D02*
X2149830Y708752D01*
X2146705Y698752D01*
G01X2147830Y702252D02*
X2151830D01*
G01X2127080Y707919D02*
X2127830Y708419D01*
X2128705Y708752D01*
X2129705D01*
X2130830Y708252D01*
X2131705Y707419D01*
X2132330Y706419D01*
X2132830Y704752D01*
X2132955Y703252D01*
X2132705Y701752D01*
X2132330Y700752D01*
X2131580Y699752D01*
X2130705Y699085D01*
X2129830Y698752D01*
X2128955D01*
X2128080Y699085D01*
X2127330Y699585D01*
X2126705Y700252D01*
G01X2119830Y698752D02*
X2120830Y698919D01*
X2121705Y699585D01*
X2122455Y700585D01*
X2122955Y701752D01*
X2123205Y703085D01*
Y704419D01*
X2122955Y705752D01*
X2122455Y706919D01*
X2121705Y707919D01*
X2120830Y708585D01*
X2119830Y708752D01*
X2118830Y708585D01*
X2117955Y707919D01*
X2117205Y706919D01*
X2116705Y705752D01*
X2116455Y704419D01*
Y703085D01*
X2116705Y701752D01*
X2117205Y700585D01*
X2117955Y699585D01*
X2118830Y698919D01*
X2119830Y698752D01*
G01X2112955Y708752D02*
X2109830Y698752D01*
X2106705Y708752D01*
G01X2097330Y698752D02*
X2102330D01*
Y708752D01*
X2097330D01*
G01X2099330Y703919D02*
X2102330D01*
G01X2092330Y698752D02*
Y708752D01*
X2089205D01*
X2088205Y708252D01*
X2087580Y707585D01*
X2087330Y706252D01*
X2087580Y704919D01*
X2088330Y704085D01*
X2089205Y703585D01*
X2092330D01*
G01X2089205D02*
X2087330Y698752D01*
G01X2082330Y708752D02*
Y698752D01*
X2077330D01*
G01X2072955D02*
X2069830Y708752D01*
X2066705Y698752D01*
G01X2067830Y702252D02*
X2071830D01*
G01X2059830Y698752D02*
Y703252D01*
X2062330Y708752D01*
G01X2057330D02*
X2059830Y703252D01*
G01X2038830Y704085D02*
X2038330Y704585D01*
X2037955Y705418D01*
X2037705Y706585D01*
X2037955Y707585D01*
X2038455Y708252D01*
X2039330Y708752D01*
X2042705D01*
Y698752D01*
X2038580D01*
X2037705Y699419D01*
X2037205Y700419D01*
X2036955Y701585D01*
X2037205Y702752D01*
X2037955Y703752D01*
X2038830Y704085D01*
X2042705D01*
G01X2029830Y698752D02*
X2030830Y698919D01*
X2031705Y699585D01*
X2032455Y700585D01*
X2032955Y701752D01*
X2033205Y703085D01*
Y704419D01*
X2032955Y705752D01*
X2032455Y706919D01*
X2031705Y707919D01*
X2030830Y708585D01*
X2029830Y708752D01*
X2028830Y708585D01*
X2027955Y707919D01*
X2027205Y706919D01*
X2026705Y705752D01*
X2026455Y704419D01*
Y703085D01*
X2026705Y701752D01*
X2027205Y700585D01*
X2027955Y699585D01*
X2028830Y698919D01*
X2029830Y698752D01*
G01X2019830Y708752D02*
Y698752D01*
G01X2022705Y708752D02*
X2016955D01*
G01X2009830D02*
Y698752D01*
G01X2012705Y708752D02*
X2006955D01*
G01X1999830Y698752D02*
X2000830Y698919D01*
X2001705Y699585D01*
X2002455Y700585D01*
X2002955Y701752D01*
X2003205Y703085D01*
Y704419D01*
X2002955Y705752D01*
X2002455Y706919D01*
X2001705Y707919D01*
X2000830Y708585D01*
X1999830Y708752D01*
X1998830Y708585D01*
X1997955Y707919D01*
X1997205Y706919D01*
X1996705Y705752D01*
X1996455Y704419D01*
Y703085D01*
X1996705Y701752D01*
X1997205Y700585D01*
X1997955Y699585D01*
X1998830Y698919D01*
X1999830Y698752D01*
G01X1993080D02*
Y708752D01*
X1989830Y700419D01*
X1986580Y708752D01*
Y698752D01*
G54D12*
X2000624Y777708D03*
Y776330D03*
Y774953D03*
Y773575D03*
Y772197D03*
Y770819D03*
Y769441D03*
Y768063D03*
Y766685D03*
Y765307D03*
Y763929D03*
Y762551D03*
Y761173D03*
Y759795D03*
Y758417D03*
Y757039D03*
Y755661D03*
Y754283D03*
Y752905D03*
Y751527D03*
Y750149D03*
Y748771D03*
Y747393D03*
Y746016D03*
Y744638D03*
X1993636D03*
Y746016D03*
Y747393D03*
Y748771D03*
Y750149D03*
Y751527D03*
Y752905D03*
Y754283D03*
Y755661D03*
Y757039D03*
Y758417D03*
Y759795D03*
Y761173D03*
Y762551D03*
Y763929D03*
Y765307D03*
Y766685D03*
Y768063D03*
Y769441D03*
Y770819D03*
Y772197D03*
Y773575D03*
Y774953D03*
Y776330D03*
Y777708D03*
G54D13*
X2307622Y780090D03*
G54D14*
X2311914Y742256D03*
G54D15*
X2307622D03*
G54D16*
X2311914Y780090D03*
G54D17*
X2309768Y741390D03*
G54D18*
Y780956D03*
G54D19*
X2312583Y777708D03*
Y776330D03*
Y774953D03*
Y773575D03*
Y772197D03*
Y770819D03*
Y769441D03*
Y768063D03*
Y766685D03*
Y765307D03*
Y763929D03*
Y762551D03*
Y761173D03*
Y759795D03*
Y758417D03*
Y757039D03*
Y755661D03*
Y754283D03*
Y752905D03*
Y751527D03*
Y750149D03*
Y748771D03*
Y747393D03*
Y746016D03*
Y744638D03*
X2306953D03*
Y746016D03*
Y747393D03*
Y748771D03*
Y750149D03*
Y751527D03*
Y752905D03*
Y754283D03*
Y755661D03*
Y757039D03*
Y758417D03*
Y759795D03*
Y761173D03*
Y762551D03*
Y763929D03*
Y765307D03*
Y766685D03*
Y768063D03*
Y769441D03*
Y770819D03*
Y772197D03*
Y773575D03*
Y774953D03*
Y776330D03*
Y777708D03*
M02*
