G04 ================== begin FILE IDENTIFICATION RECORD ==================*
G04 Layout Name:  D:/Projects/MORGAN_FPC/PCB/SP1MORGANFLA.brd*
G04 Film Name:    lpibotm*
G04 File Format:  Gerber RS274X*
G04 File Origin:  Cadence Allegro 17.2-S053*
G04 Origin Date:  Wed Mar 03 11:52:20 2021*
G04 *
G04 Layer:  RIGID FLEX/LPI_BOTTOM*
G04 Layer:  BOARD GEOMETRY/OUTLINE*
G04 *
G04 Offset:    (0.00 0.00)*
G04 Mirror:    No*
G04 Mode:      Positive*
G04 Rotation:  0*
G04 FullContactRelief:  No*
G04 UndefLineWidth:     6.00*
G04 ================== end FILE IDENTIFICATION RECORD ====================*
%FSLAX25Y25*MOIN*%
%IR0*IPPOS*OFA0.00000B0.00000*MIA0B0*SFA1.00000B1.00000*%
%ADD10C,.0004*%
%ADD11C,.005*%
%ADD12C,.006*%
%ADD15R,.013X.3407*%
%ADD16R,.01301X.3407*%
%ADD19R,.015X.3417*%
%ADD13R,.012X.033*%
%ADD14R,.044X.012*%
%ADD18R,.04401X.012*%
%ADD17R,.01202X.03301*%
G75*
%LPD*%
G75*
G36*
G01X1990800Y737060D02*
Y785872D01*
X2003235Y785871D01*
X2003234Y737060D01*
X1990800D01*
G37*
G36*
G01X2304360Y738559D02*
Y783711D01*
X2315214D01*
Y738559D01*
X2304360D01*
G37*
%LPC*%
G75*
G36*
G01X2311363Y742052D02*
Y742945D01*
X2312465D01*
Y741567D01*
X2311835Y740937D01*
X2307701D01*
X2307071Y741567D01*
Y742945D01*
X2308173D01*
Y741843D01*
X2308174Y741842D01*
X2311153D01*
X2311363Y742052D01*
G37*
G36*
G01X2307071Y780779D02*
X2307701Y781409D01*
X2311835D01*
X2312465Y780779D01*
Y779401D01*
X2311363D01*
Y780386D01*
X2311245Y780504D01*
X2308283D01*
X2308173Y780394D01*
Y779401D01*
X2307071D01*
Y780779D01*
G37*
G54D15*
X2000613Y761173D03*
G54D16*
X1993644D03*
G54D19*
X2312583D03*
X2306953D03*
G54D13*
X2000800Y741744D03*
X1993458D03*
X2000800Y780602D03*
G54D14*
X1997129Y739460D03*
G54D18*
X1997129Y782886D03*
G54D17*
X1993457Y780602D03*
%LPD*%
G75*
G54D10*
G01X2318153Y738339D02*
Y784008D01*
G03X2314216Y787945I-3937J0D01*
G01X2192137D01*
G03X2149554Y769980I0J-59449D01*
G02X2145324Y768195I-4230J4121D01*
G01X2123671D01*
G02X2119441Y769980I0J5906D01*
G03X2076858Y787945I-42583J-41484D01*
G01X1992090D01*
G03X1988153Y784008I0J-3937D01*
G01Y738339D01*
G03X1992090Y734402I3937J0D01*
G01X2075226D01*
G02X2082107Y731596I-1J-9842D01*
G03X2123671Y714652I41563J42505D01*
G01X2145324D01*
G03X2186888Y731596I1J59449D01*
G02X2193769Y734402I6882J-7036D01*
G01X2314216D01*
G03X2318153Y738339I0J3937D01*
G54D11*
G01X2031503Y748325D02*
X2024501D01*
Y755343D01*
G01X2267817Y764573D02*
X2274819D01*
Y757555D01*
G54D12*
G01X2308659Y678476D02*
X2307659Y677643D01*
X2306534Y677143D01*
X2305534D01*
X2304534Y677643D01*
X2303784Y678476D01*
X2303409Y679643D01*
X2303659Y680809D01*
X2304284Y681810D01*
X2305409Y682476D01*
X2306909Y682810D01*
X2307784Y683476D01*
X2308159Y684643D01*
X2307909Y685810D01*
X2307284Y686643D01*
X2306409Y687143D01*
X2305534D01*
X2304659Y686810D01*
X2303909Y685976D01*
G01X2298534Y677143D02*
Y687143D01*
X2295534D01*
X2294534Y686643D01*
X2293784Y685476D01*
X2293534Y684143D01*
X2293784Y682810D01*
X2294409Y681810D01*
X2295534Y681309D01*
X2298534D01*
G01X2286034Y677143D02*
Y687143D01*
X2287534Y685143D01*
G01Y677143D02*
X2284534D01*
G01X2279284D02*
Y687143D01*
X2276034Y678810D01*
X2272784Y687143D01*
Y677143D01*
G01X2266034D02*
X2267034Y677310D01*
X2267909Y677976D01*
X2268659Y678976D01*
X2269159Y680143D01*
X2269409Y681476D01*
Y682810D01*
X2269159Y684143D01*
X2268659Y685310D01*
X2267909Y686310D01*
X2267034Y686976D01*
X2266034Y687143D01*
X2265034Y686976D01*
X2264159Y686310D01*
X2263409Y685310D01*
X2262909Y684143D01*
X2262659Y682810D01*
Y681476D01*
X2262909Y680143D01*
X2263409Y678976D01*
X2264159Y677976D01*
X2265034Y677310D01*
X2266034Y677143D01*
G01X2258534D02*
Y687143D01*
X2255409D01*
X2254409Y686643D01*
X2253784Y685976D01*
X2253534Y684643D01*
X2253784Y683310D01*
X2254534Y682476D01*
X2255409Y681976D01*
X2258534D01*
G01X2255409D02*
X2253534Y677143D01*
G01X2245284Y682143D02*
X2242784D01*
Y679143D01*
X2243534Y678143D01*
X2244409Y677476D01*
X2245659Y677143D01*
X2246909Y677476D01*
X2247784Y678143D01*
X2248534Y679143D01*
X2249034Y680310D01*
X2249284Y681643D01*
Y682810D01*
X2249034Y683809D01*
X2248534Y684976D01*
X2247784Y685976D01*
X2247034Y686643D01*
X2246034Y687143D01*
X2245159D01*
X2244159Y686810D01*
X2243409Y686143D01*
G01X2239159Y677143D02*
X2236034Y687143D01*
X2232909Y677143D01*
G01X2234034Y680643D02*
X2238034D01*
G01X2228909Y677143D02*
Y687143D01*
X2223159Y677143D01*
Y687143D01*
G01X2218409Y677143D02*
Y687143D01*
X2213659D01*
G01X2215409Y682310D02*
X2218409D01*
G01X2208534Y687143D02*
Y677143D01*
X2203534D01*
G01X2199159D02*
X2196034Y687143D01*
X2192909Y677143D01*
G01X2194034Y680643D02*
X2198034D01*
G01X2179159Y687143D02*
X2176034Y677143D01*
X2172909Y687143D01*
G01X2163534Y677143D02*
X2168534D01*
Y687143D01*
X2163534D01*
G01X2165534Y682310D02*
X2168534D01*
G01X2158534Y677143D02*
Y687143D01*
X2155409D01*
X2154409Y686643D01*
X2153784Y685976D01*
X2153534Y684643D01*
X2153784Y683310D01*
X2154534Y682476D01*
X2155409Y681976D01*
X2158534D01*
G01X2155409D02*
X2153534Y677143D01*
G01X2146034Y676810D02*
X2146284Y676976D01*
Y677310D01*
X2146034Y677476D01*
X2145784Y677310D01*
Y676976D01*
X2146034Y676810D01*
G01X2139159Y677143D02*
X2136034Y687143D01*
X2132909Y677143D01*
G01X2134034Y680643D02*
X2138034D01*
G01X2118534Y687143D02*
Y677143D01*
X2113534D01*
G01X2108534D02*
Y687143D01*
X2105534D01*
X2104534Y686643D01*
X2103784Y685476D01*
X2103534Y684143D01*
X2103784Y682810D01*
X2104409Y681810D01*
X2105534Y681309D01*
X2108534D01*
G01X2097534Y687143D02*
X2094534D01*
G01X2096034D02*
Y677143D01*
G01X2097534D02*
X2094534D01*
G01X2075034Y682476D02*
X2074534Y682976D01*
X2074159Y683809D01*
X2073909Y684976D01*
X2074159Y685976D01*
X2074659Y686643D01*
X2075534Y687143D01*
X2078909D01*
Y677143D01*
X2074784D01*
X2073909Y677810D01*
X2073409Y678810D01*
X2073159Y679976D01*
X2073409Y681143D01*
X2074159Y682143D01*
X2075034Y682476D01*
X2078909D01*
G01X2066034Y677143D02*
X2067034Y677310D01*
X2067909Y677976D01*
X2068659Y678976D01*
X2069159Y680143D01*
X2069409Y681476D01*
Y682810D01*
X2069159Y684143D01*
X2068659Y685310D01*
X2067909Y686310D01*
X2067034Y686976D01*
X2066034Y687143D01*
X2065034Y686976D01*
X2064159Y686310D01*
X2063409Y685310D01*
X2062909Y684143D01*
X2062659Y682810D01*
Y681476D01*
X2062909Y680143D01*
X2063409Y678976D01*
X2064159Y677976D01*
X2065034Y677310D01*
X2066034Y677143D01*
G01X2056034Y687143D02*
Y677143D01*
G01X2058909Y687143D02*
X2053159D01*
G01X2046034D02*
Y677143D01*
G01X2048909Y687143D02*
X2043159D01*
G01X2036034Y677143D02*
X2037034Y677310D01*
X2037909Y677976D01*
X2038659Y678976D01*
X2039159Y680143D01*
X2039409Y681476D01*
Y682810D01*
X2039159Y684143D01*
X2038659Y685310D01*
X2037909Y686310D01*
X2037034Y686976D01*
X2036034Y687143D01*
X2035034Y686976D01*
X2034159Y686310D01*
X2033409Y685310D01*
X2032909Y684143D01*
X2032659Y682810D01*
Y681476D01*
X2032909Y680143D01*
X2033409Y678976D01*
X2034159Y677976D01*
X2035034Y677310D01*
X2036034Y677143D01*
G01X2029284D02*
Y687143D01*
X2026034Y678810D01*
X2022784Y687143D01*
Y677143D01*
M02*
