G04 ================== begin FILE IDENTIFICATION RECORD ==================*
G04 Layout Name:  D:/Projects/MORGAN_FPC/PCB/SP1MORGANFLA.brd*
G04 Film Name:    psabotm*
G04 File Format:  Gerber RS274X*
G04 File Origin:  Cadence Allegro 17.2-S053*
G04 Origin Date:  Wed Mar 03 11:52:20 2021*
G04 *
G04 Layer:  RIGID FLEX/PSA_BOTTOM*
G04 Layer:  BOARD GEOMETRY/OUTLINE*
G04 *
G04 Offset:    (0.00 0.00)*
G04 Mirror:    No*
G04 Mode:      Positive*
G04 Rotation:  0*
G04 FullContactRelief:  No*
G04 UndefLineWidth:     6.00*
G04 ================== end FILE IDENTIFICATION RECORD ====================*
%FSLAX25Y25*MOIN*%
%IR0*IPPOS*OFA0.00000B0.00000*MIA0B0*SFA1.00000B1.00000*%
%ADD10C,.0004*%
%ADD11C,.006*%
G75*
%LPD*%
G75*
G36*
G01X2024751Y764323D02*
Y748575D01*
X2274569D01*
Y764323D01*
X2024751D01*
G37*
G54D10*
G01X2318153Y738339D02*
Y784008D01*
G03X2314216Y787945I-3937J0D01*
G01X2192137D01*
G03X2149554Y769980I0J-59449D01*
G02X2145324Y768195I-4230J4121D01*
G01X2123671D01*
G02X2119441Y769980I0J5906D01*
G03X2076858Y787945I-42583J-41484D01*
G01X1992090D01*
G03X1988153Y784008I0J-3937D01*
G01Y738339D01*
G03X1992090Y734402I3937J0D01*
G01X2075226D01*
G02X2082107Y731596I-1J-9842D01*
G03X2123671Y714652I41563J42505D01*
G01X2145324D01*
G03X2186888Y731596I1J59449D01*
G02X2193769Y734402I6882J-7036D01*
G01X2314216D01*
G03X2318153Y738339I0J3937D01*
G54D11*
G01X2304407Y687121D02*
X2303407Y686288D01*
X2302282Y685788D01*
X2301282D01*
X2300282Y686288D01*
X2299532Y687121D01*
X2299157Y688288D01*
X2299407Y689454D01*
X2300032Y690455D01*
X2301157Y691121D01*
X2302657Y691455D01*
X2303532Y692121D01*
X2303907Y693288D01*
X2303657Y694455D01*
X2303032Y695288D01*
X2302157Y695788D01*
X2301282D01*
X2300407Y695455D01*
X2299657Y694621D01*
G01X2294282Y685788D02*
Y695788D01*
X2291282D01*
X2290282Y695288D01*
X2289532Y694121D01*
X2289282Y692788D01*
X2289532Y691455D01*
X2290157Y690455D01*
X2291282Y689954D01*
X2294282D01*
G01X2281782Y685788D02*
Y695788D01*
X2283282Y693788D01*
G01Y685788D02*
X2280282D01*
G01X2275032D02*
Y695788D01*
X2271782Y687455D01*
X2268532Y695788D01*
Y685788D01*
G01X2261782D02*
X2262782Y685955D01*
X2263657Y686621D01*
X2264407Y687621D01*
X2264907Y688788D01*
X2265157Y690121D01*
Y691455D01*
X2264907Y692788D01*
X2264407Y693955D01*
X2263657Y694955D01*
X2262782Y695621D01*
X2261782Y695788D01*
X2260782Y695621D01*
X2259907Y694955D01*
X2259157Y693955D01*
X2258657Y692788D01*
X2258407Y691455D01*
Y690121D01*
X2258657Y688788D01*
X2259157Y687621D01*
X2259907Y686621D01*
X2260782Y685955D01*
X2261782Y685788D01*
G01X2254282D02*
Y695788D01*
X2251157D01*
X2250157Y695288D01*
X2249532Y694621D01*
X2249282Y693288D01*
X2249532Y691955D01*
X2250282Y691121D01*
X2251157Y690621D01*
X2254282D01*
G01X2251157D02*
X2249282Y685788D01*
G01X2241032Y690788D02*
X2238532D01*
Y687788D01*
X2239282Y686788D01*
X2240157Y686121D01*
X2241407Y685788D01*
X2242657Y686121D01*
X2243532Y686788D01*
X2244282Y687788D01*
X2244782Y688955D01*
X2245032Y690288D01*
Y691455D01*
X2244782Y692454D01*
X2244282Y693621D01*
X2243532Y694621D01*
X2242782Y695288D01*
X2241782Y695788D01*
X2240907D01*
X2239907Y695455D01*
X2239157Y694788D01*
G01X2234907Y685788D02*
X2231782Y695788D01*
X2228657Y685788D01*
G01X2229782Y689288D02*
X2233782D01*
G01X2224657Y685788D02*
Y695788D01*
X2218907Y685788D01*
Y695788D01*
G01X2214157Y685788D02*
Y695788D01*
X2209407D01*
G01X2211157Y690955D02*
X2214157D01*
G01X2204282Y695788D02*
Y685788D01*
X2199282D01*
G01X2194907D02*
X2191782Y695788D01*
X2188657Y685788D01*
G01X2189782Y689288D02*
X2193782D01*
G01X2174907Y695788D02*
X2171782Y685788D01*
X2168657Y695788D01*
G01X2159282Y685788D02*
X2164282D01*
Y695788D01*
X2159282D01*
G01X2161282Y690955D02*
X2164282D01*
G01X2154282Y685788D02*
Y695788D01*
X2151157D01*
X2150157Y695288D01*
X2149532Y694621D01*
X2149282Y693288D01*
X2149532Y691955D01*
X2150282Y691121D01*
X2151157Y690621D01*
X2154282D01*
G01X2151157D02*
X2149282Y685788D01*
G01X2141782Y685455D02*
X2142032Y685621D01*
Y685955D01*
X2141782Y686121D01*
X2141532Y685955D01*
Y685621D01*
X2141782Y685455D01*
G01X2134907Y685788D02*
X2131782Y695788D01*
X2128657Y685788D01*
G01X2129782Y689288D02*
X2133782D01*
G01X2114282Y685788D02*
Y695788D01*
X2111282D01*
X2110282Y695288D01*
X2109532Y694121D01*
X2109282Y692788D01*
X2109532Y691455D01*
X2110157Y690455D01*
X2111282Y689954D01*
X2114282D01*
G01X2104407Y687121D02*
X2103407Y686288D01*
X2102282Y685788D01*
X2101282D01*
X2100282Y686288D01*
X2099532Y687121D01*
X2099157Y688288D01*
X2099407Y689454D01*
X2100032Y690455D01*
X2101157Y691121D01*
X2102657Y691455D01*
X2103532Y692121D01*
X2103907Y693288D01*
X2103657Y694455D01*
X2103032Y695288D01*
X2102157Y695788D01*
X2101282D01*
X2100407Y695455D01*
X2099657Y694621D01*
G01X2094907Y685788D02*
X2091782Y695788D01*
X2088657Y685788D01*
G01X2089782Y689288D02*
X2093782D01*
G01X2070782Y691121D02*
X2070282Y691621D01*
X2069907Y692454D01*
X2069657Y693621D01*
X2069907Y694621D01*
X2070407Y695288D01*
X2071282Y695788D01*
X2074657D01*
Y685788D01*
X2070532D01*
X2069657Y686455D01*
X2069157Y687455D01*
X2068907Y688621D01*
X2069157Y689788D01*
X2069907Y690788D01*
X2070782Y691121D01*
X2074657D01*
G01X2061782Y685788D02*
X2062782Y685955D01*
X2063657Y686621D01*
X2064407Y687621D01*
X2064907Y688788D01*
X2065157Y690121D01*
Y691455D01*
X2064907Y692788D01*
X2064407Y693955D01*
X2063657Y694955D01*
X2062782Y695621D01*
X2061782Y695788D01*
X2060782Y695621D01*
X2059907Y694955D01*
X2059157Y693955D01*
X2058657Y692788D01*
X2058407Y691455D01*
Y690121D01*
X2058657Y688788D01*
X2059157Y687621D01*
X2059907Y686621D01*
X2060782Y685955D01*
X2061782Y685788D01*
G01X2051782Y695788D02*
Y685788D01*
G01X2054657Y695788D02*
X2048907D01*
G01X2041782D02*
Y685788D01*
G01X2044657Y695788D02*
X2038907D01*
G01X2031782Y685788D02*
X2032782Y685955D01*
X2033657Y686621D01*
X2034407Y687621D01*
X2034907Y688788D01*
X2035157Y690121D01*
Y691455D01*
X2034907Y692788D01*
X2034407Y693955D01*
X2033657Y694955D01*
X2032782Y695621D01*
X2031782Y695788D01*
X2030782Y695621D01*
X2029907Y694955D01*
X2029157Y693955D01*
X2028657Y692788D01*
X2028407Y691455D01*
Y690121D01*
X2028657Y688788D01*
X2029157Y687621D01*
X2029907Y686621D01*
X2030782Y685955D01*
X2031782Y685788D01*
G01X2025032D02*
Y695788D01*
X2021782Y687455D01*
X2018532Y695788D01*
Y685788D01*
M02*
