G04 ================== begin FILE IDENTIFICATION RECORD ==================*
G04 Layout Name:  D:/Projects/MORGAN_FPC/PCB/SP1MORGANFLA.brd*
G04 Film Name:    shieldbotm*
G04 File Format:  Gerber RS274X*
G04 File Origin:  Cadence Allegro 17.2-S053*
G04 Origin Date:  Wed Mar 03 11:52:20 2021*
G04 *
G04 Layer:  RIGID FLEX/EMI_SHIELD_BOTTOM*
G04 Layer:  BOARD GEOMETRY/OUTLINE*
G04 *
G04 Offset:    (0.00 0.00)*
G04 Mirror:    No*
G04 Mode:      Positive*
G04 Rotation:  0*
G04 FullContactRelief:  No*
G04 UndefLineWidth:     6.00*
G04 ================== end FILE IDENTIFICATION RECORD ====================*
%FSLAX25Y25*MOIN*%
%IR0*IPPOS*OFA0.00000B0.00000*MIA0B0*SFA1.00000B1.00000*%
%ADD10C,.0004*%
%ADD11C,.006*%
G75*
%LPD*%
G75*
G36*
G01X2020927Y787945D02*
X2077347D01*
G02X2119930Y769981I-12J-59481D01*
G03X2124159Y768195I4228J4112D01*
G01X2145813D01*
G03X2150043Y769981I13J5872D01*
G02X2189784Y787877I42554J-41424D01*
G01X2278203D01*
Y734402D01*
X2194258D01*
G03X2187377Y731597I0J-9842D01*
G02X2145813Y714653I-41567J42513D01*
G01X2124160D01*
G02X2082596Y731597I8J59469D01*
G03X2075715Y734403I-6880J-7032D01*
G01X2020927D01*
Y787945D01*
G37*
G54D10*
G01X2318153Y738339D02*
Y784008D01*
G03X2314216Y787945I-3937J0D01*
G01X2192137D01*
G03X2149554Y769980I0J-59449D01*
G02X2145324Y768195I-4230J4121D01*
G01X2123671D01*
G02X2119441Y769980I0J5906D01*
G03X2076858Y787945I-42583J-41484D01*
G01X1992090D01*
G03X1988153Y784008I0J-3937D01*
G01Y738339D01*
G03X1992090Y734402I3937J0D01*
G01X2075226D01*
G02X2082107Y731596I-1J-9842D01*
G03X2123671Y714652I41563J42505D01*
G01X2145324D01*
G03X2186888Y731596I1J59449D01*
G02X2193769Y734402I6882J-7036D01*
G01X2314216D01*
G03X2318153Y738339I0J3937D01*
G54D11*
G01X2309324Y669166D02*
X2308324Y668333D01*
X2307199Y667833D01*
X2306199D01*
X2305199Y668333D01*
X2304449Y669166D01*
X2304074Y670333D01*
X2304324Y671499D01*
X2304949Y672500D01*
X2306074Y673166D01*
X2307574Y673500D01*
X2308449Y674166D01*
X2308824Y675333D01*
X2308574Y676500D01*
X2307949Y677333D01*
X2307074Y677833D01*
X2306199D01*
X2305324Y677500D01*
X2304574Y676666D01*
G01X2299199Y667833D02*
Y677833D01*
X2296199D01*
X2295199Y677333D01*
X2294449Y676166D01*
X2294199Y674833D01*
X2294449Y673500D01*
X2295074Y672500D01*
X2296199Y671999D01*
X2299199D01*
G01X2286699Y667833D02*
Y677833D01*
X2288199Y675833D01*
G01Y667833D02*
X2285199D01*
G01X2279949D02*
Y677833D01*
X2276699Y669500D01*
X2273449Y677833D01*
Y667833D01*
G01X2266699D02*
X2267699Y668000D01*
X2268574Y668666D01*
X2269324Y669666D01*
X2269824Y670833D01*
X2270074Y672166D01*
Y673500D01*
X2269824Y674833D01*
X2269324Y676000D01*
X2268574Y677000D01*
X2267699Y677666D01*
X2266699Y677833D01*
X2265699Y677666D01*
X2264824Y677000D01*
X2264074Y676000D01*
X2263574Y674833D01*
X2263324Y673500D01*
Y672166D01*
X2263574Y670833D01*
X2264074Y669666D01*
X2264824Y668666D01*
X2265699Y668000D01*
X2266699Y667833D01*
G01X2259199D02*
Y677833D01*
X2256074D01*
X2255074Y677333D01*
X2254449Y676666D01*
X2254199Y675333D01*
X2254449Y674000D01*
X2255199Y673166D01*
X2256074Y672666D01*
X2259199D01*
G01X2256074D02*
X2254199Y667833D01*
G01X2245949Y672833D02*
X2243449D01*
Y669833D01*
X2244199Y668833D01*
X2245074Y668166D01*
X2246324Y667833D01*
X2247574Y668166D01*
X2248449Y668833D01*
X2249199Y669833D01*
X2249699Y671000D01*
X2249949Y672333D01*
Y673500D01*
X2249699Y674499D01*
X2249199Y675666D01*
X2248449Y676666D01*
X2247699Y677333D01*
X2246699Y677833D01*
X2245824D01*
X2244824Y677500D01*
X2244074Y676833D01*
G01X2239824Y667833D02*
X2236699Y677833D01*
X2233574Y667833D01*
G01X2234699Y671333D02*
X2238699D01*
G01X2229574Y667833D02*
Y677833D01*
X2223824Y667833D01*
Y677833D01*
G01X2219074Y667833D02*
Y677833D01*
X2214324D01*
G01X2216074Y673000D02*
X2219074D01*
G01X2209199Y677833D02*
Y667833D01*
X2204199D01*
G01X2199824D02*
X2196699Y677833D01*
X2193574Y667833D01*
G01X2194699Y671333D02*
X2198699D01*
G01X2179824Y677833D02*
X2176699Y667833D01*
X2173574Y677833D01*
G01X2164199Y667833D02*
X2169199D01*
Y677833D01*
X2164199D01*
G01X2166199Y673000D02*
X2169199D01*
G01X2159199Y667833D02*
Y677833D01*
X2156074D01*
X2155074Y677333D01*
X2154449Y676666D01*
X2154199Y675333D01*
X2154449Y674000D01*
X2155199Y673166D01*
X2156074Y672666D01*
X2159199D01*
G01X2156074D02*
X2154199Y667833D01*
G01X2146699Y667500D02*
X2146949Y667666D01*
Y668000D01*
X2146699Y668166D01*
X2146449Y668000D01*
Y667666D01*
X2146699Y667500D01*
G01X2139824Y667833D02*
X2136699Y677833D01*
X2133574Y667833D01*
G01X2134699Y671333D02*
X2138699D01*
G01X2119324Y669166D02*
X2118324Y668333D01*
X2117199Y667833D01*
X2116199D01*
X2115199Y668333D01*
X2114449Y669166D01*
X2114074Y670333D01*
X2114324Y671499D01*
X2114949Y672500D01*
X2116074Y673166D01*
X2117574Y673500D01*
X2118449Y674166D01*
X2118824Y675333D01*
X2118574Y676500D01*
X2117949Y677333D01*
X2117074Y677833D01*
X2116199D01*
X2115324Y677500D01*
X2114574Y676666D01*
G01X2109324Y667833D02*
Y677833D01*
G01X2104074D02*
Y667833D01*
G01Y672833D02*
X2109324D01*
G01X2098199Y677833D02*
X2095199D01*
G01X2096699D02*
Y667833D01*
G01X2098199D02*
X2095199D01*
G01X2084199D02*
X2089199D01*
Y677833D01*
X2084199D01*
G01X2086199Y673000D02*
X2089199D01*
G01X2079199Y677833D02*
Y667833D01*
X2074199D01*
G01X2069449D02*
Y677833D01*
X2066949D01*
X2065949Y677333D01*
X2065199Y676666D01*
X2064574Y675666D01*
X2064074Y674499D01*
X2063949Y672833D01*
X2064074Y671166D01*
X2064574Y670000D01*
X2065199Y668999D01*
X2065949Y668333D01*
X2066949Y667833D01*
X2069449D01*
G01X2045699Y673166D02*
X2045199Y673666D01*
X2044824Y674499D01*
X2044574Y675666D01*
X2044824Y676666D01*
X2045324Y677333D01*
X2046199Y677833D01*
X2049574D01*
Y667833D01*
X2045449D01*
X2044574Y668500D01*
X2044074Y669500D01*
X2043824Y670666D01*
X2044074Y671833D01*
X2044824Y672833D01*
X2045699Y673166D01*
X2049574D01*
G01X2036699Y667833D02*
X2037699Y668000D01*
X2038574Y668666D01*
X2039324Y669666D01*
X2039824Y670833D01*
X2040074Y672166D01*
Y673500D01*
X2039824Y674833D01*
X2039324Y676000D01*
X2038574Y677000D01*
X2037699Y677666D01*
X2036699Y677833D01*
X2035699Y677666D01*
X2034824Y677000D01*
X2034074Y676000D01*
X2033574Y674833D01*
X2033324Y673500D01*
Y672166D01*
X2033574Y670833D01*
X2034074Y669666D01*
X2034824Y668666D01*
X2035699Y668000D01*
X2036699Y667833D01*
G01X2026699Y677833D02*
Y667833D01*
G01X2029574Y677833D02*
X2023824D01*
G01X2016699D02*
Y667833D01*
G01X2019574Y677833D02*
X2013824D01*
G01X2006699Y667833D02*
X2007699Y668000D01*
X2008574Y668666D01*
X2009324Y669666D01*
X2009824Y670833D01*
X2010074Y672166D01*
Y673500D01*
X2009824Y674833D01*
X2009324Y676000D01*
X2008574Y677000D01*
X2007699Y677666D01*
X2006699Y677833D01*
X2005699Y677666D01*
X2004824Y677000D01*
X2004074Y676000D01*
X2003574Y674833D01*
X2003324Y673500D01*
Y672166D01*
X2003574Y670833D01*
X2004074Y669666D01*
X2004824Y668666D01*
X2005699Y668000D01*
X2006699Y667833D01*
G01X1999949D02*
Y677833D01*
X1996699Y669500D01*
X1993449Y677833D01*
Y667833D01*
M02*
