G04 ================== begin FILE IDENTIFICATION RECORD ==================*
G04 Layout Name:  D:/Projects/MORGAN_FPC/PCB/SP1MORGANFLA.brd*
G04 Film Name:    silktop*
G04 File Format:  Gerber RS274X*
G04 File Origin:  Cadence Allegro 17.2-S053*
G04 Origin Date:  Wed Mar 03 11:52:20 2021*
G04 *
G04 Layer:  REF DES/SILKSCREEN_TOP*
G04 Layer:  PACKAGE GEOMETRY/SILKSCREEN_TOP*
G04 Layer:  BOARD GEOMETRY/SILKSCREEN_TOP*
G04 Layer:  BOARD GEOMETRY/OUTLINE*
G04 *
G04 Offset:    (0.00 0.00)*
G04 Mirror:    No*
G04 Mode:      Positive*
G04 Rotation:  0*
G04 FullContactRelief:  No*
G04 UndefLineWidth:     6.00*
G04 ================== end FILE IDENTIFICATION RECORD ====================*
%FSLAX25Y25*MOIN*%
%IR0*IPPOS*OFA0.00000B0.00000*MIA0B0*SFA1.00000B1.00000*%
%ADD10C,.0004*%
%ADD11C,.006*%
G75*
%LPD*%
G75*
G36*
G01X2023570Y787945D02*
Y734402D01*
X2024357D01*
Y787945D01*
X2023570D01*
G37*
G36*
G01X2274963D02*
Y734402D01*
X2275750D01*
Y787945D01*
X2274963D01*
G37*
G54D10*
G01X2318153Y738339D02*
Y784008D01*
G03X2314216Y787945I-3937J0D01*
G01X2192137D01*
G03X2149554Y769980I0J-59449D01*
G02X2145324Y768195I-4230J4121D01*
G01X2123671D01*
G02X2119441Y769980I0J5906D01*
G03X2076858Y787945I-42583J-41484D01*
G01X1992090D01*
G03X1988153Y784008I0J-3937D01*
G01Y738339D01*
G03X1992090Y734402I3937J0D01*
G01X2075226D01*
G02X2082107Y731596I-1J-9842D01*
G03X2123671Y714652I41563J42505D01*
G01X2145324D01*
G03X2186888Y731596I1J59449D01*
G02X2193769Y734402I6882J-7036D01*
G01X2314216D01*
G03X2318153Y738339I0J3937D01*
G54D11*
G01X2008028Y653535D02*
X2009028Y652702D01*
X2010153Y652202D01*
X2011153D01*
X2012153Y652702D01*
X2012903Y653535D01*
X2013278Y654702D01*
X2013028Y655868D01*
X2012403Y656869D01*
X2011278Y657535D01*
X2009778Y657869D01*
X2008903Y658535D01*
X2008528Y659702D01*
X2008778Y660869D01*
X2009403Y661702D01*
X2010278Y662202D01*
X2011153D01*
X2012028Y661869D01*
X2012778Y661035D01*
G01X2018153Y652202D02*
Y662202D01*
X2021153D01*
X2022153Y661702D01*
X2022903Y660535D01*
X2023153Y659202D01*
X2022903Y657869D01*
X2022278Y656869D01*
X2021153Y656368D01*
X2018153D01*
G01X2033153Y652202D02*
X2028153D01*
Y662202D01*
X2033153D01*
G01X2031153Y657369D02*
X2028153D01*
G01X2038153Y662202D02*
Y652202D01*
X2043153D01*
G01X2048153Y662202D02*
Y652202D01*
X2053153D01*
G01X2067403D02*
Y662202D01*
X2070653Y653869D01*
X2073903Y662202D01*
Y652202D01*
G01X2080653D02*
X2079653Y652369D01*
X2078778Y653035D01*
X2078028Y654035D01*
X2077528Y655202D01*
X2077278Y656535D01*
Y657869D01*
X2077528Y659202D01*
X2078028Y660369D01*
X2078778Y661369D01*
X2079653Y662035D01*
X2080653Y662202D01*
X2081653Y662035D01*
X2082528Y661369D01*
X2083278Y660369D01*
X2083778Y659202D01*
X2084028Y657869D01*
Y656535D01*
X2083778Y655202D01*
X2083278Y654035D01*
X2082528Y653035D01*
X2081653Y652369D01*
X2080653Y652202D01*
G01X2087903D02*
Y662202D01*
X2090403D01*
X2091403Y661702D01*
X2092153Y661035D01*
X2092778Y660035D01*
X2093278Y658868D01*
X2093403Y657202D01*
X2093278Y655535D01*
X2092778Y654369D01*
X2092153Y653368D01*
X2091403Y652702D01*
X2090403Y652202D01*
X2087903D01*
G01X2103153D02*
X2098153D01*
Y662202D01*
X2103153D01*
G01X2101153Y657369D02*
X2098153D01*
G01X2110653Y651869D02*
X2110403Y652035D01*
Y652369D01*
X2110653Y652535D01*
X2110903Y652369D01*
Y652035D01*
X2110653Y651869D01*
G01Y656368D02*
X2110403Y656535D01*
Y656869D01*
X2110653Y657035D01*
X2110903Y656869D01*
Y656535D01*
X2110653Y656368D01*
G01X2120653Y652202D02*
Y662202D01*
X2119153Y660202D01*
G01Y652202D02*
X2122153D01*
G01X2127903Y651869D02*
X2133403Y659202D01*
G01X2130653Y660535D02*
Y650535D01*
G01X2133403Y651869D02*
X2127903Y659202D01*
G01X2126903Y655535D02*
X2134403D01*
G01X2140653Y652202D02*
Y662202D01*
X2139153Y660202D01*
G01Y652202D02*
X2142153D01*
G01X2008028Y628535D02*
X2009028Y627702D01*
X2010153Y627202D01*
X2011153D01*
X2012153Y627702D01*
X2012903Y628535D01*
X2013278Y629702D01*
X2013028Y630868D01*
X2012403Y631869D01*
X2011278Y632535D01*
X2009778Y632869D01*
X2008903Y633535D01*
X2008528Y634702D01*
X2008778Y635869D01*
X2009403Y636702D01*
X2010278Y637202D01*
X2011153D01*
X2012028Y636869D01*
X2012778Y636035D01*
G01X2018153Y627202D02*
Y637202D01*
X2021153D01*
X2022153Y636702D01*
X2022903Y635535D01*
X2023153Y634202D01*
X2022903Y632869D01*
X2022278Y631869D01*
X2021153Y631368D01*
X2018153D01*
G01X2030653Y627202D02*
Y637202D01*
X2029153Y635202D01*
G01Y627202D02*
X2032153D01*
G01X2037403D02*
Y637202D01*
X2040653Y628869D01*
X2043903Y637202D01*
Y627202D01*
G01X2050653D02*
X2049653Y627369D01*
X2048778Y628035D01*
X2048028Y629035D01*
X2047528Y630202D01*
X2047278Y631535D01*
Y632869D01*
X2047528Y634202D01*
X2048028Y635369D01*
X2048778Y636369D01*
X2049653Y637035D01*
X2050653Y637202D01*
X2051653Y637035D01*
X2052528Y636369D01*
X2053278Y635369D01*
X2053778Y634202D01*
X2054028Y632869D01*
Y631535D01*
X2053778Y630202D01*
X2053278Y629035D01*
X2052528Y628035D01*
X2051653Y627369D01*
X2050653Y627202D01*
G01X2058153D02*
Y637202D01*
X2061278D01*
X2062278Y636702D01*
X2062903Y636035D01*
X2063153Y634702D01*
X2062903Y633369D01*
X2062153Y632535D01*
X2061278Y632035D01*
X2058153D01*
G01X2061278D02*
X2063153Y627202D01*
G01X2071403Y632202D02*
X2073903D01*
Y629202D01*
X2073153Y628202D01*
X2072278Y627535D01*
X2071028Y627202D01*
X2069778Y627535D01*
X2068903Y628202D01*
X2068153Y629202D01*
X2067653Y630369D01*
X2067403Y631702D01*
Y632869D01*
X2067653Y633868D01*
X2068153Y635035D01*
X2068903Y636035D01*
X2069653Y636702D01*
X2070653Y637202D01*
X2071528D01*
X2072528Y636869D01*
X2073278Y636202D01*
G01X2077528Y627202D02*
X2080653Y637202D01*
X2083778Y627202D01*
G01X2082653Y630702D02*
X2078653D01*
G01X2087778Y627202D02*
Y637202D01*
X2093528Y627202D01*
Y637202D01*
G01X2098278Y627202D02*
Y637202D01*
X2103028D01*
G01X2101278Y632369D02*
X2098278D01*
G01X2108153Y637202D02*
Y627202D01*
X2113153D01*
G01X2117528D02*
X2120653Y637202D01*
X2123778Y627202D01*
G01X2122653Y630702D02*
X2118653D01*
G01X2137528Y637202D02*
X2140653Y627202D01*
X2143778Y637202D01*
G01X2153153Y627202D02*
X2148153D01*
Y637202D01*
X2153153D01*
G01X2151153Y632369D02*
X2148153D01*
G01X2158153Y627202D02*
Y637202D01*
X2161278D01*
X2162278Y636702D01*
X2162903Y636035D01*
X2163153Y634702D01*
X2162903Y633369D01*
X2162153Y632535D01*
X2161278Y632035D01*
X2158153D01*
G01X2161278D02*
X2163153Y627202D01*
G01X2170653Y626869D02*
X2170403Y627035D01*
Y627369D01*
X2170653Y627535D01*
X2170903Y627369D01*
Y627035D01*
X2170653Y626869D01*
G01X2177528Y627202D02*
X2180653Y637202D01*
X2183778Y627202D01*
G01X2182653Y630702D02*
X2178653D01*
G01X2198028Y628535D02*
X2199028Y627702D01*
X2200153Y627202D01*
X2201153D01*
X2202153Y627702D01*
X2202903Y628535D01*
X2203278Y629702D01*
X2203028Y630868D01*
X2202403Y631869D01*
X2201278Y632535D01*
X2199778Y632869D01*
X2198903Y633535D01*
X2198528Y634702D01*
X2198778Y635869D01*
X2199403Y636702D01*
X2200278Y637202D01*
X2201153D01*
X2202028Y636869D01*
X2202778Y636035D01*
G01X2209153Y637202D02*
X2212153D01*
G01X2210653D02*
Y627202D01*
G01X2209153D02*
X2212153D01*
G01X2218153Y637202D02*
Y627202D01*
X2223153D01*
G01X2227903D02*
Y637202D01*
G01X2232653D02*
X2227903Y631035D01*
G01X2233403Y627202D02*
X2230028Y633868D01*
G01X2238028Y628535D02*
X2239028Y627702D01*
X2240153Y627202D01*
X2241153D01*
X2242153Y627702D01*
X2242903Y628535D01*
X2243278Y629702D01*
X2243028Y630868D01*
X2242403Y631869D01*
X2241278Y632535D01*
X2239778Y632869D01*
X2238903Y633535D01*
X2238528Y634702D01*
X2238778Y635869D01*
X2239403Y636702D01*
X2240278Y637202D01*
X2241153D01*
X2242028Y636869D01*
X2242778Y636035D01*
G01X2253403Y636369D02*
X2252653Y636869D01*
X2251778Y637202D01*
X2250778D01*
X2249653Y636702D01*
X2248778Y635869D01*
X2248153Y634869D01*
X2247653Y633202D01*
X2247528Y631702D01*
X2247778Y630202D01*
X2248153Y629202D01*
X2248903Y628202D01*
X2249778Y627535D01*
X2250653Y627202D01*
X2251528D01*
X2252403Y627535D01*
X2253153Y628035D01*
X2253778Y628702D01*
G01X2258153Y627202D02*
Y637202D01*
X2261278D01*
X2262278Y636702D01*
X2262903Y636035D01*
X2263153Y634702D01*
X2262903Y633369D01*
X2262153Y632535D01*
X2261278Y632035D01*
X2258153D01*
G01X2261278D02*
X2263153Y627202D01*
G01X2273153D02*
X2268153D01*
Y637202D01*
X2273153D01*
G01X2271153Y632369D02*
X2268153D01*
G01X2283153Y627202D02*
X2278153D01*
Y637202D01*
X2283153D01*
G01X2281153Y632369D02*
X2278153D01*
G01X2287778Y627202D02*
Y637202D01*
X2293528Y627202D01*
Y637202D01*
G01X2310653D02*
Y627202D01*
G01X2307778Y637202D02*
X2313528D01*
G01X2320653Y627202D02*
X2319653Y627369D01*
X2318778Y628035D01*
X2318028Y629035D01*
X2317528Y630202D01*
X2317278Y631535D01*
Y632869D01*
X2317528Y634202D01*
X2318028Y635369D01*
X2318778Y636369D01*
X2319653Y637035D01*
X2320653Y637202D01*
X2321653Y637035D01*
X2322528Y636369D01*
X2323278Y635369D01*
X2323778Y634202D01*
X2324028Y632869D01*
Y631535D01*
X2323778Y630202D01*
X2323278Y629035D01*
X2322528Y628035D01*
X2321653Y627369D01*
X2320653Y627202D01*
G01X2328153D02*
Y637202D01*
X2331153D01*
X2332153Y636702D01*
X2332903Y635535D01*
X2333153Y634202D01*
X2332903Y632869D01*
X2332278Y631869D01*
X2331153Y631368D01*
X2328153D01*
G01X2085736Y752190D02*
X2086736Y751357D01*
X2087861Y750857D01*
X2088861D01*
X2089861Y751357D01*
X2090611Y752190D01*
X2090986Y753357D01*
X2090736Y754523D01*
X2090111Y755524D01*
X2088986Y756190D01*
X2087486Y756524D01*
X2086611Y757190D01*
X2086236Y758357D01*
X2086486Y759524D01*
X2087111Y760357D01*
X2087986Y760857D01*
X2088861D01*
X2089736Y760524D01*
X2090486Y759690D01*
G01X2095861Y750857D02*
Y760857D01*
X2098861D01*
X2099861Y760357D01*
X2100611Y759190D01*
X2100861Y757857D01*
X2100611Y756524D01*
X2099986Y755524D01*
X2098861Y755023D01*
X2095861D01*
G01X2108361Y750857D02*
Y760857D01*
X2106861Y758857D01*
G01Y750857D02*
X2109861D01*
G01X2115111D02*
Y760857D01*
X2118361Y752524D01*
X2121611Y760857D01*
Y750857D01*
G01X2128361D02*
X2127361Y751024D01*
X2126486Y751690D01*
X2125736Y752690D01*
X2125236Y753857D01*
X2124986Y755190D01*
Y756524D01*
X2125236Y757857D01*
X2125736Y759024D01*
X2126486Y760024D01*
X2127361Y760690D01*
X2128361Y760857D01*
X2129361Y760690D01*
X2130236Y760024D01*
X2130986Y759024D01*
X2131486Y757857D01*
X2131736Y756524D01*
Y755190D01*
X2131486Y753857D01*
X2130986Y752690D01*
X2130236Y751690D01*
X2129361Y751024D01*
X2128361Y750857D01*
G01X2135861D02*
Y760857D01*
X2138986D01*
X2139986Y760357D01*
X2140611Y759690D01*
X2140861Y758357D01*
X2140611Y757024D01*
X2139861Y756190D01*
X2138986Y755690D01*
X2135861D01*
G01X2138986D02*
X2140861Y750857D01*
G01X2149111Y755857D02*
X2151611D01*
Y752857D01*
X2150861Y751857D01*
X2149986Y751190D01*
X2148736Y750857D01*
X2147486Y751190D01*
X2146611Y751857D01*
X2145861Y752857D01*
X2145361Y754024D01*
X2145111Y755357D01*
Y756524D01*
X2145361Y757523D01*
X2145861Y758690D01*
X2146611Y759690D01*
X2147361Y760357D01*
X2148361Y760857D01*
X2149236D01*
X2150236Y760524D01*
X2150986Y759857D01*
G01X2155236Y750857D02*
X2158361Y760857D01*
X2161486Y750857D01*
G01X2160361Y754357D02*
X2156361D01*
G01X2165486Y750857D02*
Y760857D01*
X2171236Y750857D01*
Y760857D01*
G01X2175986Y750857D02*
Y760857D01*
X2180736D01*
G01X2178986Y756024D02*
X2175986D01*
G01X2185861Y760857D02*
Y750857D01*
X2190861D01*
G01X2195236D02*
X2198361Y760857D01*
X2201486Y750857D01*
G01X2200361Y754357D02*
X2196361D01*
G01X2051803Y782653D02*
Y775486D01*
X2052303Y773986D01*
X2053303Y772986D01*
X2054553Y772653D01*
X2055803Y772986D01*
X2056803Y773986D01*
X2057303Y775486D01*
Y782653D01*
G01X2065553Y777986D02*
X2066053Y778486D01*
X2066428Y779319D01*
X2066678Y780486D01*
X2066428Y781486D01*
X2065928Y782153D01*
X2065053Y782653D01*
X2061678D01*
Y772653D01*
X2065803D01*
X2066678Y773320D01*
X2067178Y774320D01*
X2067428Y775486D01*
X2067178Y776653D01*
X2066428Y777653D01*
X2065553Y777986D01*
X2061678D01*
G01X2100607Y737921D02*
X2103732Y727921D01*
X2106857Y737921D01*
G01X2116232Y727921D02*
X2111232D01*
Y737921D01*
X2116232D01*
G01X2114232Y733088D02*
X2111232D01*
G01X2121232Y727921D02*
Y737921D01*
X2124357D01*
X2125357Y737421D01*
X2125982Y736754D01*
X2126232Y735421D01*
X2125982Y734088D01*
X2125232Y733254D01*
X2124357Y732754D01*
X2121232D01*
G01X2124357D02*
X2126232Y727921D01*
G01X2133732Y727588D02*
X2133482Y727754D01*
Y728088D01*
X2133732Y728254D01*
X2133982Y728088D01*
Y727754D01*
X2133732Y727588D01*
G01X2140607Y727921D02*
X2143732Y737921D01*
X2146857Y727921D01*
G01X2145732Y731421D02*
X2141732D01*
G01X2161107Y727921D02*
Y737921D01*
G01X2166357D02*
Y727921D01*
G01Y732921D02*
X2161107D01*
G01X2171357Y727921D02*
Y737921D01*
X2176107D01*
G01X2174357Y733088D02*
X2171357D01*
G01X2243065Y773045D02*
Y783045D01*
X2246315Y774712D01*
X2249565Y783045D01*
Y773045D01*
G01X2257315Y778378D02*
X2257815Y778878D01*
X2258190Y779711D01*
X2258440Y780878D01*
X2258190Y781878D01*
X2257690Y782545D01*
X2256815Y783045D01*
X2253440D01*
Y773045D01*
X2257565D01*
X2258440Y773712D01*
X2258940Y774712D01*
X2259190Y775878D01*
X2258940Y777045D01*
X2258190Y778045D01*
X2257315Y778378D01*
X2253440D01*
M02*
