G04 ================== begin FILE IDENTIFICATION RECORD ==================*
G04 Layout Name:  D:/Projects/MORGAN_FPC/PCB/SP1MORGANFLA.brd*
G04 Film Name:    stiffenertop*
G04 File Format:  Gerber RS274X*
G04 File Origin:  Cadence Allegro 17.2-S053*
G04 Origin Date:  Wed Mar 03 11:52:20 2021*
G04 *
G04 Layer:  RIGID FLEX/STIFFENER_TOP*
G04 Layer:  BOARD GEOMETRY/OUTLINE*
G04 *
G04 Offset:    (0.00 0.00)*
G04 Mirror:    No*
G04 Mode:      Positive*
G04 Rotation:  0*
G04 FullContactRelief:  No*
G04 UndefLineWidth:     6.00*
G04 ================== end FILE IDENTIFICATION RECORD ====================*
%FSLAX25Y25*MOIN*%
%IR0*IPPOS*OFA0.00000B0.00000*MIA0B0*SFA1.00000B1.00000*%
%ADD10C,.0004*%
%ADD11C,.006*%
G75*
%LPD*%
G75*
G36*
G01X1992090Y787355D02*
X2001539D01*
G02X2004886Y784008I1J-3346D01*
G01Y738339D01*
G02X2001539Y734992I-3347J0D01*
G01X1992090D01*
G02X1988744Y738339I2J3348D01*
G01Y784008D01*
G02X1992090Y787355I3345J2D01*
G37*
G36*
G01X2304768D02*
X2314217D01*
G02X2317563Y784010I0J-3346D01*
G01Y738339D01*
G02X2314217Y734992I-3347J0D01*
G01X2304768D01*
G02X2301422Y738338I0J3346D01*
G01Y784008D01*
G02X2304768Y787355I3347J0D01*
G37*
G54D10*
G01X2318153Y738339D02*
Y784008D01*
G03X2314216Y787945I-3937J0D01*
G01X2192137D01*
G03X2149554Y769980I0J-59449D01*
G02X2145324Y768195I-4230J4121D01*
G01X2123671D01*
G02X2119441Y769980I0J5906D01*
G03X2076858Y787945I-42583J-41484D01*
G01X1992090D01*
G03X1988153Y784008I0J-3937D01*
G01Y738339D01*
G03X1992090Y734402I3937J0D01*
G01X2075226D01*
G02X2082107Y731596I-1J-9842D01*
G03X2123671Y714652I41563J42505D01*
G01X2145324D01*
G03X2186888Y731596I1J59449D01*
G02X2193769Y734402I6882J-7036D01*
G01X2314216D01*
G03X2318153Y738339I0J3937D01*
G54D11*
G01X1983068Y677811D02*
X1984068Y676978D01*
X1985193Y676478D01*
X1986193D01*
X1987193Y676978D01*
X1987943Y677811D01*
X1988318Y678978D01*
X1988068Y680144D01*
X1987443Y681145D01*
X1986318Y681811D01*
X1984818Y682145D01*
X1983943Y682811D01*
X1983568Y683978D01*
X1983818Y685145D01*
X1984443Y685978D01*
X1985318Y686478D01*
X1986193D01*
X1987068Y686145D01*
X1987818Y685311D01*
G01X1993193Y676478D02*
Y686478D01*
X1996193D01*
X1997193Y685978D01*
X1997943Y684811D01*
X1998193Y683478D01*
X1997943Y682145D01*
X1997318Y681145D01*
X1996193Y680644D01*
X1993193D01*
G01X2005693Y676478D02*
Y686478D01*
X2004193Y684478D01*
G01Y676478D02*
X2007193D01*
G01X2012443D02*
Y686478D01*
X2015693Y678145D01*
X2018943Y686478D01*
Y676478D01*
G01X2025693D02*
X2024693Y676645D01*
X2023818Y677311D01*
X2023068Y678311D01*
X2022568Y679478D01*
X2022318Y680811D01*
Y682145D01*
X2022568Y683478D01*
X2023068Y684645D01*
X2023818Y685645D01*
X2024693Y686311D01*
X2025693Y686478D01*
X2026693Y686311D01*
X2027568Y685645D01*
X2028318Y684645D01*
X2028818Y683478D01*
X2029068Y682145D01*
Y680811D01*
X2028818Y679478D01*
X2028318Y678311D01*
X2027568Y677311D01*
X2026693Y676645D01*
X2025693Y676478D01*
G01X2033193D02*
Y686478D01*
X2036318D01*
X2037318Y685978D01*
X2037943Y685311D01*
X2038193Y683978D01*
X2037943Y682645D01*
X2037193Y681811D01*
X2036318Y681311D01*
X2033193D01*
G01X2036318D02*
X2038193Y676478D01*
G01X2046443Y681478D02*
X2048943D01*
Y678478D01*
X2048193Y677478D01*
X2047318Y676811D01*
X2046068Y676478D01*
X2044818Y676811D01*
X2043943Y677478D01*
X2043193Y678478D01*
X2042693Y679645D01*
X2042443Y680978D01*
Y682145D01*
X2042693Y683144D01*
X2043193Y684311D01*
X2043943Y685311D01*
X2044693Y685978D01*
X2045693Y686478D01*
X2046568D01*
X2047568Y686145D01*
X2048318Y685478D01*
G01X2052568Y676478D02*
X2055693Y686478D01*
X2058818Y676478D01*
G01X2057693Y679978D02*
X2053693D01*
G01X2062818Y676478D02*
Y686478D01*
X2068568Y676478D01*
Y686478D01*
G01X2073318Y676478D02*
Y686478D01*
X2078068D01*
G01X2076318Y681645D02*
X2073318D01*
G01X2083193Y686478D02*
Y676478D01*
X2088193D01*
G01X2092568D02*
X2095693Y686478D01*
X2098818Y676478D01*
G01X2097693Y679978D02*
X2093693D01*
G01X2112568Y686478D02*
X2115693Y676478D01*
X2118818Y686478D01*
G01X2128193Y676478D02*
X2123193D01*
Y686478D01*
X2128193D01*
G01X2126193Y681645D02*
X2123193D01*
G01X2133193Y676478D02*
Y686478D01*
X2136318D01*
X2137318Y685978D01*
X2137943Y685311D01*
X2138193Y683978D01*
X2137943Y682645D01*
X2137193Y681811D01*
X2136318Y681311D01*
X2133193D01*
G01X2136318D02*
X2138193Y676478D01*
G01X2145693Y676145D02*
X2145443Y676311D01*
Y676645D01*
X2145693Y676811D01*
X2145943Y676645D01*
Y676311D01*
X2145693Y676145D01*
G01X2152568Y676478D02*
X2155693Y686478D01*
X2158818Y676478D01*
G01X2157693Y679978D02*
X2153693D01*
G01X2173068Y677811D02*
X2174068Y676978D01*
X2175193Y676478D01*
X2176193D01*
X2177193Y676978D01*
X2177943Y677811D01*
X2178318Y678978D01*
X2178068Y680144D01*
X2177443Y681145D01*
X2176318Y681811D01*
X2174818Y682145D01*
X2173943Y682811D01*
X2173568Y683978D01*
X2173818Y685145D01*
X2174443Y685978D01*
X2175318Y686478D01*
X2176193D01*
X2177068Y686145D01*
X2177818Y685311D01*
G01X2185693Y686478D02*
Y676478D01*
G01X2182818Y686478D02*
X2188568D01*
G01X2194193D02*
X2197193D01*
G01X2195693D02*
Y676478D01*
G01X2194193D02*
X2197193D01*
G01X2203318D02*
Y686478D01*
X2208068D01*
G01X2206318Y681645D02*
X2203318D01*
G01X2213318Y676478D02*
Y686478D01*
X2218068D01*
G01X2216318Y681645D02*
X2213318D01*
G01X2228193Y676478D02*
X2223193D01*
Y686478D01*
X2228193D01*
G01X2226193Y681645D02*
X2223193D01*
G01X2232818Y676478D02*
Y686478D01*
X2238568Y676478D01*
Y686478D01*
G01X2248193Y676478D02*
X2243193D01*
Y686478D01*
X2248193D01*
G01X2246193Y681645D02*
X2243193D01*
G01X2253193Y676478D02*
Y686478D01*
X2256318D01*
X2257318Y685978D01*
X2257943Y685311D01*
X2258193Y683978D01*
X2257943Y682645D01*
X2257193Y681811D01*
X2256318Y681311D01*
X2253193D01*
G01X2256318D02*
X2258193Y676478D01*
G01X2275693Y686478D02*
Y676478D01*
G01X2272818Y686478D02*
X2278568D01*
G01X2285693Y676478D02*
X2284693Y676645D01*
X2283818Y677311D01*
X2283068Y678311D01*
X2282568Y679478D01*
X2282318Y680811D01*
Y682145D01*
X2282568Y683478D01*
X2283068Y684645D01*
X2283818Y685645D01*
X2284693Y686311D01*
X2285693Y686478D01*
X2286693Y686311D01*
X2287568Y685645D01*
X2288318Y684645D01*
X2288818Y683478D01*
X2289068Y682145D01*
Y680811D01*
X2288818Y679478D01*
X2288318Y678311D01*
X2287568Y677311D01*
X2286693Y676645D01*
X2285693Y676478D01*
G01X2293193D02*
Y686478D01*
X2296193D01*
X2297193Y685978D01*
X2297943Y684811D01*
X2298193Y683478D01*
X2297943Y682145D01*
X2297318Y681145D01*
X2296193Y680644D01*
X2293193D01*
M02*
