G04 ================== begin FILE IDENTIFICATION RECORD ==================*
G04 Layout Name:  D:/Projects/MORGAN_FPC/PCB/SP1MORGANFLA.brd*
G04 Film Name:    tabbotm*
G04 File Format:  Gerber RS274X*
G04 File Origin:  Cadence Allegro 17.2-S053*
G04 Origin Date:  Wed Mar 03 11:52:20 2021*
G04 *
G04 Layer:  RIGID FLEX/TAB_BOTTOM*
G04 Layer:  BOARD GEOMETRY/OUTLINE*
G04 *
G04 Offset:    (0.00 0.00)*
G04 Mirror:    No*
G04 Mode:      Positive*
G04 Rotation:  0*
G04 FullContactRelief:  No*
G04 UndefLineWidth:     6.00*
G04 ================== end FILE IDENTIFICATION RECORD ====================*
%FSLAX25Y25*MOIN*%
%IR0*IPPOS*OFA0.00000B0.00000*MIA0B0*SFA1.00000B1.00000*%
%ADD10C,.0004*%
%ADD11C,.006*%
G75*
%LPD*%
G75*
G36*
G01X2024751Y764323D02*
X2274569D01*
Y737551D01*
G02X2255672I-9448J0D01*
G01Y748575D01*
X2024751D01*
Y764323D01*
G37*
G54D10*
G01X2318153Y738339D02*
Y784008D01*
G03X2314216Y787945I-3937J0D01*
G01X2192137D01*
G03X2149554Y769980I0J-59449D01*
G02X2145324Y768195I-4230J4121D01*
G01X2123671D01*
G02X2119441Y769980I0J5906D01*
G03X2076858Y787945I-42583J-41484D01*
G01X1992090D01*
G03X1988153Y784008I0J-3937D01*
G01Y738339D01*
G03X1992090Y734402I3937J0D01*
G01X2075226D01*
G02X2082107Y731596I-1J-9842D01*
G03X2123671Y714652I41563J42505D01*
G01X2145324D01*
G03X2186888Y731596I1J59449D01*
G02X2193769Y734402I6882J-7036D01*
G01X2314216D01*
G03X2318153Y738339I0J3937D01*
G54D11*
G01X2311722Y685126D02*
X2310722Y684293D01*
X2309597Y683793D01*
X2308597D01*
X2307597Y684293D01*
X2306847Y685126D01*
X2306472Y686293D01*
X2306722Y687459D01*
X2307347Y688460D01*
X2308472Y689126D01*
X2309972Y689460D01*
X2310847Y690126D01*
X2311222Y691293D01*
X2310972Y692460D01*
X2310347Y693293D01*
X2309472Y693793D01*
X2308597D01*
X2307722Y693460D01*
X2306972Y692626D01*
G01X2301597Y683793D02*
Y693793D01*
X2298597D01*
X2297597Y693293D01*
X2296847Y692126D01*
X2296597Y690793D01*
X2296847Y689460D01*
X2297472Y688460D01*
X2298597Y687959D01*
X2301597D01*
G01X2289097Y683793D02*
Y693793D01*
X2290597Y691793D01*
G01Y683793D02*
X2287597D01*
G01X2282347D02*
Y693793D01*
X2279097Y685460D01*
X2275847Y693793D01*
Y683793D01*
G01X2269097D02*
X2270097Y683960D01*
X2270972Y684626D01*
X2271722Y685626D01*
X2272222Y686793D01*
X2272472Y688126D01*
Y689460D01*
X2272222Y690793D01*
X2271722Y691960D01*
X2270972Y692960D01*
X2270097Y693626D01*
X2269097Y693793D01*
X2268097Y693626D01*
X2267222Y692960D01*
X2266472Y691960D01*
X2265972Y690793D01*
X2265722Y689460D01*
Y688126D01*
X2265972Y686793D01*
X2266472Y685626D01*
X2267222Y684626D01*
X2268097Y683960D01*
X2269097Y683793D01*
G01X2261597D02*
Y693793D01*
X2258472D01*
X2257472Y693293D01*
X2256847Y692626D01*
X2256597Y691293D01*
X2256847Y689960D01*
X2257597Y689126D01*
X2258472Y688626D01*
X2261597D01*
G01X2258472D02*
X2256597Y683793D01*
G01X2248347Y688793D02*
X2245847D01*
Y685793D01*
X2246597Y684793D01*
X2247472Y684126D01*
X2248722Y683793D01*
X2249972Y684126D01*
X2250847Y684793D01*
X2251597Y685793D01*
X2252097Y686960D01*
X2252347Y688293D01*
Y689460D01*
X2252097Y690459D01*
X2251597Y691626D01*
X2250847Y692626D01*
X2250097Y693293D01*
X2249097Y693793D01*
X2248222D01*
X2247222Y693460D01*
X2246472Y692793D01*
G01X2242222Y683793D02*
X2239097Y693793D01*
X2235972Y683793D01*
G01X2237097Y687293D02*
X2241097D01*
G01X2231972Y683793D02*
Y693793D01*
X2226222Y683793D01*
Y693793D01*
G01X2221472Y683793D02*
Y693793D01*
X2216722D01*
G01X2218472Y688960D02*
X2221472D01*
G01X2211597Y693793D02*
Y683793D01*
X2206597D01*
G01X2202222D02*
X2199097Y693793D01*
X2195972Y683793D01*
G01X2197097Y687293D02*
X2201097D01*
G01X2182222Y693793D02*
X2179097Y683793D01*
X2175972Y693793D01*
G01X2166597Y683793D02*
X2171597D01*
Y693793D01*
X2166597D01*
G01X2168597Y688960D02*
X2171597D01*
G01X2161597Y683793D02*
Y693793D01*
X2158472D01*
X2157472Y693293D01*
X2156847Y692626D01*
X2156597Y691293D01*
X2156847Y689960D01*
X2157597Y689126D01*
X2158472Y688626D01*
X2161597D01*
G01X2158472D02*
X2156597Y683793D01*
G01X2149097Y683460D02*
X2149347Y683626D01*
Y683960D01*
X2149097Y684126D01*
X2148847Y683960D01*
Y683626D01*
X2149097Y683460D01*
G01X2142222Y683793D02*
X2139097Y693793D01*
X2135972Y683793D01*
G01X2137097Y687293D02*
X2141097D01*
G01X2119097Y693793D02*
Y683793D01*
G01X2121972Y693793D02*
X2116222D01*
G01X2112222Y683793D02*
X2109097Y693793D01*
X2105972Y683793D01*
G01X2107097Y687293D02*
X2111097D01*
G01X2098097Y689126D02*
X2097597Y689626D01*
X2097222Y690459D01*
X2096972Y691626D01*
X2097222Y692626D01*
X2097722Y693293D01*
X2098597Y693793D01*
X2101972D01*
Y683793D01*
X2097847D01*
X2096972Y684460D01*
X2096472Y685460D01*
X2096222Y686626D01*
X2096472Y687793D01*
X2097222Y688793D01*
X2098097Y689126D01*
X2101972D01*
G01X2078097D02*
X2077597Y689626D01*
X2077222Y690459D01*
X2076972Y691626D01*
X2077222Y692626D01*
X2077722Y693293D01*
X2078597Y693793D01*
X2081972D01*
Y683793D01*
X2077847D01*
X2076972Y684460D01*
X2076472Y685460D01*
X2076222Y686626D01*
X2076472Y687793D01*
X2077222Y688793D01*
X2078097Y689126D01*
X2081972D01*
G01X2069097Y683793D02*
X2070097Y683960D01*
X2070972Y684626D01*
X2071722Y685626D01*
X2072222Y686793D01*
X2072472Y688126D01*
Y689460D01*
X2072222Y690793D01*
X2071722Y691960D01*
X2070972Y692960D01*
X2070097Y693626D01*
X2069097Y693793D01*
X2068097Y693626D01*
X2067222Y692960D01*
X2066472Y691960D01*
X2065972Y690793D01*
X2065722Y689460D01*
Y688126D01*
X2065972Y686793D01*
X2066472Y685626D01*
X2067222Y684626D01*
X2068097Y683960D01*
X2069097Y683793D01*
G01X2059097Y693793D02*
Y683793D01*
G01X2061972Y693793D02*
X2056222D01*
G01X2049097D02*
Y683793D01*
G01X2051972Y693793D02*
X2046222D01*
G01X2039097Y683793D02*
X2040097Y683960D01*
X2040972Y684626D01*
X2041722Y685626D01*
X2042222Y686793D01*
X2042472Y688126D01*
Y689460D01*
X2042222Y690793D01*
X2041722Y691960D01*
X2040972Y692960D01*
X2040097Y693626D01*
X2039097Y693793D01*
X2038097Y693626D01*
X2037222Y692960D01*
X2036472Y691960D01*
X2035972Y690793D01*
X2035722Y689460D01*
Y688126D01*
X2035972Y686793D01*
X2036472Y685626D01*
X2037222Y684626D01*
X2038097Y683960D01*
X2039097Y683793D01*
G01X2032347D02*
Y693793D01*
X2029097Y685460D01*
X2025847Y693793D01*
Y683793D01*
M02*
