G04 ================== begin FILE IDENTIFICATION RECORD ==================*
G04 Layout Name:  F:/PCBWORK/2021/NTH/Main FPC/hn1nthflPCB_VA/HN1NTHFL.brd*
G04 Film Name:    2DCODE_BOTTOM*
G04 File Format:  Gerber RS274X*
G04 File Origin:  Cadence Allegro 17.2-S053*
G04 Origin Date:  Mon Mar 08 19:57:20 2021*
G04 *
G04 Layer:  BOARD GEOMETRY/2DCODEBOTTOM*
G04 Layer:  BOARD GEOMETRY/OUTLINE*
G04 *
G04 Offset:    (0.00 0.00)*
G04 Mirror:    Yes*
G04 Mode:      Positive*
G04 Rotation:  0*
G04 FullContactRelief:  No*
G04 UndefLineWidth:     6.00*
G04 ================== end FILE IDENTIFICATION RECORD ====================*
%FSLAX25Y25*MOIN*%
%IR0*IPPOS*OFA0.00000B0.00000*MIA1B0*SFA1.00000B1.00000*%
%ADD10C,.0004*%
%ADD11C,.006*%
G75*
%LPD*%
G75*
G36*
G01X-27544Y73901D02*
Y85712D01*
X-15733D01*
Y73901D01*
X-27544D01*
G37*
G54D10*
G01X-42323Y86614D02*
G03X-44291Y84646I0J-1968D01*
G01Y54767D01*
G02X-44308Y53711I-32146J-11D01*
G02X-44441Y51432I-39355J1153D01*
G01X-46897Y23356D01*
G03X-47047Y19925I39216J-3433D01*
G01Y-181474D01*
G02X-54229Y-204144I-39370J0D01*
G01X-76873Y-236295D01*
G03X-84055Y-258965I32188J-22670D01*
G01Y-326169D01*
G03X-82302Y-329444I3936J0D01*
G01X-81504Y-329977D01*
G03X-79320Y-330638I2184J3276D01*
G01X-41535D01*
G03X-39567Y-328669I0J1968D01*
G01Y-279663D01*
G02X-33307Y-265267I19684J-1D01*
G01X8543Y-226240D01*
G03X21063Y-197447I-26850J28794D01*
G01Y-2693D01*
G03X11948Y13913I-19685J0D01*
G01X5666Y17912D01*
G02X197Y27876I6342J9964D01*
G01Y82145D01*
G03X-1556Y85421I-3937J0D01*
G01X-2355Y85953D01*
G03X-4539Y86614I-2184J-3276D01*
G01X-42323D01*
G54D11*
G01X130481Y-418478D02*
Y-408478D01*
G01X125231D02*
Y-418478D01*
G01Y-413478D02*
X130481D01*
G01X120731Y-418478D02*
Y-408478D01*
X114981Y-418478D01*
Y-408478D01*
G01X107856Y-418478D02*
Y-408478D01*
X109356Y-410478D01*
G01Y-418478D02*
X106356D01*
G01X100731D02*
Y-408478D01*
X94981Y-418478D01*
Y-408478D01*
G01X87856D02*
Y-418478D01*
G01X90731Y-408478D02*
X84981D01*
G01X80481Y-418478D02*
Y-408478D01*
G01X75231D02*
Y-418478D01*
G01Y-413478D02*
X80481D01*
G01X70231Y-418478D02*
Y-408478D01*
X65481D01*
G01X67231Y-413311D02*
X70231D01*
G01X60356Y-408478D02*
Y-418478D01*
X55356D01*
G01X40981Y-408478D02*
X37856Y-418478D01*
X34731Y-408478D01*
G01X25356Y-418478D02*
X30356D01*
Y-408478D01*
X25356D01*
G01X27356Y-413311D02*
X30356D01*
G01X20356Y-418478D02*
Y-408478D01*
X17231D01*
X16231Y-408978D01*
X15606Y-409645D01*
X15356Y-410978D01*
X15606Y-412311D01*
X16356Y-413145D01*
X17231Y-413645D01*
X20356D01*
G01X17231D02*
X15356Y-418478D01*
G01X7856Y-418811D02*
X8106Y-418645D01*
Y-418311D01*
X7856Y-418145D01*
X7606Y-418311D01*
Y-418645D01*
X7856Y-418811D01*
G01X981Y-418478D02*
X-2144Y-408478D01*
X-5269Y-418478D01*
G01X-4144Y-414978D02*
X-144D01*
G01X-39769Y-410145D02*
X-40519Y-409145D01*
X-41394Y-408645D01*
X-42394Y-408478D01*
X-43644Y-408811D01*
X-44519Y-409645D01*
X-44769Y-410645D01*
X-44644Y-411645D01*
X-44144Y-412478D01*
X-41644Y-414145D01*
X-40519Y-415311D01*
X-39769Y-416978D01*
X-39519Y-418478D01*
X-44769D01*
G01X-49394D02*
Y-408478D01*
X-51894D01*
X-52894Y-408978D01*
X-53644Y-409645D01*
X-54269Y-410645D01*
X-54769Y-411812D01*
X-54894Y-413478D01*
X-54769Y-415145D01*
X-54269Y-416311D01*
X-53644Y-417312D01*
X-52894Y-417978D01*
X-51894Y-418478D01*
X-49394D01*
G01X-74894Y-409311D02*
X-74144Y-408811D01*
X-73269Y-408478D01*
X-72269D01*
X-71144Y-408978D01*
X-70269Y-409811D01*
X-69644Y-410811D01*
X-69144Y-412478D01*
X-69019Y-413978D01*
X-69269Y-415478D01*
X-69644Y-416478D01*
X-70394Y-417478D01*
X-71269Y-418145D01*
X-72144Y-418478D01*
X-73019D01*
X-73894Y-418145D01*
X-74644Y-417645D01*
X-75269Y-416978D01*
G01X-82144Y-418478D02*
X-81144Y-418311D01*
X-80269Y-417645D01*
X-79519Y-416645D01*
X-79019Y-415478D01*
X-78769Y-414145D01*
Y-412811D01*
X-79019Y-411478D01*
X-79519Y-410311D01*
X-80269Y-409311D01*
X-81144Y-408645D01*
X-82144Y-408478D01*
X-83144Y-408645D01*
X-84019Y-409311D01*
X-84769Y-410311D01*
X-85269Y-411478D01*
X-85519Y-412811D01*
Y-414145D01*
X-85269Y-415478D01*
X-84769Y-416645D01*
X-84019Y-417645D01*
X-83144Y-418311D01*
X-82144Y-418478D01*
G01X-89394D02*
Y-408478D01*
X-91894D01*
X-92894Y-408978D01*
X-93644Y-409645D01*
X-94269Y-410645D01*
X-94769Y-411812D01*
X-94894Y-413478D01*
X-94769Y-415145D01*
X-94269Y-416311D01*
X-93644Y-417312D01*
X-92894Y-417978D01*
X-91894Y-418478D01*
X-89394D01*
G01X-104644D02*
X-99644D01*
Y-408478D01*
X-104644D01*
G01X-102644Y-413311D02*
X-99644D01*
G01X-123144Y-413145D02*
X-123644Y-412645D01*
X-124019Y-411812D01*
X-124269Y-410645D01*
X-124019Y-409645D01*
X-123519Y-408978D01*
X-122644Y-408478D01*
X-119269D01*
Y-418478D01*
X-123394D01*
X-124269Y-417811D01*
X-124769Y-416811D01*
X-125019Y-415645D01*
X-124769Y-414478D01*
X-124019Y-413478D01*
X-123144Y-413145D01*
X-119269D01*
G01X-132144Y-418478D02*
X-131144Y-418311D01*
X-130269Y-417645D01*
X-129519Y-416645D01*
X-129019Y-415478D01*
X-128769Y-414145D01*
Y-412811D01*
X-129019Y-411478D01*
X-129519Y-410311D01*
X-130269Y-409311D01*
X-131144Y-408645D01*
X-132144Y-408478D01*
X-133144Y-408645D01*
X-134019Y-409311D01*
X-134769Y-410311D01*
X-135269Y-411478D01*
X-135519Y-412811D01*
Y-414145D01*
X-135269Y-415478D01*
X-134769Y-416645D01*
X-134019Y-417645D01*
X-133144Y-418311D01*
X-132144Y-418478D01*
G01X-142144Y-408478D02*
Y-418478D01*
G01X-139269Y-408478D02*
X-145019D01*
G01X-152144D02*
Y-418478D01*
G01X-149269Y-408478D02*
X-155019D01*
G01X-162144Y-418478D02*
X-161144Y-418311D01*
X-160269Y-417645D01*
X-159519Y-416645D01*
X-159019Y-415478D01*
X-158769Y-414145D01*
Y-412811D01*
X-159019Y-411478D01*
X-159519Y-410311D01*
X-160269Y-409311D01*
X-161144Y-408645D01*
X-162144Y-408478D01*
X-163144Y-408645D01*
X-164019Y-409311D01*
X-164769Y-410311D01*
X-165269Y-411478D01*
X-165519Y-412811D01*
Y-414145D01*
X-165269Y-415478D01*
X-164769Y-416645D01*
X-164019Y-417645D01*
X-163144Y-418311D01*
X-162144Y-418478D01*
G01X-168894D02*
Y-408478D01*
X-172144Y-416811D01*
X-175394Y-408478D01*
Y-418478D01*
M02*
