G04 ================== begin FILE IDENTIFICATION RECORD ==================*
G04 Layout Name:  F:/PCBWORK/2021/NTH/Main FPC/hn1nthflPCB_VA/HN1NTHFL.brd*
G04 Film Name:    art02*
G04 File Format:  Gerber RS274X*
G04 File Origin:  Cadence Allegro 17.2-S053*
G04 Origin Date:  Mon Mar 08 19:57:20 2021*
G04 *
G04 Layer:  VIA CLASS/BOTTOM*
G04 Layer:  PIN/BOTTOM*
G04 Layer:  ETCH/BOTTOM*
G04 Layer:  BOARD GEOMETRY/OUTLINE*
G04 *
G04 Offset:    (0.00 0.00)*
G04 Mirror:    No*
G04 Mode:      Positive*
G04 Rotation:  0*
G04 FullContactRelief:  No*
G04 UndefLineWidth:     6.00*
G04 ================== end FILE IDENTIFICATION RECORD ====================*
%FSLAX25Y25*MOIN*%
%IR0*IPPOS*OFA0.00000B0.00000*MIA0B0*SFA1.00000B1.00000*%
%ADD10C,.01*%
%ADD11C,.024*%
%ADD12C,.0004*%
%ADD13C,.0145*%
%ADD14C,.004*%
%ADD15C,.005*%
%ADD16C,.006*%
%ADD17C,.008*%
%ADD18C,.00236*%
%ADD19C,.00394*%
G75*
%LPD*%
G75*
G36*
G01X-69004Y-319382D02*
X-68622D01*
X-68601Y-318861D01*
X-69122Y-318882D01*
Y-319264D01*
G03X-69004Y-319382I118J0D01*
G37*
G36*
G01X-52794Y-319452D02*
X-49018D01*
Y-323154D01*
G03X-49016Y-323235I1706J2D01*
G01X-49015Y-323253D01*
G03X-48870Y-323848I1703J100D01*
G01X-48853Y-323885D01*
G03X-48767Y-324044I1541J731D01*
G01X-48724Y-324115D01*
X-48824Y-324542D01*
X-48850Y-324603D01*
X-48856Y-324616D01*
Y-324617D01*
G03X-48905Y-324754I820J-371D01*
G01X-48909Y-324768D01*
G03X-48936Y-324988I873J-219D01*
G03X-48911Y-325199I900J0D01*
G01X-48904Y-325224D01*
G03X-48884Y-325290I871J228D01*
G03X-48851Y-325370I848J303D01*
G01X-48627Y-325832D01*
X-48292Y-325880D01*
X-48159D01*
G03X-48088Y-325886I111J893D01*
G01Y-325888D01*
X-47864D01*
Y-329850D01*
X-76436D01*
Y-325725D01*
G02X-76021Y-325768I172J-363D01*
G03X-75472Y-325954I550J720D01*
G03X-74599Y-325290I0J906D01*
G03X-74596Y-325280I-866J265D01*
G01X-73737D01*
Y-325264D01*
G03X-73721Y-325277I579J697D01*
G03X-73157Y-325474I564J709D01*
G03X-72377Y-325028I0J905D01*
G02X-72146Y-324937I173J-102D01*
G03X-71886Y-324976I263J867D01*
G03X-71582Y-324923I-1J906D01*
G02X-71050Y-325246I134J-379D01*
G03X-70153Y-326026I897J126D01*
G03X-69251Y-325200I0J905D01*
G02X-68727Y-324854I400J-36D01*
G03X-68538Y-324893I277J863D01*
G02X-68357Y-325103I-20J-200D01*
G03X-68358Y-325148I905J-43D01*
G03X-67452Y-326054I906J0D01*
G03X-67365Y-326050I2J906D01*
G01X-67330Y-326045D01*
G03X-66546Y-325148I-121J897D01*
G03X-66548Y-325091I-906J-3D01*
G02Y-325081I401J5D01*
G03X-66789Y-324531I-902J-68D01*
G02X-66891Y-324279I505J351D01*
G02X-66844Y-324035I3302J-510D01*
G01X-66466Y-323996D01*
G03X-65728Y-324518I822J380D01*
G02X-65545Y-324722I-18J-200D01*
G03X-65546Y-324740I903J-59D01*
G03X-65539Y-324854I906J-2D01*
G02X-65536Y-324869I-195J-47D01*
G03X-64640Y-325646I896J128D01*
G03X-63811Y-325105I0J906D01*
G02X-63366Y-324872I368J-162D01*
G03X-63191Y-324890I180J888D01*
G03X-63096Y-324884I-9J905D01*
G02X-62672Y-325158I42J-400D01*
G03X-61813Y-325778I859J285D01*
G03X-61011Y-325292I0J905D01*
G02X-61004Y-325280I350J-196D01*
G03X-60982Y-325232I-812J401D01*
G02X-60365Y-325076I369J-160D01*
G03X-59804Y-325270I560J712D01*
G03X-59165Y-325007I1J906D01*
G02X-58904Y-324988I142J-142D01*
G03X-58744Y-325091I859J1158D01*
G03X-58685Y-325244I872J248D01*
G02X-58674Y-325264I-347J-204D01*
G03X-57872Y-325750I802J419D01*
G03X-57485Y-325663I0J906D01*
G02X-57006Y-325766I173J-363D01*
G03X-56316Y-326086I690J584D01*
G03X-55410Y-325180I0J906D01*
G03X-55648Y-324569I-906J-1D01*
G01X-55670Y-324544D01*
G03X-55838Y-324410I-645J-637D01*
G03X-55960Y-324091I-1427J-363D01*
G02X-55803Y-323556I356J186D01*
G03X-55750Y-323523I-452J785D01*
G01X-55699Y-323490D01*
X-54852D01*
Y-322813D01*
X-54525D01*
X-54471Y-322927D01*
G03X-54393Y-323077I2839J1381D01*
G01X-54380Y-323100D01*
X-54379Y-323103D01*
G03X-54300Y-323249I3343J1714D01*
G01X-54298Y-323254D01*
X-54281Y-323287D01*
G02X-54193Y-323828I-865J-418D01*
G02X-54333Y-323912I-285J317D01*
G03X-55010Y-324788I228J-876D01*
G03X-54104Y-325694I906J0D01*
G03X-53556Y-325509I-1J906D01*
G02X-53010Y-325564I244J-320D01*
G03X-52328Y-325874I682J595D01*
G03X-51730Y-325648I-1J906D01*
G02X-51451Y-325662I132J-151D01*
G03X-50789Y-325950I662J617D01*
G03X-50053Y-325571I0J904D01*
G03X-49884Y-325045I-736J527D01*
G01Y-325044D01*
G03X-50637Y-324151I-906J0D01*
G01X-50661Y-324147D01*
X-50870Y-324055D01*
X-52278Y-322646D01*
Y-322645D01*
G02X-52606Y-322193I1246J1249D01*
G03X-52647Y-322114I-1983J-979D01*
G01X-52648Y-322113D01*
G02X-52795Y-321548I1018J566D01*
G01Y-321547D01*
X-52794D01*
Y-319452D01*
G37*
G36*
G01X-83267Y-318762D02*
X-75477D01*
X-77478Y-321685D01*
X-77481Y-321688D01*
G03X-78262Y-323564I3382J-2509D01*
G03X-78486Y-324239I906J-675D01*
G01Y-324240D01*
G03X-77356Y-325370I1130J0D01*
G01X-77342Y-325356D01*
X-77174D01*
X-77138Y-325392D01*
X-77140Y-325393D01*
Y-329850D01*
X-79321D01*
G02X-81066Y-329321I2J3149D01*
G01X-81864Y-328788D01*
G02X-83267Y-326169I1745J2620D01*
G01Y-318762D01*
G37*
G36*
G01X-76119Y-323137D02*
G02X-76356Y-323494I-657J179D01*
G01X-76357Y-323495D01*
G03X-76775Y-324002I953J-1212D01*
G03X-76943Y-324606I1394J-713D01*
G03X-76949Y-324751I2333J-169D01*
G01X-76951Y-324950D01*
X-76995D01*
X-77003Y-324942D01*
X-77215D01*
G02X-78072Y-324240I-141J702D01*
G01Y-324239D01*
G02X-77869Y-323739I717J0D01*
G02X-77822Y-323451I3769J-467D01*
G03X-77790Y-323303I-866J265D01*
G02X-77166Y-321958I3691J-895D01*
G01X-77158Y-321950D01*
X-76559Y-321075D01*
X-76100Y-321084D01*
X-75466Y-321417D01*
G02X-75421Y-322080I-203J-347D01*
G03X-76119Y-323137I1248J-1583D01*
G37*
G36*
G01X-67904Y-323622D02*
X-68248Y-323701D01*
X-68474Y-324004D01*
X-67976Y-323892D01*
X-67878Y-323737D01*
X-67904Y-323622D01*
G37*
G36*
G01X-67505Y-324124D02*
G02X-67836Y-324830I-1028J51D01*
G01X-67453Y-325177D01*
X-67040Y-324866D01*
G02X-67303Y-324134I756J685D01*
G03X-67505Y-324124I-104J-56D01*
G37*
G36*
G01X-73948Y-322932D02*
G02X-74242Y-323167I-443J253D01*
G01X-74179Y-323687D01*
X-73762Y-323369D01*
G02X-73799Y-322995I452J234D01*
G03X-73948Y-322932I-108J-48D01*
G37*
G36*
G01X-65085Y-322757D02*
G02X-65773Y-323134I-802J648D01*
G01X-65662Y-323639D01*
X-65145Y-323636D01*
G02X-64928Y-322883I1024J113D01*
G03X-65085Y-322757I-117J15D01*
G37*
G36*
G01X-62063Y-324116D02*
X-62281Y-324697D01*
X-61807Y-324901D01*
X-61586Y-324443D01*
X-61859Y-324085D01*
G03X-62063Y-324116I-93J-72D01*
G37*
G36*
G01X-63555Y-323317D02*
G02X-63594Y-323689I-497J-136D01*
G01X-63180Y-324011D01*
X-63115Y-323491D01*
G02X-63407Y-323255I155J490D01*
G03X-63555Y-323317I-41J-111D01*
G37*
G36*
G01X-73079Y-323784D02*
X-73510Y-324215D01*
X-73164Y-324597D01*
X-72774Y-324269D01*
X-72882Y-323838D01*
G03X-73079Y-323784I-114J-29D01*
G37*
G36*
G01X-71991Y-322646D02*
G02X-72356Y-323359I-1044J85D01*
G01X-71970Y-323701D01*
X-71537Y-323421D01*
G02X-71790Y-322662I791J685D01*
G03X-71991Y-322646I-105J-53D01*
G37*
G36*
G01X-61853Y-322854D02*
G02X-61579Y-323583I-753J-699D01*
G01X-61063Y-323554D01*
X-60997Y-323040D01*
G02X-61705Y-322716I39J1022D01*
G03X-61853Y-322854I-32J-114D01*
G37*
G36*
G01X-64599Y-323715D02*
G02X-65010Y-324405I-1048J157D01*
G01X-64644Y-324769D01*
X-64193Y-324518D01*
G02X-64400Y-323743I836J638D01*
G03X-64599Y-323715I-108J-47D01*
G37*
G36*
G01X-52727Y-324024D02*
G02X-52802Y-324811I-995J-302D01*
G01X-52319Y-324996D01*
X-52028Y-324570D01*
G02X-52535Y-323964I482J918D01*
G03X-52727Y-324024I-78J-89D01*
G37*
G36*
G01X-53750Y-323915D02*
G02X-54240Y-324308I-727J405D01*
G01X-54118Y-324814D01*
X-53630Y-324633D01*
G02X-53578Y-324006I799J249D01*
G03X-53750Y-323915I-117J-13D01*
G37*
G36*
G01X-16935Y79928D02*
X-15579D01*
X-15537Y79783D01*
G03X-15215Y79132I1951J560D01*
G01X-15214D01*
G02X-15169Y78987I-184J-136D01*
G01Y78986D01*
G02X-15184Y78834I-1238J45D01*
G01Y78833D01*
G02X-15219Y78677I-1224J193D01*
G03X-15343Y78204I3089J-1063D01*
G03X-15350Y78172I508J-128D01*
G03X-15396Y77626I3186J-543D01*
G01Y77625D01*
X-15397Y77624D01*
G03X-15394Y77533I1469J3D01*
G01Y72536D01*
G02X-15496Y71990I-1513J0D01*
G01Y71989D01*
G02X-15980Y71096I-3708J1432D01*
G01X-17476Y69024D01*
G03X-17906Y68397I11366J-8256D01*
G01X-17907Y68396D01*
G03X-18564Y67256I11830J-7577D01*
G02X-18641Y67115I-4825J2543D01*
G03X-18656Y67090I441J-282D01*
G03X-20838Y58838I14517J-8253D01*
G01Y21533D01*
G03X-15243Y5664I25304J1D01*
G02X-13937Y3546I-15569J-11062D01*
G02X-13752Y3189I-20482J-10840D01*
G02X-11864Y-2992I-17059J-8590D01*
G01Y-2993D01*
G02X-11852Y-3126I-1911J-239D01*
G01Y-3133D01*
G03X-11851Y-3158I995J27D01*
G01Y-3171D01*
G03X-11802Y-3642I4449J225D01*
G03X-11797Y-3669I517J82D01*
G03X-11795Y-3682I1452J217D01*
G02X-11785Y-3756I-2099J-321D01*
G02X-11780Y-3818I-19032J-1566D01*
G01Y-3820D01*
G02X-11710Y-5401I-19029J-1635D01*
G01Y-173654D01*
X-11711Y-173659D01*
Y-173683D01*
G03X-11713Y-173828I7872J-181D01*
G03X-11712Y-173868I1468J17D01*
G03X-11711Y-173897I523J4D01*
G01X-11710Y-173907D01*
Y-187175D01*
G02X-15003Y-204045I-44864J1D01*
G01X-15121Y-204328D01*
G02X-15757Y-205787I-41435J17194D01*
G02X-16320Y-206874I-34585J17224D01*
G02X-23058Y-215934I-34193J18394D01*
G01X-43538Y-236414D01*
G03X-55171Y-255245I34029J-34030D01*
G03X-55198Y-255323I927J-364D01*
G01X-55199Y-255324D01*
X-55205Y-255343D01*
Y-255344D01*
G03X-57631Y-270427I45693J-15086D01*
G01X-57632D01*
Y-307926D01*
G03X-56538Y-312345I9482J3D01*
G03X-56041Y-313180I8378J4421D01*
G03X-55746Y-313598I7992J5327D01*
G02X-55311Y-314606I-2154J-1527D01*
G01X-55281Y-314831D01*
G03X-55280Y-314834I489J161D01*
G02X-55258Y-315154I-2339J-322D01*
G01Y-321546D01*
G03Y-321633I3629J-43D01*
G01Y-323084D01*
X-56653D01*
X-56645Y-322930D01*
X-56640Y-322911D01*
G03X-56613Y-322692I-879J220D01*
G03X-57519Y-321786I-906J0D01*
G03X-57818Y-321837I1J-906D01*
G01X-57937Y-321878D01*
X-59279Y-320537D01*
G02X-59363Y-320435I479J480D01*
G02X-60093Y-318027I3609J2409D01*
G01X-60092Y-318026D01*
Y-270424D01*
G02X-57545Y-254576I50581J0D01*
G01X-57544Y-254574D01*
G02X-57534Y-254543I1177J-362D01*
G03X-57530Y-254532I-490J184D01*
G02X-57492Y-254423I3283J-1083D01*
G03X-57486Y-254408I-483J202D01*
G02X-45280Y-234671I47981J-16030D01*
G01X-25463Y-214854D01*
G03X-25461Y-214852I-369J371D01*
G03X-14372Y-187848I-27336J27004D01*
G01Y-5404D01*
G03Y-5402I-523J1D01*
G03X-14417Y-4227I-16638J-49D01*
G01X-14440Y-3925D01*
Y-3922D01*
G03X-14442Y-3894I-523J-23D01*
G03X-16151Y2082I-16569J-1506D01*
G01X-16152Y2083D01*
G03X-16314Y2397I-18487J-9339D01*
G03X-16315Y2399I-469J-233D01*
G03X-17382Y4140I-14691J-7806D01*
G01Y4141D01*
G03X-17420Y4191I-812J-577D01*
G02X-18831Y6120I21685J17342D01*
G02X-23494Y21056I23099J15407D01*
G01Y22919D01*
G02X-23498Y23495I33671J522D01*
G01Y73442D01*
X-23499Y73443D01*
G02X-23487Y73512I224J-3D01*
G02X-23169Y74030I1242J-406D01*
G01X-19180Y78018D01*
X-18605Y78087D01*
X-18537Y78026D01*
G03X-17928Y77790I610J670D01*
G03X-17022Y78696I0J906D01*
G01Y78697D01*
G03X-17195Y79229I-906J-1D01*
G02X-17107Y79790I325J236D01*
G03X-16935Y79928I-1429J1957D01*
G37*
G36*
G01X-70294Y-324555D02*
X-70506Y-324767D01*
X-70153Y-325170D01*
X-69800Y-324767D01*
X-70012Y-324555D01*
G03X-70294I-141J-141D01*
G37*
G36*
G01X-44091Y46390D02*
X-39235D01*
Y46337D01*
X-34982D01*
Y31445D01*
G03X-34946Y28954I86465J4D01*
G01Y21776D01*
G03X-32363Y7647I39936J0D01*
G03X-32320Y7534I22801J8612D01*
G01Y7533D01*
X-31952Y6563D01*
G03X-30000Y2551I22856J8640D01*
G03X-29160Y1110I34254J19002D01*
G03X-29136Y1072I1881J1161D01*
G03X-28736Y432I33416J20440D01*
G01X-28735Y431D01*
G03X-28324Y-200I33027J21063D01*
G03X-27567Y-1302I32663J21626D01*
G01X-27566Y-1303D01*
X-27170Y-1856D01*
X-27169Y-1859D01*
G03X-27149Y-1887I930J643D01*
G02X-26974Y-2140I-7958J-5692D01*
G02X-26710Y-2558I-8138J-5432D01*
G02X-26008Y-4278I-5373J-3196D01*
G02X-25947Y-4628I-5326J-1109D01*
G01X-25870Y-5183D01*
Y-5184D01*
G02X-25830Y-5758I-4130J-576D01*
G01Y-27289D01*
G03X-25831Y-27404I4653J-98D01*
G01X-25830D01*
Y-173785D01*
X-25829Y-184672D01*
G03X-25817Y-184837I1130J-1D01*
G02X-25802Y-184940I-23943J-3539D01*
G01Y-187123D01*
G02X-29893Y-202106I-29541J16D01*
G02X-30400Y-202890I-22909J14259D01*
G02X-32647Y-205482I-19365J14518D01*
G01X-34454Y-207289D01*
G03X-34489Y-207326I804J-795D01*
G01X-34492Y-207330D01*
X-53267Y-226102D01*
G03X-71730Y-270668I44583J-44578D01*
G01Y-281348D01*
X-83267D01*
Y-258964D01*
G02X-76229Y-236749I38582J-1D01*
G01X-53585Y-204598D01*
G03X-46259Y-181474I-32832J23124D01*
G01Y19925D01*
G02X-46112Y23287I38578J-3D01*
G01X-44091Y46390D01*
G37*
G36*
G01X-46407Y-324650D02*
G03X-46429Y-324985I1718J-281D01*
G02X-46621Y-325392I-495J-15D01*
G01X-46622Y-325393D01*
G02X-46688Y-325435I-259J334D01*
G03X-46694Y-325438I276J-559D01*
G02X-47002Y-325488I-229J438D01*
G03X-47101Y-325480I-100J-616D01*
G01X-47969D01*
G03X-48006Y-325482I15J-623D01*
G02X-48036Y-325483I-31J494D01*
G02X-48066Y-325482I1J495D01*
G03X-48103Y-325480I-52J-621D01*
G01X-48267D01*
X-48360Y-325467D01*
X-48490Y-325199D01*
G02X-48536Y-324990I454J210D01*
G01X-48537Y-324989D01*
X-48536Y-324988D01*
X-48537D01*
G02X-48495Y-324788I501J-1D01*
G01Y-324787D01*
X-48494Y-324786D01*
X-48443Y-324667D01*
X-48272Y-323940D01*
X-48492Y-323364D01*
X-48512Y-321568D01*
X-46382D01*
Y-324330D01*
X-46381D01*
G02X-46407Y-324649I-1965J0D01*
G01Y-324650D01*
G37*
G36*
G01X-51289Y-324494D02*
Y-325044D01*
X-50772Y-325068D01*
X-50742Y-324555D01*
X-51123Y-324386D01*
G03X-51289Y-324494I-48J-108D01*
G37*
G36*
G01X-45234Y-318793D02*
X-40355D01*
Y-328670D01*
G02X-41535Y-329850I-1181J0D01*
G01X-47076D01*
X-47074Y-326646D01*
X-46879Y-326641D01*
G03X-46163Y-326455I-44J1641D01*
G03X-45918Y-326299I-717J1396D01*
G03X-45283Y-324948I-1006J1298D01*
G02X-45275Y-324834I594J16D01*
G03X-45234Y-324334I-3071J503D01*
G01Y-318793D01*
G37*
G36*
G01X-49061Y-271556D02*
G02X-49002Y-272037I-561J-313D01*
G01X-48498Y-272172D01*
X-48481Y-271650D01*
G02X-48924Y-271455I20J646D01*
G03X-49061Y-271556I-20J-116D01*
G37*
G36*
G01X-48923Y-272842D02*
G02X-48480Y-272646I462J-446D01*
G01X-48498Y-272124D01*
X-49002Y-272260D01*
G02X-49060Y-272741I-626J-169D01*
G03X-48923Y-272842I117J15D01*
G37*
G36*
G01X-11910Y46365D02*
X-591Y46370D01*
Y27875D01*
G03X5242Y17247I12600J0D01*
G01X11524Y13248D01*
G02X20275Y-2693I-10146J-15942D01*
G01Y-197447D01*
G02X8005Y-225663I-38581J2D01*
G01X-33845Y-264690D01*
G03X-40355Y-279662I13963J-14972D01*
G01Y-281229D01*
X-48702Y-281206D01*
Y-273861D01*
G02X-48522Y-273054I1900J0D01*
G01X-48516D01*
G03Y-271242I0J906D01*
G01X-48524D01*
G02X-48702Y-270443I1700J798D01*
G02X-46449Y-257345I39195J1D01*
G02X-37223Y-242729I36942J-13099D01*
G01X-16715Y-222221D01*
G03X-2782Y-188586I-33636J33637D01*
G01Y-2977D01*
X-2783D01*
G03X-5949Y8155I-21156J-1D01*
G03X-7461Y10292I-17993J-11128D01*
G02X-11567Y19208I15660J12615D01*
G02X-11815Y20950I19765J3702D01*
G02X-11740Y21363I1288J-21D01*
G02X-11591Y21426I214J-298D01*
G03X-11541Y23281I-69J930D01*
G02X-11742Y23395I114J434D01*
G02X-11869Y23806I1951J828D01*
G03X-11892Y23886I-513J-104D01*
G01X-11904Y23920D01*
Y23963D01*
X-11910D01*
Y24200D01*
G02Y24225I2119J13D01*
G01Y46365D01*
G37*
G36*
G01X-12287Y23068D02*
G02X-12156Y22410I-732J-488D01*
G01X-11643Y22332D01*
X-11548Y22842D01*
G02X-12128Y23181I121J873D01*
G03X-12287Y23068I-41J-111D01*
G37*
G36*
G01X-12136Y21581D02*
G02X-11600Y21861I611J-516D01*
G01X-11642Y22379D01*
X-12154Y22286D01*
G02X-12287Y21697I-786J-132D01*
G03X-12136Y21581I118J-3D01*
G37*
G36*
G01X-30670Y79406D02*
X-30663Y79414D01*
G03X-30518Y79585I-613J667D01*
G02X-29948Y79691I336J-221D01*
G03X-29875Y79644I527J738D01*
G03X-29478Y78966I1491J418D01*
G01X-29152Y78640D01*
G02X-28940Y78127I-513J-512D01*
G01Y77736D01*
G02X-29268Y76711I-1763J-1D01*
G03X-29792Y75078I2287J-1634D01*
G01Y73481D01*
X-30107D01*
X-30166Y73580D01*
G03X-30330Y73833I-2979J-1751D01*
G01X-30331Y73835D01*
G02X-30457Y74062I929J664D01*
G02X-30671Y75142I2627J1082D01*
G01Y75143D01*
X-30670D01*
Y79406D01*
G37*
G36*
G01X-37179Y85826D02*
X-6797D01*
X-6812Y81936D01*
X-8921D01*
X-9516Y81341D01*
Y81332D01*
X-9606Y79301D01*
G03X-9623Y79158I14483J-1794D01*
G01X-9643Y78980D01*
X-11092D01*
Y80005D01*
G03X-11030Y81446I-515J744D01*
G03X-11083Y81487I-580J-695D01*
G03X-11092Y81493I-506J-750D01*
G03X-11606Y81654I-515J-744D01*
G01X-11608D01*
G03X-12468Y81032I0J-906D01*
G02X-12718Y80903I-191J63D01*
G03X-12984Y80942I-263J-866D01*
G03X-13123Y80932I-5J-905D01*
G02X-13340Y81055I-31J199D01*
G03X-14180Y81622I-840J-339D01*
G03X-15086Y80717I0J-906D01*
G03X-15073Y80568I906J4D01*
G01X-15070Y80551D01*
Y80334D01*
X-15307D01*
G02X-15685Y80872I0J402D01*
G03X-15632Y81180I-852J305D01*
G03X-16537Y82086I-906J0D01*
G03X-17199Y81798I0J-905D01*
G02X-17467Y81775I-147J137D01*
G03X-18012Y81958I-546J-723D01*
G03X-18636Y81709I0J-906D01*
G02X-18905Y81702I-138J145D01*
G03X-19496Y81922I-592J-686D01*
G03X-20048Y81733I2J-905D01*
G02X-20287Y81728I-123J160D01*
G03X-20808Y81894I-523J-740D01*
G03X-21409Y81666I0J-906D01*
G02X-21649Y81646I-133J150D01*
G03X-22132Y81786I-484J-766D01*
G03X-22666Y81611I1J-906D01*
G02X-22902Y81610I-119J162D01*
G03X-23427Y81778I-525J-738D01*
G03X-24045Y81534I0J-905D01*
G02X-24316Y81531I-137J147D01*
G03X-24920Y81762I-604J-674D01*
G03X-25432Y81603I1J-906D01*
G02X-25670Y81612I-113J166D01*
G03X-26235Y81810I-565J-707D01*
G03Y79998I0J-906D01*
G01X-26099D01*
X-26000Y79899D01*
Y78029D01*
X-26738Y77291D01*
G02X-27424Y77592I-284J284D01*
G03X-27420Y77733I-3274J163D01*
G01Y78362D01*
G03X-27552Y79265I-3174J-3D01*
G03X-27374Y79804I-727J539D01*
G03X-28280Y80710I-906J0D01*
G03X-28394Y80703I-2J-906D01*
G02X-28601Y80816I-26J199D01*
G03X-29420Y81334I-819J-388D01*
G03X-30179Y80923I0J-906D01*
G02X-30749Y80816I-336J220D01*
G03X-31276Y80986I-528J-736D01*
G03X-32107Y80441I0J-906D01*
G02X-32317Y80322I-184J80D01*
G03X-32402Y80329I-117J-898D01*
G02X-32588Y80581I8J201D01*
G03X-32558Y80812I-876J231D01*
G03X-33464Y81718I-906J0D01*
G03X-34276Y81213I0J-905D01*
G02X-34464Y81028I-360J178D01*
G01X-35227Y81330D01*
G03X-35594Y81408I-368J-827D01*
G03X-36341Y81014I0J-905D01*
G02X-36898Y80909I-331J227D01*
G03X-37189Y81039I-509J-750D01*
G01Y81040D01*
X-37179Y85826D01*
G37*
G36*
G01X-42323D02*
X-37795D01*
X-37805Y80973D01*
G03X-38313Y80159I398J-814D01*
G03X-38231Y79782I906J0D01*
G01X-38212Y79742D01*
Y79001D01*
X-38229Y78963D01*
G03X-38322Y78513I1037J-449D01*
G03X-38275Y78189I1130J-1D01*
G03X-36987Y76206I4024J1204D01*
G01X-36937Y76163D01*
X-36936Y76162D01*
G02X-36120Y75008I-1890J-2202D01*
G01X-43503D01*
Y84646D01*
G02X-42323Y85826I1180J0D01*
G37*
G36*
G01X-29242Y79611D02*
G02X-29081Y80063I643J26D01*
G01X-29423Y80457D01*
X-29674Y79999D01*
G02X-29422Y79592I-380J-517D01*
G03X-29242Y79611I82J85D01*
G37*
G36*
G01X-27964Y79101D02*
G02X-27864Y79529I587J88D01*
G01X-28289Y79832D01*
X-28451Y79335D01*
G02X-28116Y79051I-185J-558D01*
G03X-27964Y79101I49J107D01*
G37*
G36*
G01X-35501Y79879D02*
X-35231Y80149D01*
X-35584Y80532D01*
X-35937Y80149D01*
X-35667Y79879D01*
G03X-35501I83J83D01*
G37*
G36*
G01X-34081Y78778D02*
X-34026Y79493D01*
X-34536Y79559D01*
X-34638Y79069D01*
X-34283Y78705D01*
G03X-34081Y78778I84J82D01*
G37*
G36*
G01X-25735Y80522D02*
Y80904D01*
X-26256Y80925D01*
X-26235Y80404D01*
X-25853D01*
G03X-25735Y80522I0J118D01*
G37*
G36*
G01X-22491Y80306D02*
X-22109Y80383D01*
X-22113Y80903D01*
X-22632Y80880D01*
Y80422D01*
G03X-22491Y80306I118J0D01*
G37*
G36*
G01X-23814Y80292D02*
X-23426Y80377D01*
X-23407Y80894D01*
X-23925Y80903D01*
X-23957Y80414D01*
G03X-23814Y80292I118J-7D01*
G37*
G36*
G01X-33381Y80189D02*
X-33111Y80459D01*
X-33464Y80842D01*
X-33817Y80459D01*
X-33547Y80189D01*
G03X-33381I83J83D01*
G37*
G36*
G01X-31831Y78650D02*
G02X-31945Y79337I775J482D01*
G01X-32452Y79449D01*
X-32570Y78943D01*
G02X-31999Y78544I-198J-891D01*
G03X-31831Y78650I50J107D01*
G37*
G36*
G01X-20729Y80361D02*
X-20455Y80635D01*
X-20808Y81017D01*
X-21162Y80637D01*
X-20897Y80362D01*
G03X-20729Y80361I84J82D01*
G37*
G36*
G01X-24837Y80233D02*
X-24567Y80503D01*
X-24920Y80886D01*
X-25273Y80503D01*
X-25003Y80233D01*
G03X-24837I83J83D01*
G37*
G36*
G01X-11733Y79775D02*
G02X-11326Y80338I891J-215D01*
G01X-11601Y80778D01*
X-12043Y80504D01*
G02X-11926Y79820I-771J-484D01*
G03X-11733Y79775I111J40D01*
G37*
G36*
G01X-13119Y79173D02*
G02X-12708Y79622I763J-285D01*
G01X-12976Y80066D01*
X-13431Y79814D01*
G02X-13297Y79220I-654J-460D01*
G03X-13119Y79173I108J48D01*
G37*
G36*
G01X-14097Y80094D02*
X-13827Y80364D01*
X-14180Y80746D01*
X-14533Y80364D01*
X-14263Y80094D01*
G03X-14097I83J83D01*
G37*
G36*
G01X-31135Y79515D02*
X-30923Y79727D01*
X-31276Y80130D01*
X-31629Y79727D01*
X-31417Y79515D01*
G03X-31135I141J141D01*
G37*
G36*
G01X-8756Y81536D02*
X-7406D01*
X-7024Y81154D01*
G02X-6811Y80533I-574J-544D01*
G01X-6812Y80526D01*
G02X-6875Y80333I-492J54D01*
G03X-6994Y80054I1536J-820D01*
G03X-7080Y79514I1655J-540D01*
G01Y76348D01*
X-9194D01*
X-9142Y79562D01*
X-9116Y79640D01*
Y81176D01*
X-8756Y81536D01*
G37*
G36*
G01X-5974Y85826D02*
X-4538D01*
G02X-2792Y85297I-1J-3149D01*
G01X-1993Y84765D01*
G02X-591Y82146I-1747J-2620D01*
G01Y74824D01*
X-5934D01*
Y79513D01*
G02X-5861Y79796I594J-2D01*
G03X-5671Y80404I-1443J784D01*
G03X-6013Y81725I-1927J206D01*
G01X-6050Y81777D01*
Y82042D01*
X-5974D01*
Y85826D01*
G37*
G54D10*
X-57775Y-322792D03*
X-75856Y-329164D03*
X-73700D03*
X-70700D03*
X-67700D03*
X-64700D03*
X-61700D03*
X-58700D03*
X-55700D03*
X-52700D03*
X-60116D03*
X-57140Y-329200D03*
X-63220Y-329164D03*
X-66384Y-329200D03*
X-69228Y-329128D03*
X-72204Y-329200D03*
X-68622Y-318882D03*
X-80288Y-323179D03*
X-80328Y-324483D03*
X-80712Y-328420D03*
X-78348Y-328798D03*
X-79824Y-329092D03*
X-81632Y-327788D03*
X-82488Y-326356D03*
X-82736Y-324904D03*
X-82696Y-323676D03*
Y-322580D03*
X-82628Y-321548D03*
X-82640Y-320276D03*
X-81300Y-320172D03*
X-80144Y-320192D03*
X-78688Y-323184D03*
X-80184Y-327448D03*
X-79044Y-324388D03*
X-77484Y-324200D03*
X-68447Y-323992D03*
X-67452Y-325148D03*
X-75404Y-324708D03*
X-74168Y-323660D03*
X-65644Y-323616D03*
X-61813Y-324872D03*
X-63191Y-323984D03*
X-73157Y-324568D03*
X-71968Y-323672D03*
X-56316Y-325180D03*
X-59804Y-324364D03*
X-57872Y-324844D03*
X-61083Y-323532D03*
X-64640Y-324740D03*
X-52328Y-324968D03*
X-54104Y-324788D03*
X-56252Y-322769D03*
X-70153Y-325120D03*
X-79888Y-264443D03*
X-76240Y-264579D03*
X-72728Y-264511D03*
X-82576Y-264303D03*
X-62552Y-223131D03*
X-65616Y-223180D03*
X-52704Y-223339D03*
X-56216Y-223407D03*
X-59864Y-223271D03*
X-76248Y-239067D03*
X-66400Y-239275D03*
X-69912Y-239343D03*
X-73560Y-239207D03*
X-81796Y-253207D03*
X-71948Y-253415D03*
X-75460Y-253483D03*
X-79108Y-253347D03*
X-52436Y-211315D03*
X-55948Y-211383D03*
X-49700Y-329164D03*
X-50348Y-323312D03*
X-49411Y-324392D03*
X-48572Y-329132D03*
X-48036Y-324988D03*
X-46924Y-325000D03*
X-50789Y-325044D03*
X-42344Y-320360D03*
X-43632Y-320432D03*
X-44628Y-323888D03*
X-43356Y-324524D03*
X-43416Y-323168D03*
X-41032Y-320424D03*
X-40868Y-322136D03*
X-40860Y-323640D03*
X-40884Y-325068D03*
X-41188Y-326456D03*
X-43580Y-327832D03*
X-42480Y-327780D03*
X-41208Y-327772D03*
X-41164Y-329124D03*
X-42560Y-329268D03*
X-43860D03*
X-45236Y-329276D03*
X-46556Y-329296D03*
X-48516Y-272148D03*
X-9632Y-218523D03*
X-28016Y-237955D03*
X-25016D03*
X-22016D03*
X-19016D03*
X-15072Y-238023D03*
X-12072D03*
X-9072D03*
X-41516Y-251339D03*
X-38516D03*
X-35516D03*
X-32516D03*
X-28572Y-251407D03*
X-25572D03*
X-22572D03*
X-29916Y-259775D03*
X-32916D03*
X-42860Y-259707D03*
X-39860D03*
X-36860D03*
X-45860D03*
X-37504Y-177783D03*
X-41016Y-177851D03*
X-44664Y-177715D03*
X-27656Y-177991D03*
X-31168Y-178059D03*
X-34816Y-177923D03*
X-37764Y-188935D03*
X-41276Y-189003D03*
X-44924Y-188867D03*
X-27916Y-189143D03*
X-31428Y-189211D03*
X-35076Y-189075D03*
X-41700Y-201111D03*
X-45212Y-201179D03*
X-48860Y-201043D03*
X-31852Y-201319D03*
X-35364Y-201387D03*
X-39012Y-201251D03*
X-42588Y-211523D03*
X-46100Y-211591D03*
X-49748Y-211455D03*
X-34352Y-138379D03*
X-30704Y-138515D03*
X-27192Y-138447D03*
X-44200Y-138171D03*
X-40552Y-138307D03*
X-37040Y-138239D03*
X-34352Y-148379D03*
X-30704Y-148515D03*
X-27192Y-148447D03*
X-44200Y-148171D03*
X-40552Y-148307D03*
X-37040Y-148239D03*
X-34352Y-158379D03*
X-30704Y-158515D03*
X-27192Y-158447D03*
X-44200Y-158171D03*
X-40552Y-158307D03*
X-37040Y-158239D03*
X-37504Y-167783D03*
X-41016Y-167851D03*
X-44664Y-167715D03*
X-27656Y-167991D03*
X-31168Y-168059D03*
X-34816Y-167923D03*
X-34352Y-98379D03*
X-30704Y-98515D03*
X-27192Y-98447D03*
X-44200Y-98171D03*
X-40552Y-98307D03*
X-37040Y-98239D03*
X-34352Y-108379D03*
X-30704Y-108515D03*
X-27192Y-108447D03*
X-44200Y-108171D03*
X-40552Y-108307D03*
X-37040Y-108239D03*
X-34352Y-118379D03*
X-30704Y-118515D03*
X-27192Y-118447D03*
X-44200Y-118171D03*
X-40552Y-118307D03*
X-37040Y-118239D03*
X-34352Y-128379D03*
X-30704Y-128515D03*
X-27192Y-128447D03*
X-44200Y-128171D03*
X-40552Y-128307D03*
X-37040Y-128239D03*
X-34352Y-58379D03*
X-30704Y-58515D03*
X-27192Y-58447D03*
X-44200Y-58171D03*
X-40552Y-58307D03*
X-37040Y-58239D03*
X-34352Y-68379D03*
X-30704Y-68515D03*
X-27192Y-68447D03*
X-44200Y-68171D03*
X-40552Y-68307D03*
X-37040Y-68239D03*
X-34352Y-78379D03*
X-30704Y-78515D03*
X-27192Y-78447D03*
X-44200Y-78171D03*
X-40552Y-78307D03*
X-37040Y-78239D03*
X-34352Y-88379D03*
X-30704Y-88515D03*
X-27192Y-88447D03*
X-44200Y-88171D03*
X-40552Y-88307D03*
X-37040Y-88239D03*
X-34352Y-18379D03*
X-30704Y-18515D03*
X-27192Y-18447D03*
X-44200Y-18171D03*
X-40552Y-18307D03*
X-37040Y-18239D03*
X-34352Y-28379D03*
X-30704Y-28515D03*
X-27192Y-28447D03*
X-44200Y-28171D03*
X-40552Y-28307D03*
X-37040Y-28239D03*
X-34352Y-38379D03*
X-30704Y-38515D03*
X-27192Y-38447D03*
X-44200Y-38171D03*
X-40552Y-38307D03*
X-37040Y-38239D03*
X-34352Y-48379D03*
X-30704Y-48515D03*
X-27192Y-48447D03*
X-44200Y-48171D03*
X-40552Y-48307D03*
X-37040Y-48239D03*
X-11660Y22356D03*
X-37040Y26653D03*
X-40552Y26585D03*
X-44200Y26721D03*
X-37316Y13433D03*
X-40828Y13365D03*
X-44476Y13501D03*
X-37108Y-5915D03*
X-40620Y-5983D03*
X-44268Y-5847D03*
X-27260Y-6123D03*
X-30772Y-6191D03*
X-34420Y-6055D03*
X-10732Y31217D03*
X-43924Y37877D03*
X-40276Y37741D03*
X-36764Y37809D03*
X-11008Y37825D03*
X-17928Y78696D03*
X-10076Y79488D03*
X-36396Y85073D03*
X-34424D03*
X-32284Y85037D03*
X-29284D03*
X-26284D03*
X-23284D03*
X-20284D03*
X-17284D03*
X-14284D03*
X-11284D03*
X-10100Y80481D03*
X-26684Y79449D03*
X-30196Y74980D03*
X-40828Y75301D03*
X-42376Y75273D03*
X-40392Y76345D03*
X-41624Y76285D03*
X-42856Y76357D03*
Y78193D03*
X-42972Y79465D03*
X-42940Y80725D03*
X-38872Y79561D03*
X-38732Y81057D03*
X-40520Y79465D03*
X-40492Y80785D03*
X-42616Y82273D03*
X-42588Y83817D03*
X-38820Y85221D03*
X-40740Y85121D03*
X-42316Y85093D03*
X-41044Y84016D03*
X-37407Y80159D03*
X-29420Y80428D03*
X-28280Y79804D03*
X-35584Y80502D03*
X-34524Y79532D03*
X-26235Y80904D03*
X-22132Y80880D03*
X-23427Y80872D03*
X-33464Y80812D03*
X-32436Y79424D03*
X-16537Y81180D03*
X-19496Y81016D03*
X-18012Y81052D03*
X-20808Y80988D03*
X-24920Y80856D03*
X-11608Y80749D03*
X-12984Y80037D03*
X-14180Y80717D03*
X-16216Y78917D03*
X-31276Y80080D03*
X-6632Y-218523D03*
X-3632D03*
X-632D03*
X3312Y-218591D03*
X6312D03*
X9312D03*
X-1280Y-183643D03*
X1720D03*
X4720D03*
X7720D03*
X11664Y-183711D03*
X14664D03*
X17664D03*
X-2504Y-200499D03*
X496D03*
X3496D03*
X6496D03*
X10440Y-200567D03*
X13440D03*
X16440D03*
X-1280Y-143643D03*
X1720D03*
X4720D03*
X7720D03*
X11664Y-143711D03*
X14664D03*
X17664D03*
X-1280Y-153643D03*
X1720D03*
X4720D03*
X7720D03*
X11664Y-153711D03*
X14664D03*
X17664D03*
X-1280Y-163643D03*
X1720D03*
X4720D03*
X7720D03*
X11664Y-163711D03*
X14664D03*
X17664D03*
X-1280Y-173643D03*
X1720D03*
X4720D03*
X7720D03*
X11664Y-173711D03*
X14664D03*
X17664D03*
X15420Y-99943D03*
X18420D03*
X12420D03*
X2476Y-99875D03*
X5476D03*
X8476D03*
X-524D03*
X15420Y-109943D03*
X18420D03*
X12420D03*
X2476Y-109875D03*
X5476D03*
X8476D03*
X-524D03*
X15420Y-119943D03*
X18420D03*
X12420D03*
X2476Y-119875D03*
X5476D03*
X8476D03*
X-524D03*
X15420Y-129943D03*
X18420D03*
X12420D03*
X2476Y-129875D03*
X5476D03*
X8476D03*
X-524D03*
X15420Y-59943D03*
X18420D03*
X12420D03*
X2476Y-59875D03*
X5476D03*
X8476D03*
X-524D03*
X15420Y-69943D03*
X18420D03*
X12420D03*
X2476Y-69875D03*
X5476D03*
X8476D03*
X-524D03*
X15420Y-79943D03*
X18420D03*
X12420D03*
X2476Y-79875D03*
X5476D03*
X8476D03*
X-524D03*
X15420Y-89943D03*
X18420D03*
X12420D03*
X2476Y-89875D03*
X5476D03*
X8476D03*
X-524D03*
X14796Y-26143D03*
X17796D03*
X11796D03*
X1852Y-26075D03*
X4852D03*
X7852D03*
X-1148D03*
X15420Y-39943D03*
X18420D03*
X12420D03*
X2476Y-39875D03*
X5476D03*
X8476D03*
X-524D03*
X15420Y-49943D03*
X18420D03*
X12420D03*
X2476Y-49875D03*
X5476D03*
X8476D03*
X-524D03*
X-8444Y18541D03*
X-5444D03*
X-2444D03*
X556D03*
X-1148Y8697D03*
X1852D03*
X4852D03*
X7852D03*
X-940Y-5007D03*
X2060D03*
X5060D03*
X8060D03*
X12004Y-5075D03*
X15004D03*
X18004D03*
X-7732Y31217D03*
X-4732D03*
X-1732D03*
X-8008Y37825D03*
X-5008D03*
X-2008D03*
X-8284Y85037D03*
X-7304Y80580D03*
X-8269Y80972D03*
X-4372Y79877D03*
X-1328Y76249D03*
X-2448Y76261D03*
X-3680Y76293D03*
X-3564Y79277D03*
X-3608Y80541D03*
X-1468Y77497D03*
X-1116Y78641D03*
X-1104Y79921D03*
X-1116Y81281D03*
X-1508Y82345D03*
X-2556Y83605D03*
X-3708Y83637D03*
X-3892Y85117D03*
X-5248Y85288D03*
X-5276Y80370D03*
X-5374Y79194D03*
G54D11*
G01X-47312Y-323154D02*
Y-315649D01*
G03X-47538Y-313627I-9160J0D01*
G03X-49360Y-309694I-10082J-2282D01*
G02X-50780Y-305447I5645J4248D01*
G01Y-270444D01*
G02X-38692Y-241260I41273J0D01*
G01X-18184Y-220752D01*
G03X-4860Y-188585I-32167J32167D01*
G01Y-2978D01*
G03X-9425Y9404I-19079J-1D01*
G02X-13988Y21787I14516J12381D01*
G01Y58530D01*
G02X-10999Y65894I10568J-1D01*
G03X-8011Y73258I-7580J7364D01*
G01Y77867D01*
G54D12*
G01X-42323Y86614D02*
G03X-44291Y84646I0J-1968D01*
G01Y54767D01*
G02X-44308Y53711I-32146J-11D01*
G02X-44441Y51432I-39355J1153D01*
G01X-46897Y23356D01*
G03X-47047Y19925I39216J-3433D01*
G01Y-181474D01*
G02X-54229Y-204144I-39370J0D01*
G01X-76873Y-236295D01*
G03X-84055Y-258965I32188J-22670D01*
G01Y-326169D01*
G03X-82302Y-329444I3936J0D01*
G01X-81504Y-329977D01*
G03X-79320Y-330638I2184J3276D01*
G01X-41535D01*
G03X-39567Y-328669I0J1968D01*
G01Y-279663D01*
G02X-33307Y-265267I19684J-1D01*
G01X8543Y-226240D01*
G03X21063Y-197447I-26850J28794D01*
G01Y-2693D01*
G03X11948Y13913I-19685J0D01*
G01X5666Y17912D01*
G02X197Y27876I6342J9964D01*
G01Y82145D01*
G03X-1556Y85421I-3937J0D01*
G01X-2355Y85953D01*
G03X-4539Y86614I-2184J-3276D01*
G01X-42323D01*
G54D13*
G01X-37192Y78513D02*
G03X-36250Y77063I2941J880D01*
G01X-36200Y77020D01*
G02X-34796Y74075I-2626J-3059D01*
G03X-34325Y72297I4031J116D01*
G02X-33851Y70401I-3558J-1897D01*
G01Y31445D01*
G03X-33815Y28967I85335J0D01*
G01Y21808D01*
G03X-31305Y8046I38806J-32D01*
G03X-31263Y7935I21759J8170D01*
G01X-30895Y6963D01*
G03X-29022Y3118I21799J8240D01*
G03X-28195Y1700I33266J18451D01*
G03X-28178Y1673I922J562D01*
G03X-27783Y1040I32469J19821D01*
G03X-27382Y426I32049J20493D01*
G03X-26646Y-646I31726J20993D01*
G01X-26230Y-1228D01*
Y-1229D01*
G02X-26034Y-1512I-8874J-6355D01*
G02X-25739Y-1980I-9083J-6053D01*
G02X-24905Y-4029I-6343J-3776D01*
G02X-24827Y-4471I-6428J-1362D01*
G01X-24750Y-5028D01*
G02X-24699Y-5758I-5250J-734D01*
G01Y-27300D01*
G03X-24700Y-27402I3522J-86D01*
G01Y-173785D01*
X-24699Y-184672D01*
G02X-24672Y-184860I-25062J-3695D01*
G01Y-187123D01*
G02X-28926Y-202692I-30671J15D01*
G02X-29478Y-203545I-23876J14845D01*
G02X-31848Y-206281I-20284J15176D01*
G01X-33654Y-208088D01*
X-33653Y-208089D01*
X-52468Y-226901D01*
G03X-70599Y-270689I43785J-43777D01*
G01Y-311194D01*
G02X-71980Y-315655I-7896J0D01*
G01X-76559Y-322343D01*
G01D02*
G03X-76958Y-323037I4219J-2887D01*
G54D14*
G01X-31276Y80080D02*
Y75143D01*
G03X-31017Y73831I3446J-1D01*
G03X-30823Y73482I1614J669D01*
G02X-30294Y71827I-2321J-1654D01*
G01Y21806D01*
G03X-28008Y9293I35283J-19D01*
G03X-27832Y8837I32288J12200D01*
G03X-27237Y7425I32097J12694D01*
G03X-27144Y7220I10173J4491D01*
G03X-27131Y7193I9378J4499D01*
G03X-24445Y2378I31389J14353D01*
G03X-23775Y1403I28778J19058D01*
G01X-23114Y475D01*
G02X-21337Y-3982I-8220J-5860D01*
G01X-21179Y-5111D01*
G02X-21151Y-5511I-2847J-400D01*
G01Y-187129D01*
G02X-25908Y-204518I-34195J9D01*
G02X-26917Y-206046I-26897J16664D01*
G02X-30274Y-210071I-25894J18184D01*
G01X-51088Y-230885D01*
G03X-51836Y-231713I44028J-40526D01*
G03X-63870Y-252101I42326J-38729D01*
G03X-63905Y-252207I54461J-18041D01*
G03X-63938Y-252299I9623J-3504D01*
G03X-63958Y-252355I3180J-1167D01*
G01X-63965Y-252375D01*
G03X-64785Y-255073I54459J-18025D01*
G03X-65390Y-257449I51994J-14504D01*
G03X-65393Y-257463I2380J-517D01*
G03X-66789Y-267751I54455J-12628D01*
G03X-66841Y-268781I59736J-3532D01*
G03Y-268889I2442J-54D01*
G01Y-317253D01*
G02X-67249Y-319487I-6335J3D01*
G02X-67918Y-320553I-2963J1117D01*
G03X-69958Y-323069I14815J-14097D01*
G03X-70153Y-323696I906J-625D01*
G01Y-325120D01*
G54D15*
G01X-9966Y73258D02*
G02X-12401Y67256I-8613J-1D01*
G03X-15940Y58780I8981J-8727D01*
G01X-15944D01*
Y21783D01*
G03X-10838Y8047I21035J2D01*
G02X-6816Y-2978I-13101J-11025D01*
G01Y-188586D01*
G02X-19567Y-219369I-43535J1D01*
G01X-40075Y-239877D01*
G03X-52736Y-270444I30568J-30567D01*
G01Y-305697D01*
X-52732D01*
G03X-50923Y-310869I9017J251D01*
G02X-49445Y-314059I-6697J-5040D01*
G02X-49268Y-315642I-7027J-1587D01*
G01Y-323154D01*
G03X-49102Y-323941I1956J2D01*
G01X-49095Y-324539D01*
G03X-49186Y-324988I1059J-448D01*
G03Y-325002I1150J-7D01*
G01X-49635D01*
G03X-50589Y-323906I-1155J-42D01*
G01X-50726Y-323845D01*
X-52028Y-322542D01*
Y-322541D01*
X-52101Y-322468D01*
G02X-52382Y-322081I1069J1072D01*
G03X-52420Y-322008I-2202J-1100D01*
G02X-52544Y-321589I790J462D01*
G01Y-314874D01*
X-52551D01*
G03X-53595Y-311939I-5349J-249D01*
G02X-54137Y-311077I5433J4018D01*
G02X-54916Y-307929I5978J3150D01*
G01Y-270437D01*
G02X-41619Y-238333I45410J-3D01*
G01X-21111Y-217825D01*
G03X-13311Y-206968I-29242J29239D01*
G03X-13300Y-206946I-686J357D01*
G03X-12613Y-205367I-43275J19767D01*
G01X-12490Y-205069D01*
G03X-12489Y-205065I-747J189D01*
G03X-8997Y-187176I-44085J17891D01*
G01Y-173830D01*
X-8998Y-173819D01*
Y-173818D01*
G02Y-173717I5159J50D01*
G01Y-173715D01*
Y-5397D01*
G03X-9083Y-3476I-21814J-3D01*
G01X-9085Y-3473D01*
G03X-9117Y-3230I-3779J-374D01*
G02X-9139Y-3016I1715J284D01*
G03X-9163Y-2716I-3559J-134D01*
G03X-13396Y7738I-21648J-2682D01*
G03X-13410Y7756I-617J-466D01*
G01X-13411Y7758D01*
X-13423Y7773D01*
G02X-14495Y9316I18516J14008D01*
G01X-14569Y9432D01*
G02X-14748Y9722I19667J12339D01*
G02X-14832Y9861I14633J8938D01*
G01X-14848Y9888D01*
X-14849Y9890D01*
G02X-18124Y21778I19941J11889D01*
G01Y59001D01*
G02X-16318Y65708I13976J-167D01*
G03X-16307Y65725I-643J428D01*
G03X-16147Y66017I-7083J4071D01*
G03X-16146Y66021I-739J187D01*
G02X-15275Y67436I10061J-5217D01*
G01X-13779Y69510D01*
G03X-12942Y71070I-5423J3914D01*
G03X-12933Y71094I-719J283D01*
G03X-12861Y71307I-3790J1400D01*
G03X-12681Y72504I-3892J1197D01*
G01X-12680D01*
Y77620D01*
G03X-12681Y77646I-773J-17D01*
G02X-12658Y77774I516J-27D01*
G01X-12652Y77793D01*
G02X-12595Y77910I513J-177D01*
G01X-12569Y77950D01*
G02X-12376Y78184I1398J-956D01*
G03X-12372Y78187I-456J613D01*
G02X-12017Y78480I1532J-1495D01*
G03X-11661Y78769I-1220J1867D01*
G01X-11650Y78780D01*
G03X-11020Y79749I-1969J1969D01*
G02X-11000Y79765I236J-275D01*
G03X-10452Y80749I-609J984D01*
G03X-10455Y80833I-1155J1D01*
G01X-9766D01*
Y79744D01*
G03X-9848Y79379I1858J-609D01*
G03X-9966Y77513I14725J-1868D01*
G01Y73258D01*
G01X-75750Y-318718D02*
X-83017D01*
Y-281014D01*
X-71980D01*
Y-311194D01*
G02X-73119Y-314875I-6516J-1D01*
G01X-75750Y-318718D01*
G01X-47500Y-308295D02*
G02X-48452Y-305514I3785J2849D01*
G01Y-280462D01*
X-40605D01*
Y-318926D01*
X-44984D01*
Y-315644D01*
G03X-45273Y-313087I-11490J-4D01*
G03X-47500Y-308295I-12346J-2824D01*
G01X-43706Y46030D02*
G02X-43857Y46195I0J152D01*
G01X-43407Y51341D01*
G03X-43270Y53679I-40256J3532D01*
G03X-43253Y54745I-33167J1062D01*
G01Y75114D01*
X-36439D01*
G02X-36176Y74039I-2387J-1154D01*
G01Y74038D01*
G03X-35573Y71704I5411J153D01*
G01Y71703D01*
X-35544Y71647D01*
G02X-35232Y70401I-2339J-1248D01*
G01Y46030D01*
X-43706D01*
G01X-11660Y58530D02*
G02X-9271Y64332I8240J0D01*
G03X-5684Y73255I-9309J8925D01*
G01Y74714D01*
X-841D01*
Y46334D01*
X-11660D01*
Y58530D01*
G54D16*
G01X174997Y-396295D02*
Y-386295D01*
G01X169747D02*
Y-396295D01*
G01Y-391295D02*
X174997D01*
G01X165247Y-396295D02*
Y-386295D01*
X159497Y-396295D01*
Y-386295D01*
G01X152372Y-396295D02*
Y-386295D01*
X153872Y-388295D01*
G01Y-396295D02*
X150872D01*
G01X145247D02*
Y-386295D01*
X139497Y-396295D01*
Y-386295D01*
G01X132372D02*
Y-396295D01*
G01X135247Y-386295D02*
X129497D01*
G01X124997Y-396295D02*
Y-386295D01*
G01X119747D02*
Y-396295D01*
G01Y-391295D02*
X124997D01*
G01X114747Y-396295D02*
Y-386295D01*
X109997D01*
G01X111747Y-391128D02*
X114747D01*
G01X104872Y-386295D02*
Y-396295D01*
X99872D01*
G01X85497Y-386295D02*
X82372Y-396295D01*
X79247Y-386295D01*
G01X69872Y-396295D02*
X74872D01*
Y-386295D01*
X69872D01*
G01X71872Y-391128D02*
X74872D01*
G01X64872Y-396295D02*
Y-386295D01*
X61747D01*
X60747Y-386795D01*
X60122Y-387462D01*
X59872Y-388795D01*
X60122Y-390128D01*
X60872Y-390962D01*
X61747Y-391462D01*
X64872D01*
G01X61747D02*
X59872Y-396295D01*
G01X52372Y-396628D02*
X52622Y-396462D01*
Y-396128D01*
X52372Y-395962D01*
X52122Y-396128D01*
Y-396462D01*
X52372Y-396628D01*
G01X45497Y-396295D02*
X42372Y-386295D01*
X39247Y-396295D01*
G01X40372Y-392795D02*
X44372D01*
G01X25497Y-396295D02*
X22372Y-386295D01*
X19247Y-396295D01*
G01X20372Y-392795D02*
X24372D01*
G01X14872Y-396295D02*
Y-386295D01*
X11747D01*
X10747Y-386795D01*
X10122Y-387462D01*
X9872Y-388795D01*
X10122Y-390128D01*
X10872Y-390962D01*
X11747Y-391462D01*
X14872D01*
G01X11747D02*
X9872Y-396295D01*
G01X2372Y-386295D02*
Y-396295D01*
G01X5247Y-386295D02*
X-503D01*
G01X-3878D02*
X-5628Y-396295D01*
X-7628Y-386295D01*
X-9628Y-396295D01*
X-11378Y-386295D01*
G01X-17628Y-396295D02*
X-16628Y-396128D01*
X-15753Y-395462D01*
X-15003Y-394462D01*
X-14503Y-393295D01*
X-14253Y-391962D01*
Y-390628D01*
X-14503Y-389295D01*
X-15003Y-388128D01*
X-15753Y-387128D01*
X-16628Y-386462D01*
X-17628Y-386295D01*
X-18628Y-386462D01*
X-19503Y-387128D01*
X-20253Y-388128D01*
X-20753Y-389295D01*
X-21003Y-390628D01*
Y-391962D01*
X-20753Y-393295D01*
X-20253Y-394462D01*
X-19503Y-395462D01*
X-18628Y-396128D01*
X-17628Y-396295D01*
G01X-25128D02*
Y-386295D01*
X-28253D01*
X-29253Y-386795D01*
X-29878Y-387462D01*
X-30128Y-388795D01*
X-29878Y-390128D01*
X-29128Y-390962D01*
X-28253Y-391462D01*
X-25128D01*
G01X-28253D02*
X-30128Y-396295D01*
G01X-34878D02*
Y-386295D01*
G01X-39628D02*
X-34878Y-392462D01*
G01X-40378Y-396295D02*
X-37003Y-389629D01*
G01X-58628Y-390962D02*
X-59128Y-390462D01*
X-59503Y-389629D01*
X-59753Y-388462D01*
X-59503Y-387462D01*
X-59003Y-386795D01*
X-58128Y-386295D01*
X-54753D01*
Y-396295D01*
X-58878D01*
X-59753Y-395628D01*
X-60253Y-394628D01*
X-60503Y-393462D01*
X-60253Y-392295D01*
X-59503Y-391295D01*
X-58628Y-390962D01*
X-54753D01*
G01X-67628Y-396295D02*
X-66628Y-396128D01*
X-65753Y-395462D01*
X-65003Y-394462D01*
X-64503Y-393295D01*
X-64253Y-391962D01*
Y-390628D01*
X-64503Y-389295D01*
X-65003Y-388128D01*
X-65753Y-387128D01*
X-66628Y-386462D01*
X-67628Y-386295D01*
X-68628Y-386462D01*
X-69503Y-387128D01*
X-70253Y-388128D01*
X-70753Y-389295D01*
X-71003Y-390628D01*
Y-391962D01*
X-70753Y-393295D01*
X-70253Y-394462D01*
X-69503Y-395462D01*
X-68628Y-396128D01*
X-67628Y-396295D01*
G01X-77628Y-386295D02*
Y-396295D01*
G01X-74753Y-386295D02*
X-80503D01*
G01X-87628D02*
Y-396295D01*
G01X-84753Y-386295D02*
X-90503D01*
G01X-97628Y-396295D02*
X-96628Y-396128D01*
X-95753Y-395462D01*
X-95003Y-394462D01*
X-94503Y-393295D01*
X-94253Y-391962D01*
Y-390628D01*
X-94503Y-389295D01*
X-95003Y-388128D01*
X-95753Y-387128D01*
X-96628Y-386462D01*
X-97628Y-386295D01*
X-98628Y-386462D01*
X-99503Y-387128D01*
X-100253Y-388128D01*
X-100753Y-389295D01*
X-101003Y-390628D01*
Y-391962D01*
X-100753Y-393295D01*
X-100253Y-394462D01*
X-99503Y-395462D01*
X-98628Y-396128D01*
X-97628Y-396295D01*
G01X-104378D02*
Y-386295D01*
X-107628Y-394628D01*
X-110878Y-386295D01*
Y-396295D01*
G54D17*
G01X-37407Y80159D02*
Y79032D01*
G03X-37192Y78513I734J0D01*
G54D18*
G01X-75800Y-326148D02*
X-75894Y-326054D01*
G01X-66080Y-324992D02*
X-66154Y-324918D01*
G02X-66595Y-324049I1102J1106D01*
G01X-71564Y-325104D02*
G03X-70840Y-323356I-1748J1748D01*
G01Y-322816D01*
G02X-69627Y-319887I4143J0D01*
G01X-68622Y-318882D01*
G01X-17928Y78696D02*
X-18865D01*
G03X-19415Y78512I-1J-912D01*
G01X-19420Y78511D01*
X-19435Y78497D01*
G03X-19510Y78429I574J-709D01*
G01X-23539Y74400D01*
G03X-23985Y73675I1293J-1295D01*
G03X-24022Y73442I710J-232D01*
G01Y23495D01*
G03X-24017Y22910I34199J0D01*
G01Y21052D01*
G03X-19266Y5829I28286J475D01*
G03X-17829Y3864I23533J15701D01*
G02X-17811Y3840I-369J-295D01*
G02X-16777Y2153I-13195J-9248D01*
G02X-16619Y1847I-17858J-9415D01*
G02X-14963Y-3941I-14392J-7248D01*
G02Y-3948I-471J-4D01*
G01X-14939Y-4266D01*
G02X-14895Y-5404I-16070J-1191D01*
G01Y-187848D01*
G02X-25833Y-214484I-37902J1D01*
G01X-45650Y-234301D01*
G03X-57983Y-254242I36144J-36138D01*
G03X-58027Y-254368I3736J-1375D01*
G03X-58042Y-254412I1653J-588D01*
G03X-60616Y-270424I48530J-16014D01*
G01Y-318026D01*
G03X-60009Y-320381I4862J-2D01*
G03X-59955Y-320467I742J406D01*
G03X-59802Y-320713I4200J2442D01*
G03X-59645Y-320904I1031J687D01*
G01X-58096Y-322453D01*
G02X-57775Y-322792I-6055J-6055D01*
G01X-54734Y-323054D02*
Y-321631D01*
G02Y-321548I3105J41D01*
G01Y-315156D01*
G03X-54762Y-314761I-2884J-6D01*
G01X-54794Y-314523D01*
G03X-54797Y-314507I-3103J-574D01*
G03X-54798Y-314502I-3103J-618D01*
G03X-55323Y-313290I-3102J-624D01*
G02X-55605Y-312890I7278J5431D01*
G02X-56075Y-312101I7443J4968D01*
G02X-57108Y-307923I7926J4176D01*
G01Y-270427D01*
G02X-54707Y-255505I47596J-4D01*
G02X-54699Y-255480I45334J-14493D01*
G02X-54680Y-255428I453J-136D01*
G02X-43168Y-236784I45172J-15016D01*
G01X-22688Y-216304D01*
G03X-15859Y-207122I-27825J27825D01*
G03X-15285Y-206013I-34487J18553D01*
G03X-14637Y-204529I-41262J18901D01*
G01X-14519Y-204244D01*
G03X-11186Y-187172I-42054J17072D01*
G01Y-180807D01*
G02X-11187Y-180750I1614J57D01*
G01Y-173891D01*
X-11188Y-173874D01*
X-11189Y-173860D01*
G02Y-173831I945J15D01*
G02X-11188Y-173692I7350J17D01*
G02X-11187Y-173669I473J-9D01*
G01Y-5400D01*
G03X-11258Y-3775I-19623J-43D01*
G03X-11264Y-3704I-19553J-1617D01*
G03X-11279Y-3592I-2631J-295D01*
G02X-11284Y-3565I927J186D01*
G02X-11285Y-3561I456J116D01*
G02X-11328Y-3145I3883J612D01*
G02Y-3121I472J12D01*
G01Y-3114D01*
G03X-11345Y-2926I-2446J-126D01*
G03X-13285Y3425I-19466J-2474D01*
G03X-13474Y3791I-21150J-10690D01*
G03X-14825Y5980I-17338J-9189D01*
G02X-20314Y21534I19291J15553D01*
G01Y58837D01*
G02X-18201Y66831I16175J1D01*
G01X-18200D01*
G03X-18100Y67014I-5194J2957D01*
G02X-17466Y68113I12019J-6201D01*
G02X-17052Y68717I11358J-7341D01*
G01X-15555Y70790D01*
G03X-15008Y71801I-3651J2629D01*
G03X-14870Y72536I-1899J737D01*
G01Y77546D01*
G02X-14873Y77624I942J75D01*
G01Y77626D01*
G02X-14834Y78083I2709J-1D01*
G01X-14833Y78084D01*
G02X-14721Y78516I2703J-470D01*
G03X-14667Y78751I-1687J511D01*
G03X-14646Y78968I-1741J278D01*
G03X-14795Y79445I-752J27D01*
G02X-14904Y79773I440J328D01*
G03X-15212Y80515I-1050J-1D01*
G01X-69156Y-325328D02*
G03X-69511Y-324329I-997J208D01*
G02X-69599Y-324146I148J184D01*
G01Y-323805D01*
G02X-69493Y-323465I597J0D01*
G01X-69190Y-323028D01*
G02X-68134Y-321761I7576J-5240D01*
G01X-67518Y-321145D01*
G03X-66287Y-318173I-2972J2972D01*
G01Y-268883D01*
G02Y-268799I1888J42D01*
G02X-66235Y-267779I59233J-2508D01*
G02X-64853Y-257587I55297J-2308D01*
G02X-64850Y-257574I1835J-417D01*
G02X-64251Y-255221I52060J-12000D01*
G02X-63439Y-252550I54744J-15184D01*
G02X-63435Y-252538I53897J-17959D01*
G02X-63420Y-252498I2660J-975D01*
G01X-63418Y-252493D01*
G02X-63381Y-252389I9145J-3195D01*
G02X-63344Y-252278I53919J-17911D01*
G02X-51424Y-232084I53835J-18163D01*
G02X-50688Y-231269I44366J-39325D01*
G01X-29880Y-210462D01*
G03X-25434Y-204805I-22932J22598D01*
G03X-20597Y-187130I-29913J17685D01*
G01Y-4918D01*
G03X-20643Y-4277I-4555J-5D01*
G03X-20835Y-3259I-18066J-2880D01*
G03X-21091Y-2227I-17876J-3887D01*
G03X-21238Y-1725I-17629J-4890D01*
G03X-21536Y-1015I-9772J-3684D01*
G03X-21678Y-719I-9486J-4368D01*
G03X-21770Y-545I-12877J-6697D01*
G02X-21777Y-535I764J542D01*
G03X-22176Y166I-9266J-4810D01*
G03X-22494Y619I-4331J-2702D01*
G02X-22841Y1067I26675J21019D01*
G02X-23983Y2685I27164J20384D01*
G02X-26625Y7419I28240J18864D01*
G02X-26638Y7449I9036J3933D01*
G02X-26731Y7651I9550J4519D01*
G02X-27316Y9041I31002J13866D01*
G02X-27489Y9489I31594J12458D01*
G02X-29740Y21806I32478J12300D01*
G01Y76096D01*
G01X-69100Y-325384D02*
X-69156Y-325328D01*
G01X-75894Y-326054D02*
G02X-76421Y-324643I1285J1284D01*
G02X-76309Y-324241I1039J-73D01*
G02X-76033Y-323906I906J-465D01*
G03X-75614Y-323274I-743J947D01*
G02X-74837Y-322327I1441J-390D01*
G01X-74835Y-322326D01*
G03X-74786Y-322298I-246J487D01*
G01X-74359Y-321757D01*
G03X-72784Y-319620I-32610J25683D01*
G03X-72520Y-319191I-4157J2854D01*
G02X-72163Y-318594I8829J-4874D01*
G01X-72164D01*
G02X-71440Y-317606I8482J-5456D01*
G03X-71368Y-317511I-828J702D01*
G02X-71234Y-317348I847J-560D01*
G01X-70821Y-316936D01*
G03X-69286Y-313225I-3718J3711D01*
G01X-69285Y-313226D01*
Y-312116D01*
X-69286D01*
Y-309144D01*
X-69287Y-308948D01*
X-69285Y-308946D01*
Y-308555D01*
X-69283Y-308553D01*
Y-268919D01*
G02Y-268703I4884J108D01*
G02X-69231Y-267627I62235J-2468D01*
G02X-67786Y-256961I58292J-2466D01*
G02X-67782Y-256942I4773J-995D01*
G02X-67139Y-254419I54983J-12669D01*
G02X-66287Y-251613I57637J-15968D01*
G01X-66275Y-251571D01*
G02X-66233Y-251460I5474J-2008D01*
G02X-66213Y-251404I11955J-4238D01*
G02X-66188Y-251327I56902J-18432D01*
G02X-53652Y-230078I56678J-19115D01*
G02X-52852Y-229193I46602J-41322D01*
G01X-32011Y-208348D01*
G03X-28919Y-204639I-20802J20485D01*
G03X-28002Y-203251I-23890J16780D01*
G03X-23593Y-187124I-27342J16141D01*
G01Y-5587D01*
G03X-23605Y-5418I-1235J-3D01*
G01X-23758Y-4322D01*
G03X-24283Y-2415I-7577J-1060D01*
G03X-25136Y-912I-10832J-5154D01*
G03X-25352Y-600I-9969J-6671D01*
G01X-25767Y-19D01*
G02X-26483Y1023I30102J21451D01*
G02X-27257Y2236I30765J20484D01*
G01Y2237D01*
G02X-28088Y3660I31494J19346D01*
G02X-29885Y7345I18992J11542D01*
G01X-30289Y8413D01*
G02X-30295Y8428I436J183D01*
G02X-32736Y21807I35285J13350D01*
G01Y70935D01*
G03X-33228Y72565I-2952J-2D01*
G02X-33718Y74194I2462J1629D01*
G01Y75537D01*
G03X-34394Y77159I-2681J-165D01*
G03X-34955Y77546I-1336J-1336D01*
G02X-35947Y78605I778J1723D01*
G03X-36139Y78904I-784J-292D01*
G02X-36376Y79476I572J572D01*
G01Y79822D01*
G03X-36442Y80162I-913J-1D01*
G02X-36505Y80577I848J341D01*
G01Y81162D01*
G01X-55060Y-324308D02*
G02X-54882Y-323878I608J0D01*
G01X-54830Y-323826D01*
G03X-54740Y-323614I-205J212D01*
G01Y-323151D01*
G03X-54734Y-323054I-788J97D01*
G01X-66595Y-324049D02*
G03X-66631Y-323878I-1639J-256D01*
G02X-66282Y-322822I986J260D01*
G03X-66107Y-322664I-1190J1494D01*
G03X-64871Y-319612I-3146J3051D01*
G01Y-268868D01*
G02Y-268847I472J11D01*
G02X-64819Y-267851I57814J-2519D01*
G02X-63458Y-257848I53882J-2237D01*
G02X-63457Y-257841I466J-63D01*
G02X-63139Y-256546I50663J-11754D01*
G02X-62103Y-253026I53628J-13871D01*
G02X-62095Y-253007I1309J-540D01*
G02X-62079Y-252961I5716J-1962D01*
G02X-62040Y-252848I7836J-2641D01*
G02X-62000Y-252727I52620J-17328D01*
G02X-50371Y-233032I52492J-17713D01*
G02X-49665Y-232250I43305J-38386D01*
G01X-28875Y-211461D01*
G03X-24219Y-205540I-23928J23607D01*
G03X-19181Y-187133I-31130J18413D01*
G01Y-4922D01*
G03X-19241Y-3941I-7955J6D01*
G03X-20249Y-420I-11770J-1465D01*
G03X-20415Y-76I-10764J-4982D01*
G03X-20538Y158I-14164J-7296D01*
G03X-21077Y1080I-10497J-5518D01*
G03X-21353Y1463I-4370J-2858D01*
G02X-21709Y1922I25536J20173D01*
G02X-22803Y3471I26024J19540D01*
G02X-26163Y9993I27065J18070D01*
G02X-28324Y21806I31150J11803D01*
G01Y74577D01*
G02X-27578Y76378I2547J0D01*
G01X-26388Y77568D01*
Y79476D01*
G01X-29420Y80428D02*
X-29408Y80416D01*
Y79949D01*
G03X-29278Y79550I1024J113D01*
G03X-29135Y79363I772J442D01*
G01X-28967Y79195D01*
G03X-28889Y79117I687J609D01*
G01X-28782Y79010D01*
G02X-28416Y78127I-882J-883D01*
G01Y77736D01*
G02X-28842Y76407I-2287J0D01*
G03X-29268Y75077I1861J-1329D01*
G01Y21806D01*
G03X-27047Y9657I34256J-15D01*
G03X-26876Y9215I31317J11862D01*
G03X-26299Y7843I31151J12293D01*
G03X-26209Y7646I9225J4095D01*
G03X-26195Y7615I8559J3847D01*
G03X-23589Y2947I30450J13938D01*
G03X-22464Y1352I27917J18497D01*
G03X-22123Y911I26662J20264D01*
G02X-21775Y416I-4382J-3451D01*
G02X-21375Y-284I-9268J-5760D01*
G03X-21371Y-289I365J288D01*
G02X-21257Y-505I-13197J-7103D01*
G02X-21107Y-817I-9761J-4885D01*
G02X-20791Y-1572I-9904J-4589D01*
G02X-20636Y-2100I-17928J-5550D01*
G02X-20176Y-4206I-18074J-5051D01*
G02X-20125Y-4917I-4976J-714D01*
G01Y-187131D01*
G02X-25029Y-205050I-35222J9D01*
G02X-29545Y-210795I-27780J17190D01*
G01X-50347Y-231596D01*
G03X-51073Y-232400I43286J-39816D01*
G03X-62896Y-252428I41565J-38040D01*
G03X-62934Y-252543I53480J-17735D01*
G03X-62972Y-252650I8664J-3137D01*
G03X-62978Y-252667I6587J-2334D01*
G03X-62991Y-252699I2181J-904D01*
G03X-63796Y-255347I53484J-17706D01*
G03X-64387Y-257668I51007J-14224D01*
G03X-64389Y-257680I1392J-238D01*
G03X-65763Y-267803I53451J-12410D01*
G03X-65815Y-268815I58708J-3524D01*
G03Y-268878I1416J-32D01*
G01Y-318579D01*
G02X-66374Y-321233I-6571J-2D01*
G02X-66768Y-321831I-1983J878D01*
G03X-67669Y-323309I3179J-2951D01*
G02X-67878Y-323737I-2041J732D01*
G01X-67976Y-323892D01*
G02X-68124Y-323996I-199J126D01*
G01X-68358Y-324049D01*
X-68447Y-323992D01*
G01X-28280Y79804D02*
X-28301Y79751D01*
X-28145Y79374D01*
G02X-27944Y78361I-2450J-1012D01*
G01Y77733D01*
G02X-28457Y76132I-2754J0D01*
G03X-28742Y75513I1476J-1055D01*
G03X-28796Y75000I2428J-515D01*
G01Y21806D01*
G03X-26605Y9825I33784J-13D01*
G03X-25867Y8036I30877J11691D01*
G03X-25774Y7833I8792J3905D01*
G03X-23196Y3209I30033J13713D01*
G03X-22086Y1637I27514J18250D01*
G03X-21751Y1203I26302J19956D01*
G02X-21408Y720I-4463J-3533D01*
G02X-20956Y-64I-9630J-6074D01*
G02X-20836Y-290I-13593J-7363D01*
G02X-20678Y-619I-10185J-5094D01*
G02X-20344Y-1419I-10334J-4784D01*
G02X-19725Y-4030I-18365J-5733D01*
G02X-19653Y-4921I-5427J-887D01*
G01Y-187132D01*
G02X-24624Y-205295I-35695J8D01*
G02X-29210Y-211128I-28182J17438D01*
G01X-50006Y-231923D01*
G03X-50722Y-232716I42942J-39492D01*
G03X-62448Y-252577I41213J-37725D01*
G03X-62487Y-252696I53074J-17460D01*
G03X-62526Y-252807I8228J-2953D01*
G03X-62537Y-252838I6135J-2194D01*
G03X-62547Y-252862I1738J-738D01*
G03X-63596Y-256427I53040J-17544D01*
G01X-63597D01*
G03X-63921Y-257749I50806J-13152D01*
G03X-63922Y-257759I936J-99D01*
G03X-65291Y-267827I52984J-12332D01*
G03X-65343Y-268831I58235J-3520D01*
G03Y-268873I944J-21D01*
G01Y-319471D01*
G02X-66398Y-322127I-3869J-1D01*
G03X-67452Y-324781I2811J-2653D01*
G01Y-325148D01*
G01X-35584Y80502D02*
Y79884D01*
X-35594Y79874D01*
Y79269D01*
G03X-34636Y77928I1417J0D01*
G02X-33246Y75983I-666J-1945D01*
G01Y74195D01*
G03X-32641Y72573I2480J1D01*
G02X-32264Y71565I-1159J-1008D01*
G01Y21806D01*
G03X-29853Y8596I37254J-26D01*
G01X-29443Y7512D01*
G03X-27679Y3898I20346J7693D01*
G03X-26854Y2483I31926J17666D01*
G03X-26089Y1285I31130J19035D01*
G03X-25382Y256I30425J20147D01*
G01X-24967Y-325D01*
G02X-24743Y-650I-10152J-7237D01*
G02X-23852Y-2222I-10373J-6918D01*
G02X-23290Y-4256I-7482J-3162D01*
G01X-23137Y-5353D01*
G02X-23121Y-5588I-1691J-233D01*
G01Y-187125D01*
G02X-27597Y-203496I-32223J13D01*
G02X-28532Y-204911I-25209J15641D01*
G02X-31675Y-208681I-24281J17048D01*
G01X-52511Y-229520D01*
G03X-53301Y-230394I45458J-41883D01*
G03X-65740Y-251478I43791J-40047D01*
G03X-65767Y-251559I56283J-18806D01*
G03X-65790Y-251623I11481J-4162D01*
G03X-65826Y-251720I5006J-1913D01*
G01X-65837Y-251756D01*
G03X-66684Y-254546I56336J-18626D01*
G03X-67319Y-257035I53883J-15072D01*
G03X-67322Y-257053I4345J-733D01*
G03X-68759Y-267651I56383J-13041D01*
G03X-68811Y-268718I61710J-3542D01*
G03Y-268913I4412J-98D01*
G01Y-308749D01*
X-68813Y-308751D01*
Y-313225D01*
G02X-70487Y-317271I-5726J0D01*
G01X-70542Y-317326D01*
G03X-71052Y-317881I5902J-5936D01*
G03X-72325Y-319841I7365J-6177D01*
G02X-72554Y-320259I-4324J2097D01*
G02X-73435Y-321501I-10205J6306D01*
G02X-73599Y-321683I-1816J1472D01*
G01X-73979Y-322063D01*
G03X-74199Y-322350I988J-985D01*
G02X-74625Y-322749I-879J512D01*
G03X-75167Y-323860I457J-911D01*
G02X-75206Y-324093I-329J-65D01*
G01X-75268Y-324202D01*
G03X-75404Y-324708I876J-507D01*
G01X-34524Y79532D02*
X-34540Y79322D01*
G03X-34469Y79103I300J-24D01*
G01X-32999Y77383D01*
G02X-32802Y76963I-662J-567D01*
G02X-32774Y76621I-2074J-342D01*
G01Y74196D01*
G03X-32284Y72882I2008J0D01*
G02X-31792Y71566I-1516J-1317D01*
G01Y21807D01*
G03X-29411Y8763I36782J-25D01*
G01X-29001Y7679D01*
G03X-27270Y4136I19902J7529D01*
G03X-26451Y2730I31522J17420D01*
G03X-25695Y1547I30720J18799D01*
G03X-24997Y531I30031J19884D01*
G01X-24582Y-51D01*
G02X-24350Y-388I-10541J-7505D01*
G02X-23421Y-2029I-10766J-7178D01*
G02X-22822Y-4191I-7913J-3356D01*
G01X-22666Y-5311D01*
G02X-22649Y-5546I-1681J-240D01*
G01Y-187126D01*
G02X-27192Y-203741I-32696J11D01*
G02X-28145Y-205183I-25611J15890D01*
G02X-31339Y-209014I-24668J17319D01*
G01X-52170Y-229847D01*
G03X-52950Y-230710I45114J-41559D01*
G03X-65292Y-251627I43440J-39731D01*
G03X-65321Y-251715I55897J-18470D01*
G03X-65347Y-251786I11011J-4072D01*
G03X-65377Y-251869I4580J-1702D01*
G01X-65387Y-251901D01*
G03X-66229Y-254673I55884J-18489D01*
G03X-66856Y-257130I53428J-14943D01*
G03X-66859Y-257147I3873J-692D01*
G03X-68287Y-267675I55920J-12946D01*
G03X-68339Y-268733I61237J-3540D01*
G03Y-268907I3940J-87D01*
G01Y-308945D01*
X-68341Y-308947D01*
Y-313230D01*
G02X-70153Y-317605I-6187J0D01*
G01X-70173Y-317625D01*
G03X-70586Y-318067I6071J-6086D01*
G03X-71801Y-319851I6894J-6001D01*
G02X-71821Y-319890I-8143J4151D01*
G03X-71976Y-320207I8132J-4173D01*
G02X-72394Y-320965I-5494J2536D01*
G02X-72427Y-321013I-951J619D01*
G02X-73185Y-321937I-5035J3357D01*
G01X-73645Y-322397D01*
G03X-73907Y-323029I631J-632D01*
G02X-74168Y-323660I-893J0D01*
G01X-26235Y80904D02*
X-25756Y80425D01*
G02X-25689Y80349I-669J-657D01*
G01X-25688Y80326D01*
X-25602Y80239D01*
G03X-25568Y80204I675J622D01*
G02X-25476Y79984I-218J-221D01*
G01Y77936D01*
G02X-25564Y77724I-300J0D01*
G01X-27190Y76098D01*
G03X-27852Y74500I1598J-1598D01*
G01Y21806D01*
G03X-25721Y10161I32839J-8D01*
G03X-22410Y3733I29984J11378D01*
G03X-21332Y2207I26722J17733D01*
G03X-20982Y1756I25510J19436D01*
G02X-20681Y1337I-4469J-3528D01*
G02X-20121Y380I-10352J-6700D01*
G02X-19994Y139I-14449J-7768D01*
G02X-18772Y-3884I-11017J-5544D01*
G02X-18709Y-4923I-8364J-1029D01*
G01Y-187134D01*
G02X-23814Y-205785I-36641J5D01*
G02X-28540Y-211794I-28987J17935D01*
G01X-49324Y-232577D01*
G03X-50020Y-233348I42255J-38844D01*
G03X-61552Y-252878I40513J-37091D01*
G03X-61593Y-253001I52088J-17431D01*
G03X-61633Y-253117I7351J-2600D01*
G03X-61654Y-253176I5238J-1898D01*
G03X-61659Y-253188I868J-369D01*
G03X-62682Y-256665I52148J-17232D01*
G01X-62681D01*
G03X-62998Y-257955I53172J-13750D01*
G03X-64347Y-267863I52060J-12134D01*
G03Y-267870I472J-4D01*
G03X-64399Y-268858I57289J-3511D01*
G02Y-268868I-472J-5D01*
G01Y-320412D01*
G02X-64450Y-321339I-8564J6D01*
G02X-64491Y-321572I-1763J190D01*
G02X-65644Y-323616I-4244J1047D01*
G01X-22132Y80880D02*
Y80804D01*
X-23472Y79464D01*
G03X-23976Y78247I1217J-1217D01*
G01Y77822D01*
G02X-24340Y76944I-1245J2D01*
G01X-25762Y75521D01*
G03X-26436Y73893I1629J-1628D01*
G01Y21805D01*
G03X-24395Y10665I31422J0D01*
G03X-21231Y4519I28661J10867D01*
G03X-20199Y3062I25519J16981D01*
G03X-19714Y2438I24442J18497D01*
G02X-18867Y1046I-11302J-7830D01*
G02X-18729Y781I-15739J-8365D01*
G02X-17318Y-4143I-12282J-6184D01*
G01X-17294Y-4444D01*
X-17293Y-4463D01*
G02X-17258Y-5209I-13716J-1017D01*
G02X-17256Y-5399I-12017J-222D01*
G01Y-187845D01*
G02X-27509Y-212819I-35541J-1D01*
G01X-47321Y-232630D01*
G03X-60173Y-253338I37813J-37810D01*
G03X-60217Y-253472I50783J-16749D01*
G01X-60225Y-253485D01*
X-60284Y-253664D01*
G03X-61582Y-258284I50773J-16757D01*
G01X-61581D01*
Y-258285D01*
X-61606Y-258391D01*
G03X-61611Y-258415I460J-108D01*
G01X-61617Y-258442D01*
Y-258443D01*
G03X-62976Y-270419I52106J-11978D01*
G01Y-320556D01*
G03X-62692Y-322498I6765J-2D01*
G03X-62608Y-322719I1653J502D01*
G01X-61760Y-324581D01*
G02X-61813Y-324872I-235J-107D01*
G01X-23427Y80872D02*
X-23433Y80765D01*
X-24169Y80117D01*
G03X-24448Y79501I542J-617D01*
G01Y77823D01*
G02X-24674Y77278I-773J1D01*
G01X-26024Y75928D01*
G02X-26027Y75925I-426J423D01*
G01X-26284Y75668D01*
G03X-26908Y74162I1505J-1506D01*
G01Y21806D01*
G03X-24837Y10497I31894J-3D01*
G03X-23345Y7166I29103J11036D01*
G03X-21624Y4257I27609J14370D01*
G03X-20577Y2777I25923J17228D01*
G03X-20240Y2340I24815J18788D01*
G02X-19889Y1851I-5211J-4111D01*
G02X-19285Y824I-11131J-7237D01*
G02X-19151Y567I-15318J-8150D01*
G02X-18318Y-1506I-11860J-5970D01*
G02X-17834Y-3768I-12693J-3899D01*
G01Y-3769D01*
G02X-17766Y-4679I-9301J-1153D01*
G01Y-4691D01*
X-17765Y-4726D01*
Y-4775D01*
G02Y-4925I-9371J-75D01*
G01Y-187845D01*
G02X-27870Y-212460I-35032J0D01*
G01X-47681Y-232270D01*
G03X-60656Y-253177I38173J-38170D01*
G03X-60699Y-253308I51269J-16901D01*
G03X-60741Y-253429I6452J-2307D01*
G03X-60766Y-253499I4344J-1591D01*
G03X-62078Y-258169I51256J-16919D01*
G03X-63448Y-270085I51141J-11917D01*
G01Y-313929D01*
G03X-63449Y-313958I472J-31D01*
G03X-63448Y-314095I8627J-6D01*
G01Y-323364D01*
G03X-63191Y-323984I877J0D01*
G01X-33464Y80812D02*
Y79880D01*
G03X-32883Y78251I2573J0D01*
G02X-32302Y76622I-1993J-1629D01*
G01Y74197D01*
G03X-31853Y73113I1536J1D01*
G02X-31320Y71824I-1290J-1288D01*
G01Y21806D01*
G03X-28969Y8930I36309J-23D01*
G01X-28559Y7846D01*
G03X-26861Y4374I19459J7365D01*
G03X-26048Y2977I31118J17174D01*
G03X-25301Y1809I30310J18562D01*
G03X-24612Y806I29638J19622D01*
G01X-24197Y224D01*
G02X-22990Y-1836I-10923J-7784D01*
G02X-22354Y-4125I-8343J-3551D01*
G01X-22196Y-5254D01*
G02X-22177Y-5513I-1829J-264D01*
G01Y-187127D01*
G02X-26787Y-203986I-33169J10D01*
G02X-27758Y-205455I-26014J16139D01*
G02X-31003Y-209347I-25055J17591D01*
G01X-51829Y-230174D01*
G03X-52599Y-231026I44770J-41235D01*
G03X-64844Y-251776I43089J-39416D01*
G03X-64875Y-251871I55501J-18163D01*
G03X-64904Y-251949I10547J-3966D01*
G03X-64929Y-252019I4145J-1520D01*
G01X-64938Y-252047D01*
G03X-65774Y-254799I55435J-18343D01*
G03X-66393Y-257228I52979J-14794D01*
G03X-66396Y-257244I3401J-646D01*
G03X-67815Y-267699I55457J-12851D01*
G03X-67867Y-268748I60764J-3538D01*
G03Y-268901I3468J-76D01*
G01Y-313761D01*
X-67868Y-313760D01*
G02X-69442Y-317562I-5377J-1D01*
G01X-69819Y-317939D01*
G03X-71598Y-320519I6132J-6131D01*
G02X-71614Y-320546I-211J107D01*
G02X-71998Y-321222I-5854J2878D01*
G02X-72039Y-321282I-1347J876D01*
G02X-72569Y-321972I-5427J3620D01*
G03X-72796Y-322299I1258J-1116D01*
G03X-72954Y-322647I2758J-1462D01*
G03X-72996Y-322880I612J-231D01*
G01Y-324309D01*
G02X-73065Y-324476I-236J0D01*
G01X-73157Y-324568D01*
G01X-32436Y79424D02*
G02X-31830Y77961I-1463J-1463D01*
G01Y74198D01*
G03X-31519Y73447I1064J1D01*
G02X-30848Y71826I-1624J-1622D01*
G01Y21805D01*
G03X-28527Y9097I35837J-21D01*
G01X-28456Y8910D01*
G03X-28348Y8633I32729J12601D01*
G03X-27744Y7199I32615J12893D01*
G03X-27645Y6983I10662J4756D01*
G03X-27633Y6957I9952J4578D01*
G03X-25645Y3224I31892J14588D01*
G03X-24907Y2071I29901J18326D01*
G03X-24227Y1081I29245J19359D01*
G01X-23565Y153D01*
G02X-21886Y-4059I-7769J-5538D01*
G01X-21728Y-5188D01*
G02X-21705Y-5512I-2297J-326D01*
G01Y-187128D01*
G02X-26382Y-204231I-33641J9D01*
G02X-27371Y-205727I-26416J16388D01*
G02X-30668Y-209680I-25439J17866D01*
G01X-51488Y-230501D01*
G03X-52248Y-231342I44426J-40911D01*
G03X-64396Y-251925I42738J-39100D01*
G03X-64429Y-252026I55045J-18041D01*
G03X-64460Y-252111I10127J-3741D01*
G03X-64482Y-252172I3697J-1368D01*
G01X-64490Y-252196D01*
G03X-65319Y-254925I54987J-18194D01*
G03X-65931Y-257328I52527J-14657D01*
G03X-65934Y-257343I2930J-594D01*
G03X-67343Y-267723I54995J-12751D01*
G03X-67395Y-268763I60291J-3536D01*
G03Y-268895I2996J-66D01*
G01Y-313760D01*
G02X-69108Y-317896I-5849J0D01*
G01X-69485Y-318273D01*
G03X-71167Y-320712I5797J-5798D01*
G02X-71176Y-320733I-438J175D01*
G02X-71201Y-320778I-632J322D01*
G02X-71405Y-321161I-6274J3096D01*
G03X-71783Y-322117I3029J-1750D01*
G03X-71968Y-323672I7030J-1625D01*
G01X-16537Y81180D02*
Y81157D01*
G02X-16606Y80990I-236J0D01*
G01X-17191Y80405D01*
G02X-18012Y79922I-1343J1344D01*
G03X-19651Y78956I1049J-3653D01*
G01X-23873Y74734D01*
G03X-24548Y73105I1628J-1629D01*
G01Y24936D01*
G03X-24494Y22837I40810J0D01*
G01Y21533D01*
G03Y21518I472J-8D01*
G03X-19659Y5567I28762J10D01*
G03X-18198Y3569I23926J15963D01*
G02X-17195Y1932I-12809J-8974D01*
G02X-17041Y1634I-17437J-9200D01*
G02X-15434Y-3984I-13970J-7035D01*
G01X-15410Y-4301D01*
G02X-15367Y-5405I-15599J-1160D01*
G01Y-187847D01*
G02X-26168Y-214151I-37430J0D01*
G01X-45984Y-233967D01*
G03X-58380Y-253939I36477J-36473D01*
G03X-58429Y-254086I48912J-16386D01*
G03X-58474Y-254216I4185J-1522D01*
G03X-58491Y-254266I2100J-742D01*
G03X-61088Y-270423I48979J-16160D01*
G01Y-318592D01*
G03X-60307Y-320876I3728J-1D01*
G02X-60066Y-321223I-2936J-2297D01*
G03X-59971Y-321358I1077J657D01*
G02X-59837Y-321561I-982J-794D01*
G01X-59641Y-321931D01*
G03X-59526Y-322137I4445J2346D01*
G01X-58896Y-323203D01*
G03X-57807Y-323824I1089J644D01*
G01X-57265D01*
G02X-56316Y-324773I0J-949D01*
G01Y-325180D01*
G01X-19496Y81016D02*
X-19501Y80954D01*
G02X-19533Y80841I-315J28D01*
G02X-20596Y79361I-6228J3351D01*
G01X-20655Y79301D01*
G02X-20754Y79192I-1096J896D01*
G01X-23531Y76414D01*
G02X-23564Y76384I-334J334D01*
G01X-24613Y75332D01*
G03X-25492Y73206I2132J-2126D01*
G01Y24936D01*
G03X-25438Y22811I41754J-2D01*
G01Y21578D01*
G03X-25439Y21549I944J-47D01*
G03X-25440Y21512I1416J-57D01*
G03X-20445Y5043I29707J18D01*
G03X-18956Y3002I24723J16473D01*
G02X-18031Y1490I-12050J-8411D01*
G02X-17885Y1208I-16595J-8770D01*
G02X-16376Y-4063I-13126J-6609D01*
G01X-16352Y-4372D01*
G02X-16311Y-5407I-14657J-1099D01*
G01Y-187846D01*
G02X-26838Y-213485I-36486J0D01*
G01X-46652Y-233299D01*
G03X-59276Y-253638I37144J-37142D01*
G03X-59322Y-253777I49846J-16573D01*
G03X-59367Y-253909I5086J-1808D01*
G03X-59388Y-253968I2977J-1093D01*
G03X-60661Y-258498I49876J-16460D01*
G01X-60673Y-258550D01*
Y-258555D01*
G03X-62032Y-270421I51162J-11870D01*
G01Y-319393D01*
G03X-61136Y-321556I3059J0D01*
G01X-60844Y-321848D01*
G02X-60713Y-322042I-435J-435D01*
G01X-59745Y-324319D01*
G02X-59762Y-324342I-1091J789D01*
G01X-59784Y-324364D01*
X-59804D01*
G01X-18012Y81052D02*
X-18013D01*
X-18398Y80666D01*
G02X-19161Y80009I-4620J4594D01*
G03X-19916Y79362I3850J-5256D01*
G01X-24208Y75067D01*
G03X-25020Y73105I1964J-1962D01*
G01Y24936D01*
G03X-24966Y22824I41282J-1D01*
G01Y21564D01*
G03X-24967Y21541I472J-32D01*
G03Y21515I945J-13D01*
G03X-20052Y5305I29235J14D01*
G03X-18577Y3285I24327J16215D01*
G02X-17613Y1711I-12428J-8694D01*
G02X-17463Y1421I-17016J-8985D01*
G02X-15905Y-4023I-13548J-6822D01*
G01X-15881Y-4336D01*
G02X-15839Y-5406I-15128J-1130D01*
G01Y-187846D01*
G02X-26503Y-213818I-36958J-1D01*
G01X-46318Y-233633D01*
G03X-58828Y-253788I36811J-36808D01*
G03X-58875Y-253931I49430J-16325D01*
G03X-58921Y-254064I4631J-1676D01*
G03X-58940Y-254118I2537J-923D01*
G03X-60201Y-258605I49427J-16311D01*
G01X-60200D01*
G03X-61560Y-270422I50689J-11820D01*
G01Y-319381D01*
G03X-60820Y-321168I2527J0D01*
G01X-60395Y-321593D01*
G02X-60255Y-321782I-557J-559D01*
G01X-59382Y-323433D01*
G03X-59186Y-323684I810J431D01*
G02X-58925Y-324096I-617J-680D01*
G03X-58318Y-324706I878J267D01*
G01X-57872Y-324844D01*
G01X-20808Y80988D02*
X-20812Y80914D01*
Y80192D01*
G02X-21088Y79526I-943J0D01*
G01X-23865Y76748D01*
X-23868D01*
X-24112Y76504D01*
G03X-24123Y76493I275J-286D01*
G01X-25175Y75440D01*
G03X-25964Y73533I1910J-1907D01*
G01Y24931D01*
G03X-25910Y22799I42226J3D01*
G01Y21589D01*
G03X-25911Y21563I1416J-67D01*
G03X-25912Y21519I1889J-65D01*
G03Y21512I472J-3D01*
G01X-25913D01*
G03X-20838Y4781I30180J19D01*
G03X-19821Y3347I25116J16734D01*
G03X-19335Y2720I24094J18174D01*
G02X-18449Y1268I-11676J-8121D01*
G02X-18307Y995I-16161J-8579D01*
G02X-16847Y-4103I-12704J-6396D01*
G01X-16823Y-4408D01*
G02X-16783Y-5409I-14186J-1068D01*
G01Y-187846D01*
G02X-27173Y-213152I-36014J0D01*
G01X-46986Y-232965D01*
G03X-59724Y-253488I37478J-37476D01*
G03X-59769Y-253624I50295J-16717D01*
G03X-59813Y-253754I5538J-1947D01*
G03X-59818Y-253762I14J-14D01*
G01X-59836Y-253817D01*
G03X-61121Y-258391I50325J-16606D01*
G01X-61145Y-258496D01*
Y-258501D01*
G03X-62504Y-270420I51634J-11924D01*
G01Y-320557D01*
G03X-61405Y-323210I3752J0D01*
G01X-61083Y-323532D01*
G01X-24920Y80856D02*
Y77824D01*
G02X-25008Y77612I-300J0D01*
G01X-26838Y75782D01*
G03X-27380Y74473I1310J-1309D01*
G01Y21806D01*
G03X-25279Y10329I32367J-6D01*
G03X-22017Y3995I29543J11208D01*
G03X-20955Y2492I26327J17475D01*
G03X-20611Y2048I25149J19130D01*
G02X-20285Y1594I-4840J-3820D01*
G02X-19703Y602I-10741J-6969D01*
G02X-19573Y353I-14896J-7935D01*
G02X-19572Y351I-11453J-5728D01*
G02X-18303Y-3826I-11439J-5756D01*
G02X-18237Y-4924I-8833J-1082D01*
G01Y-187135D01*
G02X-23409Y-206030I-37113J3D01*
G02X-28205Y-212127I-29389J18183D01*
G01X-48012Y-231933D01*
G03X-48015Y-231936I332J-335D01*
G03X-48055Y-231976I38486J-38526D01*
G01X-48983Y-232904D01*
G03X-49669Y-233664I41912J-38520D01*
G03X-61104Y-253028I40162J-36775D01*
G03X-61146Y-253155I51680J-17162D01*
G03X-61187Y-253272I6892J-2481D01*
G03X-61212Y-253344I4804J-1708D01*
G03X-61215Y-253351I431J-189D01*
G03X-62538Y-258062I51706J-17062D01*
G03X-63875Y-267899I51601J-12023D01*
G03X-63927Y-268879I56816J-3506D01*
G01Y-320412D01*
G02X-64320Y-323048I-9037J0D01*
G03X-64640Y-324740I7565J-2307D01*
G01X-11608Y80749D02*
G02X-12197Y79327I-2011J0D01*
G01X-12208Y79316D01*
G02X-12441Y79127I-1029J1031D01*
G03X-12905Y78749I1599J-2436D01*
G03X-13245Y78330I1734J-1755D01*
G03X-13397Y78003I1106J-713D01*
G03X-13455Y77620I1233J-383D01*
G01X-13454Y77618D01*
Y72504D01*
G02X-13600Y71534I-3299J1D01*
G02X-13665Y71344I-3122J962D01*
G01Y71343D01*
G02X-14406Y69962I-5537J2082D01*
G01X-15903Y67888D01*
G03X-16841Y66360I9820J-7080D01*
G02X-16978Y66110I-6553J3428D01*
G01X-16979Y66109D01*
G03X-18898Y58833I12831J-7275D01*
G01Y21778D01*
G03X-15497Y9466I23990J1D01*
G03X-15409Y9320I15392J9178D01*
G03X-15148Y8901I20493J12474D01*
G03X-14040Y7306I20241J12879D01*
G03X-14016Y7275I1179J888D01*
G02X-9931Y-2810I-16795J-12673D01*
G02X-9912Y-3046I-2767J-342D01*
G03X-9880Y-3357I2510J101D01*
G02X-9850Y-3590I-2983J-502D01*
G02X-9771Y-5397I-20961J-1822D01*
G01Y-173709D01*
G03Y-173831I5932J-61D01*
G03Y-173837I554J-3D01*
G03X-9770Y-173865I1474J39D01*
G01Y-187175D01*
G02X-13208Y-204781I-46804J1D01*
G01X-13328Y-205072D01*
G02X-14004Y-206625I-43245J17900D01*
G02X-21658Y-217278I-36348J18040D01*
G01X-42166Y-237786D01*
G03X-55690Y-270437I32660J-32654D01*
G01Y-307929D01*
G03X-54821Y-311438I7531J3D01*
G03X-54217Y-312399I6660J3516D01*
G02X-53318Y-315124I-3682J-2726D01*
G01Y-321547D01*
G03X-53106Y-322367I1688J-1D01*
G02X-53074Y-322428I-1478J-814D01*
G03X-52648Y-323016I2042J1031D01*
G01X-50909Y-324756D01*
G02X-50789Y-325044I-288J-289D01*
G01X-12984Y80037D02*
Y79964D01*
G02X-12986Y79892I-1006J-8D01*
G02X-13034Y79661I-846J55D01*
G02X-13203Y79236I-6289J2255D01*
G02X-13420Y78889I-1343J598D01*
G03X-13652Y78572I2250J-1890D01*
G03X-13902Y77922I1522J-958D01*
G03X-13928Y77620I1737J-302D01*
G01X-13927D01*
Y77619D01*
G03X-13926Y77589I472J1D01*
G01Y72507D01*
G02X-14107Y71510I-2836J0D01*
G02X-14789Y70238I-5096J1913D01*
G01X-16286Y68164D01*
G03X-16670Y67601I10196J-7367D01*
G03X-17259Y66582I10584J-6798D01*
G03X-17260Y66580I423J-213D01*
G02X-17380Y66360I-6136J3204D01*
G03X-17390Y66342I408J-238D01*
G03X-19370Y58835I13243J-7507D01*
G01Y21777D01*
G03X-15903Y9224I24463J1D01*
G03X-15813Y9074I15817J9388D01*
G03X-15546Y8647I20874J12756D01*
G03X-14418Y7021I20648J13120D01*
G03X-14390Y6986I1535J1200D01*
G02X-10403Y-2840I-16421J-12385D01*
G02X-10384Y-3082I-3372J-386D01*
G03X-10351Y-3414I2983J129D01*
G03X-10350Y-3418I457J112D01*
G02X-10324Y-3607I-3544J-584D01*
G02X-10316Y-3692I-20471J-1970D01*
G02X-10243Y-5398I-20495J-1732D01*
G01Y-173706D01*
G03X-10244Y-173833I6404J-114D01*
G01Y-173834D01*
G03X-10243Y-173840I1000J164D01*
G03Y-173844I472J-2D01*
G03X-10242Y-173875I1946J47D01*
G01Y-187174D01*
G02X-13645Y-204602I-46331J0D01*
G01X-13765Y-204891D01*
G02X-14431Y-206421I-42806J17723D01*
G02X-21992Y-216944I-35923J17834D01*
G01X-42500Y-237452D01*
G03X-53806Y-255798I32993J-32989D01*
G03X-56162Y-270437I44293J-14638D01*
G01Y-307930D01*
G03X-55239Y-311659I8003J2D01*
G03X-54597Y-312680I7077J3738D01*
G02X-53790Y-315125I-3302J-2446D01*
G01Y-321549D01*
G03X-53520Y-322596I2161J-1D01*
G02X-53497Y-322639I-1060J-594D01*
G01X-53496Y-322641D01*
G03X-53068Y-323261I2465J1244D01*
G02X-52890Y-323501I-1013J-938D01*
G02X-52328Y-324914I-4527J-2619D01*
G01Y-324968D01*
G01X-14180Y80717D02*
Y79289D01*
X-14172Y79281D01*
Y79028D01*
G02X-14272Y78370I-2235J3D01*
G01X-14273Y78367D01*
G03X-14368Y78003I2143J-754D01*
G03X-14400Y77621I2204J-377D01*
G01Y77620D01*
G03X-14399Y77577I472J-11D01*
G01X-14398Y77576D01*
Y72535D01*
G02X-14567Y71631I-2509J1D01*
G02X-15172Y70514I-4638J1790D01*
G01X-16669Y68440D01*
G03X-17068Y67857I10567J-7660D01*
G03X-17681Y66796I10982J-7053D01*
G02X-17790Y66597I-5710J2998D01*
G03X-19842Y58835I13651J-7761D01*
G01Y21776D01*
G03X-16309Y8980I24935J-1D01*
G03X-16259Y8897I16186J9694D01*
G03X-16217Y8828I16137J9775D01*
G03X-15944Y8393I21256J13037D01*
G03X-14793Y6733I21051J13367D01*
G03X-14762Y6694I1911J1487D01*
G02X-10876Y-2867I-16049J-12093D01*
G02X-10856Y-3103I-2899J-364D01*
G01Y-3121D01*
G03X-10818Y-3487I3454J174D01*
G03X-10814Y-3508I466J78D01*
G02X-10794Y-3656I-3081J-492D01*
G02X-10787Y-3734I-20008J-1835D01*
G02X-10715Y-5399I-20023J-1700D01*
G01Y-173701D01*
G03X-10716Y-173834I6876J-118D01*
G03X-10715Y-173873I472J-7D01*
G01X-10714Y-173884D01*
Y-187173D01*
G02X-14082Y-204423I-45859J0D01*
G01X-14201Y-204710D01*
G02X-14858Y-206217I-42358J17570D01*
G02X-22326Y-216610I-35498J17628D01*
G01X-42834Y-237118D01*
G03X-54246Y-255621I33326J-33325D01*
G01X-54248Y-255620D01*
G03X-54257Y-255649I45001J-13982D01*
G03X-56636Y-270438I44744J-14784D01*
G01Y-307923D01*
G03X-55657Y-311880I8486J0D01*
G03X-54977Y-312961I7494J3960D01*
G02X-54269Y-314907I-2922J-2165D01*
G02X-54262Y-315155I-4580J-253D01*
G01Y-321549D01*
G03X-53934Y-322825I2633J-3D01*
G01X-53917Y-322856D01*
G03X-53836Y-323007I2889J1452D01*
G01X-53812Y-323055D01*
G02X-54096Y-324756I-1333J-652D01*
G01X-54104Y-324764D01*
Y-324788D01*
G01X-47969Y-326104D02*
X-47101D01*
G03X-46404Y-325990I177J1104D01*
G03X-46239Y-325885I-476J931D01*
G03X-45806Y-324965I-685J884D01*
G02X-45792Y-324750I1117J35D01*
G03X-45758Y-324330I-2554J418D01*
G01Y-315648D01*
G03X-46027Y-313260I-10716J2D01*
G03X-48118Y-308760I-11592J-2651D01*
G02X-49226Y-305446I4403J3314D01*
G01Y-273862D01*
G02X-48516Y-272148I2424J0D01*
G01X-48548Y-326188D02*
X-48532Y-326172D01*
G02X-48366Y-326104I166J-168D01*
G01X-48103D01*
G03X-47969I67J1116D01*
G01X-11660Y22356D02*
X-11809Y22208D01*
G03X-12339Y20927I1281J-1280D01*
G03X-7869Y9964I20537J1981D01*
G02X-6394Y7880I-16072J-12939D01*
G02X-3306Y-2977I-17545J-10858D01*
G01Y-188585D01*
G02X-17085Y-221851I-47045J0D01*
G01X-37593Y-242359D01*
G03X-46942Y-257170I28086J-28085D01*
G03X-49226Y-270443I37435J-13275D01*
G03X-48522Y-272141I2402J1D01*
G01X-48516Y-272148D01*
G01X-7330Y82342D02*
X-6582Y81594D01*
G02X-6192Y80460I-1016J-983D01*
G02X-6321Y80046I-1112J119D01*
G03X-6457Y79513I982J-534D01*
G01Y73258D01*
G02X-9884Y64811I-12122J-1D01*
G03X-12434Y58529I6464J-6282D01*
G01Y24225D01*
G03X-12428Y24047I2643J0D01*
G01Y23748D01*
X-12382Y23702D01*
G03X-11660Y22356I2591J523D01*
G01X-30320Y79596D02*
Y80132D01*
G03X-30744Y81156I-1448J0D01*
G01X-15212Y80515D02*
X-15352Y80656D01*
G01X-7330Y82342D02*
G02X-7376Y82452I109J110D01*
G54D19*
G01X-12679Y77511D02*
X-9766Y80424D01*
G01X-12680Y75840D02*
X-9927Y78593D01*
G01X-12680Y74170D02*
X-9967Y76883D01*
G01X-12681Y72498D02*
X-9966Y75213D01*
G01X-13384Y70125D02*
X-9966Y73543D01*
G01X-16540Y65299D02*
X-10101Y71739D01*
G01X-17623Y62546D02*
X-10997Y69172D01*
G01X-18028Y60470D02*
X-14847Y63652D01*
G01X-18124Y58705D02*
X-15662Y61167D01*
G01X-18124Y57034D02*
X-15923Y59235D01*
G01X-18124Y55364D02*
X-15944Y57544D01*
G01X-18124Y53694D02*
X-15944Y55874D01*
G01X-18124Y52024D02*
X-15945Y54203D01*
G01X-18124Y50354D02*
X-15945Y52533D01*
G01X-18124Y48683D02*
X-15944Y50863D01*
G01X-18124Y47013D02*
X-15944Y49193D01*
G01X-18124Y45343D02*
X-15944Y47523D01*
G01X-18124Y43673D02*
X-15945Y45852D01*
G01X-18124Y42003D02*
X-15945Y44182D01*
G01X-18124Y40333D02*
X-15944Y42513D01*
G01X-18124Y38662D02*
X-15944Y40842D01*
G01X-18124Y36992D02*
X-15944Y39172D01*
G01X-18124Y35322D02*
X-15945Y37501D01*
G01X-18124Y33652D02*
X-15945Y35831D01*
G01X-18124Y31982D02*
X-15945Y34161D01*
G01X-18124Y30311D02*
X-15944Y32491D01*
G01X-18124Y28641D02*
X-15944Y30821D01*
G01X-18123Y26972D02*
X-15944Y29151D01*
G01X-18124Y25301D02*
X-15945Y27480D01*
G01X-18124Y23631D02*
X-15945Y25810D01*
G01X-18124Y21960D02*
X-15944Y24140D01*
G01X-18079Y20335D02*
X-15944Y22470D01*
G01X-17933Y18811D02*
X-15922Y20822D01*
G01X-17701Y17372D02*
X-15795Y19279D01*
G01X-17395Y16009D02*
X-15570Y17834D01*
G01X-17022Y14712D02*
X-15262Y16472D01*
G01X-16588Y13475D02*
X-14881Y15182D01*
G01X-16098Y12295D02*
X-14434Y13959D01*
G01X-15556Y11167D02*
X-13927Y12796D01*
G01X-14965Y10088D02*
X-13364Y11689D01*
G01X-14327Y9056D02*
X-12747Y10636D01*
G01X-13643Y8069D02*
X-12079Y9633D01*
G01X-12936Y7106D02*
X-11363Y8679D01*
G01X-12273Y6099D02*
X-10607Y7765D01*
G01X-11658Y5044D02*
X-9891Y6811D01*
G01X-11095Y3937D02*
X-9236Y5796D01*
G01X-10586Y2775D02*
X-8644Y4718D01*
G01X-10135Y1556D02*
X-8119Y3572D01*
G01X-9747Y274D02*
X-7668Y2353D01*
G01X-9429Y-1078D02*
X-7298Y1053D01*
G01X-9189Y-2508D02*
X-7021Y-340D01*
G01X-9041Y-4030D02*
X-6854Y-1843D01*
G01X-8998Y-5658D02*
X-6816Y-3476D01*
G01X-8998Y-7328D02*
X-6816Y-5146D01*
G01X-8998Y-8998D02*
X-6816Y-6816D01*
G01X-8998Y-10668D02*
X-6817Y-8487D01*
G01X-8998Y-12338D02*
X-6817Y-10157D01*
G01X-8998Y-14009D02*
X-6816Y-11827D01*
G01X-8998Y-15679D02*
X-6816Y-13497D01*
G01X-8998Y-17349D02*
X-6816Y-15167D01*
G01X-8998Y-19019D02*
X-6817Y-16838D01*
G01X-8998Y-20689D02*
X-6817Y-18508D01*
G01X-8998Y-22359D02*
X-6817Y-20178D01*
G01X-8997Y-24029D02*
X-6816Y-21848D01*
G01X-8998Y-25700D02*
X-6816Y-23518D01*
G01X-8998Y-27370D02*
X-6816Y-25188D01*
G01X-8998Y-29040D02*
X-6816Y-26858D01*
G01X-8998Y-30710D02*
X-6816Y-28528D01*
G01X-8998Y-32381D02*
X-6816Y-30199D01*
G01X-8998Y-34051D02*
X-6816Y-31869D01*
G01X-8998Y-35721D02*
X-6816Y-33539D01*
G01X-8998Y-37391D02*
X-6816Y-35209D01*
G01X-8998Y-39061D02*
X-6817Y-36880D01*
G01X-8998Y-40732D02*
X-6816Y-38550D01*
G01X-8998Y-42402D02*
X-6816Y-40220D01*
G01X-8997Y-44071D02*
X-6816Y-41890D01*
G01X-8998Y-45742D02*
X-6816Y-43560D01*
G01X-8998Y-47412D02*
X-6816Y-45230D01*
G01X-8998Y-49082D02*
X-6816Y-46900D01*
G01X-8998Y-50753D02*
X-6816Y-48571D01*
G01X-8997Y-52422D02*
X-6816Y-50241D01*
G01X-8998Y-54093D02*
X-6817Y-51912D01*
G01X-8998Y-55763D02*
X-6817Y-53582D01*
G01X-8998Y-57433D02*
X-6817Y-55252D01*
G01X-8998Y-59104D02*
X-6816Y-56922D01*
G01X-8998Y-60774D02*
X-6816Y-58592D01*
G01X-8997Y-62443D02*
X-6816Y-60262D01*
G01X-8998Y-64114D02*
X-6817Y-61933D01*
G01X-8998Y-65784D02*
X-6816Y-63602D01*
G01X-8998Y-67455D02*
X-6816Y-65273D01*
G01X-8998Y-69125D02*
X-6816Y-66943D01*
G01X-8998Y-70795D02*
X-6816Y-68613D01*
G01X-8998Y-72465D02*
X-6817Y-70284D01*
G01X-8998Y-74135D02*
X-6817Y-71954D01*
G01X-8998Y-75805D02*
X-6817Y-73624D01*
G01X-8997Y-77475D02*
X-6816Y-75294D01*
G01X-8997Y-79145D02*
X-6816Y-76964D01*
G01X-8998Y-80816D02*
X-6816Y-78634D01*
G01X-8998Y-82486D02*
X-6816Y-80304D01*
G01X-8998Y-84156D02*
X-6816Y-81974D01*
G01X-8998Y-85827D02*
X-6816Y-83645D01*
G01X-8998Y-87497D02*
X-6816Y-85315D01*
G01X-8997Y-89166D02*
X-6816Y-86985D01*
G01X-8998Y-90837D02*
X-6816Y-88655D01*
G01X-8998Y-92507D02*
X-6816Y-90325D01*
G01X-8998Y-94177D02*
X-6816Y-91995D01*
G01X-8997Y-95847D02*
X-6816Y-93666D01*
G01X-8997Y-97517D02*
X-6816Y-95336D01*
G01X-8998Y-99188D02*
X-6816Y-97006D01*
G01X-8998Y-100858D02*
X-6816Y-98676D01*
G01X-8998Y-102528D02*
X-6816Y-100346D01*
G01X-8997Y-104198D02*
X-6816Y-102017D01*
G01X-8997Y-105868D02*
X-6816Y-103687D01*
G01X-8997Y-107538D02*
X-6816Y-105357D01*
G01X-8998Y-109209D02*
X-6816Y-107027D01*
G01X-8998Y-110879D02*
X-6816Y-108697D01*
G01X-8998Y-112550D02*
X-6816Y-110368D01*
G01X-8998Y-114220D02*
X-6816Y-112038D01*
G01X-8997Y-115889D02*
X-6816Y-113708D01*
G01X-8998Y-117560D02*
X-6816Y-115378D01*
G01X-8998Y-119230D02*
X-6816Y-117048D01*
G01X-8998Y-120900D02*
X-6816Y-118718D01*
G01X-8997Y-122570D02*
X-6816Y-120389D01*
G01X-8997Y-124240D02*
X-6816Y-122059D01*
G01X-8998Y-125911D02*
X-6816Y-123729D01*
G01X-8998Y-127581D02*
X-6816Y-125399D01*
G01X-8998Y-129251D02*
X-6817Y-127070D01*
G01X-8997Y-130921D02*
X-6816Y-128740D01*
G01X-8998Y-132592D02*
X-6816Y-130410D01*
G01X-8997Y-134261D02*
X-6816Y-132080D01*
G01X-8998Y-135932D02*
X-6816Y-133750D01*
G01X-8998Y-137602D02*
X-6816Y-135420D01*
G01X-8997Y-139272D02*
X-6816Y-137091D01*
G01X-8997Y-140942D02*
X-6816Y-138761D01*
G01X-8997Y-142612D02*
X-6816Y-140431D01*
G01X-8998Y-144283D02*
X-6816Y-142101D01*
G01X-8998Y-145953D02*
X-6816Y-143771D01*
G01X-8998Y-147623D02*
X-6816Y-145441D01*
G01X-8997Y-149293D02*
X-6816Y-147112D01*
G01X-8997Y-150963D02*
X-6816Y-148782D01*
G01X-8998Y-152634D02*
X-6816Y-150452D01*
G01X-8998Y-154304D02*
X-6816Y-152122D01*
G01X-8998Y-155974D02*
X-6816Y-153792D01*
G01X-8997Y-157644D02*
X-6816Y-155463D01*
G01X-8997Y-159314D02*
X-6816Y-157133D01*
G01X-8997Y-160984D02*
X-6816Y-158803D01*
G01X-8998Y-162655D02*
X-6816Y-160473D01*
G01X-8998Y-164325D02*
X-6816Y-162143D01*
G01X-8997Y-165995D02*
X-6816Y-163814D01*
G01X-8997Y-167665D02*
X-6816Y-165484D01*
G01X-8997Y-169335D02*
X-6816Y-167154D01*
G01X-8998Y-171006D02*
X-6816Y-168824D01*
G01X-8998Y-172676D02*
X-6816Y-170494D01*
G01X-8997Y-174345D02*
X-6816Y-172164D01*
G01X-8996Y-176015D02*
X-6816Y-173835D01*
G01X-8996Y-177685D02*
X-6816Y-175505D01*
G01X-8996Y-179355D02*
X-6816Y-177175D01*
G01X-8997Y-181026D02*
X-6816Y-178845D01*
G01X-8997Y-182696D02*
X-6816Y-180515D01*
G01X-8996Y-184366D02*
X-6816Y-182186D01*
G01X-8996Y-186036D02*
X-6816Y-183856D01*
G01X-9000Y-187710D02*
X-6816Y-185526D01*
G01X-9050Y-189430D02*
X-6816Y-187196D01*
G01X-9169Y-191219D02*
X-6817Y-188867D01*
G01X-9365Y-193086D02*
X-6862Y-190583D01*
G01X-9652Y-195043D02*
X-6981Y-192371D01*
G01X-10045Y-197106D02*
X-7186Y-194247D01*
G01X-10567Y-199298D02*
X-7492Y-196223D01*
G01X-11254Y-201655D02*
X-7919Y-198320D01*
G01X-12159Y-204231D02*
X-8498Y-200569D01*
G01X-13395Y-207137D02*
X-9279Y-203020D01*
G01X-15627Y-211039D02*
X-10346Y-205757D01*
G01X-44864Y-241946D02*
X-11879Y-208961D01*
G01X-48621Y-247374D02*
X-14432Y-213184D01*
G01X-50514Y-250937D02*
X-44108Y-244530D01*
G01X-51789Y-253882D02*
X-47218Y-249310D01*
G01X-52717Y-256480D02*
X-48918Y-252681D01*
G01X-53410Y-258843D02*
X-50073Y-255505D01*
G01X-53931Y-261034D02*
X-50911Y-258014D01*
G01X-54317Y-263090D02*
X-51530Y-260303D01*
G01X-54593Y-265036D02*
X-51987Y-262430D01*
G01X-54777Y-266891D02*
X-52316Y-264430D01*
G01X-54881Y-268665D02*
X-52540Y-266323D01*
G01X-54915Y-270369D02*
X-52674Y-268128D01*
G01X-54916Y-272040D02*
X-52733Y-269857D01*
G01X-54916Y-273710D02*
X-52737Y-271531D01*
G01X-54915Y-275380D02*
X-52736Y-273201D01*
G01X-54916Y-277051D02*
X-52736Y-274871D01*
G01X-54916Y-278721D02*
X-52736Y-276541D01*
G01X-54916Y-280391D02*
X-52737Y-278212D01*
G01X-54916Y-282061D02*
X-52736Y-279881D01*
G01X-54916Y-283732D02*
X-52736Y-281552D01*
G01X-54915Y-285401D02*
X-52736Y-283222D01*
G01X-54915Y-287071D02*
X-52736Y-284892D01*
G01X-54916Y-288742D02*
X-52737Y-286563D01*
G01X-54916Y-290412D02*
X-52737Y-288233D01*
G01X-54916Y-292082D02*
X-52737Y-289903D01*
G01X-54915Y-293752D02*
X-52736Y-291573D01*
G01X-54916Y-295423D02*
X-52736Y-293243D01*
G01X-54916Y-297093D02*
X-52737Y-294914D01*
G01X-54916Y-298763D02*
X-52737Y-296584D01*
G01X-54916Y-300433D02*
X-52736Y-298253D01*
G01X-54916Y-302104D02*
X-52736Y-299924D01*
G01X-54915Y-303773D02*
X-52736Y-301594D01*
G01X-54915Y-305443D02*
X-52736Y-303264D01*
G01X-54916Y-307114D02*
X-52737Y-304935D01*
G01X-54867Y-308735D02*
X-52670Y-306538D01*
G01X-54558Y-310096D02*
X-52388Y-307926D01*
G01X-54041Y-311250D02*
X-51941Y-309149D01*
G01X-53377Y-312256D02*
X-51358Y-310237D01*
G01X-52835Y-313384D02*
X-50673Y-311222D01*
G01X-52556Y-314775D02*
X-50064Y-312283D01*
G01X-52544Y-316433D02*
X-49597Y-313486D01*
G01X-52544Y-318104D02*
X-49310Y-314870D01*
G01X-52544Y-319774D02*
X-49268Y-316498D01*
G01X-52544Y-321444D02*
X-49268Y-318168D01*
G01X-52000Y-322570D02*
X-49268Y-319838D01*
G01X-51165Y-323405D02*
X-49268Y-321508D01*
G01X-50162Y-324073D02*
X-49268Y-323179D01*
G01X-49421Y-325002D02*
X-49159Y-324739D01*
G01X-49185Y-324937D02*
X-52544Y-321578D01*
G01X-49268Y-323184D02*
X-52544Y-319908D01*
G01X-49268Y-321513D02*
X-52543Y-318238D01*
G01X-49268Y-319843D02*
X-52543Y-316568D01*
G01X-49268Y-318173D02*
X-52544Y-314897D01*
G01X-49268Y-316503D02*
X-53184Y-312587D01*
G01X-49321Y-314780D02*
X-54768Y-309333D01*
G01X-49990Y-312440D02*
X-54915Y-307515D01*
G01X-52170Y-308590D02*
X-54915Y-305845D01*
G01X-52685Y-306405D02*
X-54916Y-304174D01*
G01X-52737Y-304683D02*
X-54916Y-302504D01*
G01X-52737Y-303013D02*
X-54916Y-300834D01*
G01X-52736Y-301343D02*
X-54916Y-299163D01*
G01X-52736Y-299673D02*
X-54916Y-297493D01*
G01X-52736Y-298003D02*
X-54915Y-295824D01*
G01X-52736Y-296333D02*
X-54916Y-294153D01*
G01X-52737Y-294662D02*
X-54916Y-292483D01*
G01X-52737Y-292992D02*
X-54916Y-290813D01*
G01X-52736Y-291322D02*
X-54915Y-289143D01*
G01X-52736Y-289652D02*
X-54915Y-287473D01*
G01X-52737Y-287981D02*
X-54916Y-285802D01*
G01X-52737Y-286311D02*
X-54916Y-284132D01*
G01X-52737Y-284641D02*
X-54916Y-282462D01*
G01X-52736Y-282971D02*
X-54916Y-280791D01*
G01X-52736Y-281301D02*
X-54916Y-279121D01*
G01X-52736Y-279631D02*
X-54915Y-277452D01*
G01X-52736Y-277961D02*
X-54916Y-275781D01*
G01X-52737Y-276290D02*
X-54916Y-274111D01*
G01X-52736Y-274620D02*
X-54915Y-272441D01*
G01X-52736Y-272950D02*
X-54915Y-270771D01*
G01X-52736Y-271280D02*
X-54896Y-269120D01*
G01X-52729Y-269617D02*
X-54822Y-267524D01*
G01X-52668Y-268008D02*
X-54696Y-265980D01*
G01X-52552Y-266454D02*
X-54523Y-264483D01*
G01X-52386Y-264949D02*
X-54307Y-263028D01*
G01X-52174Y-263491D02*
X-54050Y-261615D01*
G01X-51919Y-262076D02*
X-53755Y-260240D01*
G01X-51624Y-260701D02*
X-53425Y-258900D01*
G01X-51292Y-259363D02*
X-53061Y-257594D01*
G01X-50925Y-258060D02*
X-52665Y-256320D01*
G01X-50524Y-256790D02*
X-52238Y-255076D01*
G01X-50091Y-255553D02*
X-51781Y-253863D01*
G01X-49628Y-254346D02*
X-51297Y-252677D01*
G01X-49135Y-253169D02*
X-50786Y-251518D01*
G01X-48614Y-252020D02*
X-50248Y-250386D01*
G01X-48065Y-250898D02*
X-49684Y-249279D01*
G01X-47490Y-249803D02*
X-49095Y-248198D01*
G01X-46890Y-248733D02*
X-48482Y-247141D01*
G01X-46263Y-247690D02*
X-47846Y-246107D01*
G01X-45612Y-246670D02*
X-47186Y-245097D01*
G01X-44937Y-245675D02*
X-46503Y-244110D01*
G01X-44238Y-244704D02*
X-45797Y-243145D01*
G01X-43516Y-243756D02*
X-45069Y-242203D01*
G01X-42770Y-242832D02*
X-44319Y-241283D01*
G01X-42000Y-241931D02*
X-43546Y-240385D01*
G01X-41208Y-241053D02*
X-42752Y-239509D01*
G01X-40393Y-240198D02*
X-41937Y-238655D01*
G01X-39560Y-239361D02*
X-41103Y-237818D01*
G01X-38725Y-238526D02*
X-40268Y-236983D01*
G01X-37890Y-237691D02*
X-39433Y-236148D01*
G01X-37055Y-236856D02*
X-38598Y-235313D01*
G01X-36219Y-236021D02*
X-37763Y-234477D01*
G01X-35384Y-235186D02*
X-36928Y-233642D01*
G01X-34549Y-234351D02*
X-36093Y-232807D01*
G01X-33714Y-233516D02*
X-35258Y-231972D01*
G01X-32879Y-232681D02*
X-34423Y-231137D01*
G01X-32044Y-231845D02*
X-33587Y-230302D01*
G01X-31209Y-231010D02*
X-32752Y-229467D01*
G01X-30374Y-230175D02*
X-31917Y-228632D01*
G01X-29539Y-229340D02*
X-31082Y-227797D01*
G01X-28704Y-228505D02*
X-30247Y-226962D01*
G01X-27868Y-227670D02*
X-29412Y-226126D01*
G01X-27033Y-226835D02*
X-28577Y-225291D01*
G01X-26198Y-226000D02*
X-27742Y-224456D01*
G01X-25363Y-225165D02*
X-26907Y-223621D01*
G01X-24528Y-224330D02*
X-26072Y-222786D01*
G01X-23693Y-223495D02*
X-25237Y-221951D01*
G01X-22858Y-222659D02*
X-24401Y-221116D01*
G01X-22023Y-221824D02*
X-23566Y-220281D01*
G01X-21188Y-220989D02*
X-22731Y-219446D01*
G01X-20353Y-220154D02*
X-21896Y-218611D01*
G01X-19518Y-219319D02*
X-21061Y-217776D01*
G01X-18695Y-218471D02*
X-20239Y-216927D01*
G01X-17896Y-217601D02*
X-19442Y-216055D01*
G01X-17119Y-216707D02*
X-18668Y-215159D01*
G01X-16365Y-215791D02*
X-17918Y-214238D01*
G01X-15634Y-214852D02*
X-17193Y-213293D01*
G01X-14926Y-213890D02*
X-16492Y-212324D01*
G01X-14242Y-212903D02*
X-15816Y-211329D01*
G01X-13582Y-211893D02*
X-15166Y-210309D01*
G01X-12946Y-210859D02*
X-14541Y-209264D01*
G01X-12335Y-209800D02*
X-13943Y-208192D01*
G01X-11750Y-208715D02*
X-13372Y-207092D01*
G01X-11191Y-207604D02*
X-12854Y-205940D01*
G01X-10658Y-206466D02*
X-12365Y-204759D01*
G01X-10154Y-205300D02*
X-11904Y-203550D01*
G01X-9678Y-204106D02*
X-11470Y-202314D01*
G01X-9231Y-202883D02*
X-11065Y-201049D01*
G01X-8816Y-201627D02*
X-10690Y-199754D01*
G01X-8433Y-200340D02*
X-10346Y-198427D01*
G01X-8085Y-199018D02*
X-10036Y-197067D01*
G01X-7773Y-197660D02*
X-9761Y-195672D01*
G01X-7499Y-196264D02*
X-9524Y-194239D01*
G01X-7266Y-194827D02*
X-9326Y-192766D01*
G01X-7077Y-193345D02*
X-9171Y-191251D01*
G01X-6937Y-191816D02*
X-9063Y-189689D01*
G01X-6848Y-190234D02*
X-9005Y-188077D01*
G01X-6817Y-188595D02*
X-8997Y-186415D01*
G01X-6816Y-186926D02*
X-8997Y-184745D01*
G01X-6816Y-185255D02*
X-8996Y-183075D01*
G01X-6816Y-183585D02*
X-8996Y-181405D01*
G01X-6816Y-181915D02*
X-8996Y-179735D01*
G01X-6816Y-180245D02*
X-8997Y-178064D01*
G01X-6816Y-178575D02*
X-8997Y-176394D01*
G01X-6816Y-176904D02*
X-8996Y-174724D01*
G01X-6816Y-175234D02*
X-8997Y-173053D01*
G01X-6816Y-173564D02*
X-8997Y-171383D01*
G01X-6816Y-171894D02*
X-8998Y-169712D01*
G01X-6816Y-170224D02*
X-8998Y-168042D01*
G01X-6816Y-168554D02*
X-8998Y-166372D01*
G01X-6816Y-166883D02*
X-8998Y-164701D01*
G01X-6816Y-165213D02*
X-8997Y-163032D01*
G01X-6816Y-163543D02*
X-8998Y-161361D01*
G01X-6816Y-161873D02*
X-8998Y-159691D01*
G01X-6816Y-160203D02*
X-8998Y-158021D01*
G01X-6816Y-158532D02*
X-8997Y-156351D01*
G01X-6816Y-156862D02*
X-8997Y-154681D01*
G01X-6816Y-155192D02*
X-8998Y-153010D01*
G01X-6816Y-153522D02*
X-8998Y-151340D01*
G01X-6816Y-151852D02*
X-8998Y-149670D01*
G01X-6816Y-150182D02*
X-8998Y-148000D01*
G01X-6816Y-148511D02*
X-8997Y-146330D01*
G01X-6816Y-146841D02*
X-8997Y-144660D01*
G01X-6816Y-145171D02*
X-8998Y-142989D01*
G01X-6816Y-143501D02*
X-8998Y-141319D01*
G01X-6816Y-141831D02*
X-8998Y-139649D01*
G01X-6816Y-140160D02*
X-8998Y-137978D01*
G01X-6816Y-138490D02*
X-8997Y-136309D01*
G01X-6816Y-136820D02*
X-8998Y-134638D01*
G01X-6816Y-135150D02*
X-8998Y-132968D01*
G01X-6816Y-133480D02*
X-8998Y-131298D01*
G01X-6816Y-131809D02*
X-8997Y-129628D01*
G01X-6816Y-130139D02*
X-8997Y-127958D01*
G01X-6816Y-128469D02*
X-8998Y-126287D01*
G01X-6816Y-126799D02*
X-8998Y-124617D01*
G01X-6817Y-125128D02*
X-8998Y-122947D01*
G01X-6816Y-123459D02*
X-8998Y-121277D01*
G01X-6816Y-121788D02*
X-8998Y-119606D01*
G01X-6816Y-120118D02*
X-8998Y-117936D01*
G01X-6816Y-118448D02*
X-8998Y-116266D01*
G01X-6816Y-116778D02*
X-8998Y-114596D01*
G01X-6816Y-115108D02*
X-8998Y-112926D01*
G01X-6816Y-113437D02*
X-8997Y-111256D01*
G01X-6816Y-111767D02*
X-8997Y-109586D01*
G01X-6816Y-110097D02*
X-8997Y-107916D01*
G01X-6816Y-108427D02*
X-8998Y-106245D01*
G01X-6816Y-106757D02*
X-8998Y-104575D01*
G01X-6816Y-105086D02*
X-8997Y-102905D01*
G01X-6816Y-103416D02*
X-8997Y-101235D01*
G01X-6816Y-101746D02*
X-8997Y-99565D01*
G01X-6816Y-100076D02*
X-8998Y-97894D01*
G01X-6816Y-98406D02*
X-8998Y-96224D01*
G01X-6816Y-96736D02*
X-8998Y-94554D01*
G01X-6816Y-95065D02*
X-8998Y-92883D01*
G01X-6816Y-93395D02*
X-8998Y-91213D01*
G01X-6817Y-91724D02*
X-8998Y-89543D01*
G01X-6817Y-90054D02*
X-8998Y-87873D01*
G01X-6817Y-88384D02*
X-8998Y-86203D01*
G01X-6816Y-86714D02*
X-8997Y-84533D01*
G01X-6816Y-85044D02*
X-8997Y-82863D01*
G01X-6816Y-83374D02*
X-8997Y-81193D01*
G01X-6817Y-81703D02*
X-8998Y-79522D01*
G01X-6817Y-80033D02*
X-8998Y-77852D01*
G01X-6816Y-78363D02*
X-8998Y-76181D01*
G01X-6816Y-76693D02*
X-8998Y-74511D01*
G01X-6816Y-75023D02*
X-8998Y-72841D01*
G01X-6816Y-73353D02*
X-8998Y-71171D01*
G01X-6817Y-71682D02*
X-8998Y-69501D01*
G01X-6816Y-70013D02*
X-8998Y-67831D01*
G01X-6816Y-68342D02*
X-8998Y-66160D01*
G01X-6816Y-66672D02*
X-8998Y-64490D01*
G01X-6816Y-65002D02*
X-8998Y-62820D01*
G01X-6817Y-63331D02*
X-8998Y-61150D01*
G01X-6817Y-61661D02*
X-8998Y-59480D01*
G01X-6816Y-59991D02*
X-8997Y-57810D01*
G01X-6816Y-58321D02*
X-8997Y-56140D01*
G01X-6816Y-56651D02*
X-8998Y-54469D01*
G01X-6817Y-54980D02*
X-8998Y-52799D01*
G01X-6817Y-53310D02*
X-8998Y-51129D01*
G01X-6816Y-51641D02*
X-8998Y-49459D01*
G01X-6816Y-49970D02*
X-8998Y-47788D01*
G01X-6816Y-48300D02*
X-8998Y-46118D01*
G01X-6816Y-46630D02*
X-8998Y-44448D01*
G01X-6816Y-44960D02*
X-8998Y-42778D01*
G01X-6817Y-43289D02*
X-8998Y-41108D01*
G01X-6816Y-41619D02*
X-8998Y-39437D01*
G01X-6816Y-39949D02*
X-8998Y-37767D01*
G01X-6816Y-38279D02*
X-8997Y-36098D01*
G01X-6817Y-36608D02*
X-8998Y-34427D01*
G01X-6817Y-34938D02*
X-8998Y-32757D01*
G01X-6816Y-33268D02*
X-8998Y-31086D01*
G01X-6816Y-31598D02*
X-8997Y-29417D01*
G01X-6816Y-29928D02*
X-8998Y-27746D01*
G01X-6817Y-28257D02*
X-8998Y-26076D01*
G01X-6817Y-26587D02*
X-8998Y-24406D01*
G01X-6817Y-24917D02*
X-8998Y-22736D01*
G01X-6816Y-23247D02*
X-8998Y-21065D01*
G01X-6816Y-21577D02*
X-8998Y-19395D01*
G01X-6817Y-19906D02*
X-8998Y-17725D01*
G01X-6817Y-18236D02*
X-8998Y-16055D01*
G01X-6817Y-16566D02*
X-8998Y-14385D01*
G01X-6816Y-14896D02*
X-8998Y-12714D01*
G01X-6816Y-13226D02*
X-8998Y-11044D01*
G01X-6816Y-11556D02*
X-8998Y-9374D01*
G01X-6817Y-9885D02*
X-8998Y-7704D01*
G01X-6817Y-8215D02*
X-8998Y-6034D01*
G01X-6816Y-6545D02*
X-9023Y-4338D01*
G01X-6816Y-4875D02*
X-9190Y-2501D01*
G01X-6816Y-3205D02*
X-9564Y-457D01*
G01X-6883Y-1468D02*
X-10256Y1905D01*
G01X-7172Y491D02*
X-11581Y4900D01*
G01X-7827Y2816D02*
X-14772Y9762D01*
G01X-9389Y6048D02*
X-16441Y13101D01*
G01X-13367Y11696D02*
X-17293Y15623D01*
G01X-14724Y14724D02*
X-17776Y17776D01*
G01X-15412Y17082D02*
X-18030Y19701D01*
G01X-15774Y19114D02*
X-18121Y21462D01*
G01X-15927Y20938D02*
X-18124Y23135D01*
G01X-15944Y22625D02*
X-18124Y24805D01*
G01X-15944Y24295D02*
X-18124Y26475D01*
G01X-15945Y25966D02*
X-18124Y28145D01*
G01X-15945Y27636D02*
X-18124Y29815D01*
G01X-15945Y29306D02*
X-18124Y31485D01*
G01X-15944Y30976D02*
X-18124Y33156D01*
G01X-15944Y32646D02*
X-18124Y34826D01*
G01X-15945Y34317D02*
X-18124Y36496D01*
G01X-15945Y35987D02*
X-18124Y38166D01*
G01X-15945Y37657D02*
X-18124Y39836D01*
G01X-15944Y39327D02*
X-18124Y41507D01*
G01X-15944Y40997D02*
X-18124Y43177D01*
G01X-15944Y42667D02*
X-18124Y44847D01*
G01X-15945Y44338D02*
X-18124Y46517D01*
G01X-15945Y46008D02*
X-18124Y48187D01*
G01X-15944Y47678D02*
X-18123Y49857D01*
G01X-15944Y49348D02*
X-18124Y51528D01*
G01X-15944Y51018D02*
X-18124Y53198D01*
G01X-15945Y52689D02*
X-18124Y54868D01*
G01X-15945Y54359D02*
X-18124Y56538D01*
G01X-15944Y56028D02*
X-18124Y58208D01*
G01X-15944Y57699D02*
X-18088Y59843D01*
G01X-15917Y59342D02*
X-17901Y61326D01*
G01X-15731Y60826D02*
X-17585Y62680D01*
G01X-15403Y62168D02*
X-17163Y63928D01*
G01X-14959Y63394D02*
X-16649Y65084D01*
G01X-14416Y64522D02*
X-16066Y66172D01*
G01X-13784Y65560D02*
X-15434Y67209D01*
G01X-13068Y66514D02*
X-14736Y68182D01*
G01X-12274Y67390D02*
X-14036Y69152D01*
G01X-11527Y68313D02*
X-13367Y70154D01*
G01X-10900Y69357D02*
X-12858Y71315D01*
G01X-10408Y70535D02*
X-12680Y72807D01*
G01X-10078Y71875D02*
X-12680Y74477D01*
G01X-9967Y73434D02*
X-12680Y76147D01*
G01X-9966Y75103D02*
X-12652Y77790D01*
G01X-9966Y76773D02*
X-11818Y78625D01*
G01X-9939Y78417D02*
X-11094Y79572D01*
G01X-9766Y79914D02*
X-10460Y80608D01*
G01X-83017Y-282555D02*
X-81476Y-281014D01*
G01X-83016Y-284225D02*
X-79805Y-281014D01*
G01X-83017Y-285896D02*
X-78135Y-281014D01*
G01X-83017Y-287566D02*
X-76465Y-281014D01*
G01X-83017Y-289236D02*
X-74795Y-281014D01*
G01X-83017Y-290906D02*
X-73125Y-281014D01*
G01X-83017Y-292577D02*
X-71980Y-281540D01*
G01X-83017Y-294247D02*
X-71980Y-283210D01*
G01X-83016Y-295916D02*
X-71980Y-284880D01*
G01X-83017Y-297587D02*
X-71981Y-286551D01*
G01X-83017Y-299257D02*
X-71981Y-288221D01*
G01X-83017Y-300928D02*
X-71980Y-289891D01*
G01X-83017Y-302598D02*
X-71980Y-291561D01*
G01X-83017Y-304268D02*
X-71980Y-293231D01*
G01X-83017Y-305938D02*
X-71981Y-294902D01*
G01X-83017Y-307608D02*
X-71981Y-296572D01*
G01X-83017Y-309278D02*
X-71981Y-298242D01*
G01X-83017Y-310949D02*
X-71980Y-299912D01*
G01X-83017Y-312619D02*
X-71980Y-301582D01*
G01X-83017Y-314289D02*
X-71981Y-303253D01*
G01X-83017Y-315959D02*
X-71981Y-304923D01*
G01X-83017Y-317629D02*
X-71981Y-306593D01*
G01X-82435Y-318718D02*
X-71980Y-308263D01*
G01X-80765Y-318718D02*
X-71980Y-309933D01*
G01X-79095Y-318718D02*
X-71994Y-311617D01*
G01X-77425Y-318718D02*
X-72537Y-313830D01*
G01X-75755Y-318718D02*
X-75740Y-318703D01*
G01X-83011Y-318718D02*
X-83017Y-318712D01*
G01X-81340Y-318718D02*
X-83017Y-317041D01*
G01X-79671Y-318717D02*
X-83017Y-315371D01*
G01X-78000Y-318718D02*
X-83017Y-313701D01*
G01X-76330Y-318718D02*
X-83017Y-312031D01*
G01X-75307Y-318070D02*
X-83017Y-310360D01*
G01X-74628Y-317079D02*
X-83017Y-308690D01*
G01X-73950Y-316087D02*
X-83017Y-307020D01*
G01X-73271Y-315096D02*
X-83017Y-305350D01*
G01X-72642Y-314055D02*
X-83017Y-303680D01*
G01X-72191Y-312836D02*
X-83017Y-302010D01*
G01X-71983Y-311374D02*
X-83017Y-300340D01*
G01X-71980Y-309706D02*
X-83017Y-298669D01*
G01X-71980Y-308036D02*
X-83017Y-296999D01*
G01X-71981Y-306365D02*
X-83017Y-295329D01*
G01X-71981Y-304695D02*
X-83017Y-293659D01*
G01X-71981Y-303025D02*
X-83017Y-291989D01*
G01X-71980Y-301355D02*
X-83017Y-290318D01*
G01X-71980Y-299685D02*
X-83017Y-288648D01*
G01X-71980Y-298015D02*
X-83017Y-286978D01*
G01X-71981Y-296344D02*
X-83017Y-285308D01*
G01X-71981Y-294674D02*
X-83017Y-283638D01*
G01X-71980Y-293004D02*
X-83017Y-281967D01*
G01X-71980Y-291334D02*
X-82300Y-281014D01*
G01X-71980Y-289664D02*
X-80630Y-281014D01*
G01X-71981Y-287993D02*
X-78960Y-281014D01*
G01X-71981Y-286323D02*
X-77290Y-281014D01*
G01X-71981Y-284653D02*
X-75620Y-281014D01*
G01X-71980Y-282983D02*
X-73949Y-281014D01*
G01X-71980Y-281313D02*
X-72279Y-281014D01*
G01X-48452Y-281394D02*
X-47520Y-280462D01*
G01X-48452Y-283064D02*
X-45850Y-280462D01*
G01X-48452Y-284735D02*
X-44179Y-280462D01*
G01X-48452Y-286405D02*
X-42509Y-280462D01*
G01X-48452Y-288075D02*
X-40840Y-280463D01*
G01X-48452Y-289745D02*
X-40605Y-281898D01*
G01X-48452Y-291415D02*
X-40605Y-283568D01*
G01X-48452Y-293085D02*
X-40606Y-285239D01*
G01X-48452Y-294756D02*
X-40605Y-286909D01*
G01X-48452Y-296426D02*
X-40605Y-288579D01*
G01X-48452Y-298096D02*
X-40606Y-290250D01*
G01X-48452Y-299766D02*
X-40606Y-291920D01*
G01X-48452Y-301436D02*
X-40605Y-293589D01*
G01X-48452Y-303107D02*
X-40605Y-295260D01*
G01X-48452Y-304777D02*
X-40605Y-296930D01*
G01X-48363Y-306358D02*
X-40605Y-298600D01*
G01X-47934Y-307599D02*
X-40605Y-300270D01*
G01X-47272Y-308607D02*
X-40606Y-301941D01*
G01X-46622Y-309628D02*
X-40605Y-303611D01*
G01X-46059Y-310735D02*
X-40605Y-305281D01*
G01X-45593Y-311939D02*
X-40605Y-306951D01*
G01X-45236Y-313252D02*
X-40605Y-308621D01*
G01X-45022Y-314708D02*
X-40605Y-310291D01*
G01X-44984Y-316340D02*
X-40605Y-311961D01*
G01X-44983Y-318010D02*
X-40605Y-313632D01*
G01X-44229Y-318926D02*
X-40605Y-315302D01*
G01X-42559Y-318926D02*
X-40605Y-316972D01*
G01X-40889Y-318926D02*
X-40605Y-318642D01*
G01X-44388Y-318926D02*
X-44983Y-318331D01*
G01X-42718Y-318926D02*
X-44984Y-316660D01*
G01X-41048Y-318926D02*
X-45004Y-314970D01*
G01X-40605Y-317699D02*
X-45290Y-313013D01*
G01X-40605Y-316029D02*
X-46200Y-310433D01*
G01X-40605Y-314358D02*
X-48290Y-306673D01*
G01X-40605Y-312688D02*
X-48452Y-304841D01*
G01X-40605Y-311018D02*
X-48452Y-303171D01*
G01X-40606Y-309347D02*
X-48452Y-301501D01*
G01X-40605Y-307678D02*
X-48452Y-299831D01*
G01X-40605Y-306007D02*
X-48452Y-298160D01*
G01X-40605Y-304337D02*
X-48452Y-296490D01*
G01X-40605Y-302667D02*
X-48452Y-294820D01*
G01X-40605Y-300997D02*
X-48452Y-293150D01*
G01X-40605Y-299327D02*
X-48452Y-291480D01*
G01X-40605Y-297656D02*
X-48452Y-289809D01*
G01X-40605Y-295986D02*
X-48452Y-288139D01*
G01X-40605Y-294316D02*
X-48452Y-286469D01*
G01X-40605Y-292646D02*
X-48452Y-284799D01*
G01X-40606Y-290975D02*
X-48452Y-283129D01*
G01X-40605Y-289306D02*
X-48452Y-281459D01*
G01X-40605Y-287635D02*
X-47778Y-280462D01*
G01X-40605Y-285965D02*
X-46108Y-280462D01*
G01X-40605Y-284295D02*
X-44438Y-280462D01*
G01X-40605Y-282625D02*
X-42768Y-280462D01*
G01X-40605Y-280955D02*
X-41098Y-280462D01*
G01X-42690Y46030D02*
X-43776Y47116D01*
G01X-41020Y46031D02*
X-43642Y48653D01*
G01X-39350Y46031D02*
X-43507Y50188D01*
G01X-37680Y46031D02*
X-43375Y51726D01*
G01X-36009Y46030D02*
X-43282Y53303D01*
G01X-35233Y46924D02*
X-43253Y54944D01*
G01X-35233Y48594D02*
X-43253Y56614D01*
G01X-35232Y50264D02*
X-43253Y58285D01*
G01X-35232Y51934D02*
X-43253Y59955D01*
G01X-35232Y53604D02*
X-43253Y61625D01*
G01X-35232Y55274D02*
X-43253Y63295D01*
G01X-35232Y56944D02*
X-43253Y64965D01*
G01X-35232Y58615D02*
X-43253Y66636D01*
G01X-35232Y60285D02*
X-43253Y68306D01*
G01X-35232Y61955D02*
X-43253Y69976D01*
G01X-35232Y63625D02*
X-43253Y71646D01*
G01X-35232Y65295D02*
X-43253Y73316D01*
G01X-35232Y66966D02*
X-43253Y74987D01*
G01X-35232Y68636D02*
X-41710Y75114D01*
G01X-35232Y70306D02*
X-40040Y75114D01*
G01X-35974Y72718D02*
X-38370Y75114D01*
G01X-36278Y74692D02*
X-36700Y75114D01*
G01X-43253Y73660D02*
X-41799Y75114D01*
G01X-43253Y71990D02*
X-40129Y75114D01*
G01X-43253Y70320D02*
X-38459Y75114D01*
G01X-43253Y68649D02*
X-36788Y75114D01*
G01X-43253Y66979D02*
X-36177Y74055D01*
G01X-43253Y65309D02*
X-35945Y72617D01*
G01X-43253Y63639D02*
X-35447Y71445D01*
G01X-43253Y61969D02*
X-35232Y69990D01*
G01X-43253Y60299D02*
X-35232Y68320D01*
G01X-43253Y58628D02*
X-35232Y66649D01*
G01X-43253Y56958D02*
X-35232Y64979D01*
G01X-43253Y55288D02*
X-35233Y63308D01*
G01X-43272Y53599D02*
X-35233Y61638D01*
G01X-43366Y51834D02*
X-35232Y59968D01*
G01X-43523Y50007D02*
X-35232Y58298D01*
G01X-43683Y48177D02*
X-35232Y56628D01*
G01X-43843Y46347D02*
X-35232Y54958D01*
G01X-42489Y46031D02*
X-35233Y53287D01*
G01X-40819Y46031D02*
X-35232Y51618D01*
G01X-39149Y46030D02*
X-35232Y49947D01*
G01X-37479Y46030D02*
X-35232Y48277D01*
G01X-35809Y46030D02*
X-35232Y46607D01*
G01X-5684Y74485D02*
X-5455Y74714D01*
G01X-5691Y72807D02*
X-3784Y74714D01*
G01X-5894Y70934D02*
X-2114Y74714D01*
G01X-6551Y68607D02*
X-841Y74317D01*
G01X-10005Y63483D02*
X-841Y72647D01*
G01X-11453Y60365D02*
X-841Y70977D01*
G01X-11660Y58488D02*
X-841Y69307D01*
G01X-11660Y56818D02*
X-841Y67637D01*
G01X-11660Y55147D02*
X-841Y65966D01*
G01X-11659Y53478D02*
X-841Y64296D01*
G01X-11660Y51807D02*
X-841Y62626D01*
G01X-11660Y50137D02*
X-841Y60956D01*
G01X-11660Y48467D02*
X-841Y59286D01*
G01X-11660Y46797D02*
X-841Y57616D01*
G01X-10452Y46334D02*
X-841Y55945D01*
G01X-8782Y46334D02*
X-841Y54275D01*
G01X-7111Y46335D02*
X-841Y52605D01*
G01X-5441Y46335D02*
X-841Y50935D01*
G01X-3771Y46335D02*
X-841Y49265D01*
G01X-2101Y46334D02*
X-841Y47594D01*
G01X-11261Y46335D02*
X-11659Y46733D01*
G01X-9590Y46334D02*
X-11660Y48404D01*
G01X-7920Y46334D02*
X-11660Y50074D01*
G01X-6250Y46334D02*
X-11660Y51744D01*
G01X-4580Y46335D02*
X-11660Y53415D01*
G01X-2910Y46335D02*
X-11659Y55084D01*
G01X-1239Y46334D02*
X-11660Y56755D01*
G01X-841Y47606D02*
X-11660Y58425D01*
G01X-841Y49276D02*
X-11533Y59968D01*
G01X-841Y50947D02*
X-11184Y61289D01*
G01X-841Y52617D02*
X-10670Y62445D01*
G01X-841Y54287D02*
X-10018Y63464D01*
G01X-841Y55957D02*
X-9244Y64360D01*
G01X-841Y57627D02*
X-8467Y65253D01*
G01X-841Y59298D02*
X-7769Y66226D01*
G01X-841Y60968D02*
X-7152Y67279D01*
G01X-841Y62638D02*
X-6624Y68421D01*
G01X-841Y64308D02*
X-6195Y69662D01*
G01X-841Y65978D02*
X-5879Y71017D01*
G01X-841Y67648D02*
X-5705Y72512D01*
G01X-841Y69319D02*
X-5683Y74161D01*
G01X-841Y70989D02*
X-4566Y74714D01*
G01X-841Y72659D02*
X-2896Y74714D01*
G01X-841Y74329D02*
X-1226Y74714D01*
M02*
