G04 ================== begin FILE IDENTIFICATION RECORD ==================*
G04 Layout Name:  F:/PCBWORK/2021/NTH/Main FPC/hn1nthflPCB_VA/HN1NTHFL.brd*
G04 Film Name:    art01*
G04 File Format:  Gerber RS274X*
G04 File Origin:  Cadence Allegro 17.2-S053*
G04 Origin Date:  Mon Mar 08 19:57:20 2021*
G04 *
G04 Layer:  VIA CLASS/TOP*
G04 Layer:  PIN/TOP*
G04 Layer:  ETCH/TOP*
G04 Layer:  BOARD GEOMETRY/OUTLINE*
G04 *
G04 Offset:    (0.00 0.00)*
G04 Mirror:    No*
G04 Mode:      Positive*
G04 Rotation:  0*
G04 FullContactRelief:  No*
G04 UndefLineWidth:     6.00*
G04 ================== end FILE IDENTIFICATION RECORD ====================*
%FSLAX25Y25*MOIN*%
%IR0*IPPOS*OFA0.00000B0.00000*MIA0B0*SFA1.00000B1.00000*%
%AMMACRO17*
4,1,6,-.00142,-.01618,
-.00654,-.01106,
-.00654,.01106,
-.00142,.01618,
.00654,.01618,
.00654,-.01618,
-.00142,-.01618,
0.0*
%
%ADD17MACRO17*%
%ADD14C,.01*%
%AMMACRO11*
4,1,5,.0089,.00752,
.0089,-.00752,
-.0089,-.00752,
-.0089,.00358,
-.00496,.00752,
.0089,.00752,
0.0*
%
%ADD11MACRO11*%
%AMMACRO10*
4,1,5,.0089,.00752,
.0089,-.00752,
-.00496,-.00752,
-.0089,-.00358,
-.0089,.00752,
.0089,.00752,
0.0*
%
%ADD10MACRO10*%
%ADD13R,.00701X.02098*%
%AMMACRO12*
4,1,6,.00142,.01618,
.00654,.01106,
.00654,-.01106,
.00142,-.01618,
-.00654,-.01618,
-.00654,.01618,
.00142,.01618,
0.0*
%
%ADD12MACRO12*%
%AMMACRO16*
4,1,5,-.0089,-.00752,
-.0089,.00752,
.0089,.00752,
.0089,-.00358,
.00496,-.00752,
-.0089,-.00752,
0.0*
%
%ADD16MACRO16*%
%AMMACRO15*
4,1,5,-.0089,-.00752,
-.0089,.00752,
.00496,.00752,
.0089,.00358,
.0089,-.00752,
-.0089,-.00752,
0.0*
%
%ADD15MACRO15*%
%ADD18C,.024*%
%ADD19C,.0105*%
%ADD20C,.0004*%
%ADD21C,.0145*%
%ADD22C,.003*%
%ADD23C,.004*%
%ADD24C,.005*%
%ADD25C,.006*%
%ADD26C,.0034*%
%ADD27C,.007*%
%ADD28C,.008*%
%ADD29C,.0063*%
%ADD30C,.00236*%
%ADD31C,.00394*%
G75*
%LPD*%
G75*
G36*
G01X-49840Y-328400D02*
X-48976D01*
Y-328401D01*
X-47906D01*
Y-329252D01*
X-47929D01*
Y-329850D01*
X-76423D01*
X-76424D01*
Y-328406D01*
X-55352D01*
Y-328400D01*
X-54494D01*
Y-328406D01*
X-49840D01*
Y-328400D01*
G37*
G36*
G01X-57706Y-319915D02*
X-57896Y-320081D01*
X-57679Y-321158D01*
X-57462Y-320081D01*
X-57652Y-319915D01*
G03X-57706I-27J-115D01*
G37*
G36*
G01X-55055Y-325482D02*
G02X-55274Y-325711I-421J183D01*
G01X-54920Y-326796D01*
X-54572Y-325711D01*
G02X-54980Y-325478I89J629D01*
G03X-55055Y-325482I-30J-147D01*
G37*
G36*
G01X-51422Y-322770D02*
X-50036D01*
Y-322771D01*
X-46261D01*
X-46268Y-323711D01*
G02X-46752Y-324101I-402J3D01*
G03X-46936Y-324082I-185J-887D01*
G01X-48036D01*
G03X-48940Y-324929I0J-906D01*
G01X-48952Y-325117D01*
X-49840D01*
Y-325112D01*
X-49869D01*
X-49890Y-324935D01*
G03X-50526Y-324177I-899J-109D01*
G02X-50546Y-324172I87J392D01*
G03X-50789Y-324138I-246J-872D01*
G03X-51387Y-324364I1J-906D01*
G02X-51666Y-324350I-132J151D01*
G03X-52328Y-324062I-662J-617D01*
G03X-52876Y-324247I1J-906D01*
G02X-53422Y-324192I-244J320D01*
G03X-53687Y-323984I-682J-596D01*
G01X-53708Y-323973D01*
G03X-54104Y-323882I-396J-814D01*
G03X-55010Y-324788I0J-906D01*
G03X-55003Y-324893I905J8D01*
G01X-55002Y-324905D01*
Y-325118D01*
X-55399D01*
X-55437Y-324964D01*
G03X-55601Y-324625I-879J-216D01*
G02X-55611Y-324612I314J252D01*
G03X-56316Y-324274I-705J-566D01*
G03X-56703Y-324361I0J-906D01*
G02X-57181Y-324258I-172J363D01*
G03X-57872Y-323938I-691J-586D01*
G03X-58400Y-324108I0J-905D01*
G02X-58994Y-323960I-234J327D01*
G03X-59804Y-323458I-811J-404D01*
G03X-59970Y-323474I4J-906D01*
G02X-60202Y-323323I-36J198D01*
G03X-60211Y-323287I-883J-202D01*
G02X-59824Y-322776I387J109D01*
G01X-58108D01*
Y-322770D01*
X-57250D01*
Y-322777D01*
X-57173D01*
X-57142Y-322940D01*
G03X-55362I890J171D01*
G01X-55331Y-322777D01*
X-53974D01*
Y-322770D01*
X-52210D01*
X-52165Y-322796D01*
G03X-51816Y-322888I350J618D01*
G03X-51467Y-322796I-1J710D01*
G01X-51422Y-322770D01*
G37*
G36*
G01X-83267Y-318718D02*
X-80366D01*
Y-318749D01*
X-77254D01*
X-77504Y-318999D01*
G03X-77639Y-319183I534J-534D01*
G01X-77696Y-319290D01*
X-79488D01*
Y-322968D01*
X-78484D01*
Y-324891D01*
G02X-78633Y-324920I-150J373D01*
G01X-79488D01*
Y-328598D01*
X-77208D01*
X-77241Y-329850D01*
X-79321D01*
G02X-81066Y-329321I2J3149D01*
G01X-81864Y-328788D01*
G02X-83267Y-326169I1745J2620D01*
G01Y-318718D01*
G37*
G36*
G01X-63037Y-319717D02*
G02X-63542Y-320081I-699J437D01*
G01X-63196Y-321158D01*
X-62841Y-320081D01*
G02X-62886Y-319765I388J216D01*
G03X-63037Y-319717I-102J-59D01*
G37*
G36*
G01X-60498Y-319757D02*
X-60786Y-320080D01*
X-60435Y-321158D01*
X-60084Y-320080D01*
X-60372Y-319757D01*
G03X-60498I-63J-100D01*
G37*
G36*
G01X-77283Y-324474D02*
X-77316Y-324368D01*
X-77536Y-324129D01*
X-77715Y-324642D01*
X-77445Y-324784D01*
X-77283Y-324474D01*
G37*
G36*
G01X-68768Y-325380D02*
X-69054Y-325710D01*
X-68703Y-326788D01*
X-68352Y-325710D01*
X-68638Y-325380D01*
G03X-68768I-65J-98D01*
G37*
G36*
G01X-68620Y-324871D02*
X-68094Y-324345D01*
X-68438Y-323964D01*
X-68834Y-324265D01*
X-68821Y-324791D01*
G03X-68620Y-324871I118J3D01*
G37*
G36*
G01X-67214Y-325855D02*
X-67072Y-325458D01*
X-67458Y-325119D01*
X-67805Y-325501D01*
X-67408Y-325898D01*
G03X-67214Y-325855I83J83D01*
G37*
G36*
G01X-67390Y-325380D02*
X-67676Y-325710D01*
X-67325Y-326788D01*
X-66974Y-325710D01*
X-67260Y-325380D01*
G03X-67390I-65J-98D01*
G37*
G36*
G01X-75658D02*
X-75944Y-325710D01*
X-75593Y-326788D01*
X-75242Y-325710D01*
X-75528Y-325380D01*
G03X-75658I-65J-98D01*
G37*
G36*
G01X-75510Y-325520D02*
X-75051Y-325061D01*
X-75397Y-324679D01*
X-75789Y-324998D01*
X-75709Y-325458D01*
G03X-75510Y-325520I116J21D01*
G37*
G36*
G01X-74280Y-325380D02*
X-74566Y-325710D01*
X-74215Y-326788D01*
X-73864Y-325710D01*
X-74150Y-325380D01*
G03X-74280I-65J-98D01*
G37*
G36*
G01X-74132Y-324330D02*
X-73815Y-324013D01*
X-74166Y-323631D01*
X-74534Y-323997D01*
X-74312Y-324315D01*
G03X-74132Y-324330I96J68D01*
G37*
G36*
G01X-67178Y-319776D02*
G02X-67676Y-320081I-625J461D01*
G01X-67329Y-321158D01*
X-66975Y-320081D01*
G02X-67048Y-319811I319J231D01*
G03X-67178Y-319776I-90J-76D01*
G37*
G36*
G01X-68510Y-319826D02*
X-69054Y-320080D01*
X-68708Y-321158D01*
X-68352Y-320080D01*
X-68396Y-319860D01*
G03X-68510Y-319826I-86J-81D01*
G37*
G36*
G01X-70146Y-319750D02*
X-70432Y-320080D01*
X-70081Y-321158D01*
X-69730Y-320080D01*
X-70016Y-319750D01*
G03X-70146I-65J-98D01*
G37*
G36*
G01X-65936Y-319726D02*
G02X-66297Y-320081I-622J271D01*
G01X-65949Y-321158D01*
X-65597Y-320081D01*
G02X-65796Y-319740I335J424D01*
G03X-65936Y-319726I-79J-87D01*
G37*
G36*
G01X-59113Y-319787D02*
X-59408Y-320080D01*
X-59057Y-321158D01*
X-58706Y-320080D01*
X-59001Y-319787D01*
G03X-59113I-56J-104D01*
G37*
G36*
G01X-66012Y-325380D02*
X-66298Y-325710D01*
X-65947Y-326788D01*
X-65596Y-325710D01*
X-65882Y-325380D01*
G03X-66012I-65J-98D01*
G37*
G36*
G01X-61730Y-325495D02*
X-61460Y-325225D01*
X-61813Y-324842D01*
X-62166Y-325225D01*
X-61896Y-325495D01*
G03X-61730I83J83D01*
G37*
G36*
G01X-61878Y-325380D02*
X-62164Y-325710D01*
X-61813Y-326788D01*
X-61462Y-325710D01*
X-61748Y-325380D01*
G03X-61878I-65J-98D01*
G37*
G36*
G01X-64693Y-319573D02*
G02X-64919Y-320081I-849J73D01*
G01X-64571Y-321204D01*
X-64219Y-320081D01*
G02X-64338Y-319592I685J426D01*
G03X-64693Y-319573I-190J-232D01*
G37*
G36*
G01X-63108Y-324607D02*
X-62838Y-324337D01*
X-63191Y-323954D01*
X-63544Y-324337D01*
X-63274Y-324607D01*
G03X-63108I83J83D01*
G37*
G36*
G01X-63256Y-325380D02*
X-63542Y-325710D01*
X-63191Y-326788D01*
X-62840Y-325710D01*
X-63126Y-325380D01*
G03X-63256I-65J-98D01*
G37*
G36*
G01X-72902D02*
X-73188Y-325710D01*
X-72837Y-326788D01*
X-72486Y-325710D01*
X-72772Y-325380D01*
G03X-72902I-65J-98D01*
G37*
G36*
G01X-72837Y-325428D02*
Y-324888D01*
X-73167Y-324540D01*
X-73510Y-324921D01*
X-72920Y-325511D01*
X-72837Y-325428D01*
G37*
G36*
G01X-71524Y-325380D02*
X-71810Y-325710D01*
X-71459Y-326788D01*
X-71108Y-325710D01*
X-71394Y-325380D01*
G03X-71524I-65J-98D01*
G37*
G36*
G01X-71362Y-324337D02*
G02X-71491Y-323819I572J417D01*
G01X-71985Y-323648D01*
X-71973Y-324171D01*
G02X-71518Y-324451I-113J-694D01*
G03X-71362Y-324337I38J112D01*
G37*
G36*
G01X-61878Y-319750D02*
X-62164Y-320080D01*
X-61813Y-321158D01*
X-61462Y-320080D01*
X-61748Y-319750D01*
G03X-61878I-65J-98D01*
G37*
G36*
G01X-56213Y-325814D02*
X-55959Y-325528D01*
X-56317Y-325151D01*
X-56669Y-325533D01*
X-56384Y-325818D01*
G03X-56213Y-325814I84J83D01*
G37*
G36*
G01X-56366Y-325380D02*
X-56652Y-325710D01*
X-56301Y-326788D01*
X-55950Y-325710D01*
X-56236Y-325380D01*
G03X-56366I-65J-98D01*
G37*
G36*
G01X-59164Y-325115D02*
G02X-59310Y-324438I755J517D01*
G01X-59821Y-324340D01*
X-59910Y-324852D01*
G02X-59328Y-325229I-171J-901D01*
G03X-59164Y-325115I46J109D01*
G37*
G36*
G01X-59335Y-325191D02*
G02X-59407Y-325710I-675J-171D01*
G01X-59054Y-326788D01*
X-58707Y-325711D01*
G02X-59145Y-325146I473J819D01*
G03X-59335Y-325191I-80J-87D01*
G37*
G36*
G01X-57744Y-325380D02*
X-58030Y-325710D01*
X-57679Y-326788D01*
X-57328Y-325710D01*
X-57614Y-325380D01*
G03X-57744I-65J-98D01*
G37*
G36*
G01X-60661Y-325347D02*
G02X-60785Y-325711I-532J-22D01*
G01X-60432Y-326788D01*
X-60085Y-325711D01*
G02X-60506Y-325317I277J718D01*
G03X-60661Y-325347I-61J-101D01*
G37*
G36*
G01X-60849Y-324143D02*
X-60646Y-323772D01*
X-61090Y-323503D01*
X-61334Y-323963D01*
X-61019Y-324183D01*
G03X-60849Y-324143I67J97D01*
G37*
G36*
G01X-64634Y-325380D02*
X-64920Y-325710D01*
X-64569Y-326788D01*
X-64218Y-325710D01*
X-64504Y-325380D01*
G03X-64634I-65J-98D01*
G37*
G36*
G01X-64467Y-325410D02*
X-64269Y-325069D01*
X-64643Y-324711D01*
X-64993Y-325093D01*
X-64652Y-325434D01*
G03X-64467Y-325410I83J83D01*
G37*
G36*
G01X-52053Y-325698D02*
X-51945Y-325267D01*
X-52335Y-324939D01*
X-52681Y-325321D01*
X-52250Y-325752D01*
G03X-52053Y-325698I83J83D01*
G37*
G36*
G01X-52232Y-325380D02*
X-52518Y-325710D01*
X-52167Y-326788D01*
X-51816Y-325710D01*
X-52102Y-325380D01*
G03X-52232I-65J-98D01*
G37*
G36*
G01X-53790Y-325187D02*
G02X-53895Y-325710I-699J-132D01*
G01X-53542Y-326788D01*
X-53195Y-325711D01*
G02X-53600Y-325150I488J779D01*
G03X-53790Y-325187I-82J-85D01*
G37*
G36*
G01X-53471Y-325432D02*
G02X-53619Y-324905I571J445D01*
G01X-54122Y-324765D01*
X-54102Y-325287D01*
G02X-53622Y-325551I-89J-730D01*
G03X-53471Y-325432I33J113D01*
G37*
G36*
G01X-18007Y75268D02*
X-15084D01*
Y75000D01*
X-15109Y74954D01*
G03X-15394Y73861I1960J-1095D01*
G01Y72673D01*
X-15393D01*
G02X-15841Y71287I-2366J0D01*
G01X-17476Y69024D01*
G03X-17906Y68397I11366J-8256D01*
G01X-17907Y68396D01*
G03X-18564Y67256I11830J-7577D01*
G02X-18641Y67115I-4825J2543D01*
G03X-18656Y67090I441J-282D01*
G03X-20838Y58838I14517J-8253D01*
G01Y21533D01*
G03X-15243Y5664I25304J1D01*
G02X-13937Y3546I-15569J-11062D01*
G02X-13752Y3189I-20482J-10840D01*
G02X-11864Y-2992I-17059J-8590D01*
G01Y-2993D01*
G02X-11852Y-3126I-1911J-239D01*
G01Y-3133D01*
G03X-11851Y-3158I995J27D01*
G01Y-3171D01*
G03X-11802Y-3642I4449J225D01*
G03X-11797Y-3669I517J82D01*
G03X-11795Y-3682I1452J217D01*
G02X-11785Y-3756I-2099J-321D01*
G02X-11780Y-3818I-19032J-1566D01*
G01Y-3820D01*
G02X-11710Y-5401I-19029J-1635D01*
G01Y-173654D01*
X-11711Y-173659D01*
Y-173683D01*
G03X-11713Y-173828I7872J-181D01*
G03X-11712Y-173868I1468J17D01*
G03X-11711Y-173897I523J4D01*
G01X-11710Y-173907D01*
Y-187175D01*
G02X-15003Y-204045I-44864J1D01*
G01X-15121Y-204328D01*
G02X-15757Y-205787I-41435J17194D01*
G02X-16320Y-206874I-34585J17224D01*
G02X-23058Y-215934I-34193J18394D01*
G01X-43538Y-236414D01*
G03X-55171Y-255245I34029J-34030D01*
G03X-55198Y-255323I927J-364D01*
G01X-55199Y-255324D01*
X-55205Y-255343D01*
Y-255344D01*
G03X-57631Y-270427I45693J-15086D01*
G01X-57632D01*
Y-309645D01*
G03X-56002Y-313578I5563J1D01*
G02X-55376Y-315089I-1513J-1512D01*
G01Y-317246D01*
X-55375D01*
G03X-54871Y-318974I3213J0D01*
G02X-55264Y-319290I-393J86D01*
G01X-56063D01*
Y-319482D01*
X-57217D01*
X-57262Y-319341D01*
G03X-57824Y-318416I-2176J-689D01*
G01X-58374Y-317866D01*
G02X-60092Y-313718I4149J4148D01*
G01Y-270425D01*
G02X-57545Y-254577I50581J0D01*
G01X-57544Y-254575D01*
G02X-57534Y-254544I1177J-362D01*
G03X-57530Y-254533I-490J184D01*
G02X-57492Y-254424I3283J-1083D01*
G03X-57486Y-254409I-483J202D01*
G02X-45280Y-234672I47981J-16030D01*
G01X-24800Y-214192D01*
G03X-16103Y-199821I-24862J24863D01*
G03X-14172Y-187462I-40469J12653D01*
G01Y-173959D01*
G02X-14174Y-173913I2981J153D01*
G01Y-173912D01*
G02X-14175Y-173824I3930J89D01*
G01Y-173823D01*
G02X-14173Y-173656I10336J-40D01*
G01Y-173642D01*
G02X-14172Y-173611I3457J-96D01*
G01Y-5405D01*
G03Y-5403I-523J1D01*
G03X-14217Y-4228I-16638J-49D01*
G03X-14249Y-3938I-4231J-320D01*
G02X-14305Y-3396I6847J981D01*
G03X-14338Y-3071I-4235J-266D01*
G03X-15951Y2080I-16473J-2330D01*
G01X-15952Y2081D01*
G03X-16114Y2396I-18499J-9314D01*
G01X-16115Y2397D01*
G03X-17190Y4153I-14699J-7792D01*
G03X-17210Y4179I-425J-306D01*
G02X-23299Y21529I21677J17351D01*
G01X-23298Y21532D01*
Y71337D01*
X-23299Y71338D01*
Y71339D01*
G02X-23286Y71446I455J-1D01*
G02X-23042Y71878I897J-222D01*
G01X-22381Y72539D01*
G02X-20867Y73558I3362J-3361D01*
G01X-19744Y74032D01*
G03X-18218Y75058I-1860J4414D01*
G01X-18007Y75268D01*
G37*
G36*
G01X-52039Y-319672D02*
X-52518Y-320080D01*
X-52193Y-321297D01*
X-51816Y-322178D01*
X-51798Y-319815D01*
G03X-52039Y-319672I-170J-11D01*
G37*
G36*
G01X-69979Y-325791D02*
X-69782Y-325449D01*
X-70156Y-325091D01*
X-70506Y-325473D01*
X-70164Y-325815D01*
G03X-69979Y-325791I83J83D01*
G37*
G36*
G01X-70146Y-325380D02*
X-70432Y-325710D01*
X-70081Y-326788D01*
X-69730Y-325710D01*
X-70016Y-325380D01*
G03X-70146I-65J-98D01*
G37*
G36*
G01X-75661Y-319740D02*
X-75944Y-320080D01*
X-75593Y-321192D01*
X-75242Y-320080D01*
X-75525Y-319740D01*
G03X-75661I-68J-240D01*
G37*
G36*
G01X-74073Y-319839D02*
G02X-74566Y-320081I-539J475D01*
G01X-74219Y-321158D01*
X-73865Y-320081D01*
G02X-73978Y-319857I257J270D01*
G03X-74073Y-319839I-68J-97D01*
G37*
G36*
G01X-71266Y-319797D02*
G02X-71810Y-320081I-620J524D01*
G01X-71464Y-321158D01*
X-71109Y-320081D01*
G02X-71138Y-319840I318J161D01*
G03X-71266Y-319797I-95J-70D01*
G37*
G36*
G01X-20432Y46144D02*
X-18150D01*
Y21780D01*
X-18149D01*
G03X-13439Y7756I23241J2D01*
G02X-9173Y-2835I-17372J-13152D01*
G02X-9164Y-2968I-1341J-158D01*
G03X-9134Y-3269I1763J24D01*
G03X-9129Y-3291I710J150D01*
G01X-9128Y-3297D01*
X-9127Y-3304D01*
G02X-9114Y-3400I-1350J-232D01*
G02X-9022Y-5395I-21697J-2000D01*
G01Y-187177D01*
G02X-13327Y-206948I-47552J0D01*
G02X-21128Y-217808I-37024J18364D01*
G01X-41636Y-238316D01*
G03X-54942Y-270439I32129J-32126D01*
G01Y-281373D01*
X-57226D01*
Y-270427D01*
G02X-54820Y-255471I47714J-4D01*
G01X-54811Y-255443D01*
X-54810Y-255440D01*
G02X-54790Y-255385I564J-174D01*
G02X-43251Y-236701I45281J-15060D01*
G01X-22771Y-216221D01*
G03X-15963Y-207066I-27743J27740D01*
G03X-15391Y-205962I-34375J18511D01*
G03X-14747Y-204484I-41170J18818D01*
G01X-14628Y-204199D01*
G03X-11304Y-187175I-41945J17026D01*
G01Y-173887D01*
X-11306Y-173875D01*
G02X-11307Y-173826I1062J46D01*
G02X-11306Y-173701I7468J3D01*
G01X-11304Y-173694D01*
Y-5400D01*
G03X-11374Y-3810I-19505J-62D01*
G03X-11381Y-3716I-19451J-1401D01*
G03X-11394Y-3619I-2513J-287D01*
G02X-11397Y-3601I1047J184D01*
G01X-11401Y-3583D01*
G02X-11446Y-3161I3998J640D01*
G01Y-3115D01*
G03X-11457Y-2980I-2328J-122D01*
G01X-11458Y-2969D01*
Y-2966D01*
G03X-13390Y3372I-19352J-2436D01*
G03X-13579Y3736I-21020J-10683D01*
G03X-14920Y5909I-17233J-9135D01*
G02X-20432Y21532I19386J15624D01*
G01Y46144D01*
G37*
G36*
G01X-44091Y46390D02*
X-39235D01*
Y46337D01*
X-34982D01*
Y31433D01*
G03X-34925Y28197I92442J10D01*
G01X-34924Y28193D01*
Y25060D01*
G03X-34911Y24041I37860J-27D01*
G01X-34910Y24039D01*
Y21514D01*
X-34911Y21500D01*
G03X-32112Y6919I39384J1D01*
G03X-29768Y2048I36380J14507D01*
G01X-27136Y-2579D01*
G02X-26694Y-3461I-8879J-5001D01*
G03X-26610Y-3642I4264J1869D01*
G02X-26377Y-4165I-6785J-3336D01*
G02X-25830Y-7246I-8427J-3085D01*
G01Y-27289D01*
G03X-25831Y-27404I4653J-98D01*
G01X-25830D01*
Y-189536D01*
G02X-25851Y-189978I-4784J6D01*
G01Y-189980D01*
G02X-27134Y-196369I-30716J2845D01*
G01Y-196370D01*
G02X-32647Y-205482I-21266J6643D01*
G01X-34454Y-207289D01*
G03X-34489Y-207326I804J-795D01*
G01X-34492Y-207330D01*
X-53267Y-226102D01*
G03X-71730Y-270668I44583J-44578D01*
G01Y-281348D01*
X-83267D01*
Y-258964D01*
G02X-76229Y-236749I38582J-1D01*
G01X-53585Y-204598D01*
G03X-48156Y-193671I-32832J23124D01*
G01Y-193670D01*
X-48147Y-193640D01*
G03X-46259Y-181474I-38270J12168D01*
G01Y19925D01*
G02X-46112Y23287I38578J-3D01*
G01X-44091Y46390D01*
G37*
G36*
G01X-46672Y-325464D02*
Y-325304D01*
X-46966Y-324923D01*
X-47277Y-325353D01*
X-46919Y-325711D01*
X-46672Y-325464D01*
G37*
G36*
G01X-47018Y-325639D02*
X-47006Y-327808D01*
X-46651Y-327109D01*
X-46306Y-325710D01*
X-46657Y-325344D01*
G03X-47018Y-325639I-15J-350D01*
G37*
G36*
G01X-50706Y-325667D02*
X-50436Y-325397D01*
X-50789Y-325014D01*
X-51142Y-325397D01*
X-50872Y-325667D01*
G03X-50706I83J83D01*
G37*
G36*
G01X-50854Y-325380D02*
X-51140Y-325710D01*
X-50789Y-326788D01*
X-50438Y-325710D01*
X-50724Y-325380D01*
G03X-50854I-65J-98D01*
G37*
G36*
G01X-51116Y-319650D02*
X-51140Y-320080D01*
X-50784Y-321171D01*
X-50438Y-320080D01*
X-50869Y-319585D01*
G03X-51116Y-319650I-95J-141D01*
G37*
G36*
G01X-45979Y-318762D02*
X-40355D01*
Y-328670D01*
G02X-41535Y-329850I-1181J0D01*
G01X-47078D01*
X-47064Y-329836D01*
Y-328595D01*
G02X-46719Y-328400I345J-207D01*
G01X-46418D01*
Y-328598D01*
X-44138D01*
Y-324920D01*
X-45872D01*
X-45857Y-322968D01*
X-44138D01*
Y-319290D01*
X-45853D01*
X-45900Y-319156D01*
G03X-46016Y-318897I-1660J-588D01*
G03X-45979Y-318762I-1625J518D01*
G37*
G36*
G01X-45627Y-325649D02*
X-45628Y-327808D01*
X-45277Y-327109D01*
X-44928Y-325710D01*
X-45278Y-325356D01*
G03X-45627Y-325649I-4J-350D01*
G37*
G36*
G01X-11910Y23655D02*
Y46411D01*
X-591Y46377D01*
Y27875D01*
G03X5242Y17247I12600J0D01*
G01X11524Y13248D01*
G02X20275Y-2693I-10146J-15942D01*
G01Y-197447D01*
G02X8005Y-225663I-38581J2D01*
G01X-33845Y-264690D01*
G03X-40355Y-279662I13963J-14972D01*
G01Y-281070D01*
X-48702Y-281092D01*
Y-273255D01*
G02X-48504Y-273054I201J0D01*
G03X-47610Y-272148I-12J906D01*
G03X-48516Y-271242I-906J0D01*
G03X-48665Y-271254I-2J-906D01*
G02X-48702Y-270968I1066J283D01*
G01Y-270443D01*
G02X-37223Y-242729I39195J0D01*
G01X-16715Y-222221D01*
G03X-2782Y-188586I-33636J33637D01*
G01Y-2977D01*
X-2783D01*
G03X-7844Y10753I-21156J-1D01*
G02X-11884Y20838I12939J11035D01*
G01X-11883D01*
G02X-11893Y21041I16974J938D01*
G02X-11543Y21458I402J18D01*
G03X-10754Y22356I-117J898D01*
G03X-11555Y23256I-906J0D01*
G02X-11910Y23655I47J399D01*
G37*
G36*
G01X-12042Y21856D02*
X-11660D01*
X-11639Y22377D01*
X-12160Y22356D01*
Y21974D01*
G03X-12042Y21856I118J0D01*
G37*
G36*
G01X-14013Y79824D02*
X-14011D01*
X-13827Y79701D01*
X-13806Y79658D01*
G03X-13649Y79422I823J377D01*
G02X-13631Y79401I-296J-272D01*
G01X-13630Y79399D01*
G02X-13944Y78748I-315J-249D01*
G01X-14210D01*
Y78754D01*
X-15304D01*
X-15310Y78920D01*
G03X-15824Y79734I-906J-3D01*
G03X-16603Y79736I-392J-817D01*
G03X-17121Y78948I387J-819D01*
G01X-17123Y78905D01*
G03X-17164Y78821I1290J-681D01*
G01X-17168Y78813D01*
G03X-17192Y78754I1339J-579D01*
G01X-17486D01*
Y78748D01*
X-18344D01*
Y78754D01*
X-27145D01*
G02X-27500Y79344I0J402D01*
G03X-27475Y79390I-783J455D01*
G03X-27374Y79804I-798J414D01*
G03X-27386Y79949I-906J-2D01*
G02X-27379Y80099I624J46D01*
G03X-27279Y80294I-2285J1295D01*
G02X-26940Y80336I183J-84D01*
G03X-26261Y79998I706J567D01*
G01X-26235D01*
G03X-25744Y80143I-1J906D01*
G01X-25721Y80158D01*
X-25611Y80192D01*
X-25609D01*
X-25487Y80149D01*
X-25462Y80130D01*
G03X-24920Y79950I542J726D01*
G03X-24326Y80172I0J906D01*
G01X-24300Y80195D01*
X-24165Y80248D01*
X-24032Y80197D01*
X-24020Y80187D01*
G03X-23427Y79966I593J685D01*
G03X-23177Y80002I-3J905D01*
G03X-22914Y80125I-247J871D01*
G01X-22890Y80142D01*
X-22775Y80180D01*
X-22773D01*
X-22658Y80142D01*
X-22643Y80132D01*
G03X-22132Y79974I511J748D01*
G01X-22131D01*
G03X-21555Y80181I-1J906D01*
G01X-21529Y80203D01*
X-21399Y80253D01*
X-21397D01*
X-21292Y80222D01*
X-21270Y80209D01*
G03X-20808Y80082I463J779D01*
G03X-20272Y80258I-1J906D01*
G01X-20255Y80270D01*
X-20135Y80312D01*
X-20133D01*
X-20019Y80275D01*
X-20009Y80269D01*
G03X-19497Y80110I513J747D01*
G01X-19496D01*
G03X-18886Y80346I0J906D01*
G01X-18870Y80360D01*
X-18734Y80414D01*
X-18605Y80367D01*
X-18579Y80346D01*
G03X-18269Y80184I566J706D01*
G02X-18260Y80181I-122J-382D01*
G03X-17350Y80434I248J871D01*
G02X-17082Y80457I147J-137D01*
G03X-15662Y80945I545J723D01*
G01X-15649Y80997D01*
X-15623Y81088D01*
X-15588D01*
Y81094D01*
X-15071D01*
Y80877D01*
X-15074Y80861D01*
G03X-14061Y79819I894J-144D01*
G01X-14013Y79824D01*
G37*
G36*
G01X-18007Y76214D02*
X-17916Y76400D01*
X-17576Y76100D01*
X-18188Y75781D01*
X-18248Y75728D01*
G03X-18264Y76084I-763J144D01*
G01X-18007Y76214D01*
G37*
G36*
G01X-37487Y85826D02*
X-6816D01*
Y84416D01*
X-6820D01*
Y84378D01*
X-10076D01*
Y84384D01*
X-14730D01*
Y84378D01*
X-15588D01*
Y84384D01*
X-37502D01*
X-37487Y85826D01*
G37*
G36*
G01X-15120Y81181D02*
G02X-14809Y81688I831J-161D01*
G01X-15154Y82798D01*
X-15509Y81688D01*
G02X-15449Y81228I-634J-317D01*
G03X-15120Y81181I191J162D01*
G37*
G36*
G01X-10076Y81094D02*
X-9186D01*
X-9172Y80907D01*
G03X-8909Y80332I903J65D01*
G01X-8517Y79940D01*
G03X-7877Y79674I641J640D01*
G01X-7304D01*
G03X-6880Y79780I-1J906D01*
G02X-6290Y79418I188J-355D01*
G01X-6298Y78952D01*
Y78748D01*
X-9212D01*
X-12024D01*
G02X-12319Y79422I0J402D01*
G03X-12124Y79754I-665J614D01*
G02X-11874Y79883I191J-63D01*
G03X-11608Y79844I263J866D01*
G03X-10703Y80708I0J906D01*
G03X-10607Y80873I-908J639D01*
G03X-10539Y80929I-421J580D01*
G01X-10401Y81088D01*
X-10076D01*
Y81094D01*
G37*
G36*
G01X-42323Y85826D02*
X-38243D01*
X-38256Y84574D01*
X-39724D01*
Y80898D01*
X-38904D01*
G02X-38504Y80540I0J-402D01*
G03X-38472Y80382I900J100D01*
G01X-38261Y79418D01*
X-38264Y78944D01*
X-39724D01*
Y75268D01*
X-38553D01*
G02X-38177Y75008I0J-402D01*
G01X-43503D01*
Y84646D01*
G02X-42323Y85826I1180J0D01*
G37*
G36*
G01X-23497Y75487D02*
G02X-23077Y76058I910J-230D01*
G01X-23424Y77135D01*
X-23777Y76057D01*
G02X-23688Y75527I-609J-375D01*
G03X-23497Y75487I109J45D01*
G37*
G36*
G01X-20607Y75731D02*
X-20320Y76057D01*
X-20671Y77136D01*
X-21022Y76057D01*
X-20735Y75731D01*
G03X-20607I64J99D01*
G37*
G36*
G01X-29036Y81328D02*
G02X-29565Y80906I-781J436D01*
G01X-29434Y80402D01*
X-28939Y80560D01*
G02X-28862Y81231I856J242D01*
G03X-29036Y81328I-118J-7D01*
G37*
G36*
G01X-28897Y81479D02*
X-28673Y81689D01*
X-28939Y82766D01*
X-29205Y81689D01*
X-28981Y81479D01*
G03X-28897I42J110D01*
G37*
G36*
G01X-27784Y80653D02*
G02X-28382Y80292I-734J540D01*
G01X-28297Y79780D01*
X-27784Y79856D01*
G02X-27623Y80536I913J143D01*
G03X-27784Y80653I-118J7D01*
G37*
G36*
G01X-27496Y81357D02*
X-27210Y81687D01*
X-27561Y82766D01*
X-27912Y81687D01*
X-27626Y81357D01*
G03X-27496I65J99D01*
G37*
G36*
G01X-35787Y81189D02*
X-35960Y80822D01*
X-35580Y80473D01*
X-35231Y80855D01*
X-35597Y81221D01*
G03X-35787Y81189I-84J-83D01*
G37*
G36*
G01X-35576Y81251D02*
X-35478Y81687D01*
X-35832Y82765D01*
X-36180Y81687D01*
X-35752Y81212D01*
G03X-35576Y81251I72J94D01*
G37*
G36*
G01X-34568Y80558D02*
G02X-34931Y79820I-1083J74D01*
G01X-34526Y79503D01*
X-34088Y79775D01*
G02X-34367Y80547I794J723D01*
G03X-34568Y80558I-104J-56D01*
G37*
G36*
G01X-34403Y81445D02*
X-34149Y81689D01*
X-34451Y82766D01*
X-34753Y81689D01*
X-34499Y81445D01*
G03X-34403I48J108D01*
G37*
G36*
G01X-27496Y75727D02*
X-27210Y76057D01*
X-27561Y77136D01*
X-27912Y76057D01*
X-27626Y75727D01*
G03X-27496I65J99D01*
G37*
G36*
G01X-28905Y75875D02*
X-28702Y76059D01*
X-28939Y77136D01*
X-29176Y76059D01*
X-28973Y75875D01*
G03X-28905I34J113D01*
G37*
G36*
G01X-30432Y75856D02*
G02X-29966Y76058I482J-473D01*
G01X-30314Y77135D01*
X-30668Y76058D01*
G02X-30495Y75862I-181J-334D01*
G03X-30432Y75856I42J110D01*
G37*
G36*
G01X-26318Y75524D02*
G02X-25833Y76058I891J-322D01*
G01X-26179Y77135D01*
X-26533Y76057D01*
G02X-26503Y75581I-579J-275D01*
G03X-26318Y75524I112J36D01*
G37*
G36*
G01X-19278Y75918D02*
X-19103Y76060D01*
X-19293Y77136D01*
X-19483Y76060D01*
X-19308Y75918D01*
G03X-19278I15J117D01*
G37*
G36*
G01X-26266Y81579D02*
X-26588Y81257D01*
X-26238Y80875D01*
X-25868Y81240D01*
X-26085Y81562D01*
G03X-26266Y81579I-98J-66D01*
G37*
G36*
G01X-26118Y81357D02*
X-25832Y81687D01*
X-26183Y82766D01*
X-26534Y81687D01*
X-26248Y81357D01*
G03X-26118I65J99D01*
G37*
G36*
G01X-22132Y81586D02*
X-22485Y81233D01*
X-22136Y80851D01*
X-21759Y81205D01*
X-21945Y81558D01*
G03X-22132Y81586I-104J-55D01*
G37*
G36*
G01X-21984Y81357D02*
X-21698Y81687D01*
X-22049Y82766D01*
X-22400Y81687D01*
X-22114Y81357D01*
G03X-21984I65J99D01*
G37*
G36*
G01X-24692Y75548D02*
G02X-24455Y76058I844J-82D01*
G01X-24802Y77181D01*
X-25155Y76058D01*
G02X-25048Y75572I-692J-407D01*
G03X-24692Y75548I194J229D01*
G37*
G36*
G01X-23510Y81495D02*
X-23780Y81225D01*
X-23427Y80842D01*
X-23074Y81225D01*
X-23344Y81495D01*
G03X-23510I-83J-83D01*
G37*
G36*
G01X-23362Y81357D02*
X-23076Y81687D01*
X-23427Y82766D01*
X-23778Y81687D01*
X-23492Y81357D01*
G03X-23362I65J99D01*
G37*
G36*
G01X-33107Y81122D02*
G02X-32723Y81688I886J-188D01*
G01X-33071Y82765D01*
X-33423Y81687D01*
G02X-33298Y81153I-592J-420D01*
G03X-33107Y81122I106J51D01*
G37*
G36*
G01X-33142Y81693D02*
G02X-33608Y81290I-723J365D01*
G01X-33477Y80785D01*
X-32999Y80993D01*
G02X-32966Y81608I762J268D01*
G03X-33142Y81693I-117J-17D01*
G37*
G36*
G01X-31778Y81117D02*
G02X-31345Y81688I906J-237D01*
G01X-31692Y82765D01*
X-32045Y81687D01*
G02X-31969Y81160I-606J-356D01*
G03X-31778Y81117I110J43D01*
G37*
G36*
G01X-32413Y80364D02*
G02X-32730Y79827I-816J119D01*
G01X-32440Y79395D01*
X-32049Y79740D01*
G02X-32220Y80339I646J508D01*
G03X-32413Y80364I-105J-53D01*
G37*
G36*
G01X-22134Y75538D02*
G02X-21699Y76058I851J-270D01*
G01X-22046Y77135D01*
X-22399Y76057D01*
G02X-22318Y75581I-543J-337D01*
G03X-22134Y75538I108J48D01*
G37*
G36*
G01X-16620Y81803D02*
X-16890Y81533D01*
X-16537Y81150D01*
X-16184Y81533D01*
X-16454Y81803D01*
G03X-16620I-83J-83D01*
G37*
G36*
G01X-16472Y81357D02*
X-16186Y81687D01*
X-16537Y82766D01*
X-16888Y81687D01*
X-16602Y81357D01*
G03X-16472I65J99D01*
G37*
G36*
G01X-19238Y81401D02*
X-18944Y81689D01*
X-19293Y82766D01*
X-19642Y81689D01*
X-19348Y81401D01*
G03X-19238I55J105D01*
G37*
G36*
G01X-17850Y81357D02*
X-17564Y81687D01*
X-17915Y82766D01*
X-18266Y81687D01*
X-17980Y81357D01*
G03X-17850I65J99D01*
G37*
G36*
G01X-17998Y81772D02*
X-18365Y81405D01*
X-18016Y81023D01*
X-17636Y81372D01*
X-17808Y81739D01*
G03X-17998Y81772I-107J-50D01*
G37*
G36*
G01X-20606Y81357D02*
X-20320Y81687D01*
X-20671Y82766D01*
X-21022Y81687D01*
X-20736Y81357D01*
G03X-20606I65J99D01*
G37*
G36*
G01X-20754Y81748D02*
X-21161Y81341D01*
X-20814Y80959D01*
X-20427Y81294D01*
X-20559Y81702D01*
G03X-20754Y81748I-112J-37D01*
G37*
G36*
G01X-24888Y81594D02*
X-25273Y81209D01*
X-24925Y80827D01*
X-24541Y81170D01*
X-24696Y81555D01*
G03X-24888Y81594I-109J-44D01*
G37*
G36*
G01X-24740Y81357D02*
X-24454Y81687D01*
X-24805Y82766D01*
X-25156Y81687D01*
X-24870Y81357D01*
G03X-24740I65J99D01*
G37*
G36*
G01X-11039Y81319D02*
G02X-11427Y81214I-324J429D01*
G01X-11631Y80731D01*
X-11115Y80823D01*
G02X-10927Y81179I533J-54D01*
G03X-11039Y81319I-116J22D01*
G37*
G36*
G01X-10960Y81357D02*
X-10674Y81687D01*
X-11025Y82766D01*
X-11376Y81687D01*
X-11090Y81357D01*
G03X-10960I65J99D01*
G37*
G36*
G01X-12688Y81019D02*
G02X-13248Y80460I-959J401D01*
G01X-12995Y80010D01*
X-12498Y80151D01*
G02X-12501Y80942I954J399D01*
G03X-12688Y81019I-117J-18D01*
G37*
G36*
G01X-12383Y81437D02*
G02X-12052Y81688I476J-284D01*
G01X-12402Y82765D01*
X-12754Y81688D01*
G02X-12470Y81439I-173J-484D01*
G03X-12383Y81437I46J109D01*
G37*
G36*
G01X-13844Y81368D02*
X-14225Y81207D01*
X-14197Y80693D01*
X-13680Y80717D01*
Y81259D01*
G03X-13844Y81368I-118J0D01*
G37*
G36*
G01X-13716Y81357D02*
X-13430Y81687D01*
X-13781Y82766D01*
X-14132Y81687D01*
X-13846Y81357D01*
G03X-13716I65J99D01*
G37*
G36*
G01X-10969Y75774D02*
X-10674Y76057D01*
X-11025Y77148D01*
X-11376Y76057D01*
X-11081Y75774D01*
G03X-10969I56J160D01*
G37*
G36*
G01X-12365Y75823D02*
X-12094Y76059D01*
X-12403Y77148D01*
X-12712Y76059D01*
X-12441Y75823D01*
G03X-12365I38J166D01*
G37*
G36*
G01X-31178Y80720D02*
X-31428Y80527D01*
X-31307Y80026D01*
X-30776Y80080D01*
Y80522D01*
G03X-31178Y80720I-250J0D01*
G37*
G36*
G01X-30259Y81188D02*
G02X-29967Y81688I816J-141D01*
G01X-30313Y82798D01*
X-30667Y81688D01*
G02X-30583Y81226I-627J-353D01*
G03X-30259Y81188I184J169D01*
G37*
G36*
G01X-34386Y75727D02*
X-34100Y76057D01*
X-34451Y77136D01*
X-34802Y76057D01*
X-34516Y75727D01*
G03X-34386I65J99D01*
G37*
G36*
G01X-31718Y75637D02*
X-31344Y76057D01*
X-31693Y77135D01*
X-32046Y76057D01*
X-31880Y75659D01*
G03X-31718Y75637I92J73D01*
G37*
G36*
G01X-9608Y75791D02*
X-9296Y76057D01*
X-9647Y77156D01*
X-9998Y76057D01*
X-9686Y75791D01*
G03X-9608I39J196D01*
G37*
G36*
G01X-5872Y85826D02*
X-4538D01*
G02X-2792Y85297I-1J-3149D01*
G01X-1993Y84765D01*
G02X-591Y82146I-1747J-2620D01*
G01Y75000D01*
X-604D01*
Y74552D01*
X-5920D01*
Y75000D01*
X-5936D01*
Y75268D01*
X-4374D01*
Y78944D01*
X-5892D01*
Y78949D01*
X-5862Y80898D01*
X-4374D01*
Y84574D01*
X-5872D01*
Y85826D01*
G37*
G54D10*
X-80730Y-321798D03*
X-40966Y82067D03*
G54D20*
G01X-42323Y86614D02*
G03X-44291Y84646I0J-1968D01*
G01Y54767D01*
G02X-44308Y53711I-32146J-11D01*
G02X-44441Y51432I-39355J1153D01*
G01X-46897Y23356D01*
G03X-47047Y19925I39216J-3433D01*
G01Y-181474D01*
G02X-54229Y-204144I-39370J0D01*
G01X-76873Y-236295D01*
G03X-84055Y-258965I32188J-22670D01*
G01Y-326169D01*
G03X-82302Y-329444I3936J0D01*
G01X-81504Y-329977D01*
G03X-79320Y-330638I2184J3276D01*
G01X-41535D01*
G03X-39567Y-328669I0J1968D01*
G01Y-279663D01*
G02X-33307Y-265267I19684J-1D01*
G01X8543Y-226240D01*
G03X21063Y-197447I-26850J28794D01*
G01Y-2693D01*
G03X11948Y13913I-19685J0D01*
G01X5666Y17912D01*
G02X197Y27876I6342J9964D01*
G01Y82145D01*
G03X-1556Y85421I-3937J0D01*
G01X-2355Y85953D01*
G03X-4539Y86614I-2184J-3276D01*
G01X-42323D01*
G54D11*
X-80730Y-326090D03*
X-40966Y77775D03*
G54D30*
G01X-57679Y-321129D02*
Y-320030D01*
G03X-58194Y-318786I-1759J0D01*
G01X-58744Y-318236D01*
G02X-60616Y-313717I4519J4519D01*
G01Y-270425D01*
G02X-58042Y-254413I51104J-2D01*
G02X-58027Y-254369I1668J-544D01*
G02X-57983Y-254243I3780J-1249D01*
G02X-45650Y-234302I48477J-16197D01*
G01X-25170Y-213822D01*
G03X-16603Y-199665I-24493J24492D01*
G03X-14695Y-187458I-39969J12500D01*
G01Y-173982D01*
G02X-14697Y-173928I3505J157D01*
G02X-14699Y-173823I4452J137D01*
G02X-14696Y-173643I10859J-91D01*
G02Y-173637I3508J3D01*
G02X-14695Y-173596I3981J-77D01*
G01Y-5405D01*
G03X-14739Y-4267I-16114J-53D01*
G03X-14767Y-4013I-3709J-280D01*
G02X-14827Y-3429I7366J1052D01*
G03X-14856Y-3144I-3713J-234D01*
G03X-16419Y1845I-15954J-2259D01*
G03X-16577Y2152I-18029J-9084D01*
G03X-17619Y3852I-14233J-7554D01*
G02X-23822Y21532I22087J17677D01*
G01Y71337D01*
G02X-23794Y71571I978J2D01*
G02X-23412Y72248I1405J-347D01*
G01X-22751Y72909D01*
G02X-21070Y74040I3732J-3732D01*
G01X-19947Y74514D01*
G03X-19620Y74664I-2250J5337D01*
G03X-19571Y74690I-2949J5617D01*
G03X-18585Y75425I-2033J3756D01*
G01X-17985Y76025D01*
G01X-30195Y74679D02*
X-29984Y74468D01*
G02X-30196Y74980I512J512D01*
G01X-23427Y77106D02*
Y76496D01*
G02X-24272Y74456I-2885J0D01*
G01X-25092Y73636D01*
G03X-25621Y72772I1524J-1527D01*
G03X-25673Y72541I1331J-421D01*
G03X-25724Y71837I4907J-709D01*
G01Y25076D01*
G03X-25710Y24179I28659J-1D01*
G01Y21518D01*
G03X-23170Y9402I30180J3D01*
G03X-21896Y6837I27636J12128D01*
G03X-19325Y2958I26367J14685D01*
G02X-19081Y2640I-24854J-19323D01*
G02X-18249Y1268I-11725J-8049D01*
G02X-18107Y994I-16174J-8556D01*
G02X-17833Y419I-12700J-6405D01*
G02X-16949Y-2382I-21185J-8226D01*
G02X-16683Y-3924I-11022J-2695D01*
G03X-16645Y-4234I9279J980D01*
G02X-16628Y-4362I-56418J-7558D01*
G02X-16623Y-4412I-1818J-207D01*
G02X-16583Y-5410I-14185J-1068D01*
G01Y-173545D01*
G03X-16585Y-173564I938J-108D01*
G03X-16587Y-173602I470J-44D01*
G03X-16591Y-173829I12745J-338D01*
G03X-16585Y-174000I6343J137D01*
G03X-16583Y-174030I5386J344D01*
G01Y-187450D01*
G02X-18407Y-199101I-39988J292D01*
G02X-26506Y-212486I-31257J9770D01*
G01X-46986Y-232966D01*
G03X-59767Y-253620I37479J-37474D01*
G03X-59816Y-253758I5507J-2033D01*
G03X-59837Y-253824I3462J-1138D01*
G03X-62504Y-270421I50326J-16600D01*
G01Y-318563D01*
G02X-62987Y-319823I-1887J1D01*
G03X-63191Y-320357I595J-533D01*
G01Y-321129D01*
G01X-20671Y77106D02*
Y75830D01*
G02X-21268Y75233I-597J0D01*
G03X-22161Y74863I0J-1263D01*
G01X-24141Y72883D01*
G03X-24780Y71340I1543J-1543D01*
G01Y25076D01*
G03X-24766Y24195I27715J0D01*
G01Y21520D01*
G03X-21070Y7297I29235J5D01*
G03X-18579Y3540I25539J14229D01*
G02X-18322Y3205I-25600J-19906D01*
G02X-18312Y3191I-21516J-15379D01*
G02X-17413Y1710I-12495J-8598D01*
G02X-17263Y1420I-17016J-8985D01*
G02X-15804Y-3194I-13548J-6822D01*
G02X-15769Y-3523I-4148J-608D01*
G03X-15703Y-4147I8367J569D01*
G01X-15702Y-4149D01*
G02X-15681Y-4338I-2746J-401D01*
G02X-15639Y-5407I-15128J-1130D01*
G01Y-173582D01*
X-15640Y-173596D01*
G03X-15641Y-173624I471J-31D01*
G01X-15642Y-173625D01*
G03X-15645Y-173824I11802J-277D01*
G03X-15641Y-173959I5398J92D01*
G03X-15639Y-174004I4449J175D01*
G01Y-187454D01*
G02X-17505Y-199383I-40933J292D01*
G02X-18904Y-203080I-32158J10056D01*
G02X-25838Y-213154I-30760J13749D01*
G01X-46318Y-233634D01*
G03X-58875Y-253931I36811J-36807D01*
G03X-58921Y-254062I4624J-1697D01*
G03X-58939Y-254116I2552J-881D01*
G03X-61560Y-270423I49427J-16309D01*
G01Y-317996D01*
G03X-61128Y-319039I1480J2D01*
G01X-60523Y-319645D01*
G02X-60435Y-319857I-213J-213D01*
G01Y-321129D01*
G01X-68703Y-326759D02*
Y-324372D01*
G02X-68615Y-324160I300J0D01*
G01X-68447Y-323992D01*
G01X-67325Y-326759D02*
Y-325455D01*
G03X-67452Y-325148I-434J0D01*
G01X-75593Y-326759D02*
Y-325138D01*
G02X-75471Y-324843I418J0D01*
G01X-75470Y-324844D01*
X-75324D01*
X-75308Y-324828D01*
Y-324736D01*
X-75336Y-324708D01*
X-75404D01*
G01X-74215Y-326759D02*
Y-324156D01*
G03X-74303Y-323944I-300J0D01*
G01Y-323919D01*
X-74168Y-323784D01*
Y-323660D01*
G01X-27561Y77106D02*
Y31444D01*
G03X-27504Y28763I63088J0D01*
G01Y25069D01*
G03X-27490Y24149I30439J3D01*
G01Y21515D01*
G03X-24801Y8686I31960J3D01*
G03X-23453Y5969I29273J12831D01*
G03X-21755Y3252I27920J15560D01*
G01X-20533Y1497D01*
G02X-19916Y499I-8820J-6143D01*
G02X-18745Y-2906I-9435J-5149D01*
G01X-18481Y-4511D01*
G02X-18363Y-5957I-8793J-1445D01*
G01Y-173470D01*
G03X-18367Y-173559I2248J-146D01*
G03X-18374Y-173840I14522J-502D01*
G03X-18363Y-174088I8122J236D01*
G01Y-187442D01*
G02X-20108Y-198568I-38207J293D01*
G02X-27766Y-211226I-29558J9237D01*
G01X-46302Y-229762D01*
G03X-46306Y-229766I43196J-43200D01*
G01X-48246Y-231706D01*
G03X-61449Y-253030I38739J-38735D01*
G03X-61503Y-253184I7194J-2609D01*
G03X-61506Y-253193I446J-154D01*
G03X-61508Y-253199I447J-152D01*
G03X-61535Y-253280I5134J-1756D01*
G03X-64284Y-270414I52025J-17134D01*
G01Y-315966D01*
G02X-65327Y-318480I-3552J0D01*
G01X-65793Y-318945D01*
G02X-65987Y-319110I-1079J1072D01*
G02X-66465Y-319415I-3390J4786D01*
G02X-66678Y-319517I-902J1610D01*
G03X-67325Y-320485I399J-967D01*
G01Y-321129D01*
G01X-28939Y77106D02*
Y75988D01*
G03X-28576Y75112I1239J0D01*
G02X-28033Y73801I-1311J-1311D01*
G01Y31444D01*
G03X-27976Y28321I85493J-2D01*
G01Y25068D01*
G03X-27962Y24141I30911J3D01*
G01Y21514D01*
G03X-25653Y9496I32433J1D01*
G03X-25542Y9222I22244J8852D01*
G03X-25234Y8496I30009J12303D01*
G03X-23866Y5739I29706J13022D01*
G03X-22143Y2982I28333J15790D01*
G01X-20921Y1227D01*
G02X-20331Y273I-8432J-5874D01*
G02X-20326Y263I-19689J-9851D01*
G02X-19211Y-2983I-9025J-4915D01*
G01X-18947Y-4588D01*
G02X-18835Y-5956I-8327J-1370D01*
G01Y-173455D01*
G03X-18839Y-173545I2720J-166D01*
G03X-18847Y-173843I14994J-552D01*
G03X-18835Y-174102I8594J268D01*
G01Y-187440D01*
G02X-20559Y-198427I-37735J292D01*
G02X-28100Y-210892I-29107J9095D01*
G01X-46636Y-229428D01*
G03X-46640Y-229432I43530J-43534D01*
G01X-48580Y-231372D01*
G03X-61895Y-252875I39073J-39069D01*
G03X-61950Y-253032I7640J-2764D01*
G03X-61954Y-253044I894J-305D01*
G03X-61956Y-253049I874J-353D01*
G03X-61984Y-253133I5582J-1907D01*
G03X-64756Y-270413I52474J-17280D01*
G01Y-315965D01*
G02X-65661Y-318145I-3078J0D01*
G02X-66017Y-318429I-1451J1454D01*
G01X-67509Y-319368D01*
G02X-67751Y-319488I-709J1126D01*
G03X-67989Y-319579I4616J-12429D01*
G03X-68108Y-319644I243J-586D01*
G02X-68249Y-319721I-509J764D01*
G03X-68458Y-319913I688J-959D01*
G01X-68646Y-320133D01*
G03X-68703Y-320287I180J-154D01*
G01Y-321129D01*
G01X-70081D02*
Y-319398D01*
G02X-69830Y-318727I1025J-1D01*
G03X-68644Y-317129I-10025J8680D01*
G03X-68405Y-316768I-9473J6531D01*
G02X-68218Y-316504I2656J-1683D01*
G03X-68088Y-316307I-1065J844D01*
G03X-67365Y-314703I-11373J6091D01*
G03X-66797Y-312687I-10746J4116D01*
G03X-66615Y-311433I-12662J2478D01*
G03X-66604Y-311197I-2471J233D01*
G01Y-270684D01*
G02X-49640Y-229729I57919J0D01*
G01X-28128Y-208218D01*
X-28120D01*
X-27412Y-207510D01*
G03X-22239Y-197901I-22255J18178D01*
G03X-20713Y-190087I-34329J10760D01*
G03X-20704Y-189850I-2874J228D01*
G01Y-6979D01*
G03X-22014Y-1363I-12690J1D01*
G03X-22017Y-1356I-436J-183D01*
G03X-22708Y11I-14000J-6219D01*
G01X-25309Y4582D01*
G02X-25454Y4840I29793J16914D01*
G03X-25460Y4851I-1080J-582D01*
G02X-26906Y7763I29927J16676D01*
G02X-27199Y8454I31392J13718D01*
G02X-27230Y8528I4693J2010D01*
G02X-27348Y8820I23830J9800D01*
G02X-29785Y21514I31820J12690D01*
G01Y24112D01*
G02X-29799Y25065I32720J957D01*
G01Y28287D01*
G02X-29856Y31445I87259J3154D01*
G01Y72074D01*
G03X-30545Y73737I-2352J0D01*
G01X-30898Y74090D01*
G02X-31109Y74599I508J509D01*
G01Y74858D01*
G02Y74884I1007J13D01*
G02X-31114Y75007I913J99D01*
G01X-31120Y75105D01*
G02X-30741Y75736I645J42D01*
G03X-30317Y76393I-296J656D01*
G01Y77106D01*
G01X-26183D02*
Y76739D01*
G02X-26467Y75436I-3131J0D01*
G03X-27032Y72842I5672J-2594D01*
G01Y25076D01*
G03X-27018Y24157I29967J-3D01*
G01Y21516D01*
G03X-24368Y8876I31488J4D01*
G03X-23040Y6199I28841J12639D01*
G03X-21367Y3522I27507J15329D01*
G01X-20145Y1767D01*
G02X-19501Y725I-9209J-6412D01*
G02X-18279Y-2829I-9851J-5374D01*
G01X-18015Y-4434D01*
G02X-17891Y-5955I-9259J-1520D01*
G01Y-173486D01*
G03X-17895Y-173572I1776J-126D01*
G03X-17901Y-173837I14051J-451D01*
G03X-17891Y-174074I7650J204D01*
G01Y-187444D01*
G02X-19657Y-198709I-38679J293D01*
G02X-27432Y-211560I-30008J9378D01*
G01X-45968Y-230096D01*
G03X-45972Y-230100I42862J-42866D01*
G01X-47912Y-232040D01*
G03X-61003Y-253186I38405J-38401D01*
G03X-61056Y-253336I6743J-2467D01*
G01Y-253337D01*
G03X-61060Y-253348I1228J-453D01*
G03X-61085Y-253425I4699J-1568D01*
G03X-63812Y-270419I51575J-16992D01*
G01Y-316639D01*
G02X-63965Y-317556I-3784J160D01*
G02X-64057Y-317774I-975J283D01*
G01X-64187Y-318000D01*
G02X-64609Y-318546I-2324J1360D01*
G01X-65866Y-319801D01*
G03X-65947Y-320289I1428J-488D01*
G01Y-321129D01*
G01X-19293Y77106D02*
Y76035D01*
G02X-19385Y75825I-284J-1D01*
G01X-20256Y75028D01*
G02X-20454Y74902I-466J514D01*
G01X-21058Y74646D01*
G02X-21432Y74570I-374J881D01*
G03X-21989Y74339I0J-787D01*
G01X-23746Y72582D01*
G03X-24308Y71225I1358J-1357D01*
G01Y31108D01*
G03X-24294Y30987I524J-1D01*
G01Y21533D01*
G03X-20657Y7527I28762J-6D01*
G03X-17998Y3568I25124J14002D01*
G02X-16995Y1931I-12809J-8974D01*
G02X-16841Y1633I-17437J-9200D01*
G02X-15324Y-3210I-13970J-7035D01*
G02X-15299Y-3459I-3216J-449D01*
G03X-15235Y-4080I7897J500D01*
G02X-15210Y-4302I-3213J-474D01*
G02X-15167Y-5406I-15599J-1160D01*
G01Y-173589D01*
G03X-15168Y-173632I4452J-125D01*
G01X-15169Y-173637D01*
G03X-15172Y-173823I11329J-276D01*
G03X-15169Y-173942I4926J65D01*
G03X-15167Y-173993I3978J130D01*
G01Y-187456D01*
G02X-17054Y-199524I-41405J293D01*
G02X-25504Y-213488I-32609J10194D01*
G01X-45984Y-233968D01*
G03X-58429Y-254086I36477J-36473D01*
G03X-58474Y-254216I4185J-1522D01*
G03X-58491Y-254265I2095J-754D01*
G03X-61088Y-270424I48979J-16160D01*
G01Y-317020D01*
G03X-60412Y-318652I2308J0D01*
G03X-59612Y-319135I1380J1382D01*
G02X-59057Y-319891I-237J-756D01*
G01Y-321129D01*
G01X-65947Y-326759D02*
Y-324077D01*
G02X-65836Y-323808I380J1D01*
G01X-65644Y-323616D01*
G01X-61813Y-326759D02*
Y-324872D01*
G01X-63191Y-326759D02*
Y-323984D01*
G01X-72837Y-326759D02*
Y-324888D01*
X-73157Y-324568D01*
G01X-71459Y-326759D02*
Y-324528D01*
G03X-71704Y-323935I-838J1D01*
G01X-71968Y-323672D01*
G01X-22049Y77106D02*
Y76155D01*
G02X-22323Y75493I-936J0D01*
G01X-24737Y73079D01*
G03X-25252Y71836I1243J-1243D01*
G01Y25076D01*
G03X-25238Y24187I28187J-1D01*
G01Y21519D01*
G03X-22737Y9592I29707J4D01*
G03X-21483Y7067I27204J11936D01*
G03X-18952Y3249I25953J14457D01*
G02X-18703Y2925I-25212J-19634D01*
G01X-18699Y2920D01*
G02X-17831Y1489I-12110J-8324D01*
G02X-17685Y1207I-16595J-8770D01*
G02X-16271Y-3263I-13125J-6611D01*
G02X-16240Y-3555I-3681J-538D01*
G03X-16177Y-4170I8838J595D01*
G02X-16159Y-4304I-56875J-7708D01*
G02X-16152Y-4374I-2287J-264D01*
G02X-16111Y-5408I-14657J-1099D01*
G01Y-173565D01*
G03X-16112Y-173580I942J-70D01*
G03X-16114Y-173601I469J-55D01*
G03Y-173613I472J-6D01*
G01X-16115D01*
G03X-16118Y-173826I12274J-279D01*
G03X-16113Y-173978I5870J117D01*
G03X-16111Y-174016I4919J240D01*
G01Y-187452D01*
G02X-17956Y-199242I-40460J292D01*
G02X-26172Y-212820I-31708J9912D01*
G01X-46652Y-233300D01*
G03X-59321Y-253775I37145J-37141D01*
G03X-59368Y-253910I5074J-1842D01*
G03X-59388Y-253970I2998J-1033D01*
G03X-62032Y-270422I49877J-16454D01*
G01Y-319030D01*
G03X-61872Y-319416I546J0D01*
G02X-61813Y-319558I-142J-142D01*
G01Y-321129D01*
G01X-56301Y-326759D02*
Y-325187D01*
G03X-56316Y-325180I-9J0D01*
G01X-59057Y-326759D02*
Y-325994D01*
G03X-59589Y-324711I-1815J-1D01*
G01X-59852Y-324448D01*
Y-324412D01*
X-59804Y-324364D01*
G01X-57679Y-326759D02*
Y-325310D01*
G03X-57872Y-324844I-659J0D01*
G01X-60435Y-326759D02*
X-60440Y-326754D01*
Y-326333D01*
G03X-60577Y-325383I-3364J0D01*
G01X-60976Y-324004D01*
G03X-61039Y-323866I-538J-162D01*
G02X-61083Y-323708I256J157D01*
G01Y-323532D01*
G01X-64569Y-326759D02*
Y-324911D01*
G03X-64640Y-324740I-242J0D01*
G01X-52167Y-326759D02*
Y-325357D01*
G03X-52328Y-324968I-550J0D01*
G01X-53545Y-326759D02*
Y-325725D01*
G03X-53819Y-325060I-937J3D01*
G01X-54091Y-324788D01*
X-54104D01*
G01X-70081Y-326759D02*
Y-325192D01*
X-70153Y-325120D01*
G01X-34451Y77106D02*
Y75709D01*
G03X-33720Y73944I2496J0D01*
G03X-33700Y73896I68J0D01*
G01X-32303Y72499D01*
G02X-31836Y71372I-1128J-1128D01*
G01Y31435D01*
G03X-31779Y28250I89296J5D01*
G01Y25062D01*
G03X-31765Y24083I34714J7D01*
G01Y21513D01*
G03X-29189Y8085I36238J-9D01*
G03X-27033Y3604I33458J13339D01*
G01X-24397Y-1029D01*
G02X-23819Y-2185I-11626J-6536D01*
G03X-23792Y-2241I1373J627D01*
G02X-23789Y-2247I-628J-318D01*
G02X-23441Y-3031I-9605J-4733D01*
G02X-23435Y-3047I-657J-255D01*
G02X-22684Y-7244I-11369J-4200D01*
G01Y-27344D01*
G03X-22685Y-27399I1507J-55D01*
G01Y-173783D01*
X-22684Y-184670D01*
Y-189539D01*
G02X-22718Y-190270I-7930J3D01*
G02X-24130Y-197310I-33851J3128D01*
G02X-28821Y-206100I-25535J7981D01*
G01X-29387Y-206666D01*
Y-206672D01*
X-30803Y-208088D01*
X-30802Y-208089D01*
X-51042Y-228327D01*
G03X-68584Y-270687I42358J-42353D01*
G01Y-310584D01*
G02X-71291Y-317119I-9242J0D01*
G01X-73807Y-319635D01*
G03X-74215Y-320620I985J-985D01*
G01Y-321129D01*
G01X-71459D02*
G02X-70462Y-318722I3404J0D01*
G03X-69039Y-316868I-9390J8680D01*
G03X-67076Y-310584I-9071J6282D01*
G01Y-270685D01*
G02X-49974Y-229395I58391J2D01*
G01X-28318Y-207740D01*
X-28314D01*
X-27748Y-207174D01*
G03X-22690Y-197760I-21918J17842D01*
G03X-21186Y-190070I-33878J10618D01*
G03X-21176Y-189834I-2848J239D01*
G01Y-162895D01*
G03X-21177Y-162856I-755J0D01*
G01Y-27400D01*
X-21176D01*
Y-6982D01*
G03X-22438Y-1573I-12217J1D01*
G03X-23118Y-223I-13583J-5995D01*
G01X-25721Y4349D01*
G02X-25868Y4613I30271J17029D01*
G03X-25881Y4636I-664J-360D01*
G02X-27339Y7573I30346J16895D01*
G02X-27635Y8271I31825J13908D01*
G02X-27667Y8349I5145J2156D01*
G02X-27787Y8643I24232J10062D01*
G01Y8645D01*
G02X-30257Y21514I32259J12863D01*
G01Y24105D01*
G02X-30271Y25064I33192J964D01*
G01Y28278D01*
G02X-30328Y31445I87731J3163D01*
G01Y72073D01*
G03X-30879Y73403I-1880J0D01*
G01X-31493Y74017D01*
G02X-31788Y74729I713J712D01*
G01Y76915D01*
G02X-31719Y77082I236J0D01*
G01X-31695Y77106D01*
G01X-49411Y-324392D02*
G02X-49441Y-324690I-1518J2D01*
G01X-50789Y-326759D02*
Y-325044D01*
G01X-11660Y22356D02*
X-12181Y21835D01*
G03X-12425Y21263I592J-590D01*
G03X-8242Y10413I17516J522D01*
G02X-3306Y-2977I-15697J-13391D01*
G01Y-188585D01*
G02X-17085Y-221851I-47045J0D01*
G01X-37593Y-242359D01*
G03X-49226Y-270443I28086J-28085D01*
G01Y-270968D01*
G03X-48749Y-272118I1627J1D01*
G01X-48747Y-272120D01*
X-48732D01*
X-48724Y-272128D01*
X-48536D01*
X-48516Y-272148D01*
G01X-17915Y77106D02*
Y76193D01*
G01D02*
G02X-17985Y76025I-238J0D01*
G01X-13883Y78930D02*
G02X-14404Y79256I446J1291D01*
G01X-11972Y78856D02*
X-13438D01*
G02X-13883Y78930I-1J1366D01*
G01X-28939Y82736D02*
Y81589D01*
G02X-29420Y80428I-1642J0D01*
G01X-27561Y82736D02*
Y81394D01*
G02X-28177Y79907I-2103J0D01*
G01X-28280Y79804D01*
G01X-35829Y82736D02*
X-35749Y82655D01*
G02X-35680Y82489I-167J-167D01*
G01Y80575D01*
X-35594Y80502D01*
X-35584D01*
G01X-34451Y82736D02*
Y81553D01*
G02X-34524Y79532I-28012J0D01*
G01X-26183Y82736D02*
Y80956D01*
X-26235Y80904D01*
G01X-22049Y82736D02*
Y81080D01*
G02X-22132Y80880I-283J0D01*
G01X-23427Y82736D02*
Y80872D01*
G01X-33073Y82736D02*
Y81756D01*
G02X-33464Y80812I-1335J0D01*
G01X-31695Y82736D02*
Y82195D01*
G02X-31960Y80946I-3076J0D01*
G02X-32073Y80739I-1350J603D01*
G03X-32142Y80613I764J-500D01*
G02X-32213Y80483I-800J353D01*
G03X-32436Y79424I1192J-804D01*
G01X-16537Y82736D02*
Y81180D01*
G01X-19293Y82736D02*
Y81506D01*
G02X-19496Y81016I-693J0D01*
G01X-17915Y82736D02*
Y81286D01*
G02X-18012Y81052I-331J0D01*
G01X-20671Y82736D02*
Y81319D01*
G02X-20808Y80988I-468J0D01*
G01X-24805Y82736D02*
Y81134D01*
G02X-24920Y80856I-393J0D01*
G01X-11025Y82736D02*
Y81346D01*
G02X-11197Y80931I-587J0D01*
G01X-11383Y80745D01*
X-11604D01*
X-11608Y80749D01*
G01X-12403Y82736D02*
Y81748D01*
G02X-12432Y81514I-956J0D01*
G02X-12816Y80470I-5104J1285D01*
G02X-12932Y80265I-2164J1089D01*
G03X-12984Y80082I295J-183D01*
G01Y80037D01*
G01X-13781Y82736D02*
Y81276D01*
X-14180Y80877D01*
Y80717D01*
G01X-31276Y80080D02*
G03X-31201Y80261I-181J181D01*
G01Y80347D01*
G01X-30317Y81903D02*
Y82736D01*
G01X-5514Y74088D02*
G02X-5600Y73880I-294J0D01*
G01X-5514Y75067D02*
Y74088D01*
G54D21*
G01X-75249Y-318225D02*
X-72717Y-315693D01*
G03X-70929Y-312740I-5107J5110D01*
G03X-70599Y-310578I-6905J2160D01*
G01Y-270689D01*
G02X-52468Y-226901I61916J11D01*
G01X-33653Y-208089D01*
X-33654Y-208088D01*
X-31848Y-206281D01*
G03X-26055Y-196707I-16552J16555D01*
G03X-24725Y-190084I-30512J9572D01*
G03X-24699Y-189537I-5889J554D01*
G01Y-184672D01*
X-24700Y-173785D01*
Y-27402D01*
G02X-24699Y-27300I3523J16D01*
G01Y-7246D01*
G03X-25321Y-3760I-10105J-4D01*
G03X-25596Y-3142I-8072J-3222D01*
G02X-25660Y-3005I3161J1560D01*
G03X-26152Y-2022I-10358J-4570D01*
G01X-28785Y2607D01*
G02X-31062Y7338I33052J18821D01*
G02X-33780Y21514I35536J14162D01*
G01Y24054D01*
G02X-33794Y25060I36715J1014D01*
G01Y28213D01*
G02X-33851Y31445I91254J3226D01*
G01Y70430D01*
G03X-34392Y71736I-1846J0D01*
G01X-36598Y73942D01*
G02X-37021Y74832I1038J1039D01*
G54D12*
X-81597Y-323944D03*
X-41833Y79921D03*
G54D31*
G01X-53214Y-319238D02*
X-54661Y-317791D01*
G01X-52820Y-317961D02*
X-54719Y-316062D01*
G01X-52820Y-316291D02*
X-54844Y-314267D01*
G01X-52848Y-314593D02*
X-56891Y-310550D01*
G01X-54128Y-311643D02*
X-56976Y-308795D01*
G01X-55111Y-308990D02*
X-56976Y-307125D01*
G01X-55192Y-307238D02*
X-56975Y-305455D01*
G01X-55192Y-305568D02*
X-56975Y-303785D01*
G01X-55192Y-303898D02*
X-56975Y-302115D01*
G01X-55192Y-302228D02*
X-56976Y-300444D01*
G01X-55192Y-300558D02*
X-56976Y-298774D01*
G01X-55192Y-298887D02*
X-56975Y-297104D01*
G01X-55192Y-297217D02*
X-56975Y-295434D01*
G01X-55192Y-295547D02*
X-56975Y-293764D01*
G01X-55192Y-293877D02*
X-56976Y-292093D01*
G01X-55193Y-292206D02*
X-56976Y-290423D01*
G01X-55192Y-290537D02*
X-56976Y-288753D01*
G01X-55192Y-288866D02*
X-56975Y-287083D01*
G01X-55192Y-287196D02*
X-56975Y-285413D01*
G01X-55193Y-285525D02*
X-56976Y-283742D01*
G01X-55192Y-283856D02*
X-56976Y-282072D01*
G01X-55192Y-282186D02*
X-56191Y-281187D01*
G01X-56976Y-282451D02*
X-55711Y-281186D01*
G01X-56976Y-284121D02*
X-55192Y-282337D01*
G01X-56975Y-285791D02*
X-55192Y-284008D01*
G01X-56975Y-287461D02*
X-55192Y-285678D01*
G01X-56975Y-289131D02*
X-55192Y-287348D01*
G01X-56976Y-290802D02*
X-55193Y-289019D01*
G01X-56976Y-292472D02*
X-55192Y-290688D01*
G01X-56976Y-294142D02*
X-55192Y-292358D01*
G01X-56975Y-295812D02*
X-55192Y-294029D01*
G01X-56975Y-297482D02*
X-55192Y-295699D01*
G01X-56976Y-299153D02*
X-55192Y-297369D01*
G01X-56976Y-300823D02*
X-55192Y-299039D01*
G01X-56976Y-302493D02*
X-55192Y-300709D01*
G01X-56975Y-304163D02*
X-55192Y-302380D01*
G01X-56975Y-305833D02*
X-55192Y-304050D01*
G01X-56975Y-307503D02*
X-55192Y-305720D01*
G01X-56976Y-309174D02*
X-55193Y-307391D01*
G01X-56855Y-310724D02*
X-55113Y-308981D01*
G01X-56404Y-311942D02*
X-54774Y-310312D01*
G01X-55717Y-312926D02*
X-54243Y-311452D01*
G01X-54997Y-313876D02*
X-53577Y-312456D01*
G01X-54720Y-315269D02*
X-53053Y-313602D01*
G01X-54720Y-316939D02*
X-52821Y-315040D01*
G01X-54466Y-318355D02*
X-52820Y-316709D01*
G01X-53678Y-319238D02*
X-52820Y-318380D01*
G01X-83017Y-281769D02*
X-82262Y-281014D01*
G01X-83017Y-283439D02*
X-80592Y-281014D01*
G01X-83017Y-285110D02*
X-78921Y-281014D01*
G01X-83016Y-286779D02*
X-77251Y-281014D01*
G01X-83017Y-288450D02*
X-75581Y-281014D01*
G01X-83017Y-290120D02*
X-73911Y-281014D01*
G01X-83017Y-291790D02*
X-72241Y-281014D01*
G01X-83017Y-293460D02*
X-71981Y-282424D01*
G01X-83017Y-295131D02*
X-71980Y-284094D01*
G01X-83017Y-296801D02*
X-71980Y-285764D01*
G01X-83017Y-298471D02*
X-71981Y-287435D01*
G01X-83017Y-300141D02*
X-71981Y-289105D01*
G01X-83017Y-301811D02*
X-71980Y-290774D01*
G01X-83017Y-303482D02*
X-71980Y-292445D01*
G01X-83017Y-305152D02*
X-71980Y-294115D01*
G01X-83017Y-306822D02*
X-71980Y-295785D01*
G01X-83017Y-308492D02*
X-71980Y-297455D01*
G01X-83017Y-310162D02*
X-71980Y-299125D01*
G01X-83017Y-311833D02*
X-71980Y-300796D01*
G01X-83017Y-313503D02*
X-71980Y-302466D01*
G01X-83017Y-315173D02*
X-71980Y-304136D01*
G01X-83017Y-316843D02*
X-71980Y-305806D01*
G01X-83017Y-318513D02*
X-71980Y-307476D01*
G01X-81551Y-318717D02*
X-71980Y-309146D01*
G01X-79881Y-318718D02*
X-71985Y-310821D01*
G01X-78211Y-318718D02*
X-72513Y-313019D01*
G01X-82127Y-318718D02*
X-83017Y-317828D01*
G01X-80457Y-318718D02*
X-83017Y-316158D01*
G01X-78787Y-318717D02*
X-83017Y-314487D01*
G01X-77347Y-318487D02*
X-83017Y-312817D01*
G01X-76512Y-317652D02*
X-83017Y-311147D01*
G01X-75735Y-316758D02*
X-83017Y-309476D01*
G01X-74901Y-315923D02*
X-83017Y-307807D01*
G01X-74065Y-315088D02*
X-83017Y-306136D01*
G01X-73256Y-314227D02*
X-83017Y-304466D01*
G01X-72604Y-313209D02*
X-83017Y-302796D01*
G01X-72153Y-311990D02*
X-83017Y-301126D01*
G01X-71980Y-310493D02*
X-83017Y-299456D01*
G01X-71980Y-308822D02*
X-83017Y-297785D01*
G01X-71980Y-307152D02*
X-83016Y-296116D01*
G01X-71980Y-305482D02*
X-83017Y-294445D01*
G01X-71980Y-303812D02*
X-83017Y-292775D01*
G01X-71980Y-302142D02*
X-83017Y-291105D01*
G01X-71980Y-300472D02*
X-83017Y-289435D01*
G01X-71980Y-298801D02*
X-83017Y-287764D01*
G01X-71980Y-297131D02*
X-83017Y-286094D01*
G01X-71980Y-295461D02*
X-83017Y-284424D01*
G01X-71981Y-293790D02*
X-83017Y-282754D01*
G01X-71981Y-292120D02*
X-83017Y-281084D01*
G01X-71980Y-290450D02*
X-81416Y-281014D01*
G01X-71980Y-288780D02*
X-79746Y-281014D01*
G01X-71980Y-287110D02*
X-78076Y-281014D01*
G01X-71981Y-285439D02*
X-76406Y-281014D01*
G01X-71981Y-283769D02*
X-74736Y-281014D01*
G01X-71980Y-282099D02*
X-73065Y-281014D01*
G01X-48452Y-280608D02*
X-48306Y-280462D01*
G01X-48452Y-282278D02*
X-46636Y-280462D01*
G01X-48452Y-283948D02*
X-44966Y-280462D01*
G01X-48452Y-285618D02*
X-43296Y-280462D01*
G01X-48452Y-287289D02*
X-41625Y-280462D01*
G01X-48452Y-288959D02*
X-40605Y-281112D01*
G01X-48452Y-290629D02*
X-40605Y-282782D01*
G01X-48452Y-292299D02*
X-40605Y-284452D01*
G01X-48452Y-293969D02*
X-40605Y-286122D01*
G01X-48452Y-295640D02*
X-40605Y-287793D01*
G01X-48452Y-297310D02*
X-40605Y-289463D01*
G01X-48452Y-298980D02*
X-40605Y-291133D01*
G01X-48452Y-300650D02*
X-40606Y-292804D01*
G01X-48452Y-302320D02*
X-40605Y-294473D01*
G01X-48452Y-303990D02*
X-40605Y-296143D01*
G01X-48452Y-305661D02*
X-40605Y-297814D01*
G01X-48437Y-307316D02*
X-40605Y-299484D01*
G01X-48017Y-308566D02*
X-40605Y-301154D01*
G01X-47263Y-309482D02*
X-40605Y-302824D01*
G01X-46544Y-310433D02*
X-40605Y-304494D01*
G01X-45959Y-311519D02*
X-40605Y-306165D01*
G01X-45535Y-312765D02*
X-40605Y-307835D01*
G01X-45322Y-314222D02*
X-40605Y-309505D01*
G01X-45314Y-315884D02*
X-40605Y-311175D01*
G01X-45314Y-317554D02*
X-40605Y-312845D01*
G01X-45015Y-318926D02*
X-40605Y-314516D01*
G01X-43345Y-318926D02*
X-40605Y-316186D01*
G01X-41675Y-318926D02*
X-40605Y-317856D01*
G01X-45175Y-318926D02*
X-45479Y-318622D01*
G01X-43504Y-318926D02*
X-45313Y-317117D01*
G01X-41834Y-318926D02*
X-45313Y-315447D01*
G01X-40605Y-318485D02*
X-45363Y-313727D01*
G01X-40605Y-316815D02*
X-46006Y-311414D01*
G01X-40605Y-315145D02*
X-48437Y-307313D01*
G01X-40605Y-313474D02*
X-48452Y-305627D01*
G01X-40605Y-311804D02*
X-48452Y-303957D01*
G01X-40605Y-310134D02*
X-48452Y-302287D01*
G01X-40605Y-308464D02*
X-48452Y-300617D01*
G01X-40605Y-306794D02*
X-48452Y-298947D01*
G01X-40605Y-305124D02*
X-48452Y-297277D01*
G01X-40605Y-303453D02*
X-48452Y-295606D01*
G01X-40605Y-301783D02*
X-48452Y-293936D01*
G01X-40606Y-300112D02*
X-48452Y-292266D01*
G01X-40605Y-298443D02*
X-48452Y-290596D01*
G01X-40605Y-296773D02*
X-48452Y-288926D01*
G01X-40605Y-295102D02*
X-48452Y-287255D01*
G01X-40605Y-293432D02*
X-48452Y-285585D01*
G01X-40605Y-291762D02*
X-48452Y-283915D01*
G01X-40605Y-290092D02*
X-48452Y-282245D01*
G01X-40606Y-288421D02*
X-48452Y-280575D01*
G01X-40605Y-286751D02*
X-46894Y-280462D01*
G01X-40605Y-285081D02*
X-45224Y-280462D01*
G01X-40605Y-283411D02*
X-43554Y-280462D01*
G01X-40606Y-281740D02*
X-41884Y-280462D01*
G01X-18706Y45429D02*
X-20181Y46904D01*
G01X-18400Y46793D02*
X-20182Y48575D01*
G01X-18400Y48463D02*
X-20182Y50245D01*
G01X-18400Y50134D02*
X-20181Y51915D01*
G01X-18400Y51804D02*
X-20181Y53585D01*
G01X-18400Y53474D02*
X-20181Y55255D01*
G01X-18400Y55144D02*
X-20182Y56926D01*
G01X-18400Y56814D02*
X-20182Y58596D01*
G01X-18400Y58484D02*
X-20123Y60207D01*
G01X-18343Y60098D02*
X-19927Y61682D01*
G01X-18136Y61561D02*
X-19620Y63045D01*
G01X-17806Y62901D02*
X-19218Y64313D01*
G01X-17374Y64139D02*
X-18733Y65498D01*
G01X-16853Y65288D02*
X-18173Y66609D01*
G01X-16269Y66374D02*
X-17577Y67682D01*
G01X-15631Y67406D02*
X-16911Y68686D01*
G01X-14903Y68349D02*
X-16210Y69656D01*
G01X-14093Y69209D02*
X-15510Y70626D01*
G01X-13396Y70182D02*
X-14902Y71688D01*
G01X-13130Y71587D02*
X-14738Y73195D01*
G01X-13130Y73257D02*
X-14475Y74602D01*
G01X-13130Y74927D02*
X-13417Y75214D01*
G01X-14738Y73782D02*
X-13306Y75214D01*
G01X-14802Y72048D02*
X-13131Y73719D01*
G01X-17691Y67488D02*
X-13130Y72049D01*
G01X-19231Y64278D02*
X-13458Y70051D01*
G01X-19874Y61965D02*
X-17131Y64708D01*
G01X-20137Y60032D02*
X-18004Y62165D01*
G01X-20182Y58317D02*
X-18337Y60162D01*
G01X-20182Y56647D02*
X-18400Y58429D01*
G01X-20182Y54976D02*
X-18400Y56758D01*
G01X-20182Y53306D02*
X-18400Y55088D01*
G01X-20181Y51637D02*
X-18400Y53418D01*
G01X-20182Y49966D02*
X-18400Y51748D01*
G01X-20182Y48296D02*
X-18400Y50078D01*
G01X-20181Y46626D02*
X-18400Y48407D01*
G01X-19709Y45428D02*
X-18400Y46737D01*
G01X-43253Y74544D02*
X-42683Y75114D01*
G01X-43253Y72874D02*
X-41013Y75114D01*
G01X-43253Y71204D02*
X-39439Y75018D01*
G01X-43253Y69533D02*
X-38356Y74430D01*
G01X-43253Y67863D02*
X-37842Y73274D01*
G01X-43253Y66193D02*
X-37028Y72418D01*
G01X-43253Y64523D02*
X-36193Y71583D01*
G01X-43253Y62853D02*
X-35358Y70748D01*
G01X-43253Y61182D02*
X-35232Y69203D01*
G01X-43253Y59512D02*
X-35232Y67533D01*
G01X-43253Y57842D02*
X-35232Y65863D01*
G01X-43253Y56172D02*
X-35233Y64192D01*
G01X-43253Y54501D02*
X-35232Y62522D01*
G01X-43306Y52778D02*
X-35232Y60852D01*
G01X-43438Y50976D02*
X-35232Y59182D01*
G01X-43599Y49145D02*
X-35232Y57512D01*
G01X-43759Y47315D02*
X-35232Y55842D01*
G01X-43373Y46031D02*
X-35233Y54171D01*
G01X-41703Y46031D02*
X-35233Y52501D01*
G01X-40033Y46030D02*
X-35232Y50831D01*
G01X-38363Y46030D02*
X-35232Y49161D01*
G01X-36693Y46030D02*
X-35232Y47491D01*
G01X-43574Y46030D02*
X-43847Y46303D01*
G01X-41904Y46031D02*
X-43713Y47840D01*
G01X-40234Y46031D02*
X-43578Y49375D01*
G01X-38563Y46030D02*
X-43444Y50911D01*
G01X-36893Y46030D02*
X-43324Y52461D01*
G01X-35233Y46040D02*
X-43259Y54067D01*
G01X-35232Y47710D02*
X-43253Y55731D01*
G01X-35232Y49380D02*
X-43253Y57401D01*
G01X-35232Y51050D02*
X-43253Y59071D01*
G01X-35232Y52720D02*
X-43253Y60741D01*
G01X-35232Y54390D02*
X-43253Y62411D01*
G01X-35232Y56061D02*
X-43253Y64082D01*
G01X-35232Y57731D02*
X-43253Y65752D01*
G01X-35232Y59401D02*
X-43253Y67422D01*
G01X-35233Y61072D02*
X-43253Y69092D01*
G01X-35232Y62741D02*
X-43253Y70762D01*
G01X-35232Y64411D02*
X-43253Y72432D01*
G01X-35232Y66082D02*
X-43253Y74103D01*
G01X-35232Y67752D02*
X-42594Y75114D01*
G01X-35232Y69422D02*
X-40924Y75114D01*
G01X-38285Y74145D02*
X-39158Y75018D01*
G01X-5684Y73699D02*
X-4669Y74714D01*
G01X-5748Y71964D02*
X-2998Y74714D01*
G01X-6123Y69919D02*
X-1328Y74714D01*
G01X-7220Y67152D02*
X-841Y73531D01*
G01X-11042Y61660D02*
X-841Y71861D01*
G01X-11611Y59420D02*
X-841Y70190D01*
G01X-11660Y57702D02*
X-841Y68521D01*
G01X-11660Y56031D02*
X-841Y66850D01*
G01X-11660Y54361D02*
X-841Y65180D01*
G01X-11660Y52691D02*
X-841Y63510D01*
G01X-11660Y51021D02*
X-841Y61840D01*
G01X-11660Y49351D02*
X-841Y60170D01*
G01X-11659Y47681D02*
X-841Y58499D01*
G01X-11336Y46334D02*
X-841Y56829D01*
G01X-9666Y46334D02*
X-841Y55159D01*
G01X-7995Y46335D02*
X-841Y53489D01*
G01X-6325Y46335D02*
X-841Y51819D01*
G01X-4655Y46334D02*
X-841Y50148D01*
G01X-2985Y46334D02*
X-841Y48478D01*
G01X-1315Y46334D02*
X-841Y46808D01*
G01X-10474Y46334D02*
X-11660Y47520D01*
G01X-8804Y46334D02*
X-11660Y49190D01*
G01X-7134Y46335D02*
X-11659Y50860D01*
G01X-5464Y46335D02*
X-11660Y52531D01*
G01X-3794Y46335D02*
X-11659Y54200D01*
G01X-2123Y46334D02*
X-11660Y55871D01*
G01X-841Y46722D02*
X-11660Y57541D01*
G01X-841Y48393D02*
X-11633Y59185D01*
G01X-841Y50063D02*
X-11392Y60614D01*
G01X-841Y51733D02*
X-10960Y61852D01*
G01X-841Y53403D02*
X-10379Y62941D01*
G01X-841Y55073D02*
X-9668Y63901D01*
G01X-841Y56743D02*
X-8869Y64771D01*
G01X-841Y58414D02*
X-8128Y65701D01*
G01X-841Y60084D02*
X-7468Y66711D01*
G01X-841Y61754D02*
X-6892Y67805D01*
G01X-841Y63424D02*
X-6409Y68992D01*
G01X-841Y65094D02*
X-6031Y70284D01*
G01X-841Y66765D02*
X-5778Y71702D01*
G01X-841Y68435D02*
X-5683Y73277D01*
G01X-841Y70105D02*
X-5450Y74714D01*
G01X-841Y71775D02*
X-3780Y74714D01*
G01X-841Y73445D02*
X-2110Y74714D01*
G54D22*
G01X-55176Y-324752D02*
Y-325252D01*
G03X-55032Y-325600I492J0D01*
G02X-54923Y-325863I-263J-263D01*
G01Y-326759D01*
G54D13*
X-78348D03*
X-76970D03*
X-75593D03*
X-74215D03*
X-72837D03*
X-71459D03*
X-70081D03*
X-68703D03*
X-67325D03*
X-65947D03*
X-64569D03*
X-63191D03*
X-61813D03*
X-60435D03*
X-59057D03*
X-57679D03*
X-56301D03*
X-54923D03*
X-53545D03*
X-52167D03*
Y-321129D03*
X-53545D03*
X-54923D03*
X-56301D03*
X-57679D03*
X-59057D03*
X-60435D03*
X-61813D03*
X-63191D03*
X-64569D03*
X-65947D03*
X-67325D03*
X-68703D03*
X-70081D03*
X-71459D03*
X-72837D03*
X-74215D03*
X-75593D03*
X-76970D03*
X-78348D03*
X-50789Y-326759D03*
X-49411D03*
X-48033D03*
X-46656D03*
X-45278D03*
Y-321129D03*
X-46656D03*
X-48033D03*
X-49411D03*
X-50789D03*
X-38584Y77106D03*
X-37206D03*
X-35829D03*
X-34451D03*
X-33073D03*
X-31695D03*
X-30317D03*
X-28939D03*
X-27561D03*
X-26183D03*
X-24805D03*
X-23427D03*
X-22049D03*
X-20671D03*
X-19293D03*
X-17915D03*
X-16537D03*
X-15159D03*
X-13781D03*
X-12403D03*
X-11025D03*
X-9647D03*
Y82736D03*
X-11025D03*
X-12403D03*
X-13781D03*
X-15159D03*
X-16537D03*
X-17915D03*
X-19293D03*
X-20671D03*
X-22049D03*
X-23427D03*
X-24805D03*
X-26183D03*
X-27561D03*
X-28939D03*
X-30317D03*
X-31695D03*
X-33073D03*
X-34451D03*
X-35829D03*
X-37206D03*
X-38584D03*
X-8269Y77106D03*
X-6892D03*
X-5514D03*
Y82736D03*
X-6892D03*
X-8269D03*
G54D23*
G01X-49684Y-319056D02*
G02X-50036Y-318206I850J850D01*
G01Y-315155D01*
G03X-51584Y-310451I-7860J20D01*
G02X-52416Y-307923I3425J2528D01*
G01Y-270444D01*
G02X-39849Y-240103I42909J0D01*
G01X-19341Y-219595D01*
G03X-6496Y-188586I-31010J31010D01*
G01Y-4159D01*
G03X-11061Y8813I-20715J0D01*
G02X-15624Y21788I16152J12970D01*
G01Y58828D01*
G02X-12263Y66943I11476J1D01*
G03X-11257Y68284I-4187J4189D01*
G01X-11065Y68635D01*
G03X-10354Y71411I-5066J2777D01*
G03Y71413I-3377J1D01*
G01Y74280D01*
G02X-9940Y75280I1413J1D01*
G03X-9647Y75987I-707J707D01*
G01Y77106D01*
G54D14*
X-57775Y-322792D03*
X-75856Y-329164D03*
X-73700D03*
X-70700D03*
X-67700D03*
X-64700D03*
X-61700D03*
X-58700D03*
X-55700D03*
X-52700D03*
X-60116D03*
X-57140Y-329200D03*
X-63220Y-329164D03*
X-66384Y-329200D03*
X-69228Y-329128D03*
X-72204Y-329200D03*
X-68622Y-318882D03*
X-80288Y-323179D03*
X-80328Y-324483D03*
X-80712Y-328420D03*
X-78348Y-328798D03*
X-79824Y-329092D03*
X-81632Y-327788D03*
X-82488Y-326356D03*
X-82736Y-324904D03*
X-82696Y-323676D03*
Y-322580D03*
X-82628Y-321548D03*
X-82640Y-320276D03*
X-81300Y-320172D03*
X-80144Y-320192D03*
X-78688Y-323184D03*
X-80184Y-327448D03*
X-79044Y-324388D03*
X-77484Y-324200D03*
X-68447Y-323992D03*
X-67452Y-325148D03*
X-75404Y-324708D03*
X-74168Y-323660D03*
X-65644Y-323616D03*
X-61813Y-324872D03*
X-63191Y-323984D03*
X-73157Y-324568D03*
X-71968Y-323672D03*
X-56316Y-325180D03*
X-59804Y-324364D03*
X-57872Y-324844D03*
X-61083Y-323532D03*
X-64640Y-324740D03*
X-52328Y-324968D03*
X-54104Y-324788D03*
X-56252Y-322769D03*
X-70153Y-325120D03*
X-79888Y-264443D03*
X-76240Y-264579D03*
X-72728Y-264511D03*
X-82576Y-264303D03*
X-62552Y-223131D03*
X-65616Y-223180D03*
X-52704Y-223339D03*
X-56216Y-223407D03*
X-59864Y-223271D03*
X-76248Y-239067D03*
X-66400Y-239275D03*
X-69912Y-239343D03*
X-73560Y-239207D03*
X-81796Y-253207D03*
X-71948Y-253415D03*
X-75460Y-253483D03*
X-79108Y-253347D03*
X-52436Y-211315D03*
X-55948Y-211383D03*
X-49700Y-329164D03*
X-50348Y-323312D03*
X-49411Y-324392D03*
X-48572Y-329132D03*
X-48036Y-324988D03*
X-46924Y-325000D03*
X-50789Y-325044D03*
X-42344Y-320360D03*
X-43632Y-320432D03*
X-44628Y-323888D03*
X-43356Y-324524D03*
X-43416Y-323168D03*
X-41032Y-320424D03*
X-40868Y-322136D03*
X-40860Y-323640D03*
X-40884Y-325068D03*
X-41188Y-326456D03*
X-43580Y-327832D03*
X-42480Y-327780D03*
X-41208Y-327772D03*
X-41164Y-329124D03*
X-42560Y-329268D03*
X-43860D03*
X-45236Y-329276D03*
X-46556Y-329296D03*
X-48516Y-272148D03*
X-9632Y-218523D03*
X-28016Y-237955D03*
X-25016D03*
X-22016D03*
X-19016D03*
X-15072Y-238023D03*
X-12072D03*
X-9072D03*
X-41516Y-251339D03*
X-38516D03*
X-35516D03*
X-32516D03*
X-28572Y-251407D03*
X-25572D03*
X-22572D03*
X-29916Y-259775D03*
X-32916D03*
X-42860Y-259707D03*
X-39860D03*
X-36860D03*
X-45860D03*
X-37504Y-177783D03*
X-41016Y-177851D03*
X-44664Y-177715D03*
X-27656Y-177991D03*
X-31168Y-178059D03*
X-34816Y-177923D03*
X-37764Y-188935D03*
X-41276Y-189003D03*
X-44924Y-188867D03*
X-27916Y-189143D03*
X-31428Y-189211D03*
X-35076Y-189075D03*
X-41700Y-201111D03*
X-45212Y-201179D03*
X-48860Y-201043D03*
X-31852Y-201319D03*
X-35364Y-201387D03*
X-39012Y-201251D03*
X-42588Y-211523D03*
X-46100Y-211591D03*
X-49748Y-211455D03*
X-34352Y-138379D03*
X-30704Y-138515D03*
X-27192Y-138447D03*
X-44200Y-138171D03*
X-40552Y-138307D03*
X-37040Y-138239D03*
X-34352Y-148379D03*
X-30704Y-148515D03*
X-27192Y-148447D03*
X-44200Y-148171D03*
X-40552Y-148307D03*
X-37040Y-148239D03*
X-34352Y-158379D03*
X-30704Y-158515D03*
X-27192Y-158447D03*
X-44200Y-158171D03*
X-40552Y-158307D03*
X-37040Y-158239D03*
X-37504Y-167783D03*
X-41016Y-167851D03*
X-44664Y-167715D03*
X-27656Y-167991D03*
X-31168Y-168059D03*
X-34816Y-167923D03*
X-34352Y-98379D03*
X-30704Y-98515D03*
X-27192Y-98447D03*
X-44200Y-98171D03*
X-40552Y-98307D03*
X-37040Y-98239D03*
X-34352Y-108379D03*
X-30704Y-108515D03*
X-27192Y-108447D03*
X-44200Y-108171D03*
X-40552Y-108307D03*
X-37040Y-108239D03*
X-34352Y-118379D03*
X-30704Y-118515D03*
X-27192Y-118447D03*
X-44200Y-118171D03*
X-40552Y-118307D03*
X-37040Y-118239D03*
X-34352Y-128379D03*
X-30704Y-128515D03*
X-27192Y-128447D03*
X-44200Y-128171D03*
X-40552Y-128307D03*
X-37040Y-128239D03*
X-34352Y-58379D03*
X-30704Y-58515D03*
X-27192Y-58447D03*
X-44200Y-58171D03*
X-40552Y-58307D03*
X-37040Y-58239D03*
X-34352Y-68379D03*
X-30704Y-68515D03*
X-27192Y-68447D03*
X-44200Y-68171D03*
X-40552Y-68307D03*
X-37040Y-68239D03*
X-34352Y-78379D03*
X-30704Y-78515D03*
X-27192Y-78447D03*
X-44200Y-78171D03*
X-40552Y-78307D03*
X-37040Y-78239D03*
X-34352Y-88379D03*
X-30704Y-88515D03*
X-27192Y-88447D03*
X-44200Y-88171D03*
X-40552Y-88307D03*
X-37040Y-88239D03*
X-34352Y-18379D03*
X-30704Y-18515D03*
X-27192Y-18447D03*
X-44200Y-18171D03*
X-40552Y-18307D03*
X-37040Y-18239D03*
X-34352Y-28379D03*
X-30704Y-28515D03*
X-27192Y-28447D03*
X-44200Y-28171D03*
X-40552Y-28307D03*
X-37040Y-28239D03*
X-34352Y-38379D03*
X-30704Y-38515D03*
X-27192Y-38447D03*
X-44200Y-38171D03*
X-40552Y-38307D03*
X-37040Y-38239D03*
X-34352Y-48379D03*
X-30704Y-48515D03*
X-27192Y-48447D03*
X-44200Y-48171D03*
X-40552Y-48307D03*
X-37040Y-48239D03*
X-11660Y22356D03*
X-37040Y26653D03*
X-40552Y26585D03*
X-44200Y26721D03*
X-37316Y13433D03*
X-40828Y13365D03*
X-44476Y13501D03*
X-37108Y-5915D03*
X-40620Y-5983D03*
X-44268Y-5847D03*
X-27260Y-6123D03*
X-30772Y-6191D03*
X-34420Y-6055D03*
X-10732Y31217D03*
X-43924Y37877D03*
X-40276Y37741D03*
X-36764Y37809D03*
X-11008Y37825D03*
X-17928Y78696D03*
X-10076Y79488D03*
X-36396Y85073D03*
X-34424D03*
X-32284Y85037D03*
X-29284D03*
X-26284D03*
X-23284D03*
X-20284D03*
X-17284D03*
X-14284D03*
X-11284D03*
X-10100Y80481D03*
X-26684Y79449D03*
X-30196Y74980D03*
X-40828Y75301D03*
X-42376Y75273D03*
X-40392Y76345D03*
X-41624Y76285D03*
X-42856Y76357D03*
Y78193D03*
X-42972Y79465D03*
X-42940Y80725D03*
X-38872Y79561D03*
X-38732Y81057D03*
X-40520Y79465D03*
X-40492Y80785D03*
X-42616Y82273D03*
X-42588Y83817D03*
X-38820Y85221D03*
X-40740Y85121D03*
X-42316Y85093D03*
X-41044Y84016D03*
X-37407Y80159D03*
X-29420Y80428D03*
X-28280Y79804D03*
X-35584Y80502D03*
X-34524Y79532D03*
X-26235Y80904D03*
X-22132Y80880D03*
X-23427Y80872D03*
X-33464Y80812D03*
X-32436Y79424D03*
X-16537Y81180D03*
X-19496Y81016D03*
X-18012Y81052D03*
X-20808Y80988D03*
X-24920Y80856D03*
X-11608Y80749D03*
X-12984Y80037D03*
X-14180Y80717D03*
X-16216Y78917D03*
X-31276Y80080D03*
X-6632Y-218523D03*
X-3632D03*
X-632D03*
X3312Y-218591D03*
X6312D03*
X9312D03*
X-1280Y-183643D03*
X1720D03*
X4720D03*
X7720D03*
X11664Y-183711D03*
X14664D03*
X17664D03*
X-2504Y-200499D03*
X496D03*
X3496D03*
X6496D03*
X10440Y-200567D03*
X13440D03*
X16440D03*
X-1280Y-143643D03*
X1720D03*
X4720D03*
X7720D03*
X11664Y-143711D03*
X14664D03*
X17664D03*
X-1280Y-153643D03*
X1720D03*
X4720D03*
X7720D03*
X11664Y-153711D03*
X14664D03*
X17664D03*
X-1280Y-163643D03*
X1720D03*
X4720D03*
X7720D03*
X11664Y-163711D03*
X14664D03*
X17664D03*
X-1280Y-173643D03*
X1720D03*
X4720D03*
X7720D03*
X11664Y-173711D03*
X14664D03*
X17664D03*
X15420Y-99943D03*
X18420D03*
X12420D03*
X2476Y-99875D03*
X5476D03*
X8476D03*
X-524D03*
X15420Y-109943D03*
X18420D03*
X12420D03*
X2476Y-109875D03*
X5476D03*
X8476D03*
X-524D03*
X15420Y-119943D03*
X18420D03*
X12420D03*
X2476Y-119875D03*
X5476D03*
X8476D03*
X-524D03*
X15420Y-129943D03*
X18420D03*
X12420D03*
X2476Y-129875D03*
X5476D03*
X8476D03*
X-524D03*
X15420Y-59943D03*
X18420D03*
X12420D03*
X2476Y-59875D03*
X5476D03*
X8476D03*
X-524D03*
X15420Y-69943D03*
X18420D03*
X12420D03*
X2476Y-69875D03*
X5476D03*
X8476D03*
X-524D03*
X15420Y-79943D03*
X18420D03*
X12420D03*
X2476Y-79875D03*
X5476D03*
X8476D03*
X-524D03*
X15420Y-89943D03*
X18420D03*
X12420D03*
X2476Y-89875D03*
X5476D03*
X8476D03*
X-524D03*
X14796Y-26143D03*
X17796D03*
X11796D03*
X1852Y-26075D03*
X4852D03*
X7852D03*
X-1148D03*
X15420Y-39943D03*
X18420D03*
X12420D03*
X2476Y-39875D03*
X5476D03*
X8476D03*
X-524D03*
X15420Y-49943D03*
X18420D03*
X12420D03*
X2476Y-49875D03*
X5476D03*
X8476D03*
X-524D03*
X-8444Y18541D03*
X-5444D03*
X-2444D03*
X556D03*
X-1148Y8697D03*
X1852D03*
X4852D03*
X7852D03*
X-940Y-5007D03*
X2060D03*
X5060D03*
X8060D03*
X12004Y-5075D03*
X15004D03*
X18004D03*
X-7732Y31217D03*
X-4732D03*
X-1732D03*
X-8008Y37825D03*
X-5008D03*
X-2008D03*
X-8284Y85037D03*
X-7304Y80580D03*
X-8269Y80972D03*
X-4372Y79877D03*
X-1328Y76249D03*
X-2448Y76261D03*
X-3680Y76293D03*
X-3564Y79277D03*
X-3608Y80541D03*
X-1468Y77497D03*
X-1116Y78641D03*
X-1104Y79921D03*
X-1116Y81281D03*
X-1508Y82345D03*
X-2556Y83605D03*
X-3708Y83637D03*
X-3892Y85117D03*
X-5248Y85288D03*
X-5276Y80370D03*
X-5374Y79194D03*
G54D24*
G01X-56976Y-281186D02*
X-55192D01*
Y-307927D01*
G03X-53816Y-312102I7032J3D01*
G01X-53815D01*
G02X-52820Y-315122I-4085J-3020D01*
G01Y-319001D01*
X-52819D01*
G02X-52839Y-319202I-1041J2D01*
G01X-52846Y-319238D01*
X-53724D01*
Y-319231D01*
X-54074D01*
G03X-54206Y-318886I-3147J-1006D01*
G03X-54212Y-318775I-1058J-2D01*
G02X-54720Y-317246I2050J1530D01*
G01Y-315089D01*
G03X-55538Y-313115I-2795J-2D01*
G02X-56976Y-309645I3469J3471D01*
G01Y-281186D01*
G01X-76225Y-317249D02*
G03X-76500Y-317641I975J-977D01*
G01X-77475Y-318616D01*
G03X-77569Y-318718I1207J-1207D01*
G01X-83017D01*
Y-281014D01*
X-71980D01*
Y-310686D01*
G02X-72247Y-312327I-5854J110D01*
G02X-73693Y-314716I-5577J1744D01*
G01X-76225Y-317249D01*
G01X-75593Y-321129D02*
Y-319961D01*
G02X-75068Y-319436I525J0D01*
G01X-74903D01*
G03X-74324Y-319196I0J818D01*
G01X-74014Y-318886D01*
Y-318846D01*
G01X-40605Y-280462D02*
Y-318926D01*
X-45723D01*
G03X-45748Y-318871I-1843J-804D01*
G03X-45739Y-318835I-1893J492D01*
G03X-45314Y-318144I-349J691D01*
G01Y-314592D01*
G03X-47059Y-309730I-7650J-2D01*
G01X-48035Y-308546D01*
G02X-48083Y-308474I343J281D01*
G02X-48452Y-307018I2696J1458D01*
G01Y-280462D01*
X-40605D01*
G01X-13960Y75214D02*
X-13130D01*
Y71415D01*
G02X-14009Y69293I-3001J0D01*
G03X-14037Y69265I676J-704D01*
G01X-14297Y69003D01*
G03X-16398Y66130I8207J-8207D01*
G01X-16399D01*
G02X-16544Y65862I-7015J3622D01*
G03X-18399Y58831I12396J-7031D01*
G01X-18400D01*
Y45428D01*
X-20182D01*
Y58838D01*
G02X-18041Y66844I16043J-1D01*
G03X-17983Y66953I-5364J2924D01*
G02X-17381Y68001I11902J-6140D01*
G01X-17356Y68041D01*
G02X-16946Y68639I11247J-7271D01*
G01X-16945D01*
X-15310Y70903D01*
G03X-14737Y72673I-2449J1771D01*
G01X-14738D01*
Y73862D01*
G02X-14720Y74100I1589J-1D01*
G03X-14279Y75208I-3762J2139D01*
G01X-13960D01*
Y75214D01*
G01X-43706Y46030D02*
G02X-43857Y46195I0J152D01*
G01X-43407Y51341D01*
G03X-43270Y53679I-40256J3532D01*
G03X-43253Y54745I-33167J1062D01*
G01Y75114D01*
X-39974D01*
Y75018D01*
X-38553D01*
G02X-38401Y74866I0J-152D01*
G01Y74865D01*
G03X-38402Y74835I1379J-61D01*
G03X-38395Y74693I1381J-3D01*
G03X-37574Y72965I2834J288D01*
G01X-35368Y70759D01*
G02X-35232Y70431I-329J-329D01*
G01Y46030D01*
X-43706D01*
G01X-5758Y74497D02*
G02X-5621Y74714I137J65D01*
G01X-841D01*
Y46334D01*
X-11660D01*
Y58530D01*
G02X-9271Y64332I8240J0D01*
G03X-5684Y73255I-9309J8925D01*
G01Y74166D01*
G03X-5758Y74497I-777J0D01*
G01X-15159Y82736D02*
G02X-15404Y80628I-9191J0D01*
G01X-31201Y80347D02*
X-30793Y80755D01*
G03X-30317Y81903I-1148J1149D01*
G54D15*
X-42896Y-326090D03*
X-3132Y77775D03*
G54D25*
G01X-101344Y-376583D02*
Y-366583D01*
G01X-96094D02*
Y-376583D01*
G01Y-371583D02*
X-101344D01*
G01X-91594Y-376583D02*
Y-366583D01*
X-85844Y-376583D01*
Y-366583D01*
G01X-78719Y-376583D02*
Y-366583D01*
X-80219Y-368583D01*
G01Y-376583D02*
X-77219D01*
G01X-71594D02*
Y-366583D01*
X-65844Y-376583D01*
Y-366583D01*
G01X-58719D02*
Y-376583D01*
G01X-61594Y-366583D02*
X-55844D01*
G01X-51344Y-376583D02*
Y-366583D01*
G01X-46094D02*
Y-376583D01*
G01Y-371583D02*
X-51344D01*
G01X-41094Y-376583D02*
Y-366583D01*
X-36344D01*
G01X-38094Y-371416D02*
X-41094D01*
G01X-31219Y-366583D02*
Y-376583D01*
X-26219D01*
G01X-11844Y-366583D02*
X-8719Y-376583D01*
X-5594Y-366583D01*
G01X3781Y-376583D02*
X-1219D01*
Y-366583D01*
X3781D01*
G01X1781Y-371416D02*
X-1219D01*
G01X8781Y-376583D02*
Y-366583D01*
X11906D01*
X12906Y-367083D01*
X13531Y-367750D01*
X13781Y-369083D01*
X13531Y-370416D01*
X12781Y-371250D01*
X11906Y-371750D01*
X8781D01*
G01X11906D02*
X13781Y-376583D01*
G01X21281Y-376916D02*
X21031Y-376750D01*
Y-376416D01*
X21281Y-376250D01*
X21531Y-376416D01*
Y-376750D01*
X21281Y-376916D01*
G01X28156Y-376583D02*
X31281Y-366583D01*
X34406Y-376583D01*
G01X33281Y-373083D02*
X29281D01*
G01X48156Y-376583D02*
X51281Y-366583D01*
X54406Y-376583D01*
G01X53281Y-373083D02*
X49281D01*
G01X58781Y-376583D02*
Y-366583D01*
X61906D01*
X62906Y-367083D01*
X63531Y-367750D01*
X63781Y-369083D01*
X63531Y-370416D01*
X62781Y-371250D01*
X61906Y-371750D01*
X58781D01*
G01X61906D02*
X63781Y-376583D01*
G01X71281Y-366583D02*
Y-376583D01*
G01X68406Y-366583D02*
X74156D01*
G01X77531D02*
X79281Y-376583D01*
X81281Y-366583D01*
X83281Y-376583D01*
X85031Y-366583D01*
G01X91281Y-376583D02*
X90281Y-376416D01*
X89406Y-375750D01*
X88656Y-374750D01*
X88156Y-373583D01*
X87906Y-372250D01*
Y-370916D01*
X88156Y-369583D01*
X88656Y-368416D01*
X89406Y-367416D01*
X90281Y-366750D01*
X91281Y-366583D01*
X92281Y-366750D01*
X93156Y-367416D01*
X93906Y-368416D01*
X94406Y-369583D01*
X94656Y-370916D01*
Y-372250D01*
X94406Y-373583D01*
X93906Y-374750D01*
X93156Y-375750D01*
X92281Y-376416D01*
X91281Y-376583D01*
G01X98781D02*
Y-366583D01*
X101906D01*
X102906Y-367083D01*
X103531Y-367750D01*
X103781Y-369083D01*
X103531Y-370416D01*
X102781Y-371250D01*
X101906Y-371750D01*
X98781D01*
G01X101906D02*
X103781Y-376583D01*
G01X108531D02*
Y-366583D01*
G01X113281D02*
X108531Y-372750D01*
G01X114031Y-376583D02*
X110656Y-369917D01*
G01X131281Y-366583D02*
Y-376583D01*
G01X128406Y-366583D02*
X134156D01*
G01X141281Y-376583D02*
X140281Y-376416D01*
X139406Y-375750D01*
X138656Y-374750D01*
X138156Y-373583D01*
X137906Y-372250D01*
Y-370916D01*
X138156Y-369583D01*
X138656Y-368416D01*
X139406Y-367416D01*
X140281Y-366750D01*
X141281Y-366583D01*
X142281Y-366750D01*
X143156Y-367416D01*
X143906Y-368416D01*
X144406Y-369583D01*
X144656Y-370916D01*
Y-372250D01*
X144406Y-373583D01*
X143906Y-374750D01*
X143156Y-375750D01*
X142281Y-376416D01*
X141281Y-376583D01*
G01X148781D02*
Y-366583D01*
X151781D01*
X152781Y-367083D01*
X153531Y-368250D01*
X153781Y-369583D01*
X153531Y-370916D01*
X152906Y-371916D01*
X151781Y-372417D01*
X148781D01*
G01X-57775Y-322792D02*
G03X-57679Y-322306I-1182J486D01*
G01Y-321129D01*
G01X-24805Y77106D02*
Y76193D01*
G02X-25028Y75379I-1590J-2D01*
G01X-25969Y73796D01*
G03X-26200Y73241I1821J-1083D01*
G03X-26378Y71839I5435J-1402D01*
G01Y25076D01*
G03X-26364Y24168I29313J-2D01*
G01Y21517D01*
G03X-23769Y9139I30834J3D01*
G03X-22468Y6518I28238J12383D01*
G03X-20830Y3896I26938J15006D01*
G01X-19608Y2141D01*
G02X-17635Y-2709I-9743J-6790D01*
G02X-17633Y-2722I-646J-106D01*
G01X-17369Y-4328D01*
G02X-17237Y-5953I-9905J-1622D01*
G01Y-173512D01*
G03X-17241Y-173588I1122J-97D01*
G03X-17246Y-173833I13398J-396D01*
G03X-17238Y-174037I6996J172D01*
G03X-17237Y-174053I6039J369D01*
G01Y-187447D01*
G02X-19032Y-198905I-39334J292D01*
G02X-26969Y-212023I-30633J9574D01*
G01X-45505Y-230559D01*
G03X-45508Y-230562I42400J-42403D01*
G01X-47449Y-232503D01*
G03X-60385Y-253403I37942J-37938D01*
G03X-60436Y-253547I6125J-2250D01*
G03X-60438Y-253553I620J-210D01*
G03X-60461Y-253625I4083J-1344D01*
G03X-63158Y-270420I50950J-16796D01*
G01Y-316652D01*
G02X-63579Y-318378I-4439J168D01*
G02X-63894Y-318889I-2451J1158D01*
G01X-64350Y-319473D01*
G03X-64569Y-320109I813J-636D01*
G01Y-321129D01*
G54D16*
X-42896Y-321798D03*
X-3132Y82067D03*
G54D26*
G01X-11025Y77106D02*
Y75934D01*
G02X-11125Y75692I-343J0D01*
G01X-11174Y75643D01*
G03X-11274Y75402I240J-241D01*
G01Y71414D01*
G02X-12697Y67980I-4857J1D01*
G01X-12984Y67692D01*
G03X-14750Y65277I6895J-6895D01*
G02X-14930Y64946I-8654J4492D01*
G03X-16544Y58830I10782J-6116D01*
G01Y21781D01*
G03X-12160Y8726I21636J2D01*
G02X-7578Y-2647I-18651J-14124D01*
G02X-7559Y-2945I-2937J-337D01*
G01X-7553Y-2959D01*
G03X-7542Y-3044I1470J147D01*
G02X-7515Y-3250I-2935J-490D01*
G02X-7417Y-5394I-23297J-2139D01*
G01Y-173711D01*
X-7416Y-173710D01*
Y-173712D01*
G03Y-173786I3577J-37D01*
G01Y-187178D01*
G02X-11877Y-207638I-49158J2D01*
G02X-19992Y-218944I-38476J19051D01*
G01X-40500Y-239452D01*
G03X-53336Y-270443I30993J-30991D01*
G01Y-307920D01*
G03X-52324Y-310998I5177J-3D01*
G02X-50964Y-315121I-5576J-4125D01*
G01Y-320707D01*
G03X-50789Y-321129I597J0D01*
G01X-12403Y77106D02*
Y75989D01*
G03X-12303Y75747I343J0D01*
G01X-12254Y75698D01*
G02X-12154Y75457I-240J-241D01*
G01Y71415D01*
G02X-13320Y68603I-3976J1D01*
G01Y68602D01*
X-13607Y68314D01*
G03X-15532Y65682I7517J-7518D01*
G02X-15695Y65381I-7880J4073D01*
G03X-17424Y58831I11547J-6551D01*
G01Y21780D01*
G03X-12861Y8194I22515J3D01*
G02X-8453Y-2750I-17951J-13590D01*
G02X-8439Y-2956I-2061J-244D01*
G03X-8421Y-3134I1038J15D01*
G01X-8419D01*
G03X-8411Y-3186I2334J332D01*
G02X-8392Y-3333I-2067J-342D01*
G02X-8297Y-5395I-22420J-2066D01*
G01Y-173710D01*
G03X-8296Y-173805I4458J-1D01*
G01Y-187177D01*
G02X-12672Y-207260I-48278J1D01*
G02X-20615Y-218321I-37679J18675D01*
G01X-41123Y-238829D01*
G03X-54216Y-270444I31617J-31612D01*
G01Y-307920D01*
G03X-53031Y-311522I6056J-3D01*
G02X-51844Y-315122I-4869J-3601D01*
G01Y-319001D01*
G02X-51882Y-319391I-2016J0D01*
G01X-52151Y-320754D01*
G03X-52167Y-320923I858J-167D01*
G01Y-321129D01*
G54D17*
X-42029Y-323944D03*
X-2265Y79921D03*
G54D27*
G01X-53545Y-321129D02*
Y-323092D01*
G01X-54923Y-326759D02*
Y-328960D01*
G01X-49411Y-321129D02*
Y-319715D01*
G03X-49684Y-319056I-932J0D01*
G01X-53545Y-319139D02*
G02X-53532Y-319108I44J0D01*
G01X-53545Y-321129D02*
Y-319139D01*
G01X-78862Y-324570D02*
X-79044Y-324388D01*
G01X-78348Y-326759D02*
Y-325635D01*
G03X-78363Y-325492I-706J-2D01*
G03X-78862Y-324570I-1799J-378D01*
G01X-78348Y-321129D02*
Y-322363D01*
G02X-78688Y-323184I-1161J0D01*
G01X-76970Y-321129D02*
Y-319823D01*
G02X-76764Y-319327I702J-1D01*
G01X-75662Y-318225D01*
X-75249D01*
G01X-37021Y74832D02*
G02X-37206Y75279I447J447D01*
G01Y77106D01*
G01X-76970Y-326759D02*
Y-325578D01*
G03X-77002Y-325368I-701J1D01*
G01X-77316Y-324368D01*
X-77484Y-324200D01*
G01X-33073Y77106D02*
Y75518D01*
G01X-71089Y-318039D02*
G03X-72038Y-318862I5309J-7081D01*
G01X-72576Y-319400D01*
G03X-72837Y-320030I630J-630D01*
G01Y-321129D01*
G01X-55596Y-318612D02*
G02X-54923Y-320237I-1625J-1625D01*
G01Y-321129D01*
G01X-56301D02*
Y-322651D01*
G03X-56252Y-322769I167J0D01*
G01X-74014Y-318846D02*
X-71789Y-316621D01*
G03X-69288Y-310584I-6036J6037D01*
G01Y-270688D01*
G02X-51540Y-227829I60604J8D01*
G01X-31798Y-208089D01*
X-31799Y-208088D01*
X-30920Y-207209D01*
G03X-24803Y-197099I-17480J17482D01*
G03X-23419Y-190205I-31764J9963D01*
G03X-23388Y-189538I-7195J669D01*
G01Y-184671D01*
X-23389Y-173784D01*
Y-27398D01*
G02X-23388Y-27318I2212J12D01*
G01Y-7245D01*
G03X-24096Y-3291I-11416J-4D01*
G03X-24421Y-2558I-9300J-3685D01*
G02X-24462Y-2472I1977J996D01*
G03X-25010Y-1376I-11560J-5095D01*
G01X-27645Y3256D01*
G02X-29843Y7824I31913J18169D01*
G02X-32469Y21514I34316J13679D01*
G01Y24073D01*
G02X-32483Y25061I35404J996D01*
G01Y28237D01*
G02X-32540Y31445I89943J3203D01*
G01Y71371D01*
G03X-32801Y72001I-891J0D01*
G01X-35172Y74372D01*
G02X-35829Y75958I1586J1586D01*
G01Y77106D01*
G01X-49411Y-321129D02*
Y-324392D01*
G01Y-328960D02*
Y-326759D01*
G01X-49441Y-324690D02*
G03X-49411Y-325408I1489J-297D01*
G01Y-326759D01*
G01X-48033D02*
Y-325184D01*
G03X-48036Y-324988I-6404J0D01*
G01X-46656Y-326759D02*
X-46672Y-326743D01*
Y-325304D01*
X-46924Y-325052D01*
Y-325000D01*
G01X-48033Y-321129D02*
Y-319326D01*
G02X-47641Y-318380I1338J0D01*
G01X-46656Y-321129D02*
Y-319740D01*
G03X-46921Y-319100I-905J0D01*
G01X-47641Y-318380D01*
G01X-45177Y-324435D02*
X-45160Y-324452D01*
G01X-45278Y-326759D02*
X-45287Y-324435D01*
G01X-16132Y73892D02*
G03X-15159Y76241I-2349J2349D01*
G01Y77106D01*
G01X-9787Y80982D02*
G02X-9659Y81583I1518J-9D01*
G03X-9647Y81871I-3624J295D01*
G01Y82736D01*
G01X-13781Y77106D02*
Y78684D01*
G03X-13883Y78930I-348J0D01*
G01X-9284Y85196D02*
X-9647Y84833D01*
G01X-14284Y85037D02*
X-14459D01*
G01X-17928Y78696D02*
Y77119D01*
G03X-17915Y77106I443J430D01*
G01X-13924Y74488D02*
X-13781Y74631D01*
G01D02*
Y77106D01*
G01X-14459Y85037D02*
X-15159Y84337D01*
Y82736D01*
G01X-9647Y77106D02*
Y78330D01*
G03X-9852Y78825I-700J0D01*
G01D02*
X-10076Y79049D01*
Y79488D01*
G01X-38872Y79560D02*
X-38584Y79848D01*
G01D02*
Y82736D01*
G01X-37206D02*
Y80649D01*
G02X-37409Y80159I-693J0D01*
G01X-37407D01*
G01X-16216Y78917D02*
Y78831D01*
X-16331Y78716D01*
G03X-16537Y78220I496J-497D01*
G01Y77106D01*
G01X-9647Y84833D02*
Y82736D01*
G01X-6892D02*
Y80992D01*
X-7304Y80580D01*
G01X-8269Y82736D02*
Y80972D01*
G01X-6892Y77106D02*
Y75476D01*
X-8011Y74357D01*
G01D02*
X-8269Y74615D01*
Y77106D01*
G01X-5514Y82736D02*
Y80535D01*
G01D02*
X-5404Y80425D01*
G54D18*
G01X-8011Y74357D02*
Y73258D01*
G02X-10999Y65894I-10568J0D01*
G03X-13988Y58530I7579J-7365D01*
G01Y21787D01*
G03X-9425Y9404I19079J-2D01*
G02X-4860Y-2978I-14514J-12383D01*
G01Y-188585D01*
G02X-18184Y-220752I-45491J0D01*
G01X-38692Y-241260D01*
G03X-50780Y-270444I29185J-29184D01*
G01Y-307018D01*
G03X-49200Y-310832I5394J0D01*
G02X-47641Y-314596I-3764J-3764D01*
G01Y-318380D01*
G54D28*
G01X-33073Y75518D02*
G03X-32272Y73584I2735J0D01*
G01X-31834Y73146D01*
G02X-31305Y72488I-2735J-2741D01*
G02X-31082Y71720I-1208J-767D01*
G01Y31445D01*
G03X-31025Y28264I88542J-4D01*
G01Y25063D01*
G03X-31011Y24094I33960J6D01*
G01Y21514D01*
G03X-28488Y8365I35484J-8D01*
G03X-28365Y8063I25060J10030D01*
G03X-28030Y7271I32847J13427D01*
G03X-26528Y4246I32499J14251D01*
G03X-26377Y3977I31020J17236D01*
G01X-23740Y-657D01*
G02X-23129Y-1878I-12282J-6909D01*
G03X-23115Y-1907I687J314D01*
G02X-22733Y-2769I-10280J-5071D01*
G02X-21930Y-7243I-12072J-4476D01*
G01Y-27361D01*
G03X-21931Y-27400I753J-39D01*
G01Y-162895D01*
X-21930Y-184669D01*
Y-189540D01*
G02X-21967Y-190339I-8684J2D01*
G02X-23410Y-197535I-34602J3196D01*
G02X-28284Y-206637I-26256J8204D01*
G02X-28293Y-206648I-21294J17413D01*
G01X-50508Y-228861D01*
G03X-67830Y-270686I41823J-41821D01*
G01Y-310584D01*
G02X-70568Y-317570I-10280J-1D01*
G02X-71089Y-318039I-2873J2667D01*
G01X-48036Y-324988D02*
X-46936D01*
X-46924Y-325000D01*
G01X-8269Y80972D02*
X-7877Y80580D01*
X-7304D01*
G54D19*
G01X-68622Y-318882D02*
G03X-65635Y-311069I-8725J7813D01*
G01Y-270412D01*
G02X-62820Y-252859I56125J1D01*
G02X-62788Y-252765I6432J-2137D01*
G02X-62782Y-252748I832J-284D01*
G02X-62726Y-252585I8543J-2844D01*
G02X-49202Y-230750I53219J-17856D01*
G01X-47262Y-228810D01*
G02X-47258Y-228806I44156J-44152D01*
G01X-39595Y-221143D01*
G02X-39573Y-221121I62566J-62544D01*
G01X-28722Y-210270D01*
G03X-21399Y-198164I-20945J20937D01*
G03X-19779Y-189350I-35170J11020D01*
G01Y-5958D01*
G03X-19879Y-4742I-7494J-4D01*
G01X-20143Y-3137D01*
G03X-20825Y-859I-9208J-1516D01*
G03X-20880Y-738I-18945J-8539D01*
G03X-21160Y-182I-8470J-3917D01*
G01X-21164Y-175D01*
X-21169Y-165D01*
G03X-21697Y687I-8184J-4482D01*
G01X-22919Y2442D01*
G02X-24692Y5279I27385J19087D01*
G02X-26100Y8116I29162J16241D01*
G02X-26416Y8863I30581J13377D01*
G02X-26531Y9146I22997J9510D01*
G02X-28906Y21513I31003J12365D01*
G01Y24125D01*
G02X-28920Y25066I31841J944D01*
G01Y28303D01*
G02X-28977Y31444I86380J3139D01*
G01Y72326D01*
G03X-29780Y74263I-2740J-1D01*
G01X-30195Y74679D01*
G54D29*
G01X-78348Y-321129D02*
Y-319090D01*
G01Y-328798D02*
Y-326759D01*
G01X-45278Y-328798D02*
Y-326759D01*
G01Y-323168D02*
Y-321129D01*
G01D02*
Y-319090D01*
G01X-38584Y77106D02*
Y79145D01*
G01Y75067D02*
Y77106D01*
G01Y82736D02*
Y84775D01*
G01X-5514Y82736D02*
Y84775D01*
G01Y77106D02*
Y79145D01*
G01Y75067D02*
Y77106D01*
M02*
