G04 ================== begin FILE IDENTIFICATION RECORD ==================*
G04 Layout Name:  F:/PCBWORK/2021/NTH/Main FPC/hn1nthflPCB_VA/HN1NTHFL.brd*
G04 Film Name:    stiffenerbotm*
G04 File Format:  Gerber RS274X*
G04 File Origin:  Cadence Allegro 17.2-S053*
G04 Origin Date:  Mon Mar 08 19:57:20 2021*
G04 *
G04 Layer:  BOARD GEOMETRY/STIFFENERBOTM*
G04 Layer:  BOARD GEOMETRY/OUTLINE*
G04 *
G04 Offset:    (0.00 0.00)*
G04 Mirror:    Yes*
G04 Mode:      Positive*
G04 Rotation:  0*
G04 FullContactRelief:  No*
G04 UndefLineWidth:     6.00*
G04 ================== end FILE IDENTIFICATION RECORD ====================*
%FSLAX25Y25*MOIN*%
%IR0*IPPOS*OFA0.00000B0.00000*MIA1B0*SFA1.00000B1.00000*%
%ADD10C,.0004*%
%ADD11C,.006*%
G75*
%LPD*%
G75*
G36*
G01X-40160Y-319022D02*
Y-328668D01*
G02X-41538Y-330046I-1378J0D01*
G01X-79322D01*
G02X-81178Y-329484I0J3346D01*
G01X-81977Y-328952D01*
G02X-83467Y-326167I1857J2784D01*
G01Y-319022D01*
G02X-82089Y-317645I1378J-1D01*
G01X-41538D01*
G02X-40160Y-319022I0J-1378D01*
G37*
G36*
G01X-43700Y74999D02*
Y84645D01*
G02X-42322Y86023I1378J0D01*
G01X-4538D01*
G02X-2682Y85461I0J-3346D01*
G01X-1883Y84929D01*
G02X-393Y82144I-1857J-2784D01*
G01Y74999D01*
G02X-1771Y73622I-1378J1D01*
G01X-42322D01*
G02X-43700Y74999I0J1378D01*
G37*
G54D10*
G01X-42323Y86614D02*
G03X-44291Y84646I0J-1968D01*
G01Y54767D01*
G02X-44308Y53711I-32146J-11D01*
G02X-44441Y51432I-39355J1153D01*
G01X-46897Y23356D01*
G03X-47047Y19925I39216J-3433D01*
G01Y-181474D01*
G02X-54229Y-204144I-39370J0D01*
G01X-76873Y-236295D01*
G03X-84055Y-258965I32188J-22670D01*
G01Y-326169D01*
G03X-82302Y-329444I3936J0D01*
G01X-81504Y-329977D01*
G03X-79320Y-330638I2184J3276D01*
G01X-41535D01*
G03X-39567Y-328669I0J1968D01*
G01Y-279663D01*
G02X-33307Y-265267I19684J-1D01*
G01X8543Y-226240D01*
G03X21063Y-197447I-26850J28794D01*
G01Y-2693D01*
G03X11948Y13913I-19685J0D01*
G01X5666Y17912D01*
G02X197Y27876I6342J9964D01*
G01Y82145D01*
G03X-1556Y85421I-3937J0D01*
G01X-2355Y85953D01*
G03X-4539Y86614I-2184J-3276D01*
G01X-42323D01*
G54D11*
G01X203564Y-420402D02*
Y-410402D01*
G01X198314D02*
Y-420402D01*
G01Y-415402D02*
X203564D01*
G01X193814Y-420402D02*
Y-410402D01*
X188064Y-420402D01*
Y-410402D01*
G01X180939Y-420402D02*
Y-410402D01*
X182439Y-412402D01*
G01Y-420402D02*
X179439D01*
G01X173814D02*
Y-410402D01*
X168064Y-420402D01*
Y-410402D01*
G01X160939D02*
Y-420402D01*
G01X163814Y-410402D02*
X158064D01*
G01X153564Y-420402D02*
Y-410402D01*
G01X148314D02*
Y-420402D01*
G01Y-415402D02*
X153564D01*
G01X143314Y-420402D02*
Y-410402D01*
X138564D01*
G01X140314Y-415235D02*
X143314D01*
G01X133439Y-410402D02*
Y-420402D01*
X128439D01*
G01X114064Y-410402D02*
X110939Y-420402D01*
X107814Y-410402D01*
G01X98439Y-420402D02*
X103439D01*
Y-410402D01*
X98439D01*
G01X100439Y-415235D02*
X103439D01*
G01X93439Y-420402D02*
Y-410402D01*
X90314D01*
X89314Y-410902D01*
X88689Y-411569D01*
X88439Y-412902D01*
X88689Y-414235D01*
X89439Y-415069D01*
X90314Y-415569D01*
X93439D01*
G01X90314D02*
X88439Y-420402D01*
G01X80939Y-420735D02*
X81189Y-420569D01*
Y-420235D01*
X80939Y-420069D01*
X80689Y-420235D01*
Y-420569D01*
X80939Y-420735D01*
G01X74064Y-420402D02*
X70939Y-410402D01*
X67814Y-420402D01*
G01X68939Y-416902D02*
X72939D01*
G01X53564Y-419069D02*
X52564Y-419902D01*
X51439Y-420402D01*
X50439D01*
X49439Y-419902D01*
X48689Y-419069D01*
X48314Y-417902D01*
X48564Y-416736D01*
X49189Y-415735D01*
X50314Y-415069D01*
X51814Y-414735D01*
X52689Y-414069D01*
X53064Y-412902D01*
X52814Y-411735D01*
X52189Y-410902D01*
X51314Y-410402D01*
X50439D01*
X49564Y-410735D01*
X48814Y-411569D01*
G01X40939Y-410402D02*
Y-420402D01*
G01X43814Y-410402D02*
X38064D01*
G01X32439D02*
X29439D01*
G01X30939D02*
Y-420402D01*
G01X32439D02*
X29439D01*
G01X23314D02*
Y-410402D01*
X18564D01*
G01X20314Y-415235D02*
X23314D01*
G01X13314Y-420402D02*
Y-410402D01*
X8564D01*
G01X10314Y-415235D02*
X13314D01*
G01X-1561Y-420402D02*
X3439D01*
Y-410402D01*
X-1561D01*
G01X439Y-415235D02*
X3439D01*
G01X-6186Y-420402D02*
Y-410402D01*
X-11936Y-420402D01*
Y-410402D01*
G01X-21561Y-420402D02*
X-16561D01*
Y-410402D01*
X-21561D01*
G01X-19561Y-415235D02*
X-16561D01*
G01X-26561Y-420402D02*
Y-410402D01*
X-29686D01*
X-30686Y-410902D01*
X-31311Y-411569D01*
X-31561Y-412902D01*
X-31311Y-414235D01*
X-30561Y-415069D01*
X-29686Y-415569D01*
X-26561D01*
G01X-29686D02*
X-31561Y-420402D01*
G01X-50061Y-415069D02*
X-50561Y-414569D01*
X-50936Y-413736D01*
X-51186Y-412569D01*
X-50936Y-411569D01*
X-50436Y-410902D01*
X-49561Y-410402D01*
X-46186D01*
Y-420402D01*
X-50311D01*
X-51186Y-419735D01*
X-51686Y-418735D01*
X-51936Y-417569D01*
X-51686Y-416402D01*
X-50936Y-415402D01*
X-50061Y-415069D01*
X-46186D01*
G01X-59061Y-420402D02*
X-58061Y-420235D01*
X-57186Y-419569D01*
X-56436Y-418569D01*
X-55936Y-417402D01*
X-55686Y-416069D01*
Y-414735D01*
X-55936Y-413402D01*
X-56436Y-412235D01*
X-57186Y-411235D01*
X-58061Y-410569D01*
X-59061Y-410402D01*
X-60061Y-410569D01*
X-60936Y-411235D01*
X-61686Y-412235D01*
X-62186Y-413402D01*
X-62436Y-414735D01*
Y-416069D01*
X-62186Y-417402D01*
X-61686Y-418569D01*
X-60936Y-419569D01*
X-60061Y-420235D01*
X-59061Y-420402D01*
G01X-69061Y-410402D02*
Y-420402D01*
G01X-66186Y-410402D02*
X-71936D01*
G01X-79061D02*
Y-420402D01*
G01X-76186Y-410402D02*
X-81936D01*
G01X-89061Y-420402D02*
X-88061Y-420235D01*
X-87186Y-419569D01*
X-86436Y-418569D01*
X-85936Y-417402D01*
X-85686Y-416069D01*
Y-414735D01*
X-85936Y-413402D01*
X-86436Y-412235D01*
X-87186Y-411235D01*
X-88061Y-410569D01*
X-89061Y-410402D01*
X-90061Y-410569D01*
X-90936Y-411235D01*
X-91686Y-412235D01*
X-92186Y-413402D01*
X-92436Y-414735D01*
Y-416069D01*
X-92186Y-417402D01*
X-91686Y-418569D01*
X-90936Y-419569D01*
X-90061Y-420235D01*
X-89061Y-420402D01*
G01X-95811D02*
Y-410402D01*
X-99061Y-418735D01*
X-102311Y-410402D01*
Y-420402D01*
M02*
